<svg width="100%" height="500" viewBox="0 0 186 369" fill="none" xmlns="http://www.w3.org/2000/svg">
<path d="M185.936 86.6812C185.931 86.6664 185.926 86.6465 185.921 86.6317C185.881 86.5226 185.822 86.4235 185.752 86.3293C185.742 86.3145 185.733 86.3045 185.723 86.2946C185.564 86.1013 185.346 85.9625 185.099 85.9031C185.01 85.8832 184.915 85.8634 184.821 85.8634H184.465V35.0135C184.465 22.7261 183.068 15.1226 175.437 7.63814C171.886 4.15364 165.201 0 153.474 0H32.2835C20.5715 0 13.8761 4.15364 10.3254 7.63814C2.69895 15.1177 1.30243 22.7261 1.30243 35.0135V50.3344H0.85178C0.782449 50.3344 0.71807 50.3592 0.653692 50.3741V50.3592C0.62893 50.3641 0.614074 50.379 0.589313 50.384C0.544743 50.3988 0.505125 50.4187 0.460555 50.4385C0.411033 50.4633 0.366463 50.498 0.321894 50.5327C0.287228 50.5574 0.252563 50.5872 0.222849 50.6169C0.17828 50.6665 0.148566 50.721 0.113901 50.7755C0.0990442 50.8053 0.0742831 50.835 0.0643787 50.8697C0.024761 50.9639 0 51.068 0 51.177V63.5636C0 63.6726 0.024761 63.7767 0.0643787 63.8709C0.0742831 63.9056 0.0990442 63.9304 0.113901 63.9651C0.143614 64.0196 0.17828 64.0741 0.222849 64.1237C0.252563 64.1534 0.282276 64.1832 0.321894 64.208C0.366463 64.2427 0.406081 64.2724 0.460555 64.3021C0.500173 64.322 0.544743 64.3418 0.589313 64.3567C0.609122 64.3616 0.62893 64.3765 0.653692 64.3814V64.3666C0.71807 64.3814 0.782449 64.4062 0.85178 64.4062H1.30243V76.6044H0.85178C0.782449 76.6044 0.71807 76.6292 0.653692 76.6441V76.6292C0.62893 76.6342 0.614074 76.6491 0.589313 76.654C0.544743 76.6689 0.505125 76.6887 0.460555 76.7085C0.411033 76.7333 0.366463 76.768 0.321894 76.8027C0.287228 76.8325 0.252563 76.8572 0.222849 76.887C0.17828 76.9365 0.148566 76.9911 0.113901 77.0456C0.0990442 77.0753 0.0742831 77.1051 0.0643787 77.1398C0.024761 77.2339 0 77.338 0 77.4471V102.394C0 102.503 0.024761 102.602 0.0643787 102.701C0.0742831 102.736 0.0990442 102.76 0.113901 102.795C0.143614 102.855 0.17828 102.909 0.222849 102.954C0.252563 102.989 0.282276 103.013 0.321894 103.038C0.366463 103.078 0.406081 103.103 0.460555 103.132C0.500173 103.157 0.544743 103.172 0.589313 103.187C0.609122 103.197 0.62893 103.207 0.648739 103.212V103.197C0.713118 103.212 0.777497 103.236 0.846828 103.236H1.29748V110.285H0.85178C0.782449 110.285 0.71807 110.309 0.653692 110.324V110.309C0.62893 110.314 0.614074 110.329 0.589313 110.334C0.544743 110.349 0.505125 110.369 0.460555 110.389C0.411033 110.414 0.366463 110.448 0.321894 110.483C0.287228 110.513 0.252563 110.537 0.222849 110.567C0.17828 110.617 0.148566 110.671 0.113901 110.726C0.0990442 110.756 0.0742831 110.785 0.0643787 110.82C0.024761 110.914 0 111.018 0 111.127V136.074C0 136.183 0.024761 136.282 0.0643787 136.381C0.0742831 136.416 0.0990442 136.441 0.113901 136.475C0.143614 136.535 0.17828 136.589 0.222849 136.634C0.252563 136.669 0.282276 136.693 0.321894 136.718C0.366463 136.758 0.406081 136.783 0.460555 136.812C0.500173 136.837 0.544743 136.852 0.589313 136.867C0.609122 136.877 0.62893 136.887 0.648739 136.892V136.877C0.713118 136.892 0.777497 136.917 0.846828 136.917H1.29748V333.991C1.29748 346.279 2.694 353.882 10.3204 361.367C13.8711 364.851 20.5616 369 32.2835 369H153.474C165.196 369 171.886 364.846 175.437 361.367C183.068 353.882 184.465 346.274 184.465 333.991V127.821H184.821C184.915 127.821 185.01 127.806 185.099 127.786C185.346 127.727 185.564 127.583 185.723 127.395C185.733 127.385 185.742 127.37 185.752 127.36C185.822 127.271 185.881 127.167 185.921 127.058C185.926 127.038 185.931 127.023 185.936 127.008C185.975 126.894 186 126.775 186 126.646V87.0431C186 86.9192 185.975 86.7952 185.936 86.6812Z" fill="#E0E0E0"/>
<path d="M32.2886 365.005L32.2787 360.435V365.005C21.9236 365.005 16.1593 361.481 13.1483 358.522C6.50246 352.004 5.33374 345.432 5.33374 334.027V35.014C5.33374 23.6138 6.50246 17.0364 13.1483 10.5184C16.1593 7.56426 21.9286 4.03516 32.2837 4.03516H153.474C163.839 4.03516 169.603 7.55931 172.614 10.5184C179.26 17.0364 180.429 23.6088 180.429 35.014V334.027C180.429 345.427 179.26 351.999 172.614 358.522C169.603 361.476 163.839 365.005 153.479 365.005H32.2886Z" fill="#F3F3F3"/>
<g opacity="0.2">
<rect x="81.2212" y="13.3828" width="23.2754" height="3.46963" rx="1.73481" fill="white"/>
<ellipse cx="112.915" cy="15.3665" rx="2.97132" ry="2.97397" fill="white"/>
</g>
<mask id="mask0" mask-type="alpha" maskUnits="userSpaceOnUse" x="13" y="11" width="160" height="347">
<path d="M167.318 16.201C165.332 14.2505 161.345 11.9277 153.599 11.9277H139.777C139.074 12.0171 138.054 12.4439 137.955 14.1314C137.816 16.4541 137.529 19.5163 135.231 21.8738C133.458 23.6903 131.17 24.5539 128.788 24.5539C123.642 24.5539 62.7327 24.5539 57.5871 24.5539C55.205 24.5539 52.9121 23.6903 51.1391 21.8738C48.8412 19.5163 48.5589 16.4541 48.4202 14.1314C48.3212 12.4389 47.296 12.0171 46.5977 11.9277H32.4042C24.6635 11.9277 20.6719 14.2505 18.6909 16.201C14.0307 20.7819 13.1987 25.1544 13.1987 35.1848V334.589C13.1987 344.614 14.0258 348.992 18.6909 353.573C20.6769 355.518 24.6635 357.846 32.4091 357.846H153.604C161.35 357.846 165.337 355.523 167.318 353.573C171.983 348.992 172.81 344.614 172.81 334.589V35.1848C172.81 25.1594 171.983 20.7819 167.318 16.201Z" fill="#494949"/>
</mask>
<g mask="url(#mask0)">
<rect x="13.1987" y="11.9277" width="159.611" height="345.918" fill="white"/>
</g>
<rect x="63.8445" y="351.453" width="58.7368" height="2.13007" rx="1.06503" fill="black"/>
</svg>

