<?xml version="1.0" encoding="UTF-8"?>
<svg width="26px" height="24px" viewBox="0 0 26 24" version="1.1" xmlns="http://www.w3.org/2000/svg" xmlns:xlink="http://www.w3.org/1999/xlink">
    <title>41D521DF-E0D6-41CA-A74A-E8BE303ADBC2</title>
    <g id="Web" stroke="none" stroke-width="1" fill="none" fill-rule="evenodd">
        <g id="Dashboard-Main-(No-wallet)" transform="translate(-15.000000, -276.000000)">
            <g id="Group-44" transform="translate(0.000000, 24.000000)">
                <g id="Group-43" transform="translate(0.000000, 56.000000)">
                    <g id="Group-42" transform="translate(0.000000, 99.000000)">
                        <g id="Group-41" transform="translate(15.500000, 0.000000)">
                            <g id="Group-40" transform="translate(0.000000, 61.000000)">
                                <g id="Group-36" transform="translate(0.000000, 35.000000)">
                                    <g id="To-do-Copy-3" transform="translate(0.500000, 1.000000)">
                                        <rect id="Rectangle" x="0" y="0" width="24" height="24"></rect>
                                        <g id="Phone" transform="translate(7.440000, 4.680000)" stroke-linecap="round" stroke-linejoin="round" stroke-width="0.7">
                                            <path d="M0.123243243,13.908 C0.123243243,14.3122724 0.45431052,14.64 0.862702703,14.64 L8.2572973,14.64 C8.66568948,14.64 8.99675676,14.3122724 8.99675676,13.908 L8.99675676,11.712 L0.123243243,11.712 L0.123243243,13.908 Z M8.99675676,0.732 C8.99675676,0.327727563 8.66568948,-1.11022302e-16 8.2572973,-1.11022302e-16 L0.862702703,-1.11022302e-16 C0.45431052,-1.11022302e-16 0.123243243,0.327727563 0.123243243,0.732 L0.123243243,1.952 L8.99675676,1.952 L8.99675676,0.732 Z M8.99675676,11.712 L8.99675676,1.952 M0.123243243,1.952 L0.123243243,11.712" id="Shape" stroke="#627382"></path>
                                            <circle id="Oval" stroke="#979797" cx="4.56" cy="13.2" r="1"></circle>
                                        </g>
                                    </g>
                                </g>
                            </g>
                        </g>
                    </g>
                </g>
            </g>
        </g>
    </g>
</svg>