<svg width="28" height="28" viewBox="0 0 28 28" fill="none" xmlns="http://www.w3.org/2000/svg">
<path d="M21.9167 20.6667H21.2917V11.8126C21.2917 8.1381 18.5755 5.10164 15.0417 4.59644V3.58341C15.0417 3.00789 14.5755 2.54175 14 2.54175C13.4245 2.54175 12.9583 3.00789 12.9583 3.58341V4.59644C9.42448 5.10164 6.70833 8.1381 6.70833 11.8126V20.6667H6.08333C5.6224 20.6667 5.25 21.0391 5.25 21.5001V22.3334C5.25 22.448 5.34375 22.5417 5.45833 22.5417H11.0833C11.0833 24.1511 12.3906 25.4584 14 25.4584C15.6094 25.4584 16.9167 24.1511 16.9167 22.5417H22.5417C22.6562 22.5417 22.75 22.448 22.75 22.3334V21.5001C22.75 21.0391 22.3776 20.6667 21.9167 20.6667ZM14 23.7917C13.3099 23.7917 12.75 23.2318 12.75 22.5417H15.25C15.25 23.2318 14.6901 23.7917 14 23.7917ZM8.58333 20.6667V11.8126C8.58333 10.3647 9.14583 9.00529 10.1693 7.98185C11.1927 6.95841 12.5521 6.39591 14 6.39591C15.4479 6.39591 16.8073 6.95841 17.8307 7.98185C18.8542 9.00529 19.4167 10.3647 19.4167 11.8126V20.6667H8.58333Z" fill="#8181A5"/>
<ellipse cx="19" cy="7.88889" rx="3.88889" ry="3.88889" fill="#E9E9F1"/>
<ellipse cx="19.0002" cy="7.88886" rx="2.77778" ry="2.77778" fill="#EE6352"/>
</svg>
