<?xml version="1.0" encoding="UTF-8"?>
<svg width="192px" height="167px" viewBox="0 0 192 167" version="1.1" xmlns="http://www.w3.org/2000/svg" xmlns:xlink="http://www.w3.org/1999/xlink">
    <title>77E34322-1CF8-4AB0-A3E6-9B167465D0A6</title>
    <defs>
        <linearGradient x1="49.9994744%" y1="100%" x2="49.9994744%" y2="0%" id="linearGradient-1">
            <stop stop-color="#808080" stop-opacity="0.25" offset="0%"></stop>
            <stop stop-color="#808080" stop-opacity="0.12" offset="54%"></stop>
            <stop stop-color="#808080" stop-opacity="0.1" offset="100%"></stop>
        </linearGradient>
        <linearGradient x1="50.0143552%" y1="99.9984335%" x2="50.0143552%" y2="-0.00903255555%" id="linearGradient-2">
            <stop stop-color="#808080" stop-opacity="0.25" offset="0%"></stop>
            <stop stop-color="#808080" stop-opacity="0.12" offset="54%"></stop>
            <stop stop-color="#808080" stop-opacity="0.1" offset="100%"></stop>
        </linearGradient>
    </defs>
    <g id="Web" stroke="none" stroke-width="1" fill="none" fill-rule="evenodd">
        <g id="Dashboard-Main-(No-wallet)" transform="translate(-1328.000000, -569.000000)">
            <g id="Group-28" transform="translate(280.000000, 545.000000)">
                <g id="Group-26-Copy-4" transform="translate(1024.000000, 0.000000)">
                    <g id="Group-14" transform="translate(24.000000, 24.000000)">
                        <path d="M4,0 L188,0 C190.209139,1.48469752e-14 192,1.790861 192,4 L192,163 C192,165.209139 190.209139,167 188,167 L4,167 C1.790861,167 -1.73547709e-16,165.209139 0,163 L0,4 C-7.1463071e-16,1.790861 1.790861,-3.82769592e-17 4,0 Z" id="Rectangle" fill="#EDF5F4"></path>
                        <g id="undraw_add_to_cart_vkjp" transform="translate(35.000000, 30.000000)">
                            <path d="M133.678858,71.5222077 C133.55603,71.6119197 133.443028,71.6991739 133.322657,71.7839702 C132.87853,72.0982367 132.413579,72.3819538 131.931014,72.6331619 C129.40321,73.9665527 126.28706,74.6178864 123.251976,75.0603018 C116.444839,76.0532785 109.495222,76.2462208 102.575083,76.4354762 C83.8769522,76.9491696 65.1333748,77.4616341 46.4806902,76.278173 C39.1110006,75.811179 31.5791777,75.0295785 24.9010106,72.6331619 C23.9437698,72.2906996 23.0053627,71.913008 22.0857892,71.500087 C20.2249425,70.6631845 18.4377928,69.6444003 16.951572,68.427758 C15.5550158,67.2873095 14.4225402,65.9772684 13.745757,64.4878033 C12.3344614,61.38598 13.0812567,57.9019589 14.6927621,54.8615822 C15.3620531,53.6315881 16.1168462,52.4501369 16.951572,51.325946 C18.1958213,49.6140443 19.5678119,47.9512998 20.8194308,46.2406271 C25.2731799,40.1598736 28.1792942,32.4667618 24.0682357,26.229934 C22.8866288,24.4381518 21.1793173,22.8651193 20.2163445,20.9946854 C18.9880629,18.6019556 19.0826406,15.9450055 19.4732342,13.3642492 C19.5240031,13.0365341 19.5776381,12.7120962 19.6341391,12.3909354 C20.301096,8.56404242 21.5563998,4.44097694 25.4267151,2.05193393 C29.4468809,-0.430507883 35.1559338,-0.305156861 40.1452137,0.57721602 C47.9042686,1.96345085 55.0614656,4.84898222 62.294816,7.45431719 C69.5281664,10.0596522 77.0956094,12.4400926 85.045048,12.6957104 C92.0646774,12.9218338 100.252403,11.229595 104.911275,6.83124888 C109.436264,2.55948267 117.942114,2.2338158 124.072468,4.81457214 C128.280561,6.58546256 131.420048,9.77576896 132.744136,13.3642492 C133.012305,14.0846901 133.205351,14.8309276 133.3202,15.5910732 C133.42633,16.2857779 133.460903,16.989548 133.423376,17.6913173 C133.404952,18.037876 133.369331,18.380748 133.3202,18.7199331 C132.295813,25.8010369 124.922439,31.386531 120.440439,37.7118418 C118.250413,40.8013759 116.704007,44.5127493 118.20988,47.8443828 C120.506766,52.9210992 128.494282,54.7263997 133.317744,58.5041354 C134.225445,59.1916767 135.024585,60.0119535 135.688327,60.93742 C138.028204,64.2997768 137.164722,68.840679 133.678858,71.5222077 Z" id="Path" fill="#00839B" opacity="0.1"></path>
                            <g id="d00831fc-a64a-413c-b5dd-d7bd6eafa01d">
                                <path d="M32.1371626,39.9828221 C32.1371626,39.9828221 26.4070588,29.9803681 17.7720415,27.0993865 C14.1483737,25.8895706 10.9856055,23.6147239 8.82311419,20.5055215 C7.7993432,19.0293305 6.91535491,17.4636567 6.18228374,15.8282209" id="Path" stroke="#535461" stroke-width="2"></path>
                                <path d="M0.752387543,13.9766871 C1.73647059,14.9128834 6.31806228,15.8944785 6.31806228,15.8944785 C6.31806228,15.8944785 5.19695502,11.4134969 4.21038062,10.4723926 C3.22347912,9.55186857 1.66856713,9.5841502 0.721919424,10.5448168 C-0.224728278,11.5054834 -0.211147722,13.0373588 0.752387543,13.9815951 L0.752387543,13.9766871 Z" id="Path" fill="#00839B"></path>
                                <path d="M3.34463668,22.0858896 C4.68871972,22.3484663 9.07474048,20.7128834 9.07474048,20.7128834 C9.07474048,20.7128834 5.65536332,17.5521472 4.3100346,17.2895706 C2.98010051,17.0588982 1.70688735,17.9175997 1.44426908,19.2223477 C1.18165082,20.5270956 2.02595333,21.7993209 3.34463668,22.0858896 L3.34463668,22.0858896 Z" id="Path" fill="#00839B"></path>
                                <path d="M12.7806228,30.8638037 C14.0761246,30.4220859 17.015917,26.8306748 17.015917,26.8306748 C17.015917,26.8306748 12.446782,25.801227 11.152526,26.2429448 C10.287869,26.5075313 9.63801347,27.2147982 9.45671036,28.0885772 C9.27540725,28.9623562 9.59141106,29.8640665 10.2813309,30.4416147 C10.9712508,31.019163 11.9256659,31.1809505 12.7719031,30.8638037 L12.7806228,30.8638037 Z" id="Path" fill="#00839B"></path>
                                <path d="M21.4380623,35.9177914 C22.7908651,35.6969325 26.3086505,32.6478528 26.3086505,32.6478528 C26.3086505,32.6478528 21.9824221,30.8723926 20.6296194,31.0920245 C19.276732,31.311922 18.3609762,32.5704688 18.5842215,33.9030675 C18.8074668,35.2356662 20.0851749,36.1376888 21.4380623,35.9177914 L21.4380623,35.9177914 Z" id="Path" fill="#00839B"></path>
                                <path d="M12.8914879,17.2110429 C12.8914879,18.5607362 10.4125952,22.4785276 10.4125952,22.4785276 C10.4125952,22.4785276 7.92871972,18.5631902 7.92747405,17.2134969 C7.90731053,16.3270026 8.37591888,15.4992147 9.15214708,15.0501348 C9.92837529,14.6010549 10.8905867,14.6010549 11.6668149,15.0501348 C12.4430431,15.4992147 12.9116514,16.3270026 12.8914879,17.2134969 L12.8914879,17.2110429 Z" id="Path" fill="#00839B"></path>
                                <path d="M22.9415917,23.2564417 C22.5317647,24.5447853 18.9753633,27.5509202 18.9753633,27.5509202 C18.9753633,27.5509202 17.7944637,23.0785276 18.199308,21.7840491 C18.6513747,20.552661 20.0079571,19.8905494 21.2764737,20.2821668 C22.5449903,20.6737843 23.275221,21.9801385 22.932872,23.2453988 L22.9415917,23.2564417 Z" id="Path" fill="#00839B"></path>
                                <path d="M31.890519,30.4404908 C31.7086505,31.7791411 28.7190311,35.3337423 28.7190311,35.3337423 C28.7190311,35.3337423 26.7882353,31.1276074 26.9750865,29.7889571 C27.176374,28.4678149 28.4168032,27.5502961 29.7609882,27.7282855 C31.1051732,27.906275 32.0555703,29.1138906 31.8955017,30.4404908 L31.890519,30.4404908 Z" id="Path" fill="#00839B"></path>
                                <path d="M0.752387543,13.9766871 C1.73647059,14.9128834 6.31806228,15.8944785 6.31806228,15.8944785 C6.31806228,15.8944785 5.19695502,11.4134969 4.21038062,10.4723926 C3.22347912,9.55186857 1.66856713,9.5841502 0.721919424,10.5448168 C-0.224728278,11.5054834 -0.211147722,13.0373588 0.752387543,13.9815951 L0.752387543,13.9766871 Z" id="Path" fill="#000000" opacity="0.25"></path>
                                <path d="M3.34463668,22.0858896 C4.68871972,22.3484663 9.07474048,20.7128834 9.07474048,20.7128834 C9.07474048,20.7128834 5.65536332,17.5521472 4.3100346,17.2895706 C2.98010051,17.0588982 1.70688735,17.9175997 1.44426908,19.2223477 C1.18165082,20.5270956 2.02595333,21.7993209 3.34463668,22.0858896 L3.34463668,22.0858896 Z" id="Path" fill="#000000" opacity="0.25"></path>
                                <path d="M12.7806228,30.8638037 C14.0761246,30.4220859 17.015917,26.8306748 17.015917,26.8306748 C17.015917,26.8306748 12.446782,25.801227 11.152526,26.2429448 C10.287869,26.5075313 9.63801347,27.2147982 9.45671036,28.0885772 C9.27540725,28.9623562 9.59141106,29.8640665 10.2813309,30.4416147 C10.9712508,31.019163 11.9256659,31.1809505 12.7719031,30.8638037 L12.7806228,30.8638037 Z" id="Path" fill="#000000" opacity="0.25"></path>
                                <path d="M21.4380623,35.9177914 C22.7908651,35.6969325 26.3086505,32.6478528 26.3086505,32.6478528 C26.3086505,32.6478528 21.9824221,30.8723926 20.6296194,31.0920245 C19.276732,31.311922 18.3609762,32.5704688 18.5842215,33.9030675 C18.8074668,35.2356662 20.0851749,36.1376888 21.4380623,35.9177914 L21.4380623,35.9177914 Z" id="Path" fill="#000000" opacity="0.25"></path>
                                <path d="M12.8914879,17.2110429 C12.8914879,18.5607362 10.4125952,22.4785276 10.4125952,22.4785276 C10.4125952,22.4785276 7.92871972,18.5631902 7.92747405,17.2134969 C7.90731053,16.3270026 8.37591888,15.4992147 9.15214708,15.0501348 C9.92837529,14.6010549 10.8905867,14.6010549 11.6668149,15.0501348 C12.4430431,15.4992147 12.9116514,16.3270026 12.8914879,17.2134969 L12.8914879,17.2110429 Z" id="Path" fill="#000000" opacity="0.25"></path>
                                <path d="M22.9415917,23.2564417 C22.5317647,24.5447853 18.9753633,27.5509202 18.9753633,27.5509202 C18.9753633,27.5509202 17.7944637,23.0785276 18.199308,21.7840491 C18.6513747,20.552661 20.0079571,19.8905494 21.2764737,20.2821668 C22.5449903,20.6737843 23.275221,21.9801385 22.932872,23.2453988 L22.9415917,23.2564417 Z" id="Path" fill="#000000" opacity="0.25"></path>
                                <path d="M31.890519,30.4404908 C31.7086505,31.7791411 28.7190311,35.3337423 28.7190311,35.3337423 C28.7190311,35.3337423 26.7882353,31.1276074 26.9750865,29.7889571 C27.176374,28.4678149 28.4168032,27.5502961 29.7609882,27.7282855 C31.1051732,27.906275 32.0555703,29.1138906 31.8955017,30.4404908 L31.890519,30.4404908 Z" id="Path" fill="#000000" opacity="0.25"></path>
                                <path d="M31.8070588,39.7840491 C31.8070588,39.7840491 30.6859516,28.3509202 23.9742561,22.2699387 C21.1602768,19.7177914 19.2045675,16.3803681 18.5057439,12.6699387 C18.1777201,10.9113015 18.0142663,9.12671946 18.0173941,7.33865031" id="Path" stroke="#535461" stroke-width="2"></path>
                                <path d="M13.8132872,3.48220859 C14.3265052,4.73496933 18.1146021,7.45276074 18.1146021,7.45276074 C18.1146021,7.45276074 18.930519,2.90674847 18.4185467,1.65398773 C17.9060112,0.40033526 16.45876,-0.206689685 15.1860208,0.298159557 C13.9132815,0.803008799 13.2970147,2.2285561 13.8095502,3.48220859 L13.8132872,3.48220859 Z" id="Path" fill="#00839B"></path>
                                <path d="M12.8429066,11.9300613 C13.9640138,12.7067485 18.6440138,12.9607362 18.6440138,12.9607362 C18.6440138,12.9607362 16.8290657,8.70797546 15.7079585,7.93128834 C14.586916,7.15199084 13.0367678,7.41540123 12.2456055,8.5196319 C11.4544433,9.62386258 11.7218641,11.1507638 12.8429066,11.9300613 Z" id="Path" fill="#00839B"></path>
                                <path d="M17.8642215,23.7190184 C19.2344637,23.8331288 23.4,21.7239264 23.4,21.7239264 C23.4,21.7239264 19.646782,18.9595092 18.2802768,18.8466258 C17.3852623,18.7527633 16.5087738,19.1434099 15.9895449,19.8675935 C15.4703159,20.5917771 15.3896838,21.5360546 15.77881,22.335494 C16.1679362,23.1349335 16.9658642,23.6643028 17.8642215,23.7190184 L17.8642215,23.7190184 Z" id="Path" fill="#00839B"></path>
                                <path d="M23.6989619,31.797546 C25.0268512,32.1361963 29.4975779,30.7521472 29.4975779,30.7521472 C29.4975779,30.7521472 26.272526,27.402454 24.9458824,27.0638037 C23.6282998,26.7493815 22.2982754,27.5342247 21.9581172,28.8268745 C21.6179591,30.1195242 22.3934627,31.4419393 23.7002076,31.797546 L23.6989619,31.797546 Z" id="Path" fill="#00839B"></path>
                                <path d="M23.5806228,11.2846626 C23.0262976,12.5190184 19.1472664,15.1092025 19.1472664,15.1092025 C19.1472664,15.1092025 18.4870588,10.5398773 19.0413841,9.30429448 C19.3907997,8.49066854 20.158566,7.92593197 21.0498005,7.82698778 C21.9410351,7.72804359 22.8171588,8.11027673 23.3416717,8.82687978 C23.8661846,9.54348282 23.9575295,10.4830303 23.5806228,11.2846626 L23.5806228,11.2846626 Z" id="Path" fill="#00839B"></path>
                                <path d="M30.2823529,20.8159509 C29.3779931,21.8306748 24.889827,23.1595092 24.889827,23.1595092 C24.889827,23.1595092 25.6471972,18.604908 26.5528028,17.590184 C27.1378035,16.9339551 28.0337907,16.6349883 28.9032545,16.8059017 C29.7727183,16.9768151 30.4835666,17.5916428 30.7680296,18.4187852 C31.0524926,19.2459276 30.8673537,20.159722 30.2823529,20.8159509 L30.2823529,20.8159509 Z" id="Path" fill="#00839B"></path>
                                <path d="M35.5141869,30.9619632 C34.7966782,32.1128834 30.6012457,34.1693252 30.6012457,34.1693252 C30.6012457,34.1693252 30.5663668,29.5533742 31.2838754,28.402454 C32.0014252,27.250449 33.5312171,26.8895301 34.7007612,27.596319 C35.8703054,28.303108 36.2367193,29.8099582 35.5191696,30.9619632 L35.5141869,30.9619632 Z" id="Path" fill="#00839B"></path>
                            </g>
                            <ellipse id="Oval" fill="#00839B" opacity="0.1" cx="50.5" cy="103" rx="13.5" ry="2"></ellipse>
                            <g id="5cfdbbb0-8197-4f02-a5fd-2740d54b5dec" transform="translate(18.000000, 94.000000)">
                                <ellipse id="Oval" fill="#00839B" opacity="0.1" cx="4.53036468" cy="8.22597701" rx="4.16184261" ry="1"></ellipse>
                                <path d="M5.43447217,0.0606896552 C5.43447217,0.0606896552 6.10886756,0.969770115 5.12245681,2.33655172 C4.13604607,3.70333333 3.32284069,4.86528736 3.64836852,5.72126437 C3.64836852,5.72126437 5.13596929,3.17356322 6.35086372,3.13816092 C7.56575816,3.10275862 6.76852207,1.59310345 5.43447217,0.0606896552 Z" id="Path" fill="#00839B"></path>
                                <path d="M5.43447217,0.0606896552 C5.49338158,0.148671384 5.5397147,0.244901964 5.57205374,0.346436782 C6.75378119,1.77517241 7.38395393,3.10908046 6.24767754,3.14195402 C5.19001919,3.17356322 3.91984645,5.12068966 3.61642994,5.61252874 C3.62644982,5.65063371 3.63833967,5.68819146 3.65205374,5.72505747 C3.65205374,5.72505747 5.13965451,3.17735632 6.35454894,3.14195402 C7.56944338,3.10655172 6.76852207,1.59310345 5.43447217,0.0606896552 Z" id="Path" fill="#000000" opacity="0.1"></path>
                                <path d="M6.68867562,1.21885057 C6.68867562,1.53873563 6.65428023,1.79793103 6.61128599,1.79793103 C6.56829175,1.79793103 6.53266795,1.54505747 6.53266795,1.21885057 C6.53266795,0.892643678 6.5768906,1.04942529 6.61988484,1.04942529 C6.66287908,1.04942529 6.68867562,0.898965517 6.68867562,1.21885057 Z" id="Path" fill="#FFD037"></path>
                                <path d="M7.11984645,1.60068966 C6.84714012,1.75367816 6.60882917,1.84597701 6.58794626,1.80678161 C6.56706334,1.76758621 6.77220729,1.61206897 7.04491363,1.45908046 C7.31761996,1.30609195 7.20952015,1.41735632 7.23040307,1.45908046 C7.25128599,1.5008046 7.39255278,1.44770115 7.11984645,1.60068966 Z" id="Path" fill="#FFD037"></path>
                                <path d="M1.86963532,0.0606896552 C1.86963532,0.0606896552 1.19523992,0.969770115 2.18165067,2.33655172 C3.16806142,3.70333333 3.98126679,4.86528736 3.65573896,5.72126437 C3.65573896,5.72126437 2.1681382,3.17356322 0.953243762,3.13816092 C-0.261650672,3.10275862 0.538042226,1.59310345 1.86963532,0.0606896552 Z" id="Path" fill="#00839B"></path>
                                <path d="M1.86963532,0.0606896552 C1.81072591,0.148671384 1.76439279,0.244901964 1.73205374,0.346436782 C0.550326296,1.77517241 -0.0798464491,3.10908046 1.05642994,3.14195402 C2.1153167,3.17356322 3.38426104,5.12068966 3.68767754,5.61252874 C3.67821734,5.65080301 3.66631696,5.68839404 3.65205374,5.72505747 C3.65205374,5.72505747 2.16445298,3.17735632 0.949558541,3.14195402 C-0.265335893,3.10655172 0.538042226,1.59310345 1.86963532,0.0606896552 Z" id="Path" fill="#000000" opacity="0.1"></path>
                                <path d="M0.615431862,1.21885057 C0.615431862,1.53873563 0.649827255,1.79793103 0.692821497,1.79793103 C0.735815739,1.79793103 0.771439539,1.54505747 0.771439539,1.21885057 C0.771439539,0.892643678 0.727216891,1.04942529 0.684222649,1.04942529 C0.641228407,1.04942529 0.615431862,0.898965517 0.615431862,1.21885057 Z" id="Path" fill="#FFD037"></path>
                                <path d="M0.185489443,1.60068966 C0.458195777,1.75367816 0.695278311,1.84597701 0.716161228,1.80678161 C0.737044146,1.76758621 0.531900192,1.61206897 0.259193858,1.45908046 C-0.013512476,1.30609195 0.0945873321,1.41735632 0.0737044146,1.45908046 C0.0528214971,1.5008046 -0.0872168906,1.44770115 0.185489443,1.60068966 Z" id="Path" fill="#FFD037"></path>
                                <path d="M0.830403071,5.6062069 C0.830403071,5.6062069 2.71723608,5.54551724 3.28721689,5.12954023 C3.8571977,4.71356322 6.18871401,4.21413793 6.32998081,4.88298851 C6.4712476,5.55183908 9.16514395,8.20701149 7.03508637,8.22471264 C4.90502879,8.24241379 2.08583493,7.88333333 1.51831094,7.52804598 C0.950786948,7.17275862 0.830403071,5.6062069 0.830403071,5.6062069 Z" id="Path" fill="#A8A8A8"></path>
                                <path d="M7.07193858,7.99206897 C4.941881,8.00977011 2.12268714,7.65068966 1.55516315,7.2954023 C1.12276392,7.02356322 0.950786948,6.05126437 0.893051823,5.60367816 L0.830403071,5.60367816 C0.830403071,5.60367816 0.953243762,7.16896552 1.51708253,7.52551724 C2.08092131,7.88206897 4.90380038,8.23988506 7.03385797,8.22218391 C7.64806142,8.22218391 7.86180422,7.99206897 7.84952015,7.65827586 C7.76476008,7.86310345 7.53013436,7.98827586 7.07193858,7.99206897 Z" id="Path" fill="#000000" opacity="0.2"></path>
                                <path d="M63.8403071,5.5316092 C63.8403071,5.5316092 58.6466027,5.2091954 59.2595777,8.95551724 C59.2595777,8.95551724 59.136737,9.61678161 59.7202303,9.91770115 C59.7202303,9.91770115 59.7300576,9.6408046 60.2533589,9.73436782 C60.4395658,9.76664672 60.628845,9.77598451 60.8171977,9.76218391 C61.0723256,9.74488789 61.3148744,9.64182983 61.5075624,9.46885057 L61.5075624,9.46885057 C61.5075624,9.46885057 62.9669098,8.84931034 63.5344338,6.39264368 C63.5344338,6.39264368 63.9545489,5.85655172 63.9385797,5.71873563 L63.0614971,6.09804598 C63.0614971,6.09804598 63.3612284,6.7491954 63.1253743,7.29034483 C63.1253743,7.29034483 63.0971209,6.12206897 62.9288292,6.15241379 C62.8944338,6.15241379 62.4730902,6.37747126 62.4730902,6.37747126 C62.4730902,6.37747126 62.9890211,7.5154023 62.5959309,8.33471264 C62.5959309,8.33471264 62.7433397,6.94390805 62.3084837,6.45965517 L61.6942802,6.83011494 C61.6942802,6.83011494 62.2961996,8.00091954 61.8883685,8.95678161 C61.8883685,8.95678161 61.9927831,7.49137931 61.5652975,6.91988506 L61.0063724,7.36873563 C61.0063724,7.36873563 61.5714395,8.52310345 61.2262572,9.31586207 C61.2262572,9.31586207 61.1820345,7.61022989 60.8847601,7.48126437 C60.8847601,7.48126437 60.3933973,7.92505747 60.3209213,8.11344828 C60.3209213,8.11344828 60.7078695,8.95045977 60.4683301,9.39298851 C60.4683301,9.39298851 60.3209213,8.25505747 60.199309,8.25505747 C60.199309,8.25505747 59.7079463,9.01367816 59.6612668,9.51942529 C59.6612668,9.51942529 59.6833781,8.75195402 60.081382,8.17793103 C59.8004229,8.23302112 59.5412427,8.37145897 59.335739,8.5762069 C59.335739,8.5762069 59.4119002,8.04390805 60.1956238,7.99712644 C60.1956238,7.99712644 60.5985413,7.42563218 60.7066411,7.39149425 C60.7066411,7.39149425 59.9204607,7.32321839 59.4438388,7.54068966 C59.4438388,7.54068966 59.8627255,7.03494253 60.8503647,7.26632184 L61.4019194,6.80356322 C61.4019194,6.80356322 60.3676008,6.65689655 59.9278311,6.81873563 C59.9278311,6.81873563 60.4339347,6.37367816 61.5505566,6.69229885 L62.152476,6.32310345 C62.152476,6.32310345 61.2692514,6.12712644 60.7434933,6.19666667 C60.7434933,6.19666667 61.2987332,5.88816092 62.3281382,6.22195402 L62.7580806,6.02344828 C62.7580806,6.02344828 62.1107102,5.89701149 61.9215355,5.87298851 C61.7323608,5.84896552 61.7225336,5.7983908 61.7225336,5.7983908 C62.1321986,5.72809147 62.5527823,5.77623966 62.937428,5.93747126 C62.937428,5.93747126 63.8562764,5.59103448 63.8403071,5.5316092 Z" id="Path" fill="#00839B"></path>
                                <ellipse id="Oval" fill="#00839B" opacity="0.1" cx="60.2631862" cy="10.243908" rx="3.67539347" ry="1"></ellipse>
                                <path d="M54.7414971,5.73137931 C54.7414971,5.73137931 51.812975,5.54931034 52.1618426,7.66206897 C52.1257115,7.88179085 52.2307434,8.10055384 52.4222649,8.20448276 C52.4222649,8.20448276 52.4222649,8.04770115 52.7232246,8.1008046 C52.8279511,8.1183386 52.9342451,8.12385129 53.0401536,8.11724138 C53.183851,8.10642994 53.3203667,8.04836341 53.4295585,7.9516092 L53.4295585,7.9516092 C53.4295585,7.9516092 54.2525912,7.60137931 54.5732054,6.21689655 C54.5732054,6.21689655 54.8090595,5.91471264 54.8004607,5.83758621 L54.3090979,6.0537931 C54.3090979,6.0537931 54.4773896,6.42172414 54.3447217,6.72643678 C54.3447217,6.72643678 54.3287524,6.06770115 54.2341651,6.08287356 C54.2145106,6.08287356 53.977428,6.20931034 53.977428,6.20931034 C53.977428,6.20931034 54.2673321,6.84149425 54.0486756,7.31310345 C54.0486756,7.31310345 54.1309789,6.5254023 53.8865259,6.25482759 L53.5388868,6.46471264 C53.5388868,6.46471264 53.8779271,7.12471264 53.648215,7.66333333 C53.648215,7.66333333 53.7071785,6.83643678 53.4651823,6.51528736 L53.1507102,6.76816092 C53.1507102,6.76816092 53.4688676,7.41931034 53.2735509,7.86563218 C53.2735509,7.86563218 53.2477543,6.90344828 53.080691,6.83137931 C52.9610787,6.93519258 52.854235,7.05365611 52.7625336,7.18413793 C52.7625336,7.18413793 52.98119,7.65701149 52.8460653,7.90609195 C52.8460653,7.90609195 52.7625336,7.26505747 52.6949712,7.26252874 C52.6949712,7.26252874 52.4198081,7.68735632 52.3915547,7.97816092 C52.4040054,7.70834226 52.4853581,7.44667282 52.6274088,7.21954023 C52.4691582,7.25035733 52.3231227,7.32814965 52.2072937,7.44333333 C52.2072937,7.44333333 52.2502879,7.14241379 52.6986564,7.11712644 C52.6986564,7.11712644 52.9246833,6.79471264 52.9861036,6.77574713 C52.9861036,6.77574713 52.5426488,6.73655172 52.2736276,6.8591954 C52.2736276,6.8591954 52.5107102,6.57597701 53.0671785,6.70494253 L53.3779655,6.44321839 C53.3779655,6.44321839 52.7944722,6.36103448 52.5475624,6.45206897 C52.5475624,6.45206897 52.8325528,6.1991954 53.4627255,6.3837931 L53.8005374,6.17643678 C53.5401905,6.11706027 53.2733768,6.09325382 53.0069866,6.10563218 C53.0069866,6.10563218 53.3202303,5.93241379 53.9000384,6.11954023 L54.1457198,6.00827586 C54.1457198,6.00827586 53.7771977,5.93367816 53.6752399,5.92229885 C53.5732821,5.91091954 53.5622265,5.88057471 53.5622265,5.88057471 C53.7933581,5.84100382 54.0306226,5.8681383 54.2476775,5.95896552 C54.2476775,5.95896552 54.750096,5.76551724 54.7414971,5.73137931 Z" id="Path" fill="#00839B"></path>
                                <ellipse id="Oval" fill="#00839B" opacity="0.1" cx="52.724453" cy="8.38908046" rx="2.07232246" ry="1"></ellipse>
                                <path d="M60.3147793,1.25425287 C60.3147793,1.25425287 56.7806526,1.03425287 57.1970825,3.58448276 C57.1532022,3.84983232 57.2801051,4.1141295 57.5115547,4.23942529 C57.5115547,4.23942529 57.5115547,4.05103448 57.8739347,4.11298851 C58.0006217,4.13380791 58.1291546,4.14016827 58.2571977,4.13195402 C58.4308119,4.11915646 58.5957952,4.04910306 58.7276775,3.93218391 L58.7276775,3.93218391 C58.7276775,3.93218391 59.7214587,3.50988506 60.1071785,1.83712644 C60.1071785,1.83712644 60.3933973,1.47298851 60.3823417,1.37942529 L59.7853359,1.64114943 C59.7853359,1.64114943 59.9892514,2.08494253 59.8295585,2.45287356 C59.8295585,2.45287356 59.809904,1.65758621 59.6944338,1.67655172 C59.6723225,1.67655172 59.3848752,1.82954023 59.3848752,1.82954023 C59.3848752,1.82954023 59.7361996,2.60206897 59.4708637,3.16218391 C59.4708637,3.16218391 59.5715931,2.21137931 59.275547,1.88517241 L58.8554319,2.13804598 C58.8554319,2.13804598 59.2657198,2.9345977 58.9880998,3.58574713 C58.9880998,3.58574713 59.0593474,2.58816092 58.7669866,2.19494253 L58.3861804,2.49965517 C58.3861804,2.49965517 58.7719002,3.28482759 58.5372745,3.82471264 C58.5372745,3.82471264 58.5065643,2.66402299 58.3038772,2.57551724 C58.3038772,2.57551724 57.9709789,2.87770115 57.9206142,3.0016092 C57.9206142,3.0016092 58.1847217,3.57183908 58.0201152,3.87275862 C58.0201152,3.87275862 57.9206142,3.10022989 57.8383109,3.09643678 C57.8383109,3.09643678 57.5066411,3.60218391 57.4697889,3.96 C57.485637,3.63530139 57.5838992,3.32055035 57.7547793,3.04712644 C57.5636754,3.0845367 57.3873465,3.17857794 57.2474472,3.31770115 C57.2474472,3.31770115 57.2990403,2.95482759 57.8370825,2.92321839 C57.8370825,2.92321839 58.1110173,2.53505747 58.1847217,2.51103448 C58.1847217,2.51103448 57.6491363,2.46551724 57.3248369,2.61344828 C57.3248369,2.61344828 57.6098273,2.2708046 58.2829942,2.42632184 L58.6588868,2.11149425 C58.6588868,2.11149425 57.9537812,2.0116092 57.6552783,2.1216092 C57.6552783,2.1216092 57.9992322,1.81942529 58.7608445,2.03942529 L59.169904,1.78655172 C59.169904,1.78655172 58.5692131,1.66011494 58.2117466,1.70183908 C58.2117466,1.70183908 58.5888676,1.49195402 59.2902879,1.71827586 L59.5826488,1.58425287 C59.5826488,1.58425287 59.1416507,1.49448276 59.0126679,1.48057471 C58.8836852,1.46666667 58.8775432,1.43 58.8775432,1.43 C59.1563316,1.38224995 59.4425254,1.41507744 59.704261,1.52482759 C59.704261,1.52482759 60.3270633,1.29471264 60.3147793,1.25425287 Z" id="Path" fill="#00839B"></path>
                                <ellipse id="Oval" fill="#00839B" opacity="0.1" cx="57.8813052" cy="4.46195402" rx="2.50226488" ry="1"></ellipse>
                            </g>
                            <g id="1cf578eb-5ffb-4cd7-95b8-45aaaddab7e0" transform="translate(16.000000, 12.000000)">
                                <path d="M116.889507,60.1003421 L116.889507,0.066277666 L0.0920776495,0.066277666 L0.0920776495,56.6563581 C1.58373557,57.9009054 3.37740818,58.9478471 5.24842602,59.8082294 C6.17002099,60.2328974 7.11125918,60.6211536 8.07214061,60.972998 L115.496065,60.972998 L116.889507,60.1003421 Z" id="Path" fill="url(#linearGradient-1)"></path>
                                <path d="M116.66361,60.1248893 L116.66361,1.78458753 L0.347439664,1.78458753 L0.347439664,56.7827767 C1.83295908,57.9929577 3.61926548,59.0104427 5.479234,59.8511871 C6.39755509,60.2603085 7.33551941,60.6375184 8.29312697,60.9828169 L115.272623,60.9828169 L116.66361,60.1248893 Z" id="Path" fill="#FFFFFF"></path>
                                <rect id="Rectangle" fill="#5A5773" x="0.348667366" y="0.236881288" width="116.314942" height="3.08559356"></rect>
                            </g>
                            <g id="6703b009-63cb-4af0-a0d7-9948e224c180" transform="translate(19.000000, 13.000000)" fill="#FFFFFF">
                                <ellipse id="Oval" cx="0.827755102" cy="1" rx="1" ry="1"></ellipse>
                                <ellipse id="Oval" cx="2.97061224" cy="1" rx="1" ry="1"></ellipse>
                                <ellipse id="Oval" cx="5.11346939" cy="1" rx="1" ry="1"></ellipse>
                            </g>
                            <g id="8c4e1fb4-b9ff-4530-b767-610e84618ea6" transform="translate(20.000000, 22.000000)">
                                <rect id="Rectangle" fill="#00839B" x="26.4304569" y="0.0387368421" width="19.0659898" height="11.9043158"></rect>
                                <rect id="Rectangle" fill="#5A5773" opacity="0.2" x="0.0316751269" y="0.0387368421" width="19.0659898" height="11.9043158"></rect>
                                <rect id="Rectangle" fill="#5A5773" opacity="0.2" x="52.8292386" y="0.0387368421" width="19.0659898" height="11.9043158"></rect>
                                <rect id="Rectangle" fill="#5A5773" opacity="0.2" x="0.0316751269" y="17.0575263" width="19.0659898" height="11.9043158"></rect>
                                <rect id="Rectangle" fill="#5A5773" opacity="0.2" x="26.4304569" y="17.0575263" width="19.0659898" height="11.9043158"></rect>
                                <rect id="Rectangle" fill="#5A5773" opacity="0.2" x="52.8292386" y="17.0575263" width="19.0659898" height="11.9043158"></rect>
                                <rect id="Rectangle" fill="#5A5773" opacity="0.2" x="0.0316751269" y="34.0751053" width="19.0659898" height="11.9043158"></rect>
                                <rect id="Rectangle" fill="#5A5773" opacity="0.2" x="26.4304569" y="34.0751053" width="19.0659898" height="11.9043158"></rect>
                                <rect id="Rectangle" fill="#5A5773" opacity="0.2" x="52.8292386" y="34.0751053" width="19.0659898" height="11.9043158"></rect>
                            </g>
                            <g id="2796dd85-6618-42ad-b8a0-d6b4cc80ab2d" transform="translate(42.000000, 25.000000)">
                                <path d="M20.337095,27.1464375 C20.337095,27.1464375 16.8822346,20.8845 17.4648045,19.865625 C18.0473743,18.84675 18.4763128,17.3720625 18.4763128,17.3720625 C18.4763128,17.3720625 19.752067,16.50675 19.752067,16.1533125 C19.752067,15.799875 20.7623464,14.9820937 21.2945251,14.6262187 C21.8267039,14.2703437 21.56,12.5896875 21.2945251,12.3861562 C21.0290503,12.182625 20.607486,11.4696562 20.607486,11.4696562 C20.607486,11.4696562 20.9762011,10.452 20.607486,10.1460937 C20.2387709,9.8401875 20.6615642,9.53671875 20.607486,9.22959375 C20.5534078,8.92246875 20.607486,7.804875 20.607486,7.804875 C20.1760894,7.210125 19.6979888,6.93225 19.2481564,6.829875 L19.2088268,6.669 L18.9814525,5.71959375 C18.9814525,5.71959375 20.0875978,3.61725 18.2931844,2.51671875 C18.1662588,2.43792468 18.0335598,2.36866846 17.8962011,2.30953125 C17.8962011,2.30953125 17.8962011,2.25834375 17.8863687,2.1718125 C17.8617877,1.857375 17.7868156,1.0749375 17.6258101,0.56184375 C17.5324022,0.26690625 17.4107263,0.06825 17.257095,0.11334375 C17.2193683,0.124178949 17.1848094,0.143821133 17.1563128,0.170625 C17.0831884,0.236329376 17.0191338,0.311321338 16.9658101,0.39365625 C16.9658101,0.39365625 16.9658101,0.39365625 16.9658101,0.39365625 C16.9636818,0.398551457 16.9607773,0.403077423 16.9572067,0.4070625 C16.7534707,0.769689597 16.6106693,1.16280694 16.5344134,1.57096875 C16.4799126,1.81229155 16.4388819,2.05641263 16.4115084,2.30221875 C16.3337779,2.44860787 16.2652306,2.59961353 16.206257,2.754375 C15.9887151,3.31378125 15.7343017,4.2826875 16.1976536,4.9993125 C16.5909497,5.6086875 17.1206704,6.44596875 17.5053631,7.05534375 L17.5176536,7.07484375 L17.5410056,7.112625 L17.5004469,7.13821875 L17.5004469,7.2320625 L17.5360894,7.74515625 L17.8335196,12.1789687 C17.7441087,12.1532687 17.6529131,12.1341234 17.5606704,12.1216875 C17.4292478,12.1026242 17.2964927,12.0940654 17.1636872,12.0960937 C16.9043575,11.08575 16.1927374,10.1460937 16.0575419,9.09065625 C16.0444636,8.98510706 16.0374876,8.87890217 16.036648,8.7725625 C16.0477095,8.10834375 16.2148603,7.4416875 16.2013408,6.7786875 C16.2013408,6.6568125 16.2013408,6.5349375 16.1890503,6.4130625 L16.1890503,6.4130625 C16.1890503,6.38015625 16.182905,6.34603125 16.1792179,6.31190625 C16.0426552,5.33262997 15.4278547,4.4831354 14.5359777,4.041375 C14.227486,3.88903125 13.8931844,3.787875 13.5932961,3.62090625 C12.9001117,3.23578125 12.4564246,2.54109375 11.8271508,2.0645625 C11.3588827,1.70990625 10.6595531,1.51978125 10.1372067,1.6989375 C9.86028351,1.7403284 9.58580815,1.79647214 9.31497207,1.867125 L9.31497207,1.867125 C8.65477441,2.0384339 8.02157606,2.29926939 7.43329609,2.64225 C7.35340782,2.68978125 7.27351955,2.73853125 7.19731844,2.79459375 C7.03093754,2.90225964 6.89914587,3.05493947 6.8175419,3.2345625 C6.76471597,3.38677689 6.74461989,3.54827395 6.75854749,3.70865625 C6.75854749,3.8244375 6.75854749,3.94265625 6.76592179,4.0584375 C6.73150838,6.0084375 4.6126257,7.51725 4.43810056,9.4209375 C4.43810056,9.46603125 4.43072626,9.511125 4.42826816,9.55621875 C4.42826816,9.569625 4.42826816,9.58303125 4.42826816,9.59765625 C4.42826816,9.6525 4.42826816,9.7085625 4.42826816,9.764625 L4.42826816,9.764625 C4.42826816,9.79021875 4.42826816,9.81459375 4.42826816,9.8401875 C4.42826816,9.86578125 4.42826816,9.891375 4.42826816,9.91696875 C4.45899441,10.7518125 4.89653631,11.529375 4.97642458,12.3605625 C4.98379888,12.4349062 4.98748603,12.5080312 4.98871508,12.582375 C4.97512748,12.9642402 4.90173663,13.3416875 4.77117318,13.7011875 C4.50483134,13.7715765 4.24842406,13.8747538 4.00793296,14.0083125 C3.36391061,14.4190312 2.20122905,15.1283437 1.7772067,16.4848125 C1.66817441,16.8369767 1.61388303,17.2035573 1.61620112,17.5719375 C1.60903228,18.8736541 1.48896217,20.172347 1.25731844,21.4536562 C1.20371862,21.7764419 1.12816446,22.0952631 1.03117318,22.4079375 C1.02204762,22.4383492 1.01953416,22.4703349 1.02379888,22.5017812 L0.768156425,25.7924062 L0.722681564,26.3713125 L0.65877095,27.1951875 C0.65877095,27.1951875 0.677206704,27.2451562 0.70424581,27.32925 C0.744305816,27.4542276 0.777943128,27.5811408 0.805027933,27.7095 C0.876494045,27.9883929 0.887801874,28.2791019 0.838212291,28.562625 C0.81295416,28.6830896 0.750188294,28.7926488 0.65877095,28.8758437 C0.650908771,28.8827174 0.643895297,28.8904903 0.637877095,28.899 C0.565363128,29.0001562 0.500223464,29.3011875 0.443687151,29.7375 C0.421564246,29.908125 0.400670391,30.103125 0.379776536,30.3054375 C0.256871508,31.6034062 0.180670391,33.5460937 0.13396648,35.1524062 C0.0897206704,36.7367812 0.0737430168,37.9884375 0.0737430168,37.9884375 C0.280694701,38.1208622 0.5021058,38.2296178 0.733743017,38.312625 C0.716536313,38.3552812 0.698100559,38.3991562 0.680893855,38.4454687 C0.471939109,38.9832296 0.337164811,39.5465055 0.280223464,40.1200312 C0.17698324,41.3180625 0.514972067,42.6489375 2.2,43.333875 C2.30765898,43.3782602 2.41809309,43.415713 2.53061453,43.446 C2.89932961,43.5435 3.17094972,43.5166875 3.37128492,43.3948125 C3.37128492,43.4667187 3.37988827,43.5361875 3.38357542,43.6056562 C3.40078212,43.9030312 3.41553073,44.1748125 3.42290503,44.4027187 C3.47575419,45.8286562 3.83217877,48.3222187 3.83217877,48.3222187 C3.83217877,48.3222187 3.9550838,49.3410937 3.84815642,49.6457812 C3.74122905,49.9504687 3.84815642,51.172875 3.84815642,51.172875 C3.84815642,51.172875 4.21687151,51.78225 3.84815642,52.089375 C3.47944134,52.3965 3.37005587,53.9175 3.47944134,54.1259062 C3.48284988,54.1332056 3.48493031,54.141045 3.48558659,54.1490625 C3.56670391,54.6548437 3.10826816,62.1696562 3.10826816,62.1696562 C3.10826816,62.1696562 2.67441341,63.3201562 2.32905028,64.5145312 C1.9922905,65.6772187 1.73910615,66.8813437 2.05128492,67.1068125 C2.20614525,67.2189375 2.56625698,67.3030312 3.02346369,67.367625 C3.02346369,67.4175937 3.01608939,67.4675625 3.01117318,67.51875 C2.96692737,68.0562187 2.89687151,68.635125 2.79608939,68.781375 C2.6498324,68.9885625 2.49620112,70.594875 2.42122905,71.462625 L2.41385475,71.5589062 C2.2564096,71.9291391 2.12419456,72.3094308 2.01810056,72.6972187 C2.01810056,72.6972187 0.841899441,75.6222187 1.24011173,76.3815 C1.27719742,76.4497229 1.32679915,76.5104821 1.38636872,76.5606562 L1.38636872,76.5606562 C1.39816113,76.5729899 1.41089943,76.584399 1.42446927,76.5947812 C1.99106145,77.0445 3.41061453,77.1383437 3.92558659,77.1590625 L3.90592179,77.883 L3.90592179,77.9098125 L4.57575419,77.9098125 L4.57575419,77.8915312 C4.57575419,77.800125 4.59050279,77.380875 4.6126257,76.82025 C4.6126257,76.7203125 4.62,76.6155 4.6249162,76.50825 C4.6249162,76.4241562 4.63351955,76.3388437 4.6372067,76.2510937 C4.83453971,75.7311718 4.93329245,75.1795682 4.92849162,74.6240625 C4.92919894,73.9865814 5.01600412,73.3520659 5.18659218,72.7374375 C5.27083726,72.420846 5.38481793,72.1127803 5.52703911,71.8172812 C5.52703911,71.8172812 5.73597765,70.7204062 5.44469274,69.9440625 C5.38915898,69.7899105 5.30587266,69.6470327 5.19888268,69.522375 C5.19888268,69.4967812 5.19888268,69.4711875 5.19888268,69.444375 C5.19888268,69.4175625 5.19888268,69.385875 5.19888268,69.3554062 C5.19888268,69.3249375 5.19888268,69.3054375 5.19888268,69.278625 C5.19232642,68.7536215 5.24509488,68.2295416 5.35620112,67.7161875 C5.35562338,67.7080726 5.35562338,67.6999274 5.35620112,67.6918125 C5.36603352,67.6491562 5.37709497,67.6089375 5.38815642,67.5699375 L5.39553073,67.543125 L5.61307263,67.5504375 C6.28044693,67.5687187 6.77083799,67.5687187 6.77083799,67.5687187 C6.77083799,67.5687187 7.30301676,64.8704062 7.2501676,63.7004062 C7.2501676,63.6492187 7.2501676,63.5955937 7.2501676,63.5419687 C7.23173184,62.3792812 7.57217877,60.7985625 7.57217877,60.7985625 L8.00111732,56.6730937 C8.00111732,56.6730937 7.78849162,55.9589062 8.00111732,55.4543437 C8.1326257,55.1399062 8.40424581,54.556125 8.59351955,54.1539375 C8.68201117,53.9674687 8.75206704,53.8212187 8.78156425,53.7578437 L8.79877095,53.7237187 C8.7317453,53.7009388 8.66809056,53.6693782 8.60949721,53.629875 L8.60949721,53.629875 C8.43620112,53.5153125 8.28134078,53.2910625 8.8,52.9607812 C9.59765363,52.4513437 9.33217877,51.1789687 9.33217877,51.1789687 C9.33217877,51.1789687 9.09743017,50.7207187 9.37396648,50.3136562 C9.65050279,49.9065937 9.37396648,48.3795 9.37396648,48.3795 C9.60178772,47.9757919 9.78475814,47.5487611 9.9196648,47.1059062 C10.1175419,46.4965312 10.6177654,43.5166875 10.853743,42.0797812 C10.9311732,41.608125 10.976648,41.3034375 10.976648,41.3034375 L10.9840223,41.3777812 L10.9913966,41.4582187 L10.9913966,41.4582187 L11.0577654,42.1370625 L11.0663687,42.22725 L11.1892737,43.5105937 C11.1892737,43.5105937 11.4350838,46.8840937 11.2814525,48.2064375 C11.2814525,48.2149687 11.2814525,48.2235 11.2814525,48.2308125 C11.2694688,48.3678013 11.2393013,48.5026222 11.1917318,48.6317812 C10.9090503,49.2655312 10.9606704,51.7834687 10.975419,52.3404375 C10.975419,52.3855312 10.975419,52.4220937 10.975419,52.4525625 C10.975419,52.4830312 10.7750838,52.9498125 10.8254749,53.313 L10.8254749,53.313 C10.8356848,53.4050364 10.8690739,53.4930484 10.9225698,53.5689375 C10.996177,53.6874714 11.0293585,53.8263494 11.0172067,53.9650312 L11.0172067,53.9772187 C11.0159076,54.0359624 11.0109822,54.0945721 11.0024581,54.1527187 C10.9651795,54.3886062 10.902551,54.6198603 10.8156425,54.8425312 C10.8156425,54.8425312 10.5305028,55.5859687 10.6386592,55.97475 C10.6386592,55.97475 10.6386592,55.97475 10.6386592,55.97475 C10.6516516,56.0251552 10.6755574,56.0721502 10.7087151,56.1124687 C10.7336636,56.15737 10.7475607,56.2074813 10.7492737,56.2587187 C10.748695,56.2631691 10.748695,56.2676747 10.7492737,56.272125 C10.8488268,57.0923437 10.5919553,60.71325 10.4395531,62.6949375 C10.3781006,63.477375 10.3338547,64.003875 10.3338547,64.003875 L9.9122905,68.3304375 L9.95407821,68.3596875 C10.0020112,68.3938125 10.0917318,68.4523125 10.2121788,68.523 C10.2121788,68.523 10.2121788,68.523 10.2121788,68.53275 L10.193743,68.6631562 C10.1335196,69.0799687 10.0524022,69.5650312 9.96391061,69.9355312 C9.95653631,69.9635625 9.95039106,69.990375 9.94301676,70.0159687 C9.78172678,70.0439049 9.62809525,70.1049255 9.49195531,70.195125 C8.5972067,71.7709687 8.99296089,73.0201875 9.49195531,73.383375 C9.63329609,73.48575 9.72916201,73.7721562 9.79307263,74.1280312 L9.91597765,75.699 C9.91597765,75.762375 9.91597765,75.820875 9.91597765,75.879375 C9.9161445,75.9282273 9.92402391,75.9767524 9.93932961,76.0231875 L9.97743017,76.4997187 L10.0290503,77.1627187 L10.437095,77.1627187 L10.437095,76.3595625 L10.4592179,76.3595625 C11.1032402,76.3815 12.1417877,76.4083125 12.5940782,76.3729687 L12.6063687,76.3729687 C12.6543017,76.3729687 12.6948603,76.3644375 12.7292737,76.3595625 C12.7537379,76.3559203 12.7776714,76.3493733 12.8005587,76.3400625 C13.0402235,76.2255 13.6375419,74.5460625 13.0992179,74.1645937 C12.5608939,73.783125 12.441676,72.7020937 12.441676,72.7020937 C12.3949721,72.5607187 12.3482682,72.4266562 12.3003352,72.2986875 C12.3003352,72.2706562 12.3003352,72.2438437 12.3003352,72.2158125 C12.2855866,71.6929688 12.2917318,71.12625 12.3642458,70.819125 C12.4453631,70.4815313 12.4871508,69.7722187 12.5043575,69.1506562 C12.5043575,69.103125 12.5043575,69.0568125 12.5043575,69.0105 L12.5043575,68.995875 C12.5976667,68.9724877 12.6892424,68.9427613 12.7784358,68.9069062 L12.7981006,68.898375 C12.9627315,68.8300351 13.1170122,68.7393908 13.2565363,68.6290312 L14.7608939,62.0185312 L14.9194413,61.2495 L15.8227933,56.8754062 C15.8227933,56.8754062 15.5044693,55.3483125 15.8227933,55.0948125 C15.9395531,55.0021875 15.9715084,54.6073125 15.9641341,54.1502812 C15.9518436,53.3507812 15.8227933,52.3453125 15.8227933,52.3453125 C15.8227933,52.3453125 16.2480447,51.6835313 16.4618994,51.2764687 C16.6757542,50.8694062 16.4618994,49.8005625 16.4618994,49.8005625 L16.8810056,47.3533125 C16.8810056,47.3533125 17.3603352,44.4514687 18.529162,42.007875 C19.3894972,40.2102187 18.8413408,35.3559375 18.283352,32.7721875 C18.2686034,32.7051562 18.2538547,32.6393437 18.2391061,32.5759687 L18.2391061,32.5662187 C18.5021229,32.4370312 18.8241341,32.2810312 19.1682682,32.1177187 L19.2985475,32.0567812 C19.7348603,31.85325 20.1969832,31.643625 20.6111732,31.4693437 L20.6382123,31.458375 C20.9363299,31.3294526 21.2411558,31.2163551 21.5513966,31.1195625 C21.6427989,31.0918458 21.7366154,31.0726686 21.8316201,31.0622812 C22.5702793,31.01475 20.337095,27.1464375 20.337095,27.1464375 Z M3.70681564,35.4278438 L3.92804469,35.4278438 C3.90223464,35.475375 3.87765363,35.524125 3.85307263,35.572875 C3.83832402,35.602125 3.82357542,35.6301563 3.81005587,35.6594063 C3.72893855,35.826375 3.65396648,35.997 3.59251397,36.1639688 C3.61709497,35.9835938 3.64782123,35.787375 3.68223464,35.57775 C3.69083799,35.5314375 3.69944134,35.4765937 3.70681564,35.4278438 Z M3.10949721,38.605125 C3.11004098,38.5994503 3.11004098,38.5937372 3.10949721,38.5880625 L3.09106145,38.5307812 C3.0775419,38.4917812 3.0652514,38.4527813 3.05296089,38.4089062 C3.12916201,38.3861563 3.20659218,38.3605625 3.2852514,38.332125 L3.30122905,38.332125 C3.30122905,38.3455313 3.30122905,38.3589375 3.30122905,38.3723438 C3.2950838,38.429625 3.2877095,38.4869063 3.2803352,38.5429688 L3.2803352,38.5429688 C3.28100023,38.5502664 3.28100023,38.5576086 3.2803352,38.5649062 C3.2803352,38.6112187 3.26927374,38.6550937 3.26435754,38.6989687 C3.25329609,38.7867187 3.24223464,38.8720312 3.23240223,38.9536875 C3.20905028,38.8769063 3.18569832,38.8013438 3.16111732,38.727 C3.13653631,38.6867812 3.12301676,38.6453437 3.10949721,38.605125 Z" id="Shape" fill="url(#linearGradient-2)" fill-rule="nonzero"></path>
                                <path d="M19.0625698,7.6123125 L17.7351955,8.077875 L17.2534078,7.2856875 C16.8846927,6.6763125 16.3734078,5.8426875 15.9960894,5.23696875 C15.3299441,4.17178125 16.2013408,2.54840625 16.2013408,2.54840625 C16.2013408,2.54840625 16.3586592,0.9189375 16.9191061,0.4168125 C17.4795531,-0.0853125 17.6356425,2.54840625 17.6356425,2.54840625 C19.8860335,3.56240625 18.6803352,5.9475 18.6803352,5.9475 L18.8991061,6.89325 L19.0625698,7.6123125 Z" id="Path" fill="#A1616A"></path>
                                <path d="M19.0625698,7.6123125 L17.7351955,8.077875 L17.2534078,7.2856875 L17.2534078,7.21621875 C17.2534078,7.21621875 18.0141899,6.69825 18.9015642,6.89325 L19.0625698,7.6123125 Z" id="Path" fill="#000000" opacity="0.1"></path>
                                <path d="M16.9191061,12.9504375 L17.5840223,12.39225 L17.2509497,7.3685625 C17.2509497,7.3685625 18.9716201,6.201 20.2449162,8.02790625 C20.2449162,8.02790625 20.1932961,9.14428125 20.2449162,9.44896875 C20.2965363,9.75365625 19.8872626,10.0583438 20.2449162,10.3618125 C20.6025698,10.6652813 20.2449162,11.6817188 20.2449162,11.6817188 C20.2449162,11.6817188 20.6492737,12.39225 20.9049162,12.5945625 C21.1605587,12.796875 21.4174302,14.4726563 20.9049162,14.8273125 C20.3924022,15.1819688 19.4312849,15.994875 19.4312849,16.3495313 C19.4312849,16.7041875 18.2022346,17.5682813 18.2022346,17.5682813 L17.1231285,16.1533125 L16.9191061,12.9504375 Z" id="Path" fill="#006848" opacity="0.763718378"></path>
                                <path d="M2.53921788,43.446 C0.0589944134,42.40275 0.609608939,39.8543438 1.07664804,38.571 C1.16998155,38.3109809 1.27957981,38.0569877 1.40480447,37.8105 L2.79608939,36.9732188 C2.79608939,36.9732188 3.08,37.6910625 3.38357542,38.653875 C4.08782123,40.8939375 4.89776536,44.4392813 2.53921788,43.446 Z" id="Path" fill="#A1616A"></path>
                                <path d="M5.94860335,66.6985312 C5.78069277,67.0230132 5.65671666,67.3680567 5.57988827,67.7247187 C5.45711541,68.2985532 5.4034812,68.8848125 5.42011173,69.4711875 C5.42994413,69.8770313 5.46435754,70.1427187 5.46435754,70.1427187 L2.70145251,72.0269062 C2.70145251,72.0269062 2.71743017,71.8063125 2.74446927,71.482125 C2.81575419,70.61925 2.96446927,69.0178125 3.10458101,68.810625 C3.20167598,68.6668125 3.26927374,68.089125 3.3122905,67.552875 C3.35530726,67.016625 3.37251397,66.5461875 3.37251397,66.5461875 C3.37251397,66.5461875 6.69709497,65.310375 5.94860335,66.6985312 Z" id="Path" fill="#A1616A"></path>
                                <path d="M12.4736313,68.050125 C12.4736313,68.050125 12.4736313,68.5741875 12.4539665,69.1835625 C12.4343017,69.7929375 12.3974302,70.512 12.32,70.8471562 C12.2487151,71.1542812 12.2437989,71.7185625 12.2573184,72.2389687 C12.2757542,72.8483437 12.32,73.3967812 12.32,73.3967812 C12.32,73.3967812 9.49932961,70.7520937 9.78692737,70.5424687 C9.86435754,70.4864062 9.94055866,70.2609375 10.0106145,69.961125 C10.096648,69.5955 10.1740782,69.108 10.2318436,68.693625 C10.3006704,68.2000313 10.3436872,67.8027188 10.3436872,67.8027188 L12.4736313,68.050125 Z" id="Path" fill="#A1616A"></path>
                                <path d="M5.94860335,66.6985312 C5.78069277,67.0230132 5.65671666,67.3680567 5.57988827,67.7247187 C4.82364373,67.7050391 4.06887433,67.6476855 3.31843575,67.552875 C3.36022346,67.0288125 3.37865922,66.5461875 3.37865922,66.5461875 C3.37865922,66.5461875 6.69709497,65.310375 5.94860335,66.6985312 Z" id="Path" fill="#000000" opacity="0.1"></path>
                                <path d="M12.4736313,68.050125 C12.4736313,68.050125 12.4736313,68.5741875 12.4539665,69.1835625 C11.5739665,69.4065938 10.6693855,68.9605313 10.2318436,68.6960625 C10.3006704,68.2024688 10.3436872,67.8051563 10.3436872,67.8051563 L12.4736313,68.050125 Z" id="Path" fill="#000000" opacity="0.1"></path>
                                <path d="M18.2489385,42.1273125 C17.1231285,44.5648125 16.6622346,47.4556875 16.6622346,47.4556875 L16.2529609,49.8931875 C16.2529609,49.8931875 16.4582123,50.958375 16.2529609,51.3642188 C16.0477095,51.7700625 15.6384358,52.430625 15.6384358,52.430625 C15.6384358,52.430625 15.9456983,54.916875 15.6384358,55.170375 C15.3311732,55.423875 15.6384358,56.9460938 15.6384358,56.9460938 L14.6146369,62.0648438 L13.1815642,68.6607188 C11.8001117,69.7783125 9.96145251,68.35725 9.96145251,68.35725 L10.3670391,64.0440938 C10.3670391,64.0440938 10.9815642,56.4878438 10.7259218,56.1782813 C10.4702793,55.8687188 10.827933,54.9095625 10.827933,54.9095625 C10.827933,54.9095625 11.1868156,53.9955 10.9311732,53.6408438 C10.6755307,53.2861875 10.9815642,52.5244688 10.9815642,52.5244688 C10.9815642,52.5244688 10.8795531,49.4288438 11.1868156,48.7183125 C11.4940782,48.0077812 11.1868156,43.6129688 11.1868156,43.6129688 L11.0639106,42.2443125 L10.9926257,41.48625 L10.9864804,41.4119063 C10.9864804,41.4119063 10.9397765,41.715375 10.8635754,42.1858125 C10.6374302,43.6178437 10.1556425,46.5855 9.96513966,47.1960938 C9.83563696,47.6361074 9.65973065,48.0613622 9.4403352,48.4648125 C9.4403352,48.4648125 9.70581006,49.9870313 9.4403352,50.392875 C9.17486034,50.7987188 9.39977654,51.25575 9.39977654,51.25575 C9.39977654,51.25575 9.65541899,52.5244688 8.88726257,53.0314688 C8.11910615,53.5384688 8.88726257,53.7931875 8.88726257,53.7931875 C8.88726257,53.7931875 8.32435754,55.0119375 8.1203352,55.5177188 C7.91631285,56.0235 8.1203352,56.7364688 8.1203352,56.7364688 L7.71106145,60.8460938 C7.71106145,60.8460938 7.35217877,62.570625 7.40379888,63.7381875 C7.45541899,64.90575 6.94290503,67.5943125 6.94290503,67.5943125 C6.94290503,67.5943125 3.00256983,67.5943125 2.39541899,67.1372813 C1.78826816,66.68025 3.40938547,62.2220625 3.40938547,62.2220625 C3.40938547,62.2220625 3.87027933,54.4074375 3.76703911,54.205125 C3.66379888,54.0028125 3.76703911,52.479375 4.12592179,52.1759063 C4.48480447,51.8724375 4.12592179,51.2618438 4.12592179,51.2618438 C4.12592179,51.2618438 4.02391061,50.0430938 4.12592179,49.739625 C4.22793296,49.4361562 4.10994413,48.4197188 4.10994413,48.4197188 C4.10994413,48.4197188 3.76703911,45.9334688 3.71664804,44.5124063 C3.66625698,43.0913438 3.40938547,39.8957813 3.40938547,39.8957813 C3.40938547,39.8957813 3.67731844,37.9189688 3.71787709,36.9780937 C3.7326257,36.6319687 3.88871508,36.1993125 4.08659218,35.79225 C4.30807355,35.3326359 4.56273969,34.8894832 4.84860335,34.46625 C4.84860335,34.46625 16.9731844,30.912375 17.4820112,31.2658125 C17.6172067,31.3596562 17.8138547,31.9970625 18.0080447,32.9196562 C18.5488268,35.4973125 19.0773184,40.33575 18.2489385,42.1273125 Z" id="Path" fill="#444053"></path>
                                <ellipse id="Oval" fill="#A1616A" cx="10.7787709" cy="7.6123125" rx="3.53106145" ry="3.50146875"></ellipse>
                                <path d="M18.0080447,32.9220938 C17.6012291,33.1292813 17.3283799,33.271875 17.3283799,33.271875 C17.3283799,33.271875 11.5973184,35.9616563 9.96759777,35.8093125 C8.70659218,35.6874375 5.4877095,35.7569063 4.08536313,35.7910313 C4.3068445,35.3314171 4.56151064,34.8882644 4.8473743,34.4650313 C4.8473743,34.4650313 16.9731844,30.912375 17.4820112,31.2658125 C17.6172067,31.3620938 17.8138547,31.9970625 18.0080447,32.9220938 Z" id="Path" fill="#000000" opacity="0.1"></path>
                                <path d="M8.32189944,13.2039375 C8.32189944,13.2039375 5.05139665,13.7158125 4.27955307,14.2179375 C3.5077095,14.7200625 1.97877095,15.6901875 1.97877095,17.7705938 C1.97877095,19.851 1.62111732,21.9825938 1.41586592,22.59075 C1.21061453,23.1989063 4.6396648,28.1214375 4.6396648,28.1214375 L3.41061453,35.5814063 C3.41061453,35.5814063 8.32681564,35.4290625 9.96391061,35.5814063 C11.6010056,35.73375 17.3296089,33.0439688 17.3296089,33.0439688 C17.3296089,33.0439688 20.7070391,31.26825 21.4235754,31.2158438 C22.1401117,31.1634375 19.9905028,27.3085313 19.9905028,27.3085313 C19.9905028,27.3085313 16.6634637,21.0685312 17.2263687,20.0533125 C17.7892737,19.0380938 18.2022346,17.5670625 18.2022346,17.5670625 L17.5877095,12.39225 C17.5877095,12.39225 16.6671508,12.0875625 15.8989944,12.64575 C15.130838,13.2039375 12.5215642,12.89925 12.5215642,12.89925 L8.32189944,13.2039375 Z" id="Path" fill="#006848" opacity="0.823823475"></path>
                                <path d="M2.77027933,22.2360938 L1.48715084,22.59075 L1.13195531,27.3658125 C1.13195531,27.3658125 1.59284916,28.6345313 1.13195531,29.040375 C0.671061453,29.4462188 0.569050279,38.1237188 0.569050279,38.1237188 C0.569050279,38.1237188 2.05374302,39.1889063 3.79284916,38.3772188 C3.79284916,38.3772188 3.5372067,37.4131875 4.30536313,33.9117188 C5.07351955,30.41025 5.0722905,28.6345313 5.0722905,28.6345313 C5.0722905,28.6345313 5.0722905,24.2701875 5.43117318,23.5596563 C5.79005587,22.849125 5.43117318,21.0734063 5.43117318,21.0734063 C5.43117318,21.0734063 4.71463687,20.109375 4.76502793,19.7547188 C4.81541899,19.4000625 2.77027933,22.2360938 2.77027933,22.2360938 Z" id="Path" fill="#000000" opacity="0.1"></path>
                                <path d="M3.38357542,38.6575312 C2.63003661,38.9091068 1.80985332,38.8796422 1.07664804,38.5746563 C1.16998155,38.3146371 1.27957981,38.060644 1.40480447,37.8141563 L2.79608939,36.976875 C2.79608939,36.976875 3.0849162,37.6947187 3.38357542,38.6575312 Z" id="Path" fill="#000000" opacity="0.1"></path>
                                <path d="M2.69284916,22.2360937 L1.41340782,22.59075 L1.05575419,27.3658125 C1.05575419,27.3658125 1.51664804,28.6345312 1.05575419,29.040375 C0.594860335,29.4462187 0.492849162,38.1237187 0.492849162,38.1237187 C0.492849162,38.1237187 1.97877095,39.1876875 3.71664804,38.3723437 C3.71664804,38.3723437 3.46100559,37.4083125 4.22793296,33.9068437 C4.99486034,30.405375 4.99608939,28.6296562 4.99608939,28.6296562 C4.99608939,28.6296562 4.99608939,24.2653125 5.35374302,23.5547812 C5.71139665,22.84425 5.35374302,21.0685312 5.35374302,21.0685312 C5.35374302,21.0685312 4.6372067,20.1045 4.68882682,19.7498437 C4.74044693,19.3951875 2.69284916,22.2360937 2.69284916,22.2360937 Z" id="Path" fill="#006848" opacity="0.709635417"></path>
                                <path d="M15.7932961,22.9965937 C15.7932961,22.9965937 15.1283799,28.679625 13.1827933,29.7460312 C13.1827933,29.7460312 17.5324022,28.5285 15.7932961,22.9965937 Z" id="Path" fill="#000000" opacity="0.1"></path>
                                <path d="M6.01988827,23.5048125 C6.01988827,23.5048125 8.42391061,24.6711562 7.86346369,25.4828438 C7.30301676,26.2945313 6.01988827,23.5048125 6.01988827,23.5048125 Z" id="Path" fill="#000000" opacity="0.1"></path>
                                <path d="M6.01988827,25.8387188 C6.01988827,25.8387188 7.55497207,27.412125 7.24893855,27.9703125 C6.94290503,28.5285 6.01988827,25.8387188 6.01988827,25.8387188 Z" id="Path" fill="#000000" opacity="0.1"></path>
                                <path d="M18.4025698,12.7980938 C18.4025698,12.7980938 19.0048045,13.8120938 19.0625698,14.4726563 C19.1203352,15.1332188 18.4025698,12.7980938 18.4025698,12.7980938 Z" id="Path" fill="#000000" opacity="0.1"></path>
                                <path d="M18.4025698,11.4282188 C18.4025698,11.4282188 18.7049162,11.1735 19.4767598,11.4282188 C20.2486034,11.6829375 18.4025698,11.4282188 18.4025698,11.4282188 Z" id="Path" fill="#000000" opacity="0.1"></path>
                                <path d="M15.447933,41.0865 C14.1800421,41.2648608 12.8871087,41.1006512 11.7054749,40.6111875 L11.0602235,42.2491875 L10.9889385,41.491125 C11.0946369,40.8549375 11.2998883,40.1736563 11.7054749,40.0018125 C11.7054749,40.0018125 13.126257,41.1242812 15.447933,41.0865 Z" id="Path" fill="#000000" opacity="0.1"></path>
                                <path d="M4.95061453,43.2180938 C4.95061453,43.2180938 8.09821229,43.86525 8.98067039,43.7506875 L4.95061453,43.2180938 Z" id="Path" fill="#000000" opacity="0.1"></path>
                                <path d="M5.2775419,44.035875 C5.2775419,44.035875 6.62089385,43.9785937 7.29195531,44.2455 L5.2775419,44.035875 Z" id="Path" fill="#000000" opacity="0.1"></path>
                                <path d="M5.43117318,44.5879687 C6.04409574,44.7170912 6.66624496,44.7985886 7.29195531,44.8317187 L5.43117318,44.5879687 Z" id="Path" fill="#000000" opacity="0.1"></path>
                                <path d="M5.35374302,51.5714063 C5.41150838,51.533625 8.04044693,50.92425 8.3673743,51.3617812 L5.35374302,51.5714063 Z" id="Path" fill="#000000" opacity="0.1"></path>
                                <path d="M5.35374302,52.3709062 C5.35374302,52.3709062 7.63731844,52.104 7.6950838,52.3709062 C7.75284916,52.6378125 5.35374302,52.3709062 5.35374302,52.3709062 Z" id="Path" fill="#000000" opacity="0.1"></path>
                                <path d="M5.35374302,53.093625 C5.35374302,53.093625 7.79094972,52.5939375 8.07854749,52.7158125 C8.36614525,52.8376875 5.35374302,53.093625 5.35374302,53.093625 Z" id="Path" fill="#000000" opacity="0.1"></path>
                                <path d="M5.46927374,70.1439375 L2.70636872,72.028125 C2.70636872,72.028125 2.72234637,71.8075312 2.74938547,71.4833437 C3.36391061,69.9842812 4.16402235,69.1933125 4.16402235,69.1933125 C4.78715084,69.0324375 5.18044693,69.181125 5.42502793,69.4724062 C5.43486034,69.8770312 5.46927374,70.1439375 5.46927374,70.1439375 Z" id="Path" fill="#000000" opacity="0.1"></path>
                                <path d="M5.73843575,71.8367813 C5.34799775,72.7200469 5.15150771,73.6755685 5.16201117,74.6399063 C5.1775724,75.4306456 4.97530195,76.2106138 4.57698324,76.8958125 C4.51935481,76.9923524 4.45443937,77.0844279 4.3827933,77.17125 C4.3827933,77.17125 2.46301676,77.1554062 1.79072626,76.6033125 C1.71518789,76.5440291 1.65354228,76.4691773 1.61005587,76.3839375 C1.22536313,75.6234375 2.35854749,72.7118438 2.35854749,72.7118438 C2.95340782,70.4669063 4.16156425,69.2676563 4.16156425,69.2676563 C6.31363128,68.7155625 5.73843575,71.8367813 5.73843575,71.8367813 Z" id="Path" fill="#444053"></path>
                                <path d="M4.57698324,76.8897187 C4.51935481,76.9862586 4.45443937,77.0783342 4.3827933,77.1651562 C4.3827933,77.1651562 2.46301676,77.1493125 1.79072626,76.5972187 C2.12134078,75.5125312 3.17586592,72.2304375 3.66994413,72.788625 C4.13452514,73.3126875 4.45776536,75.8342812 4.57698324,76.8897187 Z" id="Path" fill="#000000" opacity="0.1"></path>
                                <path d="M4.31396648,72.9921563 L4.18,77.9085938 L4.82402235,77.9085938 C4.82402235,77.9085938 4.92849162,73.5954375 5.21608939,72.9921563 C5.50368715,72.388875 4.31396648,72.9921563 4.31396648,72.9921563 Z" id="Path" fill="#444053"></path>
                                <path d="M12.32,73.3967813 C12.32,73.3967813 9.49932961,70.7520938 9.78692737,70.5424688 C9.86435754,70.4864063 9.94055866,70.2609375 10.0106145,69.961125 C10.5526257,69.8672813 11.4854749,70.0915313 12.2573184,72.2389688 C12.2757542,72.8483438 12.32,73.3967813 12.32,73.3967813 Z" id="Path" fill="#000000" opacity="0.1"></path>
                                <path d="M12.7415642,76.3461562 C12.7199262,76.3553884 12.6972221,76.3619379 12.6739665,76.3656563 C12.3421229,76.4229375 11.1192179,76.3900313 10.4346369,76.3656563 C10.173931,76.3571222 9.96688876,76.1453488 9.96636872,75.8866875 C9.96636872,75.703875 9.96636872,75.4808438 9.95162011,75.2431875 C9.9196648,74.4924375 9.82871508,73.5990938 9.55709497,73.398 C9.07653631,73.032375 8.69675978,71.7916875 9.55709497,70.2207188 C9.55709497,70.2207188 11.2064804,68.9715 12.3962011,72.7264687 C12.3962011,72.7264687 12.5117318,73.79775 13.029162,74.178 C13.5465922,74.55825 12.9726257,76.2376875 12.7415642,76.3461562 Z" id="Path" fill="#444053"></path>
                                <path d="M12.6715084,76.3656562 C12.3396648,76.4229375 11.1167598,76.3900312 10.4321788,76.3656562 C10.1714729,76.3571222 9.96443066,76.1453488 9.96391061,75.8866875 C9.96391061,75.703875 9.96391061,75.4808437 9.94916201,75.2431875 C10.1568715,74.334 10.4555307,73.398 10.8402235,73.1847187 C10.8426816,73.1835 12.0065922,73.0530937 12.6715084,76.3656562 Z" id="Path" fill="#000000" opacity="0.1"></path>
                                <polygon id="Path" fill="#444053" points="9.76603352 73.0738125 10.0757542 77.1651562 10.4690503 77.1651562 10.4690503 72.72525"></polygon>
                                <path d="M10.7271508,2.032875 C9.61223788,2.11517171 8.53299455,2.45895524 7.57832402,3.03590625 C7.33251397,3.183375 7.08670391,3.36253125 6.98469274,3.627 C6.89620112,3.856125 6.93307263,4.1145 6.93675978,4.35825 C6.96994413,6.4569375 4.6101676,8.04496875 4.68391061,10.1424375 C4.71340782,10.9748437 5.13497207,11.7499688 5.21240223,12.5799375 C5.34145251,13.9644375 4.51553073,15.2380313 3.72402235,16.384875 C4.53947244,16.4340855 5.34271819,16.1700356 5.96703911,15.6475312 C6.8022244,18.4080323 6.91012536,21.3347061 6.28044693,24.1483125 L7.41240223,24.1483125 C7.52419695,24.1402337 7.63650635,24.153896 7.74301676,24.1885313 C7.84235197,24.235309 7.93133432,24.3011757 8.00480447,24.3823125 C9.06301676,25.4267812 9.77217877,26.9709375 9.36782123,28.396875 L11.7767598,27.5010937 C12.3531844,27.2865938 12.9382123,27.0684375 13.4396648,26.715 C13.9411173,26.3615625 14.3614525,25.8484687 14.4671508,25.2464062 C14.5322905,24.8807812 14.5113966,24.4444687 14.8149721,24.2324062 C14.9645323,24.1535221 15.1240952,24.0949048 15.2893855,24.058125 C15.9506145,23.8265625 16.2431285,23.0685 16.378324,22.386 C16.5429473,21.5486499 16.5946101,20.6933175 16.5319553,19.8424687 C16.4250279,18.4165312 15.9997765,16.9686562 16.3500559,15.5768437 C16.547933,14.795625 16.987933,14.0680312 17.0235754,13.2612187 C17.0813408,11.9315625 16.0329609,10.7859375 15.8768715,9.46359375 C15.767486,8.54221875 16.1030168,7.609875 15.9936313,6.6885 C15.8703751,5.72334533 15.2799382,4.8785494 14.4118436,4.42528125 C14.1156425,4.27415625 13.7973184,4.173 13.5048045,4.00603125 C12.8374302,3.622125 12.4109497,2.93109375 11.8050279,2.45578125 C11.1991061,1.98046875 10.1900559,1.8013125 9.73407821,2.41921875 L10.7271508,2.032875 Z" id="Path" fill="#000000" opacity="0.1"></path>
                                <path d="M10.7271508,1.88053125 C9.61223788,1.96282796 8.53299455,2.30661149 7.57832402,2.8835625 C7.33251397,3.03103125 7.08670391,3.2101875 6.98469274,3.47465625 C6.89620112,3.70378125 6.93307263,3.96215625 6.93675978,4.20590625 C6.96994413,6.30459375 4.6101676,7.892625 4.68391061,9.9913125 C4.71340782,10.8225 5.13497207,11.597625 5.21240223,12.4288125 C5.34145251,13.8133125 4.51553073,15.0869062 3.72402235,16.2349687 C4.53923969,16.2824166 5.34184304,16.018578 5.96703911,15.497625 C6.80207085,18.2573176 6.90997234,21.1831667 6.28044693,23.9959687 L7.41240223,23.9959687 C7.5242773,23.9882823 7.63658865,24.0023588 7.74301676,24.0374062 C7.84255466,24.0833098 7.93162607,24.1488278 8.00480447,24.2299687 C9.06301676,25.2756562 9.77217877,26.8185937 9.36782123,28.2445312 L11.7767598,27.34875 C12.3531844,27.13425 12.9382123,26.9160937 13.4396648,26.5626562 C13.9411173,26.2092187 14.3614525,25.696125 14.4671508,25.0940625 C14.5322905,24.7284375 14.5113966,24.292125 14.8149721,24.0800625 C14.9645323,24.0011783 15.1240952,23.9425611 15.2893855,23.9057812 C15.9506145,23.6742187 16.2431285,22.9161562 16.378324,22.2336562 C16.5443989,21.3956743 16.5973025,20.5395066 16.5356425,19.6876875 C16.4287151,18.26175 16.0034637,16.813875 16.353743,15.4220625 C16.5516201,14.6408437 16.9916201,13.91325 17.0272626,13.1064375 C17.0850279,11.7767812 16.036648,10.6311563 15.8805587,9.3088125 C15.7711732,8.3874375 16.1067039,7.4563125 15.9973184,6.53371875 C15.8736611,5.56871658 15.2833405,4.72408707 14.4155307,4.2705 C14.1193296,4.119375 13.8010056,4.01821875 13.5084916,3.85246875 C12.8411173,3.46734375 12.4146369,2.7763125 11.8087151,2.301 C11.2027933,1.8256875 10.193743,1.64653125 9.73776536,2.2644375 L10.7271508,1.88053125 Z" id="Path" fill="#925978"></path>
                                <g id="Group" opacity="0.1" transform="translate(3.687151, 3.656250)" fill="#000000">
                                    <path d="M3.24715084,0.04265625 C3.24221068,0.0896216769 3.23974922,0.136811038 3.23977654,0.18403125 C3.24346369,0.13771875 3.24592179,0.0901875 3.24715084,0.04265625 Z" id="Path"></path>
                                    <path d="M12.1798883,4.9213125 C12.2241341,4.275375 12.369162,3.627 12.3150838,2.9835 C12.2745251,3.6294375 12.1294972,4.2778125 12.1798883,4.9213125 Z" id="Path"></path>
                                    <path d="M1.5252514,8.13271875 C1.45396648,7.37709375 1.09877095,6.67021875 1.01519553,5.9158125 C0.998525618,6.05409557 0.992363001,6.19342569 0.996759777,6.332625 C1.02625698,7.15528125 1.43798883,7.9243125 1.52156425,8.7433125 C1.54187491,8.54033447 1.54310927,8.33592342 1.5252514,8.13271875 Z" id="Path"></path>
                                    <path d="M12.6715084,11.1345 C12.5564361,11.6304373 12.5150307,12.1403823 12.5486034,12.6481875 C12.5608549,12.3520324 12.6020155,12.0577512 12.6715084,11.7694687 C12.8693855,10.98825 13.3093855,10.2606562 13.3450279,9.45384375 C13.3508351,9.31054929 13.3442561,9.16702489 13.3253631,9.02484375 C13.2294972,9.75 12.8472626,10.4251875 12.6715084,11.1345 Z" id="Path"></path>
                                    <path d="M2.27988827,11.2003125 C1.76726871,11.6263098 1.13277488,11.8820725 0.465810056,11.9315625 C0.325698324,12.1485 0.180670391,12.3605625 0.0368715084,12.5701875 C0.852088857,12.6176354 1.6546922,12.3537967 2.27988827,11.8328438 C2.72887278,13.3143882 2.96957795,14.8502751 2.99519553,16.3970625 C3.03165867,14.6384138 2.79030193,12.8849427 2.27988827,11.2003125 Z" id="Path"></path>
                                    <path d="M12.6948603,17.9387813 C12.5596648,18.6212813 12.2671508,19.3793438 11.6059218,19.6096875 C11.4403965,19.6462717 11.2807533,19.7053286 11.1315084,19.7851875 C10.827933,19.99725 10.8488268,20.436 10.7836872,20.7991875 C10.6779888,21.40125 10.2588827,21.913125 9.75620112,22.2616875 C9.25351955,22.61025 8.66972067,22.8345 8.09329609,23.049 L5.79497207,23.902125 C5.78305029,24.1309153 5.74595876,24.3577295 5.68435754,24.5785312 L8.09329609,23.68275 C8.66972067,23.46825 9.2547486,23.2500937 9.75620112,22.8966562 C10.2576536,22.5432187 10.6779888,22.030125 10.7836872,21.4280625 C10.8488268,21.0624375 10.827933,20.626125 11.1315084,20.4140625 C11.2810686,20.3351783 11.4406315,20.2765611 11.6059218,20.2397812 C12.2671508,20.0082187 12.5596648,19.2501562 12.6948603,18.5676562 C12.8347982,17.8574185 12.8929362,17.1337181 12.8681564,16.4104687 C12.8519506,16.9236999 12.7939971,17.4347967 12.6948603,17.9387813 Z" id="Path"></path>
                                    <path d="M4.32134078,19.9314375 C4.24821045,19.8499327 4.15914751,19.7840063 4.05955307,19.7376563 C3.95302223,19.7030599 3.84079995,19.6889945 3.72893855,19.6962188 L2.72480447,19.6962188 C2.68547486,19.9082813 2.64368715,20.1203438 2.60189944,20.3311875 L3.73385475,20.3311875 C3.84572981,20.323501 3.95804117,20.3375776 4.06446927,20.372625 C4.16400717,20.4185285 4.25307859,20.4840465 4.32625698,20.5651875 C5.10055866,21.3305625 5.68681564,22.361625 5.78759777,23.4195 C5.91173184,22.1544375 5.25050279,20.8528125 4.32134078,19.9314375 Z" id="Path"></path>
                                </g>
                                <path d="M2.39296089,27.7411875 C2.39296089,27.7411875 3.3073743,27.3609375 3.51139665,27.7411875 C3.71541899,28.1214375 2.39296089,27.7411875 2.39296089,27.7411875 Z" id="Path" fill="#000000" opacity="0.1"></path>
                                <path d="M2.71620112,28.3932188 C2.71620112,28.3932188 3.63061453,28.0129688 3.83586592,28.3932188 C4.04111732,28.7734688 2.71620112,28.3932188 2.71620112,28.3932188 Z" id="Path" fill="#000000" opacity="0.1"></path>
                            </g>
                            <g id="5f43f84a-a268-4bb5-a31a-6b0c09aee323" transform="translate(88.000000, 1.000000)" fill="#00839B" opacity="0.1">
                                <path d="M12.9074775,2.65313433 C12.9074775,2.65313433 8.45117117,2.37970149 8.97702703,5.56298507 C8.97702703,5.56298507 8.87279279,6.12537313 9.37288288,6.38089552 C9.37288288,6.38089552 9.38108108,6.14208955 9.82963964,6.22447761 C9.98937989,6.25188625 10.1517429,6.25990232 10.3133333,6.24835821 C10.5315024,6.23295663 10.7387677,6.14532978 10.9036036,5.99880597 L10.9036036,5.99880597 C10.9036036,5.99880597 12.1555856,5.47223881 12.6427928,3.38507463 C12.6427928,3.38507463 13.0035135,2.92895522 12.9941441,2.8119403 L12.2422523,3.14029851 C12.2422523,3.14029851 12.4987387,3.69313433 12.2961261,4.15283582 C12.2961261,4.15283582 12.2727027,3.15940299 12.1274775,3.18328358 C12.0981982,3.18328358 11.7374775,3.37432836 11.7374775,3.37432836 C11.7374775,3.37432836 12.179009,4.33791045 11.8452252,5.03880597 C11.8452252,5.03880597 11.9717117,3.8519403 11.5992793,3.44477612 L11.0675676,3.76597015 C11.0675676,3.76597015 11.5840541,4.76059701 11.2338739,5.57253731 C11.2338739,5.57253731 11.3240541,4.32716418 10.9563063,3.84238806 L10.4761261,4.22328358 C10.4761261,4.22328358 10.9621622,5.19880597 10.6693694,5.87223881 C10.6693694,5.87223881 10.6307207,4.42149254 10.3754054,4.31283582 C10.3754054,4.31283582 9.95612613,4.69014925 9.89288288,4.84537313 C9.89288288,4.84537313 10.2243243,5.56179104 10.0181982,5.9319403 C10.0181982,5.9319403 9.89171171,4.96716418 9.78396396,4.96238806 C9.78396396,4.96238806 9.36585586,5.60238806 9.32252252,6.03701493 C9.34283976,5.63146276 9.46678665,5.23836965 9.68207207,4.89671642 C9.44087648,4.94326423 9.21846989,5.06120614 9.04261261,5.2358209 C9.04261261,5.2358209 9.10702703,4.78328358 9.78513514,4.74268657 C9.78513514,4.74268657 10.1306306,4.25791045 10.2231532,4.2280597 C10.2231532,4.2280597 9.54855856,4.17074627 9.13981982,4.3558209 C9.13981982,4.3558209 9.49936937,3.92835821 10.3472973,4.11701493 L10.8157658,3.72298507 C10.8157658,3.72298507 9.92801802,3.60358209 9.5509009,3.7361194 C9.5509009,3.7361194 9.98423423,3.35880597 10.9434234,3.63343284 L11.4587387,3.31940299 C11.4587387,3.31940299 10.7021622,3.15223881 10.2512613,3.21313433 C10.2512613,3.21313433 10.7267568,2.95164179 11.6098198,3.23462687 L11.9787387,3.06626866 C11.9787387,3.06626866 11.4236036,2.95522388 11.261982,2.93731343 C11.1003604,2.91940299 11.090991,2.87402985 11.090991,2.87402985 C11.4421887,2.81443709 11.8027266,2.85578408 12.1321622,2.99343284 C12.1321622,2.99343284 12.9203604,2.70328358 12.9074775,2.65313433 Z" id="Path"></path>
                                <path d="M6.55621622,0.071641791 C6.55621622,0.071641791 2.80846847,2.54447761 5.08171171,4.79044776 C5.08171171,4.79044776 5.32414414,5.30626866 5.87576577,5.21074627 C5.87576577,5.21074627 5.74459459,5.01492537 6.15333333,4.80835821 C6.29823596,4.73397556 6.43388539,4.64217842 6.55738739,4.53492537 C6.72428512,4.3906421 6.84061853,4.19492458 6.88882883,3.97731343 L6.88882883,3.97731343 C6.88882883,3.97731343 7.59153153,2.79522388 6.77171171,0.820298507 C6.77171171,0.820298507 6.79747748,0.235223881 6.71783784,0.149253731 L6.30324324,0.865671642 C6.30324324,0.865671642 6.83144144,1.1558209 6.93567568,1.64776119 C6.93567568,1.64776119 6.33954955,0.863283582 6.23297297,0.969552239 C6.21189189,0.991044776 6.02918919,1.36 6.02918919,1.36 C6.02918919,1.36 6.94621622,1.86865672 7.08324324,2.63402985 C7.08324324,2.63402985 6.49765766,1.60119403 5.95774775,1.49970149 L5.71414414,2.07283582 C5.71414414,2.07283582 6.70963964,2.56238806 6.89936937,3.4280597 C6.89936937,3.4280597 6.24702703,2.37014925 5.66963964,2.20179104 L5.50567568,2.79880597 C5.50567568,2.79880597 6.46603604,3.29552239 6.61945946,4.01671642 C6.61945946,4.01671642 5.74576577,2.87283582 5.4763964,2.94208955 C5.4763964,2.94208955 5.35927928,3.49850746 5.39675676,3.65850746 C5.39675676,3.65850746 6.07837838,4.03104478 6.12990991,4.45850746 C6.12990991,4.45850746 5.46702703,3.75761194 5.38153153,3.8161194 C5.38153153,3.8161194 5.41666667,4.5838806 5.63567568,4.96358209 C5.41671176,4.62457198 5.28833602,4.23316268 5.26324324,3.8280597 C5.09604336,4.01121893 4.98527542,4.24040017 4.94468468,4.48716418 C4.94468468,4.48716418 4.73387387,4.08358209 5.25738739,3.64179104 C5.25738739,3.64179104 5.25738739,3.04477612 5.31009009,2.96238806 C5.31009009,2.96238806 4.73387387,3.32059701 4.51135135,3.71940299 C4.51135135,3.71940299 4.55351351,3.15820896 5.34873874,2.80238806 L5.50099099,2.19940299 C5.50099099,2.19940299 4.71396396,2.63641791 4.49027027,2.97432836 C4.49027027,2.97432836 4.62027027,2.40835821 5.55135135,2.05014925 L5.78558559,1.48537313 C5.78558559,1.48537313 5.08288288,1.80895522 4.75027027,2.13014925 C4.75027027,2.13014925 4.9845045,1.63104478 5.8581982,1.32656716 L6.0572973,0.968358209 C6.0572973,0.968358209 5.5454955,1.21432836 5.40495495,1.29791045 C5.26441441,1.38149254 5.23045045,1.35044776 5.23045045,1.35044776 C5.478599,1.09016305 5.79286071,0.905367246 6.13810811,0.816716418 C6.13810811,0.816716418 6.59603604,0.105074627 6.55621622,0.071641791 Z" id="Path"></path>
                                <path d="M0.852612613,2.95283582 C0.852612613,2.95283582 -1.38783784,6.89313433 1.6372973,7.84 C1.6372973,7.84 2.08351351,8.18746269 2.53207207,7.84 C2.53207207,7.84 2.32945946,7.72776119 2.60117117,7.35402985 C2.69556213,7.22063865 2.77418385,7.07635742 2.83540541,6.9241791 C2.92005615,6.71827534 2.93690548,6.48993106 2.88342342,6.27343284 L2.88342342,6.27343284 C2.88342342,6.27343284 2.98297297,4.89552239 1.37261261,3.51402985 C1.37261261,3.51402985 1.13837838,2.98149254 1.02126126,2.94208955 L0.970900901,3.77791045 C0.970900901,3.77791045 1.57054054,3.79223881 1.88324324,4.18268657 C1.88324324,4.18268657 1.00252252,3.75880597 0.958018018,3.90089552 C0.948648649,3.92955224 0.94981982,4.34268657 0.94981982,4.34268657 C0.94981982,4.34268657 2.0027027,4.37492537 2.47117117,4.99343284 C2.47117117,4.99343284 1.48738739,4.34507463 0.963873874,4.50268657 L1.00135135,5.12597015 C1.00135135,5.12597015 2.10576577,5.10208955 2.65972973,5.78626866 C2.65972973,5.78626866 1.60567568,5.14507463 1.02009009,5.26208955 L1.13720721,5.86985075 C1.13720721,5.86985075 2.21468468,5.86985075 2.67144144,6.44059701 C2.67144144,6.44059701 1.38315315,5.82447761 1.17351351,6.00716418 C1.17351351,6.00716418 1.31522523,6.55880597 1.42297297,6.68656716 C1.42297297,6.68656716 2.19594595,6.70328358 2.43252252,7.06029851 C2.43252252,7.06029851 1.52954955,6.74149254 1.47918919,6.83462687 C1.47918919,6.83462687 1.85279279,7.50208955 2.21702703,7.73850746 C1.87144096,7.53876577 1.58283951,7.2507042 1.37963964,6.90268657 C1.31227355,7.14313188 1.31553102,7.39843749 1.38900901,7.63701493 C1.38900901,7.63701493 1.02126126,7.37552239 1.29063063,6.73910448 C1.29063063,6.73910448 1.02126126,6.20656716 1.03648649,6.10985075 C1.03648649,6.10985075 0.685135135,6.69850746 0.661711712,7.15343284 C0.661711712,7.15343284 0.448558559,6.63402985 0.999009009,5.94985075 L0.866666667,5.34089552 C0.866666667,5.34089552 0.35954955,6.09432836 0.31036036,6.49910448 C0.31036036,6.49910448 0.174504505,5.93432836 0.845585586,5.18567164 L0.801081081,4.57552239 C0.801081081,4.57552239 0.316216216,5.19044776 0.166306306,5.62865672 C0.166306306,5.62865672 0.14990991,5.07701493 0.795225225,4.4 L0.812792793,3.9880597 C0.812792793,3.9880597 0.461441441,4.44298507 0.378288288,4.58507463 C0.295135135,4.72716418 0.245945946,4.70686567 0.245945946,4.70686567 C0.351497323,4.35984803 0.549332034,4.0494511 0.817477477,3.81014925 C0.817477477,3.81014925 0.901801802,2.96358209 0.852612613,2.95283582 Z" id="Path"></path>
                            </g>
                            <path d="M109.261709,50.5471578 C108.26782,50.5471578 107.462114,51.3201028 107.462114,52.2735789 C107.462114,53.2270549 108.26782,54 109.261709,54 C110.255598,54 111.061304,53.2270549 111.061304,52.2735789 C111.05854,51.3212031 110.254451,50.5498088 109.261709,50.5471578 Z M104,37 L104,38.7264211 L105.799595,38.7264211 L109.039117,45.021645 L107.684705,47.1365411 C107.536873,47.3866833 107.459305,47.6693742 107.459599,47.9569229 C107.459599,49.112696 108.283313,49.683344 109.400042,49.683344 L119.922202,49.683344 L119.922202,48.0232773 L109.620119,48.0232773 C109.559354,48.026842 109.499912,48.005237 109.456865,47.9639397 C109.413817,47.9226424 109.391296,47.8656181 109.395012,47.8073238 C109.418732,47.7326537 109.450776,47.6606552 109.490588,47.5925768 L110.389757,46.2305017 L117.093908,46.2305017 C117.754337,46.2357026 118.362252,45.8858779 118.668397,45.3244624 L121.909177,39.9787098 C121.972366,39.8429621 122.003295,39.6954316 121.999722,39.5468029 C121.997196,39.3223642 121.900031,39.1084743 121.730382,38.9539072 C121.560734,38.79934 121.333067,38.7172734 121.099296,38.7264211 L107.780281,38.7264211 L106.925128,37 L104,37 Z M118.12135,50.5471578 C117.127625,50.547824 116.32255,51.3210638 116.323013,52.2743826 C116.323476,53.2277015 117.129301,54.0002214 118.123026,53.9999996 C119.116751,53.9997776 119.922202,53.2268978 119.922202,52.2735789 C119.919436,51.3207336 119.114583,50.5491461 118.12135,50.5471578 Z" id="Shape" fill="#00839B" fill-rule="nonzero"></path>
                            <polygon id="Path" fill="#FFFFFF" points="115 41.4545455 113.545455 41.4545455 113.545455 40 112.454545 40 112.454545 41.4545455 111 41.4545455 111 42.5454545 112.454545 42.5454545 112.454545 44 113.545455 44 113.545455 42.5454545 115 42.5454545"></polygon>
                        </g>
                    </g>
                </g>
            </g>
        </g>
    </g>
</svg>