<?xml version="1.0" encoding="UTF-8"?>
<svg width="24px" height="24px" viewBox="0 0 24 24" version="1.1" xmlns="http://www.w3.org/2000/svg" xmlns:xlink="http://www.w3.org/1999/xlink">
    <title>69569117-CA27-4125-86B7-2550BAA9472E</title>
    <g id="Web" stroke="none" stroke-width="1" fill="none" fill-rule="evenodd">
        <g id="Dashboard-Main-(No-wallet)" transform="translate(-18.000000, -340.000000)">
            <g id="Group-4-Copy-5" transform="translate(18.000000, 340.000000)">
                <rect id="Rectangle" x="0" y="0" width="24" height="24"></rect>
                <g id="ic-call-24px" transform="translate(6.120000, 6.120000)" fill-rule="nonzero" stroke="#627382" stroke-linecap="round" stroke-width="0.7">
                    <path d="M4.13536937,9.42167038 C1.61008301,7.34319177 0,4.19323065 0,0.666666667 C0,0.3 0.3,0 0.666666667,0 L3,0 C3.36666667,0 3.66666667,0.3 3.66666667,0.666666667 C3.66666667,1.5 3.8,2.3 4.04666667,3.04666667 C4.12,3.28 4.06666667,3.54 3.88,3.72666667 L2.41333333,5.19333333 C3.37333333,7.08 4.92,8.62 6.80666667,9.58666667 L8.27333333,8.12 C8.45333333,7.94 8.72,7.88 8.95333333,7.96 C9.7,8.20666667 10.5066667,8.34 11.3333333,8.34 C11.7,8.34 12,8.64 12,9.00666667 L12,11.3333333 C12,11.7 11.7,12 11.3333333,12 C9.94208498,12 8.609449,11.7494156 7.37809008,11.2909114" id="Path"></path>
                </g>
            </g>
        </g>
    </g>
</svg>