<?xml version="1.0" encoding="UTF-8"?>
<svg width="61px" height="39px" viewBox="0 0 61 39" version="1.1" xmlns="http://www.w3.org/2000/svg" xmlns:xlink="http://www.w3.org/1999/xlink">
    <title>48795403-A2E3-4932-AB36-98272193EBB1</title>
    <g id="Web" stroke="none" stroke-width="1" fill="none" fill-rule="evenodd">
        <g id="Prepaid-Plans" transform="translate(-877.000000, -708.000000)">
            <g id="Group-4-Copy-6" transform="translate(856.000000, 662.000000)">
                <g id="undraw_doll_play_evbw-copy" transform="translate(21.000000, 46.000000)">
                    <path d="M18.6306959,21.080489 L18.2468439,20.8451873 C18.2102285,20.8229209 18.1742233,20.7988491 18.1376078,20.7759809 C19.8202259,20.4905331 21.0779186,19.0938162 21.1663725,17.4124191 C21.2548265,15.7310221 20.1504463,14.2134651 18.5068136,13.7578514 L18.5257316,15.2418771 L17.6988327,13.6272619 L17.6884583,13.6272619 C15.6735056,13.5350383 13.9639932,15.0705276 13.8694671,17.0574916 C13.8658056,17.126698 13.8694671,17.194099 13.8694671,17.2621018 C13.5820359,16.9383363 13.3202354,16.5911007 13.1475326,16.2107665 C12.797855,15.4410711 12.7911422,14.5690706 12.8186038,13.5087084 C12.873527,11.408445 12.9656758,9.29133127 13.0852863,7.18143912 C14.8690381,6.98559971 16.2441751,5.54076059 16.329415,3.77287405 C16.334297,3.66274562 16.3324663,3.55442258 16.329415,3.44609954 C16.329415,3.41901878 16.329415,3.39253981 16.3251432,3.36545905 C16.3178201,3.26074678 16.308056,3.15723809 16.291579,3.054933 C16.291579,3.03808275 16.2854764,3.02183429 16.2824251,3.00558583 C16.267779,2.9189274 16.2494712,2.83347255 16.2287225,2.7492213 C16.2207891,2.71732618 16.2128558,2.68904183 16.2043122,2.65473953 C16.1786814,2.56266495 16.1506095,2.47420113 16.1176556,2.38272834 C16.106671,2.3532404 16.0938556,2.32254887 16.0822607,2.29486632 C16.0566299,2.2292707 16.028558,2.16427687 15.9986554,2.10048663 C15.9827887,2.06678613 15.9675323,2.03308563 15.9510553,1.99998692 C15.9461733,1.9915618 15.943122,1.98253488 15.9382399,1.97410975 L15.9382399,1.97410975 C15.1423581,0.424962662 13.3387002,-0.343387955 11.6493505,0.147061103 L11.6737608,2.07882203 L10.8560158,0.482862535 C9.4771392,1.26222301 8.77149938,2.83453691 9.11373071,4.36504002 L9.11006917,4.36504002 C9.11556149,4.39091719 9.12349483,4.41559077 9.12959741,4.44086615 C9.1411923,4.48840793 9.15339745,4.53534791 9.16682311,4.5822879 C9.18391032,4.64246736 9.20343856,4.70264683 9.22357706,4.7628263 C9.23883349,4.80735911 9.25347967,4.85129012 9.27056688,4.89522113 C9.29558744,4.95901136 9.32365928,5.02099622 9.35173113,5.08298107 C9.36820808,5.11908875 9.38285426,5.15640002 9.40055172,5.19190591 C9.44693129,5.28538468 9.49737924,5.37625568 9.55189557,5.4645189 C9.57081356,5.49581222 9.59217257,5.52469836 9.61292132,5.55538989 C9.6519778,5.61556936 9.69103428,5.67574883 9.73497281,5.73171573 C9.76121388,5.76722162 9.78928573,5.80152392 9.81674731,5.83582621 C9.85702431,5.88577517 9.89791156,5.93512234 9.93879881,5.98266412 C9.96870142,6.01696641 9.99982455,6.05006512 10.0309477,6.08256203 C10.0761067,6.12950202 10.121876,6.17463662 10.1694761,6.21856763 C10.2012095,6.24805557 10.2305019,6.2787471 10.2652865,6.30642965 C10.3189892,6.35397143 10.3751329,6.39850424 10.4318868,6.44243525 C10.4605689,6.46470165 10.4886408,6.48756985 10.5179331,6.50923446 C10.6045897,6.56941393 10.6936873,6.6295934 10.7858362,6.68977286 C10.8029234,6.70000337 10.8218414,6.7084285 10.8389286,6.71865901 C10.9164313,6.76319182 10.9945442,6.80591924 11.0750982,6.8444341 C11.1098829,6.86128435 11.1452778,6.87632922 11.1806727,6.89197588 C11.2465806,6.92086202 11.3130986,6.94914637 11.3814475,6.97502354 L11.5034989,7.01714917 C11.5706273,7.03941557 11.6389761,7.06047839 11.7079352,7.07732864 C11.7482122,7.08816094 11.7890994,7.09959504 11.8299867,7.10922376 C11.9044381,7.1266758 11.9807203,7.14111887 12.0576127,7.15435836 L12.0722589,7.15736733 C12.0222178,8.04762226 11.9774656,8.93807779 11.9380023,9.82873392 C11.4981036,8.93731844 10.704955,8.2642056 9.74554505,7.96808502 C8.78613512,7.67196444 7.74536218,7.77903987 6.8685935,8.26406775 L7.5142459,10.0092723 L6.1857154,8.75152144 C5.47347891,9.39375685 5.04896643,10.2885852 5.00547747,11.2393406 C4.98669256,11.5733627 5.01628248,11.90832 5.09335454,12.2341073 C5.4351823,13.6718065 6.63242444,14.7580102 8.11372111,14.9743495 C9.59501777,15.1906888 11.0601244,14.4933137 11.8098482,13.2150326 C11.8098482,13.3053018 11.8037456,13.395571 11.8013046,13.486442 C11.7768943,14.4216309 11.7463814,15.5855018 12.2193309,16.6248012 C12.5397161,17.328901 13.0547734,17.9012078 13.5618974,18.4139368 C13.8932672,18.7473311 14.2368421,19.0704948 14.5889607,19.3828263 C14.9356388,19.8417674 15.3878222,20.2130176 15.9083373,20.4660567 C16.4868614,20.8999506 17.0885753,21.315189 17.7073763,21.6967268 L18.0942796,21.9338339 C18.4421263,22.1462674 18.7985167,22.3647189 19.1475839,22.5915955 C19.0865582,22.5855775 19.0255324,22.5789578 18.9645067,22.5759488 C17.3753487,22.5029358 15.9208347,23.4520263 15.3676492,24.9229481 L17.6500121,26.7542093 L15.1394129,26.1800972 C15.1407884,27.4183384 15.7866483,28.5691904 16.8498655,29.2279374 C17.9130827,29.8866843 19.2447794,29.9610846 20.3766425,29.4249741 L20.2094319,29.6307879 C20.0971446,29.7683982 19.9862811,29.9052062 19.8768416,30.0412118 C18.3914749,31.8965448 17.9783306,33.6573961 18.7136909,35 L19.6083283,34.5239804 C18.8924963,33.2168824 19.9689905,31.5438932 20.6744481,30.6628657 C20.7818534,30.5292673 20.8908861,30.3948665 21.0015461,30.2596633 C21.9504965,29.096996 23.0257701,27.7790656 22.9995291,26.1626451 C22.9555905,23.7283856 20.5578889,22.2600066 18.6306959,21.080489 Z" id="Path" fill="#F2F2F2"></path>
                    <path d="M41.6715128,26.6538535 L41.9058308,26.5123427 L41.9724264,26.4705463 C40.9436357,26.300113 40.1742703,25.4619313 40.1201729,24.4526171 C40.0660756,23.4433028 40.7416987,22.5325019 41.7467412,22.2598563 L41.7350253,23.1501199 L42.2406588,22.1816373 L42.2468251,22.1816373 C43.478364,22.1262655 44.5231801,23.047903 44.5807557,24.2404092 C44.5807557,24.2816085 44.5807557,24.3222107 44.5807557,24.3598275 C44.759166,24.1719622 44.9077518,23.9594646 45.0216435,23.7292987 C45.2356128,23.2671498 45.2399292,22.7440976 45.2226637,22.108195 C45.1930656,20.850123 45.131403,19.5777208 45.060491,18.3136778 C43.970364,18.1965627 43.1298575,17.3295218 43.0780374,16.268639 C43.0749542,16.202959 43.0780374,16.1372789 43.0780374,16.072793 C43.0780374,16.0566715 43.0780374,16.0405501 43.0780374,16.0238315 C43.0823538,15.9611369 43.08852,15.8990393 43.098386,15.838136 C43.098386,15.8279854 43.1020858,15.818432 43.1039357,15.8082814 C43.1131851,15.7563344 43.1242844,15.7049846 43.1366169,15.6542318 L43.1514159,15.5945226 C43.1674482,15.5395902 43.1847137,15.4852549 43.2044458,15.4315166 C43.2112287,15.4136039 43.2192448,15.3962882 43.2260277,15.3789725 C43.24206,15.3395645 43.2593255,15.3007535 43.2772077,15.2595542 C43.2870737,15.2392531 43.2963231,15.2195491 43.3068057,15.1998451 C43.3068057,15.1950683 43.3111221,15.1896945 43.3142053,15.1843207 L43.3142053,15.1843207 C43.8004578,14.2544654 44.90316,13.7935491 45.9354837,14.0886576 L45.9200681,15.2476124 L46.420152,14.2922658 C47.2626681,14.7595714 47.6937879,15.7028516 47.484449,16.6209231 L47.484449,16.6209231 C47.4807492,16.6364475 47.4758162,16.6507777 47.4721165,16.6663021 C47.4653336,16.6949625 47.4579341,16.7230258 47.4493013,16.7510891 C47.4406685,16.7791524 47.4271028,16.8227401 47.4147702,16.8579685 C47.4024377,16.8931969 47.3962714,16.9111096 47.3864054,16.9373817 C47.3709898,16.9755955 47.3537242,17.0132123 47.3364587,17.050232 C47.3265927,17.0717273 47.3173433,17.0938197 47.3068606,17.115315 C47.2784958,17.1714416 47.245198,17.2257769 47.2143667,17.2789181 C47.2026508,17.2974279 47.1897016,17.3153406 47.1773691,17.3338505 C47.1539373,17.369676 47.1292723,17.4049044 47.1033739,17.4395357 C47.0873417,17.4604339 47.0700761,17.4813321 47.0534272,17.4992449 C47.0287622,17.5296965 47.0040971,17.558954 46.9781988,17.5876144 C46.9523005,17.6162748 46.9405846,17.6276196 46.9214692,17.6473236 C46.9023538,17.6670276 46.8659728,17.702256 46.8369914,17.7291251 C46.817876,17.7470379 46.7987605,17.7649506 46.7784119,17.7816692 C46.7457307,17.8103296 46.7111996,17.8371987 46.6766685,17.8634707 L46.6242553,17.9034759 C46.5712254,17.9410927 46.5169623,17.9769182 46.4602327,18.0103553 L46.4275515,18.0276709 C46.3806879,18.0545401 46.3325911,18.0796179 46.283261,18.1035016 L46.2215983,18.1315649 C46.180901,18.1488805 46.1402036,18.1661962 46.0982731,18.1811235 L46.0248945,18.2067984 C45.9835806,18.2205315 45.9422666,18.2324734 45.9015693,18.2438181 L45.8269575,18.262925 C45.7813271,18.2736727 45.7344635,18.282032 45.6875999,18.2903912 L45.6783505,18.2903912 C45.7091819,18.8241911 45.7367245,19.3583891 45.7609785,19.8929851 C46.0297518,19.358186 46.514451,18.9544329 47.1007041,18.7769974 C47.6869572,18.5995619 48.3228349,18.6641609 48.8582924,18.9555513 L48.4642682,20.0022529 L49.2757484,19.2475291 C49.7108321,19.6329991 49.9702829,20.1698183 49.9972012,20.7402581 C50.0077064,20.9408881 49.9886041,21.1419435 49.9404716,21.3373497 C49.7315703,22.199991 49,22.8517312 48.0948446,22.9815697 C47.1896933,23.1114083 46.2944087,22.6930314 45.8362069,21.9260821 C45.8362069,21.9798203 45.8399066,22.0347527 45.8411399,22.0890881 C45.8565555,22.6497571 45.8750543,23.3483543 45.5858566,23.9717179 C45.390386,24.3944588 45.07529,24.7377865 44.7638937,25.0464828 C44.5608181,25.2455134 44.3515763,25.4393691 44.1361681,25.6280501 C43.9243642,25.903116 43.648147,26.1255614 43.3302375,26.2770886 C42.976294,26.5410031 42.6102235,26.788 42.2320261,27.0180793 L41.9952416,27.1601871 C41.7831221,27.2873677 41.5636032,27.4187278 41.3514837,27.5548647 C41.3890979,27.5512821 41.4267121,27.5471025 41.4643263,27.5453112 C42.4352268,27.501429 43.324021,28.0704394 43.6625991,28.9526562 L42.2677904,30.0513047 L43.8019567,29.7067829 C43.8011084,30.4497629 43.4064513,31.1403069 42.7567645,31.5355882 C42.1070778,31.9308696 41.2933279,31.9755427 40.6016661,31.6538986 L40.7052593,31.7786908 C40.7737048,31.8610894 40.8421504,31.9428909 40.908746,32.0246925 C41.8164199,33.1376713 42.0686201,34.1945234 41.6190995,35 L41.0727686,34.7139931 C41.5099567,33.9300118 40.8520164,32.9263008 40.4209946,32.3972777 C40.3556322,32.3172674 40.2884199,32.23666 40.2212077,32.158441 C39.6415789,31.461038 38.9842553,30.6704887 39.0002876,29.7002149 C39.0268025,28.2403259 40.4937565,27.3602128 41.6715128,26.6538535 Z" id="Path" fill="#F2F2F2"></path>
                    <ellipse id="Oval" fill="#F2F2F2" cx="30.5" cy="36.5" rx="30.5" ry="2.5"></ellipse>
                    <path d="M7.01909365,37 C6.78922178,36.6366933 7.04974323,36.1909668 7.34781042,35.8672216 C7.64587761,35.5434765 8.00754268,35.2078629 7.99988028,34.7931262 C7.98838669,34.1997033 7.25662791,33.8495838 6.67198712,33.5344103 C6.23787005,33.3012221 5.83762069,33.024314 5.47971837,32.7095525 C5.329724,32.5885322 5.20573397,32.445677 5.11345586,32.2875628 C4.99239001,32.0554686 4.99545496,31.791725 5.00311736,31.5378719 C5.02916951,30.6912553 5.07795342,29.8452979 5.14946912,29" id="Path" stroke="#3F3D56" stroke-width="4"></path>
                    <path d="M4.00169056,28.9560991 C4.01712497,28.6148288 4.20566538,28.3050456 4.50168091,28.1345849 L4.72596229,28.5789169 L4.71881957,28.0410037 C4.82610298,28.0095573 4.93784141,27.9960408 5.04952747,28.0009995 C5.60037453,28.0283198 6.02510379,28.4965257 5.99884518,29.0474923 C5.97258658,29.598459 5.50525545,30.0241395 4.9543075,29.9989362 C4.40335954,29.9737329 3.97683463,29.5071626 4.00097629,28.9560991 L4.00169056,28.9560991 Z" id="Path" fill="#57B894"></path>
                    <path d="M6.10872249,34.4584468 C6.32573659,34.8784536 6.80761044,35.0893814 7.26398951,34.964135 C7.72036857,34.8388885 8.02660462,34.4116757 7.9981742,33.9399148 C7.96974378,33.468154 7.61441193,33.0806945 7.14628493,33.0110013 C6.67815792,32.941308 6.22509264,33.208416 6.06008494,33.6513784 L6.68736638,34.1606171 L6,34.0027745 C5.99959941,34.1611185 6.03686157,34.3172945 6.10872249,34.4584468 L6.10872249,34.4584468 Z" id="Path" fill="#57B894"></path>
                    <path d="M6.94174047,32.9974901 C7.4520728,33.0338372 7.90558418,32.6715418 7.98722114,32.1622898 C8.06885809,31.6530379 7.75164175,31.1651237 7.2559417,31.0375004 L7.26159026,31.4490057 L7.03705995,31.0011911 L7.03705995,31.0011911 C6.7744656,30.9882415 6.51757315,31.0813049 6.32319279,31.2598008 C6.12881243,31.4382968 6.0129598,31.6875185 6.001255,31.9523521 C5.99545424,32.067651 6.00979373,32.1830807 6.04361922,32.2933747 C6.16562694,32.6956741 6.52499887,32.977417 6.94174047,32.9974901 L6.94174047,32.9974901 Z" id="Path" fill="#57B894"></path>
                    <path d="M2.95924417,31.9993205 C3.38270526,32.0148251 3.77033313,31.7637738 3.92793904,31.3719349 C4.08554495,30.980096 3.9791807,30.5318713 3.66213127,30.2518066 C3.34508183,29.9717419 2.88563943,29.9201629 2.51396949,30.1229089 L2.69179255,30.6086188 L2.32610803,30.258622 C2.13014088,30.4374125 2.01333389,30.6863131 2.00129413,30.9507586 C1.99652019,31.0436187 2.00496939,31.1366844 2.02639013,31.2271846 C2.12847229,31.6637504 2.50971453,31.9793097 2.95924417,31.9993205 L2.95924417,31.9993205 Z" id="Path" fill="#57B894"></path>
                    <path d="M4.11515187,28.9415397 C4.34980097,28.9764484 4.57793203,29.0771852 4.81330535,29.0971331 C5.04867867,29.1170809 5.30722721,29.0402816 5.45641769,28.787941 C5.5360825,28.6522955 5.57663914,28.4807438 5.64399212,28.3321321 C5.7083183,28.1940709 5.79637751,28.0799912 5.90036798,28 C6.06807772,28.4818145 6.02143865,29.0531877 5.78023889,29.4716965 C5.53903912,29.8902052 5.14557318,30.0824638 4.76678145,29.9669004 C4.38798972,29.851337 4.09029356,29.4482157 4,28.9285735 C4.03814255,28.9285735 4.07652651,28.9328956 4.11515187,28.9415397 Z" id="Path" fill="#000000" opacity="0.1"></path>
                    <path d="M3.93754029,31.9981973 C4.29319914,32.0231588 4.63213166,31.787509 4.82984033,31.3778075 C5.027549,30.9681061 5.05488436,30.4447577 4.90180554,30 C4.82137059,30.0748017 4.75219577,30.1704861 4.69811805,30.2817458 C4.62588844,30.4326097 4.58182838,30.607452 4.49731974,30.7453276 C4.33913691,31.0020959 4.06972047,31.0860202 3.82486211,31.0710337 C3.58000374,31.0560472 3.34381293,30.9591347 3.10256604,30.9281626 C3.06861813,30.9281626 3.03467021,30.9211689 3,30.9201698 C3.10316693,31.5289971 3.48594938,31.9691382 3.93754029,31.9981973 Z" id="Path" fill="#000000" opacity="0.1"></path>
                    <path d="M6.92869227,31.9981834 C7.28390074,32.023151 7.62281659,31.7893782 7.82304564,31.3812884 C8.02327469,30.9731986 8.05588503,30.4497584 7.90909995,30 C7.82428879,30.0768984 7.75024765,30.1745509 7.69058413,30.2881995 C7.61119004,30.4439284 7.56165979,30.6239267 7.4720683,30.7675209 C7.29944079,31.0334734 7.00954313,31.1275175 6.74878091,31.1194277 C6.48801868,31.1113379 6.2512932,31.0253836 6,30.9980805 C6.12613407,31.5705031 6.49796203,31.9709223 6.92869227,31.9981834 L6.92869227,31.9981834 Z" id="Path" fill="#000000" opacity="0.1"></path>
                    <path d="M6,34.1597354 C6.23581773,34.8754778 6.85423376,35.196086 7.38127088,34.875834 C7.90830801,34.5555819 8.14438801,33.7157424 7.90857033,33 C7.82217381,33.0767249 7.74474073,33.1706159 7.67885573,33.2785391 C7.57891496,33.4426239 7.51328222,33.6300047 7.39842492,33.7849737 C7.18437268,34.0706029 6.83905495,34.1901215 6.53102856,34.1992373 C6.35359892,34.2003787 6.17627633,34.1871881 6,34.1597354 Z" id="Path" fill="#000000" opacity="0.1"></path>
                    <path d="M8,35.5719696 C8,35.5719696 7.19369424,35.5394738 6.95063817,35.3120031 C6.7075821,35.0845323 5.71352644,34.8140524 5.65094314,35.1781968 C5.58835984,35.5423411 4.43930136,36.9941396 5.34894234,36.9998741 C6.25858332,37.0056087 7.46367568,36.8144568 7.70673175,36.6175704 C7.94978782,36.420684 8,35.5719696 8,35.5719696 Z" id="Path" fill="#656380"></path>
                    <path d="M5.33019516,36.8197845 C6.24149826,36.8331162 7.44709908,36.5531494 7.68967616,36.2865143 C7.87470493,36.0798721 7.94827936,35.3412929 7.97304699,35 L8,35 C8,35 7.94900782,36.1918588 7.70861612,36.466493 C7.46822441,36.7411271 6.25970975,37.0090954 5.34840665,36.9997631 C5.08543269,36.9997631 4.99510369,36.8251172 5.00020291,36.5718138 C5.03444052,36.7277954 5.1342395,36.8157849 5.33019516,36.8197845 Z" id="Path" fill="#000000" opacity="0.2"></path>
                    <path d="M37.2970888,13.5215797 C37.9105548,14.0157064 38.2710909,14.8012861 38.3914545,15.6043881 C38.4269534,15.8380177 38.4435935,16.0809926 38.4796471,16.3181267 C38.6319156,17.2934167 39.1091765,18.1796794 39.8258333,18.817964 C39.6121454,18.9291192 39.3601008,18.9219047 39.1524629,18.7986896 C39.3089968,19.4632747 39.5978926,20.0852335 40,20.6233372 C39.5390011,20.377441 39.1347785,20.0281484 38.8157777,19.6000393 C38.6948611,20.4531999 38.9127126,21.3211591 39.4181503,22 C38.7973797,21.6893446 38.3343158,21.111451 38.147954,20.4148228 L38.67711,21.8843533 C38.3443074,21.7844766 38.105799,21.4871829 37.9144375,21.1834643 C37.2052479,20.0584264 36.8991346,18.7044721 37.050815,17.3636194 C37.1162661,16.801156 37.2621446,16.2486219 37.2859954,15.682654 C37.3098463,15.1166862 37.1894827,14.508665 36.8045411,14.1120786 C36.5138936,13.8118645 36.1078745,13.674023 35.7090661,13.6448193 C35.4583549,13.6261289 34.8088353,13.8369797 35.0545545,13.3615433 C35.4306214,12.6355392 36.8594535,13.169383 37.2970888,13.5215797 Z" id="Path" fill="#3F3D56"></path>
                    <path d="M35,13.3485092 L35.4172137,14.7311527 C35.5995624,14.9332935 35.6943837,14.5370974 35.7585704,14.6230073 C35.8406682,14.7379145 35.9139955,14.8642469 35.9773888,15 L36,14.982818 L35.3880379,13.0887582 C35.1772429,12.83305 35.0729395,13.1958928 35,13.3485092 Z" id="Path" fill="#006848"></path>
                    <ellipse id="Oval" fill="#3F3D56" cx="33.5" cy="17" rx="3.5" ry="4"></ellipse>
                    <path d="M27,35.5944326 C26.3018416,35.5209741 25.5844314,35.4499373 24.9174155,35.7623378 C24.6699741,35.8785799 24.4180028,36.0489068 24.1609356,35.9867496 C23.8891464,35.9213635 23.6830396,35.6113846 23.4984495,35.319165 C23.298005,35.001921 23.0901995,34.6653033 23.0222522,34.2487692 C22.9745382,33.9265732 23.0040474,33.5908701 23.1060538,33.2954228 C23.1204089,33.2456119 23.1418034,33.2005475 23.1689051,33.163036 C23.2255278,33.0919992 23.3098957,33.0903847 23.3857702,33.0944209 C24.0403291,33.1339755 24.6988517,33.3640379 25.3437847,33.2009761 C25.7208922,33.1057222 26.4649151,32.7101762 26.6851775,33.3898695 C26.7780388,33.671595 26.6223263,35.554878 27,35.5944326 Z" id="Path" fill="#575A89"></path>
                    <path d="M19.1895945,31.4941855 C18.3562271,31.7422516 17.5591638,32.1164228 16.7653516,32.48941 L15,33.3182703 L15.5218028,34.7297011 C15.5667765,34.8481097 15.4817058,34.8410052 15.5900761,34.894289 C15.7103671,34.9534933 15.987795,35.0351953 16.1113371,34.9836875 C17.3007007,34.4869634 18.6688753,34.7711441 19.8652831,34.2945494 C20.3058082,34.1169364 20.7176152,33.8416364 21.1808981,33.7617106 C21.7227494,33.6663917 22.29657,33.849333 22.8210821,33.6687598 C22.8777082,33.6544445 22.9286199,33.6206113 22.9662982,33.5722568 C22.9954343,33.5141277 23.0061057,33.4470828 22.9966419,33.3816189 C22.9695493,32.8943674 22.8010336,32.43435 22.5821256,32.0157755 C22.438535,31.7386993 22.2093319,31.1869151 21.9237763,31.0519293 C21.6013747,30.9009583 20.9717435,31.1217904 20.6357957,31.1762584 C20.1483819,31.2507848 19.6654606,31.3569483 19.1895945,31.4941855 L19.1895945,31.4941855 Z" id="Path" fill="#A1616A"></path>
                    <path d="M17,34.8217256 C16.1850542,34.9811578 15.3458621,35.150753 14.657536,35.5922087 C14.4009292,35.7567224 14.1524044,35.9631585 13.8439373,35.9955531 C13.517959,36.0298533 13.2115124,35.8596229 12.9333533,35.6951092 C12.6309478,35.5172565 12.3157456,35.3267001 12.1426538,35.032608 C12.014167,34.8033854 11.9707757,34.540185 12.0194017,34.2849917 C12.024461,34.2431901 12.038436,34.2027861 12.0604857,34.1662116 C12.1193985,34.1002002 12.202689,34.0577461 12.2935198,34.0474314 C13.0512173,33.8746602 14.0762979,33.5646885 14.7760736,33.2420129 C15.185567,33.0514565 15.7257212,32.8050036 16.1338676,33.2509056 C16.3029183,33.4357453 16.5575047,34.9112871 17,34.8217256 Z" id="Path" fill="#575A89"></path>
                    <path d="M31.0532608,20.6224919 C31.0108989,20.7536655 30.9935372,20.892143 31.0021438,21.0302014 L31.0021438,22.0612039 C30.9943469,22.2094318 31.0112761,22.3579437 31.0521846,22.5001898 C31.1151393,22.6805874 31.2518101,22.8213309 31.3911713,22.9469948 C31.8398736,23.3503145 32.3587507,23.660837 32.9198395,23.8618281 C33.2319225,23.9735293 33.5735995,24.0528372 33.8916012,23.9573326 C34.0742063,23.8937435 34.2447955,23.7977457 34.3957765,23.6736115 C34.8146732,23.3565856 35.1899426,22.9817224 35.511204,22.5593915 C35.8340484,22.1310172 36.1143849,21.578096 35.9529627,21.0592437 C35.3386918,20.924612 34.840273,20.4600658 34.6454429,19.8405831 C34.5835644,19.6361698 34.5534322,19.4116503 34.4237564,19.2452155 C34.1461102,18.8888885 33.6080362,18.9888611 33.1861862,19.1223441 C32.7767118,19.251359 32.065378,19.3261989 31.7619043,19.6501325 C31.6419138,19.7780304 31.5961775,19.9880288 31.4788773,20.1276553 C31.3379019,20.2979997 31.1393526,20.4041159 31.0532608,20.6224919 Z" id="Path" fill="#A1616A"></path>
                    <path d="M31.0532608,20.6224919 C31.0108989,20.7536655 30.9935372,20.892143 31.0021438,21.0302014 L31.0021438,22.0612039 C30.9943469,22.2094318 31.0112761,22.3579437 31.0521846,22.5001898 C31.1151393,22.6805874 31.2518101,22.8213309 31.3911713,22.9469948 C31.8398736,23.3503145 32.3587507,23.660837 32.9198395,23.8618281 C33.2319225,23.9735293 33.5735995,24.0528372 33.8916012,23.9573326 C34.0742063,23.8937435 34.2447955,23.7977457 34.3957765,23.6736115 C34.8146732,23.3565856 35.1899426,22.9817224 35.511204,22.5593915 C35.8340484,22.1310172 36.1143849,21.578096 35.9529627,21.0592437 C35.3386918,20.924612 34.840273,20.4600658 34.6454429,19.8405831 C34.5835644,19.6361698 34.5534322,19.4116503 34.4237564,19.2452155 C34.1461102,18.8888885 33.6080362,18.9888611 33.1861862,19.1223441 C32.7767118,19.251359 32.065378,19.3261989 31.7619043,19.6501325 C31.6419138,19.7780304 31.5961775,19.9880288 31.4788773,20.1276553 C31.3379019,20.2979997 31.1393526,20.4041159 31.0532608,20.6224919 Z" id="Path" fill="#A1616A" opacity="0.1"></path>
                    <circle id="Oval" fill="#A1616A" cx="33" cy="18" r="3"></circle>
                    <path d="M41.4692842,27.7908816 C41.6284824,28.0173716 41.7667011,28.2580173 41.9326869,28.4795836 C42.2739141,28.93441 42.7243588,29.2950707 43.1667819,29.6489613 L45.6917404,31.6652147 C46.3964087,32.2283624 47.140568,32.8099739 48.0284994,32.9730714 C48.3314698,33.0290784 48.6899744,33.0130764 48.8843444,32.7755081 C49.1114179,32.4967038 48.9775185,32.057264 48.7128051,31.8141565 C48.4480918,31.571049 48.0914383,31.4621122 47.7650201,31.3113241 C46.3853019,30.6718591 45.5498195,29.2802996 44.5785867,28.1109218 C43.7252099,27.0849468 42.7225077,26.1937578 41.792,25.2373299 C40.804724,24.2205868 40.0235418,23.0407462 39.0813102,22 C38.6308655,22.3742009 38.117482,23.1336809 38.0162862,23.7232935 C37.9255802,24.2501289 38.2279335,24.6360236 38.571629,25.0022235 C39.4848593,25.9851162 40.6905702,26.6855119 41.4692842,27.7908816 Z" id="Path" fill="#A1616A"></path>
                    <path d="M41,21 C40.9857168,21.6766132 40.0327088,22.2148391 39.7875136,22.8746926 C39.7580023,22.9837367 39.7150331,23.0912981 39.6589646,23.1964789 C39.5581886,23.3501893 39.3629846,23.4742111 39.1622261,23.5867406 C38.8305381,23.7730127 38.4528263,23.9468348 38.0084596,24 C37.9552943,24.006212 38.167162,21.781481 38.2417521,21.5750973 C38.4726641,20.9066245 40.076352,21.0598561 41,21 Z" id="Path" fill="#B4C404"></path>
                    <path d="M32.3701117,20.6773535 C32.3635517,21.175359 32.4070862,21.6841258 32.6032894,22.1414779 C32.7994926,22.5988299 33.1656591,23.001778 33.6427491,23.1428696 C33.894414,23.2176004 34.160988,23.2170025 34.4233874,23.2134155 C34.6350961,23.2098284 34.8509793,23.2044478 35.0507607,23.1350976 C35.4521126,22.9963974 35.7294211,22.6221459 35.8904389,22.2287634 C36.0514568,21.8353808 36.1200384,21.4109103 36.2524309,21.0073644 C36.3216089,20.7951291 36.4498268,20.5571865 36.6698846,20.5374576 C36.8100297,20.5255006 36.938844,20.6080034 37.0551347,20.686919 L38.2478594,21.4970001 C38.4864044,22.8630778 38.2418958,24.2841573 37.7475114,25.5790914 C37.5990172,25.9670933 37.4183194,26.3479211 37.350334,26.7574455 C37.2113816,27.6004081 37.5638318,28.4361965 37.8482966,29.2420927 C38.0558308,29.8291773 38.2299686,30.427621 38.4047028,31.0254668 L38.8442218,32.5326361 C38.9461998,32.8835716 39.0493705,33.2500511 38.9742288,33.6087586 C38.8990872,33.9674661 38.5800333,34.3016619 38.2180413,34.2598127 C38.1172561,34.2484536 38.0081218,34.2107893 37.9198601,34.2598127 C37.7045733,34.3793819 37.944311,34.7040121 37.924631,34.9509225 C37.8995838,35.2701721 37.4684138,35.3389244 37.1493599,35.3317503 C35.5642287,35.2964773 33.9993738,35.639043 32.4279589,35.8476912 C30.856544,36.0563394 29.2135656,36.123896 27.729816,35.5649101 C27.09469,35.3257718 26.5066767,34.9766298 25.9222415,34.6304771 C24.8159893,33.9728467 23.6465227,33.2506489 23.1032365,32.0824582 C22.8646916,31.5713 22.7615209,30.9979659 22.4573761,30.5238742 C22.2903946,30.2620177 22.0596023,30.0234772 22.0095079,29.7167823 C21.9391371,29.2851376 22.2695219,28.8708305 22.6655065,28.6890853 C23.0614912,28.5073402 23.5141302,28.5007639 23.9500711,28.4786436 C24.386012,28.4565233 24.8446147,28.4074999 25.2024321,28.1593939 C25.5918568,27.8921568 25.8304017,27.4180651 26.2633608,27.2291458 C26.4482332,27.1496323 26.6527855,27.1310991 26.847796,27.0814779 C27.1134227,27.0069127 27.3664772,26.8930672 27.5986162,26.743695 C29.4038052,25.6412673 30.4456503,23.4029326 30.1283855,21.3080808 C30.0930361,21.0985933 30.0731035,20.8867831 30.0687493,20.6743642 C30.0653371,20.6380687 30.0723738,20.6015533 30.0890256,20.5691434 C30.1109749,20.5416228 30.1410271,20.5217474 30.1749018,20.512348 C30.4504212,20.4107142 30.7629151,20.4651182 31.0420127,20.3736478 C31.253125,20.3042977 31.4296482,20.1566298 31.6330078,20.0669529 C31.8363674,19.977276 32.1041341,19.9599385 32.2538211,20.1267375 C32.390388,20.2756011 32.3730935,20.4722924 32.3701117,20.6773535 Z" id="Path" fill="#006848"></path>
                    <path d="M31.3639735,18.3888587 C31.1470496,17.61481 30.1619816,17.1540667 30.016956,16.3671172 C29.9407561,15.9518339 30.1294123,15.5304074 30.4219215,15.2207879 C30.7144308,14.9111684 31.1028045,14.6979979 31.4917927,14.5026427 C32.0620629,14.2157532 32.6845669,13.9497508 33.3353386,14.0081116 C34.0063893,14.069544 34.8636381,14.1881086 35.3847471,14.6003203 C35.7534562,14.8915101 35.8554658,15.4972339 35.9691511,15.9321755 C36.0772712,16.3782137 35.89544,16.8443026 35.5137953,17.0993919 C35.0836346,17.385667 34.5023031,17.36478 33.9670603,17.366623 C33.4318175,17.3684659 32.8345086,17.4341986 32.5045139,17.8218373 C32.3238464,18.0337792 32.2544062,18.3096109 32.1235144,18.5516547 C31.9926226,18.7936985 31.7511181,19.0222271 31.4592234,18.9982685 L31.3639735,18.3888587 Z" id="Path" fill="#3F3D56"></path>
                    <path d="M26.5570161,25.7524894 C26.3592494,26.0511815 26.1577629,26.3557074 26.0610494,26.696403 C25.9097796,27.2377824 26.0486503,27.8322496 26.3778481,28.2983726 C26.707046,28.7644956 27.2147918,29.1057746 27.7702745,29.3052916 C27.9909796,29.3846316 28.2197442,29.4429699 28.4379696,29.5281439 C29.4075844,29.9067594 30.1273559,30.7993353 31.1602065,30.9790173 C31.3054615,31.012633 31.4579735,31.0057411 31.599137,30.9591822 C31.9289548,30.8273377 31.9878508,30.4189696 31.9977701,30.0841078 C32.0027298,29.9160935 32.0064496,29.7404952 31.9270949,29.5899824 C31.8570111,29.4736794 31.7596961,29.3739258 31.642534,29.298291 C30.9035437,28.7656623 29.9581073,28.5632284 29.1484418,28.1315251 C28.7684073,27.9296746 28.3896128,27.6303991 28.3387762,27.2226144 C28.2836,26.7763265 28.6344964,26.3895436 28.9134776,26.0243458 C29.5991515,25.1265195 30.1819123,23.6738959 29.8527144,22.5561342 C29.3889856,20.9810002 28.2470224,23.204856 27.9420029,23.6645618 C27.4811673,24.3599543 27.019505,25.0559301 26.5570161,25.7524894 Z" id="Path" fill="#A1616A"></path>
                    <path d="M29.2643945,22.2760418 C29.0860022,22.4641705 28.9658221,22.691875 28.8137192,22.8989312 C28.5992103,23.1907449 28.3224021,23.4397086 28,23.6307975 C28.3605402,23.5963837 28.7680258,23.5734412 29.0365531,23.7977043 C29.2637686,23.9852594 29.3163474,24.2886742 29.4640687,24.5341591 C29.575056,24.7281214 29.7589436,24.8786923 29.9817193,24.9580221 C30.2077127,25.0357285 30.4611852,25.0042717 30.6564804,24.8742819 C30.9462896,24.6677993 30.9782124,24.2840857 30.9857237,23.9474042 L30.9988684,23.3417218 C31.0038759,23.1163115 30.9988684,22.8691059 30.841132,22.6976106 C30.7428598,22.592075 30.59952,22.532998 30.4705768,22.4601555 C29.9735821,22.1796833 29.823357,21.6881398 29.2643945,22.2760418 Z" id="Path" fill="#B4C404"></path>
                    <path d="M30.7627113,18.9483031 C30.8796672,18.6534122 30.5521908,18.3468947 30.6396911,18.0498899 C30.6865279,17.8979924 30.8358552,17.7650945 31.0512024,17.6836544 C31.1716236,17.6387337 31.3111043,17.6117813 31.4332581,17.57056 C31.9221079,17.3949088 32.128067,17.0280914 31.9184083,16.7064979 C31.7399423,16.4565276 31.3379608,16.2969272 30.9420436,16.1716778 C30.521869,16.0379728 30.0098623,15.9264638 29.590554,16.0606974 C29.0811463,16.2239972 29.0092401,16.6420235 29.0023094,16.9950471 C28.996245,17.2835963 28.9919133,17.5763733 29.1296613,17.8532959 C29.2886739,18.150506 29.5451087,18.4248853 29.8833767,18.6597539 C29.9431542,18.6983328 30.6838745,19.1501818 30.7627113,18.9483031 Z" id="Path" fill="#3F3D56"></path>
                    <path d="M30.9292849,22.4790598 C30.6704228,23.1944262 29.7813378,23.4917962 29.1591504,24 C29.1904895,23.9189989 29.2062198,23.8336459 29.2056423,23.7477337 C29.2056423,23.5379489 29.1482449,23.328164 29.2136779,23.1267705 C28.8710116,23.5020561 28.4100145,23.771644 27.8935388,23.8987788 L27.6421383,21.5843274 C27.3833182,22.3266744 26.7839564,22.9294645 26,23.2358587 C26.7128752,22.0689304 26.9298372,20.7126713 27.1594266,19.3931246 C27.2153098,19.02204 27.2950386,18.6542811 27.3981996,18.2917541 C27.5416915,17.8227704 27.7600429,17.3756703 28.0462157,16.9648649 C28.2205457,16.7116054 28.433096,16.482078 28.6775866,16.2830642 C28.9238213,16.0942578 29.2021985,15.9631423 29.4742619,16.0092949 L29.4742619,16.0092949 C29.9437723,16.0900621 29.754935,16.3003714 29.4742619,16.4933735 C29.2515602,16.6454675 28.9703131,16.7875967 28.9037322,16.8484343 C28.82816,16.9178778 28.771703,17.0027178 28.7390018,17.0959805 C28.6310948,17.3964973 28.7470374,17.7777812 28.8882349,18.0882628 C29.2493468,18.8855603 29.6889,19.6512684 30.2014864,20.3759667 C30.4310758,20.6958886 30.6709968,21.0105658 30.8328573,21.3635289 C30.9947179,21.7164919 31.0624467,22.1171809 30.9292849,22.4790598 Z" id="Path" fill="#3F3D56"></path>
                    <path d="M29.8194254,16.1480089 L30,17.4681782 C29.8235294,17.7273855 29.4186047,17.474435 29.3666211,17.5790117 C29.298506,17.7158103 29.252653,17.8569195 29.2298222,18 L29.1819425,18 L29,16.1685668 C29.2010944,15.8458984 29.6032832,16.0720344 29.8194254,16.1480089 Z" id="Path" fill="#006848"></path>
                    <circle id="Oval" fill="#3F3D56" cx="47" cy="29" r="1"></circle>
                    <path d="M47.1023677,33.3794685 C47.1726941,33.8078557 47.0868958,34.2497065 46.9525723,34.668914 C46.9309359,34.7477237 46.8978506,34.8238139 46.8541153,34.8953472 C46.8022012,34.9632653 46.7463362,35.0288327 46.6867384,35.0917933 C46.5793824,35.2337854 46.4969007,35.3888868 46.4420023,35.5520036 C46.2683548,35.9958134 46.1225639,36.4475106 46.0052751,36.9050952 C45.9982416,36.9237822 45.9982416,36.9439344 46.0052751,36.9626215 C46.0214502,36.9956685 46.0756015,37.0005643 46.1135778,36.9999523 L46.6501686,36.9999523 C46.66986,36.9681293 46.6339935,36.9332463 46.6114891,36.9026472 C46.53413,36.7992223 46.6114891,36.6651983 46.6754861,36.5568776 C46.8400585,36.2938788 46.9671172,36.0143794 47.0538424,35.7245824 C47.0842653,35.6011366 47.1266115,35.4801464 47.18043,35.3629012 C47.2629834,35.2279978 47.3552968,35.0977917 47.4568129,34.9730689 C47.5590275,34.8189409 47.6467526,34.6578728 47.7191306,34.4914393 C47.8375186,34.2658757 47.9244056,34.0287751 47.9779319,33.7852124 C48.0091319,33.5539613 48.007242,33.3202352 47.9723058,33.0893891 C47.9723071,33.0748029 47.9663214,33.0606959 47.9554274,33.0496103 C47.9431925,33.0424419 47.9286772,33.0388023 47.9139348,33.0392066 L47.193792,33.0073836 C47.0454032,33.0006518 47.01024,32.9725006 47.0327445,33.0991808 C47.0496228,33.1915901 47.0868958,33.2839993 47.1023677,33.3794685 Z" id="Path" fill="#575A89"></path>
                    <path d="M47.1023677,33.3794685 C47.1726941,33.8078557 47.0868958,34.2497065 46.9525723,34.668914 C46.9309359,34.7477237 46.8978506,34.8238139 46.8541153,34.8953472 C46.8022012,34.9632653 46.7463362,35.0288327 46.6867384,35.0917933 C46.5793824,35.2337854 46.4969007,35.3888868 46.4420023,35.5520036 C46.2683548,35.9958134 46.1225639,36.4475106 46.0052751,36.9050952 C45.9982416,36.9237822 45.9982416,36.9439344 46.0052751,36.9626215 C46.0214502,36.9956685 46.0756015,37.0005643 46.1135778,36.9999523 L46.6501686,36.9999523 C46.66986,36.9681293 46.6339935,36.9332463 46.6114891,36.9026472 C46.53413,36.7992223 46.6114891,36.6651983 46.6754861,36.5568776 C46.8400585,36.2938788 46.9671172,36.0143794 47.0538424,35.7245824 C47.0842653,35.6011366 47.1266115,35.4801464 47.18043,35.3629012 C47.2629834,35.2279978 47.3552968,35.0977917 47.4568129,34.9730689 C47.5590275,34.8189409 47.6467526,34.6578728 47.7191306,34.4914393 C47.8375186,34.2658757 47.9244056,34.0287751 47.9779319,33.7852124 C48.0091319,33.5539613 48.007242,33.3202352 47.9723058,33.0893891 C47.9723071,33.0748029 47.9663214,33.0606959 47.9554274,33.0496103 C47.9431925,33.0424419 47.9286772,33.0388023 47.9139348,33.0392066 L47.193792,33.0073836 C47.0454032,33.0006518 47.01024,32.9725006 47.0327445,33.0991808 C47.0496228,33.1915901 47.0868958,33.2839993 47.1023677,33.3794685 Z" id="Path" fill="#000000" opacity="0.1"></path>
                    <path d="M47.2657509,32.0466154 C47.1164796,32.2318988 46.9593141,32.4443571 47.0095496,32.6642267 C47.0468675,32.8315994 47.1954212,32.9619154 47.3360807,33.0835848 C47.8965659,33.5677922 48.4484392,34.1063493 48.6393343,34.7702815 C48.6881346,34.9419774 48.7110994,35.1186143 48.7541584,35.2915455 C48.8413311,35.6035921 48.9589653,35.9087468 49.1058073,36.2037574 L49.4718091,36.9998585 C49.7039113,37.0047116 49.9148489,36.8843472 50,36.6984641 C49.9442847,36.6884434 49.894905,36.6609199 49.8614934,36.6212627 C49.7057632,36.4359793 49.6734689,36.1963461 49.6332805,35.9696827 C49.5895038,35.7189325 49.5299388,35.4706528 49.4703738,35.222373 L49.209149,34.1248776 C49.1790076,33.9976497 49.1488663,33.8710393 49.1093955,33.7456642 C48.9565359,33.2620745 48.6673227,32.8050421 48.6228284,32.3047769 C48.6264905,32.2302667 48.6012429,32.1568255 48.5510633,32.0960243 C48.4810001,32.045477 48.3911594,32.019852 48.2998856,32.0243814 C47.9367543,32.0033826 47.620988,31.9731196 47.2657509,32.0466154 Z" id="Path" fill="#575A89"></path>
                    <path d="M46.5395427,36.1276512 C46.4913203,36.1155787 46.4418813,36.109105 46.3921934,36.1083565 C46.2957023,36.1118437 46.2065059,36.1609309 46.151552,36.2407882 C46.1237609,36.2856216 46.1020616,36.3339956 46.0870321,36.3846212 L46.0225123,36.5696747 C45.9959068,36.6216839 45.9927326,36.6826681 46.0137934,36.7371876 C46.0348486,36.768574 46.0654351,36.7922645 46.1009824,36.804719 C46.262144,36.860389 46.4310645,36.8899912 46.6014468,36.892422 C46.7662339,36.9090856 46.9292772,36.9380277 47.0914486,36.9687237 C47.1472495,36.9792481 47.2030505,36.9897725 47.2597233,36.9959117 C47.3868061,37.003948 47.5143557,37.0001312 47.6407389,36.9845103 L47.7715223,36.9713548 C47.8151515,36.9696744 47.8583148,36.9616997 47.89969,36.947675 C47.9418985,36.9326425 47.9762084,36.9009799 47.9947259,36.8599719 C48.0059001,36.8182112 47.9991454,36.7736505 47.9761062,36.7371373 C47.953067,36.7006241 47.9158567,36.6755077 47.8735333,36.6679022 C47.8386578,36.6608859 47.8029103,36.6679022 47.7680347,36.6600089 C47.7286599,36.6531392 47.690291,36.6413545 47.6538172,36.6249277 C47.4838435,36.5660248 47.321639,36.4865059 47.1707905,36.3881293 C47.1298118,36.3591873 47.0836016,36.3188439 47.0914486,36.2688532 C47.0959208,36.2476106 47.1029476,36.2269949 47.112374,36.207461 C47.1315705,36.1560064 47.1315705,36.099296 47.112374,36.0478414 C47.1036551,36.0259156 47.088833,36.0031128 47.0661638,36.0004817 C47.0033878,35.9925885 47.0112348,36.0837997 47.001644,36.1197579 C46.9920532,36.1557162 46.9667685,36.1723798 46.9223021,36.1679946 C46.7950063,36.1583473 46.6668385,36.151331 46.5395427,36.1276512 Z" id="Path" fill="#3F3D56"></path>
                    <path d="M48.0022452,36.720642 C48.0024343,36.7998386 48.034586,36.8767754 48.0937225,36.9395411 C48.1124112,36.9578163 48.1354385,36.9728106 48.1614158,36.9836198 C48.2001921,36.996662 48.2421928,37.0020376 48.2839954,36.9993088 C48.4025333,36.997772 48.5197257,36.9785284 48.6297797,36.9425295 C48.6685792,36.9285777 48.7082778,36.9163572 48.7487002,36.9059218 C48.8001075,36.8975063 48.8520142,36.8912721 48.9042116,36.8872444 C49.1100356,36.8633373 49.2902459,36.7639736 49.4896665,36.7139182 C49.5484542,36.7015232 49.6062042,36.6860512 49.6625586,36.6675982 C49.7390767,36.6333635 49.8082804,36.5892083 49.8674678,36.5368564 C49.9030002,36.5098151 49.9337841,36.4788914 49.9589451,36.4449636 C49.9898266,36.3866017 50.0036086,36.32316 49.9991952,36.2596839 C50.0003643,36.2499174 49.9981453,36.2400794 49.9927917,36.2312942 C49.9874706,36.2248045 49.9797925,36.2198401 49.9708372,36.2170994 C49.9063497,36.1998722 49.8368189,36.1998722 49.7723314,36.2170994 C49.5300107,36.2453413 49.2847428,36.252853 49.0405128,36.2395123 C49.0165753,36.2403645 48.9927361,36.2365218 48.9709901,36.2283058 C48.9528631,36.2173852 48.9378772,36.2033613 48.9270809,36.1872156 L48.8356036,36.0654389 C48.8090752,36.0303254 48.7669956,35.9907294 48.7185127,36.0019358 C48.6803288,36.0161081 48.6588376,36.0496721 48.6663706,36.0833692 C48.6727403,36.1157167 48.6745817,36.1485512 48.6718592,36.1812388 C48.6611043,36.2172899 48.6321993,36.2479516 48.5922739,36.2656606 C48.5532188,36.2834477 48.5113581,36.2967708 48.4678648,36.3052567 C48.3207968,36.3282555 48.1825265,36.3794689 48.0644498,36.4546759 C47.9930975,36.5114552 47.9976714,36.6421969 48.0022452,36.720642 Z" id="Path" fill="#3F3D56"></path>
                    <path d="M49.0771576,30.8440606 C49.1378981,30.8124056 49.1899525,30.7734733 49.2308531,30.7291092 C49.2658505,30.6790885 49.2878482,30.6251927 49.2958384,30.5698909 L49.3401935,30.3771153 C49.3502682,30.2691132 49.4038708,30.165227 49.4949205,30.0772422 C49.5980718,29.9965621 49.8043744,29.9672887 49.9075257,30.0472549 C49.9496245,30.0845971 49.9757164,30.1293761 49.9828262,30.1764859 C50.047962,30.4568868 49.9257974,30.742601 49.650679,30.9533001 C49.5248344,31.0489739 49.3711389,31.1246561 49.2380737,31.215332 C49.1215127,31.2931563 49.0214559,31.3816902 48.9141786,31.4666543 C48.6551391,31.6703534 48.3586307,31.8496636 48.0322348,32 C48.0492548,31.8526785 48.0492548,31.7046516 48.0322348,31.5573302 C48.0095415,31.4530886 47.9486822,31.3973979 48.0930941,31.3295694 C48.4339076,31.1805294 48.7624395,31.0184411 49.0771576,30.8440606 L49.0771576,30.8440606 Z" id="Path" fill="#A1616A"></path>
                    <path d="M47.1668138,30.3544081 C47.1629929,30.478143 47.101948,30.5939647 47,30.6709077 C47.2994999,30.7699712 47.593704,30.8796686 47.8826125,31 C47.8309475,30.9436599 47.8038032,30.8707063 47.8067079,30.7959963 C47.8062053,30.6011964 47.8637374,30.4102474 47.972639,30.2452704 C47.9891345,30.2243429 47.998664,30.1991967 48,30.1730715 C48,30.1193422 47.929391,30.0941565 47.8737864,30.0824032 C47.6855044,30.0394105 47.4934615,30.0129941 47.3000883,30.0034883 C47.2171227,30.0034883 47.1235658,29.975784 47.1376876,30.0765266 C47.1596954,30.167612 47.169482,30.2609827 47.1668138,30.3544081 Z" id="Path" fill="#FBBEBE"></path>
                    <circle id="Oval" fill="#A1616A" cx="48" cy="29" r="1"></circle>
                    <path d="M48.5565777,29.7981832 C48.5344893,29.7606183 48.5075635,29.7249231 48.4762201,29.691654 C48.365807,29.5582355 48.2372882,29.4345953 48.0929142,29.3228987 C47.9801511,29.2443958 47.8582811,29.1743322 47.7288941,29.1136223 C47.6590751,29.0756143 47.5820593,29.0464711 47.5006784,29.0272642 C47.4528369,29.0188563 47.4041867,29.0135852 47.355231,29.0115054 L47.1888907,29.0014198 C47.1742573,28.9995267 47.1593274,28.9995267 47.144694,29.0014198 C47.0999744,29.0152259 47.0759654,29.0534388 47.0892472,29.0896689 C47.1034815,29.1246082 47.1289414,29.156085 47.1631763,29.1810698 C47.1704085,29.4464475 47.0201397,29.7086734 47.002461,29.9734208 C46.9671036,30.4373589 47.3238915,30.8685189 47.3568382,31.3324571 C47.3595383,31.3536789 47.3568063,31.37511 47.3488024,31.3954922 C47.343981,31.4049474 47.3367488,31.4137723 47.3311237,31.4232276 C47.3171928,31.4533143 47.3103846,31.4851441 47.3110343,31.5171499 C47.2975522,31.6304296 47.2328493,31.7361879 47.1286225,31.8153058 C47.1553221,31.8424743 47.1900803,31.8641135 47.2298731,31.8783409 C47.3041588,31.8962673 47.3798556,31.910375 47.4564817,31.9205744 C47.6466703,31.9733627 47.8469744,32.0002253 48.0487175,32 C48.0735767,31.9573823 48.0890633,31.9117734 48.0945213,31.8651035 C48.1226465,31.8512358 48.1555931,31.8808623 48.159611,31.9067067 C48.1636289,31.932551 48.159611,31.9634382 48.180504,31.9823488 C48.2036588,31.9955526 48.233014,32.000158 48.2608616,31.9949558 C48.382269,31.9778992 48.5024384,31.9558059 48.6208639,31.9287689 C48.7404584,31.9026098 48.8668966,31.9026098 48.9864911,31.9287689 C49.006372,31.9024967 49.0041529,31.8694223 48.9808661,31.8449323 C48.958057,31.8211483 48.9389065,31.7953354 48.9238122,31.7680295 C48.9181904,31.7515999 48.9157524,31.7346002 48.91658,31.7176014 C48.91658,31.5707297 48.9551516,31.4225972 48.91658,31.2763559 C48.9053299,31.2341224 48.8884548,31.1931496 48.8772047,31.1502857 C48.8598822,31.06697 48.8547596,30.9823739 48.8619368,30.8981454 C48.8619368,30.813048 48.8514903,30.7235382 48.8498831,30.6384409 C48.849365,30.6032518 48.8464142,30.5681106 48.8410438,30.5331723 C48.8338116,30.4966119 48.8193472,30.4613123 48.8153294,30.4241216 C48.8032757,30.3308297 48.8514903,30.2350163 48.8442581,30.1442458 C48.8386331,30.0049383 48.628096,29.9274051 48.5565777,29.7981832 Z" id="Path" fill="#006848"></path>
                    <path d="M47.0209309,31.0066054 C46.837296,31.2785386 46.7478572,31.5669688 46.6593699,31.8532704 L46.4519481,32.5253873 C46.3828498,32.7142882 46.3443179,32.9062866 46.3368194,33.0990547 C46.3427377,33.1525305 46.3360194,33.2062093 46.3168384,33.2587024 C46.2721672,33.3250568 46.2127062,33.3879937 46.1398639,33.4460224 C46.0131854,33.5734156 45.9707422,33.7216863 46.0199778,33.8648316 C46.0418618,33.9249656 46.0999019,33.9930819 46.2102731,34 C46.3021913,33.9981677 46.3856393,33.9694773 46.4300641,33.9244334 C46.5409999,33.8266908 46.619336,33.7185099 46.6612729,33.605138 C46.8335142,33.2384958 46.9537733,32.8648253 47.0209309,32.487604 C47.0269213,32.4400278 47.0386832,32.3927342 47.0561355,32.3460497 C47.0790167,32.2977194 47.1082755,32.2504048 47.1436713,32.2044954 L47.3815404,31.8750889 C47.5526766,31.618116 47.7594594,31.3690166 48,31.1300663 C47.7516647,31.0901543 47.4928631,31.0433243 47.2445278,31.0034124 C47.1701521,30.997967 47.0947128,30.9990442 47.0209309,31.0066054 Z" id="Path" fill="#A1616A"></path>
                    <path d="M47.4524666,30.7482412 C47.3251341,30.7133874 47.1962494,30.7001458 47.0675277,30.7086923 C47.0492291,30.7109494 47.0310302,30.702255 47.0157886,30.6839743 C46.9895741,30.6444255 47.0006118,30.5690355 47.0157886,30.5121841 L47.0778755,30.2439936 C47.0881737,30.188361 47.1053938,30.1376482 47.1282349,30.0956856 C47.1625145,30.0506547 47.2037024,30.0256266 47.2462001,30.0240033 C47.3838603,29.9842757 47.5245543,29.993938 47.6601129,30.052429 C47.7957238,30.1112048 47.9109068,30.2708037 47.9767563,30.4911738 C48.0064701,30.5814299 48.0077773,30.692906 47.9802055,30.7853182 C47.9312259,30.9089083 47.8215389,31.0510368 47.7401361,30.9818264 C47.6366579,30.900257 47.5621536,30.7902618 47.4524666,30.7482412 Z" id="Path" fill="#006848"></path>
                    <path d="M48.5626092,28.4711856 C48.4646131,28.4700534 48.3684718,28.5073811 48.2858033,28.5786582 C48.1267515,28.3748167 47.8989925,28.3027135 47.6897021,28.3899466 C47.6594798,28.1544612 47.5036958,27.9870804 47.3275023,28.000784 C47.1513087,28.0144876 47.0106973,28.2049208 47.0005789,28.4435438 C46.9904605,28.6821667 47.1140505,28.8931485 47.2879274,28.9340792 C47.2700076,29.0124565 47.2609489,29.0940553 47.2610591,29.176104 C47.260584,29.5879743 47.4851107,29.9368277 47.7864444,29.9924101 C48.0877781,30.0479925 48.3730135,29.7931671 48.4538863,29.3961265 C48.4896285,29.4063889 48.5260728,29.4114948 48.5626092,29.4113588 C48.8025493,29.4113588 49,29.2006449 49,28.9408491 C49,28.6810533 48.8025493,28.4711856 48.5626092,28.4711856 Z" id="Path" fill="#3F3D56"></path>
                    <path d="M48.3548009,28.444 C48.2863284,28.4444274 48.2180251,28.4323589 48.1510539,28.408 C48.118598,28.6072864 48.067596,28.7963654 48,28.968 C48.0632905,28.988844 48.1275816,28.9995571 48.1920375,29 C48.6112412,29 48.9566745,28.566 49,28 C48.8288807,28.29079 48.5961533,28.4509437 48.3548009,28.444 Z" id="Path" fill="#000000" opacity="0.1"></path>
                    <path d="M47.318864,29.7445459 C47.0525454,29.7445542 46.8020351,29.6104551 46.6438287,29.3831969 C46.4856223,29.1559387 46.4385061,28.8625073 46.5168673,28.5925046 C46.2874595,28.5498461 46.1200259,28.3386417 46.1197538,28.0915772 C46.1201611,28.0608872 46.1227584,28.030274 46.1275234,28 C46.0083001,28.1368233 45.9690484,28.3317992 46.0251851,28.5083479 C46.0813218,28.6848967 46.2238808,28.8148202 46.3968699,28.8470892 C46.3721118,28.9319065 46.3595963,29.0202098 46.3597485,29.109 C46.3593795,29.5490431 46.6621809,29.923336 47.0722566,29.9897316 C47.4823324,30.0561272 47.8766044,29.7946977 48,29.374574 C47.8423612,29.6070509 47.588824,29.7447644 47.318864,29.7445459 Z" id="Path" fill="#000000" opacity="0.1"></path>
                </g>
            </g>
        </g>
    </g>
</svg>