<?xml version="1.0" encoding="UTF-8"?>
<svg width="69px" height="51px" viewBox="0 0 69 51" version="1.1" xmlns="http://www.w3.org/2000/svg" xmlns:xlink="http://www.w3.org/1999/xlink">
    <title>24EE0958-B95E-4272-AC9E-C5C44BAC8670</title>
    <defs>
        <linearGradient x1="49.9910539%" y1="100%" x2="49.9910539%" y2="0%" id="linearGradient-1">
            <stop stop-color="#000000" stop-opacity="0.12" offset="0%"></stop>
            <stop stop-color="#000000" stop-opacity="0.09" offset="55%"></stop>
            <stop stop-color="#000000" stop-opacity="0.02" offset="100%"></stop>
        </linearGradient>
        <linearGradient x1="50%" y1="0%" x2="50%" y2="100%" id="linearGradient-2">
            <stop stop-color="#B4EC51" offset="0%"></stop>
            <stop stop-color="#429321" offset="100%"></stop>
        </linearGradient>
        <linearGradient x1="50%" y1="100%" x2="50%" y2="0%" id="linearGradient-3">
            <stop stop-color="#000000" stop-opacity="0.12" offset="0%"></stop>
            <stop stop-color="#000000" stop-opacity="0.09" offset="55%"></stop>
            <stop stop-color="#000000" stop-opacity="0.02" offset="100%"></stop>
        </linearGradient>
        <linearGradient x1="49.928418%" y1="100%" x2="49.928418%" y2="0%" id="linearGradient-4">
            <stop stop-color="#000000" stop-opacity="0.12" offset="0%"></stop>
            <stop stop-color="#000000" stop-opacity="0.09" offset="55%"></stop>
            <stop stop-color="#000000" stop-opacity="0.02" offset="100%"></stop>
        </linearGradient>
        <linearGradient x1="50.0220264%" y1="100%" x2="50.0220264%" y2="0%" id="linearGradient-5">
            <stop stop-color="#000000" stop-opacity="0.12" offset="0%"></stop>
            <stop stop-color="#000000" stop-opacity="0.09" offset="55%"></stop>
            <stop stop-color="#000000" stop-opacity="0.02" offset="100%"></stop>
        </linearGradient>
    </defs>
    <g id="Web" stroke="none" stroke-width="1" fill="none" fill-rule="evenodd">
        <g id="Airtime-Recharge" transform="translate(-305.000000, -376.000000)">
            <g id="Group-4" transform="translate(280.000000, 337.000000)">
                <g id="undraw_credit_card_df1m-(1)" transform="translate(25.190840, 40.000000)">
                    <path d="M7.12910541,7.59282982 L54.5456005,7.60102981 C56.082992,7.60225909 57.3292278,8.84849479 57.3304572,10.3858863 L57.3350041,36.6668394 C57.3362332,38.2046071 56.0898418,39.4514299 54.5520739,39.4516959 C54.5517529,39.451696 54.5514318,39.451696 54.5511109,39.4507329 L7.13461577,39.4425329 C5.59722427,39.4413036 4.35098848,38.1950679 4.34975908,36.6576764 L4.34521218,10.3767233 C4.34398305,8.8389556 5.5903745,7.5921328 7.12814233,7.59186674 C7.12846341,7.59186669 7.1287845,7.59186669 7.12910541,7.59282982 Z" id="Rectangle" stroke-opacity="0.516062063" stroke="#006848" fill="#FFFFFF" transform="translate(30.840108, 23.521781) rotate(-17.260000) translate(-30.840108, -23.521781) "></path>
                    <polygon id="Rectangle" fill="#006848" transform="translate(28.036055, 14.504376) rotate(-17.260000) translate(-28.036055, -14.504376) " points="1.54402763 12.2161072 54.5272929 12.2252696 54.5280831 16.7926447 1.54481787 16.7834823"></polygon>
                    <polygon id="Rectangle" fill="#BDBDBD" transform="translate(19.239797, 38.628178) rotate(-17.260000) translate(-19.239797, -38.628178) " points="12.508712 37.6394933 25.9705411 37.6418212 25.9708829 39.6168623 12.5090537 39.6145343"></polygon>
                    <polygon id="Rectangle" fill="#E0E0E0" transform="translate(22.967869, 33.980222) rotate(-17.260000) translate(-22.967869, -33.980222) " points="11.2966967 32.9906836 34.6386992 32.9947201 34.639041 34.9697612 11.2970384 34.9657246"></polygon>
                    <rect id="Rectangle" fill="#B4C404" x="14.9583916" y="18.1798107" width="52.9173207" height="31.6940063" rx="2.784375"></rect>
                    <rect id="Rectangle" fill="#FEFFFE" x="18.9794646" y="23.3280757" width="1.6084292" height="4.34384858"></rect>
                    <rect id="Rectangle" fill="#FEFFFE" x="20.9095796" y="23.3280757" width="1.6084292" height="4.34384858"></rect>
                    <rect id="Rectangle" fill="#FEFFFE" x="22.6788517" y="23.3280757" width="1.6084292" height="4.34384858"></rect>
                    <rect id="Rectangle" fill="#FEFFFE" x="26.3782389" y="23.3280757" width="1.6084292" height="4.34384858"></rect>
                    <rect id="Rectangle" fill="#FEFFFE" x="27.9866681" y="23.3280757" width="1.6084292" height="4.34384858"></rect>
                    <rect id="Rectangle" fill="#FEFFFE" x="30.0776261" y="23.3280757" width="1.6084292" height="4.34384858"></rect>
                    <rect id="Rectangle" fill="#FEFFFE" x="33.7770132" y="23.3280757" width="1.6084292" height="4.34384858"></rect>
                    <rect id="Rectangle" fill="#FEFFFE" x="35.5462853" y="23.3280757" width="1.6084292" height="4.34384858"></rect>
                    <rect id="Rectangle" fill="#FEFFFE" x="37.4764004" y="23.3280757" width="1.6084292" height="4.34384858"></rect>
                    <rect id="Rectangle" fill="#FEFFFE" x="41.1757875" y="23.3280757" width="1.6084292" height="4.34384858"></rect>
                    <rect id="Rectangle" fill="#FEFFFE" x="42.9450597" y="23.3280757" width="1.6084292" height="4.34384858"></rect>
                    <rect id="Rectangle" fill="#FEFFFE" x="44.8751747" y="23.3280757" width="1.6084292" height="4.34384858"></rect>
                    <rect id="Rectangle" fill="#006848" x="18.8186217" y="45.2082019" width="13.5108053" height="2.09148265"></rect>
                    <rect id="Rectangle" fill="#006848" x="18.8186217" y="41.829653" width="23.3222234" height="2.09148265"></rect>
                    <path d="M57.310298,34.351716 C57.3042299,34.1803819 57.4401115,34.0365929 57.613911,34.0304347 L58.0642942,34.0304347 L58.0642942,31.3722397 L54.0432212,31.3722397 L54.0432212,34.4290221 L57.3095785,34.4290221 L57.310298,34.351716 Z" id="Path" fill="url(#linearGradient-1)"></path>
                    <path d="M57.6138304,37.5654622 C57.4399998,37.559304 57.3040939,37.4155149 57.3101631,37.2441809 L57.3101631,37.1640379 L54.0432212,37.1640379 L54.0432212,40.2208202 L58.0642942,40.2208202 L58.0642942,37.5654622 L57.6138304,37.5654622 Z" id="Path" fill="url(#linearGradient-2)"></path>
                    <rect id="Rectangle" fill="url(#linearGradient-3)" x="54.0432212" y="35.2334385" width="3.37770132" height="1.60883281"></rect>
                    <path d="M59.1372327,37.2441066 C59.1433019,37.4152817 59.007396,37.5589375 58.8335654,37.56509 L58.38598,37.56509 L58.38598,40.2208202 L62.407053,40.2208202 L62.407053,37.1640379 L59.1401111,37.1640379 L59.1372327,37.2441066 Z" id="Path" fill="url(#linearGradient-2)"></path>
                    <path d="M58.38598,31.3722397 L58.38598,34.0304347 L58.8364438,34.0304347 C59.0102744,34.0365929 59.1461803,34.1803819 59.1401111,34.351716 L59.1401111,34.4290221 L62.407053,34.4290221 L62.407053,31.3722397 L58.38598,31.3722397 Z" id="Path" fill="url(#linearGradient-4)"></path>
                    <rect id="Rectangle" fill="url(#linearGradient-5)" x="59.0293517" y="35.2334385" width="3.37770132" height="1.60883281"></rect>
                    <path d="M57.3098715,34.3596816 C57.3098715,34.2017614 57.4449781,34.0737417 57.6116405,34.0737417 L58.0642942,34.0737417 L58.0642942,31.6940063 L54.0432212,31.6940063 L54.0432212,34.4290221 L57.3106259,34.4290221 L57.3098715,34.3596816 Z" id="Path" fill="#FEFFFE"></path>
                    <path d="M57.6139038,37.1996029 C57.4472413,37.1996029 57.3121347,37.0716166 57.3121347,36.9137376 L57.3121347,36.8422713 L54.0432212,36.8422713 L54.0432212,39.5772871 L58.0642942,39.5772871 L58.0642942,37.1996029 L57.6139038,37.1996029 Z" id="Path" fill="#FEFFFE"></path>
                    <rect id="Rectangle" fill="#FEFFFE" x="54.0432212" y="35.0725552" width="3.37770132" height="1.28706625"></rect>
                    <path d="M59.1404027,36.9116299 C59.1404027,37.0695914 59.0052961,37.1976446 58.8386336,37.1976446 L58.38598,37.1976446 L58.38598,39.5772871 L62.407053,39.5772871 L62.407053,36.8422713 L59.1404027,36.8422713 L59.1404027,36.9116299 Z" id="Path" fill="#FEFFFE"></path>
                    <path d="M58.38598,31.6940063 L58.38598,34.0717839 L58.8385487,34.0717839 C59.0051799,34.0717839 59.1402612,34.1997367 59.1402612,34.3575744 L59.1402612,34.4290221 L62.407053,34.4290221 L62.407053,31.6940063 L58.38598,31.6940063 Z" id="Path" fill="#FEFFFE"></path>
                    <rect id="Rectangle" fill="#FEFFFE" x="59.0293517" y="35.0725552" width="3.37770132" height="1.28706625"></rect>
                </g>
            </g>
        </g>
    </g>
</svg>