<?xml version="1.0" encoding="UTF-8"?>
<svg width="27px" height="24px" viewBox="0 0 27 24" version="1.1" xmlns="http://www.w3.org/2000/svg" xmlns:xlink="http://www.w3.org/1999/xlink">
    <title>3E5FEA5C-ED12-402F-A1EF-7467C7CFEB39</title>
    <g id="Web" stroke="none" stroke-width="1" fill="none" fill-rule="evenodd">
        <g id="Dashboard-Main-(No-wallet)" transform="translate(-15.000000, -372.000000)">
            <g id="Group-44" transform="translate(0.000000, 24.000000)">
                <g id="Group-43" transform="translate(0.000000, 56.000000)">
                    <g id="Group-42" transform="translate(0.000000, 99.000000)">
                        <g id="Group-41" transform="translate(15.500000, 0.000000)">
                            <g id="Group-40" transform="translate(0.000000, 61.000000)">
                                <g id="Group-36" transform="translate(0.000000, 35.000000)">
                                    <g id="Group-12" transform="translate(0.500000, 96.000000)">
                                        <g id="Data-usage" transform="translate(0.500000, 1.000000)">
                                            <rect id="Rectangle" x="0" y="0" width="24" height="24"></rect>
                                            <g id="Group-2" transform="translate(5.000000, 6.000000)" stroke="#627382" stroke-width="0.7">
                                                <rect id="Rectangle" x="0" y="7.08" width="3" height="4.92" rx="0.5"></rect>
                                                <path d="M8.68,9.06424795 L8.68,11.76 C8.68,11.8925483 8.57254834,12 8.44,12 L5.92,12 C5.78745166,12 5.68,11.8925483 5.68,11.76 L5.68,3.72 C5.68,3.58745166 5.78745166,3.48 5.92,3.48 L8.44,3.48 C8.57254834,3.48 8.68,3.58745166 8.68,3.72 L8.68,7.17277629 L8.68,7.17277629" id="Path" stroke-linecap="round"></path>
                                                <rect id="Rectangle-Copy" x="11" y="0" width="3" height="12" rx="0.5"></rect>
                                            </g>
                                        </g>
                                    </g>
                                </g>
                            </g>
                        </g>
                    </g>
                </g>
            </g>
        </g>
    </g>
</svg>