<?xml version="1.0" encoding="UTF-8"?>
<svg width="192px" height="167px" viewBox="0 0 192 167" version="1.1" xmlns="http://www.w3.org/2000/svg" xmlns:xlink="http://www.w3.org/1999/xlink">
    <title>5400F044-F868-42CE-A678-F49A440B06B0</title>
    <defs>
        <linearGradient x1="49.9879247%" y1="99.9938906%" x2="49.9879247%" y2="-0.00738901634%" id="linearGradient-1">
            <stop stop-color="#808080" stop-opacity="0.25" offset="0%"></stop>
            <stop stop-color="#808080" stop-opacity="0.12" offset="54%"></stop>
            <stop stop-color="#808080" stop-opacity="0.1" offset="100%"></stop>
        </linearGradient>
    </defs>
    <g id="Web" stroke="none" stroke-width="1" fill="none" fill-rule="evenodd">
        <g id="Dashboard-Main-(No-wallet)" transform="translate(-304.000000, -569.000000)">
            <g id="Group-28" transform="translate(280.000000, 545.000000)">
                <g id="Group-10" transform="translate(24.000000, 24.000000)">
                    <path d="M4,0 L188,0 C190.209139,1.48469752e-14 192,1.790861 192,4 L192,163 C192,165.209139 190.209139,167 188,167 L4,167 C1.790861,167 -1.73547709e-16,165.209139 0,163 L0,4 C-7.1463071e-16,1.790861 1.790861,-3.82769592e-17 4,0 Z" id="Rectangle" fill="#EDF6F8"></path>
                    <g id="undraw_wallet_aym5-(1)" transform="translate(23.000000, 31.000000)">
                        <rect id="Rectangle" fill="#85848B" x="10" y="101" width="136" height="1"></rect>
                        <path d="M118,84.4702857 C118,85.1164032 113.58268,87 108.335587,87 C103.088494,87 99,85.1164032 99,84.4702857 C99,83.8241682 103.252907,84.0322399 108.505138,84.0322399 C113.757369,84.0322399 118,83.8230731 118,84.4702857 Z" id="Path" fill="#504F60"></path>
                        <path d="M118,84 C118,84.7662338 113.58268,87 108.335587,87 C103.088494,87 99,84.7662338 99,84" id="Path" fill="#000000" opacity="0.2"></path>
                        <path d="M65.3459249,69.9539463 C66.1506555,70.0056717 66.9857303,70.0385325 67.7564753,69.9131745 C67.8778524,69.89431 68.0113673,69.8523212 67.9992296,69.7914678 C67.9905503,69.7693552 67.971864,69.7485363 67.9446099,69.7306144 C67.6540743,69.5121496 67.4099878,69.2790259 67.2163469,69.0350604 C67.2086725,69.0223363 67.1928991,69.0112222 67.1714374,69.0034166 C67.1463407,68.9988611 67.1188527,68.9988611 67.093756,69.0034166 C66.7381209,69.0502737 66.4310367,69.1652866 66.0778292,69.2145778 C65.8977384,69.2393481 65.7097757,69.2463745 65.5243493,69.235268 C65.3641315,69.22614 65.1456526,69.1598098 65,69.1683292 C65.0825365,69.4342585 65.2840225,69.6825403 65.3459249,69.9539463 Z" id="Path" fill="#D87900"></path>
                        <path d="M81.1452543,68 C81.8327216,67.6031746 82.5453592,67.1865079 82.9512323,66.5740741 C82.9802091,66.5374448 82.9970435,66.4949803 83,66.4510582 C82.9930776,66.4078314 82.9730316,66.3668321 82.9417934,66.3320106 C82.555174,65.8152145 82.0574321,65.3635045 81.474043,65 C81.1696551,65.1807958 80.8946503,65.3942407 80.6560042,65.6349206 C80.4829575,65.7883598 80.0047195,66.031746 80,66.265873 C80,66.3981481 80.1824856,66.5515873 80.2674358,66.6626984 C80.3822758,66.8055556 80.4908233,66.9510582 80.5946513,67.0992063 C80.654431,67.1719577 81.2003146,67.9708995 81.1452543,68 Z" id="Path" fill="#D87900"></path>
                        <path d="M67.9934849,71.3780527 C68.0026955,71.5367533 67.9693278,71.6946934 67.8991053,71.8247818 C67.8440323,71.8971103 67.775857,71.950098 67.7009083,71.9788263 C66.6072856,72.4902541 65.3414203,71.8525098 64.250157,72.3562353 C64.0260057,72.4594452 63.8136517,72.6088683 63.5883206,72.7074568 C63.3196853,72.8129157 63.0425321,72.8770222 62.7624998,72.898472 C62.3767235,72.9462258 61.9885877,72.9770347 61.6016317,72.9908987 C61.3076231,73.0180798 61.0121728,72.9842848 60.7262616,72.8907698 C60.4371125,72.7941333 60.1930588,72.5415479 60.0549872,72.196029 C59.9956691,72.0428876 59.9838381,71.865785 60.0219544,71.7015462 C60.0390632,71.6452306 60.0634,71.5931361 60.0939188,71.5475017 C60.1678746,71.4391681 60.2547156,71.3471019 60.351103,71.2748429 L60.7533957,70.935945 C60.9420394,70.7617605 61.1470229,70.6199079 61.3633234,70.513863 C61.5225888,70.4460834 61.6912922,70.416815 61.8529171,70.3598185 C62.4180145,70.1441562 62.8498008,69.558787 63.2509138,68.9965246 L63.7983151,68.2340042 C63.849491,68.1501044 63.9143873,68.0822087 63.9882538,68.0352868 C64.0641752,68.0022269 64.1448719,67.9922168 64.2242027,68.0060184 C64.755935,68.0555902 65.2693748,68.2803006 65.7165789,68.6591671 C65.8308754,68.7711145 65.9543225,68.8661755 66.084659,68.942609 C66.4055494,69.1058962 66.8172801,68.9826606 67.1133958,68.7762409 C67.2537854,68.6776524 67.223112,68.6221964 67.2820992,68.4465857 C67.3410864,68.2709749 67.4850152,68.1585224 67.6100681,68.3187287 C67.647798,68.3741305 67.6745348,68.4407797 67.6879312,68.5128248 C67.8059056,69.0211717 67.7610753,69.5680297 67.7610753,70.1010237 C67.7576143,70.184361 67.7656053,70.2678343 67.7846702,70.3474949 C67.8147734,70.4278099 67.8507246,70.504157 67.8920269,70.5754808 C67.900434,70.5943581 67.9079206,70.6139092 67.914442,70.6340177 C67.9866089,70.8699898 68.0137362,71.125341 67.9934849,71.3780527 Z" id="Path" fill="#514E7F"></path>
                        <path d="M67.9921556,72.3158083 C68.0013648,72.3827535 67.9680026,72.449378 67.8977918,72.5042536 C67.8427279,72.5347642 67.774564,72.5571162 67.6996278,72.5692347 C66.6061869,72.7849721 65.3405321,72.5159502 64.2494503,72.7284385 C64.0253362,72.7719759 63.8130176,72.8350076 63.5877239,72.8765955 C63.3191333,72.9210816 63.0420261,72.9481238 62.7620404,72.9571721 C62.3763283,72.9773162 61.988257,72.9903125 61.6013653,72.9961608 C61.3074056,73.0076267 61.0120045,72.9933708 60.7261408,72.953923 C60.4370398,72.9131585 60.1930267,72.8066095 60.0549781,72.6608581 C59.9956698,72.596258 59.9838408,72.5215501 60.0219507,72.4522687 C60.0390567,72.4285129 60.0633894,72.4065377 60.0939032,72.3872876 C60.1575987,72.4607162 60.2036011,72.5581879 60.2437057,72.5932777 C60.3533125,72.6984767 60.5398345,72.7725832 60.7556295,72.7966687 C60.9152864,72.8020691 61.0753593,72.7908256 61.2274486,72.7635283 C62.2182689,72.6283676 63.2716051,72.6264181 64.2235002,72.4217276 C64.550235,72.3508981 64.8616356,72.2566755 65.204884,72.2137879 C65.5481325,72.1709004 65.9126128,72.182597 66.2664771,72.1663517 C66.8255828,72.1416589 67.3669953,72.0487359 67.9178441,72 C67.9889725,72.1003587 68.0144837,72.2087756 67.9921556,72.3158083 L67.9921556,72.3158083 Z" id="Path" fill="#464353"></path>
                        <path d="M84.9897824,68.8982086 C84.9312105,69.3155072 84.6343573,69.6747159 84.3082182,69.9793913 C83.9820791,70.2840667 83.6133422,70.5579189 83.3537621,70.908829 C83.0342789,71.3439102 82.8905114,71.8833161 82.4751833,72.2508233 C82.3157546,72.384469 82.1366151,72.4981384 81.9427112,72.5886929 C81.7254926,72.7028278 81.4957886,72.7969684 81.2571535,72.8696582 C80.6368236,73.0462988 79.9685712,73.0059915 79.3202865,72.9633133 C79.1098119,72.9615114 78.901445,72.9257641 78.7052814,72.8578031 C78.6159804,72.8174017 78.5305048,72.7706185 78.4496948,72.7179132 C78.2871891,72.6287942 78.1504106,72.5069835 78.0503408,72.362261 C78.0012026,72.2835718 77.9874067,72.1912134 78.0117365,72.1038204 C78.0487829,72.0075558 78.1124112,71.9211309 78.1967706,71.8524929 C78.342652,71.7173895 78.4992471,71.5917974 78.665346,71.4766871 C78.8932504,71.3457049 79.0986154,71.1859742 79.2750264,71.0024841 C79.3832587,70.8574915 79.46294,70.6971261 79.5106453,70.5282812 C79.6049374,70.2324756 79.6625223,69.9283536 79.6823675,69.6213681 C79.6816384,69.4173853 79.7052891,69.2139128 79.7529201,69.0143883 C79.8514274,68.7014144 80.1123387,68.4216346 80.0830527,68.0979911 C80.0712053,68.0516473 80.075858,68.0031679 80.0963645,67.9592868 C80.1273542,67.9249978 80.1705599,67.9011584 80.2188331,67.8917128 C80.4222627,67.8195043 80.6367946,67.7751378 80.8551371,67.7601215 C81.0769126,67.7464985 81.2938502,67.8222111 81.4461811,67.9663998 C81.5367013,68.0636114 81.5966044,68.2035013 81.7297224,68.2414375 C81.7956859,68.2574697 81.8648846,68.2599023 81.9320618,68.2485505 C82.2595321,68.2189129 82.6056389,68.1821621 82.8638878,67.9936665 C83.1052011,67.8009097 83.2451455,67.5271531 83.2499301,67.2384983 C83.2499301,67.1306171 83.1953517,67.0179939 83.3830481,67.0013968 C83.5241532,66.9847997 83.6359723,67.1199476 83.707856,67.2029331 C83.9674361,67.5123505 84.2336721,67.835994 84.3308483,68.2129853 C84.3686401,68.1999225 84.4087858,68.1930933 84.4493233,68.1928317 C84.6178421,68.1915109 84.7764319,68.263678 84.8739697,68.3860694 C84.9799827,68.5389975 85.0210623,68.720657 84.9897824,68.8982086 L84.9897824,68.8982086 Z" id="Path" fill="#514E7F"></path>
                        <path d="M84.9893024,67.8992937 C84.9303097,68.4182176 84.6313236,68.8649049 84.3028411,69.2437783 C83.9743587,69.6226517 83.6029724,69.9631955 83.3415271,70.3995633 C83.0197484,70.9406004 82.874948,71.6113685 82.4566356,72.0683753 C82.2960614,72.2345679 82.1156347,72.3759194 81.9203377,72.4885268 C81.7015583,72.6304571 81.4702039,72.7475239 81.2298541,72.8379159 C80.6050671,73.057574 79.9320132,73.0074507 79.2790705,72.9543789 C79.0670835,72.9521383 78.8572196,72.9076853 78.6596464,72.8231737 C78.5697039,72.7729333 78.4836141,72.7147568 78.4022234,72.6492163 C78.2385501,72.5383939 78.1007888,72.3869185 78,72.2069516 C78.12568,72.1405094 78.2628081,72.1043224 78.4022234,72.1008081 C78.6918243,72.1184987 78.903662,72.4192386 79.1811961,72.5121142 C79.5767158,72.6433194 79.9708948,72.3366826 80.3717775,72.2320133 C80.6332227,72.1641993 80.9080754,72.1818899 81.1668391,72.0845917 C81.382482,71.992956 81.5817312,71.8602078 81.7554261,71.6924504 C81.9934982,71.5052905 82.2053505,71.2807918 82.3842354,71.0261049 C82.5327949,70.7714029 82.6563867,70.5001063 82.7529402,70.2167606 C82.9646465,69.6737492 83.2138597,69.1493611 83.4983943,68.6481952 C83.5404799,68.5688466 83.5913714,68.4955569 83.6498984,68.4300113 C83.7129134,68.36662 83.7839729,68.3223935 83.8550324,68.2663733 C84.1231813,68.0437668 84.2344631,67.6766871 84.3283153,67.3169785 C84.3537401,67.2076453 84.3892297,67.1014448 84.4342341,67 C84.6039638,66.9983797 84.763693,67.0881218 84.8619317,67.2403193 C84.9772918,67.4349858 85.0226911,67.6698668 84.9893024,67.8992937 L84.9893024,67.8992937 Z" id="Path" fill="#464353"></path>
                        <path d="M57.4579419,27.9416667 C57.7501731,28.1637108 57.9906657,28.4482089 58.1623774,28.775 C58.3267456,29.1011905 59.2742113,31.6321429 59.2190305,32 C59.5278081,31.6845238 60.7453073,31.6333333 61.057607,31.3178571 C61.1879276,31.1857143 61.8911889,30.5261905 61.9968543,30.372619 C62.1025196,30.2190476 62.886791,29.8964286 62.9724973,29.7345238 C63.2930155,29.152381 60.699519,26.9464286 61.0317777,26.3714286 C61.0501604,26.3450091 61.059632,26.3132739 61.0587811,26.2809524 C61.0512154,26.2538127 61.0361407,26.2294386 61.0153409,26.2107143 C60.8028362,25.9904762 60.521062,25.8535714 60.2651171,25.6904762 C60.0091723,25.527381 59.7626199,25.3 59.6933504,25 C59.4492748,25.1139236 59.225206,25.2675363 59.030007,25.4547619 C58.5541217,25.868254 58.0864549,26.2900794 57.6270064,26.7202381 C57.4473754,26.8892857 57.0998539,27.1142857 57.0164957,27.3559524 C56.9178748,27.6154762 57.2865293,27.8 57.4579419,27.9416667 Z" id="Path" fill="#A1616A"></path>
                        <path d="M60.8560869,27 C60.3865009,27.2957625 59.9476558,27.6322905 59.5453565,28.0051326 C59.1657158,28.3570589 58.8054728,28.7648259 58.7140264,29.2570033 C58.675231,29.4504978 58.6807732,29.6465896 58.6489056,29.8426813 C58.5103506,30.6932781 57.7261292,31.3166162 57.3797417,32.1126708 C57.279405,32.3583654 57.2056018,32.6128691 57.1594393,32.8723641 C57.0621106,33.3642753 57.0088124,33.8629496 57,34.363181 C56.9917877,34.8475666 57.498899,35.1813122 57.6845627,35.6332323 C57.8702265,36.0851524 57.9201063,36.5500587 58.0143237,37.0136664 C58.1916741,37.888937 58.5172783,38.7330406 58.8456537,39.5719498 C59.5287299,41.3406716 61.7428389,46.2299796 62.4259151,48 C64.5194813,47.5078226 70.0921637,46.3767238 71.9460297,45.3391256 C72.563985,44.9936924 67.6577522,41.0965308 68.3186596,40.8277163 C68.3952556,40.8165432 68.4617898,40.7722672 68.4982972,40.7081743 C68.5348046,40.6440815 68.5370365,40.5676305 68.5043233,40.5017624 C67.8434159,37.792839 65.7761752,35.5670027 64.8381578,32.9295034 C64.5125535,32.0139756 63.9278514,31.2322058 63.4844754,30.3621297 C63.0826658,29.5738668 62.8679056,28.7024921 62.3871197,27.9531878 C62.2964647,27.7988121 62.1778485,27.6603936 62.0365755,27.5441222 C61.9166645,27.4579447 61.7870338,27.3843493 61.6500071,27.3246552 C61.3756681,27.1999876 61.1207269,27.1259662 60.8560869,27 Z" id="Path" fill="#514E7F"></path>
                        <circle id="Oval" fill="#A1616A" cx="57" cy="25" r="3"></circle>
                        <path d="M60,27.2712945 C60.3056792,26.9839332 60.7534646,26.9182205 61.1262669,27.1060141 C61.3289696,27.2131881 61.5063345,27.4301185 61.4607264,27.6573789 L62.9467905,27.6806215 C63.1833192,27.6740261 63.4197779,27.6961328 63.6511824,27.7464754 C63.8840729,27.7981552 64.0919699,27.931046 64.2390203,28.1222298 C64.2567568,28.1467636 64.277027,28.1764624 64.3074324,28.1803362 C64.3321639,28.1807281 64.3562901,28.1725313 64.3758446,28.1570936 C64.60445,28.0402361 64.8619817,27.9952903 65.1157095,28.0279684 C65.9189189,28.0809097 66.6613176,28.4902368 67.2909628,29.0015727 C67.4045064,29.0811282 67.4926146,29.1929322 67.5443412,29.3230946 C67.5962838,29.4948312 67.5342061,29.7104703 67.6710304,29.8331393 C67.6710304,31.253517 68.1499155,32.5809246 68.4691723,33.9651472 C68.5261824,34.2117764 68.7580236,34.4299981 68.9189189,34.6236859 C69.117708,34.8384117 69.2799832,35.0854139 69.3990709,35.3545348 C69.6701858,36.0724712 69.2964527,36.9169503 69.5599662,37.6374692 C69.6714527,37.9422048 69.8868243,38.1927077 70.066723,38.4574145 C70.303869,38.7630695 70.453783,39.1294239 70.5,39.5162415 C70.511402,39.6892693 70.4898649,39.8635884 70.5,40.0327425 C70.5169954,40.2653964 70.5594897,40.4953801 70.6266892,40.7183975 C70.7347973,41.1350417 70.847973,41.5512554 70.9662162,41.9670387 C71.1587838,42.6384899 71.4096284,43.3628826 72,43.7205595 C70.5747466,43.9671887 69.0722128,44.2086529 67.7141047,43.7037732 C67.5246697,43.6379103 67.3448336,43.5462633 67.1794764,43.431319 C66.6891892,43.0749333 66.4522804,42.4654621 66.2407095,41.8895635 C66.0050676,41.2439373 65.765625,40.5866898 65.7174831,39.8997435 C65.7179489,39.6812577 65.6876572,39.4638339 65.6275338,39.2541173 C65.4894426,38.879654 65.120777,38.6536849 64.7863176,38.4457932 C64.4086269,38.2348617 64.0664675,37.9637174 63.7728041,37.6426342 C63.4782682,37.3157561 63.3296747,36.8791664 63.3623311,36.4366044 C63.3876689,36.2235477 63.4700169,36.0182386 63.4776182,35.8038907 C63.4852196,35.5895428 63.3914696,35.3442048 63.1900338,35.2873897 C62.1524493,34.9671591 61.6570946,33.7146442 61.4265203,32.6351572 C61.3270241,32.0772319 61.2824616,31.5105714 61.2934966,30.9436164 L61.2795608,29.8421781 C60.990196,29.5738558 60.8216425,29.196188 60.8133446,28.7975549 C60.8271047,28.6824678 60.8249725,28.5659831 60.8070101,28.4514992 C60.75689,28.3115632 60.6753214,28.1855309 60.5688345,28.0834923 C60.3397483,27.8438645 60.147924,27.5699724 60,27.2712945 Z" id="Path" fill="#464353"></path>
                        <path d="M57.2362188,29.9604782 C57.1974882,30.3211913 57.2835563,30.6914689 57.1989227,31.0453503 C57.1659299,31.1819841 57.1085512,31.3186179 57.0669516,31.4456873 C56.9397744,31.9550363 56.9948035,32.490251 57.2233086,32.9664212 C57.4515067,33.4379112 57.7247271,33.8884211 58.0395207,34.3122638 C58.1459927,34.456951 58.2336566,34.6133994 58.3005938,34.778185 C58.3548512,34.9512137 58.3885333,35.1294998 58.4010065,35.3096904 C58.4840799,36.0332417 58.6172979,36.7507683 58.7997885,37.4575733 C58.9604489,38.0696926 60.7850917,43.3027661 61.2096941,43.787816 C61.2867322,43.8952093 61.4035717,43.9708671 61.5367527,43.9995983 C61.6327866,44.003043 61.7282684,43.9842911 61.8150394,43.9449448 L62.67572,43.6306871 C62.7489106,43.6093595 62.8167596,43.5740242 62.875111,43.5268454 C62.9557693,43.4370796 62.9995899,43.322539 62.9984752,43.2043897 C63.0601573,42.5376169 61.2312111,37.2676523 60.9988274,36.6377706 C60.2959382,34.7358285 59.3606654,32.9022033 58.9030702,30.9333106 C58.7754026,30.3867756 58.7079826,29.5451115 58.2876836,29.1092498 C58.114113,28.9288932 58.1729262,29.0054081 57.9649284,29.0996854 C57.8598216,29.1431274 57.7581827,29.1938165 57.6608212,29.2513489 C57.4142402,29.4146246 57.2582165,29.6751999 57.2362188,29.9604782 L57.2362188,29.9604782 Z" id="Path" fill="#464353"></path>
                        <g id="Group"></g>
                        <path d="M58.2376712,32.9283564 C58.5074719,33.9530403 58.7856514,34.9753161 59.0621552,36 L62.9968876,35.2594822 C63.0287274,34.9632751 62.8092002,34.6887417 62.6617315,34.4166165 C62.3031145,33.7700181 62.2947356,33.0499699 62.0048256,32.3853101 C61.7852983,31.8795906 61.4032204,31.4148104 61.1970994,30.9054786 C61.078119,30.6092715 61.0177909,30.3034317 60.9004863,30.0036123 C60.7746758,29.7091803 60.6201205,29.4214908 60.4379709,29.1426851 C60.2171028,28.7383382 59.9290129,28.3546597 59.5799713,28 C59.0772372,28.1348585 58.5409875,28.2913907 58.254429,28.6177002 C58.1074505,28.8015615 58.0235784,29.0079464 58.0097651,29.2197471 C57.9410581,29.8543046 58.2611322,30.4924744 58.155558,31.1234196 C58.0468236,31.7242942 58.0745553,32.3338669 58.2376712,32.9283564 Z" id="Path" fill="#00839B"></path>
                        <path d="M62.6682008,47.5700789 C62.836976,48.2172279 62.5927634,48.8980287 62.3933019,49.5387063 C62.0929982,50.5037297 61.8882667,51.4965984 61.7821311,52.5026489 C61.769114,52.7586766 61.7182573,53.0112828 61.6312563,53.2520475 C61.53664,53.4681953 61.3755364,53.6506913 61.2655768,53.8564847 C60.9638272,54.3975013 60.9714988,55.0575933 61.0367074,55.6762678 C61.0801798,56.0839717 61.1453884,56.4903813 61.2259402,56.8916137 C61.3243924,57.3821527 61.4458594,57.8946947 61.3039348,58.373585 C61.5417544,58.3205188 61.7028579,58.6324446 61.6875147,58.8770669 C61.6721715,59.1216893 61.5941769,59.3947862 61.7105295,59.6057568 C62.0046075,59.7144778 62.0071647,60.123476 61.9982145,60.440579 C62.003091,60.9904176 62.0717534,61.5377732 62.2027905,62.0713946 C62.6477432,64.2371867 63.1199728,66.3969388 63.6194791,68.5506508 C64.699896,68.8897569 65.961874,69.2431003 66.9924255,68.7732701 C67.1842155,68.6865521 67.3760055,68.5480622 67.4194779,68.3383859 C67.4307108,68.2253792 67.4167283,68.1112616 67.3785627,68.004457 L66.8901375,66.2053827 C66.7712277,65.7704985 66.652318,65.3213771 66.7149694,64.8748443 C66.7622775,64.5422097 66.9054807,64.1836891 66.7443772,63.8898834 C66.6893974,63.7889282 66.6024526,63.709976 66.5385226,63.6141979 C66.2828026,63.2349686 66.4170556,62.7276037 66.4375132,62.2681279 C66.4454899,62.164986 66.4385985,62.061218 66.4170556,61.960085 C66.3820269,61.8419716 66.3330885,61.7285528 66.2712952,61.6222732 C65.8676418,60.8289993 65.6738214,59.9434237 65.7087113,59.0517972 C65.7239863,58.9380156 65.7085215,58.8221703 65.6639603,58.716574 C65.6329392,58.6729886 65.6051597,58.6271305 65.5808513,58.5793784 C65.561789,58.4962804 65.5712593,58.4090879 65.6077019,58.3321675 C65.4611646,58.2196155 65.328897,58.0892017 65.2138931,57.943878 C65.3575866,57.8534602 65.452285,57.7012356 65.4707501,57.5309889 C65.4892152,57.3607422 65.4294,57.1913449 65.3085095,57.0715211 C65.4148438,57.0498459 65.5000952,56.9694703 65.5290008,56.8636404 C65.5579063,56.7578105 65.5255516,56.6445192 65.4453197,56.5706278 C65.3826683,56.5266216 65.2995593,56.5072072 65.2548083,56.441198 C65.1857639,56.3454199 65.2420223,56.2121072 65.2982807,56.1098576 L65.5961945,55.5649581 C65.8186709,55.1598428 65.8685363,54.6589495 66.1076344,54.2706601 C66.4502992,53.7050518 66.6740542,53.0747286 66.8952519,52.450877 L67.7557496,50.0473654 L68.3349554,50.5560246 C68.5278758,50.7052217 68.6895582,50.8917674 68.8105945,51.1048069 C68.8929501,51.3153611 68.9450507,51.5367828 68.9653051,51.7623104 C69.1775527,53.0669628 69.988185,54.1981794 70.2886559,55.4834174 C70.3551431,55.7694572 70.3998941,56.0697344 70.5622763,56.3143567 C70.6203845,56.38946 70.672543,56.4690912 70.7182655,56.5525076 C70.7605875,56.6797506 70.7825999,56.8130098 70.7834741,56.9472685 C70.837735,57.4792016 71.1177076,57.9609986 71.550634,58.2674525 C71.8357618,58.4654802 72.1899339,58.6013815 72.3446445,58.9146016 C72.3755874,59.0115959 72.4185497,59.1042291 72.4725045,59.1902871 C72.6105933,59.3585458 72.908507,59.3779603 72.9673226,59.5889309 C73.0005662,59.706712 72.9391934,59.8477905 73.004402,59.9513344 C73.0414579,59.9992544 73.0904415,60.0363315 73.1463266,60.0587611 L73.9786951,60.479408 C74.9095158,60.9505325 75.3851549,62.0325657 76.0717631,62.8207932 C76.3088752,63.0775207 76.5188521,63.3586138 76.698277,63.6594984 C76.9949122,64.1966321 77.1317223,64.8709614 77.6329335,65.2126561 C77.767667,65.2833737 77.8902762,65.3755856 77.9960558,65.485753 C78.1533236,65.6954293 78.0957866,65.9892349 78.1098512,66.2532717 C78.1239158,66.5173085 78.3233774,66.831823 78.5714258,66.7515765 C78.4845051,67.0713663 78.4845051,67.4089818 78.5714258,67.7287715 C79.6604044,67.6721466 80.6989108,67.2463557 81.519877,66.5198971 C81.762811,66.3050437 81.9967948,66.0306525 81.999352,65.7044893 C82.0030823,65.6481937 81.9906492,65.5920073 81.9635512,65.5427021 C81.9143934,65.4789943 81.8495847,65.4294563 81.775597,65.399035 C80.9969297,64.9719166 80.7629459,63.9817786 80.3691372,63.1780195 C80.0251938,62.4687441 79.5163111,61.8578354 79.0905373,61.1990377 C78.164831,59.7817813 77.5332027,58.0668363 76.1331359,57.1310588 C75.8249933,56.9252654 75.4669853,56.7427694 75.3122748,56.402369 C75.2266086,56.2121072 75.2163798,55.9946651 75.148614,55.7979318 C75.0808482,55.6011985 74.918466,55.4096424 74.7113328,55.4096424 C74.8264068,55.1248968 74.803392,54.7780249 74.8110636,54.469982 C74.8189239,54.3332667 74.8033509,54.1962057 74.765034,54.0648667 C74.7118448,53.9235731 74.6427724,53.7889436 74.5591794,53.6636343 C74.1938887,53.0375624 74.0112454,52.3195596 74.0323963,51.5927573 C74.0426251,51.2187052 74.1078337,50.8330044 73.9965955,50.4757781 C73.9403371,50.2958706 73.8418849,50.1314948 73.7741191,49.9580588 C73.6720051,49.6437997 73.6181036,49.315547 73.6142942,48.9847467 L73.5375782,47.7409262 C73.525994,47.3266882 73.4728725,46.9147126 73.3790318,46.511343 C73.1233118,45.5457967 72.8675918,41.5011152 71.9917509,41.0455222 C71.11591,40.5899293 69.610998,43.7027162 68.6251975,43.7635482 C68.18909,43.7819229 67.7581378,43.8661179 67.3465977,44.0133477 C66.690676,44.261853 66.140878,44.7252117 65.6051447,45.178216 L63.7920901,46.719725 C63.4085101,47.0394167 63.0914174,47.344871 62.6682008,47.5700789 Z" id="Path" fill="#464353"></path>
                        <path d="M52.7894923,21.9185257 C53.199011,21.3366613 53.9025431,21.0279727 54.5955747,21.002021 C55.2886063,20.9760693 55.9711374,21.2028052 56.5919782,21.5237867 C56.7752293,21.6322278 56.9710848,21.7157722 57.1747548,21.7723767 C57.5028948,21.8420365 57.8677864,21.7491567 58.1644249,21.9089645 C58.5581929,22.1261393 58.6343214,22.6793202 58.6001948,23.1382555 C58.5660682,23.5971908 58.483377,24.1066637 58.7183252,24.5041344 C58.801671,24.6174893 58.8775359,24.7365939 58.945398,24.8606288 C59.0464651,25.0969258 58.9874,25.3701016 58.9270222,25.6200575 C58.7734527,25.4834696 58.6868237,25.2772219 58.5503175,25.1187799 C58.4138113,24.960338 58.176238,24.8537994 58.0069177,24.9726309 C57.8375975,25.0914623 57.8402226,25.3072712 57.8310347,25.501226 C57.8218468,25.6951808 57.7745947,25.9273802 57.5987116,25.9902106 C57.4483977,26.0258014 57.2924136,25.9624964 57.2049437,25.8304028 C56.9043675,25.4479567 57.025123,24.8374089 56.7271719,24.452231 C56.5578517,24.2336904 56.2756513,24.1271518 56.1194567,23.8976842 C55.9960761,23.7173882 55.9645746,23.4879205 55.8569447,23.2939657 C55.7493148,23.1000109 55.4986159,22.9579595 55.3319208,23.0918157 C55.2750308,23.148376 55.2275695,23.2143822 55.1914769,23.2871363 C54.9774769,23.6060898 54.5810316,23.7304199 54.2333082,23.5876297 C54.1042428,23.5051741 53.9645975,23.4421724 53.8185393,23.4005043 C53.6235156,23.3903431 53.4398475,23.4962318 53.3447052,23.6736801 C53.2505022,23.8474729 53.2050281,24.0452761 53.2134492,24.2446174 C53.2134492,24.5177932 53.2607013,24.8087254 53.1110695,25.027266 C53.0541669,25.1095356 52.9829303,25.1799594 52.9010599,25.2348796 C52.6818624,25.3810286 52.376036,25.4793719 52.1739018,25.3127347 C52.0345649,25.1776949 51.9728907,24.9768748 52.0111444,24.7827737 C52.0504994,24.5926623 52.1022464,24.4055596 52.1660264,24.2227634 C52.2815317,23.7993409 52.1305873,23.3226492 52.256593,22.9238126 C52.3885744,22.5646252 52.567926,22.2262877 52.7894923,21.9185257 L52.7894923,21.9185257 Z" id="Path" fill="#464353"></path>
                        <path d="M56.009911,29.9891321 C55.990042,30.0744574 56.000199,30.1631223 56.0390135,30.2431821 C56.0783264,30.2977047 56.1318591,30.3430746 56.1951087,30.3754755 C56.639959,30.620738 57.145913,30.7658438 57.6687532,30.7981117 C57.7398952,30.7991972 57.8097243,30.8152492 57.8724707,30.8449412 C57.9968177,30.9175269 58.0047548,31.0790886 57.9584553,31.2078697 C57.8967255,31.3293515 57.8647181,31.4610123 57.8645337,31.5942131 C57.902896,31.8388972 58.2309605,31.9454343 58.5074342,31.9817272 C58.8950265,32.0250444 59.3196584,32.0028004 59.6265574,31.7885555 C59.8344521,31.6207452 59.992928,31.4105653 60.0882288,31.1762598 C60.8475394,29.6320572 61.1134303,27.9251221 61.8820008,26.3856025 C61.9402432,26.2850798 61.9791389,26.1766659 61.9970879,26.0648204 C62.013622,25.9508036 61.9589146,25.8378306 61.8542211,25.7697946 C61.7113543,25.6913552 61.4891171,25.7358432 61.3925497,25.6129158 C61.3449275,25.5508667 61.3502188,25.4665736 61.3078879,25.4010123 C61.2192576,25.2616946 60.9864376,25.2839386 60.8276968,25.2031577 C60.7033497,25.1446208 60.6173651,25.0240349 60.4784668,25.0006201 C60.3402114,24.9937067 60.2063694,25.044906 60.1173313,25.1387671 C59.6662426,25.5110616 59.4294542,26.0390642 59.1781144,26.5377983 C58.7943273,27.3022805 58.345014,28.0396554 57.8341083,28.7434675 C57.8936361,28.6615159 57.5483747,28.0410251 57.413445,28.0140982 C57.1766565,27.9719516 56.873726,28.3395632 56.7454104,28.4765394 C56.3427465,28.9086006 56.0876087,29.4333046 56.009911,29.9891321 L56.009911,29.9891321 Z" id="Path" fill="#00839B"></path>
                        <path d="M59,26 C58.8695069,26.0032095 58.747079,26.0937353 58.6672646,26.2460317 C58.5713004,26.4298942 58.5524664,26.6732804 58.5282511,26.9074074 C58.4466167,27.6491642 58.2671465,28.3601103 58,29" id="Path" fill="#000000" opacity="0.1"></path>
                        <path d="M61,26 C60.8152683,26.0073901 60.6464239,26.1893422 60.5558608,26.4786184 C60.4952398,26.7373202 60.4575429,27.0114729 60.4441392,27.2911184 C60.365624,27.9111048 60.214191,28.4937626 60,29" id="Path" fill="#000000" opacity="0.1"></path>
                        <path d="M92,50.7212829 L92,49.2058567 C92,46.8828288 90.0127606,45 87.5624989,45 L24.4375011,45 C21.9872394,45 20,46.8828288 20,49.2058567 L20,52 L92,50.7212829 Z" id="Path" fill="#33323D"></path>
                        <path d="M43.0042556,43.8807715 C43.0042556,43.8807715 42.8244574,55.0898663 44.8022375,58.7780534 C46.7800177,62.4662405 47.6276378,78.5107576 47.6276378,78.5107576 C47.6276378,78.5107576 68.3609383,80.6658564 82.8090077,75.9298009 C97.257077,71.1937455 128,69.2567375 128,69.2567375 L122.819243,34.1699221 C122.819243,34.1699221 97.2249702,32.5206908 82.6651691,39.4983071 C68.105368,46.4759235 43.0042556,43.8807715 43.0042556,43.8807715 Z" id="Path" fill="#8DD070"></path>
                        <path d="M43.0042556,43.8807715 C43.0042556,43.8807715 42.8244574,55.0898663 44.8022375,58.7780534 C46.7800177,62.4662405 47.6276378,78.5107576 47.6276378,78.5107576 C47.6276378,78.5107576 68.3609383,80.6658564 82.8090077,75.9298009 C97.257077,71.1937455 128,69.2567375 128,69.2567375 L122.819243,34.1699221 C122.819243,34.1699221 97.2249702,32.5206908 82.6651691,39.4983071 C68.105368,46.4759235 43.0042556,43.8807715 43.0042556,43.8807715 Z" id="Path" fill="#000000" opacity="0.1"></path>
                        <path d="M47.1277621,48.2340023 C47.1277621,48.2340023 46.4784022,57.2704838 48.1075883,60.1578206 C49.7367744,63.0451573 49.8126402,75.9347835 49.8126402,75.9347835 C49.8126402,75.9347835 68.4949171,76.7845935 81.7842922,72.3489382 C95.0736673,67.9132828 123,65.0360328 123,65.0360328 L119.826495,37.0011274 C119.826495,37.0011274 96.7195696,36.767871 83.2334577,43.0115791 C69.7473458,49.2552873 47.1277621,48.2340023 47.1277621,48.2340023 Z" id="Path" fill="#8DD070"></path>
                        <ellipse id="Oval" fill="#000000" opacity="0.1" transform="translate(80.892338, 56.385028) rotate(-7.100000) translate(-80.892338, -56.385028) " cx="80.8923376" cy="56.3850278" rx="4.85162545" ry="10.3416093"></ellipse>
                        <path d="M108.293283,17 C108.293283,17 83.3283591,23.2856466 71.5557359,34.3496675 C59.7831126,45.4136883 35,50.6525823 35,50.6525823 C35,50.6525823 38.2648721,61.3112431 41.2847498,64.1949439 C44.3046275,67.0786446 50.0323375,82 50.0323375,82 C50.0323375,82 70.504839,77.6821456 82.857712,68.7693553 C95.210585,59.8565649 124,48.6001263 124,48.6001263 L108.293283,17 Z" id="Path" fill="#000000" opacity="0.2"></path>
                        <path d="M34,48.6519637 C34,48.6519637 37.2636299,59.3121176 40.2809725,62.1958753 C43.298315,65.0796329 49.0286869,80 49.0286869,80 C49.0286869,80 69.504064,75.6833432 81.8584054,66.7703769 C94.2127468,57.8574107 123,46.6045984 123,46.6045984 L107.293056,15 C107.293056,15 82.3290593,21.2857707 70.5562655,32.3500099 C58.7834717,43.4142491 34,48.6519637 34,48.6519637 Z" id="Path" fill="#8DD070"></path>
                        <path d="M34,48.6519637 C34,48.6519637 37.2636299,59.3121176 40.2809725,62.1958753 C43.298315,65.0796329 49.0286869,80 49.0286869,80 C49.0286869,80 69.504064,75.6833432 81.8584054,66.7703769 C94.2127468,57.8574107 123,46.6045984 123,46.6045984 L107.293056,15 C107.293056,15 82.3290593,21.2857707 70.5562655,32.3500099 C58.7834717,43.4142491 34,48.6519637 34,48.6519637 Z" id="Path" fill="#000000" opacity="0.1"></path>
                        <path d="M39,51.4997288 C39,51.4997288 41.2255013,60.2783044 43.6969858,62.5305117 C46.1684703,64.782719 50.2996946,77 50.2996946,77 C50.2996946,77 68.4687956,72.1961299 79.8060351,63.9925592 C91.1432745,55.7889884 117,44.6827125 117,44.6827125 L105.126776,19 C105.126776,19 82.9118975,25.7151008 71.9552848,35.695273 C60.9986722,45.6754453 39,51.4997288 39,51.4997288 Z" id="Path" fill="#8DD070"></path>
                        <ellipse id="Oval" fill="#000000" opacity="0.1" transform="translate(75.423614, 49.190101) rotate(-24.970000) translate(-75.423614, -49.190101) " cx="75.423614" cy="49.1901009" rx="4.84667808" ry="10.3523553"></ellipse>
                        <path d="M94,52.4153219 L94,96.2130805 C94,97.217654 93.5991964,98.1810641 92.8857971,98.8912858 C92.1723978,99.6015074 91.2048672,100 90.1961373,100 L24.8013132,100 C22.7016997,99.9992988 21,98.3040426 21,96.2130805 L21,48 C22.8738868,48.6931471 22.8738868,48.6931471 24.8013132,48.6347501 L90.1961373,48.6347501 C92.2939694,48.6347459 93.9957818,50.3261382 94,52.4153219 Z" id="Path" fill="#000000" opacity="0.1"></path>
                        <path d="M94,52.4164836 L94,96.2131732 C94,98.3047852 92.2964549,100 90.1961373,100 L24.8013132,100 C22.7016997,99.9992991 21,98.3040842 21,96.2131732 L21,48 C22.8738868,48.6918607 22.8738868,48.6918607 24.8013132,48.6347346 L90.1961373,48.6347346 C92.2944661,48.6347317 93.996484,50.326855 94,52.4164836 Z" id="Path" fill="#504F60"></path>
                        <path d="M94,70 L94,85 L80.0804172,85 C76.1546854,84.94476 73,81.6031291 73,77.5 C73,73.3968709 76.1546854,70.05524 80.0804172,70 L94,70 Z" id="Path" fill="#000000" opacity="0.1"></path>
                        <path d="M94,68 L94,83 L80.0804172,83 C76.1546854,82.94477 73,79.6037448 73,75.5013593 C73,71.3989738 76.1546854,68.0579486 80.0804172,68.0027186 L94,68 Z" id="Path" fill="#33323D"></path>
                        <circle id="Oval" fill="#000000" opacity="0.1" cx="81" cy="77" r="3"></circle>
                        <circle id="Oval" fill="#00839B" cx="81" cy="76" r="3"></circle>
                        <path d="M117.449096,68.9333557 C117.563757,70.0867167 116.623534,71.2062659 116.897373,72.3358334 C116.956727,72.5775257 117.06869,72.8054429 117.109159,73.0496399 C117.222471,73.7208684 116.792154,74.3557805 116.380722,74.9168074 L112.846455,79.7306182 C112.704909,79.9422321 112.535425,80.1365917 112.341945,80.3091772 C111.667467,80.8676995 110.653051,80.810094 109.765438,80.9766489 C109.141448,81.0942355 108.552352,81.3360597 108.038773,81.6854462 C107.994169,81.7208173 107.987066,81.7823623 108.022585,81.8257029 C108.320616,82.2024895 108.804141,82.4132541 109.306792,82.3854775 C109.39987,82.4994361 109.306792,82.6659909 109.171897,82.7473899 C108.981694,82.8726191 108.721345,82.9026741 108.683574,83.2007197 C108.670147,83.3047474 108.69283,83.4100386 108.748324,83.5012698 C108.890723,83.703721 109.112225,83.8469432 109.366147,83.900751 C110.58965,84.2476359 111.911628,83.6377696 112.82757,82.8074999 C113.743512,81.9772303 114.400454,80.9290618 115.298859,80.0837646 C115.796624,79.6166597 116.361837,79.2159262 116.87444,78.7625964 C117.89695,77.8584415 118.691485,76.7589291 119.459042,75.6581643 C119.689713,75.3263069 119.921734,74.9856835 120.018859,74.6012298 C120.115984,74.2167761 120.070119,73.8285655 120.179385,73.4566348 C120.322374,72.9682409 120.706827,72.5800303 121.02653,72.1705308 C121.653795,71.3690639 122.071971,70.3885191 121.989685,69.401713 C121.907398,68.4149068 121.247759,67.4393712 120.244135,67.1037569 C119.933109,66.9877906 119.589991,66.9684591 119.266141,67.0486561 C118.854709,67.1663715 118.551194,67.4819492 118.270611,67.7837516 L117.596132,68.5038195 C117.427954,68.661808 117.295015,68.8490548 117.204935,69.054828 C117.116686,69.26585 117.169429,69.5052804 117.339831,69.6671989" id="Path" fill="#A1616A"></path>
                        <path d="M117.449096,68.9333557 C117.563757,70.0867167 116.623534,71.2062659 116.897373,72.3358334 C116.956727,72.5775257 117.06869,72.8054429 117.109159,73.0496399 C117.222471,73.7208684 116.792154,74.3557805 116.380722,74.9168074 L112.846455,79.7306182 C112.704909,79.9422321 112.535425,80.1365917 112.341945,80.3091772 C111.667467,80.8676995 110.653051,80.810094 109.765438,80.9766489 C109.141448,81.0942355 108.552352,81.3360597 108.038773,81.6854462 C107.994169,81.7208173 107.987066,81.7823623 108.022585,81.8257029 C108.320616,82.2024895 108.804141,82.4132541 109.306792,82.3854775 C109.39987,82.4994361 109.306792,82.6659909 109.171897,82.7473899 C108.981694,82.8726191 108.721345,82.9026741 108.683574,83.2007197 C108.670147,83.3047474 108.69283,83.4100386 108.748324,83.5012698 C108.890723,83.703721 109.112225,83.8469432 109.366147,83.900751 C110.58965,84.2476359 111.911628,83.6377696 112.82757,82.8074999 C113.743512,81.9772303 114.400454,80.9290618 115.298859,80.0837646 C115.796624,79.6166597 116.361837,79.2159262 116.87444,78.7625964 C117.89695,77.8584415 118.691485,76.7589291 119.459042,75.6581643 C119.689713,75.3263069 119.921734,74.9856835 120.018859,74.6012298 C120.115984,74.2167761 120.070119,73.8285655 120.179385,73.4566348 C120.322374,72.9682409 120.706827,72.5800303 121.02653,72.1705308 C121.653795,71.3690639 122.071971,70.3885191 121.989685,69.401713 C121.907398,68.4149068 121.247759,67.4393712 120.244135,67.1037569 C119.933109,66.9877906 119.589991,66.9684591 119.266141,67.0486561 C118.854709,67.1663715 118.551194,67.4819492 118.270611,67.7837516 L117.596132,68.5038195 C117.427954,68.661808 117.295015,68.8490548 117.204935,69.054828 C117.116686,69.26585 117.169429,69.5052804 117.339831,69.6671989" id="Path" fill="#A1616A" opacity="0.05"></path>
                        <path d="M119.700306,99.2985494 C119.025098,99.7240334 118.18345,99.7496356 117.398463,99.6508843 C117.272156,99.6350353 117.122241,99.6252821 117.044333,99.7264717 C116.92629,99.87277 117.065581,100.092217 117.209593,100.205598 C117.672603,100.564645 118.216602,100.795844 118.790192,100.877351 C119.302379,100.952348 119.819267,100.987802 120.336559,100.983417 C121.753078,101.00902 123.169596,101.033403 124.563687,100.823708 C124.646272,100.817263 124.726663,100.793185 124.799773,100.752998 C124.889648,100.687817 124.952115,100.589734 124.974477,100.478688 C125.070092,100.10319 124.885945,99.7008695 124.607363,99.439971 C124.328781,99.1790725 123.97111,99.0339935 123.621702,98.893791 L122.394052,98.4000345 C122.106027,98.2842151 121.644478,97.9769888 121.331663,98.0013718 C120.743808,98.0452613 120.187824,99.0035147 119.700306,99.2985494 Z" id="Path" fill="#3F3D56"></path>
                        <path d="M119.700306,99.2985494 C119.025098,99.7240334 118.18345,99.7496356 117.398463,99.6508843 C117.272156,99.6350353 117.122241,99.6252821 117.044333,99.7264717 C116.92629,99.87277 117.065581,100.092217 117.209593,100.205598 C117.672603,100.564645 118.216602,100.795844 118.790192,100.877351 C119.302379,100.952348 119.819267,100.987802 120.336559,100.983417 C121.753078,101.00902 123.169596,101.033403 124.563687,100.823708 C124.646272,100.817263 124.726663,100.793185 124.799773,100.752998 C124.889648,100.687817 124.952115,100.589734 124.974477,100.478688 C125.070092,100.10319 124.885945,99.7008695 124.607363,99.439971 C124.328781,99.1790725 123.97111,99.0339935 123.621702,98.893791 L122.394052,98.4000345 C122.106027,98.2842151 121.644478,97.9769888 121.331663,98.0013718 C120.743808,98.0452613 120.187824,99.0035147 119.700306,99.2985494 Z" id="Path" fill="#000000" opacity="0.05"></path>
                        <path d="M121.056428,81.44614 C120.477416,82.1728717 119.878346,83.0118935 120.021428,83.9114763 C120.098986,84.3959642 120.386486,84.823676 120.597765,85.2715749 C120.883928,85.8797081 121.033696,86.5332619 121.180789,87.1842924 C121.397417,88.1356044 121.615382,89.0894398 121.747766,90.055892 C121.898871,91.1472513 121.188812,94.3052538 121.123289,95.4041832 C121.107242,95.6691374 121.073812,95.9555404 120.878579,96.1460551 C120.802358,96.2217563 120.700731,96.2823173 120.665963,96.3807289 C120.645583,96.4755505 120.662204,96.5741272 120.712765,96.6583 C121.039045,97.3522279 121.706312,97.8695196 122.451138,98.1647543 C123.195964,98.4599891 124.991837,98.9697106 125.803523,98.996206 C125.91052,99.007328 126.018782,98.9939104 126.119105,98.9570938 C126.227087,98.8949553 126.312086,98.8028587 126.362477,98.6934012 C126.944163,97.6436776 126.385209,93.9116075 126.393233,92.7268834 C126.401256,91.7389825 126.64864,90.75739 126.603175,89.7707507 C126.565733,88.9784113 126.335733,88.2037355 126.259512,87.4139194 C126.125791,86.1194286 126.377186,84.8186293 126.629919,83.5392787 C126.822477,82.5576862 127.016372,81.5760937 127.263756,80.6071181 C127.414861,80.0153869 127.590035,79.418609 127.932361,78.9051024 C128.199803,78.4975775 128.575559,78.156922 128.887129,77.7695841 C129.751904,76.6998082 130.136141,75.3520807 129.956897,74.0173269 C129.938176,73.8911582 127.951082,74.4929829 127.775908,74.5648991 C127.061147,74.8504512 126.403531,75.2494504 125.831605,75.7445764 C125.371604,76.1584098 125.009221,76.7110287 124.60672,77.1740678 C124.037069,77.8293039 123.474549,78.4891662 122.919162,79.1536547 C122.285324,79.9131903 121.664413,80.677352 121.056428,81.44614 Z" id="Path" fill="#464353"></path>
                        <path d="M121.056416,81.5114787 C120.477411,82.245209 119.878348,83.0935846 120.021428,84.0005568 C120.098985,84.4909841 120.386482,84.922815 120.597758,85.3750272 C120.883918,85.987743 121.033684,86.6488645 121.180775,87.3048907 C121.397401,88.2666379 121.615363,89.2296589 121.747745,90.2041444 C121.898848,91.3072875 121.188798,94.4944285 121.123276,95.6039408 C121.107229,95.8714466 121.0738,96.1618815 120.878569,96.3542309 C120.802349,96.4293873 120.700722,96.4905315 120.665955,96.5898908 C120.645452,96.6856231 120.66208,96.7851903 120.712757,96.8701351 C121.039032,97.5720194 121.706292,98.0930189 122.45111,98.3987398 C123.195927,98.7044608 124.991779,98.9706928 125.803455,98.9961695 C125.910451,99.0073986 126.018711,98.9938518 126.119033,98.9566806 C126.227207,98.8947341 126.31231,98.8020819 126.362403,98.6917224 C126.944082,97.6318898 126.385135,94.1059081 126.393158,92.908501 C126.401181,91.9098126 126.648562,90.920041 126.603098,89.9226264 C126.565656,89.1226566 126.335659,88.3405205 126.259439,87.5443721 C126.125719,86.2361412 126.377112,84.922815 126.629841,83.6311439 C126.822397,82.6413724 127.016291,81.6503269 127.263672,80.670746 C127.414774,80.0733163 127.589947,79.4707913 127.932269,78.9523395 C128.199707,78.5408901 128.575459,78.196954 128.887025,77.8058859 C129.752054,76.7259312 130.136315,75.3651206 129.956781,74.0174938 C129.93806,73.8901101 127.950989,74.4977305 127.775817,74.5703392 C127.061265,74.8595599 126.40374,75.2627805 125.831537,75.7626509 C125.371542,76.1791957 125.009162,76.7371364 124.606667,77.2046347 C124.037022,77.8661809 123.474509,78.5328224 122.919128,79.2045593 C122.285297,79.9654648 121.664394,80.7344379 121.056416,81.5114787 Z" id="Path" fill="#000000" opacity="0.05"></path>
                        <circle id="Oval" fill="#FBBEBE" cx="114" cy="62" r="3"></circle>
                        <path d="M117.207114,61.5711688 C117.835081,62.4623822 118.843175,63.0882426 120,63.3050911 L119.746353,64.1251894 C119.308362,65.5335388 118.816315,67.0232814 117.593821,68 C117.732426,67.5227398 117.555012,67.0134155 117.252854,66.59905 C116.950695,66.1846845 116.526565,65.8591117 116.11075,65.5372385 L114.174442,64.0450294 C114.118536,64.0045549 114.071541,63.9552152 114.035837,63.8995082 C113.988054,63.7942943 113.988054,63.6766828 114.035837,63.5714689 C114.282554,62.8882591 114.986666,62.4615613 115.56049,62.0003331 C115.848435,61.7618286 116.105525,61.4954422 116.326974,61.2061326 C116.713681,60.7153068 116.953467,61.208599 117.207114,61.5711688 Z" id="Path" fill="#A1616A"></path>
                        <path d="M110.698614,60.6365454 L110.635104,60.0191903 C111.077367,60.1545752 111.497691,59.7132205 111.7806,59.2569735 C112.06351,58.8007264 112.325635,58.2632485 112.756351,58.0723558 C113.279446,57.8422015 113.833718,58.2077407 114.333718,58.5164182 C114.893487,58.8805974 115.507824,59.1150179 116.143187,59.2068811 C116.244538,59.210824 116.345044,59.2299326 116.442263,59.2637427 C116.767898,59.3991276 116.922633,59.8783901 116.969977,60.3129755 C117.017321,60.747561 117.004619,61.2092234 117.165127,61.5964242 C117.2806,61.8902093 117.495381,62.108179 117.627021,62.3979026 C117.973441,63.1750118 117.638568,64.2377831 118,65 L117.101617,64.0347058 C117.01963,63.9467056 116.904157,63.8546439 116.812933,63.9291056 C116.741339,63.988675 116.735566,64.1172906 116.706697,64.2201831 C116.620092,64.5207375 116.299076,64.6100916 116.066975,64.4909529 C115.834873,64.3718142 115.665127,64.113229 115.489607,63.8776594 C115.092379,63.3279968 114.618938,62.8446727 114.064665,62.6104569 C113.573198,62.395036 113.026491,62.4374391 112.56351,62.7268879 C112.144342,63.0044269 111.837182,63.6515666 111.323326,63.674582 C110.618938,63.7057206 110.325635,62.1677483 110,61.5598702 C110.24597,61.342904 110.32383,60.9503737 110.184758,60.6284223 C110.232102,60.6054068 110.688222,60.541776 110.698614,60.6365454 Z" id="Path" fill="#464353"></path>
                        <path d="M72.8511957,40.9510138 C72.6403317,41.2378463 72.4453825,41.550925 72.268352,41.8870322 C72.0901491,42.2278074 71.995304,42.6530162 72.000179,43.0893033 C72.0011227,43.21583 72.0275549,43.3388341 72.075873,43.4415505 C72.1264922,43.5423293 72.2133625,43.5828499 72.2921415,43.5424288 C72.335594,43.5085507 72.3727789,43.4585066 72.4002758,43.3968994 C72.5145696,43.1868672 72.6358396,42.9859486 72.763607,42.794937 C72.8101047,42.7238261 72.8717412,42.6494077 72.9344591,42.6758676 C72.9625739,42.6911232 72.9878191,42.716673 73.0079904,42.750286 C73.0807416,42.8464701 73.1337018,42.9728442 73.1604598,43.1141094 C73.1983068,43.3671321 73.1020672,43.6201547 72.9928516,43.8186039 C72.883636,44.017053 72.7549562,44.2072334 72.7106212,44.4569486 C72.693845,44.5228958 72.693845,44.5960655 72.7106212,44.6620127 C72.7315225,44.7097232 72.7607399,44.7475323 72.7949659,44.7711597 C73.1084566,45.0351189 73.4823815,45.0726775 73.8157535,44.8736918 C74.032022,44.7397386 74.224501,44.5098684 74.4472576,44.3907989 C74.5437113,44.3504333 74.6371978,44.2950175 74.7262441,44.2254246 C74.8549509,44.0944234 74.9441007,43.8902103 74.9738716,43.6581908 C75.0019796,43.4286561 75.007447,43.193977 74.9900917,42.9619651 C74.9631237,42.0635812 74.8373694,41.1785679 74.6181098,40.3440902 C74.6054126,40.2902683 74.5838027,40.2424045 74.5553919,40.2051758 C74.5228625,40.1748488 74.4853471,40.1593579 74.4472576,40.1605247 C74.1704339,40.1158737 73.7162699,39.8992333 73.4491783,40.0563389 C73.3557601,40.1346687 73.275164,40.2443579 73.2134456,40.377165 C73.1637038,40.4615059 72.8511957,40.840213 72.8511957,40.9510138 Z" id="Path" fill="#A1616A"></path>
                        <path d="M71.5169674,42.5166303 C71.5169674,42.1637325 71.1395572,41.3118602 71.7396395,41.2554544 C71.7396395,40.8779694 71.2754249,40.6436683 71.3622292,40.2430425 C71.389906,40.1099826 71.4880326,40.0015099 71.4993549,39.8655574 C71.537096,39.4793946 70.9307235,39.2696807 71.0313663,38.8994272 C71.0691073,38.754797 71.2024589,38.6709114 71.2313937,38.5277274 C71.2993275,38.1936315 70.7797594,38.0446623 70.7696952,37.7018886 C70.7696952,37.5861844 70.8263067,37.4777117 70.8212746,37.3620074 C70.8212746,37.2173772 70.7118256,37.1074582 70.65144,36.9816298 C70.4941857,36.6591043 70.5709258,36.1601299 70.284094,35.9938051 C70.4740571,36.012607 70.5357008,35.6886352 70.4577027,35.4904917 C70.3797046,35.2923482 70.2199343,35.1202382 70.2186762,34.9004002 C70.2280986,34.820738 70.2280986,34.7399761 70.2186762,34.660314 C70.1658388,34.4491538 69.8651686,34.4317981 69.8148473,34.2264231 C69.8083335,34.1475951 69.8062324,34.0683673 69.8085571,33.9892295 C69.7884286,33.8257973 69.6424966,33.7216635 69.5053709,33.6753818 C69.3629272,33.6475714 69.2258246,33.5912784 69.1002839,33.509057 C69.0122215,33.4324029 68.9103207,33.3051283 68.8159682,33.3644267 C68.7807432,33.3890139 68.7631308,33.4352955 68.736712,33.4700068 C68.623489,33.6218686 68.4071071,33.5553387 68.2649492,33.4439734 C67.8447659,33.1156626 67.6359322,32.5270174 67.5466118,31.9528353 C67.4572913,31.3786531 67.4598074,30.785669 67.3478424,30.217272 C67.3136938,30.0401281 67.2682826,29.8661043 67.2119747,29.696603 C67.1641694,29.5519727 67.0106892,29.3249032 67.000625,29.1788266 C66.9779804,28.846177 67.5768046,29.0732465 67.8045088,29.1065115 C68.0255798,29.131333 68.2441621,29.1797518 68.4574285,29.2511418 C68.685057,29.3500096 68.9080334,29.4624927 69.1254446,29.5881303 C70.0337452,30.0495009 71.130751,30.1059067 71.8604107,30.8811249 C72.1006953,31.1356742 72.3032387,31.4697702 72.6152312,31.5854744 C72.7583212,31.6170096 72.8995094,31.6590383 73.0379307,31.7113027 C73.38389,31.8978758 73.4379855,32.4257762 73.6266906,32.8076002 C73.6860151,32.9084329 73.7377807,33.0148779 73.7814288,33.1257868 C73.817804,33.2565845 73.8348144,33.3934765 73.8317502,33.5307515 L73.8581689,34.5330393 C73.9009421,36.2121968 73.9437152,37.8956931 73.787719,39.5647265 C73.7373976,40.1157678 73.6619156,40.6827185 73.8040734,41.2120653 C73.8418145,41.3566956 73.8946519,41.492648 73.9298768,41.6387246 C73.9609903,41.8099931 73.9770064,41.9844314 73.9776821,42.1593936 L73.9978107,42.8087835 C74.0048009,42.8592818 73.9949134,42.9109507 73.9701339,42.9534138 C73.9275368,42.9931763 73.8715592,43.0086002 73.8179118,42.9953565 C73.0316405,42.9143636 72.2365629,42.405265 71.4943228,42.7133275" id="Path" fill="#464353"></path>
                        <ellipse id="Oval" fill="#504F60" cx="108.5" cy="82.5" rx="9.5" ry="1.5"></ellipse>
                        <path d="M116.993752,83.6849773 C116.829898,82.9668614 116.727805,82.336415 116.727805,82.336415 C116.727805,82.336415 116.765617,81.5551256 116.422785,80.9685139 L116.422785,80.7725469 L116.422785,80.7725469 L116.422785,79.3285797 C116.520382,79.0663781 116.639715,78.8131917 116.779482,78.5717862 C117.031564,78.1179679 116.779482,76.4548271 116.779482,76.4548271 C116.779482,76.4548271 115.837954,74.1096696 116.066089,72.6218676 C116.294223,71.1340656 114.132618,66.0157175 114.132618,66.0157175 C114.145934,65.5220922 114.214013,65.0316106 114.335544,64.5537007 C114.358624,64.453225 114.367956,64.3499584 114.363273,64.2468576 C114.363273,64.2339651 114.363273,64.2223618 114.363273,64.2094692 C114.363273,64.1965766 114.363273,64.2172047 114.363273,64.2210725 C114.330502,63.2399483 113.571734,61.4014686 113.571734,61.4014686 L113.673828,57.8972696 C113.673828,57.8972696 114.157826,55.8344592 113.368808,53.0561116 C113.092778,52.08788 112.91632,51.3130368 112.804144,50.7148218 C112.79154,50.6477805 112.778936,50.5858962 112.768852,50.5201441 C114.393523,50.2622928 115.635028,50.0560118 115.635028,50.0560118 C115.635028,50.0560118 114.69224,46.0219283 114.055732,45.3154158 C113.419225,44.6089032 112.910018,42.3900929 112.910018,42.3900929 C112.910018,42.3900929 112.57853,39.5421253 113.114205,38.7092657 C113.64988,37.876406 113.725505,36.4401743 113.725505,36.4401743 C113.725505,36.4401743 114.946843,35.5376948 115.100614,35.1290005 C115.254384,34.7203062 115.507727,33.8178267 115.507727,33.3395125 C115.507727,32.8611984 115.355217,32.437033 115.405633,32.1791817 C115.45605,31.9213304 115.048937,30.9685699 115.253123,30.5147516 C115.305947,30.3753466 115.333289,30.2272029 115.33379,30.0776937 C115.334269,30.0734101 115.334269,30.0690847 115.33379,30.0648011 C115.33379,30.0648011 115.33379,30.0648011 115.33379,30.0648011 C115.335672,29.6676689 115.299792,29.2712907 115.226655,28.8812637 C114.873354,28.5761065 114.461022,28.3507244 114.01666,28.2198751 L113.990191,28.1115776 L113.920868,27.8279411 C113.882199,27.8017799 113.842232,27.7776817 113.801129,27.7557428 L113.801129,27.6526023 L113.789786,27.2426187 L113.981368,26.3220896 C114.359492,24.7208331 112.268469,24.4823206 112.268469,24.4823206 C112.141668,24.2367019 111.930736,24.0475682 111.676075,23.951147 C111.256358,23.800304 111.606753,26.359478 111.802117,26.5296599 C111.949585,26.6585855 112.405854,27.455346 112.626426,27.8498585 L112.626426,27.8498585 L112.661717,27.9143213 C112.627183,27.9460696 112.595153,27.9805569 112.565926,28.0174618 L112.645332,28.5731314 L112.657936,28.6582223 C112.51935,28.8342542 112.406811,29.0301661 112.323927,29.239677 C112.323927,29.239677 112.70205,29.6677101 112.630207,30.1421565 C112.558364,30.6166029 112.747425,31.2186856 112.756248,31.250917 C112.733561,31.2238427 112.465093,30.9273137 112.196625,30.999512 C111.928158,31.0717104 111.178213,31.3024873 111.178213,31.3024873 C111.178213,31.3024873 110.61859,31.4030493 110.674048,31.5293964 C110.729506,31.6557436 110.295925,32.2101239 110.295925,32.2101239 L108.790993,30.7506855 C108.775869,30.7068508 108.759483,30.6630161 108.746879,30.6217599 C108.68546,30.411335 108.643265,30.1955335 108.620838,29.9771317 C108.784848,29.9372616 108.945774,29.8851213 109.102315,29.8211316 C109.260447,29.7655975 109.403134,29.6718339 109.518251,29.5478093 C109.670761,29.3634456 109.69975,29.1133298 109.76151,28.8838422 C109.879989,28.4351809 110.139634,28.0368007 110.319873,27.6100568 C110.62511,26.8889558 110.723471,26.0939045 110.603465,25.3177588 C110.580363,25.0785759 110.501244,24.8486115 110.37281,24.6473455 C110.12703,24.3018247 109.680844,24.1612958 109.356918,23.8853949 C109.032992,23.609494 108.823764,23.1879071 108.445641,22.9829154 C108.104069,22.7959732 107.689394,22.8178905 107.303708,22.8823534 C106.550416,23.0094089 105.82681,23.278719 105.169831,23.6765353 C104.950519,23.805461 104.70852,23.9640395 104.456438,23.916337 C104.239647,23.8763701 104.078315,23.699742 103.94219,23.5295601 C103.943723,23.5225158 103.945831,23.5156155 103.948492,23.508932 C103.94235,23.5026517 103.936859,23.495739 103.932107,23.4883039 C103.77261,23.8503798 103.692589,24.2437986 103.69767,24.6408992 C103.69767,24.7027835 103.69767,24.7698248 103.705233,24.8252628 L103.705233,24.8897257 C103.705233,24.9077753 103.705233,24.9258249 103.705233,24.9425852 L103.705233,24.9425852 C103.705182,24.9700689 103.701364,24.9974095 103.693889,25.0238083 C103.662145,25.1026727 103.613971,25.1735081 103.552723,25.2313786 C103.506457,25.2851318 103.464318,25.3424592 103.426682,25.4028497 C103.426682,25.3822216 103.439286,25.3615935 103.446848,25.3396762 C103.350706,25.4832345 103.296496,25.6518194 103.290557,25.8257259 C103.283514,25.9523203 103.324103,26.076872 103.403994,26.1738251 C103.479422,26.2487786 103.561728,26.3161306 103.649775,26.3749491 C103.619817,26.5451456 103.604633,26.7177187 103.6044,26.8906517 C103.610171,27.9333633 104.14843,28.8971183 105.023623,29.4317762 C105.041269,29.4743216 105.057654,29.5181564 105.07404,29.5607018 C105.266883,30.0764044 105.41183,30.6823549 105.347549,31.2367352 C105.347549,31.2767022 105.336205,31.3179584 105.329903,31.3579253 C105.323601,31.3978923 105.292091,31.4004708 105.275706,31.4223882 L105.275706,31.4223882 C105.275706,31.4223882 102.788914,31.4481733 102.204083,30.9066856 C101.619252,30.3651979 100.72688,32.230752 100.72688,32.230752 C100.72688,32.230752 99.8357694,32.4073801 99.656791,32.230752 C99.4778125,32.0541238 98.4354522,32.2062561 98.4354522,32.2062561 C98.0083884,31.8177712 97.4526689,31.6103123 96.8813647,31.6260907 C96.5352073,31.3570148 96.1532192,31.1399426 95.7469943,30.9814624 L95.7469943,30.9814624 L95.7192653,30.9711484 L95.7192653,30.9711484 C95.5399775,30.9043017 95.3482714,30.8796248 95.1583821,30.89895 C95.1583821,30.89895 93.9357829,29.8675449 93.5790865,29.3105861 C93.22239,28.7536273 91.5246156,26.6972632 91.5170532,26.6882384 L91.5170532,26.5889657 L91.498147,26.2898582 C91.4476857,26.2979538 91.3967131,26.3022628 91.3456372,26.3027508 C91.3368143,26.2730979 91.3242102,26.2382879 91.3116061,26.198321 C91.2137851,25.9065676 91.0932391,25.6233118 90.9511284,25.3512795 C90.9511284,25.3512795 90.9511284,24.9735273 91.0582634,24.8781224 C91.1653984,24.7827174 91.014149,23.3967667 91.014149,23.3967667 C91.014149,23.3967667 89.9125493,20.7628157 88.925647,22.7289318 C88.925647,22.7289318 87.0602379,24.001428 88.6256691,25.4840729 C88.6256691,25.4840729 89.2558749,25.7934945 89.339062,26.0384532 C89.397041,26.1970317 89.6087901,26.6418252 89.7512166,26.9409327 L89.8154976,27.0698583 L89.7978518,27.0853294 L89.8205392,27.3328667 L89.8306225,27.4282716 C89.5356862,27.5997428 89.3352808,27.7699246 89.3844368,27.897561 C89.4712687,28.1159769 89.5309741,28.3446711 89.5621549,28.5782884 C89.5621549,28.5782884 91.7275419,31.3527683 92.0073533,32.537595 C92.0073533,32.537595 97.8140693,36.0675792 99.7235928,36.3189842 L99.3858025,38.0788193 C99.3365873,38.5563555 99.3113459,39.0361593 99.3101778,39.5163402 C99.335386,39.8940924 99.0807829,41.6088034 99.0807829,41.6088034 C99.0807829,41.6088034 98.7492946,44.1305891 98.4694833,44.4838454 C98.1896719,44.8371016 98.2400884,46.3493995 98.2400884,46.3493995 C98.1740309,47.0733725 98.0475283,47.7902357 97.8619649,48.4921437 C97.5821536,49.4500612 97.7850798,50.6361772 97.7850798,50.6361772 C97.7850798,50.6361772 96.8183442,52.9052686 99.1349806,51.3671856 C99.1349806,51.3671856 100.269351,51.2949872 101.5827,51.248574 C101.5827,51.2924087 101.5827,51.3375327 101.5827,51.3774996 C101.5827,51.55026 101.5827,51.7372022 101.573877,51.9331692 C101.556231,53.2327397 101.548669,55.0273847 101.606648,56.3785255 C101.708741,58.773964 102.422134,63.51456 102.422134,63.51456 L102.422134,65.9009737 C102.376074,66.1247981 102.35326,66.3529734 102.354072,66.5817011 C102.338992,67.4213519 102.557554,68.2480904 102.984277,68.9655363 L103.163256,70.5539002 C103.163256,70.5539002 103.581713,71.6007765 103.589275,72.2299336 C103.587659,72.2806412 103.581755,72.3311105 103.571629,72.3807766 C103.555328,72.4608711 103.548556,72.5426884 103.551463,72.6244461 C103.527515,73.3464297 103.952274,75.0740334 103.952274,75.0740334 C103.952274,75.0740334 103.977482,76.8132404 104.232085,76.9150916 C104.450136,77.0014718 103.94093,77.9168439 103.78968,78.1798522 C103.785636,78.1637498 103.782688,78.14738 103.780858,78.1308605 L103.749347,78.1824307 C103.696803,78.32322 103.669891,78.4726568 103.669941,78.6233564 C103.640646,78.8657589 103.750583,79.1037176 103.952274,79.234464 C104.436272,79.5374393 104.695916,79.7888443 104.285022,79.8894063 C104.133871,79.9134087 103.984087,79.9456865 103.836316,79.9861005 C103.836316,79.9667617 103.821191,79.9461335 103.814889,79.928084 C103.695378,79.9758171 103.625277,80.1030537 103.647254,80.2323485 C103.651147,80.4368642 103.70256,80.6374971 103.797243,80.8176709 C104.204356,81.7510926 104.486688,82.1069274 104.486688,82.1069274 L104.682052,82.08501 C104.653228,82.161366 104.615115,82.233704 104.568615,82.3003158 C104.494258,82.4084421 104.395735,82.4968438 104.281241,82.5581671 C104.174511,82.6235045 104.055575,82.6652283 103.932107,82.6806465 C103.652923,82.689927 103.390779,82.8202484 103.211152,83.0390598 C102.959069,83.3755557 102.797737,83.8332418 103.29938,84.2354898 L105.120675,84.880118 C105.120675,84.880118 108.254058,85.2965479 108.087684,84.5771428 C107.921309,83.8577376 107.820477,83.2285805 107.820477,83.2285805 C107.833928,82.7893387 107.747641,82.3528876 107.568394,81.9535059 C107.535536,81.8883199 107.498483,81.8254378 107.457478,81.7652744 L107.568394,81.7536711 C107.568394,81.7536711 107.797789,80.1640179 108.102809,79.8623319 C108.173392,79.792712 108.189777,79.7334062 108.173392,79.6973071 C108.204902,79.6109269 108.124236,79.5606459 108.022142,79.530993 L107.999455,79.5941665 C107.899641,79.5719141 107.797849,79.5602491 107.695696,79.5593566 C107.695696,79.5593566 107.593602,78.7277862 107.925091,78.4248109 C107.979162,78.3549932 108.002445,78.2653348 107.989372,78.1772737 C107.991874,78.0631684 107.980013,77.9492079 107.95408,77.8381992 C107.950783,77.8453421 107.946992,77.8522356 107.942736,77.8588273 C107.776362,77.1033231 107.211698,75.9030253 107.211698,75.9030253 C107.211698,75.9030253 107.18649,75.147521 107.390676,74.8445457 C107.594863,74.5415705 107.364208,70.7343961 107.364208,70.7343961 C107.364208,70.7343961 107.441093,68.8946272 107.211698,68.0372716 C106.982303,67.1799161 107.491509,66.1704283 107.491509,66.1704283 C107.491509,66.1704283 107.491509,66.1510894 107.491509,66.1162795 L107.491509,66.1033869 L107.46252,65.8133042 C107.461807,65.8192987 107.461807,65.8253594 107.46252,65.8313538 C107.410843,65.3440149 107.313791,64.4608742 107.241948,64.0534692 C107.139854,63.4733038 107.268416,60.7014024 107.268416,60.7014024 L107.725946,59.5152864 L108.541432,61.5587579 L109.407335,64.2816676 C109.407335,64.2816676 109.835875,64.8566759 109.845958,65.4419984 C109.845958,65.470362 109.845958,65.4987257 109.845958,65.5270893 C109.838972,65.587417 109.835604,65.6481257 109.835875,65.7088745 C109.820527,66.0528976 109.912804,66.3929669 110.099301,66.6796846 C110.099301,66.6796846 110.328696,67.968941 110.685392,68.2925444 C111.042088,68.6161478 111.042088,69.250462 111.042088,69.250462 C111.042088,69.250462 111.47441,71.1173053 111.672294,71.4421979 C111.84371,71.7180988 111.852533,72.4736031 111.851273,72.709537 L111.851273,72.709537 C111.851273,72.7520825 111.851273,72.7765784 111.851273,72.7765784 C111.851273,72.7765784 111.911772,73.4444132 111.909252,74.0039505 C111.909252,74.0735704 111.909252,74.1406117 111.909252,74.2037853 C111.909845,74.1990775 111.909845,74.1943112 111.909252,74.1896035 C111.909134,74.3424804 111.891365,74.4948082 111.856314,74.6434217 L111.848752,74.6692069 C111.848752,74.6369754 111.848752,74.6060333 111.857575,74.5750911 C111.768958,74.9550742 111.726623,75.3448091 111.731534,75.7354219 C111.72019,76.4058353 111.819762,77.2000173 112.216792,77.6693066 C112.904977,78.4763812 113.337298,78.3758192 113.337298,78.3758192 C113.337298,78.3758192 113.00707,79.3840177 112.598697,79.586431 C112.583239,79.5938881 112.568827,79.6034272 112.555843,79.6147946 C112.555843,79.5941665 112.54828,79.5748277 112.545759,79.5554888 C112.45371,79.6571717 112.407935,79.7938959 112.419718,79.9319517 C112.390729,80.3754559 112.664238,81.0922825 112.923883,81.4262 C113.020312,81.5227764 113.138479,81.5936166 113.267975,81.632481 C113.247472,81.6472997 113.225994,81.6606538 113.203694,81.6724479 C113.158359,81.6979102 113.111648,81.7207236 113.063789,81.7407785 C112.997497,81.7695835 112.927425,81.7882626 112.855821,81.7962166 C112.576241,81.8038485 112.31347,81.9344813 112.134865,82.1546299 C111.882783,82.4898365 111.72145,82.9475226 112.223094,83.3497706 L114.044389,83.9943988 C114.044389,83.9943988 117.157605,84.4030931 116.993752,83.6849773 Z" id="Path" fill="url(#linearGradient-1)"></path>
                        <path d="M104.097853,86.8350568 L102.320396,85.9533907 C101.830326,85.403231 101.986488,84.7772481 102.234063,84.3170184 C102.406446,84.0200386 102.662964,83.84126 102.937428,83.8268121 C103.057786,83.8055046 103.173415,83.7483645 103.276414,83.6592956 C103.389085,83.5742744 103.485668,83.4534255 103.558268,83.3066291 C103.687954,83.020796 103.757848,82.6905017 103.760137,82.3526664 C103.760137,82.3526664 105.710261,81.559167 106.243498,82.3526664 C106.338668,82.4963076 106.418223,82.6584821 106.479646,82.8340561 C106.656796,83.3818256 106.743552,83.9776629 106.733569,84.5779916 C106.733569,84.5779916 106.832598,85.4384977 106.993839,86.422437 C107.15508,87.4063764 104.097853,86.8350568 104.097853,86.8350568 Z" id="Path" fill="#2D293D"></path>
                        <path d="M113.103377,84.8377459 L111.32124,83.9562324 C110.829879,83.406168 110.986453,82.7802935 111.234679,82.3219065 C111.406246,82.0237522 111.663499,81.8446396 111.938623,81.831785 C112.009007,81.8217828 112.077774,81.7961867 112.142296,81.7559748 C112.189361,81.7284543 112.235261,81.6972573 112.279775,81.6625344 C112.7775,81.2834836 112.764771,80.3526054 112.764771,80.3526054 C112.764771,80.3526054 114.718757,79.5592433 115.254671,80.3526054 C115.326384,80.4600627 115.389153,80.5783398 115.441795,80.7052108 C115.776582,81.507388 115.739666,82.5775454 115.739666,82.5775454 C115.739666,82.5775454 115.838957,83.4396655 115.994257,84.4216715 C116.149558,85.4036775 113.103377,84.8377459 113.103377,84.8377459 Z" id="Path" fill="#2D293D"></path>
                        <path d="M105.757391,82.2705262 C105.855164,82.3805688 105.936896,82.5048096 106,82.6393157 L106,82.6393157 L103,83 C103.133234,82.7810251 103.20504,82.5279887 103.207391,82.2691753 C103.207391,82.2691753 105.209565,81.6626313 105.757391,82.2705262 Z" id="Path" fill="#000000" opacity="0.1"></path>
                        <path d="M116,80.3212495 L116,80.6673959 C115.585648,81.1404358 113.582176,81.0368328 113,80.7999113 C113.042793,80.7873747 113.084527,80.7731633 113.125,80.7573458 C113.577546,80.5846741 113.565972,80.1606248 113.565972,80.1606248 C113.565972,80.1606248 115.342593,79.799219 115.829861,80.1606248 C115.895065,80.2095756 115.952136,80.2634551 116,80.3212495 L116,80.3212495 Z" id="Path" fill="#000000" opacity="0.1"></path>
                        <path d="M115.8897,78.5731693 C115.753374,78.8078796 115.637068,79.0532517 115.541971,79.306776 L115.541971,81.2376489 C115.042667,82.0437415 112.453165,81.7750439 112.102889,81.3351299 C111.752612,80.8952158 111.38705,79.7504394 111.780634,79.5517282 C112.174218,79.353017 112.502841,78.3782074 112.502841,78.3782074 C112.502841,78.3782074 112.078688,78.4756883 111.406156,77.6933411 C110.733624,76.9109939 110.933601,75.1763327 111.058426,74.7614138 C111.183252,74.3464948 111.058426,72.953017 111.058426,72.953017 C111.058426,72.953017 111.083901,71.9744581 110.885199,71.6570201 C110.686496,71.3395821 110.262343,69.5324351 110.262343,69.5324351 C110.262343,69.5324351 110.262343,68.9213044 109.913339,68.6038664 C109.564336,68.2864284 109.340159,67.039172 109.340159,67.039172 C109.136112,66.7274935 109.048348,66.3561082 109.091781,65.9881273 C109.165657,65.3769967 108.667627,64.7171256 108.667627,64.7171256 L107.820594,62.0763913 L107.023237,60.096778 L106.574882,61.2453037 C106.574882,61.2453037 106.447509,63.9335286 106.550681,64.494669 C106.653854,65.0558094 106.805428,66.548018 106.805428,66.548018 C106.805428,66.548018 106.307398,67.5253271 106.531575,68.3564148 C106.755752,69.1875024 106.674233,70.9734036 106.674233,70.9734036 C106.674233,70.9734036 106.898411,74.6626831 106.698434,74.9563757 C106.498458,75.2500683 106.523933,75.9836751 106.523933,75.9836751 C106.523933,75.9836751 107.54292,78.1332552 107.221939,78.4269479 C106.900958,78.7206405 106.997762,79.5267331 106.997762,79.5267331 C106.997762,79.5267331 107.694495,79.5267331 107.396441,79.8204257 C107.098387,80.1141183 106.872936,81.6538176 106.872936,81.6538176 L103.860555,82 C103.860555,82 103.585428,81.6588166 103.186749,80.7502441 C102.78807,79.8416715 103.260626,79.9441515 103.661852,79.8454208 C104.063078,79.7466901 103.809605,79.5042375 103.335776,79.2105448 C102.861947,78.9168522 103.137074,78.2569811 103.137074,78.2569811 C103.137074,78.2569811 103.859281,77.0597149 103.609629,76.9622339 C103.359977,76.864753 103.335776,75.1775825 103.335776,75.1775825 C103.335776,75.1775825 102.837746,73.1779731 102.962572,72.635579 C103.087398,72.0931849 102.563893,70.8034368 102.563893,70.8034368 L102.389392,69.2637376 C101.856414,68.390019 101.661981,67.3571842 101.841686,66.3543058 L101.841686,63.9797696 C101.841686,63.9797696 101.14368,59.3856669 101.044328,57.0636204 C100.980642,55.5764109 100.998474,53.5468073 101.018854,52.2808045 C101.031591,51.5709432 101.044328,51.0997852 101.044328,51.0997852 L111.804835,50 C111.804835,50 111.794645,50.4874048 111.999716,51.5684437 C112.110531,52.1483304 112.282485,52.8994337 112.552517,53.8380004 C113.3244,56.5262253 112.851844,58.5295841 112.851844,58.5295841 L112.751219,61.9276704 C112.751219,61.9276704 113.697604,64.1997266 113.498901,64.9820738 C113.378802,65.4466115 113.31131,65.9227333 113.297651,66.4017965 C113.297651,66.4017965 115.414597,71.3633275 115.19042,72.8055458 C114.966243,74.2477641 115.887153,76.5210701 115.887153,76.5210701 C115.887153,76.5210701 116.139352,78.1332552 115.8897,78.5731693 Z" id="Path" fill="#464353"></path>
                        <path d="M109,66.4422562 L112,66 C112,66 110.300544,67.917303 109,66.4422562 Z" id="Path" fill="#000000" opacity="0.05"></path>
                        <path d="M111.752519,63 C111.752519,63 111.893717,63.7268371 111,64 C111,64 112.599705,63.8753994 111.752519,63 Z" id="Path" fill="#000000" opacity="0.1"></path>
                        <path d="M113,58 C113,58 109.464026,59.0847752 108.177918,58.9946837 C106.89181,58.9045922 113,58 113,58 Z" id="Path" fill="#000000" opacity="0.1"></path>
                        <path d="M105,67 C105,67 104.029721,67.3147355 104.000607,67.8712489 C103.971492,68.4277623 105,67 105,67 Z" id="Path" fill="#000000" opacity="0.1"></path>
                        <path d="M105.460507,77 C105.460507,77 102.251831,77.3436902 103.162834,77.5778791 C104.073836,77.812068 105.570384,77.9998987 105.570384,77.9998987 C105.570384,77.9998987 106.606563,78.0310706 105.460507,77 Z" id="Path" fill="#000000" opacity="0.05"></path>
                        <g id="Group" opacity="0.05" transform="translate(101.000000, 51.000000)" fill="#000000">
                            <path d="M2.53613445,28.4298795 C2.38800019,28.3355519 2.29009567,28.177546 2.27016807,28.0006426 L2.23991597,28.0533333 C2.23991597,28.0533333 1.96890756,28.7318876 2.43781513,29.0326104 C2.4907563,29.0673092 2.54243697,29.102008 2.58907563,29.1354217 C2.67605042,29.1187149 2.76932773,29.1058635 2.85882353,29.0827309 C3.25588235,28.98249 3.00504202,28.7318876 2.53613445,28.4298795 Z" id="Path"></path>
                            <path d="M6.28235294,28.2281124 C6.36302521,28.1535743 6.3605042,27.9608032 6.31134454,27.7140562 C6.18529412,27.9081124 6.1487395,28.2114056 6.14621849,28.4414458 C6.17681837,28.3615958 6.22315043,28.2889898 6.28235294,28.2281124 L6.28235294,28.2281124 Z" id="Path"></path>
                            <path d="M5.83487395,15.7249799 C5.72777304,16.0222443 5.6615973,16.3332078 5.63823529,16.648996 C5.69444826,16.4308513 5.76996824,16.2183595 5.86386555,16.0141365 L5.83487395,15.7249799 Z" id="Path"></path>
                            <path d="M12.5099663,14.4064257 C12.5330049,14.3161261 12.5435775,14.2238197 12.5414663,14.1314056 C12.4979663,14.3190361 12.4679663,14.4925301 12.4454663,14.6454618 C12.4649663,14.5670683 12.4859663,14.4925301 12.5099663,14.4064257 Z" id="Path"></path>
                            <path d="M5.76922734,24.6605622 C5.81170521,24.5988755 5.83559902,24.3906827 5.84621849,24.1015261 C5.75016122,24.3252818 5.69924455,24.5647742 5.69621849,24.8070683 C5.71436278,24.7555611 5.73887718,24.7063683 5.76922734,24.6605622 L5.76922734,24.6605622 Z" id="Path"></path>
                            <path d="M6.37058824,29.4001606 C6.21773618,29.9042648 6.1043552,30.4199391 6.03151261,30.9423293 L3.05042017,31.2931727 C3.05042017,31.2931727 2.77815126,30.9423293 2.38361345,30.0080321 C2.35179302,29.9358632 2.32360511,29.8620859 2.29915966,29.786988 C2.12016807,29.8705221 2.04705882,30.0594378 2.28403361,30.6107631 C2.67857143,31.5412048 2.95210084,31.8959036 2.95210084,31.8959036 L5.93319328,31.5437751 C5.93319328,31.5437751 6.15504202,29.9604819 6.45,29.6584739 C6.6012605,29.513253 6.50798319,29.4374297 6.37058824,29.4001606 Z" id="Path"></path>
                            <path d="M2.43781513,24.886747 C2.43781513,24.886747 2.46176471,26.6204016 2.70882353,26.7206426 L2.70882353,26.7206426 C2.83487395,26.4340562 2.91680672,26.1616064 2.80588235,26.1166265 C2.55378151,26.0163855 2.53487395,24.2814458 2.53487395,24.2814458 C2.53487395,24.2814458 2.04201681,22.2252209 2.16554622,21.6674699 C2.28907563,21.1097189 1.7710084,19.7834538 1.7710084,19.7834538 L1.59831933,18.2001606 C1.07087789,17.3017043 0.878464433,16.2396266 1.05630252,15.2083534 L1.05630252,12.7665863 C1.05630252,12.7665863 0.365546218,8.04240964 0.267226891,5.65461847 C0.204201681,4.1253012 0.221848739,2.03823293 0.242016807,0.736385542 C0.242016807,0.501204819 0.249579832,0.293012048 0.253361345,0.116947791 L0.168907563,0.125943775 C0.168907563,0.125943775 0.155042017,0.609156627 0.143697479,1.34040161 C0.123529412,2.642249 0.104621849,4.72931727 0.168907563,6.2573494 C0.267226891,8.64514056 0.956722689,13.3706024 0.956722689,13.3706024 L0.956722689,15.8123695 C0.779803274,16.8433808 0.972640909,17.9048741 1.5,18.8028916 L1.67142857,20.3861847 C1.67142857,20.3861847 2.1894958,21.7175904 2.06596639,22.2714859 C1.94243697,22.8253815 2.43781513,24.886747 2.43781513,24.886747 Z" id="Path"></path>
                            <path d="M11.2134454,30.6159036 C10.9712738,30.2584469 10.8098379,29.8506998 10.7407563,29.422008 C10.4369748,29.7021687 10.7861345,30.7893976 11.1189076,31.2212048 C11.4630252,31.6735743 14.0268908,31.9498795 14.5222689,31.1196787 L14.5222689,30.6416064 C13.8504202,31.3137349 11.5386555,31.0438554 11.2134454,30.6159036 Z" id="Path"></path>
                            <path d="M14.9596639,27.775743 C14.8244786,28.0171396 14.7089643,28.2694466 14.6142857,28.5301205 L14.6142857,28.8861044 C14.6710084,28.7575904 14.7504202,28.5853815 14.8663866,28.3823293 C14.9444055,28.1844425 14.9813174,27.9722077 14.9747899,27.7590361 C14.9747899,27.7590361 14.9634454,27.7706024 14.9596639,27.775743 Z" id="Path"></path>
                            <path d="M11.3647059,28.1728514 C11.4584476,27.9792554 11.5397123,27.7796354 11.6079832,27.575261 C11.6079832,27.575261 11.1882353,27.675502 10.5226891,26.871004 C10.0386555,26.2862651 10.0109244,25.1810442 10.0802521,24.4587952 C9.95420168,24.886747 9.75882353,26.6705221 10.4243697,27.4750201 C10.8592437,28.0006426 11.1882353,28.1394378 11.3647059,28.1728514 Z" id="Path"></path>
                            <path d="M10.0789916,22.5991968 C10.1224793,23.0943744 10.1388912,23.5916366 10.1281513,24.0886747 C10.1404842,24.0101998 10.1573198,23.9325297 10.1785714,23.8560643 C10.3046218,23.4281124 10.1785714,21.9964659 10.1785714,21.9964659 C10.1785714,21.9964659 10.2037815,20.9902008 10.0058824,20.6637751 C9.80798319,20.3373494 9.39579832,18.4764659 9.39579832,18.4764659 C9.39579832,18.4764659 9.39579832,17.8480321 9.05042017,17.5216064 C8.70504202,17.1951807 8.48319328,15.9126104 8.48319328,15.9126104 C8.27945047,15.5927521 8.19039011,15.2109337 8.23109244,14.8318072 C8.30546218,14.2033735 7.81260504,13.5248193 7.81260504,13.5248193 L6.97436975,10.8106024 L6.18529412,8.77493976 L5.74033613,9.95726908 C5.74033613,9.95726908 5.74033613,10.1063454 5.72521008,10.3428112 L6.08571429,9.38281124 L6.87478992,11.4146185 L7.71302521,14.1288353 C7.71302521,14.1288353 8.20588235,14.8073896 8.13151261,15.4358233 C8.09081027,15.8149498 8.17987064,16.1967682 8.38361345,16.5166265 C8.38361345,16.5166265 8.60546218,17.8017671 8.95084034,18.1256225 C9.29621849,18.4494779 9.29495798,19.0804819 9.29495798,19.0804819 C9.29495798,19.0804819 9.71470588,20.9400803 9.91134454,21.2652209 C10.1079832,21.5903614 10.0789916,22.5991968 10.0789916,22.5991968 Z" id="Path"></path>
                        </g>
                        <path d="M112.946675,26.8853744 L112.721296,28.0037764 L112.735095,28.5018882 L112.744294,28.8684233 L111.493212,29 L111.353692,28.7352802 L111.353692,28.7352802 C111.094583,28.2559651 110.556434,27.2816709 110.383184,27.1312976 C110.151672,26.9339325 109.739244,23.8230833 110.229865,24.0079173 C110.531888,24.1270884 110.779908,24.3564797 110.925932,24.6517033 C110.925932,24.6517033 113.389766,24.9399189 112.946675,26.8853744 Z" id="Path" fill="#A1616A"></path>
                        <path d="M112,27.7968724 L111.100331,28 L111,27.5913267 L111,27.5913267 C111.249522,26.9682758 111.664933,26.8184474 111.992282,27.2334352 L112,27.7968724 Z" id="Path" fill="#000000" opacity="0.1"></path>
                        <path d="M114,28.7206734 L113.072414,29 L113.052586,28.8205131 L113,28.3370201 C113,28.3370201 113.367241,27.6998415 113.898276,28.1777254 L113.944828,28.4233982 L114,28.7206734 Z" id="Path" fill="#D87900"></path>
                        <path d="M90,27.2392036 L88.6704487,28 L88.5547349,27.7332272 C88.4286069,27.4503987 88.2399934,27.0243033 88.1879222,26.8686859 C88.1092369,26.6340247 87.5549679,26.3376105 87.5549679,26.3376105 C86.1664025,24.9185276 87.8211096,23.6982892 87.8211096,23.6982892 C88.69822,21.8148241 89.67253,24.3380498 89.67253,24.3380498 C89.67253,24.3380498 89.8090723,25.6682085 89.7130298,25.7571327 C89.6169874,25.846057 89.6169874,26.2103994 89.6169874,26.2103994 C89.7437078,26.4714338 89.8508845,26.7427579 89.9375146,27.0218332 C89.9780144,27.1564546 90,27.2392036 90,27.2392036 Z" id="Path" fill="#A1616A"></path>
                        <path d="M90,26.227651 L89.0800641,27 L89,26.7291763 C89.1297038,26.5586577 89.5900721,25.9768883 89.7413931,26.0007108 C89.8136242,26.0148308 89.8865681,26.0177706 89.9591673,26.0094875 C89.9847878,26.1436455 90,26.227651 90,26.227651 Z" id="Path" fill="#000000" opacity="0.1"></path>
                        <path d="M90,26.4142097 L89.0329588,27 L89.0134831,26.7448681 L89,26.5680257 C89,26.5680257 89.5602996,25.9776301 89.7258427,26.0006565 C89.8095504,26.0155709 89.8945694,26.0155709 89.9782772,26.0006565 L89.9895131,26.214341 L90,26.4142097 Z" id="Path" fill="#D87900"></path>
                        <path d="M109,33.5028098 C109,33.5028098 101.826055,34.3038332 103.167027,33.8724159 C104.100099,33.5709283 104.471033,32.989398 104.548789,32.3334419 C104.612523,31.7872323 104.469758,31.1981332 104.282379,30.6935516 C104.113772,30.2459217 103.900257,29.8161411 103.645035,29.4106528 C103.645035,29.4106528 109.126194,26.4260524 108.031237,29.1394401 C107.862376,29.5498524 107.757504,29.9832721 107.720213,30.4248618 C107.68729,30.8637014 107.735233,31.3048089 107.861703,31.7266825 C108.068488,32.4112233 108.462421,33.0258918 109,33.5028098 L109,33.5028098 Z" id="Path" fill="#FFCDD3"></path>
                        <path d="M108.839539,29.1953879 C108.653062,29.6259518 108.537251,30.0806529 108.49607,30.5439252 C107.925967,30.9952021 107.300965,30.9647641 106.497191,30.9647641 C105.880635,30.9647641 105.196512,31.1050437 104.703831,30.8258078 C104.517635,30.3561988 104.281846,29.9053155 104,29.4799173 C104,29.4799173 110.051535,26.3487699 108.839539,29.1953879 Z" id="Path" fill="#000000" opacity="0.1"></path>
                        <circle id="Oval" fill="#A1616A" cx="106" cy="28" r="3"></circle>
                        <path d="M109,32.4226372 C109,32.4226372 101.826055,33.3528267 103.167027,32.8518427 C104.100099,32.5017399 104.471033,31.826437 104.548789,31.0647069 C104.905701,30.6252473 105.623351,30.2985823 106.078415,30.128658 C106.499144,29.9660714 106.953386,29.9573711 107.378597,30.1037552 C107.545799,30.1616461 107.705018,30.2464751 107.851506,30.3557121 C108.060504,31.1535582 108.458091,31.8690883 109,32.4226372 Z" id="Path" fill="#A1616A" opacity="0.1"></path>
                        <path d="M114,29.5487327 L113.020928,30 L113,29.7100291 C113.214748,29.1224558 113.591334,28.8659134 113.941765,29.0684683 L114,29.5487327 Z" id="Path" fill="#A1616A" opacity="0.1"></path>
                        <path d="M90,28.2552693 L89.0197418,29 L89,28.675644 C89.3175146,28.4123738 89.6474864,28.1865149 89.9870919,28 L90,28.2552693 Z" id="Path" fill="#000000" opacity="0.1"></path>
                        <path d="M113,51.9538366 C109.964157,52.4956176 105.649113,53.1868554 104.964273,52.9533291 C104.394966,52.7602807 102.579863,52.7805196 101,52.8412365 C101.013919,51.9569503 101.027839,51.3700209 101.027839,51.3700209 L112.787032,50 C112.787032,50 112.775896,50.6071683 113,51.9538366 Z" id="Path" fill="#000000" opacity="0.1"></path>
                        <path d="M116,51.1676555 C116,51.1676555 106.746512,52.7421563 105.753732,52.4456594 C104.760951,52.1491625 99.6616693,52.4699415 99.6616693,52.4699415 C97.3666702,53.9946002 98.3246389,51.7453133 98.3246389,51.7453133 C98.3246389,51.7453133 98.1235041,50.5708276 98.4007091,49.6212707 C98.5868873,48.9241119 98.7141115,48.2127828 98.7810601,47.4946721 C98.7810601,47.4946721 98.7307764,45.9942955 99.0079813,45.6441224 C99.2851863,45.2939494 99.6139642,42.7954516 99.6139642,42.7954516 C99.6139642,42.7954516 99.8653827,41.0957064 99.8408855,40.7212512 C99.8163883,40.3467961 99.9156664,39.2962769 99.9156664,39.2962769 L100.244444,37.5466895 C98.3530041,37.2974787 92.6039024,33.7983039 92.6039024,33.7983039 C92.3266974,32.6238183 90.1838387,29.8748318 90.1838387,29.8748318 C90.152624,29.6436662 90.0933141,29.4170919 90.0072011,29.2000457 C89.8563501,28.8000305 92.1255627,28 92.1255627,28 C92.1255627,28 93.8145789,30.0448063 94.167854,30.59946 C94.5211291,31.1541137 95.7305163,32.1739609 95.7305163,32.1739609 C95.9184192,32.1548041 96.1082408,32.179308 96.2849262,32.2455291 L96.3145807,32.2544751 L96.3145807,32.2544751 C96.7198742,32.4121869 97.0998976,32.6274363 97.4427404,32.8934771 C98.0113181,32.8801098 98.5628759,33.0863307 98.9809055,33.4685789 C98.9809055,33.4685789 100.012366,33.3177744 100.191582,33.4928609 C100.370798,33.6679475 101.250118,33.4928609 101.250118,33.4928609 C101.250118,33.4928609 102.132017,31.6435892 102.712213,32.1803509 C103.292409,32.7171126 105.753732,32.6915525 105.753732,32.6915525 C106.08122,32.2595871 106.879313,31.9503102 107.378281,31.7969497 C107.803943,31.6556868 108.263219,31.6480994 108.693393,31.7752236 C108.878966,31.8301093 109.053482,31.916601 109.209123,32.0308244 L110.70603,33.4800809 C110.70603,33.4800809 111.134086,32.9292612 111.083802,32.8052948 C111.033519,32.6813284 111.587929,32.5803661 111.587929,32.5803661 C111.587929,32.5803661 112.318976,32.3554374 112.596181,32.2800352 C112.873386,32.204633 113.127383,32.5024079 113.150591,32.529246 C113.141566,32.4972959 112.952035,31.890244 113.021658,31.4301626 C113.091282,30.9700812 112.718667,30.5355598 112.718667,30.5355598 C113.600566,28.3859572 115.592573,30.1853867 115.592573,30.1853867 C115.592573,30.1853867 115.819494,31.3598724 115.61836,31.8097298 C115.417225,32.2595871 115.819494,33.2091441 115.769211,33.4596328 C115.718927,33.7101216 115.871067,34.1344189 115.871067,34.6098364 C115.871067,35.0852539 115.613202,35.9836906 115.467509,36.3837059 C115.321815,36.7837211 114.105981,37.6834359 114.105981,37.6834359 C114.105981,37.6834359 114.029911,39.1084103 113.5,39.9327228 C112.970085,40.7570354 113.302731,43.5763121 113.302731,43.5763121 C113.302731,43.5763121 113.806858,45.7757568 114.437338,46.476103 C115.067818,47.1764492 116,51.1676555 116,51.1676555 Z" id="Path" fill="#3F3D56"></path>
                        <path d="M99.949105,34 C99.949105,34 99.7404572,33.460251 99.550248,33.4142259 C99.3614001,33.3543319 99.1775506,33.2833137 99,33.2016736 L99.1222773,33 C99.1222773,33 99.8345913,33.167364 99.949105,33.348954 C100.063619,33.5305439 99.949105,34 99.949105,34 Z" id="Path" fill="#000000" opacity="0.1"></path>
                        <path d="M97,33.5793651 C96.9342697,33.8061224 94,34 94,34 L95.4831461,33 L95.4831461,33 L95.5202247,33.0090703 L95.5202247,33.0090703 C96.0520889,33.1497418 96.5505977,33.3418636 97,33.5793651 L97,33.5793651 Z" id="Path" fill="#000000" opacity="0.1"></path>
                        <circle id="Oval" fill="#575988" cx="88.5" cy="29.5" r="1"></circle>
                        <circle id="Oval" fill="#575988" cx="90.5" cy="29.5" r="1"></circle>
                        <circle id="Oval" fill="#575988" cx="90.5" cy="29.5" r="1"></circle>
                        <circle id="Oval" fill="#575988" cx="90.5" cy="30.5" r="1"></circle>
                        <ellipse id="Oval" fill="#575988" cx="114" cy="29" rx="1" ry="1"></ellipse>
                        <ellipse id="Oval" fill="#575988" cx="114" cy="30" rx="1" ry="1"></ellipse>
                        <ellipse id="Oval" fill="#575988" cx="114" cy="30" rx="1" ry="1"></ellipse>
                        <path d="M101,40.0001068 C100.975757,39.9655537 106.619593,48.3288986 111,43.4959759 C111.003839,43.4974782 104.082491,44.5986695 101,40.0001068 Z" id="Path" fill="#000000" opacity="0.1"></path>
                        <path d="M97,45 C97,45 101.526424,45.0427415 102,45.4933081 L102,45.9622772 C101.737987,46.0125743 101.419528,46.0125743 101.157515,45.9622772 C100.701098,45.8767942 97.9643102,45.3959524 97,45.6274689 L97,45 Z" id="Path" fill="#000000" opacity="0.1"></path>
                        <path d="M98,45 C98,45 100.715823,45.0429671 101,45.4938104 L101,45.9620897 C100.842678,46.0126368 100.651402,46.0126368 100.49408,45.9620897 C100.220667,45.8774009 98.5791173,45.3960447 98,45.6276934 L98,45 Z" id="Path" fill="#3F3D56"></path>
                        <path d="M101,36 C101.308253,36.9446438 101.701076,37.8368585 102.170034,38.6574803 C102.680047,39.5645262 103.298106,40.3556973 104,41 C104,41 101.050324,36.5481526 101,36 Z" id="Path" fill="#000000" opacity="0.1"></path>
                        <path d="M99,34 C99,34 99.2795426,36.2396857 100,37 L99,34 Z" id="Path" fill="#000000" opacity="0.1"></path>
                        <path d="M99.0261655,34.0007499 C99.0188384,33.9561372 98.7657214,35.9127241 100,37 C100,37 99.4757813,36.6596686 99.0261655,34.0007499 Z" id="Path" fill="#000000" opacity="0.1"></path>
                        <path d="M113.000559,33.0014383 C112.975807,33.0014383 113.780652,33.6822758 114,34 C114,34 113.475955,32.9560491 113.000559,33.0014383 Z" id="Path" fill="#000000" opacity="0.1"></path>
                        <path d="M104.403776,29.5139987 C104.404649,29.6412885 104.458864,29.7623972 104.553269,29.8479414 C104.647673,29.9334856 104.773639,29.975648 104.900606,29.9641991 C105.781236,30.0187688 106.699129,30.0572157 107.508962,29.7161548 C107.660856,29.6620191 107.79727,29.5717793 107.906425,29.4532278 C108.050506,29.2758761 108.079074,29.0352731 108.137451,28.8145137 C108.251722,28.3829166 108.495169,27.9996881 108.670301,27.5891748 C108.966603,26.8956141 109.065873,26.1339647 108.95722,25.3877815 C108.934296,25.1590537 108.858622,24.9387369 108.736131,24.7441065 C108.502621,24.4104869 108.07659,24.2753027 107.767313,24.0098953 C107.458037,23.7444879 107.259305,23.3389355 106.897861,23.1417402 C106.572438,22.9606679 106.173732,22.9829919 105.80732,23.0450029 C105.086595,23.1672068 104.395981,23.4261165 103.772802,23.8077392 C103.562891,23.9317614 103.333108,24.0843086 103.092145,24.0384204 C102.880993,23.9987333 102.726975,23.8213817 102.595316,23.655192 C102.425943,24.0520812 102.354794,24.4838649 102.387889,24.9140169 C102.397043,24.9771389 102.39494,25.0413802 102.381679,25.1037708 C102.351314,25.1792009 102.305154,25.2472799 102.246293,25.3034464 C102.02893,25.5514907 101.893544,25.9545628 102.108422,26.2100484 C102.201578,26.3204281 102.345659,26.381199 102.43633,26.4940591 C102.599042,26.6962153 102.544391,26.9901478 102.540664,27.2481139 C102.531703,27.3381902 102.554549,27.4285616 102.605252,27.5035995 C102.700832,27.5925593 102.836095,27.6250303 102.961728,27.5891748 C103.084782,27.5521653 103.213975,27.5399398 103.341802,27.5532084 C103.476478,27.596932 103.592729,27.6842081 103.672194,27.8012527 C104.073384,28.323386 104.23237,28.8914074 104.403776,29.5139987 Z" id="Path" fill="#2D293D"></path>
                        <g id="Group" opacity="0.1" transform="translate(102.000000, 23.000000)" fill="#000000">
                            <path d="M5.9755102,6.09673077 C5.86790055,6.22540823 5.7334173,6.32335578 5.58367347,6.38211538 C4.78040816,6.74961538 3.87673469,6.70788462 3.0122449,6.65134615 C2.91942854,6.65236348 2.82765362,6.62978912 2.74408163,6.58538462 C2.61183673,6.50057692 2.56163265,6.32288462 2.52122449,6.16134615 C2.3522449,5.48826923 2.19673469,4.87038462 1.79510204,4.30903846 C1.71769865,4.17955369 1.60300236,4.08237722 1.46938776,4.03307692 C1.34336802,4.02000897 1.21623703,4.03325444 1.09469388,4.07211538 C0.971053018,4.11138618 0.837734693,4.07666005 0.743265306,3.98057692 C0.693280206,3.89912971 0.670757376,3.80103934 0.679591837,3.70326923 C0.679591837,3.42057692 0.737142857,3.10423077 0.576734694,2.88480769 C0.487346939,2.76230769 0.345306122,2.69634615 0.253469388,2.57519231 C0.13141231,2.393205 0.110241388,2.15218522 0.198367347,1.94788462 C0.0453061224,2.21711538 -0.0195918367,2.555 0.157959184,2.78653846 C0.249795918,2.90634615 0.391836735,2.97230769 0.48122449,3.09480769 C0.641632653,3.31557692 0.587755102,3.63326923 0.584081633,3.91326923 C0.57467909,4.01089551 0.596783137,4.10904959 0.646530612,4.19057692 C0.741019637,4.28761228 0.874955234,4.32288932 0.999183673,4.28346154 C1.12049631,4.24329096 1.24786044,4.2300212 1.37387755,4.24442308 C1.50664692,4.29188128 1.62125176,4.386612 1.69959184,4.51365385 C2.1,5.075 2.25673469,5.69153846 2.42571429,6.36730769 C2.44550254,6.53359713 2.52104655,6.68577543 2.63755102,6.79403846 C2.72149243,6.83851236 2.81377532,6.86064734 2.90693878,6.85865385 C3.77510204,6.91788462 4.68,6.96096154 5.47836735,6.58942308 C5.62828997,6.53105689 5.76285423,6.43305033 5.87020408,6.30403846 C5.92418035,6.22820927 5.96562597,6.14254968 5.99265306,6.05096154 C5.99387755,6.06846154 5.98530612,6.08326923 5.9755102,6.09673077 Z" id="Path"></path>
                            <path d="M0.433469388,1.53192308 C0.47194648,1.4860028 0.501525645,1.4319586 0.520408163,1.37307692 C0.531451036,1.30495976 0.531451036,1.23523255 0.520408163,1.16711538 C0.496543584,0.783317938 0.541902207,0.398119089 0.653877551,0.0336538462 L0.637959184,0.0134615385 C0.470430954,0.443599806 0.400263403,0.911978708 0.433469388,1.37846154 C0.437143494,1.42953565 0.437143494,1.48084896 0.433469388,1.53192308 Z" id="Path"></path>
                        </g>
                        <path d="M105,31.9412261 C105,31.9412261 109.588068,32.3677199 110,31.8848758" id="Path" fill="#A1616A" opacity="0.1"></path>
                        <path d="M110,30 C110,30 112.459665,30 113,31" id="Path" fill="#000000" opacity="0.1"></path>
                        <path d="M123.709465,99.206387 C123.101766,99.8821361 122.312074,100.249131 121.49701,100.234586 C121.289077,100.234586 121.001268,100.283473 121,100.5421 C121.005024,100.617961 121.026014,100.690842 121.060858,100.753417 C121.318148,101.286843 121.724359,101.683741 122.201953,101.868351 C122.645712,102.035512 123.1199,102.007126 123.582677,101.977163 L124.932972,101.890429 C125.186549,101.873082 125.440125,101.857312 125.693702,101.817887 C125.947278,101.778462 126.223677,101.713806 126.488664,101.660188 C127.139797,101.545062 127.798243,101.507044 128.45515,101.546644 C128.630118,101.554529 128.835515,101.546644 128.939482,101.388945 C129.043448,101.231246 128.990197,100.93004 128.950893,100.693491 C128.869748,100.2062 128.950893,99.6952548 128.876088,99.206387 C128.749299,98.3485029 128.152126,97.6908969 127.497899,97.3802293 C126.889315,97.0932166 125.811615,96.7636251 125.235996,97.243031 C124.62868,97.7460917 124.257191,98.5866288 123.709465,99.206387 Z" id="Path" fill="#3F3D56"></path>
                        <path d="M125.73028,75.8066299 C125.850294,76.3716858 126.403124,76.8040103 126.418445,77.3804431 C126.432489,77.8431062 126.099259,78.2311871 125.859231,78.6268526 C125.633051,79.0366543 125.442141,79.4645928 125.288526,79.9061288 C124.836598,81.0557868 124.275732,82.1604907 123.613437,83.205448 C123.294251,83.7110907 122.936762,84.2508644 123.009537,84.8386742 C123.060387,85.1135535 123.158411,85.3777793 123.299358,85.6198923 L124.256916,87.5034116 C124.466655,87.8794714 124.63079,88.2787464 124.74591,88.6929363 C124.828898,89.0506785 124.836558,89.4210619 124.885075,89.7851247 C125.035731,90.9405184 125.583454,92.1034968 125.259161,93.2234956 C125.231072,93.3195677 125.131486,93.4358656 125.053605,93.3688679 C125.370238,93.9541494 125.62431,94.5432233 125.600052,95.2068794 C125.587284,95.5545088 125.480038,95.9173075 125.608989,96.2409189 C125.663889,96.3761784 125.759645,96.502589 125.758368,96.6479613 C125.758368,96.7440335 125.713682,96.8337851 125.703468,96.927329 C125.676656,97.1940556 125.924345,97.4165384 126.18097,97.5012335 C126.437596,97.5859287 126.717203,97.5796082 126.976382,97.6567187 C127.474313,97.8046192 127.830525,98.2293592 128.253127,98.5238961 C128.686686,98.8196018 129.197646,98.9842838 129.723937,98.9979362 C129.79902,99.0058573 129.874753,98.9908604 129.940983,98.9549565 C130.0169,98.8892452 130.060617,98.7943885 130.060997,98.6945505 C130.107958,98.2151108 129.910733,97.7439925 129.534979,97.4380282 C129.45387,97.3877665 129.386724,97.3182437 129.339637,97.2357711 C129.315798,97.1627856 129.309674,97.0852636 129.321762,97.0094959 C129.398834,95.9734004 129.38003,94.9324968 129.265586,93.8997928 C129.213974,93.5725029 129.197285,93.2407449 129.215793,92.9099971 C129.242604,92.6344218 129.326869,92.3613747 129.296227,92.0870634 C129.265586,91.8127522 129.123867,91.5624591 129.040878,91.2982607 C128.892776,90.8280129 128.933632,90.3223701 128.913204,89.8306325 C128.887669,88.9760962 128.689774,88.1367292 128.493155,87.3024186 C128.415274,86.9750149 128.329732,86.6324419 128.096087,86.3897334 C127.896915,86.183684 127.575176,85.9864833 127.650504,85.7121721 C127.692225,85.6110563 127.754351,85.5194351 127.833078,85.4429173 C128.019942,85.2107466 128.102125,84.9126953 128.060339,84.6187195 C128.233535,84.6624686 128.413793,84.5787925 128.490602,84.4189906 C130.045677,83.6921291 131.29944,82.2384061 131.858654,80.6266698 C131.891634,80.5069731 131.942408,80.3927975 132.00931,80.2878891 C132.153582,80.0881602 132.403824,80.0022009 132.625977,79.8922236 C133.32308,79.5445942 133.804413,78.8935791 134.246166,78.2564692 C134.501515,77.88735 134.756864,77.5055897 134.871771,77.0707369 C134.932177,76.7894823 134.960867,76.5024583 134.957313,76.2149365 L134.996892,74.7296108 C135.005566,74.6318107 134.996046,74.5332649 134.968804,74.4388662 C134.930938,74.350675 134.875832,74.2707678 134.806657,74.2037423 C134.382006,73.7591364 133.824338,73.4613486 133.215833,73.3542624 C132.807275,73.2822083 132.38978,73.2961135 131.976114,73.2619826 C131.174319,73.1962491 130.382737,72.9497482 129.580941,73.0091612 C128.320795,73.1014411 127.198536,73.9660902 126.60485,75.0709197 C126.39674,75.4602646 126.17714,75.7990453 125.73028,75.8066299 Z" id="Path" fill="#464353"></path>
                        <path d="M117.40978,66.4040516 C117.426991,66.6420153 117.395297,66.8810125 117.316709,67.1058921 C117.217175,67.3210357 116.967693,67.4889526 116.749235,67.4010586 C116.81516,67.2501957 116.640652,67.0783432 116.477778,67.0967091 C116.315129,67.1347651 116.181279,67.2514784 116.119714,67.4089297 C116.011729,67.6292527 115.975516,67.878698 116.016301,68.121265 C116.068007,68.4229908 116.23993,68.7129099 116.194687,69.0159476 C116.158493,69.267823 115.976229,69.5183866 116.073178,69.7518961 C116.136069,69.858584 116.215013,69.9546349 116.307148,70.0365679 C116.572382,70.3681056 116.53546,70.8523418 116.223126,71.138523 L118.668822,71.1883733 C118.579629,71.6029183 118.763186,72.0266463 118.972595,72.3952765 C120.161602,74.4497954 122.230285,75.820432 124.56202,76.0986327 C124.436085,76.1732543 124.349821,76.3013182 124.327026,76.4474937 C124.304231,76.5936692 124.347313,76.7425078 124.444389,76.8529472 C124.643457,77.0536605 124.980839,77.0287353 125.230321,76.898862 C125.479802,76.7689887 125.674993,76.5538451 125.902499,76.38724 C126.304137,76.0984344 126.794104,75.9644715 127.284344,76.0094268 C127.590702,76.0395994 127.888012,76.140612 128.195663,76.1563542 C129.100519,76.2048927 129.87611,75.5437196 130.747357,75.2734783 C131.382049,75.0753887 132.102055,75.0753887 132.634628,74.6726504 C132.86472,74.499486 133.053447,74.2148143 132.986229,73.9340781 C132.930605,73.772733 132.84257,73.6248699 132.727699,73.4998553 C132.42134,73.097117 132.240369,72.6130438 132.020618,72.1552077 C131.585261,71.2487698 130.985826,70.4334995 130.253564,69.7518961 C129.700844,69.2616163 129.115148,68.8109984 128.500729,68.403313 C128.352187,68.2920507 128.193807,68.1949961 128.027618,68.1133939 C127.813038,68.0176287 127.57519,67.9717139 127.381293,67.8510236 C127.094324,67.6673644 126.928865,67.3433371 126.707821,67.0822787 C126.223077,66.5076879 125.47851,66.2440058 124.881305,65.7927289 C124.480583,65.4896913 124.126396,65.0908885 123.648115,64.945273 C123.415438,64.8731211 123.168542,64.8678737 122.935864,64.7970338 C122.40717,64.6343642 122.02196,64.1581622 121.503607,63.96532 C121.093836,63.8131453 120.641408,63.8525008 120.210955,63.7987149 C119.725733,63.7379721 119.262237,63.5588226 118.860135,63.2765981 C118.730596,63.1695167 118.585358,63.0836468 118.429682,63.022099 C117.774307,62.8200739 117.721309,64.0584615 117.654091,64.4874369 C117.567483,65.1249966 117.40978,65.7586208 117.40978,66.4040516 Z" id="Path" fill="#00839B"></path>
                        <path d="M118.45044,70.930056 C118.56506,72.0846938 117.626523,73.2030143 117.900263,74.333858 C117.958247,74.5743032 118.070171,74.8034775 118.110625,75.0476796 C118.225245,75.71767 117.793733,76.3525956 117.382449,76.9136343 L113.849449,81.7287993 C113.707601,81.9401849 113.538212,82.1345099 113.34512,82.3073705 C112.670883,82.8646523 111.656831,82.808298 110.769536,82.973604 C110.146235,83.0925489 109.557651,83.3342547 109.04349,83.6824164 C108.995323,83.7169852 108.985738,83.7809663 109.021914,83.826433 C109.319572,84.2028408 109.802308,84.4135625 110.304313,84.3862194 C110.397357,84.4989281 110.304313,84.6667388 110.176208,84.7481395 C109.987421,84.8733714 109.725817,84.9021747 109.68806,85.2014788 C109.675291,85.3054841 109.697926,85.4105915 109.752787,85.5020353 C109.895593,85.7038327 110.116892,85.8465292 110.370388,85.9002726 C111.593453,86.2484172 112.914957,85.6372857 113.83057,84.8069985 C114.746184,83.9767112 115.40289,82.9285206 116.300974,82.0844578 C116.79856,81.6160907 117.363571,81.216601 117.87599,80.7632617 C118.898133,79.8578353 119.693732,78.7595519 120.459665,77.6587639 C120.690254,77.3268994 120.92354,76.9862688 121.019282,76.601807 C121.115023,76.2173452 121.070524,75.8278741 121.17975,75.4559355 C121.322688,74.9687835 121.707003,74.5793124 122.026591,74.1710566 C122.653631,73.3695727 123.073007,72.3890072 122.989401,71.4009278 C122.905796,70.4128484 122.247741,69.4385446 121.244477,69.1029232 C120.933287,68.9880976 120.590692,68.9687882 120.266834,69.0478212 C119.855549,69.1655391 119.552143,69.4811234 119.27166,69.7841845 L118.597424,70.5030154 C118.433262,70.66219 118.3045,70.8498589 118.218503,71.0552879 C118.1297,71.2666702 118.182461,71.5067608 118.35335,71.668924" id="Path" fill="#A1616A"></path>
                        <path d="M119.511249,66.0439811 C119.001318,66.0702249 118.439505,66.1148392 118.079293,66.4376373 C117.928232,66.5858597 117.806006,66.755246 117.717598,66.938893 C117.367761,67.5700551 117.026819,68.2300854 117.001619,68.9334179 C116.980866,69.4950341 117.164679,70.0448407 117.261032,70.599896 C117.341079,71.061786 117.137996,71.5328613 117.099455,72 C117.732421,71.8281034 118.56847,71.5945341 119.142142,71.3045406 C119.533484,71.1064003 119.911485,70.8807041 120.338404,70.7547341 C120.947652,70.5749644 121.968996,70.8859528 122.548597,71.1352685 C122.579727,70.7757291 122.274361,70.1485035 122.306973,69.7876519 C122.311499,69.6357494 122.341986,69.4853294 122.397397,69.3415082 C122.484095,69.1893731 122.586834,69.0448279 122.704245,68.9097985 C123.156863,68.2583946 123.084464,67.4231341 122.52488,66.8404789 C122.010502,66.3287258 121.205582,66.1371464 120.437722,66.0531664 C119.954156,66.0035414 119.466849,65.9886212 118.980565,66.008552" id="Path" fill="#00839B"></path>
                    </g>
                </g>
            </g>
        </g>
    </g>
</svg>