<?xml version="1.0" encoding="UTF-8"?>
<svg width="26px" height="24px" viewBox="0 0 26 24" version="1.1" xmlns="http://www.w3.org/2000/svg" xmlns:xlink="http://www.w3.org/1999/xlink">
    <title>9762937D-B338-44FA-9C83-128A7C7D35BC</title>
    <g id="Web" stroke="none" stroke-width="1" fill="none" fill-rule="evenodd">
        <g id="Dashboard-Main-(No-wallet)" transform="translate(-15.000000, -180.000000)">
            <g id="Group-44" transform="translate(0.000000, 24.000000)">
                <g id="Group-43" transform="translate(0.000000, 56.000000)">
                    <g id="Group-42" transform="translate(0.000000, 99.000000)">
                        <g id="Group-41" transform="translate(15.500000, 0.000000)">
                            <g id="Group-32" transform="translate(0.500000, 0.000000)">
                                <g id="Home" transform="translate(0.000000, 1.000000)">
                                    <rect id="Rectangle" x="0" y="0" width="24" height="24"></rect>
                                    <path d="M14.4,14.34 C14.4,13.942355 14.077645,13.62 13.68,13.62 L13.08,13.62 L10.32,13.62 C9.92235498,13.62 9.6,13.942355 9.6,14.34 L9.6,17.94 L7.08,17.94 C6.48353247,17.94 6,17.4564675 6,16.86 L6,10.2090383 C6,9.93348617 6.10532534,9.66835514 6.29441486,9.46792025 L11.2144149,4.25272025 C11.6237231,3.81885356 12.3072514,3.79894497 12.7411181,4.20825317 C12.7563689,4.22264076 12.7711976,4.23746941 12.7855851,4.25272025 L17.7055851,9.46792025 C17.8946747,9.66835514 18,9.93348617 18,10.2090383 L18,16.86 C18,17.4564675 17.5164675,17.94 16.92,17.94 L14.4,17.94 L14.4,16.74" id="Path" stroke="#627382" stroke-width="0.7" stroke-linecap="round" stroke-linejoin="round"></path>
                                </g>
                            </g>
                        </g>
                    </g>
                </g>
            </g>
        </g>
    </g>
</svg>