<?xml version="1.0" encoding="UTF-8"?>
<svg width="67px" height="62px" viewBox="0 0 67 62" version="1.1" xmlns="http://www.w3.org/2000/svg" xmlns:xlink="http://www.w3.org/1999/xlink">
    <title>0986FF6D-3F2F-444D-A780-B9F13DD57158</title>
    <defs>
        <linearGradient x1="50.003653%" y1="100.013831%" x2="50.003653%" y2="0.00485949042%" id="linearGradient-1">
            <stop stop-color="#808080" stop-opacity="0.25" offset="0%"></stop>
            <stop stop-color="#808080" stop-opacity="0.12" offset="54%"></stop>
            <stop stop-color="#808080" stop-opacity="0.1" offset="100%"></stop>
        </linearGradient>
        <linearGradient x1="49.9976804%" y1="100.001505%" x2="49.9976804%" y2="-0.0135056733%" id="linearGradient-2">
            <stop stop-color="#808080" stop-opacity="0.25" offset="0%"></stop>
            <stop stop-color="#808080" stop-opacity="0.12" offset="54%"></stop>
            <stop stop-color="#808080" stop-opacity="0.1" offset="100%"></stop>
        </linearGradient>
        <linearGradient x1="50.0031015%" y1="99.9982817%" x2="50.0031015%" y2="-0.00171833116%" id="linearGradient-3">
            <stop stop-color="#808080" stop-opacity="0.25" offset="0%"></stop>
            <stop stop-color="#808080" stop-opacity="0.12" offset="54%"></stop>
            <stop stop-color="#808080" stop-opacity="0.1" offset="100%"></stop>
        </linearGradient>
        <linearGradient x1="49.9948145%" y1="99.9986356%" x2="49.9948145%" y2="-0.00919346259%" id="linearGradient-4">
            <stop stop-color="#808080" stop-opacity="0.25" offset="0%"></stop>
            <stop stop-color="#808080" stop-opacity="0.12" offset="54%"></stop>
            <stop stop-color="#808080" stop-opacity="0.1" offset="100%"></stop>
        </linearGradient>
        <linearGradient x1="50.0067568%" y1="99.9710145%" x2="50.0067568%" y2="-0.0289855072%" id="linearGradient-5">
            <stop stop-color="#808080" stop-opacity="0.25" offset="0%"></stop>
            <stop stop-color="#808080" stop-opacity="0.12" offset="54%"></stop>
            <stop stop-color="#808080" stop-opacity="0.1" offset="100%"></stop>
        </linearGradient>
        <linearGradient x1="49.9964552%" y1="99.9928459%" x2="49.9964552%" y2="-0.00802762243%" id="linearGradient-6">
            <stop stop-color="#000000" stop-opacity="0.12" offset="0%"></stop>
            <stop stop-color="#000000" stop-opacity="0.09" offset="55%"></stop>
            <stop stop-color="#000000" stop-opacity="0.02" offset="100%"></stop>
        </linearGradient>
        <linearGradient x1="49.9922122%" y1="99.9530713%" x2="49.9922122%" y2="-0.0400799968%" id="linearGradient-7">
            <stop stop-color="#808080" stop-opacity="0.25" offset="0%"></stop>
            <stop stop-color="#808080" stop-opacity="0.12" offset="54%"></stop>
            <stop stop-color="#808080" stop-opacity="0.1" offset="100%"></stop>
        </linearGradient>
        <linearGradient x1="49.870761%" y1="89.7388968%" x2="50.0723805%" y2="10.2617288%" id="linearGradient-8">
            <stop stop-color="#000000" stop-opacity="0.12" offset="0%"></stop>
            <stop stop-color="#000000" stop-opacity="0.09" offset="55%"></stop>
            <stop stop-color="#000000" stop-opacity="0.02" offset="100%"></stop>
        </linearGradient>
        <linearGradient x1="49.9970588%" y1="100.004697%" x2="49.9970588%" y2="0.00260124142%" id="linearGradient-9">
            <stop stop-color="#808080" stop-opacity="0.25" offset="0%"></stop>
            <stop stop-color="#808080" stop-opacity="0.12" offset="54%"></stop>
            <stop stop-color="#808080" stop-opacity="0.1" offset="100%"></stop>
        </linearGradient>
        <linearGradient x1="49.9957633%" y1="100.001834%" x2="49.9957633%" y2="0.00626914661%" id="linearGradient-10">
            <stop stop-color="#808080" stop-opacity="0.25" offset="0%"></stop>
            <stop stop-color="#808080" stop-opacity="0.12" offset="54%"></stop>
            <stop stop-color="#808080" stop-opacity="0.1" offset="100%"></stop>
        </linearGradient>
        <linearGradient x1="50.0096072%" y1="99.9912419%" x2="50.0096072%" y2="-0.0265487848%" id="linearGradient-11">
            <stop stop-color="#808080" stop-opacity="0.25" offset="0%"></stop>
            <stop stop-color="#808080" stop-opacity="0.12" offset="54%"></stop>
            <stop stop-color="#808080" stop-opacity="0.1" offset="100%"></stop>
        </linearGradient>
        <linearGradient x1="50%" y1="100%" x2="50%" y2="0%" id="linearGradient-12">
            <stop stop-color="#000000" stop-opacity="0.12" offset="0%"></stop>
            <stop stop-color="#000000" stop-opacity="0.09" offset="55%"></stop>
            <stop stop-color="#000000" stop-opacity="0.02" offset="100%"></stop>
        </linearGradient>
        <linearGradient x1="33.4478857%" y1="83.3546195%" x2="70.2468561%" y2="44.8089678%" id="linearGradient-13">
            <stop stop-color="#808080" stop-opacity="0.25" offset="0%"></stop>
            <stop stop-color="#808080" stop-opacity="0.12" offset="54%"></stop>
            <stop stop-color="#808080" stop-opacity="0.1" offset="100%"></stop>
        </linearGradient>
    </defs>
    <g id="Web" stroke="none" stroke-width="1" fill="none" fill-rule="evenodd">
        <g id="Airtime-Recharge" transform="translate(-1158.000000, -374.000000)">
            <g id="Group-4-Copy-3" transform="translate(1138.000000, 336.000000)">
                <g id="undraw_mail_2_tqip-(1)" transform="translate(22.000000, 38.000000)">
                    <path d="M1.62319677,36.7874868 C1.62319677,36.7874868 1.56116359,36.6234656 1.46081581,36.3183862" id="Path" stroke="#69F0AE" stroke-width="0.55"></path>
                    <path d="M1.19773824,35.3670635 C-0.788415693,27.690873 -6.98054268,-7.68685185 55.0926912,14.3985979" id="Path" stroke="#006848" stroke-width="2.55" stroke-dasharray="0.6621999979019165"></path>
                    <line x1="55.5575705" y1="14.562619" x2="56.0191818" y2="14.7266402" id="Path" stroke="#69F0AE" stroke-width="0.55"></line>
                    <path d="M48.4160769,41.8467196 C48.4169127,38.4094015 45.8116277,35.5360841 42.4023216,35.2142678 C38.9930155,34.8924516 35.8997641,37.2278644 35.2621983,40.6050794 L14.8704187,40.0498677 L15.0942797,43.5664815 C15.0942797,43.5664815 12.1865373,50.3011905 27.4687296,52.095582 L27.4687296,58.9024603 L45.1357772,58.9024603 L45.1357772,47.585 C47.1658762,46.3917719 48.4141457,44.208154 48.4160769,41.8467196 Z" id="Path" fill="url(#linearGradient-1)"></path>
                    <path d="M15.7944582,43.7141005 C15.7944582,43.7141005 13.0100845,50.1634127 27.645204,51.8839947 L27.645204,58.4054762 L44.5646864,58.4054762 L44.5646864,41.1340476 L15.5771333,40.3459259 L15.7944582,43.7141005 Z" id="Path" fill="#A1616A"></path>
                    <path d="M24.2505229,16.8006878 L24.2505229,16.8006878 C23.3321184,18.2554081 21.4157293,18.6925343 19.9612147,17.7790741 L10.8768685,11.7701587 C9.42763773,10.8482755 8.99216111,8.92462727 9.9021743,7.46460317 L9.9021743,7.46460317 C10.8204448,6.01187991 12.7343813,5.57498032 14.1882144,6.48621693 L23.2725606,12.4951323 C24.7229439,13.415937 25.1599323,15.3398124 24.2505229,16.8006878 L24.2505229,16.8006878 Z" id="Path" fill="url(#linearGradient-2)"></path>
                    <path d="M23.7472441,16.4718254 L23.7472441,16.4718254 C22.8935645,17.8240142 21.1122588,18.2303566 19.76023,17.3813228 L11.3131524,11.795582 C9.96606625,10.9386688 9.56125724,9.15061572 10.4070872,7.79346561 L10.4070872,7.79346561 C11.2607668,6.44127682 13.0420724,6.03493444 14.3941012,6.88396825 L22.8395448,12.4705291 C24.1867095,13.3268699 24.5922178,15.1144206 23.7472441,16.4718254 Z" id="Path" fill="#A1616A"></path>
                    <ellipse id="Oval" fill="#A1616A" cx="41.3521989" cy="42.0665079" rx="6.35389518" ry="6.37796296"></ellipse>
                    <rect id="Rectangle" fill="url(#linearGradient-3)" x="14.8671506" y="0" width="26.3420713" height="47.7268783" rx="0.67375"></rect>
                    <rect id="Rectangle" fill="#FFFFFF" x="15.2233675" y="0.64542328" width="25.6296376" height="46.437672" rx="0.7502"></rect>
                    <path d="M34.4770506,1.80915309 C34.3238503,2.82674469 33.4540614,3.58002745 32.4288038,3.58304233 L23.5773058,3.58304233 C22.5523583,3.5796236 21.6830289,2.8264384 21.529876,1.80915309 L16.8402324,1.80915309 C16.5820193,1.80915309 16.3343077,1.91174661 16.1516467,2.09494562 C15.9689858,2.27814462 15.8663549,2.52670816 15.8663549,2.78589947 L15.8663549,44.9393386 C15.8663549,45.1985298 15.9685612,45.4471798 16.1510689,45.6305326 C16.3335766,45.8138854 16.5812022,45.9169051 16.8394154,45.9169051 L39.2369572,45.9169051 C39.4951703,45.9169051 39.7428819,45.8143116 39.9255429,45.6311126 C40.1082038,45.4479136 40.2108347,45.19935 40.2108347,44.9401587 L40.2108347,2.78671958 C40.2108347,2.52752836 40.1086284,2.27887844 39.9261207,2.09552562 C39.743613,1.91217279 39.4959874,1.80915309 39.2377742,1.80915309 L34.4770506,1.80915309 Z" id="Path" fill="#006848"></path>
                    <rect id="Rectangle" fill="#DBDBDB" x="25.218681" y="2.36518519" width="5.71172447" height="1" rx="0.11"></rect>
                    <ellipse id="Oval" fill="#DBDBDB" cx="32.143667" cy="2.5087037" rx="1" ry="1"></ellipse>
                    <path d="M45.4601306,43.190873 L45.4601306,43.190873 C43.6161366,43.6189683 42.3505864,42.4117725 41.9241066,40.5616138 L37.6870872,24.7696561 C37.2655099,22.9123185 38.417035,21.0618003 40.2647571,20.6273016 L40.2647571,20.6273016 C42.1150859,20.2041275 43.958621,21.3600144 44.3914801,23.2147354 L47.849071,39.4118254 C48.2755508,41.2652646 47.3033076,42.7627778 45.4601306,43.190873 Z" id="Path" fill="url(#linearGradient-4)"></path>
                    <path d="M42.1078392,21.1332068 L43.9988497,21.1316359 C45.073844,21.1307429 45.9460229,22.0014741 45.9469159,23.0764684 C45.9469168,23.0775445 45.9469168,23.0786206 45.9469159,23.0796966 L45.9309549,42.3593708 C45.930066,43.4331045 45.0598562,44.3033168 43.9861225,44.3042087 L42.0951119,44.3057795 C41.0201177,44.3066725 40.1479387,43.4359414 40.1470457,42.3609471 C40.1470448,42.359871 40.1470448,42.3587949 40.1470457,42.3577188 L40.1630067,23.0780447 C40.1638956,22.0043109 41.0341054,21.1340987 42.1078392,21.1332068 Z" id="Rectangle" fill="#A1616A" transform="translate(43.046981, 32.718708) rotate(-13.010000) translate(-43.046981, -32.718708) "></path>
                    <rect id="Rectangle" fill="url(#linearGradient-5)" x="23.4964217" y="56.2715608" width="24.183528" height="5.65873016"></rect>
                    <rect id="Rectangle" fill="#B4C404" x="24.1500305" y="56.9276455" width="22.8763103" height="4.42857143"></rect>
                    <path d="M33.4337275,14.9570899 L31.559504,13.5407672 L32.3765151,12.4746296 L31.0129236,11.400291 L30.1607811,12.4844709 L28.2334519,11.0287831 C28.0826529,10.9151984 27.8752531,10.9151984 27.724454,11.0287831 L22.6156837,14.8463757 C22.4220521,15.0103968 22.2406757,15.1982011 22.2390416,15.6279365 L22.2333226,15.6279365 L22.2202483,21.5097354 L22.2202483,21.5097354 L22.2202483,21.7713492 C22.2198165,21.9414387 22.2867134,22.1047348 22.4062246,22.2253139 C22.5257358,22.345893 22.6880713,22.4138777 22.857519,22.4143122 L23.1091584,22.4143122 L27.9532171,22.4249735 L33.0497323,22.4364571 C33.2191799,22.4368906 33.3818598,22.3697402 33.5019839,22.2497764 C33.6221079,22.1298125 33.6898361,21.966862 33.6902689,21.7967725 L33.7041581,15.6640212 L33.7147793,15.6640212 C33.7147793,15.2334656 33.6273591,15.1211111 33.4337275,14.9570899 Z" id="Path" fill="url(#linearGradient-6)"></path>
                    <path d="M33.2115004,15.7534127 C33.2115004,15.3614021 33.1297993,15.2613492 32.954959,15.1096296 L28.2105756,11.5282275 C28.0728487,11.4244841 27.8834232,11.4244841 27.7456963,11.5282275 L23.0846481,15.012037 C22.856794,15.1754113 22.7274771,15.4439876 22.7415034,15.724709 L22.7366014,15.724709 L22.7243456,21.0914815 L22.7243456,21.0914815 L22.7243456,21.3301323 C22.7238942,21.6532063 22.9842042,21.9156033 23.3060581,21.9165079 L23.5356382,21.9165079 L27.9556682,21.9263492 L32.6052782,21.9370112 C32.9271331,21.9374643 33.1885399,21.6761683 33.1894412,21.3530952 L33.2016963,15.7575132 L33.2115004,15.7534127 Z" id="Path" fill="url(#linearGradient-7)"></path>
                    <path d="M22.815423,15.7578555 L33.0959223,15.7579439 L33.0959223,21.4355363 C33.0959223,21.5264537 33.0599433,21.613647 32.9958982,21.6779347 C32.9318531,21.7422224 32.8449888,21.7783376 32.7544146,21.7783376 L23.1953848,21.7782555 C23.0954931,21.7782546 22.9996923,21.7384217 22.9290576,21.6675194 C22.8584229,21.5966171 22.8187403,21.5004535 22.8187394,21.4001835 L22.8186911,15.7578555 L22.815423,15.7578555 Z" id="Path" fill="#006848" transform="translate(27.955673, 18.768097) rotate(0.130000) translate(-27.955673, -18.768097) "></path>
                    <path d="M22.815423,15.7578555 L33.0959223,15.7579439 L33.0959223,21.4355363 C33.0959223,21.5264537 33.0599433,21.613647 32.9958982,21.6779347 C32.9318531,21.7422224 32.8449888,21.7783376 32.7544146,21.7783376 L23.1953848,21.7782555 C23.0954931,21.7782546 22.9996923,21.7384217 22.9290576,21.6675194 C22.8584229,21.5966171 22.8187403,21.5004535 22.8187394,21.4001835 L22.8186911,15.7578555 L22.815423,15.7578555 Z" id="Path" fill="#FFFFFF" opacity="0.2" transform="translate(27.955673, 18.768097) rotate(0.130000) translate(-27.955673, -18.768097) "></path>
                    <path d="M22.8232046,15.7443915 L22.8117647,20.9594444 C22.8113326,21.1719475 22.8950147,21.37592 23.0444037,21.52649 C23.1937926,21.67706 23.396651,21.7618935 23.6083522,21.762328 L32.292363,21.7820106" id="Path" fill="#B4C404"></path>
                    <path d="M33.104472,15.7673545 L33.0930338,20.9856878 C33.0926009,21.1981909 33.0080875,21.4018178 32.8580857,21.5517725 C32.7080839,21.7017273 32.5048812,21.7857265 32.29318,21.7852927 L23.6091692,21.7656085" id="Path" fill="#B4C404"></path>
                    <path d="M27.7448793,11.6643651 L23.1696173,15.0514021 C22.9462456,15.209075 22.8189008,15.47061 22.8321917,15.7443915 L33.1175442,15.7771958 C33.1175442,15.3958466 33.0358431,15.2957937 32.8659048,15.151455 L28.2048565,11.6660053 C28.0689457,11.5628686 27.8815167,11.5622003 27.7448793,11.6643651 L27.7448793,11.6643651 Z" id="Path" fill="#006848"></path>
                    <path d="M27.7448793,11.6643651 L23.1696173,15.0514021 C22.9462456,15.209075 22.8189008,15.47061 22.8321917,15.7443915 L33.1175442,15.7771958 C33.1175442,15.3958466 33.0358431,15.2957937 32.8659048,15.151455 L28.2048565,11.6660053 C28.0689457,11.5628686 27.8815167,11.5622003 27.7448793,11.6643651 L27.7448793,11.6643651 Z" id="Path" fill="#000000" opacity="0.2"></path>
                    <polygon id="Path" fill="url(#linearGradient-8)" points="31.9908859 12.8428571 30.746578 11.8636508 27.7391602 15.6869841 26.1231123 14.4289418 25.1108356 15.7206085 27.4630105 17.5240212 27.4630105 17.5240212 28.0463564 17.9939418"></polygon>
                    <polygon id="Path" fill="#B4C404" points="31.8993807 12.8190741 30.7719054 11.9514021 27.7840958 15.8624868 26.1247463 14.585582 25.2595316 15.717328 27.4826187 17.4264286 27.4826187 17.4264286 28.0528925 17.8553439"></polygon>
                    <path d="M22.2995004,25.4076984 L22.2995004,25.4076984 C21.3877805,26.8514288 19.4857654,27.2852258 18.0420557,26.3787037 L10.321301,21.3325926 C8.8830186,20.4174192 8.45085857,18.5081994 9.35395987,17.0590212 L9.35395987,17.0590212 C10.2656798,15.6152907 12.167695,15.1814937 13.6114046,16.0880159 L21.3321593,21.134127 C22.7704417,22.0493004 23.2026018,23.9585202 22.2995004,25.4076984 Z" id="Path" fill="url(#linearGradient-9)"></path>
                    <path d="M21.8893609,25.1419841 L21.8893609,25.1419841 C21.0356813,26.4941729 19.2543756,26.9005153 17.9023468,26.0514815 L10.6709817,21.3252116 C9.32389554,20.4682984 8.91908653,18.6802453 9.76491644,17.3230952 L9.76491644,17.3230952 C10.6185961,15.9709064 12.3999017,15.5645641 13.7519305,16.4135979 L20.9832956,21.1398677 C22.3303818,21.996781 22.7351908,23.784834 21.8893609,25.1419841 Z" id="Path" fill="#A1616A"></path>
                    <path d="M20.7243031,33.7416138 L20.7243031,33.7416138 C19.8170556,35.1790417 17.9235791,35.6110573 16.4864666,34.7085185 L10.393198,30.7515079 C8.96119426,29.8408239 8.53080892,27.9401752 9.4299419,26.497619 L9.4299419,26.497619 C10.3371894,25.0601911 12.2306658,24.6281755 13.6677784,25.5307143 L19.76023,29.488545 C21.1920241,30.3989261 21.6227308,32.2990157 20.7243031,33.7416138 Z" id="Path" fill="url(#linearGradient-10)"></path>
                    <path d="M19.1948583,42.1181746 L19.1948583,42.1181746 C18.2795251,43.5687897 16.3688095,44.0048547 14.9186223,43.0941005 L11.1448482,40.3303439 C9.6997071,39.4115435 9.26528762,37.4935904 10.172605,36.0379101 L10.172605,36.0379101 C11.089012,34.5884513 12.9995018,34.1539034 14.448841,35.0652646 L18.2226152,37.8282011 C19.6662636,38.7469011 20.1005136,40.6630071 19.1948583,42.1181746 L19.1948583,42.1181746 Z" id="Path" fill="url(#linearGradient-11)"></path>
                    <path d="M18.8901132,41.912328 L18.8901132,41.912328 C18.0364336,43.2645168 16.2551279,43.6708592 14.9030991,42.8218254 L11.3842324,40.2450529 C10.0371462,39.3881397 9.6323372,37.6000866 10.4781671,36.2429365 L10.4781671,36.2429365 C11.3318467,34.8907477 13.1131524,34.4844053 14.4651812,35.3334392 L17.9840479,37.9102116 C19.3311341,38.7671249 19.7359431,40.5551779 18.8901132,41.912328 Z" id="Path" fill="#A1616A"></path>
                    <rect id="Rectangle" fill="url(#linearGradient-12)" x="19.7046733" y="26.536164" width="16.6670261" height="5.0026455"></rect>
                    <rect id="Rectangle" fill="#69F0AE" x="20.276581" y="27.0282275" width="15.5232105" height="3.60846561"></rect>
                    <polygon id="Path" fill="url(#linearGradient-13)" points="64.6443678 17.5929101 64.9376748 17.638836 64.8919221 17.5953704 64.9164325 17.5953704 64.8780329 17.5822487 59.5601078 12.5197354 58.2692303 14.5642593 57.1956777 16.4291799 57.6932375 16.5070899 57.4726445 17.5174603"></polygon>
                    <polygon id="Path" fill="#006848" points="58.4922743 14.670873 57.511861 16.3775132 64.7015586 17.5527249 60.0707397 14.3157672"></polygon>
                    <polygon id="Path" fill="#000000" opacity="0.2" points="58.4922743 14.670873 57.511861 16.3775132 64.7015586 17.5527249 60.0707397 14.3157672"></polygon>
                    <polygon id="Path" fill="#006848" points="59.6728553 12.8010317 64.7015586 17.5527249 58.4922743 14.670873"></polygon>
                    <polygon id="Path" fill="#006848" points="57.7765726 17.3805026 64.6819503 17.5125397 58.2357329 15.2146032"></polygon>
                    <path d="M20.3893285,33.5275661 L20.3893285,33.5275661 C19.5356489,34.8797549 17.7543433,35.2860973 16.4023145,34.4370635 L10.6701647,30.7137831 C9.32307853,29.8568698 8.91826952,28.0688168 9.76409943,26.7116667 L9.76409943,26.7116667 C10.6164357,25.3580316 12.3980245,24.9497924 13.7511135,25.7980688 L19.4832633,29.5213492 C20.8329385,30.3784276 21.2379323,32.1695632 20.3893285,33.5275661 L20.3893285,33.5275661 Z" id="Path" fill="#A1616A"></path>
                </g>
            </g>
        </g>
    </g>
</svg>