<?xml version="1.0" encoding="UTF-8"?>
<svg width="27px" height="60px" viewBox="0 0 27 60" version="1.1" xmlns="http://www.w3.org/2000/svg" xmlns:xlink="http://www.w3.org/1999/xlink">
    <title>F3D0C6E2-D7ED-4ADA-8758-EA441B587B85</title>
    <g id="Web" stroke="none" stroke-width="1" fill="none" fill-rule="evenodd">
        <g id="Prepaid-Plans" transform="translate(-893.000000, -373.000000)">
            <g id="Group-4-Copy-2" transform="translate(852.000000, 339.000000)">
                <g id="undraw_i_can_fly_7egl-copy" transform="translate(41.000000, 34.000000)">
                    <path d="M11.7749069,13 C11.881609,12.4823616 12.0274338,11.97249 12.2112784,11.4742415 C12.4004022,10.989391 12.6395998,10.5757582 12.9062593,10.5757582 C13.5527466,10.5757582 10.6435545,8 10.6435545,8 C10.6435545,8 10.4609404,8.31817806 10.1586894,8.74696884 C9.93536094,9.06710951 9.69365074,9.37564345 9.43462659,9.6712076 C9.08980692,10.0797056 8.67985498,10.435913 8.21922243,10.7272726 C6.92625319,11.4848488 11.7749069,13 11.7749069,13 Z" id="Path" fill="#A0616A"></path>
                    <path d="M22.7218956,24 C22.7218956,24 28.4197125,28.2370125 26.6640961,28.9332281 C24.9084798,29.6294437 22,24.6517092 22,24.6517092 L22.7218956,24 Z" id="Path" fill="#A0616A"></path>
                    <path d="M14.5918859,16.1044182 C14.5918859,16.1044182 17.945132,18.2779977 18.9251168,19.9314315 C19.9051016,21.5848652 25,25.259112 25,25.259112 C25,25.259112 23.9480966,27.1066134 23.4395413,26.995152 C22.9309859,26.8836907 12.4462881,19.9501105 11.3432396,19.3886576 C10.2401911,18.8272046 11.9213837,15.3592736 14.5918859,16.1044182 Z" id="Path" fill="#006848"></path>
                    <path d="M14.5918859,16.1044182 C14.5918859,16.1044182 17.945132,18.2779977 18.9251168,19.9314315 C19.9051016,21.5848652 25,25.259112 25,25.259112 C25,25.259112 23.9480966,27.1066134 23.4395413,26.995152 C22.9309859,26.8836907 12.4462881,19.9501105 11.3432396,19.3886576 C10.2401911,18.8272046 11.9213837,15.3592736 14.5918859,16.1044182 Z" id="Path" fill="#006848" opacity="0.1"></path>
                    <path d="M21.5033753,20 C21.5033753,20 27.1663467,21.9330172 25.7820648,22.8350918 C24.397783,23.7371664 21,20.6443394 21,20.6443394 L21.5033753,20 Z" id="Path" fill="#A0616A"></path>
                    <path d="M19.3329965,51.4516387 C19.3329965,51.4516387 22.2881255,50.0684949 21.9770588,52.1432111 C21.6659921,54.2179272 20.2661947,56.1197522 20.2661947,57.1571103 C20.2661947,58.1944683 17.6221325,60.4420789 17.1555324,59.9233999 C16.6889323,59.4047209 17.9331982,57.3300036 17.6221325,56.1197522 C17.3110667,54.9095007 17,52.1432111 17,52.1432111 L19.3329965,51.4516387 Z" id="Path" fill="#55536E"></path>
                    <path d="M19.3329965,51.4516387 C19.3329965,51.4516387 22.2881255,50.0684949 21.9770588,52.1432111 C21.6659921,54.2179272 20.2661947,56.1197522 20.2661947,57.1571103 C20.2661947,58.1944683 17.6221325,60.4420789 17.1555324,59.9233999 C16.6889323,59.4047209 17.9331982,57.3300036 17.6221325,56.1197522 C17.3110667,54.9095007 17,52.1432111 17,52.1432111 L19.3329965,51.4516387 Z" id="Path" fill="#000000" opacity="0.1"></path>
                    <path d="M16.3329961,51.4516391 C16.3329961,51.4516391 19.2881246,50.0684943 18.9770589,52.1432115 C18.6659933,54.2179286 17.2661952,56.1197524 17.2661952,57.1571104 C17.2661952,58.1944684 14.6221324,60.4420789 14.1555333,59.9233999 C13.6889343,59.4047209 14.9331991,57.3300038 14.6221324,56.1197524 C14.3110657,54.909501 14,52.1432115 14,52.1432115 L16.3329961,51.4516391 Z" id="Path" fill="#55536E"></path>
                    <path d="M8.03012945,40 C8.03012945,40 20.4091963,49.4545458 19.9895676,50.2987009 C19.5699388,51.142856 16.8423471,53 16.8423471,53 C16.8423471,53 7.40068563,43.0389609 8.03012945,40 Z" id="Path" fill="#3F3D56"></path>
                    <path d="M8.03012945,40 C8.03012945,40 20.4091963,49.4545458 19.9895676,50.2987009 C19.5699388,51.142856 16.8423471,53 16.8423471,53 C16.8423471,53 7.40068563,43.0389609 8.03012945,40 Z" id="Path" fill="#000000" opacity="0.1"></path>
                    <path d="M6.32667536,24.3433588 C6.32667536,24.3433588 8.62984865,26.6610161 8.01566904,31.1418198 C7.40148943,35.6226235 8.4763035,39.9489174 9.70466272,41.3395111 C10.9330219,42.7301049 16,50.7646508 16,50.7646508 C16,50.7646508 13.8503719,54.318391 12.1613782,52.464266 C10.4723845,50.610141 5.40540346,43.0391264 5.40540346,43.0391264 C5.40540346,43.0391264 0.799059855,33.9230082 0.338425395,31.4508403 C-0.122209064,28.9786723 -0.275754215,25.1159136 0.952605006,24.3433578 C2.18096423,23.5708021 6.32667536,24.3433588 6.32667536,24.3433588 Z" id="Path" fill="#3F3D56"></path>
                    <path d="M10,8.95705282 C11.6088151,9.38411152 11.4490357,9.46705239 12.4380167,9.91176457 C12.4435263,9.89058747 12.4490358,9.87294085 12.4545453,9.85529307 C12.6060612,9.39294112 12.7011016,10 12.9201104,10 C13.4710738,10 10.9917349,7 10.9917349,7 C10.9917349,7 10.8980714,7.22235323 10.7369143,7.55588194 C10.6887047,7.65294126 10.6363635,7.75882331 10.5785119,7.86999993 C10.5303023,7.96352878 10.4779611,8.06235333 10.4228642,8.16470606 L10,8.95705282 Z" id="Path" fill="#006848" opacity="0.1"></path>
                    <circle id="Oval" fill="#A0616A" cx="13.5" cy="6.5" r="2.5"></circle>
                    <path d="M8.18011461,11 C8.18011461,11 12.9245812,11.4848483 13.9061957,13.5858579 C14.8878102,15.6868675 7.85291049,25.868687 7.36210273,26.0303024 C6.87129496,26.1919178 0,27 0,27 C0,27 0.327204118,16.6565652 6.70769131,12.7777778 C6.70769449,12.7777778 8.18011461,12.131313 8.18011461,11 Z" id="Path" fill="#006848"></path>
                    <path d="M10.5855839,12.004881 C10.5855839,12.004881 14.0733223,13.4505243 15.3415909,14.8961687 C16.6098596,16.3418131 22,18.9118461 22,18.9118461 C22,18.9118461 21.5243995,21 21.048799,21 C20.5731985,21 9.63438187,16.3418121 8.52464703,16.0205583 C7.41491219,15.6993046 8.04904653,11.8442536 10.5855839,12.004881 Z" id="Path" fill="#006848"></path>
                    <path d="M14.5452932,5.75975605 C14.5452932,5.75975605 15.2720581,4.77855587 13.8185282,3.99359597 C13.8185282,3.99359597 15.2720581,3.20863608 15.5627635,2.03119688 C15.853469,0.853757676 16.8709403,-1.10864269 17.7430575,2.03119688 C18.6151747,5.17103645 20.2140569,9.29207493 14.9813518,9.29207493 C14.9813518,9.29207493 13.6731759,9.68455424 13.6731759,8.11463573 C13.6731759,7.18811636 13.9962825,6.31566783 14.5452932,5.75975605 L14.5452932,5.75975605 Z" id="Path" fill="#3F3D56" transform="translate(16.173176, 4.835684) rotate(-9.000000) translate(-16.173176, -4.835684) "></path>
                </g>
            </g>
        </g>
    </g>
</svg>