<?xml version="1.0" encoding="UTF-8"?>
<svg width="48px" height="41px" viewBox="0 0 48 41" version="1.1" xmlns="http://www.w3.org/2000/svg" xmlns:xlink="http://www.w3.org/1999/xlink">
    <title>20D539DC-F4AA-4673-B143-BA0C696ED0F0</title>
    <defs>
        <linearGradient x1="50.0016081%" y1="100.000291%" x2="50.0016081%" y2="-0.00295697249%" id="linearGradient-1">
            <stop stop-color="#808080" stop-opacity="0.25" offset="0%"></stop>
            <stop stop-color="#808080" stop-opacity="0.12" offset="54%"></stop>
            <stop stop-color="#808080" stop-opacity="0.1" offset="100%"></stop>
        </linearGradient>
    </defs>
    <g id="Web" stroke="none" stroke-width="1" fill="none" fill-rule="evenodd">
        <g id="Prepaid-Plans" transform="translate(-589.000000, -711.000000)">
            <g id="Group-4-Copy-5" transform="translate(564.000000, 662.000000)">
                <g id="undraw_businessman_97x4-(1)-copy" transform="translate(25.000000, 49.000000)">
                    <path d="M25.0782741,6.28615412 C22.6420968,6.19981143 20.3219279,5.39620026 18.1075913,4.51768941 C15.8932547,3.63917856 13.6962176,2.66444242 11.3185533,2.19631941 C9.78907357,1.89672068 8.04029717,1.85406947 6.80796186,2.69200966 C5.62243697,3.49874165 5.23879502,4.89114755 5.0332362,6.18316706 C4.88059351,7.15530252 4.78697266,8.17841137 5.21182814,9.08813042 C5.50642853,9.72009649 6.02999295,10.251156 6.39175613,10.8565951 C7.65156712,12.9621084 6.76115143,15.5586307 5.39601699,17.614731 C4.75593531,18.5790644 4.01307423,19.4991862 3.51902072,20.5274964 C3.02496722,21.5558066 2.79600319,22.7302753 3.2284908,23.7778305 C3.65690795,24.8181039 4.67808754,25.5951881 5.78423822,26.1439323 C8.0311386,27.2575449 10.6784716,27.5763887 13.2601683,27.756356 C18.9751106,28.155821 24.7200726,27.9831356 30.4502791,27.8083697 C32.5704861,27.7438727 34.7003604,27.6788556 36.7864771,27.3438876 C37.9450351,27.1576787 39.141245,26.8622411 39.9823062,26.1475733 C41.050805,25.2420153 41.3143681,23.7091725 40.5989827,22.5737141 C39.3987023,20.6694937 36.0812679,20.1961694 35.2422419,18.1525523 C34.7807522,17.0274967 35.2549622,15.7744874 35.9255724,14.7316134 C37.3649929,12.4950257 39.7772562,10.5299493 39.9044585,7.96983656 C39.9919736,6.21333499 38.8318892,4.4537126 37.0388464,3.62201405 C35.1593061,2.75078511 32.5526778,2.86053395 31.1661733,4.30287296 C29.7384554,5.79150414 27.2290096,6.36261421 25.0782741,6.28615412 Z" id="Path" fill="#006848" opacity="0.1"></path>
                    <ellipse id="Oval" fill="#006848" opacity="0.1" cx="19.5" cy="39" rx="15.5" ry="2"></ellipse>
                    <path d="M22.9711259,10.6870591 C22.9711259,10.6870591 22.5112214,9.74011209 22.5732914,9.45862863 C22.6353614,9.17714518 22.2497454,8.57593323 22.2497454,8.57593323 L22.2746711,7.57850273 C22.2746711,7.57850273 22.2213985,7.68048949 21.9437941,7.7697279 C21.9203345,7.73760207 21.8949201,7.70598618 21.8685281,7.67590008 C21.7680013,7.5666705 21.6562163,7.46936281 21.5352073,7.38574775 L21.0464672,6.28531062 L20.5738554,5.53009867 C20.5738554,5.53009867 19.8285267,3.9493039 19.058761,3.60050918 L18.9375534,3.35319129 C18.9458217,3.34809304 18.9490006,3.33725834 18.9448845,3.32820454 L18.821722,3.07680717 C18.8171679,3.06780274 18.8068315,3.06384103 18.7977737,3.06762837 L18.6799874,2.82693961 C18.6350013,2.51502485 18.5175463,2.21933336 18.3378693,1.96566143 C18.3256508,1.94781375 18.3124548,1.93149587 18.2997475,1.91466805 L18.4913337,1.90752898 C18.6594603,1.90089984 18.8471365,1.88560183 18.9600355,1.75454884 C19.0004969,1.70570235 19.0303422,1.64829448 19.04752,1.58627069 C19.0620484,1.53766432 19.0715514,1.4875758 19.0758669,1.43686009 C19.0758669,1.42921108 19.0758669,1.42156207 19.0758669,1.414423 C19.0758669,1.39708525 19.0758669,1.38008746 19.0758669,1.36342962 C19.0758669,1.34966141 19.0758669,1.33640313 19.0758669,1.32263492 C19.0758669,1.3088667 19.0758669,1.30070776 19.0758669,1.28999915 C19.0758669,1.27929054 19.0704907,1.25481372 19.0675583,1.23900577 C19.0675583,1.23237663 19.0675583,1.22574749 19.0636484,1.21911836 C19.0595751,1.19914251 19.0545181,1.1793989 19.0484974,1.15996603 C19.0470677,1.15615485 19.0459239,1.15223357 19.0450763,1.14823756 C19.0382339,1.12784021 19.0309028,1.10744285 19.0225942,1.08755544 C19.0212502,1.08493376 19.0201063,1.08220567 19.019173,1.07939649 C19.0103757,1.05950908 19.0006009,1.04013159 18.9903374,1.02126404 L18.9874049,1.01514484 L18.9874049,1.01514484 C18.9838085,1.00723004 18.9797273,0.999565163 18.9751864,0.992197816 C18.8427378,0.774966019 18.6100975,0.647992503 18.3886982,0.533257399 C18.182101,0.419924944 17.9700311,0.317802135 17.753336,0.227297121 C16.9476195,-0.0879652736 16.0576268,-0.0748558217 15.2607613,0.264012355 C15.1820576,0.29510647 15.1074897,0.336577729 15.0388733,0.387416333 C14.9432296,0.471885791 14.8615039,0.572142213 14.7969469,0.684197803 L14.4181733,1.268072 C14.3652446,1.33909814 14.3238064,1.41867843 14.2954995,1.50366141 C14.2246322,1.7810654 14.4470089,2.05897932 14.4220832,2.34505218 C14.409376,2.48732371 14.3360649,2.61786676 14.3218915,2.76013829 C14.3038081,2.94371445 14.3854277,3.12066148 14.4650923,3.28638997 L15.0071052,4.40824432 C14.9782695,4.55561518 14.9465014,4.70655559 14.9118008,4.85239665 L14.9118008,4.85239665 C14.6620546,5.1216417 14.5779913,5.26850263 14.5550205,5.3480523 L14.5476894,5.35213177 L14.5476894,5.35213177 C14.498226,5.38546055 14.4556794,5.42881167 14.4225719,5.47961522 L13.9074398,6.00178743 C13.9074398,6.00178743 13.0120679,6.24451592 12.8258579,6.552006 C12.8258579,6.552006 11.42073,6.48775434 11.4329485,8.53513853 C11.4329485,8.53513853 11.3708785,9.30309883 11.3352004,9.40559552 C11.2995224,9.50809221 11.3352004,10.5442777 11.3352004,10.5442777 L11.3185833,12.6431652 C11.3185833,12.6431652 11.2648218,13.7563507 11.3185833,14.1530792 C11.3723447,14.5498077 11.4344147,16.0597216 11.4344147,16.0597216 C11.4344147,16.0597216 11.7701792,17.5313906 11.6460392,18.0561124 C11.5267866,18.5583972 11.6460392,19.6567946 11.8415352,19.661384 C11.8786795,19.7414436 11.9211999,19.7807085 11.9676302,19.7582715 C11.9878401,19.7491332 12.0085692,19.7412995 12.0297002,19.7348145 L12.0297002,20.9887417 C12.0297002,20.9887417 11.7877738,22.7454636 12.0590246,23.0794703 C11.8791682,23.3466756 11.6680325,23.8025564 11.614271,23.9223908 L9.71307188,23.8158147 L9.4711455,23.8866955 L9.4711455,23.8866955 L9.24925748,23.9514571 L9.11485393,27.1778082 L9.16861535,27.1818877 L9.16470543,27.2803049 L9.29177787,27.2899936 L9.11485393,30.5392918 L11.7467196,30.7651924 C11.6308882,31.0359673 11.4964847,31.3261196 11.4441895,31.354166 C11.3464414,31.4051594 11.1333507,31.2521792 11.0834992,31.315411 C11.0336478,31.3786428 10.884582,31.4561527 10.7105905,31.4173978 C10.536599,31.3786428 10.4246775,31.5836362 10.4246775,31.5836362 C10.4246775,31.5836362 10.450092,31.6070931 10.4882137,31.6504375 C10.2057219,31.6147421 9.8484529,31.7728216 9.65442306,31.8748084 C9.56742731,31.9207024 9.51317715,31.954868 9.51317715,31.954868 L9,31.954868 L9.28200307,33.8319343 L9.48092031,33.9736959 L9.52979432,35.4525039 C9.52979432,35.4525039 10.3254633,38.0118616 10.6900634,37.9950338 C10.7379675,37.9932619 10.7827551,37.9698039 10.8127372,37.9307821 C11.0082333,37.6951927 10.8728522,36.8859278 10.8728522,36.8859278 L10.8728522,35.5386827 C10.8728522,35.5386827 11.1709837,35.4020205 11.1377494,35.2995238 C11.1045151,35.1970271 11.6186697,34.0756826 11.6646113,33.9736959 C11.6672915,33.9719694 11.6688056,33.96881 11.6685212,33.9655369 C11.6685212,33.8502919 11.8923642,33.7222985 11.8796569,33.6713051 C11.8669497,33.6203118 12.4270459,33.3000733 12.4661451,33.0185899 C12.5052443,32.7371064 12.8761981,32.8905965 12.8761981,32.8905965 L13.3483211,32.32457 C13.3624946,33.0145104 13.3893753,33.4974177 13.4358056,33.6198018 C13.6596486,34.2087754 13.7466443,35.1302257 13.7466443,35.1302257 C13.7466443,35.1302257 13.6097971,35.8339344 13.7466443,36.0644245 C13.8307076,36.2051662 14.0262037,36.3561066 14.1620734,36.4810404 C14.0208275,36.9277424 14.0408659,37.8772391 14.0408659,37.8772391 L14.0408659,38.4228683 L15.0853036,38.7288285 C15.0853036,38.7288285 15.1180492,38.456014 15.1679007,38.456014 C15.2177522,38.456014 15.8809725,38.9848153 15.8809725,38.9848153 C15.8809725,38.9848153 18.4341511,39.0189809 19.0802655,38.9848153 C19.3246356,38.972067 19.3911043,38.8624312 19.3534713,38.7298484 C19.2914013,38.5090471 18.9429296,38.2229742 18.6330683,38.2010471 C18.1355308,38.1668815 17.5055448,37.6212523 17.5055448,37.6212523 C17.5055448,37.6212523 17.5544188,37.5014179 17.2900104,37.3311 C17.1072216,37.2138152 16.6013755,36.7390669 16.2885818,36.4611529 C16.303244,36.4402457 16.318395,36.4193384 16.3325684,36.3969013 C16.3325684,36.3969013 15.9098082,35.7849807 15.9972927,35.513696 C16.0847772,35.2424112 15.9596597,34.850782 15.9596597,34.850782 C15.9596597,34.850782 15.7235982,34.0955701 15.7235982,33.7115899 C15.7235982,33.4683515 15.6884089,32.0849011 15.6629944,31.1037885 L15.8809725,31.122656 L15.8853712,31.0247487 L15.9831192,31.0339276 L16.9073268,31.122656 L16.8789799,30.0920798 C17.3242222,29.8881063 17.6946872,29.6989209 17.8481516,29.5780666 C18.3701261,29.1701195 18.8178121,29.143093 18.8178121,29.143093 C18.8178121,29.143093 19.8744683,28.5546294 20.0362413,28.311391 C20.1980143,28.0681526 20.1828633,26.3022519 20.1828633,26.3022519 L20.0958676,22.5175232 L20.0958676,22.5144636 C20.0958676,22.5144636 20.0215791,20.6848212 19.8720246,20.2880927 C19.8172857,20.1412317 19.6819047,19.6516953 19.5338164,19.0928078 C19.6189299,19.0836616 19.7048647,19.0874404 19.7889388,19.1040264 C19.7943149,19.2406886 19.7977361,19.3345165 19.7977361,19.3666423 C19.7977361,19.5838741 20.0958676,19.7684701 20.0958676,19.7684701 L19.8847318,14.8731057 L19.8847318,11.5427281 C20.5357337,11.75894 22.1099657,11.8262513 22.1099657,11.8262513 C23.2443316,11.7640393 22.9711259,10.6870591 22.9711259,10.6870591 Z M16.8309572,6.4811252 L16.8271735,6.4811252 C16.8527356,6.35278299 16.8861244,6.22593873 16.9271735,6.10122452 L16.8309572,6.4811252 Z M12.5580283,23.2717153 C12.9436443,23.3380067 13.3888865,23.3186292 13.4226096,23.2406093 C13.4260308,23.2329603 13.4304294,23.2191921 13.4362943,23.2013444 C13.4485128,23.2237815 13.4602426,23.2467286 13.4724611,23.2701855 L13.4348281,24.0085696 L13.4348281,24.0253975 L12.1641037,23.9540067 C12.2530544,23.558808 12.421181,23.3660531 12.5580283,23.2717153 Z M16.7939391,26.9972916 L16.7611935,25.8014969 C16.8178874,25.5812055 16.8687164,25.3813114 16.9122142,25.2099737 C16.9317639,25.3522452 16.948381,25.4832982 16.9610883,25.6041525 C17.0813183,26.7387552 16.9039057,26.9600665 16.7939391,26.9972916 Z M20.4106162,9.06903921 C20.3377939,9.09810544 20.0606783,8.91605908 19.7977361,8.72738357 C19.7977361,8.69270807 19.8001798,8.65854251 19.801646,8.62539681 C19.8387903,7.84468817 18.6203611,7.35872126 18.2474523,7.26897291 C18.1569602,7.24460441 18.0691605,7.21042269 17.9854876,7.16698615 C17.786808,7.06431095 17.5936327,6.95042721 17.4068193,6.82584044 L17.4117067,6.81105236 C17.4117067,6.81105236 16.9307864,6.49336361 16.9205228,6.09714505 C17.0301209,5.73675885 17.1684281,5.38657257 17.333997,5.05025097 C17.3432831,5.03036355 17.3535466,5.00945626 17.3633214,4.98956884 C17.5906023,4.91581567 17.8027431,4.79857461 17.9889088,4.64383373 C18.063686,5.66370132 19.4781,6.54129739 19.4781,6.54129739 L19.6291207,6.79626428 L19.6647988,6.85643647 C19.5885553,6.90335038 19.5518998,6.94108548 19.577803,6.96301264 C19.6853258,7.05276098 19.9453356,7.56065505 20.0528584,7.77533717 C20.0821828,7.83346963 20.1017325,7.86967493 20.1017325,7.86967493 C20.1017325,7.86967493 20.3329065,8.52595972 20.4653551,9.07515842 C20.4477531,9.06749033 20.4283853,9.06536321 20.4096387,9.06903921 L20.4106162,9.06903921 Z" id="Shape" fill="url(#linearGradient-1)" fill-rule="nonzero"></path>
                    <path d="M21,6.00908625 L20.9834182,6.03425053 L20.9268449,6.12092753 L19.8417106,7 L19.6115158,6.56605583 L19.4652056,6.28645262 C19.4652056,6.28645262 17.3022525,4.79896358 18.232298,3.36515835 C19.1623434,1.93135313 20.5366842,5.18257918 20.5366842,5.18257918 L21,6.00908625 Z" id="Path" fill="#FFC5D3"></path>
                    <rect id="Rectangle" fill="#3A3768" transform="translate(46.884383, 7.615788) rotate(-26.730000) translate(-46.884383, -7.615788) " x="46.3843831" y="7.11578847" width="1" height="1" rx="0.0475"></rect>
                    <rect id="Rectangle" fill="#3A3768" transform="translate(43.792143, 8.486367) rotate(-26.730000) translate(-43.792143, -8.486367) " x="43.2921431" y="7.98636667" width="1" height="1" rx="0.02625"></rect>
                    <rect id="Rectangle" fill="#3A3768" transform="translate(44.002072, 8.907731) rotate(-26.730000) translate(-44.002072, -8.907731) " x="43.5020725" y="8.40773128" width="1" height="1" rx="0.03"></rect>
                    <rect id="Rectangle" fill="#3A3768" transform="translate(44.274453, 9.448146) rotate(-26.730000) translate(-44.274453, -9.448146) " x="43.7744533" y="8.94814562" width="1" height="1" rx="0.02875"></rect>
                    <path d="M18.6638307,2.85197523 L19.3865201,2.84749723 C19.5411569,2.84653905 19.6672915,2.97112016 19.6682497,3.12575692 C19.6682568,3.12690827 19.6682568,3.12805965 19.6682498,3.129211 L19.6555355,5.19997199 C19.6545943,5.35326163 19.5305653,5.47729764 19.3772757,5.47824747 L18.6545863,5.48272547 C18.4999495,5.48368364 18.3738149,5.35910253 18.3728568,5.20446577 C18.3728496,5.20331443 18.3728496,5.20216305 18.3728567,5.2010117 L18.385571,3.13025071 C18.3865121,2.97696106 18.5105411,2.85292506 18.6638307,2.85197523 Z" id="Rectangle" fill="#3A3768" transform="translate(19.020553, 4.165111) rotate(-26.730000) translate(-19.020553, -4.165111) "></path>
                    <path d="M18.771428,3.07068847 C18.7607976,3.07680822 18.752728,3.08763646 18.7490323,3.1007403 C18.7453366,3.11384415 18.7463246,3.1281247 18.7517744,3.14037343 L18.7557051,3.15008363 C18.761175,3.16241721 18.7621756,3.17678132 18.7584841,3.18997736 C18.7547926,3.20317339 18.7467156,3.21410567 18.7360515,3.22033978 L18.2633825,3.49679487 C18.2528461,3.50313032 18.2405619,3.50427891 18.2292899,3.49998257 C18.2180179,3.49568623 18.2087033,3.48630525 18.2034391,3.47394734 L18.199017,3.46423714 C18.1937402,3.45188993 18.1844599,3.44248569 18.173218,3.43809371 C18.1619761,3.43370172 18.1496938,3.43468185 18.1390736,3.44081842 L18.047193,3.4950813 C18.0268497,3.5067204 18.0113828,3.52737431 18.0042683,3.55240134 C17.9971537,3.57742837 17.9989884,3.60472914 18.0093598,3.62816815 L19.0136585,5.94547869 C19.0351138,5.99432465 19.0864183,6.01395048 19.1286321,5.98946018 L19.9531004,5.50680615 C19.995118,5.48186421 20.0120003,5.42222207 19.9909336,5.37314811 L18.9861435,3.0546952 C18.9759329,3.03111774 18.9580734,3.01323087 18.9365044,3.00497996 C18.9149354,2.99672905 18.891429,2.99879198 18.87117,3.01071371 L18.771428,3.07068847 Z" id="Path" fill="#006848"></path>
                    <rect id="Rectangle" fill="#E6E8EC" transform="translate(44.666809, 7.307360) rotate(-26.730000) translate(-44.666809, -7.307360) " x="44.1668086" y="6.80735974" width="1" height="1" rx="0.045"></rect>
                    <circle id="Oval" fill="#E6E8EC" cx="19" cy="3" r="1"></circle>
                    <path d="M19.24866,11 L19,20 C19,20 19.8354977,19.624374 19.964801,19.9060935 C20.0941042,20.187813 19.8255513,15.398581 19.8255513,15.398581 L19.24866,11 Z" id="Path" fill="#5F5570"></path>
                    <path d="M19.24866,11 L19,20 C19,20 19.8354977,19.624374 19.964801,19.9060935 C20.0941042,20.187813 19.8255513,15.398581 19.8255513,15.398581 L19.24866,11 Z" id="Path" fill="#000000" opacity="0.15"></path>
                    <path d="M19.7343193,38.9835222 C19.1270585,39.0205972 16.7293128,38.9835222 16.7293128,38.9835222 C16.7293128,38.9835222 16.1061698,38.4119033 16.0594575,38.4119033 C16.0127451,38.4119033 15.9819149,38.7068432 15.9819149,38.7068432 L15.0009553,38.3748284 L15.0009553,37.7849487 C15.0009553,37.7849487 14.969658,36.1055069 15.2653473,36.0324637 C15.5610365,35.9594204 16.8694499,36.0324637 16.8694499,36.0324637 C16.9161623,36.0142029 17.8036972,37.0102474 18.0526741,37.1945156 C18.301651,37.3787838 18.2549387,37.5082696 18.2549387,37.5082696 C18.2549387,37.5082696 18.8467843,38.0981493 19.313908,38.1352243 C19.604926,38.1584654 19.9323797,38.4672392 19.9907702,38.7068432 C20.0262716,38.8512696 19.9632099,38.9696883 19.7343193,38.9835222 Z" id="Path" fill="#BC8487"></path>
                    <path d="M19.7342685,38.9863077 C19.1268917,39.0171154 16.7286878,38.9863077 16.7286878,38.9863077 C16.7286878,38.9863077 16.1054258,38.5113166 16.0587045,38.5113166 C16.0119832,38.5113166 15.9811471,38.7563991 15.9811471,38.7563991 L15,38.4805089 L15,38 L15.9185406,38.3273898 L16.6506632,38.7563991 L19.9907684,38.7563991 C20.0262766,38.8764114 19.9632028,38.9748122 19.7342685,38.9863077 Z" id="Path" fill="#000000" opacity="0.1"></path>
                    <path d="M17,38 C17,38 17.5992509,36.6976024 18,37.0654681" id="Path" stroke="#000000" stroke-width="0.5" fill="#000000" opacity="0.1"></path>
                    <path d="M11.4035774,35.4531663 C11.4410285,35.5498724 11.1056456,35.678975 11.1056456,35.678975 L11.1056456,36.9521108 C11.1056456,36.9521108 11.2576859,37.7165725 11.0380101,37.9394801 C11.0046279,37.9760844 10.9543631,37.9981783 10.9005031,37.9999214 C10.490777,38.0158779 9.59642258,35.5982254 9.59642258,35.5982254 L9.54052543,34.2013059 L9.31693684,34.0673679 L9,32.2942616 L9.57797652,32.2942616 C9.57797652,32.2942616 9.63890442,32.2618651 9.73672443,32.2183473 C10.0162102,32.0950471 10.6014533,31.879876 10.9195081,32.0848929 L12,34.1906682 C12,34.1906682 11.3666853,35.3564602 11.4035774,35.4531663 Z" id="Path" fill="#BC8487"></path>
                    <path d="M11,37.9371945 C10.9672404,37.9751812 10.9179131,37.9981095 10.8650576,37.9999184 C10.4629731,38.0164775 9.58529896,35.5075211 9.58529896,35.5075211 L9.53044432,34.0578461 L9.31102578,33.9188499 L9,32.0787812 L9.56719693,32.0787812 C9.56719693,32.0787812 9.62698848,32.0451612 9.72298409,32 L9.85957213,33.8852299 L9.9325288,35.5075211 C9.9325288,35.5075211 10.621503,37.2738264 11,37.9371945 Z" id="Path" fill="#000000" opacity="0.1"></path>
                    <path d="M20.8454718,28.1685371 C20.6798946,28.4188536 19.5972748,29.024883 19.5972748,29.024883 C19.5972748,29.024883 19.1387535,29.0512321 18.603812,29.4728178 C18.3271708,29.6909883 17.3658044,30.1236406 16.5022559,30.4909471 C15.6957678,30.8340125 14.9738515,31.1196367 14.9738515,31.1196367 L14.1423995,32.1209027 L13.5091306,32.8834457 C13.5091306,32.8834457 13.1270295,32.7253511 13.0888194,33.0151913 C13.0506093,33.3050314 12.4774576,33.6343952 12.4901943,33.6870934 C12.502931,33.7397916 12.2736703,33.8715371 12.2736703,33.9901081 C12.2736703,34.1086791 11.4203112,33.1337622 11.4330479,32.5409074 C11.4457846,31.9480526 11,31.5396415 11,31.5396415 C11,31.5396415 11.1146303,31.3288486 11.2929442,31.3683723 C11.471258,31.4078959 11.6240985,31.3288486 11.6750453,31.2629759 C11.7259921,31.1971031 11.9425161,31.3551977 12.0444097,31.3024995 C12.1463033,31.2498013 12.5538778,30.2090117 12.5538778,30.2090117 L14.14189,29.1070922 L17.3005925,26.9169547 L17.4463004,26.8157742 C17.4463004,26.8157742 17.8666116,27.0149734 17.6959398,25.3829099 C17.6628243,25.0667207 17.6072923,24.6825507 17.5227206,24.2145906 C17.0005157,21.3293638 18.8728112,21 18.8728112,21 L20.5158459,21.5665057 L20.9106837,22.1988842 L20.9106837,22.2020461 L20.9998406,26.0985516 C20.9998406,26.0985516 21.0110489,27.9182206 20.8454718,28.1685371 Z" id="Path" fill="#433A59"></path>
                    <path d="M16.2314335,29.9744784 C16.2314335,29.9744784 16.2362582,30.1542435 16.2434951,30.4337654 C15.4797533,30.7634191 14.7961006,31.0378773 14.7961006,31.0378773 L14.008718,32 C13.9956915,31.2024509 13.9985863,30.1663966 14.008718,29.1045169 L17,27 C16.6299495,28.4396395 16.2314335,29.9744784 16.2314335,29.9744784 Z" id="Path" fill="#000000" opacity="0.1"></path>
                    <path d="M20,23.0941445 L20,23.0970302 L17.8698469,23.1422388 C17.8698469,23.1422388 17.4965211,24.7413731 17.4416203,25.0780329 C17.4280048,25.1607551 17.345434,25.5142479 17.2286049,26 C17.2000565,25.7114344 17.152183,25.3608272 17.0792746,24.9337502 C16.6290876,22.3005892 18.2431727,22 18.2431727,22 L19.6596147,22.5170133 L20,23.0941445 Z" id="Path" fill="#000000" opacity="0.1"></path>
                    <path d="M14.4246324,17.883304 L14.1029412,24.0173598 C14.1029412,24.0173598 13.8713235,33.0267542 14.1029412,33.6146012 C14.3345588,34.2024483 14.4246324,35.1225566 14.4246324,35.1225566 C14.4246324,35.1225566 14.2830882,35.8254172 14.4246324,36.0554443 C14.5661765,36.2854714 15.0165441,36.541057 15.0036765,36.6688498 C14.9908088,36.7966427 16.3805147,37.486724 17.1011029,36.3877056 C17.1011029,36.3877056 16.6636029,35.7743 16.7536765,35.5059351 C16.84375,35.2375702 16.7150735,34.8414124 16.7150735,34.8414124 C16.7150735,34.8414124 16.4705882,34.0874347 16.4705882,33.7025227 C16.4705882,33.3176107 16.3805147,30.0987649 16.3805147,30.0987649 C16.3805147,30.0987649 17.7830882,24.9870518 17.8474265,24.6292319 C17.9117647,24.271412 18.3492647,22.5717673 18.3492647,22.5717673 L21,22.5206502 C21,22.5206502 20.9227941,20.6932127 20.7683824,20.297055 C20.6139706,19.9008972 19.8547794,17 19.8547794,17 L14.4246324,17.883304 Z" id="Path" fill="#433A59"></path>
                    <polygon id="Path" fill="#7B728F" points="9.2428742 23.7965261 9.00940158 23.8666328 9 24.1087203 16 24.2034739 16 24.1081726"></polygon>
                    <path d="M18.2499538,5.63314756 C17.1351748,7.54979404 17.8274811,7.95056942 17.9378157,8 C17.7017112,7.9069542 14.6329246,6.6847589 15.0365318,6.37460625 C15.2989336,6.17252241 15.5236045,5.29343349 15.6556629,4.66343591 C15.7339833,4.28737582 15.7797178,4 15.7797178,4 L19,4.50060577 C18.6878619,4.92706567 18.4397521,5.30264114 18.2499538,5.63314756 Z" id="Path" fill="#FFC5D3"></path>
                    <path d="M21,6.07942431 L20.9588214,6.16204691 L20.1675541,7 L20,6.58635394 C20.2438765,6.37313433 20.9751509,6 20.9751509,6 L21,6.07942431 Z" id="Path" fill="#000000" opacity="0.1"></path>
                    <path d="M22.9869216,7.84275847 C22.8672206,8.19655192 20.8472664,7.84275847 20.8472664,7.84275847 L20.6377897,7.5647779 C20.6377897,7.5647779 20.616842,7.52939855 20.5815302,7.47178076 C20.4522531,7.26001011 20.1392351,6.75863424 20.009958,6.66968046 C19.8453691,6.55596114 21.7755476,6 21.7755476,6 L22.3668705,7.08665132 C22.512633,7.16940545 22.6471159,7.26551337 22.7678688,7.37322401 C22.917495,7.51019262 23.0413855,7.68152974 22.9869216,7.84275847 Z" id="Path" fill="#E5E8EF"></path>
                    <path d="M20,9 C20,9 21.0654698,9.69109489 21.2252902,9.64116788 C21.3851107,9.59124088 23.9688748,11.0255474 23.9688748,11.0255474 C23.9688748,11.0255474 24.261879,11.9452555 23.0499072,12 C23.0499072,12 20.4794614,11.9124088 20.3729144,11.6058394 C20.2663674,11.2992701 20,9 20,9 Z" id="Path" fill="#5F5570"></path>
                    <path d="M17.1168553,7.00152404 L16,8.14455272 L17.566165,18 L18.182361,17.6443911 C18.182361,17.6443911 19.7742008,18.3429086 19.902575,17.6951924 C20.0309492,17.0474761 19.9955179,14.494712 19.9955179,14.494712 L19.7870382,9.88297234 C19.7870382,9.88297234 19.0553054,8.27003187 19.0553054,8.21923059 C19.0553054,8.16842932 18.0000697,7.38100956 18.0000697,7.38100956 L17.5019779,7 L17.1168553,7.00152404 Z" id="Path" fill="#000000" opacity="0.1"></path>
                    <path d="M17.1168553,7.00152404 L16,8.14455272 L17.566165,18 L18.182361,17.6443911 C18.182361,17.6443911 19.7742008,18.3429086 19.902575,17.6951924 C20.0309492,17.0474761 19.9955179,14.494712 19.9955179,14.494712 L19.7870382,9.88297234 C19.7870382,9.88297234 19.0553054,8.27003187 19.0553054,8.21923059 C19.0553054,8.16842932 18.0000697,7.38100956 18.0000697,7.38100956 L17.5019779,7 L17.1168553,7.00152404 Z" id="Path" fill="#E5E8EF"></path>
                    <path d="M17.3348837,6.22404858 L17,6.86530911 L17.3348837,7.19667068 C17.3348837,7.19667068 18.5348837,9.4696121 18.2976744,10.8175679 L18.5488372,15.2540439 L19.3581395,16 L20,15.3048212 L19.6930233,11.2740407 C19.6930233,11.2740407 18.8697674,7.9499555 18.0046512,6.91608648 L17.7534884,6 L17.3348837,6.22404858 Z" id="Path" fill="#000000" opacity="0.1"></path>
                    <path d="M17.3348837,6.22404858 L17,6.86530911 L17.3348837,7.19667068 C17.3348837,7.19667068 18.5348837,9.4696121 18.2976744,10.8175679 L18.5488372,15.2540439 L19.3581395,16 L20,15.3048212 L19.6930233,11.2740407 C19.6930233,11.2740407 18.8697674,7.9499555 18.0046512,6.91608648 L17.7534884,6 L17.3348837,6.22404858 Z" id="Path" fill="#BC8487"></path>
                    <path d="M18,3.58776884 C17.72,4.08606997 17.4994872,4.52491472 17.3271795,4.91109809 C17.1456831,4.97019379 16.9574279,5.00013463 16.7682051,5 C16.134359,5 15.7692308,4.51585469 15.4102564,4.00169853 C15.3282051,3.88505076 15.0584615,3.91223082 15,3.77519801 C15.0702564,3.33578701 15.1112821,3 15.1112821,3 L18,3.58776884 Z" id="Path" fill="#000000" opacity="0.1"></path>
                    <path d="M19,3.00010729 C18.999947,3.98405035 18.2841481,4.8217631 17.3122447,4.97531856 C16.3403413,5.12887402 15.4011394,4.55264243 15.097736,3.61664384 C14.7943325,2.68064525 15.2168854,1.66301629 16.0940574,1.21721494 C16.9712294,0.771413581 18.0423646,1.02991191 18.6196466,1.82671839 C18.8669039,2.16800089 19,2.57867179 19,3.00010729 Z" id="Path" fill="#FFC5D3"></path>
                    <path d="M16.3907676,8 L15.0175445,5.69510716 C15.0175445,5.69510716 14.8906848,5.62414072 15.3192176,5 C15.3192176,5 16.8929749,6.70683381 16.9906264,6.99676506 C17.0882778,7.28669632 16.3907676,8 16.3907676,8 Z" id="Path" fill="#000000" opacity="0.1"></path>
                    <path d="M16.3907676,8 L15.0175445,5.69510716 C15.0175445,5.69510716 14.8906848,5.62414072 15.3192176,5 C15.3192176,5 16.8929749,6.70683381 16.9906264,6.99676506 C17.0882778,7.28669632 16.3907676,8 16.3907676,8 Z" id="Path" fill="#E5E8EF"></path>
                    <path d="M20,20 C20,20 19.7120461,19.8188223 19.7120461,19.6049321 C19.7120461,19.3910418 19.5680691,16.3714142 19.5680691,16.3714142 C19.5680691,16.3714142 19.3569029,14.5691998 19.1361382,13.1368898 L19.1361382,13.1368898 C19.006559,12.2929039 18.8736202,11.5767489 18.7795553,11.4348264 L18.7757159,11.4287871 C18.5237562,11.089079 18.5717485,9.42828384 17,7 C17.0211166,7.01509814 17.5629499,7.41368898 17.9598464,7.61399094 C18.0406317,7.65656444 18.125386,7.69029403 18.212766,7.71464519 C18.5727084,7.80271766 19.7485202,8.28082536 19.712526,9.04831404 C19.6765318,9.81580272 19.7965126,11.5772521 19.7965126,11.5772521 L19.7965126,15.1872169 L20,20 Z" id="Path" fill="#5F5570"></path>
                    <path d="M22.9891979,8.74912642 C22.8903312,9.31359197 21.2219557,8.74912642 21.2219557,8.74912642 L21.048939,8.30561778 C21.048939,8.30561778 21.0316373,8.24917122 21.0024717,8.15724397 C21.0014574,8.15415678 21.0006297,8.15091601 21,8.14756742 C21.969388,8.25804139 22.5096944,8.14272915 22.8082719,8 C22.9318552,8.21852881 23.0341823,8.49189141 22.9891979,8.74912642 Z" id="Path" fill="#000000" opacity="0.1"></path>
                    <path d="M21,8.29486685 C21,8.29486685 21.5454545,9.78721214 21.4675325,10.1602985 C21.3896104,10.5333848 22.7272727,12 22.7272727,12 L24,11.1251769 C24,11.1251769 23.5194805,10.1731635 23.5844156,9.89013251 C23.6493506,9.60710151 23.2467532,9.00244436 23.2467532,9.00244436 L23.2727273,8 C23.2727273,8 23.038961,8.43483854 21,8.29486685 Z" id="Path" fill="#5F5570"></path>
                    <path d="M18.9982698,1.76901831 L17.902461,1.8040141 C17.7954375,1.80342279 17.6887867,1.81469873 17.5852532,1.83755174 C17.1936458,1.93913674 17.0131257,2.29006676 16.9987071,2.60551493 C16.9842886,2.9209631 16.7680106,3.27432339 16.3487195,3.30202839 C16.3069867,3.30800135 16.2641373,3.29997654 16.229334,3.27966996 C16.202737,3.25582809 16.1850817,3.22590072 16.1785808,3.19363864 C16.1184363,3.00982871 16.0254799,2.83479381 15.9028984,2.67453441 C15.7298759,2.70078125 15.6018393,2.83930626 15.5568535,2.98414995 C15.5118677,3.12899364 15.5239792,3.28161418 15.524556,3.43180445 C15.5250781,3.62254916 15.5032482,3.81287116 15.4593842,4 C14.9727899,3.4676542 14.8640696,2.75572305 15.1748654,2.13689087 C15.4856612,1.51805868 16.1678063,1.08823143 16.960025,1.01204182 C17.7522437,0.935852207 18.5317588,1.22510802 19,1.76901831 L18.9982698,1.76901831 Z" id="Path" fill="#000000" opacity="0.1"></path>
                    <path d="M17.9053902,2.13077826 C17.9985167,2.10498404 18.0944472,2.09225687 18.1907128,2.09292428 L19.3875116,2.04574396 C19.5628554,2.03861206 19.7584311,2.0221538 19.8761915,1.88445311 C19.9184623,1.83187269 19.9495948,1.77032859 19.9674948,1.70396095 C20.029837,1.48943789 20.0016658,1.25690365 19.8901983,1.06592943 C19.7516871,0.832770873 19.5089035,0.697264607 19.2775327,0.5721819 C19.0621936,0.450519958 18.841079,0.340653111 18.6150654,0.243016882 C17.7755482,-0.0941384449 16.8460443,-0.080011936 16.0160355,0.282516684 C15.9340246,0.315804733 15.8562925,0.359855366 15.7846648,0.413634083 C15.6846229,0.50428638 15.5994348,0.611799089 15.5325433,0.731826934 L15.1387981,1.3594349 C15.0844717,1.43606966 15.0425719,1.52172319 15.0148124,1.61289197 C14.9406285,1.91078631 15.1704429,2.20868065 15.1465796,2.51535272 C15.1330916,2.66786585 15.0568326,2.80776098 15.0428259,2.96027411 C15.0241502,3.15722451 15.1092283,3.34429996 15.19275,3.52369489 L15.8847871,5 C15.996537,4.65574777 16.0531691,4.29418463 16.0523493,3.93021369 C16.0523493,3.76069371 16.0388613,3.58843068 16.0814003,3.42494539 C16.1239393,3.2614601 16.2370309,3.10510671 16.3926614,3.07548186 C16.5031953,3.25628043 16.58699,3.45385962 16.6411515,3.66139559 C16.6468789,3.69785107 16.662776,3.73166527 16.6868031,3.75849927 C16.7180854,3.78147406 16.7566489,3.79053667 16.7941882,3.78373526 C17.1734079,3.75246458 17.3648335,3.35746656 17.3788402,2.99757947 C17.392847,2.63769239 17.5531464,2.24543741 17.9053902,2.13077826 Z" id="Path" fill="#8F7080"></path>
                    <polygon id="Path" fill="#7B728F" points="9 24.2761117 9.49756942 24 17 24.7931748 16.1742692 25"></polygon>
                    <polygon id="Path" fill="#000000" opacity="0.1" points="9 24.2761117 9.49756942 24 17 24.7931748 16.1742692 25"></polygon>
                    <polygon id="Path" fill="#7B728F" points="17 31 16.259761 30.9102963 16 30.8791852 16 25.5208148 16.0685259 24.2768889 16.0836653 24 16.8474104 24"></polygon>
                    <polygon id="Path" fill="#000000" opacity="0.1" points="17 31 16.2597403 30.9103125 16 30.8791406 16 25.5208594 16.0684316 24.2772656 16.0834166 24 16.8471528 24"></polygon>
                    <path d="M12,23.9306409 C12,23.9306409 12.3833402,23.0399473 12.5441359,23.0122915 C12.7049316,22.9846356 13,23.0122915 13,23.0122915 L12.9738914,23.2704126 C12.9738914,23.2704126 12.5801906,23.3033363 12.4558641,24 L12,23.9306409 Z" id="Path" fill="#7B728F"></path>
                    <path d="M12,23.9306409 C12,23.9306409 12.3833402,23.0399473 12.5441359,23.0122915 C12.7049316,22.9846356 13,23.0122915 13,23.0122915 L12.9738914,23.2704126 C12.9738914,23.2704126 12.5801906,23.3033363 12.4558641,24 L12,23.9306409 Z" id="Path" fill="#000000" opacity="0.1"></path>
                    <path d="M14.1895292,23 C14.1895292,23 15.1093721,23.4603647 14.9891674,24 L14.4898558,23.9720878 C14.4898558,23.9720878 14.2494466,23.167473 14.060078,23.1254187 C13.8707095,23.0833643 14.1895292,23 14.1895292,23 Z" id="Path" fill="#7B728F"></path>
                    <path d="M19,13.1898509 L19,13.2260834 L18.9734349,17.3590735 C18.9734349,17.3590735 18.296024,20.8334257 18.1100681,20.9699181 C17.9241121,21.1064105 13.8463643,20.7341584 13.8463643,20.7341584 L12.0000876,9.10748705 C11.9868051,7.12214295 13.487735,7.18418496 13.487735,7.18418496 C13.6869735,6.88638334 14.6433183,6.65062373 14.6433183,6.65062373 L15.174621,6.1666961 L15.1916226,6.14436098 C15.2269245,6.09519098 15.2724579,6.05316069 15.3255109,6.02077331 L15.3255109,6.02077331 C15.4349592,5.96170933 15.5045599,6.03963408 15.5444076,6.11656617 C15.5623441,6.1526865 15.576232,6.19044362 15.5858492,6.22923444 C17.7381562,7.70384877 19,13.1898509 19,13.1898509 Z" id="Path" fill="#5F5570"></path>
                    <path d="M18,12.9647999 L18,13 C17.3868293,11.8909554 15.0243902,7.6891231 14.3780488,7.47985121 L14.6268293,7.31108356 C14.6268293,7.31108356 14.7926829,7.2146449 14.4878049,7.11820624 C14.4878049,7.11820624 14.0121951,7.1784804 14,6.61190329 L14.5034146,6.12006613 L14.6263415,6 L14.6263415,6 L14.8273171,6.09306331 C14.8437852,6.12815441 14.856536,6.16483568 14.8653659,6.20252118 C16.8414634,7.63511745 18,12.9647999 18,12.9647999 Z" id="Path" fill="#000000" opacity="0.1"></path>
                    <path d="M18,12.9647999 L18,13 C17.3868293,11.8909554 15.0243902,7.6891231 14.3780488,7.47985121 L14.6268293,7.31108356 C14.6268293,7.31108356 14.7926829,7.2146449 14.4878049,7.11820624 C14.4878049,7.11820624 14.0121951,7.1784804 14,6.61190329 L14.5034146,6.12006613 L14.6263415,6 L14.6263415,6 L14.8273171,6.09306331 C14.8437852,6.12815441 14.856536,6.16483568 14.8653659,6.20252118 C16.8414634,7.63511745 18,12.9647999 18,12.9647999 Z" id="Path" fill="#433A59"></path>
                    <path d="M19,11 L18.995685,10.9945529 C18.7125135,10.6881525 18.7664509,9.19019519 17,7 C17.0237325,7.01361779 17.6326861,7.37312755 18.0787487,7.55379029 L17.9541532,7.89968225 L18.2238403,8.02088062 L19,11 Z" id="Path" fill="#000000" opacity="0.1"></path>
                    <path d="M19,11 L18.995685,10.9945529 C18.7125135,10.6881525 18.7664509,9.19019519 17,7 C17.0237325,7.01361779 17.6326861,7.37312755 18.0787487,7.55379029 L17.9541532,7.89968225 L18.2238403,8.02088062 L19,11 Z" id="Path" fill="#433A59"></path>
                    <path d="M17.1716918,6 L17,6.4789823 C17,6.4789823 17.1256281,6.9585177 17.8785595,7 L18,6.7715708 C18,6.7715708 17.1876047,6.42754425 17.1716918,6 Z" id="Path" fill="#000000" opacity="0.1"></path>
                    <path d="M17.1716918,6 L17,6.4789823 C17,6.4789823 17.1256281,6.9585177 17.8785595,7 L18,6.7715708 C18,6.7715708 17.1876047,6.42754425 17.1716918,6 Z" id="Path" fill="#E5E8EF"></path>
                    <polygon id="Path" fill="#000000" opacity="0.1" points="17 24 16.5258065 31 16 30.9681505 16 25.4825965 16.1387097 24.2091454"></polygon>
                    <polygon id="Path" fill="#7B728F" points="10.1972387 26.668488 10 30.4058383 16.7061144 31 17 24"></polygon>
                    <polygon id="Path" fill="#000000" opacity="0.1" points="10 27.4520548 10.1311637 24 17 24.3506849 16.6730769 28"></polygon>
                    <polygon id="Path" fill="#7B728F" points="10 27.4520548 10.1311637 24 17 24.3506849 16.6730769 28"></polygon>
                    <rect id="Rectangle" fill="#C3BBC8" x="12" y="27" width="1" height="1"></rect>
                    <path d="M13.1871689,21 L13.0832511,21.3883908 C13.0832511,21.3883908 12.8650237,23.5173476 13.13521,23.7762748 C13.4053964,24.0352019 14.2055636,24.0495868 14.2471307,23.9201232 C14.2886978,23.7906596 14.5796677,22.3234056 14.5796677,22.3234056 C14.5796677,22.3234056 14.8394623,23.4022688 14.9745555,23.3159598 C15.1096486,23.2296507 14.662802,21.1789475 14.662802,21.1789475 L13.1871689,21 Z" id="Path" fill="#FFC5D3"></path>
                    <path d="M12,18.7974606 L12,20.9147711 C12,20.9147711 13.3947368,21.2108985 14,20.6991904 C14,20.6991904 13.4342105,18.6493969 13.6447368,18.1311741 C13.8552632,17.6129512 12,18.7974606 12,18.7974606 Z" id="Path" fill="#000000" opacity="0.1"></path>
                    <path d="M12,18.7974606 L12,20.9147711 C12,20.9147711 13.3947368,21.2108985 14,20.6991904 C14,20.6991904 13.4342105,18.6493969 13.6447368,18.1311741 C13.8552632,17.6129512 12,18.7974606 12,18.7974606 Z" id="Path" fill="#E5E8EF"></path>
                    <path d="M12.5063187,8.76153003 L12.145399,8.95212237 C12.145399,8.95212237 12.0809491,9.71449176 12.0422792,9.81614101 C12.0036092,9.91779026 12.0422792,10.9469889 12.0422792,10.9469889 L12.0247488,13.0307986 C12.0247488,13.0307986 11.969064,14.1362342 12.0247488,14.5301251 C12.0804335,14.9240159 12.142821,16.4233424 12.142821,16.4233424 C12.142821,16.4233424 12.4913663,17.8845504 12.3624664,18.4055028 C12.2335666,18.9264552 12.3753564,20.0954216 12.5944862,19.9937723 C12.8136159,19.8921231 14.8373438,19.4982322 14.9404637,19.4219953 C15.0435836,19.3457583 14.9920236,18.6342136 14.9404637,18.5452705 C14.8889038,18.4563274 14.5795441,17.2492425 14.6053241,16.9697071 C14.631104,16.6901717 14.5150942,14.2378835 14.5150942,14.2378835 C14.5150942,14.2378835 14.7084439,11.6204152 14.7857839,11.0105197 C14.8631238,10.4006242 14.631104,8.60905615 14.4248642,8.58364384 C14.2186245,8.55823152 13.6148575,7.17326047 12.5063187,8.76153003 Z" id="Path" fill="#000000" opacity="0.1"></path>
                    <path d="M12.5063187,8.76153003 L12.145399,8.95212237 C12.145399,8.95212237 12.0809491,9.71449176 12.0422792,9.81614101 C12.0036092,9.91779026 12.0422792,10.9469889 12.0422792,10.9469889 L12.0247488,13.0307986 C12.0247488,13.0307986 11.969064,14.1362342 12.0247488,14.5301251 C12.0804335,14.9240159 12.142821,16.4233424 12.142821,16.4233424 C12.142821,16.4233424 12.4913663,17.8845504 12.3624664,18.4055028 C12.2335666,18.9264552 12.3753564,20.0954216 12.5944862,19.9937723 C12.8136159,19.8921231 14.8373438,19.4982322 14.9404637,19.4219953 C15.0435836,19.3457583 14.9920236,18.6342136 14.9404637,18.5452705 C14.8889038,18.4563274 14.5795441,17.2492425 14.6053241,16.9697071 C14.631104,16.6901717 14.5150942,14.2378835 14.5150942,14.2378835 C14.5150942,14.2378835 14.7084439,11.6204152 14.7857839,11.0105197 C14.8631238,10.4006242 14.631104,8.60905615 14.4248642,8.58364384 C14.2186245,8.55823152 13.6148575,7.17326047 12.5063187,8.76153003 Z" id="Path" fill="#5F5570"></path>
                    <g id="Group" opacity="0.1" transform="translate(15.000000, 1.000000)" fill="#000000">
                        <path d="M1.271875,1.805 C1.115625,1.835 1,1.99333333 0.959375,2.15888889 C0.91875,2.32444444 0.9296875,2.49888889 0.930208333,2.67055556 C0.931208803,3.03910508 0.874527114,3.40524767 0.7625,3.75388889 L0.0671875,2.25888889 C0.0536458333,2.22944444 0.0395833333,2.19888889 0.0260416667,2.16833333 C0.0582139738,2.27121588 0.0980997796,2.37116843 0.1453125,2.46722222 L0.840625,3.96222222 C0.952652114,3.61358101 1.0093338,3.24743842 1.00833333,2.87888889 C1.00833333,2.70722222 0.9953125,2.53277778 1.0375,2.36722222 C1.0796875,2.20166667 1.19375,2.04333333 1.35,2.01333333 C1.40043818,2.09760056 1.44550518,2.18539132 1.48489583,2.27611111 C1.43198472,2.11047461 1.36045672,1.95228521 1.271875,1.805 L1.271875,1.805 Z" id="Path"></path>
                        <path d="M4.87447917,0.00222222222 C4.90504075,0.138900089 4.90072453,0.281814799 4.86197917,0.416111111 C4.84382312,0.483353087 4.81239053,0.545673672 4.76979167,0.598888889 C4.6515625,0.738333333 4.45729167,0.755 4.27916667,0.762222222 L3.078125,0.81 C2.98130443,0.809320428 2.88481955,0.822208427 2.79114583,0.848333333 C2.43802083,0.964444444 2.27447917,1.36555556 2.26145833,1.72611111 C2.2484375,2.08666667 2.053125,2.49055556 1.67447917,2.52222222 C1.63679188,2.52904929 1.59809617,2.51987697 1.56666667,2.49666667 L1.56666667,2.49666667 C1.57864583,2.53277778 1.59010417,2.56944444 1.6,2.60777778 C1.60535363,2.64471619 1.62116408,2.67902669 1.6453125,2.70611111 C1.676742,2.72932141 1.71543772,2.73849373 1.753125,2.73166667 C2.134375,2.7 2.32604167,2.3 2.34010417,1.93555556 C2.35416667,1.57111111 2.51666667,1.17388889 2.86979167,1.05777778 C2.96346538,1.03165287 3.05995027,1.01876487 3.15677083,1.01944444 L4.3578125,0.971666667 C4.53385417,0.964444444 4.73020833,0.947777778 4.8484375,0.808333333 C4.89103636,0.755118116 4.92246895,0.692797532 4.940625,0.625555556 C5.0003017,0.416957581 4.9763573,0.191314586 4.87447917,0.00222222222 L4.87447917,0.00222222222 Z" id="Path"></path>
                    </g>
                    <path d="M18,22.221877 C18,22.221877 18.3820869,21.9875023 18.5294507,22.0005231 C18.6768145,22.0135439 20,24 20,24 L18,22.221877 Z" id="Path" fill="#000000" opacity="0.1"></path>
                    <path d="M13,9 C13,9 11.9732921,9.5504975 12.0005326,9.93079681 C12.0277731,10.3110961 13,9 13,9 Z" id="Path" fill="#000000" opacity="0.1"></path>
                    <path d="M13,10 C13,10 11.7668439,10.9669338 12.0393113,10.999256 C12.3117786,11.0315782 13,10 13,10 Z" id="Path" fill="#000000" opacity="0.1"></path>
                    <path d="M15.9943436,12 C15.9943436,12 16.1361262,14.6635514 15,15 L15.9943436,12 Z" id="Path" fill="#000000" opacity="0.1"></path>
                    <path d="M12,18.1526055 C12,18.1526055 12.7974374,17.7834011 12.980467,17.8571311 C13.1634965,17.9308611 12,18.1526055 12,18.1526055 Z" id="Path" fill="#000000" opacity="0.1"></path>
                    <path d="M12,19.0451536 C12,19.0451536 12.6456907,19.0792726 12.9519575,18.9807781 C13.2582243,18.8822837 12,19.0451536 12,19.0451536 Z" id="Path" fill="#000000" opacity="0.1"></path>
                    <path d="M21,10 C21,10 21.634416,11 22,11" id="Path" fill="#000000" opacity="0.1"></path>
                    <path d="M15,36 C15,36 15.8626562,35.7710918 15.9899004,36 C16.1171447,36.2289082 15,36 15,36 Z" id="Path" fill="#000000" opacity="0.1"></path>
                    <path d="M11.9406161,31.7965261 C11.9406161,31.7965261 11.6897194,32.0995981 12.0213241,32.1918575 C12.3529287,32.2841169 11.9406161,31.7965261 11.9406161,31.7965261 Z" id="Path" fill="#000000" opacity="0.1"></path>
                    <path d="M18,27 C18,27 18.6467229,27.970911 18.9521752,27.9994179 C19.2576274,28.0279247 18,27 18,27 Z" id="Path" fill="#000000" opacity="0.1"></path>
                    <path d="M43.9176721,3.00644159 C43.9176721,3.00644159 39.5247879,2.71094371 40.0423958,6.12275874 C40.0423958,6.12275874 39.9380393,6.72589825 40.4326889,7 C40.4326889,7 40.4405156,6.7467161 40.8835087,6.83287889 C41.0410476,6.8618545 41.2010958,6.8703934 41.3604176,6.85832294 C41.5755009,6.84211609 41.7800262,6.74897299 41.9432483,6.59289529 L41.9432483,6.59289529 C41.9432483,6.59289529 43.1783067,6.02792185 43.6583463,3.79058077 C43.6583463,3.79058077 44.01368,3.30251774 43.9995919,3.17703234 L43.2581394,3.5280445 C43.2581394,3.5280445 43.5117255,4.12077508 43.3103176,4.6134643 C43.3103176,4.6134643 43.2863156,3.54944063 43.1438691,3.57257157 C43.1146493,3.57777604 42.7582721,3.77785875 42.7582721,3.77785875 C42.7582721,3.77785875 43.194482,4.81065564 42.8652374,5.56067667 C42.8652374,5.56067667 42.9904651,4.28847446 42.6226087,3.85245606 L42.1008265,4.19016792 C42.1008265,4.19016792 42.6106077,5.25650469 42.2651879,6.12680666 C42.2651879,6.12680666 42.3538909,4.79215088 41.9912522,4.27228279 L41.5185176,4.68112232 C41.5185176,4.68112232 41.9969919,5.73242397 41.7053156,6.45410959 C41.7053156,6.45410959 41.6672255,4.90028807 41.4157265,4.7828985 C41.4157265,4.7828985 41.002475,5.18769012 40.9393394,5.3530764 C40.9393394,5.3530764 41.2670186,6.11639773 41.0635235,6.51887625 C41.0635235,6.51887625 40.9388176,5.48376627 40.8365483,5.47798353 C40.8365483,5.47798353 40.4243403,6.16381618 40.3815542,6.634531 C40.3815542,6.634531 40.3992948,5.93481978 40.7368879,5.4126386 C40.7368879,5.4126386 40.3382463,5.48839246 40.1055314,5.77521623 C40.1055314,5.77521623 40.1697106,5.29004457 40.8360265,5.24783058 C40.8360265,5.24783058 41.1762285,4.72738422 41.2675404,4.69557917 C41.2675404,4.69557917 40.6022681,4.63428215 40.1989304,4.83205177 C40.1989304,4.83205177 40.5542641,4.37463724 41.3896374,4.58281579 L41.8592414,4.16067596 C41.8592414,4.16067596 40.9831691,4.027673 40.6121819,4.17455453 C40.6121819,4.17455453 41.0395215,3.76976292 41.9849909,4.06468252 L42.4932067,3.72754894 C42.4932067,3.72754894 41.7465364,3.54944063 41.301978,3.61189419 C41.301978,3.61189419 41.7715819,3.33143143 42.6419146,3.63560341 L43.0071622,3.45460373 C43.0071622,3.45460373 42.4603344,3.33547934 42.3001473,3.31697458 C42.1399602,3.29846982 42.1310899,3.24873828 42.1310899,3.24873828 C42.4776997,3.18472788 42.8335381,3.22856832 43.1590008,3.37538023 C43.1590008,3.37538023 43.9312384,3.05790795 43.9176721,3.00644159 Z" id="Path" fill="#006848"></path>
                    <path d="M34.9589094,2.00314816 C34.9589094,2.00314816 32.7644311,1.85667825 33.0208386,3.56186947 C33.0208386,3.56186947 32.9694416,3.86312419 33.2160316,4 C33.2160316,4 33.2200741,3.87207868 33.4412544,3.91621153 C33.5201824,3.93122826 33.6004697,3.93552404 33.6803371,3.92900367 C33.7869907,3.92016377 33.888238,3.87351482 33.9690842,3.79596549 L33.9690842,3.79596549 C33.9690842,3.79596549 34.5864256,3.51325937 34.8266632,2.39522702 C34.8266632,2.39522702 35.0045315,2.1515369 34.9999115,2.08885545 L34.6280052,2.26410766 C34.6280052,2.26410766 34.7544765,2.56024552 34.6551474,2.80649407 C34.6551474,2.80649407 34.6430201,2.27498097 34.5714108,2.2871335 C34.5569734,2.2871335 34.3791052,2.39011016 34.3791052,2.39011016 C34.3791052,2.39011016 34.5968205,2.9062727 34.4322346,3.28108217 C34.4322346,3.28108217 34.4951815,2.6453132 34.3109608,2.42720735 L34.0505109,2.59606349 C34.0505109,2.59606349 34.3051859,3.1288558 34.1325151,3.56378829 C34.1325151,3.56378829 34.1769822,2.8966786 33.9956489,2.63699831 L33.7594538,2.84167243 C33.7594538,2.84167243 33.9985364,3.36678946 33.8524304,3.72752758 C33.8524304,3.72752758 33.833373,2.95104516 33.7080568,2.89220135 C33.7080568,2.89220135 33.5013138,3.09431704 33.4695516,3.1774659 C33.4695516,3.1774659 33.63356,3.56122987 33.531921,3.76014752 C33.531921,3.76014752 33.4695516,3.24270577 33.4164222,3.24014735 C33.4164222,3.24014735 33.2102567,3.58297649 33.1888894,3.8157933 C33.198887,3.59865174 33.2602243,3.38823134 33.3667577,3.20560859 C33.2477423,3.23042489 33.1379125,3.29335875 33.0508683,3.38661726 C33.0508683,3.38661726 33.083208,3.14420636 33.4175772,3.12309934 C33.4175772,3.12309934 33.587938,2.86277945 33.63356,2.84742889 C33.63356,2.84742889 33.3009233,2.81608817 33.0988003,2.91522719 C33.0988003,2.91522719 33.2766685,2.68688763 33.6941969,2.78730587 L33.9251946,2.57623569 C33.9251946,2.57623569 33.4868765,2.51227503 33.3015008,2.58327136 C33.3015008,2.58327136 33.5151737,2.38115567 33.987564,2.52826519 L34.242239,2.36004865 C34.242239,2.36004865 33.8686002,2.27114333 33.6462649,2.30312366 C33.6462649,2.30312366 33.8807276,2.16304982 34.3167358,2.31463658 L34.498069,2.22445205 C34.498069,2.22445205 34.2249142,2.16496864 34.1446425,2.15537454 C34.0643708,2.14578044 34.0603283,2.12147539 34.0603283,2.12147539 C34.2337001,2.08993953 34.4115682,2.11207421 34.5742982,2.18543605 C34.5742982,2.18543605 34.9658394,2.03001164 34.9589094,2.00314816 Z" id="Path" fill="#006848"></path>
                    <ellipse id="Oval" fill="#006848" opacity="0.1" cx="42.5" cy="36.5" rx="1.5" ry="1"></ellipse>
                    <ellipse id="Oval" fill="#006848" opacity="0.1" cx="1.5" cy="33.5" rx="1.5" ry="1"></ellipse>
                    <ellipse id="Oval" fill="#006848" opacity="0.1" cx="41.5" cy="32.5" rx="1.5" ry="1"></ellipse>
                    <ellipse id="Oval" fill="#006848" opacity="0.1" cx="6.5" cy="34.5" rx="1.5" ry="1"></ellipse>
                    <ellipse id="Oval" fill="#006848" opacity="0.1" cx="35.5" cy="34.5" rx="1.5" ry="1"></ellipse>
                    <ellipse id="Oval" fill="#006848" cx="40" cy="39.5" rx="2" ry="1"></ellipse>
                    <path d="M40.8075998,38.7474796 C40.8966693,38.6871905 40.9615904,38.6058878 40.9937792,38.5143217 C41.0180846,38.4215426 40.970446,38.3126281 40.8635023,38.2767266 C40.7439197,38.2388082 40.6160733,38.307384 40.5193378,38.3767666 C40.4226023,38.4461493 40.3112835,38.5256165 40.1844093,38.5110946 C40.317231,38.4112292 40.377198,38.26087 40.3423944,38.1149683 C40.3366987,38.0852545 40.3214124,38.0573752 40.2981586,38.0342908 C40.2320479,37.9753963 40.1114931,38.0008097 40.0322575,38.0471992 C39.7794813,38.194839 39.7089956,38.4796304 39.7075373,38.7361847 C39.6822597,38.6434056 39.7036485,38.5469961 39.7026762,38.4538136 C39.701704,38.3606311 39.6710792,38.25212 39.5743437,38.2029067 C39.5146589,38.1762947 39.4476311,38.1630845 39.3799005,38.1645849 C39.2661512,38.1613578 39.1397631,38.1706357 39.0624719,38.239615 C38.9652503,38.3251331 38.991014,38.4691423 39.0746246,38.5623248 C39.1582352,38.6555073 39.2860816,38.715612 39.4037198,38.7809607 C39.497938,38.8273997 39.5782196,38.8909853 39.63851,38.9669222 C39.6458819,38.9773423 39.6517554,38.9884441 39.6560099,39 L40.3686443,39 C40.5279838,38.9325934 40.6756344,38.8476536 40.8075998,38.7474796 Z" id="Path" fill="#006848"></path>
                    <path d="M6.55065801,29 C6.55065801,29 6.75091718,29.3208222 6.45853879,29.8042895 C6.16616041,30.2877569 5.92512119,30.6979446 6.0216097,31 C6.0216097,31 6.46290809,30.1000894 6.82264638,30.0875782 C7.18238467,30.075067 6.94571474,29.5424486 6.55065801,29 Z" id="Path" fill="#006848"></path>
                    <path d="M6.54501115,29 C6.56272882,29.0308697 6.57662417,29.0647182 6.58625523,29.1004689 C6.94051248,29.6050458 7.12942512,30.0761331 6.78879316,30.0881893 C6.47172924,30.098906 6.09132619,30.7865595 6,30.960259 C6.00300375,30.9737163 6.00656808,30.9869803 6.01067927,31 C6.01067927,31 6.45699921,30.1006921 6.82083097,30.0881893 C7.18466274,30.0756865 6.94456323,29.5420853 6.54501115,29 Z" id="Path" fill="#000000" opacity="0.1"></path>
                    <path d="M7.0501139,29.9277911 C7.0501139,30.0519789 7.02784105,30.1526055 7,30.1526055 C6.97215895,30.1526055 6.9498861,30.0544333 6.9498861,29.9277911 C6.9498861,29.801149 6.97772716,29.8620157 7.00556821,29.8620157 C7.03340926,29.8620157 7.0501139,29.8036033 7.0501139,29.9277911 Z" id="Path" fill="#FFD037"></path>
                    <path d="M7.07908419,30.0006377 C6.96147655,30.0722872 6.85870231,30.1155138 6.85022608,30.0977495 C6.84174985,30.0799851 6.92916094,30.0065592 7.04676857,29.9349097 C7.16437621,29.8632601 7.11828673,29.9153689 7.12676296,29.9349097 C7.13523918,29.9544504 7.19669182,29.9295804 7.07908419,30.0006377 Z" id="Path" fill="#FFD037"></path>
                    <path d="M5.449431,29 C5.449431,29 5.2492042,29.3208222 5.54153532,29.8042895 C5.83386645,30.2877569 6.07486671,30.6979446 5.9783938,31 C5.9783938,31 5.53753079,30.1000894 5.1774866,30.0875782 C4.81744241,30.075067 5.05443813,29.5424486 5.449431,29 Z" id="Path" fill="#006848"></path>
                    <path d="M5.45522341,29 C5.43746924,29.0309043 5.42346174,29.0647385 5.41362898,29.1004689 C5.0595242,29.6050458 4.87106095,30.0761331 5.21117822,30.0881893 C5.52847378,30.098906 5.90871311,30.7865595 6,30.960259 C5.99704003,30.9737849 5.99335117,30.9870605 5.98895723,31 C5.98895723,31 5.54319747,30.1006921 5.1791542,30.0881893 C4.81511092,30.0756865 5.05584328,29.5420853 5.45522341,29 Z" id="Path" fill="#000000" opacity="0.1"></path>
                    <path d="M4.9498861,29.9277911 C4.9498861,30.0519789 4.97277277,30.1526055 5.0003946,30.1526055 C5.02801643,30.1526055 5.0501139,30.0544333 5.0501139,29.9277911 C5.0501139,29.801149 5.02249206,29.8620157 4.99487023,29.8620157 C4.9672484,29.8620157 4.9498861,29.8036033 4.9498861,29.9277911 Z" id="Path" fill="#FFD037"></path>
                    <path d="M4.92138909,30.0006377 C5.0387218,30.0722872 5.14072726,30.1155138 5.1497122,30.0977495 C5.15869714,30.0799851 5.07043334,30.0065592 4.95310063,29.9349097 C4.83576793,29.8632601 4.88227819,29.9153689 4.87329325,29.9349097 C4.86430831,29.9544504 4.80352786,29.9295804 4.92138909,30.0006377 Z" id="Path" fill="#FFD037"></path>
                    <path d="M5,31.5718576 C5,31.5718576 5.8061019,31.5394702 6.04961185,31.3120697 C6.2931218,31.0846692 7.28972825,30.8138558 7.34955612,31.1783858 C7.409384,31.5429157 8.561333,32.9900101 7.65131953,32.9996574 C6.74130606,33.0093046 5.53635165,32.8136024 5.29389132,32.6192783 C5.05143098,32.4249542 5,31.5718576 5,31.5718576 Z" id="Path" fill="#A8A8A8"></path>
                    <path d="M7.66756174,31.911944 C6.75737834,31.9186992 5.55219893,31.7816663 5.30969332,31.6455985 C5.12545204,31.5423413 5.05144058,31.1712911 5.0267701,31 L5,31 C5,31 5.05249039,31.59783 5.29342129,31.7334153 C5.53435219,31.8690006 6.74110632,32.006516 7.65128972,31.9997609 C7.91374168,31.9997609 8.00455006,31.911944 7.99982593,31.7845614 C7.96308265,31.8622455 7.862826,31.9104965 7.66756174,31.911944 Z" id="Path" fill="#000000" opacity="0.2"></path>
                </g>
            </g>
        </g>
    </g>
</svg>