<?xml version="1.0" encoding="UTF-8"?>
<svg width="50px" height="37px" viewBox="0 0 50 37" version="1.1" xmlns="http://www.w3.org/2000/svg" xmlns:xlink="http://www.w3.org/1999/xlink">
    <title>3648A1D3-D961-410A-8977-B14F6C3490C6</title>
    <g id="Web" stroke="none" stroke-width="1" fill="none" fill-rule="evenodd">
        <g id="Prepaid-Plans" transform="translate(-1162.000000, -384.000000)">
            <g id="Group-4-Copy-3" transform="translate(1136.000000, 339.000000)">
                <g id="undraw_deliveries_131a-copy" transform="translate(26.000000, 45.000000)">
                    <path d="M35.6121392,21.6851396 L36.0160875,21.4457103 C36.0544815,21.4223386 36.0923347,21.3974089 36.1312695,21.3740373 C34.346412,21.0792305 33.0152611,19.6317978 32.9310474,17.894262 C32.9013613,17.3142166 33.0155301,16.7356927 33.2641561,16.2063114 C33.732792,15.203635 34.6399749,14.4519728 35.741381,14.1537634 L35.7213729,15.6807095 L36.5947015,14.0187273 C36.5982843,14.0181829 36.6019339,14.0181829 36.6055167,14.0187273 C37.6275992,13.9728917 38.6267748,14.318911 39.3832175,14.9806583 C40.1396601,15.6424056 40.5914,16.5656688 40.6390511,17.5473233 C40.6422956,17.6179575 40.6390511,17.687553 40.6390511,17.755071 C40.9429586,17.4221552 41.2187466,17.0653484 41.4015237,16.6742632 C41.7714041,15.8822248 41.7800562,14.9852738 41.7492329,13.8951174 C41.6908307,11.7345405 41.5940345,9.5578632 41.4674965,7.38741832 C39.5837938,7.18649203 38.1314727,5.70046506 38.0417772,3.88219399 C38.0363696,3.76845208 38.0379919,3.65678765 38.0417772,3.54564259 C38.0417772,3.51811601 38.0417772,3.49007006 38.0461033,3.46254348 C38.053674,3.35503401 38.0639484,3.24856327 38.0812527,3.14365065 C38.0812527,3.12599209 38.0877419,3.10937227 38.0909864,3.0917137 C38.1068488,3.00272841 38.1257754,2.91478185 38.1477663,2.82787403 C38.1564185,2.79567313 38.1645299,2.76295285 38.1737228,2.73075195 C38.2007609,2.63622671 38.2277989,2.54325958 38.2651114,2.45133119 C38.2764674,2.42068839 38.2899864,2.39108433 38.3018831,2.36096091 C38.3294619,2.29344288 38.3592038,2.22696359 38.3905679,2.16100367 C38.4073315,2.12620592 38.4235543,2.09192754 38.4413994,2.05712979 C38.4457255,2.0483005 38.4495108,2.03947122 38.4543777,2.03064194 L38.4543777,2.03064194 C39.2945137,0.436857413 41.1997048,-0.353533036 42.9837896,0.151563319 L42.9578331,2.13867079 L43.8230503,0.497463365 C45.2797215,1.29827635 46.0247181,2.9159968 45.6616368,4.48985623 L45.6659629,4.48985623 C45.6600146,4.51634407 45.6513624,4.54179317 45.6448733,4.56776165 C45.6329765,4.61658237 45.6199983,4.66488373 45.6059385,4.71318509 C45.5875526,4.77499005 45.5670037,4.83575628 45.545914,4.8965225 C45.5296912,4.94170764 45.5140092,4.98793152 45.496164,5.03259729 C45.4702075,5.09803784 45.442088,5.16192028 45.4107239,5.22580272 C45.3934195,5.26319732 45.3777374,5.30111129 45.3566478,5.33798652 C45.3072583,5.4335505 45.2531822,5.527037 45.1944196,5.61844602 C45.1744114,5.65012755 45.1516995,5.68025098 45.1306098,5.71193252 C45.089512,5.77321811 45.0478734,5.83398433 45.0029903,5.89319245 C44.9754115,5.92954831 44.9456696,5.96434606 44.9164685,6.00018255 C44.8742892,6.0521195 44.8310283,6.10405644 44.7861452,6.15131906 C44.7542403,6.18611681 44.7217947,6.2203952 44.6882675,6.25519295 C44.6412213,6.30297494 44.5925528,6.34919882 44.5422621,6.39490333 C44.5092757,6.42554612 44.4757485,6.45618892 44.4411398,6.48527361 C44.38436,6.53357497 44.3248763,6.57979885 44.2648518,6.62498399 C44.2345692,6.64783624 44.2053682,6.67172724 44.174004,6.69354075 C44.0827957,6.75863506 43.9885231,6.81974753 43.8911862,6.87687816 C43.8728003,6.88726555 43.8533329,6.89609483 43.8371101,6.90648222 C43.755996,6.9527061 43.6748819,6.99581377 43.5878194,7.03632458 C43.5515884,7.05346377 43.5137352,7.06852549 43.4764227,7.08462594 C43.4066645,7.11474937 43.3363656,7.14383406 43.2644445,7.1703219 C43.2228059,7.18538361 43.1800858,7.19940659 43.1373657,7.21342956 C43.066526,7.23680118 42.9946049,7.25809533 42.9210614,7.277312 C42.8778005,7.28873813 42.8350804,7.30016426 42.7912788,7.31003228 C42.7123277,7.32821021 42.6317544,7.34327192 42.5506403,7.35625616 C42.5452327,7.35625616 42.5403658,7.35625616 42.5349582,7.35937237 C42.5883133,8.27484757 42.63572,9.19084213 42.6771783,10.1073561 C43.1420472,9.19079045 43.9798014,8.49884889 44.9929636,8.19463735 C46.0061258,7.89042582 47.1050552,8.00085983 48.0307096,8.49990766 L47.3488104,10.2943291 L48.7515437,9.00057979 C49.5024334,9.66160877 49.9497151,10.5816746 49.9952934,11.5589936 C50.0131379,11.9019155 49.9801829,12.2455336 49.8974157,12.5795546 C49.5368368,14.0586408 48.2724215,15.1762749 46.7078379,15.3988663 C45.1432544,15.6214576 43.5957933,14.9038657 42.8042571,13.5886894 C42.8042571,13.6816565 42.811287,13.775143 42.8139908,13.8681102 C42.8394065,14.8299824 42.8713114,16.0266095 42.3721892,17.0954718 C42.0342138,17.8199922 41.4896677,18.4084378 40.9516108,18.9355978 C40.6017386,19.278901 40.2388881,19.610778 39.8668447,19.9322677 C39.5010391,20.4040402 39.0235401,20.7853845 38.473845,21.044757 C37.8627854,21.4969547 37.2300953,21.9204139 36.5757748,22.3151347 L36.1783157,22.5613158 C35.8111392,22.7799703 35.4347697,23.0043379 35.0654301,23.2364961 C35.1303214,23.2302636 35.1946719,23.2235118 35.2606447,23.220915 C36.9381555,23.1454259 38.473945,24.120454 39.0589482,25.6323473 L36.6482368,27.517139 L39.2979644,26.9266159 C39.2964929,28.2001924 38.614369,29.3838636 37.4915025,30.0613207 C36.368636,30.7387777 34.9622799,30.8151455 33.7670635,30.2635646 C33.8265472,30.3352375 33.8865717,30.4063912 33.9460554,30.4775448 C34.064482,30.6193326 34.1823678,30.7600817 34.2975498,30.8997921 C35.865756,32.8074361 36.3026907,34.6189967 35.5256175,36 L34.5814492,35.5097153 C35.3385143,34.1655871 34.2029167,32.4454356 33.4550446,31.5386165 C33.3420256,31.401503 33.2263028,31.2633507 33.1094985,31.123121 C32.1074688,29.9285713 30.9718713,28.5719783 31.0005316,26.9094767 C31.0410886,24.406116 33.5767158,22.8963091 35.6121392,21.6851396 Z" id="Path" fill="#F2F2F2"></path>
                    <ellipse id="Oval" fill="#3F3D56" cx="23.5" cy="35.5" rx="23.5" ry="1.5"></ellipse>
                    <path d="M42.9803878,35 C43.2103178,34.7274975 42.9497304,34.3936696 42.6523543,34.1503462 C42.3549781,33.9070227 41.9924552,33.6557864 42.0001195,33.3447082 C42.0108496,32.8996044 42.7427934,32.6369931 43.3283485,32.401088 C43.7619716,32.225846 44.1620093,32.0181767 44.5201524,31.7823937 C44.6704707,31.6916689 44.7947562,31.5845147 44.8872739,31.4658754 C45.007604,31.2917903 45.0045383,31.0939664 44.9968739,30.9030663 C44.9713261,30.2680514 44.9227854,29.633696 44.8512516,29" id="Path" stroke="#3F3D56" stroke-width="4"></path>
                    <path d="M46,28.9541608 C45.9838163,28.6139528 45.7959408,28.3052635 45.5012114,28.1346252 L45.2774691,28.5778871 L45.2838821,28.041982 C44.9733345,27.9489305 44.6369423,28.0126033 44.3818719,28.2127156 C44.1268015,28.4128279 43.9848661,28.7244211 44.0012828,29.0482293 C44.0180846,29.4046716 44.2237471,29.7250732 44.5407994,29.8887419 C44.8578518,30.0524106 45.238126,30.0344813 45.5383766,29.8417077 C45.8386272,29.6489341 46.0132389,29.3106031 45.9964372,28.9541608 L46,28.9541608 Z" id="Path" fill="#57B793"></path>
                    <path d="M43.8892764,34.4576425 C43.6729178,34.8778491 43.191844,35.0892118 42.7359318,34.9643714 C42.2800196,34.839531 41.9737922,34.4125852 42.0017704,33.9407953 C42.0297487,33.4690053 42.384291,33.0812311 42.8517637,33.0111305 C43.3192364,32.9410299 43.7719587,33.2077495 43.9371375,33.6505743 L43.3113715,34.1598129 L44,33.9998277 C44.0000803,34.1590707 43.9621194,34.31603 43.8892764,34.4576425 L43.8892764,34.4576425 Z" id="Path" fill="#57B793"></path>
                    <path d="M43.0471648,32.9988445 C42.7818327,33.0116009 42.5223401,32.9183193 42.3260677,32.7396267 C42.1297952,32.5609341 42.012913,32.3115523 42.0012667,32.0466261 C41.993312,31.8902273 42.0229092,31.7341949 42.0875926,31.591527 C42.2089492,31.3210816 42.4440679,31.1181854 42.7296855,31.0374313 L42.7246915,31.4497982 L42.9515643,31.0011089 L42.9515643,31.0011089 C43.5041776,30.9753451 43.9730809,31.4016678 43.9988892,31.9533273 C44.0246975,32.5049867 43.5976378,32.9730807 43.0450245,32.9988445 L43.0471648,32.9988445 Z" id="Path" fill="#57B793"></path>
                    <path d="M46.046319,30.9988702 C45.4950642,31.0248761 45.0271167,30.5987651 45.001129,30.0471247 C44.9751413,29.4954842 45.4009544,29.0272093 45.9522091,29.0012034 C46.1393256,28.9919713 46.3252245,29.0360048 46.4883502,29.128198 L46.3115377,29.6133456 L46.6751441,29.2637539 C46.8702614,29.4422169 46.9866683,29.690845 46.998825,29.9550893 C47.0033672,30.0476405 46.9947252,30.1403675 46.9731587,30.230482 C46.8706324,30.665169 46.4921918,30.9789119 46.046319,30.9988702 L46.046319,30.9988702 Z" id="Path" fill="#57B793"></path>
                    <path d="M45.8848281,29.4705071 C45.650138,29.4884692 45.4219672,29.5388628 45.1865528,29.5488418 C44.9511385,29.5588207 44.6925449,29.5199028 44.5433284,29.3936692 C44.4629253,29.3258124 44.423086,29.2399935 44.3549969,29.1661494 C44.2908627,29.097145 44.2030449,29.0400817 44.0993007,29 C43.9319598,29.2409481 43.9787427,29.5265341 44.2198245,29.7357376 C44.4609064,29.944941 44.8540764,30.0411327 45.232724,29.9835501 C45.6113716,29.9259676 45.9091997,29.7246929 46,29.4650187 C45.960885,29.4660166 45.9224943,29.4680123 45.8848281,29.4705071 Z" id="Path" fill="#000000" opacity="0.1"></path>
                    <path d="M46.0628436,30.9990986 C45.7070562,31.0115794 45.3680012,30.8937545 45.1702211,30.6889038 C44.9724411,30.484053 44.9450958,30.2223788 45.0982299,30 C45.1787271,30.0375772 45.247924,30.085587 45.301991,30.1413725 C45.3742467,30.2168044 45.4176001,30.303726 45.5028619,30.3731633 C45.6603793,30.5015475 45.9306156,30.5435097 46.1755624,30.5355169 C46.4205093,30.5275241 46.6560629,30.4800669 46.8981195,30.4645809 C46.9313571,30.4645809 46.9660398,30.4605845 47,30.4600849 C46.89687,30.7643273 46.5143244,30.9843517 46.0628436,30.9990986 L46.0628436,30.9990986 Z" id="Path" fill="#000000" opacity="0.1"></path>
                    <path d="M43.069505,32.9991796 C42.7985123,33.0082365 42.5334837,32.9420076 42.333024,32.8151379 C42.1325643,32.6882682 42.0131885,32.5112099 42.0012938,32.3231153 C41.9931694,32.2120739 42.0233979,32.1012926 42.0894613,32 C42.1742638,32.0384878 42.248324,32.0873128 42.3080584,32.1441124 C42.387482,32.2219837 42.4370307,32.3114851 42.5266555,32.3832885 C42.6993472,32.5167822 42.9893527,32.5638083 43.2509406,32.5592574 C43.5125284,32.5547065 43.7478847,32.5122313 44,32.4990842 C43.8725186,32.7851198 43.5004699,32.9850778 43.069505,32.9991796 Z" id="Path" fill="#000000" opacity="0.1"></path>
                    <path d="M44,34.581363 C43.7632427,34.938597 43.1442278,35.0980499 42.6173914,34.9375109 C42.090555,34.776972 41.8553994,34.3572341 42.0921567,34 C42.17805,34.0387086 42.2553696,34.0855197 42.3217838,34.1390216 C42.4209409,34.2214235 42.4865487,34.3144415 42.6021078,34.3917881 C42.8160785,34.5338429 43.1612647,34.5940013 43.4684282,34.5980455 C43.6459496,34.5996245 43.8234526,34.5940538 44,34.581363 L44,34.581363 Z" id="Path" fill="#000000" opacity="0.1"></path>
                    <path d="M42,35.2861365 C42,35.2861365 42.8056171,35.269892 43.048685,35.1561805 C43.2917528,35.0424691 44.2858567,34.9067797 44.3491708,35.0892914 C44.4124849,35.2718031 45.5608714,35.9970722 44.6504585,35.9999389 C43.7400457,36.0028055 42.5356226,35.904383 42.2932825,35.8088271 C42.0509424,35.7132713 42,35.2861365 42,35.2861365 Z" id="Path" fill="#656380"></path>
                    <path d="M44.6690777,35.9098598 C43.7585026,35.9165255 42.5521727,35.776547 42.3095955,35.6432342 C42.1252951,35.5405834 42.0509922,35.1706404 42.026953,35 L42,35 C42,35 42.0509922,35.5952416 42.291384,35.7332204 C42.5317759,35.8711991 43.7395627,36.0051785 44.6508662,35.999846 C44.9138403,35.999846 45.0048978,35.9118595 44.9997986,35.7852124 C44.965561,35.8605341 44.8650335,35.9085267 44.6690777,35.9098598 Z" id="Path" fill="#000000" opacity="0.2"></path>
                    <path d="M10.3655551,34 C9.98515901,33.272924 10.4179513,32.3824723 10.912571,31.7343792 C11.4071907,31.0862862 12.0128902,30.4122261 11.9997912,29.5861509 C11.9809285,28.3992426 10.7611461,27.6986746 9.78657759,27.0695158 C9.06340314,26.602587 8.39630029,26.0489202 7.79919144,25.4200703 C7.55974101,25.1674331 7.32762605,24.8980254 7.18825227,24.5756018 C6.98705104,24.1114417 6.99229066,23.583987 7.00538969,23.0754666 C7.04730662,21.3803985 7.128346,19.6885763 7.24850785,18" id="Path" stroke="#3F3D56" stroke-width="4"></path>
                    <path d="M5.00221643,17.9044825 C5.03474222,17.2246883 5.41086724,16.6081284 6.00045818,16.2681228 L6.44814739,17.1535103 L6.43470503,16.0816947 C7.26923537,15.8358006 8.16700843,16.1575783 8.65529653,16.8775938 C9.14358462,17.5976093 9.11036318,18.5506744 8.57312514,19.2349471 C8.0358871,19.9192199 7.11788729,20.1777122 6.30250391,19.8743134 C5.48712053,19.5709147 4.96142138,18.7752316 5.00221643,17.9062357 L5.00221643,17.9044825 Z" id="Path" fill="#57B793"></path>
                    <path d="M9.22101384,30.9125948 C9.63458298,31.7189565 10.5383359,32.1464227 11.4236804,31.9544344 C12.3090249,31.762446 12.954758,30.9989713 12.9974896,30.0936601 C13.0114559,29.8168667 12.9670314,29.5402316 12.867105,29.2817449 C12.5680159,28.5054843 11.8201856,27.9952242 10.9886463,28 C10.1571071,28.0048433 9.41522365,28.5237197 9.12512562,29.3033882 L10.3745959,30.3200371 L9,30.0000676 C8.9994337,30.3175772 9.07523752,30.6305623 9.22101384,30.9125948 Z" id="Path" fill="#57B793"></path>
                    <path d="M8.90612666,26.9978839 C9.92229535,27.044301 10.8118022,26.3221592 10.9741311,25.3189847 C11.1364599,24.3158101 10.5200121,23.3504769 9.54095852,23.0746925 L9.55149029,23.8982587 L9.10096446,23.0022139 L9.09569857,23.0022139 C7.99104117,22.9507253 7.05375718,23.8035776 7.0022162,24.9071128 C6.95067521,26.0106479 7.80439475,26.9469797 8.90905215,26.9984684 L8.90612666,26.9978839 Z" id="Path" fill="#57B793"></path>
                    <path d="M4.90560449,23.9976145 C5.75340511,24.0389785 6.53469056,23.5391619 6.85359478,22.7514146 C7.17249899,21.9636673 6.95934011,21.0601152 6.32212266,20.4985752 C5.68490521,19.9370351 4.76286379,19.8402059 4.02318348,20.2571494 L4.37335055,21.2255792 L3.65025555,20.5259954 C3.25985881,20.8817646 3.02679264,21.378423 3.00244647,21.9064607 C2.99317811,22.0914608 3.0102746,22.2768397 3.0532207,22.4570104 C3.25718471,23.3275936 4.01359548,23.9566909 4.90560449,23.9976145 L4.90560449,23.9976145 Z" id="Path" fill="#57B793"></path>
                    <path d="M5.2312176,18.3916148 C5.69838361,18.4442541 6.15253992,18.5924914 6.62088862,18.6221388 C7.08923733,18.6517863 7.60430263,18.5374318 7.90056866,18.1647211 C8.06023299,17.9638445 8.14006516,17.7097236 8.27489281,17.4906955 C8.40264694,17.2866134 8.57776374,17.1180403 8.78463597,17 C9.13627715,17.7161927 9.05234695,18.5757042 8.56916852,19.2065567 C8.0859901,19.8374093 7.29036433,20.126273 6.52662055,19.9481341 C5.76287677,19.7699952 5.1682182,19.1568555 5,18.3740684 C5.07864947,18.3776987 5.15552488,18.3831441 5.2312176,18.3916148 Z" id="Path" fill="#000000" opacity="0.1"></path>
                    <path d="M5.87804176,23.9977607 C6.58856974,24.0317295 7.2643497,23.6773431 7.65903832,23.0637866 C8.05372694,22.4502301 8.10965734,21.6671485 7.80644111,21 C7.64549198,21.1122192 7.50706793,21.2557492 7.39884088,21.4226351 C7.25428498,21.6486958 7.16719598,21.9097712 6.99716507,22.117403 C6.68139338,22.5019518 6.14227098,22.6278823 5.65291373,22.6051534 C5.16355647,22.5824245 4.69138004,22.4374508 4.20439256,22.3913787 C4.13685415,22.3852357 4.06813085,22.3803214 4,22.3784785 C4.20680697,23.2926791 4.97343189,23.9536773 5.87804176,23.9977607 L5.87804176,23.9977607 Z" id="Path" fill="#000000" opacity="0.1"></path>
                    <path d="M9.39454778,26.9976491 C9.92675726,27.0323464 10.4337968,26.6810619 10.7337957,26.0697983 C11.0337947,25.4585346 11.0837521,24.6749086 10.8657486,24 C10.7394451,24.1164821 10.6295972,24.2641283 10.5416541,24.4356144 C10.422416,24.6689792 10.3480043,24.9378155 10.2085943,25.1531335 C9.94994627,25.5532764 9.51513066,25.6945399 9.12290009,25.6814714 C8.7432209,25.6702699 8.37743788,25.5408302 8,25.5003803 C8.1914384,26.3572746 8.74899849,26.955904 9.39454778,26.9976491 Z" id="Path" fill="#000000" opacity="0.1"></path>
                    <path d="M9,30.7998862 C9.32831753,31.6898266 10.0457742,32.1615993 10.7486171,31.9497115 C11.45146,31.7378238 11.964084,30.8952155 11.9980071,29.8960696 C12.0090944,29.5905867 11.9738274,29.2852786 11.8944995,29 C11.763826,29.1193809 11.6465242,29.2649114 11.5463798,29.4318952 C11.3955279,29.6901285 11.2957336,29.9780587 11.1212095,30.2169245 C10.7962978,30.6597946 10.2722616,30.8431403 9.80578113,30.8625078 C9.53653369,30.8637996 9.26746798,30.842889 9,30.7998862 Z" id="Path" fill="#000000" opacity="0.1"></path>
                    <polygon id="Path" fill="#006848" points="22 34.6721311 15.1633466 36 15.0079681 35.9852459 9 35.4098361 9 28.1803279 16.3545817 27 21.689243 27.5901639 21.6907968 27.6221311 21.6913147 27.6378689"></polygon>
                    <polygon id="Path" fill="#000000" opacity="0.1" points="23 35.5735251 15.1777778 37 15 36.9841503 15 29.022307 22.6462222 28"></polygon>
                    <polygon id="Path" fill="#000000" opacity="0.05" points="22 27.810625 21.9978779 27.8125 15.1540973 29 9 28.5 16.5334639 27 21.9978779 27.75 21.9994695 27.790625"></polygon>
                    <polygon id="Path" fill="#3F3D56" points="31 34.6721311 24.1633466 36 24.0079681 35.9852459 18 35.4098361 18 28.1803279 25.3545817 27 30.689243 27.5901639 30.6907968 27.6221311 30.6913147 27.6378689"></polygon>
                    <polygon id="Path" fill="#000000" opacity="0.1" points="31 35.5735251 23.1777778 37 23 36.9841503 23 29.022307 30.6462222 28"></polygon>
                    <polygon id="Path" fill="#000000" opacity="0.05" points="31 27.810625 30.9978779 27.8125 24.1540973 29 18 28.5 25.5334639 27 30.9978779 27.75 30.9994695 27.790625"></polygon>
                    <polygon id="Path" fill="#3F3D56" points="26 27.6721311 19.1633466 29 19.0079681 28.9852459 13 28.4098361 13 21.1803279 20.3545817 20 25.689243 20.5901639 25.6907968 20.6221311 25.6913147 20.6378689"></polygon>
                    <polygon id="Path" fill="#000000" opacity="0.1" points="26 27.5735251 18.1777778 29 18 28.9841503 18 21.022307 25.6462222 20"></polygon>
                    <polygon id="Path" fill="#000000" opacity="0.05" points="26 19.810625 25.9978779 19.8125 19.1540973 21 13 20.5 20.5334639 19 25.9978779 19.75 25.9994695 19.790625"></polygon>
                    <polygon id="Path" fill="#3F3D56" points="29 28.2619347 25.318855 29 25.2349618 28.9916248 22 28.6717965 22 24.6558836 25.9600763 24 28.8327481 24.3282035 28.8338168 24.3460008 28.8338168 24.354376"></polygon>
                    <polygon id="Path" fill="#000000" opacity="0.1" points="30 27.3656507 26.0891286 28 26 27.9928017 26 24.4543921 29.8234459 24"></polygon>
                    <polygon id="Path" fill="#000000" opacity="0.05" points="29 23.4051466 28.9989053 23.4063435 25.3136289 24 22 23.7498504 26.0563766 23 28.9989053 23.3752244 29 23.3955715"></polygon>
                    <polygon id="Path" fill="#3F3D56" points="20 20.2623809 16.318855 21 16.2349618 20.9921474 13 20.6722856 13 16.6559523 16.9600763 16 19.8327481 16.3282379 19.8338168 16.3460371 19.8338168 16.3544132"></polygon>
                    <polygon id="Path" fill="#000000" opacity="0.1" points="19 20.3660292 15.0891286 21 15 20.9932508 15 17.4544432 18.8234459 17"></polygon>
                    <polygon id="Path" fill="#000000" opacity="0.05" points="20 16.4051466 19.9989053 16.4063435 16.3136289 17 13 16.7498504 17.0563766 16 19.9989053 16.3752244 20 16.3955715"></polygon>
                    <polygon id="Path" fill="#006848" points="26 20.2623809 22.318855 21 22.2349618 20.9921474 19 20.6722856 19 16.6559523 22.9600763 16 25.8327481 16.3282379 25.8338168 16.3460371 25.8338168 16.3544132"></polygon>
                    <polygon id="Path" fill="#000000" opacity="0.1" points="26 20.3660292 22.0891286 21 22 20.9932508 22 17.4544432 25.8234459 17"></polygon>
                    <polygon id="Path" fill="#000000" opacity="0.05" points="26 16.4051466 25.9989053 16.4063435 22.3136289 17 19 16.7498504 23.0563766 16 25.9989053 16.3752244 26 16.3955715"></polygon>
                    <polygon id="Path" fill="#3F3D56" points="28 16.2623809 24.318855 17 24.2349618 16.9921474 21 16.6722856 21 12.6559523 24.9600763 12 27.8327481 12.3282379 27.8338168 12.3460371 27.8338168 12.3544132"></polygon>
                    <polygon id="Path" fill="#000000" opacity="0.1" points="28 15.3660292 24.0891286 16 24 15.9932508 24 12.4544432 27.8234459 12"></polygon>
                    <polygon id="Path" fill="#000000" opacity="0.05" points="28 12.4051466 27.9989053 12.4063435 24.3136289 13 21 12.7498504 25.0563766 12 27.9989053 12.3752244 28 12.3955715"></polygon>
                    <path d="M30.4603246,7.95586563 C30.4199811,8.26119053 30.1458667,8.50732938 30.044179,8.80138075 C29.8916476,9.24527618 30.1547091,9.72205276 30.5172476,10.0696534 C31.1074071,10.6275262 31.9357059,10.9614372 32.8173775,10.9969017 C32.9456081,11.0062815 33.07476,10.9943149 33.1976009,10.9616719 C33.3069872,10.9238322 33.40555,10.8664875 33.4866369,10.7935083 C33.7585408,10.5609917 33.9049931,10.2392262 33.9630213,9.91464232 C34.0210496,9.59005846 33.9989436,9.25983783 33.9762849,8.93243559 C33.9762546,8.864679 33.9616454,8.79749839 33.9331782,8.73420927 C33.8961761,8.6740186 33.8452319,8.62081159 33.78341,8.57778897 C33.5873986,8.42468362 33.3713746,8.29119077 33.1395726,8.17992714 C33.0400956,8.13295407 32.9334341,8.08598101 32.8698793,8.00471761 C32.8262661,7.94000491 32.7979202,7.86868373 32.7864291,7.79474803 L32.7151373,7.48660474 C32.7025282,7.39775808 32.6668516,7.3124025 32.6106864,7.23670805 C32.4852348,7.09297048 32.244832,7.07324179 32.0342723,7.06619583 L31.260562,7.04036065 C31.0201592,7.03237523 30.7040433,6.9736589 30.469167,7.01405574 C30.2481069,7.05116445 30.3227147,7.22308586 30.3625055,7.37903643 C30.4200677,7.56765353 30.4528741,7.76110932 30.4603246,7.95586563 L30.4603246,7.95586563 Z" id="Path" fill="#FFC0C6"></path>
                    <path d="M30.4603246,7.95586563 C30.4199811,8.26119053 30.1458667,8.50732938 30.044179,8.80138075 C29.8916476,9.24527618 30.1547091,9.72205276 30.5172476,10.0696534 C31.1074071,10.6275262 31.9357059,10.9614372 32.8173775,10.9969017 C32.9456081,11.0062815 33.07476,10.9943149 33.1976009,10.9616719 C33.3069872,10.9238322 33.40555,10.8664875 33.4866369,10.7935083 C33.7585408,10.5609917 33.9049931,10.2392262 33.9630213,9.91464232 C34.0210496,9.59005846 33.9989436,9.25983783 33.9762849,8.93243559 C33.9762546,8.864679 33.9616454,8.79749839 33.9331782,8.73420927 C33.8961761,8.6740186 33.8452319,8.62081159 33.78341,8.57778897 C33.5873986,8.42468362 33.3713746,8.29119077 33.1395726,8.17992714 C33.0400956,8.13295407 32.9334341,8.08598101 32.8698793,8.00471761 C32.8262661,7.94000491 32.7979202,7.86868373 32.7864291,7.79474803 L32.7151373,7.48660474 C32.7025282,7.39775808 32.6668516,7.3124025 32.6106864,7.23670805 C32.4852348,7.09297048 32.244832,7.07324179 32.0342723,7.06619583 L31.260562,7.04036065 C31.0201592,7.03237523 30.7040433,6.9736589 30.469167,7.01405574 C30.2481069,7.05116445 30.3227147,7.22308586 30.3625055,7.37903643 C30.4200677,7.56765353 30.4528741,7.76110932 30.4603246,7.95586563 L30.4603246,7.95586563 Z" id="Path" fill="#000000" opacity="0.1"></path>
                    <path d="M34.9549626,23.6850293 L34.6315648,27.0924974 C34.5471765,27.9862252 34.4611549,28.8836158 34.295645,29.7658319 C34.2412009,30.0698458 34.1715125,30.37229 34.0920242,30.6721179 C33.8709813,31.5046243 33.5503058,32.3182933 33.446862,33.1717301 C33.4435954,33.1963234 33.4408732,33.2240561 33.438151,33.2465563 C33.4169178,33.4349298 33.3984068,33.6253964 33.3292629,33.8012117 C33.2748188,33.9315034 33.1980527,34.0502834 33.1419753,34.1790053 C33.0330872,34.4364492 33.0156651,34.7211025 33.0020541,35 C32.6095986,34.7870696 32.1798098,34.6451827 31.7340519,34.5813921 C31.5162756,34.5505198 31.279444,34.5290661 31.1351672,34.3720882 C30.971835,34.2015055 30.9908904,33.9403988 31.0181125,33.711211 C31.1037711,32.9995777 31.1890668,32.2882931 31.2739996,31.5773574 C31.3023123,31.2714458 31.3569431,30.9683139 31.4373317,30.6710714 C31.4667315,30.5721753 31.5021202,30.474849 31.5380533,30.3775226 C31.5875974,30.2435681 31.6376859,30.1096136 31.6752523,29.9719963 C31.727355,29.7508915 31.7633752,29.5265682 31.7830515,29.3006539 C31.8707065,28.5848344 31.9763279,27.8705848 32.0688829,27.1552886 L32.0737828,27.1176139 C32.2126152,26.0334195 32.3182367,24.9439925 32.287748,23.8519492 C32.2833925,23.6902619 32.2763147,23.5285746 32.2654259,23.3663641 C32.2501816,23.1314204 32.2278595,23.0068846 32.4287581,22.8598486 C32.6525232,22.697638 32.9470656,22.5840906 33.2029527,22.4778689 C33.3406961,22.4203103 34.8575077,21.9022831 34.8907186,22.0163537 C34.9611347,22.2586509 34.997751,22.5088643 34.9996067,22.7604292 C35.0026768,23.0691882 34.9877721,23.3778706 34.9549626,23.6850293 L34.9549626,23.6850293 Z" id="Path" fill="#605D82"></path>
                    <path d="M35,29.5925041 C34.9408867,29.8901221 34.8652217,30.1862034 34.7789163,30.4797234 C34.5389163,31.2947153 34.1907389,32.0912661 34.0784236,32.9267481 C34.0748768,32.9508239 34.0719212,32.9779732 34.0689655,33 C33.3347783,32.0912661 32.7164532,31.1138905 32,30.1954239 C32.0537931,30.0642875 32.1081773,29.9331512 32.1489655,29.7984291 C32.2077432,29.5807525 32.2488292,29.3597715 32.2719212,29.1371126 C32.3670936,28.4363528 32.4817734,27.7371297 32.582266,27.0368821 L32.5875862,27 C32.6290667,27.148602 32.6885084,27.293001 32.7649261,27.4308034 C33.2461084,28.2780671 34.3893596,28.7063092 34.9485714,29.5172031 C34.9670936,29.5424742 34.9842365,29.5675745 35,29.5925041 Z" id="Path" fill="#000000" opacity="0.1"></path>
                    <path d="M29.0032765,22.3093952 C29.0275004,23.0189489 29.152756,23.7226164 29.2780116,24.4236084 L29.5362035,25.8684011 C29.6774114,26.6603615 29.8251185,27.46784 30.2386982,28.1768586 C30.5482921,28.7076862 30.9937765,29.1603879 31.3973122,29.6360992 C32.3887218,30.8058461 33.1337561,32.1313096 34.0737637,33.3353035 C34.3473171,33.6852644 34.7378545,34.0641211 35.2040179,33.9908113 C35.5100669,33.9431866 35.7322183,33.7120198 35.9720945,33.5343638 C36.255692,33.3246013 36.5971907,33.1710252 36.8205238,32.9077519 C37.0438568,32.6444786 37.0875781,32.2078301 36.7850741,32.0205422 C36.6816791,31.9568643 36.5558327,31.9327844 36.4388488,31.8921162 C35.9703221,31.7315837 35.6666364,31.3163395 35.4740264,30.8968146 C35.2814164,30.4772896 35.1638416,30.0272634 34.9068314,29.6371694 C34.3479079,28.7900929 33.2046555,28.3427422 32.7237214,27.4571379 C32.4543037,26.9616275 32.4283073,26.3869211 32.4082191,25.8373648 L32.3556354,24.4294946 C32.3497271,24.2753834 32.3455913,24.115386 32.4147182,23.9746525 C32.5984658,23.6000766 33.1538443,23.5647595 33.6040553,23.5171348 C34.1146213,23.4631429 34.6092324,23.3218712 35.0616284,23.1008205 C35.3210019,22.9739998 35.5738764,22.8123971 35.7115393,22.5769494 C35.8379765,22.362906 35.8551106,22.11087 35.8698813,21.8679308 L36.0258599,19.3159989 C36.0394489,19.0966045 36.0512655,18.8691834 35.9667771,18.6637018 C35.7523065,18.1467871 35.0314961,17.9776928 34.4223523,18.0023078 C33.2891439,18.0483271 32.2433781,18.4897915 31.1727975,18.788382 C30.9075156,18.862227 30.6410521,18.9285804 30.3674987,18.9783455 C30.1311674,19.0216893 29.8357534,19.0040307 29.6088753,19.0735948 C29.2023856,19.1977399 29.2124297,20.0036132 29.1551193,20.3375208 C29.0368694,20.9891012 28.9860346,21.6492565 29.0032765,22.3093952 L29.0032765,22.3093952 Z" id="Path" fill="#605D82"></path>
                    <path d="M35.2059292,33.4858385 C35.2970557,33.568252 35.3267122,33.6887394 35.3504375,33.8024796 C35.4822386,34.4337098 35.55081,35.0741865 35.5553372,35.7163027 C35.5494339,35.7762114 35.5627116,35.8363853 35.5936212,35.8898047 C35.6194737,35.9214603 35.6542713,35.9464087 35.6944534,35.9620972 C35.9581271,36.0743915 36.2638591,35.9177578 36.4838568,35.7457016 C36.8909603,35.4271328 37.2355154,34.9991612 37.2587014,34.5157655 C37.2646327,34.3914224 37.2489957,34.2656335 37.2732601,34.1427362 C37.308848,33.9605592 37.4280134,33.8019977 37.5326201,33.6429542 C37.7116016,33.3718618 37.856281,33.0838115 37.963988,32.7841195 C38.0038896,32.6713432 38.0308501,32.5296499 37.9316354,32.4510921 C37.8968916,32.4264126 37.8571699,32.4079245 37.8146269,32.3966317 L36.6229729,32.0014328 C36.5194446,31.9672144 36.2627807,32.5566391 36.2223399,32.6212204 C36.1225861,32.778818 36.0233715,32.8679787 35.8233246,32.9046069 C35.6232777,32.9412351 35.3763195,32.8882206 35.1854392,32.9793092 C34.8619133,33.1330512 35.023137,33.3214936 35.2059292,33.4858385 Z" id="Path" fill="#535070"></path>
                    <path d="M32.3332389,33.2039673 C32.3114987,33.1602436 32.2811606,33.121443 32.2440732,33.08993 C32.189877,33.0551157 32.1281586,33.0339958 32.0641496,33.0283606 C31.8412355,32.9898127 31.576923,32.9646496 31.4224754,33.1322255 C31.2781119,33.2890937 31.3030571,33.544473 31.1825773,33.7211505 C31.1443634,33.7746892 31.0923501,33.822874 31.0594438,33.8817665 C31.0185414,33.9719159 31.0003115,34.07085 31.006369,34.1698043 C31,34.442316 30.993631,34.7158985 31.012738,34.9878747 C31.0281296,35.2159493 31.0658127,35.4552671 31.2075224,35.6340861 C31.4346826,35.9210532 31.84442,35.962278 32.2074516,35.9804811 L32.5020167,35.9960073 C32.5830119,36.0055698 32.6650947,35.9979099 32.7429763,35.9735211 C32.840503,35.9282804 32.9156041,35.8449858 32.9510295,35.7427695 C33.1044156,35.3583621 32.8618638,34.9445084 32.7121929,34.5590302 C32.5396998,34.1151949 32.5704832,33.6231748 32.3332389,33.2039673 Z" id="Path" fill="#535070"></path>
                    <path d="M30.0192236,6.49653601 C30.0154174,6.45038099 30.0211252,6.40382324 30.0358593,6.36084169 C30.0793266,6.27016745 30.1930929,6.29743313 30.2789542,6.32026021 C30.6240095,6.42298208 30.987847,6.32977149 31.3436349,6.35386675 C31.6994229,6.377962 32.0997514,6.58784434 32.1711237,7 C32.4292448,6.78415412 32.6516893,6.5142217 32.8274263,6.20358845 C32.9261669,6.02921491 33.0120282,5.82947794 32.9986124,5.62022968 C32.9792936,5.31840492 32.7651768,5.09267044 32.5693056,4.90117658 L31.9790089,4.33049952 C31.9012459,4.24621861 31.8115036,4.17881708 31.713912,4.13139663 C31.5776071,4.07623118 31.428423,4.10286278 31.2846052,4.10286278 C30.8552985,4.10286278 30.394867,3.87142153 30.0122474,4.10286278 C29.8512574,4.19987788 29.7315881,4.3666424 29.6156753,4.52896832 L29.0881647,5.26704399 C29.0482347,5.31409235 29.0190616,5.37234381 29.0033766,5.43634485 C28.9883508,5.52638501 29.0275251,5.61515699 29.0414775,5.70583124 C29.0661627,5.8706935 29.0060597,6.04696931 29.0522102,6.20549071 C29.1289488,6.46800216 29.399412,6.50541321 29.5646951,6.65632559 C29.6258713,6.71212513 29.7224654,6.9029849 29.7959841,6.90044856 C29.9253128,6.89727813 30.0154672,6.61828045 30.0192236,6.49653601 Z" id="Path" fill="#3F3D56"></path>
                    <circle id="Oval" fill="#FFC0C6" cx="30.5" cy="5.5" r="1.5"></circle>
                    <path d="M30.8879415,9.80040238 C30.7756582,9.46773202 30.468617,9.24833553 30.1284057,9.25767547 C30.0808469,9.26707132 30.0316346,9.2605621 29.9878838,9.23908893 C29.9630834,9.21948262 29.9432059,9.19398212 29.9299314,9.16474278 C29.8319921,8.98166436 29.7530841,8.7883449 29.6945317,8.58802906 C29.668889,8.49934472 29.6335021,8.39472906 29.5468299,8.37189417 C29.4770819,8.35330764 29.4057952,8.4000395 29.3591256,8.45686121 C29.3177591,8.51783538 29.272889,8.57617851 29.224758,8.63157466 C29.0196166,8.81956422 28.6606193,8.64803702 28.4457337,8.8206263 C28.4103468,8.84877163 28.3811142,8.88488262 28.343163,8.91090377 C28.3062397,8.93420244 28.2663687,8.95207485 28.2246939,8.96400817 C27.8075619,9.10452662 27.3986451,9.26995863 27,9.45947217 C27.1435989,10.3537502 27.290275,11.2650216 27.6267068,12.1014158 C27.7867171,12.4996987 27.9677543,12.890016 28.0959677,13.300513 C28.3800885,14.2101913 28.3923969,15.1835948 28.3959869,16.1400049 C28.3959869,16.7942511 28.3959869,17.4623044 28.1908456,18.0815016 C28.1446888,18.2216972 28.0882749,18.3608307 28.0754536,18.5063367 C28.0626322,18.6518428 28.1046862,18.8164664 28.2200782,18.9035576 C28.2868787,18.9491817 28.3634946,18.9770852 28.4431694,18.9848073 C28.7975511,19.0379117 29.1544971,18.9412617 29.5032374,18.8573568 C30.4381691,18.6332562 31.3920764,18.5047436 32.3434194,18.3794172 L33.9383935,18.1669997 C34.0528151,18.1587142 34.16478,18.12865 34.2686711,18.0783153 C34.5604846,17.9131607 34.5881787,17.458587 34.4066286,17.1696991 C34.3199564,17.0310967 34.1973844,16.9174533 34.1240464,16.7708851 C34.0507084,16.624317 34.045067,16.418272 34.1707161,16.3168426 C34.4271428,16.1097354 34.3502148,15.7257907 34.3625232,15.3901709 C34.3967135,14.4512852 34.3920978,13.5131076 34.3486762,12.575638 C34.3356213,12.3812281 34.3325398,12.1862378 34.3394448,11.9914897 C34.3573947,11.6611803 34.4363741,11.3377746 34.5153535,11.016493 L35,9.04100954 C34.8733252,8.8339024 34.6307456,8.70220351 34.4015001,8.64272658 C34.1722546,8.58324966 33.9327521,8.56572521 33.7065838,8.49297219 C33.2450157,8.34427989 32.8306302,7.96723869 32.3470094,8.00228759 C32.3103335,8.0029636 32.2742559,8.01203088 32.2413616,8.02883979 C32.1326367,8.09309611 32.1495609,8.25559555 32.1428938,8.38517027 C32.1275082,8.67246505 31.9233925,8.91196586 31.6987627,9.08030679 C31.474133,9.24864772 31.2166806,9.37078783 31.0100006,9.56249469 C30.9373465,9.61921108 30.8926581,9.70631403 30.8879415,9.80040238 Z" id="Path" fill="#3F3D56"></path>
                    <path d="M24.9463883,11.9010889 C24.8284545,12.0053519 24.7030865,12.0931694 24.5721886,12.1632074 C24.4478323,12.2300822 24.314997,12.2831209 24.2132509,12.3999596 C24.1628748,12.4593949 24.1205886,12.5304291 24.0883293,12.6098082 C23.9656437,12.9058419 23.9711027,13.2691981 24.1025774,13.5581704 C24.234052,13.8471428 24.4707213,14.0159681 24.7202858,13.9988057 C24.8836449,13.9872755 25.0379598,13.8973404 25.1877528,13.8089427 L26.4437522,13.065633 C26.6562886,12.9403388 26.8857827,12.7942904 26.9863983,12.5098803 C26.9979282,12.4832526 27.0023224,12.4520173 26.9988339,12.4214826 C26.9891062,12.3879791 26.9705729,12.3605846 26.9468303,12.344615 C26.6637932,12.0942002 26.4162193,11.776539 26.215954,11.4068303 C26.1645156,11.3115144 26.1029027,11.087061 26.0282889,11.0294103 C25.7626184,10.8287859 25.1594899,11.713532 24.9463883,11.9010889 Z" id="Path" fill="#FFC0C6"></path>
                    <path d="M37.7019958,11 L38.1193145,11.5437378 C38.2089947,11.6599211 38.2986749,11.7761044 38.3802024,11.9015824 C38.58083,12.2165852 38.7417152,12.5621103 38.8581571,12.9280619 C38.9488564,13.1993499 39.0242693,13.4886463 38.9926774,13.7767809 C38.9715072,13.9245017 38.9364875,14.0692044 38.8882204,14.2084018 C38.811768,14.4760045 38.7168661,14.7362925 38.6044029,14.9868299 C38.5104885,15.176934 38.4043839,15.3588687 38.2869553,15.5311487 C37.9637199,16.0194389 37.610027,16.4805263 37.2286269,16.9108254 C37.0859539,17.0717392 37.0248083,17.3325707 36.9641722,17.5498335 C36.8495242,17.9512468 36.5769168,18.2643608 36.3134811,18.5606282 C36.2287511,18.6627477 36.135008,18.7546314 36.03374,18.8348208 C35.8820743,18.9463927 35.7046578,19.0038364 35.5241934,18.9998011 C35.4454491,19.0003149 35.3674936,18.9819066 35.2954069,18.9457759 C35.1150274,18.8481819 35.023309,18.610587 35.0044558,18.3840296 C34.9878058,18.1781661 35.0179913,17.9708855 35.0920978,17.7822001 C35.3315847,17.177466 35.9466075,16.9154727 36.3812508,16.4739762 C36.6360242,16.2154683 36.8311805,15.8901551 37.0237892,15.5689083 C37.1542455,15.368109 37.2632102,15.1502733 37.3483704,14.9200245 C37.4451843,14.624338 37.4074778,14.2746263 37.4925721,13.9748734 C37.5282404,13.8476527 37.5944814,13.7332121 37.6306592,13.6071532 C37.666837,13.4810944 37.6790662,13.3317988 37.6112965,13.2231674 C37.5605172,13.1537232 37.4956205,13.0994798 37.4222547,13.0651581 C37.1445517,12.9048252 36.8337283,12.6980189 36.7807354,12.3477263 C36.7595112,12.1537398 36.8039754,11.9578272 36.9050648,11.799922 C37.0056055,11.6440317 37.1232492,11.5034676 37.2551234,11.3816621 C37.3758859,11.257346 37.5802141,11.1196688 37.7019958,11 Z" id="Path" fill="#FFC0C6"></path>
                    <path d="M24.7587424,12.3859617 C24.6537945,12.249838 24.5218809,12.1109173 24.30907,12.0433216 C24.0997529,11.9855595 23.862463,11.9855595 23.653146,12.0433216 C23.4469204,12.1003536 23.2537297,12.1749996 23.078848,12.2652219 L22.5643121,12.5081001 C22.4476764,12.5570631 22.3444959,12.6180216 22.258943,12.6885106 C22.1773446,12.7740336 22.1233244,12.8691359 22.1000636,12.9682168 C22.0271832,13.195245 21.96815,13.4287997 22.0191663,13.658625 C22.1007924,14.0315666 22.4506186,14.3541611 22.8354273,14.6375967 C23.0759328,14.8138116 23.373285,14.9918912 23.7391449,14.9998162 C23.8972955,15.0030795 24.0729373,14.9629882 24.1385297,14.8711514 C24.1613994,14.8346628 24.1735074,14.7957807 24.1742412,14.7564718 C24.2135966,14.3425066 23.9818368,13.9383312 23.7121791,13.561194 C23.6392987,13.458635 23.5605878,13.3523467 23.5664182,13.239998 C23.5641817,13.2209233 23.5718688,13.2019109 23.5882824,13.1859215 C23.6114175,13.1704135 23.6424121,13.1606659 23.6757389,13.158417 C24.0452428,13.1117993 24.6822179,13.2954731 24.9409435,13.0330154 C25.1085685,12.8595976 24.8782663,12.5402663 24.7587424,12.3859617 Z" id="Path" fill="#FFC0C6"></path>
                    <path d="M30.018287,5.49653601 C30.0149209,5.45033906 30.0208044,5.40385459 30.0354616,5.36084169 C30.0789347,5.26953336 30.1927162,5.29743313 30.2785891,5.32026021 C30.6236907,5.42298208 30.987577,5.32977149 31.3434127,5.35386675 C31.6992484,5.377962 32.0990939,5.58784434 32.1710124,6 C32.4289166,5.78380656 32.6513418,5.51393376 32.8274032,5.20358845 C32.926157,5.02858082 33.0120298,4.82884385 32.9986122,4.61959559 C32.9792908,4.31777084 32.7646086,4.09203635 32.5692479,3.90117658 L31.9788719,3.33049952 C31.9012938,3.24622849 31.8117169,3.17882369 31.7142761,3.13139663 C31.5774162,3.07623118 31.4287488,3.10286278 31.2849118,3.10286278 C30.8555474,3.10286278 30.3950542,2.87142153 30.0123832,3.10286278 C29.8513716,3.19987788 29.7316863,3.3666424 29.6157579,3.52896832 L29.0876398,4.26704399 C29.0479366,4.31419717 29.0189532,4.37243051 29.003377,4.43634485 C28.9883493,4.52638501 29.0275288,4.61515699 29.0414831,4.70583124 C29.0661716,4.8706935 29.0060606,5.04696931 29.0522172,5.20485663 C29.1289661,5.46800216 29.3994656,5.50541321 29.5647709,5.65632559 C29.6259553,5.71212513 29.7225623,5.9029849 29.7960909,5.90044856 C29.9232901,5.89727813 30.0134566,5.61828045 30.018287,5.49653601 Z" id="Path" fill="#3F3D56"></path>
                    <path d="M26.9790447,10.5654608 C26.9053237,10.6099871 26.8404856,10.6660965 26.7874266,10.7312828 C26.7206506,10.8258068 26.7067147,10.9473375 26.6492293,11.0445622 C26.5261292,11.2573761 26.2375407,11.3335354 26.0581165,11.5079996 C26.029028,11.5318483 26.0087185,11.5635871 26.0000504,11.5987425 C25.9989461,11.6462509 26.0160274,11.6925783 26.0482452,11.7294557 L26.9157527,12.9976969 C27.2060832,13.0214629 27.4813165,12.8529402 27.7704856,12.875626 C27.8779079,12.883728 27.9888141,12.9182968 28.0921718,12.8885893 C28.1660441,12.8579775 28.2353341,12.8185786 28.2983064,12.7713796 C28.4725047,12.6698338 28.7001238,12.6579508 28.8447084,12.524537 C28.9892929,12.3911232 29.0014868,12.1950536 28.9997448,12.0130275 C29.0023495,11.8550462 28.9850045,11.6973268 28.948066,11.5431085 C28.8203206,11.0569853 28.4202452,10.6821304 28.1693997,10.2511012 C28.0468802,10.040988 27.9806849,9.91837692 27.7222908,10.0625935 C27.4638966,10.20681 27.223503,10.3990987 26.9790447,10.5654608 Z" id="Path" fill="#3F3D56"></path>
                    <path d="M36.4025546,9.45635877 C36.5561132,9.56122671 36.694604,9.68868086 36.8138107,9.834841 C36.9379531,10.0033749 37.008501,10.2104472 37.1282684,10.3830075 C37.2480358,10.5555678 37.4017099,10.6798112 37.5329619,10.833965 C37.7325742,11.0674966 37.8676543,11.3516459 38,11.6340696 C37.6760182,12.0774334 37.322965,12.4964341 36.9434219,12.8880076 C36.9010865,12.9403724 36.8452448,12.9787288 36.7826383,12.9984462 C36.6964227,13.0081912 36.6113311,12.9716571 36.5562287,12.9012373 C36.4971654,12.8368148 36.4556022,12.7562866 36.3992733,12.6889881 C36.2665667,12.5450334 36.0896739,12.4551657 35.8999691,12.4353245 C35.7118427,12.4160502 35.5225235,12.4131643 35.3339451,12.4266965 C35.292553,12.4318581 35.2506204,12.4244742 35.2130839,12.405414 C35.1851588,12.3852408 35.1625746,12.3579241 35.147458,12.3260363 C34.9287048,11.9302981 34.9970651,11.4333244 35.0752694,10.9812165 L35.2541002,9.94585478 C35.2802001,9.7481787 35.3303785,9.55485725 35.4033993,9.37065383 C35.4712127,9.21822558 35.6221525,8.95938515 35.8091865,9.00540123 C35.9962205,9.0514173 36.2445054,9.33671698 36.4025546,9.45635877 Z" id="Path" fill="#3F3D56"></path>
                    <polygon id="Path" fill="#006848" points="21 16.2623809 17.318855 17 17.2349618 16.9921474 14 16.6722856 14 12.6559523 17.9600763 12 20.8327481 12.3282379 20.8338168 12.3460371 20.8338168 12.3544132"></polygon>
                    <polygon id="Path" fill="#000000" opacity="0.1" points="21 16.3660292 17.0891286 17 17 16.9932508 17 13.4544432 20.8234459 13"></polygon>
                    <polygon id="Path" fill="#000000" opacity="0.05" points="21 12.4051466 20.9989053 12.4063435 17.3136289 13 14 12.7498504 18.0563766 12 20.9989053 12.3752244 21 12.3955715"></polygon>
                    <polygon id="Path" fill="#3F3D56" points="23 12.2619347 19.318855 13 19.2349618 12.9916248 16 12.6717965 16 8.65588358 19.9600763 8 22.8327481 8.32820352 22.8338168 8.34600084 22.8338168 8.35437605"></polygon>
                    <polygon id="Path" fill="#000000" opacity="0.1" points="24 12.3656507 20.0891286 13 20 12.9928017 20 9.45439208 23.8234459 9"></polygon>
                    <polygon id="Path" fill="#000000" opacity="0.05" points="23 8.40514662 22.9989053 8.40634351 19.3136289 9 16 8.74985039 20.0563766 8 22.9989053 8.37522442 23 8.39557151"></polygon>
                </g>
            </g>
        </g>
    </g>
</svg>