<?xml version="1.0" encoding="UTF-8"?>
<svg width="60px" height="33px" viewBox="0 0 60 33" version="1.1" xmlns="http://www.w3.org/2000/svg" xmlns:xlink="http://www.w3.org/1999/xlink">
    <title>577C1191-25A1-491C-8B69-FB3A241D71CD</title>
    <g id="Web" stroke="none" stroke-width="1" fill="none" fill-rule="evenodd">
        <g id="Prepaid-Plans" transform="translate(-305.000000, -390.000000)">
            <g id="Group-4" transform="translate(280.000000, 340.000000)">
                <g id="undraw_developer_activity_bv83" transform="translate(25.000000, 50.000000)">
                    <path d="M60,21.1944996 C60.0006831,22.0916258 59.8797831,22.9845452 59.6406974,23.8478911 C59.4096174,24.680195 59.0696731,25.4769569 58.6300341,26.216685 C58.6300341,28.8968244 56.8562597,31.2131924 54.281612,32.3152058 C53.2057574,32.7710696 52.0516729,33.0038449 50.8866855,33 L11.3900479,33 C9.27903607,33 7.32274438,32.4189876 5.7183754,31.4293154 C5.25921651,31.1473797 4.82364827,30.8272804 4.41610402,30.4722756 C2.63288907,28.9091284 1.52729581,26.7489681 1.52729581,24.3630556 C0.526500034,22.7911804 -0.00416828874,20.9561983 0,19.0819506 C0,15.157499 2.27572161,11.7829841 5.53585811,10.2931262 C5.96876908,10.0953842 6.41609506,9.93226563 6.87379379,9.80524453 C7.03568174,9.76030807 7.19931793,9.7200079 7.36470238,9.68434403 C7.80558093,9.58858011 8.25276427,9.52599975 8.70263806,9.49710875 C8.86522531,9.48676623 9.02868668,9.48088169 9.19302217,9.47945513 L9.28323187,9.47945513 C9.46470021,9.47945513 9.64459513,9.48587463 9.8234411,9.49657379 L9.8821823,9.39493178 C9.9542102,9.27224808 10.0279863,9.15081262 10.1035107,9.0306254 C10.2398742,8.81164927 10.3828811,8.5958829 10.5325313,8.38332626 C10.6891745,8.15900056 10.8526358,7.93824124 11.0229154,7.7210483 L11.0664468,7.66755251 C11.1629502,7.54486881 11.2615515,7.42361168 11.3622507,7.30378109 C11.6769357,6.92966716 12.0091032,6.56678734 12.3587532,6.21514163 C16.1407423,2.43405874 22.0657362,0 28.7265685,0 C33.9094303,0 38.6470128,1.47380919 42.2758552,3.90893785 C43.6506004,3.11541215 45.2035829,2.69903937 46.7831932,2.70046781 C51.9094117,2.70046781 56.0664004,6.99992497 56.0664004,12.3034982 C56.0656372,12.6390726 56.0481321,12.9743899 56.0139529,13.3081493 C58.5215924,15.1187509 60.0085749,18.060757 60,21.1944996 Z" id="Path" fill="#006848" opacity="0.1"></path>
                    <path d="M12,6 L12,7 L11,7 C11.3133333,6.65667486 11.6466667,6.32334152 12,6 Z" id="Path" fill="#006848" opacity="0.2"></path>
                    <rect id="Rectangle" fill="#006848" opacity="0.2" x="13" y="6" width="1" height="1"></rect>
                    <rect id="Rectangle" fill="#006848" opacity="0.2" x="15" y="6" width="1" height="1"></rect>
                    <rect id="Rectangle" fill="#006848" opacity="0.2" x="16" y="6" width="1" height="1"></rect>
                    <rect id="Rectangle" fill="#006848" opacity="0.2" x="19" y="6" width="1" height="1"></rect>
                    <rect id="Rectangle" fill="#006848" opacity="0.2" x="21" y="6" width="1" height="1"></rect>
                    <rect id="Rectangle" fill="#006848" x="22" y="6" width="1" height="1"></rect>
                    <rect id="Rectangle" fill="#006848" opacity="0.2" x="24" y="6" width="1" height="1"></rect>
                    <rect id="Rectangle" fill="#006848" opacity="0.2" x="26" y="6" width="1" height="1"></rect>
                    <rect id="Rectangle" fill="#006848" opacity="0.2" x="27" y="6" width="1" height="1"></rect>
                    <rect id="Rectangle" fill="#006848" x="30" y="6" width="1" height="1"></rect>
                    <rect id="Rectangle" fill="#006848" opacity="0.2" x="32" y="6" width="1" height="1"></rect>
                    <rect id="Rectangle" fill="#006848" opacity="0.2" x="33" y="6" width="1" height="1"></rect>
                    <rect id="Rectangle" fill="#006848" opacity="0.2" x="35" y="6" width="1" height="1"></rect>
                    <rect id="Rectangle" fill="#006848" opacity="0.2" x="37" y="6" width="1" height="1"></rect>
                    <rect id="Rectangle" fill="#006848" opacity="0.2" x="39" y="6" width="1" height="1"></rect>
                    <rect id="Rectangle" fill="#006848" opacity="0.2" x="40" y="6" width="1" height="1"></rect>
                    <rect id="Rectangle" fill="#006848" x="42" y="6" width="1" height="1"></rect>
                    <rect id="Rectangle" fill="#006848" x="44" y="6" width="1" height="1"></rect>
                    <rect id="Rectangle" fill="#006848" opacity="0.2" x="45" y="6" width="1" height="1"></rect>
                    <rect id="Rectangle" fill="#006848" opacity="0.2" x="48" y="6" width="1" height="1"></rect>
                    <rect id="Rectangle" fill="#006848" x="50" y="6" width="1" height="1"></rect>
                    <rect id="Rectangle" fill="#006848" x="51" y="6" width="1" height="1"></rect>
                    <path d="M10.1463415,9 L10.1463415,10 L9.85365854,10 C9.94668734,9.65950413 10.0442483,9.3261708 10.1463415,9 Z" id="Path" fill="#006848"></path>
                    <rect id="Rectangle" fill="#006848" opacity="0.2" x="11" y="8" width="1" height="1"></rect>
                    <rect id="Rectangle" fill="#006848" x="13" y="8" width="1" height="1"></rect>
                    <rect id="Rectangle" fill="#006848" opacity="0.2" x="15" y="8" width="1" height="1"></rect>
                    <rect id="Rectangle" fill="#006848" opacity="0.7" x="16" y="8" width="1" height="1"></rect>
                    <rect id="Rectangle" fill="#006848" opacity="0.2" x="19" y="8" width="1" height="1"></rect>
                    <rect id="Rectangle" fill="#006848" opacity="0.4" x="21" y="8" width="1" height="1"></rect>
                    <rect id="Rectangle" fill="#006848" x="22" y="8" width="1" height="1"></rect>
                    <rect id="Rectangle" fill="#006848" opacity="0.4" x="24" y="8" width="1" height="1"></rect>
                    <rect id="Rectangle" fill="#006848" opacity="0.2" x="26" y="8" width="1" height="1"></rect>
                    <rect id="Rectangle" fill="#006848" opacity="0.4" x="27" y="8" width="1" height="1"></rect>
                    <rect id="Rectangle" fill="#006848" x="30" y="8" width="1" height="1"></rect>
                    <rect id="Rectangle" fill="#006848" opacity="0.4" x="32" y="8" width="1" height="1"></rect>
                    <rect id="Rectangle" fill="#006848" opacity="0.4" x="33" y="8" width="1" height="1"></rect>
                    <rect id="Rectangle" fill="#006848" opacity="0.2" x="35" y="8" width="1" height="1"></rect>
                    <rect id="Rectangle" fill="#006848" opacity="0.4" x="37" y="8" width="1" height="1"></rect>
                    <rect id="Rectangle" fill="#006848" opacity="0.4" x="39" y="8" width="1" height="1"></rect>
                    <rect id="Rectangle" fill="#006848" opacity="0.2" x="40" y="8" width="1" height="1"></rect>
                    <rect id="Rectangle" fill="#006848" opacity="0.2" x="42" y="8" width="1" height="1"></rect>
                    <rect id="Rectangle" fill="#006848" opacity="0.4" x="44" y="8" width="1" height="1"></rect>
                    <rect id="Rectangle" fill="#006848" opacity="0.2" x="45" y="8" width="1" height="1"></rect>
                    <rect id="Rectangle" fill="#006848" x="48" y="8" width="1" height="1"></rect>
                    <rect id="Rectangle" fill="#006848" x="50" y="8" width="1" height="1"></rect>
                    <rect id="Rectangle" fill="#006848" x="51" y="8" width="1" height="1"></rect>
                    <path d="M7,9 L7,10 L6,10 L6,9.51149748 C6.32356635,9.30418381 6.65790677,9.13316952 7,9 Z" id="Path" fill="#006848" opacity="0.2"></path>
                    <polygon id="Path" fill="#006848" opacity="0.2" points="9 9 9 10 8 10 8 9.14836795"></polygon>
                    <rect id="Rectangle" fill="#006848" x="9" y="9" width="1" height="1"></rect>
                    <rect id="Rectangle" fill="#006848" opacity="0.7" x="11" y="9" width="1" height="1"></rect>
                    <rect id="Rectangle" fill="#006848" x="13" y="9" width="1" height="1"></rect>
                    <rect id="Rectangle" fill="#006848" opacity="0.7" x="15" y="9" width="1" height="1"></rect>
                    <rect id="Rectangle" fill="#006848" opacity="0.7" x="16" y="9" width="1" height="1"></rect>
                    <rect id="Rectangle" fill="#006848" opacity="0.2" x="19" y="9" width="1" height="1"></rect>
                    <rect id="Rectangle" fill="#006848" opacity="0.4" x="21" y="9" width="1" height="1"></rect>
                    <rect id="Rectangle" fill="#006848" opacity="0.4" x="22" y="9" width="1" height="1"></rect>
                    <rect id="Rectangle" fill="#006848" x="24" y="9" width="1" height="1"></rect>
                    <rect id="Rectangle" fill="#006848" opacity="0.2" x="26" y="9" width="1" height="1"></rect>
                    <rect id="Rectangle" fill="#006848" opacity="0.4" x="27" y="9" width="1" height="1"></rect>
                    <rect id="Rectangle" fill="#006848" x="30" y="9" width="1" height="1"></rect>
                    <rect id="Rectangle" fill="#006848" opacity="0.2" x="32" y="9" width="1" height="1"></rect>
                    <rect id="Rectangle" fill="#006848" opacity="0.4" x="33" y="9" width="1" height="1"></rect>
                    <rect id="Rectangle" fill="#006848" opacity="0.2" x="35" y="9" width="1" height="1"></rect>
                    <rect id="Rectangle" fill="#006848" x="37" y="9" width="1" height="1"></rect>
                    <rect id="Rectangle" fill="#006848" opacity="0.2" x="39" y="9" width="1" height="1"></rect>
                    <rect id="Rectangle" fill="#006848" opacity="0.7" x="40" y="9" width="1" height="1"></rect>
                    <rect id="Rectangle" fill="#006848" opacity="0.7" x="42" y="9" width="1" height="1"></rect>
                    <rect id="Rectangle" fill="#006848" opacity="0.4" x="44" y="9" width="1" height="1"></rect>
                    <rect id="Rectangle" fill="#006848" opacity="0.2" x="45" y="9" width="1" height="1"></rect>
                    <rect id="Rectangle" fill="#006848" x="48" y="9" width="1" height="1"></rect>
                    <rect id="Rectangle" fill="#006848" x="50" y="9" width="1" height="1"></rect>
                    <rect id="Rectangle" fill="#006848" x="51" y="9" width="1" height="1"></rect>
                    <rect id="Rectangle" fill="#006848" opacity="0.2" x="6" y="11" width="1" height="1"></rect>
                    <rect id="Rectangle" fill="#006848" opacity="0.2" x="8" y="11" width="1" height="1"></rect>
                    <rect id="Rectangle" fill="#006848" opacity="0.2" x="9" y="11" width="1" height="1"></rect>
                    <rect id="Rectangle" fill="#006848" opacity="0.2" x="11" y="11" width="1" height="1"></rect>
                    <rect id="Rectangle" fill="#006848" x="13" y="11" width="1" height="1"></rect>
                    <rect id="Rectangle" fill="#006848" opacity="0.7" x="15" y="11" width="1" height="1"></rect>
                    <rect id="Rectangle" fill="#006848" opacity="0.7" x="16" y="11" width="1" height="1"></rect>
                    <rect id="Rectangle" fill="#006848" opacity="0.2" x="19" y="11" width="1" height="1"></rect>
                    <rect id="Rectangle" fill="#006848" opacity="0.2" x="21" y="11" width="1" height="1"></rect>
                    <rect id="Rectangle" fill="#006848" opacity="0.4" x="22" y="11" width="1" height="1"></rect>
                    <rect id="Rectangle" fill="#006848" opacity="0.4" x="24" y="11" width="1" height="1"></rect>
                    <rect id="Rectangle" fill="#006848" x="26" y="11" width="1" height="1"></rect>
                    <rect id="Rectangle" fill="#006848" opacity="0.2" x="27" y="11" width="1" height="1"></rect>
                    <rect id="Rectangle" fill="#006848" opacity="0.4" x="30" y="11" width="1" height="1"></rect>
                    <rect id="Rectangle" fill="#006848" opacity="0.4" x="32" y="11" width="1" height="1"></rect>
                    <rect id="Rectangle" fill="#006848" opacity="0.4" x="33" y="11" width="1" height="1"></rect>
                    <rect id="Rectangle" fill="#006848" opacity="0.4" x="35" y="11" width="1" height="1"></rect>
                    <rect id="Rectangle" fill="#006848" opacity="0.2" x="37" y="11" width="1" height="1"></rect>
                    <rect id="Rectangle" fill="#006848" opacity="0.2" x="39" y="11" width="1" height="1"></rect>
                    <rect id="Rectangle" fill="#006848" opacity="0.2" x="40" y="11" width="1" height="1"></rect>
                    <rect id="Rectangle" fill="#006848" opacity="0.2" x="42" y="11" width="1" height="1"></rect>
                    <rect id="Rectangle" fill="#006848" opacity="0.7" x="44" y="11" width="1" height="1"></rect>
                    <rect id="Rectangle" fill="#006848" opacity="0.7" x="45" y="11" width="1" height="1"></rect>
                    <rect id="Rectangle" fill="#006848" opacity="0.4" x="48" y="11" width="1" height="1"></rect>
                    <rect id="Rectangle" fill="#006848" opacity="0.2" x="50" y="11" width="1" height="1"></rect>
                    <rect id="Rectangle" fill="#006848" x="51" y="11" width="1" height="1"></rect>
                    <rect id="Rectangle" fill="#006848" opacity="0.2" x="6" y="13" width="1" height="1"></rect>
                    <rect id="Rectangle" fill="#006848" opacity="0.2" x="8" y="13" width="1" height="1"></rect>
                    <rect id="Rectangle" fill="#006848" opacity="0.4" x="9" y="13" width="1" height="1"></rect>
                    <rect id="Rectangle" fill="#006848" opacity="0.2" x="11" y="13" width="1" height="1"></rect>
                    <rect id="Rectangle" fill="#006848" opacity="0.2" x="13" y="13" width="1" height="1"></rect>
                    <rect id="Rectangle" fill="#006848" opacity="0.7" x="15" y="13" width="1" height="1"></rect>
                    <rect id="Rectangle" fill="#006848" opacity="0.7" x="16" y="13" width="1" height="1"></rect>
                    <rect id="Rectangle" fill="#006848" opacity="0.2" x="19" y="13" width="1" height="1"></rect>
                    <rect id="Rectangle" fill="#006848" opacity="0.2" x="21" y="13" width="1" height="1"></rect>
                    <rect id="Rectangle" fill="#006848" opacity="0.4" x="22" y="13" width="1" height="1"></rect>
                    <rect id="Rectangle" fill="#006848" x="24" y="13" width="1" height="1"></rect>
                    <rect id="Rectangle" fill="#006848" opacity="0.2" x="26" y="13" width="1" height="1"></rect>
                    <rect id="Rectangle" fill="#006848" x="27" y="13" width="1" height="1"></rect>
                    <rect id="Rectangle" fill="#006848" x="30" y="13" width="1" height="1"></rect>
                    <rect id="Rectangle" fill="#006848" x="32" y="13" width="1" height="1"></rect>
                    <rect id="Rectangle" fill="#006848" opacity="0.2" x="33" y="13" width="1" height="1"></rect>
                    <rect id="Rectangle" fill="#006848" x="35" y="13" width="1" height="1"></rect>
                    <rect id="Rectangle" fill="#006848" opacity="0.2" x="37" y="13" width="1" height="1"></rect>
                    <rect id="Rectangle" fill="#006848" opacity="0.2" x="39" y="13" width="1" height="1"></rect>
                    <rect id="Rectangle" fill="#006848" opacity="0.2" x="40" y="13" width="1" height="1"></rect>
                    <rect id="Rectangle" fill="#006848" opacity="0.2" x="42" y="13" width="1" height="1"></rect>
                    <rect id="Rectangle" fill="#006848" opacity="0.2" x="44" y="13" width="1" height="1"></rect>
                    <rect id="Rectangle" fill="#006848" opacity="0.7" x="45" y="13" width="1" height="1"></rect>
                    <rect id="Rectangle" fill="#006848" opacity="0.2" x="48" y="13" width="1" height="1"></rect>
                    <rect id="Rectangle" fill="#006848" opacity="0.2" x="50" y="13" width="1" height="1"></rect>
                    <rect id="Rectangle" fill="#006848" x="51" y="13" width="1" height="1"></rect>
                    <rect id="Rectangle" fill="#006848" opacity="0.2" x="6" y="15" width="1" height="1"></rect>
                    <rect id="Rectangle" fill="#006848" opacity="0.2" x="8" y="15" width="1" height="1"></rect>
                    <rect id="Rectangle" fill="#006848" opacity="0.2" x="9" y="15" width="1" height="1"></rect>
                    <rect id="Rectangle" fill="#006848" opacity="0.4" x="11" y="15" width="1" height="1"></rect>
                    <rect id="Rectangle" fill="#006848" opacity="0.2" x="13" y="15" width="1" height="1"></rect>
                    <rect id="Rectangle" fill="#006848" opacity="0.2" x="15" y="15" width="1" height="1"></rect>
                    <rect id="Rectangle" fill="#006848" opacity="0.7" x="16" y="15" width="1" height="1"></rect>
                    <rect id="Rectangle" fill="#006848" opacity="0.2" x="19" y="15" width="1" height="1"></rect>
                    <rect id="Rectangle" fill="#006848" opacity="0.2" x="21" y="15" width="1" height="1"></rect>
                    <rect id="Rectangle" fill="#006848" opacity="0.2" x="22" y="15" width="1" height="1"></rect>
                    <rect id="Rectangle" fill="#006848" x="24" y="15" width="1" height="1"></rect>
                    <rect id="Rectangle" fill="#006848" opacity="0.2" x="26" y="15" width="1" height="1"></rect>
                    <rect id="Rectangle" fill="#006848" x="27" y="15" width="1" height="1"></rect>
                    <rect id="Rectangle" fill="#006848" x="30" y="15" width="1" height="1"></rect>
                    <rect id="Rectangle" fill="#006848" opacity="0.2" x="32" y="15" width="1" height="1"></rect>
                    <rect id="Rectangle" fill="#006848" opacity="0.2" x="33" y="15" width="1" height="1"></rect>
                    <rect id="Rectangle" fill="#006848" opacity="0.2" x="35" y="15" width="1" height="1"></rect>
                    <rect id="Rectangle" fill="#006848" opacity="0.2" x="37" y="15" width="1" height="1"></rect>
                    <rect id="Rectangle" fill="#006848" opacity="0.2" x="39" y="15" width="1" height="1"></rect>
                    <rect id="Rectangle" fill="#006848" opacity="0.2" x="40" y="15" width="1" height="1"></rect>
                    <rect id="Rectangle" fill="#006848" opacity="0.2" x="42" y="15" width="1" height="1"></rect>
                    <rect id="Rectangle" fill="#006848" opacity="0.2" x="44" y="15" width="1" height="1"></rect>
                    <rect id="Rectangle" fill="#006848" opacity="0.2" x="45" y="15" width="1" height="1"></rect>
                    <rect id="Rectangle" fill="#006848" opacity="0.2" x="48" y="15" width="1" height="1"></rect>
                    <rect id="Rectangle" fill="#006848" opacity="0.4" x="50" y="15" width="1" height="1"></rect>
                    <rect id="Rectangle" fill="#006848" x="51" y="15" width="1" height="1"></rect>
                    <rect id="Rectangle" fill="#006848" opacity="0.7" x="6" y="16" width="1" height="1"></rect>
                    <rect id="Rectangle" fill="#006848" opacity="0.7" x="8" y="16" width="1" height="1"></rect>
                    <rect id="Rectangle" fill="#006848" opacity="0.7" x="9" y="16" width="1" height="1"></rect>
                    <rect id="Rectangle" fill="#006848" opacity="0.7" x="11" y="16" width="1" height="1"></rect>
                    <rect id="Rectangle" fill="#006848" opacity="0.7" x="13" y="16" width="1" height="1"></rect>
                    <rect id="Rectangle" fill="#006848" opacity="0.2" x="15" y="16" width="1" height="1"></rect>
                    <rect id="Rectangle" fill="#006848" opacity="0.2" x="16" y="16" width="1" height="1"></rect>
                    <rect id="Rectangle" fill="#006848" opacity="0.2" x="19" y="16" width="1" height="1"></rect>
                    <rect id="Rectangle" fill="#006848" opacity="0.2" x="21" y="16" width="1" height="1"></rect>
                    <rect id="Rectangle" fill="#006848" opacity="0.2" x="22" y="16" width="1" height="1"></rect>
                    <rect id="Rectangle" fill="#006848" opacity="0.2" x="24" y="16" width="1" height="1"></rect>
                    <rect id="Rectangle" fill="#006848" x="26" y="16" width="1" height="1"></rect>
                    <rect id="Rectangle" fill="#006848" opacity="0.2" x="27" y="16" width="1" height="1"></rect>
                    <rect id="Rectangle" fill="#006848" opacity="0.2" x="30" y="16" width="1" height="1"></rect>
                    <rect id="Rectangle" fill="#006848" opacity="0.2" x="32" y="16" width="1" height="1"></rect>
                    <rect id="Rectangle" fill="#006848" x="33" y="16" width="1" height="1"></rect>
                    <rect id="Rectangle" fill="#006848" opacity="0.2" x="35" y="16" width="1" height="1"></rect>
                    <rect id="Rectangle" fill="#006848" opacity="0.2" x="37" y="16" width="1" height="1"></rect>
                    <rect id="Rectangle" fill="#006848" opacity="0.2" x="39" y="16" width="1" height="1"></rect>
                    <rect id="Rectangle" fill="#006848" opacity="0.2" x="40" y="16" width="1" height="1"></rect>
                    <rect id="Rectangle" fill="#006848" opacity="0.2" x="42" y="16" width="1" height="1"></rect>
                    <rect id="Rectangle" fill="#006848" opacity="0.2" x="44" y="16" width="1" height="1"></rect>
                    <rect id="Rectangle" fill="#006848" opacity="0.2" x="45" y="16" width="1" height="1"></rect>
                    <rect id="Rectangle" fill="#006848" opacity="0.2" x="48" y="16" width="1" height="1"></rect>
                    <rect id="Rectangle" fill="#006848" opacity="0.2" x="50" y="16" width="1" height="1"></rect>
                    <rect id="Rectangle" fill="#006848" x="51" y="16" width="1" height="1"></rect>
                    <circle id="Oval" fill="#767D9F" cx="38.5" cy="19.5" r="1.5"></circle>
                    <path d="M39.0431912,17.3959883 C39.2114481,18.1900111 39.3542408,18.9899595 39.4715693,19.7958334 C39.5068646,20.035295 39.5382919,20.2878277 39.4580314,20.5142184 C39.3908254,20.7029643 39.2539958,20.8504058 39.1466595,21.0156239 C39.0393232,21.180842 38.9580958,21.392593 39.0233678,21.5818618 C39.0886399,21.7711307 39.2791376,21.8746534 39.4609324,21.9279833 C39.9811749,22.0796075 40.5357457,21.9692878 41.0535707,21.8051154 C41.2880283,21.7398449 41.5128087,21.6391662 41.7212798,21.5060498 C41.9407873,21.3554712 42.1206481,21.1463344 42.286004,20.9309235 C43.0407424,19.9411835 43.5348761,18.7532863 44,17.5727089 C43.3936746,17.6323833 42.7978549,17.3727931 42.3991422,16.8752376 C42.2086445,16.6331617 42.0689139,16.2959286 42.1762502,16 C41.8614938,16.1866546 41.4877508,16.1992028 41.1488196,16.3267763 C40.9386281,16.4135856 40.7363099,16.5212265 40.5444486,16.6483242 C40.3130148,16.7929771 40.0828704,16.9404186 39.8540153,17.0906485 C39.5924435,17.2610951 39.3473106,17.4127193 39.0431912,17.3959883 Z" id="Path" fill="#AE6E79"></path>
                    <path d="M41.8106263,18.7284921 C41.4930874,19.3670622 41.079923,19.9809273 40.4900593,20.3611693 C39.9001957,20.7414112 39.1060885,20.8445276 38.5151854,20.4685822 C38.2241514,20.284906 38.003797,20.0056323 37.7496619,19.7703979 C37.4955268,19.5351635 37.1779879,19.3337642 36.8365426,19.3643769 C36.4602771,19.398212 36.1656052,19.7016536 35.9135489,19.9922057 C35.531047,20.433673 35.1615377,20.8939376 34.8907721,21.4165017 C34.3710684,22.420813 34.2478986,23.5948368 34.2707656,24.7334143 C34.2936326,25.8719918 34.4531816,27.0046616 34.4568195,28.1432391 C34.4620166,29.5439043 34.2323075,30.9332911 34,32.3130107 C36.1359821,32.0412559 38.2745626,32.6352496 40.415222,32.8602798 C41.7851609,33.0058244 43.1654938,33.002602 44.5427085,32.9988425 C44.7848904,32.9988425 45.0426634,32.9923977 45.2443084,32.853835 C45.3675596,32.7609163 45.4672321,32.6385668 45.5348228,32.4972239 C45.7250343,32.1347052 45.8014308,31.7211652 45.8544405,31.3124589 C45.9890438,30.2802202 45.9932014,29.235092 45.9968393,28.1931861 C46.006194,25.6689813 46.015029,23.1356463 45.7047659,20.6313129 C45.6283694,20.0152995 45.5306652,19.3960637 45.3019955,18.8197931 C45.0733259,18.2435225 44.7001787,17.7134395 44.1783962,17.4046272 C43.8431874,17.2059132 43.0662304,16.8600434 42.6712556,17.0603686 C42.2279484,17.2837876 42.0231851,18.3009884 41.8106263,18.7284921 Z" id="Path" fill="#767D9F"></path>
                    <path d="M42.4765742,25.358943 C42.3918842,23.7912536 42.0471141,22.1181505 42.7809116,20.7266909 C42.9612193,20.3850427 42.3142973,19.9585231 42.5142748,19.6276865 C42.7583194,19.2243255 42.9433796,18.7887939 43.06394,18.3340724 C43.1054654,18.1778441 43.138795,18.0124258 43.0994552,17.8556569 C43.0267857,17.5696887 42.7410254,17.3994052 42.4984296,17.2253376 C42.2307001,17.0328902 42.0930106,16.4463581 42.0066814,16.1290361 C41.9203523,15.8117141 42.6934897,16.193906 43.0043839,16.0809243 C43.4360295,15.9246959 43.9846019,16.0230819 44.4151548,16.1814726 C44.655565,16.269047 44.9167379,16.2766151 45.1729933,16.2831021 C45.6707518,16.2960761 46.1701494,16.3085095 46.6640831,16.2479643 C46.8859162,16.2203946 47.1082956,16.1787697 47.3312215,16.1912031 C47.9000102,16.2230975 48.3944903,16.6079923 48.7310646,17.0631628 C49.0676389,17.5183333 49.2818226,18.0486448 49.5577479,18.5416561 C49.7877768,18.9524989 50.062063,19.3406372 50.2582159,19.768238 C50.4319669,20.1466458 50.5417907,20.5531639 50.6505217,20.9575197 L50.9308181,21.9948977 C50.9798512,22.1432981 51.0031286,22.2988425 50.9996629,22.4549334 C50.9854568,22.6208923 50.9111482,22.7754989 50.8357468,22.9230779 C50.5506245,23.4700677 50.2087489,23.9862201 49.8156425,24.4631977 C49.2260911,25.1783885 48.5103243,25.8233035 48.1600903,26.6795863 C48.0234936,27.0131257 47.9475458,27.3677479 47.8781547,27.7212889 C47.598382,29.1352965 47.3995449,30.563808 47.282593,32 C46.644156,31.7077021 45.9749335,31.4863328 45.2871882,31.3399487 C44.9443581,31.267377 44.597805,31.2132394 44.2490531,31.1777739 C43.9436229,31.1464201 43.549678,31.2058842 43.2590001,31.1237156 C42.7727158,30.9869482 42.7191699,30.1733715 42.6454077,29.7473924 C42.5273881,29.0689613 42.5038935,28.3786373 42.4995224,27.6931786 C42.4940585,26.9136585 42.5186459,26.1357602 42.4765742,25.358943 Z" id="Path" fill="#006848"></path>
                    <path d="M32.1374567,22.7766556 C32.339196,24.1573766 32.5615405,25.5421248 33,26.8394273 C32.9889786,26.8520839 32.9779572,26.8635899 32.9669358,26.8750959 C32.9281214,26.9147916 32.8878694,26.9521861 32.8457006,26.990156 C32.7474665,27.0729992 32.6396486,27.1431859 32.5581862,27.2513424 C32.527339,27.2927335 32.502987,27.3404861 32.4863075,27.392291 C32.455864,27.4741147 32.455864,27.5676265 32.4863075,27.6494503 C32.2577336,27.7708387 31.9922619,27.7334441 31.7358949,27.7219381 C31.5149879,27.712158 31.3007897,27.7219381 31.1234891,27.8674891 C30.8771851,28.0711455 30.8029105,28.4623498 30.7631377,28.8178855 C30.7484425,28.9475198 30.7358238,29.0773459 30.7252816,29.2073638 C30.7150589,29.3281769 30.7067529,29.4493736 30.7003637,29.5709537 C30.6786422,29.9731485 30.6756026,30.3764839 30.6912591,30.7790846 C30.6938148,30.8527231 30.6971691,30.9263615 30.7013221,31 C29.9183245,30.9775633 29.2048095,30.4874073 28.5296297,30.0110586 C28.3753303,29.9023268 28.216239,29.787842 28.1160881,29.6083482 C28.0238066,29.4320642 27.984731,29.2230887 28.0053951,29.0163641 C28.0053951,28.9870238 28.0097078,28.9588341 28.0130621,28.9289184 C28.0345227,28.7581982 28.0713153,28.5907691 28.1227968,28.4295577 C28.3340383,27.7428816 28.6454188,27.1068394 29.0423638,26.5512017 C29.2139141,26.3107262 29.407028,26.0754283 29.4870528,25.7733956 C29.5220337,25.6416518 29.5349719,25.5018537 29.570432,25.3706852 C29.7295233,24.8022884 30.3035938,24.5336231 30.500062,23.98191 C30.5479811,23.8501662 30.5700238,23.7057658 30.6294435,23.5791997 C30.6829362,23.4740121 30.7519491,23.3814098 30.8330995,23.305932 C30.8680805,23.2708387 30.904499,23.2368959 30.9404383,23.2029532 C31.2771496,22.8861544 31.6015617,22.5515214 31.9136746,22.199054 C31.9718164,22.1334697 32.0293193,22.0671184 32.0861833,22 C32.0785908,22.2603845 32.0957934,22.5209581 32.1374567,22.7766556 L32.1374567,22.7766556 Z" id="Path" fill="#006848"></path>
                    <path d="M37.597406,18.2192526 C37.5182208,18.3043024 37.4324368,18.3843163 37.3483025,18.4637706 L37.3257567,18.4844735 L37.2366733,18.5684042 C37.0749857,18.7103982 36.9350507,18.876172 36.8215007,19.0602378 L36.8121525,19.0759048 C36.5317048,19.5867627 36.6356354,20.2156831 36.7137208,20.7959237 C36.8105722,21.5189989 36.8541356,22.2484327 36.8440465,22.9781206 C36.8297492,23.9852884 36.7131709,24.9857418 36.7109713,25.9917906 C36.7109713,26.2200819 36.7159204,26.4478138 36.7258186,26.6761051 C36.7417656,27.0470786 36.7692605,27.4174926 36.8022543,27.7879065 C36.8379976,28.1941309 36.8808896,28.5997957 36.9210321,29.0054605 C36.9529262,29.3193611 36.9831706,29.6327022 37.0084658,29.9460433 C37.0211135,30.1083093 37.0332112,30.2700157 37.0431094,30.4322816 C37.0546572,30.6225244 37.0640055,30.8133267 37.0695045,31.0035696 L37.0695045,31.0035696 C37.0733537,31.1244297 37.0755533,31.2447303 37.0755533,31.3655904 C37.0755533,31.4344136 37.0755533,31.5026772 37.0755533,31.5709408 C37.0755533,31.7018726 37.0720706,31.8324314 37.0651053,31.9626171 C37.0577733,32.1301054 37.0465921,32.2979667 37.0315615,32.4662011 C37.0145147,32.6491699 36.9842704,32.8489248 36.8577939,32.9776185 C36.8500954,32.985452 36.8418469,32.992726 36.8335985,33 L36.6554317,32.9776185 C35.4272308,32.8279989 34.1872841,32.8055023 32.9546219,32.910474 C32.9815669,32.7213502 33.0063123,32.532786 33.0305078,32.3431028 C33.0415057,32.2535767 33.0525037,32.1634912 33.0629517,32.0734056 C33.0750495,31.9704507 33.0865973,31.8674957 33.0975953,31.7645408 C33.1102429,31.6526333 33.1217908,31.5407257 33.1327887,31.4288182 C33.1613834,31.1404698 33.1864954,30.8519348 33.2081247,30.5632134 C33.2400187,30.142068 33.2642142,29.7201766 33.2807111,29.2975392 C33.2887763,29.0957326 33.2950085,28.8937395 33.2994076,28.6915599 C33.3056398,28.440887 33.3085726,28.1900276 33.308206,27.9389817 C33.308206,27.6950233 33.3061897,27.4506918 33.3021571,27.2059873 C33.3021571,27.1254139 33.2988577,27.0448405 33.292259,26.9648266 C33.2875249,26.8927821 33.2777857,26.8211689 33.2631144,26.7505237 C33.2222837,26.5876274 33.1670694,26.428819 33.0981452,26.2760357 C33.0860474,26.2469397 33.0744996,26.2200819 33.0629517,26.1893074 C33.056353,26.1741998 33.0503041,26.1585328 33.0442552,26.1434253 C33.3609962,25.8563824 33.5864541,25.4719801 33.8031137,25.0937326 C34.1544982,24.484396 34.5141311,23.8482017 34.5729701,23.1443033 C34.6318091,22.4404049 34.2881232,21.6497782 33.6271465,21.4349157 C33.44733,21.3789619 33.2570655,21.3632949 33.0717501,21.3302821 C32.8968827,21.298948 32.5323007,21.2278868 32.3299385,21.1003122 C32.219959,21.2152039 32.1099795,21.328044 32,21.4388325 C32.0066704,21.2697958 32.04728,21.1039382 32.1193277,20.9514751 L32.1974132,20.9553919 C32.1910511,20.9374689 32.1880662,20.9184862 32.1886148,20.8994381 C32.1886148,20.8395676 32.2293072,20.7718635 32.316191,20.6968855 C32.5751927,20.4730704 32.9826667,20.4232716 33.1459863,20.1205617 C33.2141735,19.9946657 33.2257214,19.8447096 33.2807111,19.7126587 C33.4385317,19.3360899 33.8916472,19.1973245 34.1643963,18.8962932 C34.4371454,18.595262 34.5053327,18.1688943 34.7258416,17.8331716 C34.8905564,17.5880077 35.1190256,17.3942789 35.3857185,17.273634 C35.4077144,17.2630028 35.4302602,17.2523715 35.452806,17.2428594 C35.9092209,17.0442235 36.4514197,16.998901 36.9243315,17 C37.1079973,17 37.5842085,17.0056154 37.817365,17.1001773 C37.8551807,17.1139252 37.8898098,17.1354479 37.919096,17.163405 C38.1676496,17.4386976 37.7810717,18.0200572 37.597406,18.2192526 Z" id="Path" fill="#006848"></path>
                    <path d="M32.845725,21.1306791 C33.550654,20.8931581 34.3112357,20.9818552 34.9572751,21.3769227 C35.282546,21.5791762 35.5743862,21.8613199 35.7532852,22.2253762 C36.0220854,22.7714607 36.0103396,23.4297959 35.9913654,24.0532424 C35.9818784,24.3652185 35.9696807,24.6883185 35.8468006,24.9684396 C35.7044946,25.2925508 35.4361461,25.5150297 35.1623765,25.6970579 C34.9908727,25.819523 34.8029758,25.9105059 34.6058019,25.9665607 C34.3022157,26.0403832 33.9868837,25.9776846 33.6810387,25.9159973 C33.3485396,25.8472311 32.9916451,25.7643072 32.7607932,25.4872199 C32.6252637,25.3264283 32.5511742,25.1176015 32.4779882,24.9133255 C32.3728775,24.6183724 32.2674657,24.3237565 32.1617527,24.0294776 C31.9787878,23.5182818 31.916896,23.0930438 32.1585903,22.5949945 C32.2683692,22.367965 32.4025435,22.1555988 32.5109671,21.9270523 C32.5651789,21.8107565 32.7594379,21.1605115 32.845725,21.1306791 Z" id="Path" fill="#006848"></path>
                    <path d="M55,30.8880831 L55,32.3531948 C53.9145046,32.7707511 52.7500784,32.9839656 51.5746514,32.9803998 L37.303336,32.9803998 C37.2959275,32.9872599 37.2879899,32.9936299 37.2800523,33 L37.1085996,32.9803998 L11.7224964,32.9803998 C9.59256779,32.9803998 7.61874575,32.4482556 6,31.5417483 L6,29.3048804 L18.2091212,28 L18.2186464,28 L25.3286392,28.5576245 L27.16858,28.7046256 L28.1242697,28.7795962 L30.1023251,28.9349275 L31.1199283,29.0147981 L32.6016178,29.1314191 L32.8101126,29.1475892 L33.8779874,29.2313799 L35.326868,29.3416307 L37.3641911,29.501372 L40.760435,29.7684241 L43.1496593,29.9560956 L47.0729613,30.2643081 L47.8190978,30.3226186 L47.8995324,30.3289886 L47.9693835,30.3343787 L48.954707,30.4117993 L50.0363403,30.49706 L50.1617547,30.5068601 L55,30.8880831 Z" id="Path" fill="#B4C404"></path>
                    <polygon id="Path" fill="#9C9CA1" points="40 30.5415218 25.5598468 28 25 30.9195314 31.6192775 31.7368353 33.6573997 32 39.2638588 30.8613364"></polygon>
                    <path d="M32,31.4994402 L39.6848788,30.0048961 C39.7627273,29.9894786 39.8431607,30.0108876 39.9041523,30.06326 C39.9651439,30.1156325 40.0003018,30.1934799 40,30.2754838 L40,30.2754838 C40.0003441,30.4080635 39.9090282,30.5219423 39.783022,30.5460714 L32.277984,32 L32,31.4994402 Z" id="Path" fill="#9C9CA1"></path>
                    <path d="M34.9312318,26.9266672 C35.1685021,26.906569 35.408929,26.8725935 35.6225249,26.7768878 C35.885574,26.6577342 36.0902262,26.4524456 36.3338097,26.3012306 C36.8693777,25.9662607 37.5859235,25.9212791 38.1998801,26.1136475 C38.8138367,26.3060159 39.3262564,26.7180288 39.6850553,27.209956 C39.9233778,27.5377479 40.1022512,27.9559817 39.9338998,28.3177491 C39.8761403,28.4283332 39.8033179,28.5318699 39.7171473,28.6259214 L39.2783814,29.1475173 C39.1950279,29.2571632 39.0947404,29.3553128 38.9806098,29.4389411 C38.8164672,29.5475671 38.6123411,29.5920702 38.4113716,29.6188678 C37.8773819,29.68969 37.3339224,29.6494936 36.7957239,29.6820335 C35.8713694,29.7380213 34.9685848,30.0088684 34.0421259,29.9997764 C33.5097145,29.9945125 32.9841423,29.8968928 32.4638312,29.799273 L30.1610993,29.3685974 C29.7602125,29.293947 29.3072419,29.1848426 29.1183726,28.8541794 C29.0336708,28.7053571 29.0178879,28.5330869 29.007892,28.365602 C28.9805349,27.9043006 29.007892,27.3913182 29.3593256,27.058741 C29.6897153,26.7467405 30.2121308,26.6481637 30.6067045,26.417513 C31.0896627,26.1347027 31.2490704,26.2261016 31.7583335,26.4385682 C32.7518574,26.8478285 33.8450018,27.015991 34.9312318,26.9266672 Z" id="Path" fill="#AE6E79"></path>
                    <path d="M34.9312318,26.9266672 C35.1685021,26.906569 35.408929,26.8725935 35.6225249,26.7768878 C35.885574,26.6577342 36.0902262,26.4524456 36.3338097,26.3012306 C36.8693777,25.9662607 37.5859235,25.9212791 38.1998801,26.1136475 C38.8138367,26.3060159 39.3262564,26.7180288 39.6850553,27.209956 C39.9233778,27.5377479 40.1022512,27.9559817 39.9338998,28.3177491 C39.8761403,28.4283332 39.8033179,28.5318699 39.7171473,28.6259214 L39.2783814,29.1475173 C39.1950279,29.2571632 39.0947404,29.3553128 38.9806098,29.4389411 C38.8164672,29.5475671 38.6123411,29.5920702 38.4113716,29.6188678 C37.8773819,29.68969 37.3339224,29.6494936 36.7957239,29.6820335 C35.8713694,29.7380213 34.9685848,30.0088684 34.0421259,29.9997764 C33.5097145,29.9945125 32.9841423,29.8968928 32.4638312,29.799273 L30.1610993,29.3685974 C29.7602125,29.293947 29.3072419,29.1848426 29.1183726,28.8541794 C29.0336708,28.7053571 29.0178879,28.5330869 29.007892,28.365602 C28.9805349,27.9043006 29.007892,27.3913182 29.3593256,27.058741 C29.6897153,26.7467405 30.2121308,26.6481637 30.6067045,26.417513 C31.0896627,26.1347027 31.2490704,26.2261016 31.7583335,26.4385682 C32.7518574,26.8478285 33.8450018,27.015991 34.9312318,26.9266672 Z" id="Path" fill="#000000" opacity="0.05"></path>
                    <path d="M44.8055006,26.2683746 C44.1507758,26.5174367 43.4923189,26.7675475 42.8066706,26.9159361 C41.6571701,27.1649982 40.4543532,27.1256726 39.3139165,27.41039 C38.7114417,27.5614003 38.1126991,27.8046946 37.4936963,27.7554065 C37.2169844,27.7333842 36.9498695,27.6505383 36.6806219,27.5876173 C35.1680371,27.2205784 33.4485848,27.3396039 32.2201761,28.2834183 C31.8000432,28.6058882 31.4561528,29.008058 31.1442521,29.4369692 C31.0091187,29.6245396 30.966168,29.8616391 31.0271209,30.0835649 C31.0880738,30.3054907 31.246568,30.4890783 31.4593517,30.584228 C31.9370704,30.8002849 32.4487986,30.9345232 32.9724698,30.9811543 C33.6725134,31.0419779 34.3757561,30.9444505 35.0720676,30.846923 C36.1053385,30.7027291 37.1391426,30.5580109 38.1697476,30.3959894 C38.5397631,30.3377875 38.9097785,30.2774883 39.2819267,30.2313463 C41.960007,29.8983895 44.6866051,30.303181 47.3716165,30.0252801 C47.6429967,29.9969657 47.9191754,29.9602618 48.1660301,29.8464797 C48.7908978,29.558092 49.1001326,28.7977971 48.971107,28.1297863 C48.8420815,27.4617754 48.3441068,26.906498 47.744831,26.5656761 C47.242591,26.2788614 46.7008968,26.162982 46.1416083,26.0413348 C45.6223071,25.9223093 45.3056079,26.0796117 44.8055006,26.2683746 Z" id="Path" fill="#AE6E79"></path>
                    <path d="M50.6806924,22.2204043 C50.963222,22.5983984 51.0233998,23.1055143 50.9928009,23.5787878 C50.962202,24.0520613 50.8520461,24.5201282 50.8357267,24.9954843 C50.8132875,25.6473417 50.9673018,26.2971166 50.9412928,26.9468914 C50.9229335,27.4014214 50.8173674,27.8471003 50.692422,28.2834074 C50.5450374,28.7983331 50.3318653,29.3517871 49.8662525,29.5990973 C49.2481553,29.9276292 47.9517832,29.7427975 47.3015572,30 C47.3607151,29.623568 47.9278141,29.0784444 47.9869719,28.7020123 C48.0277704,28.4416859 48.0690789,28.1740703 48.0252205,27.9132232 C47.9691226,27.580526 47.7778796,27.2853158 47.550938,27.0395676 C47.1898714,26.6485573 46.7186488,26.3543884 46.2010179,26.2585883 C45.683387,26.1627881 44.4160838,26.2414067 44.0019791,26.5751452 C43.950981,26.230473 44.899546,25.8982964 45.2330737,25.8238431 C45.3993275,25.7858354 45.5900605,25.8071822 45.7231655,25.699407 C45.9781561,25.4953111 45.793033,25.0886812 45.8052725,24.7622318 C45.8149622,24.5019054 45.9638767,24.2634463 45.9939655,24.0031199 C46.0449637,23.5865976 45.7787535,23.1622654 45.8832996,22.7535529 C45.9220582,22.6025636 46.008245,22.4697971 46.0679128,22.3260969 C46.2494661,21.8861452 46.169909,21.3842358 46.0730126,20.9166895 C46.0128348,20.6230412 45.954187,20.291906 46.1143211,20.041472 C46.2627256,19.8076988 46.6839701,20.6402228 46.9537501,20.6016945 C47.8446872,20.4741345 48.6509674,19.799889 49.3705508,20.3517811 C49.7372273,20.6329337 49.7851655,20.9244993 49.9315301,21.3259227 C50.0738148,21.7080819 50.4425312,21.9038474 50.6806924,22.2204043 Z" id="Path" fill="#000000" opacity="0.1"></path>
                    <path d="M50.6806924,22.4849498 C50.963222,22.8500901 51.0233998,23.3399616 50.9928009,23.7971414 C50.962202,24.2543212 50.8520461,24.7064715 50.8357267,25.1656631 C50.8132875,25.7953541 50.9673018,26.4230333 50.9412928,27.0507125 C50.9229335,27.4897861 50.8173674,27.9203097 50.692422,28.3417802 C50.5450374,28.8391958 50.3318653,29.3738296 49.8662525,29.61273 C49.2481553,29.9300902 47.9517832,29.7515436 47.3015572,30 C47.3607151,29.6363685 47.9278141,29.1097819 47.9869719,28.7461504 C48.0277704,28.4946764 48.0690789,28.2361611 48.0252205,27.9841841 C47.9691226,27.6628003 47.7778796,27.3776287 47.550938,27.1402372 C47.1898714,26.7625232 46.7186488,26.4783576 46.2010179,26.3858151 C45.683387,26.2932727 44.4160838,26.3692178 44.0019791,26.6916075 C43.950981,26.3586559 44.899546,26.037775 45.2330737,25.9658535 C45.3993275,25.9291383 45.5900605,25.9497591 45.7231655,25.8456489 C45.9781561,25.6484932 45.793033,25.2556908 45.8052725,24.9403423 C45.8149622,24.6888683 45.9638767,24.4585181 45.9939655,24.207044 C46.0449637,23.8046856 45.7787535,23.3947829 45.8832996,22.9999687 C45.9220582,22.8541137 46.008245,22.725862 46.0679128,22.5870483 C46.2494661,22.1620572 46.169909,21.6772152 46.0730126,21.2255678 C46.0128348,20.9419051 45.954187,20.6220301 46.1143211,20.3801121 C46.2627256,20.1542884 46.5529049,20.0687873 46.8226849,20.0310662 C47.7259551,19.9105739 48.6411752,20.1434443 49.3725907,20.6798692 C49.7392672,20.9514611 49.7872054,21.2331121 49.93357,21.620885 C50.0738148,21.9900489 50.4425312,22.1791574 50.6806924,22.4849498 Z" id="Path" fill="#006848"></path>
                    <path d="M16.0230066,19.7663771 L18.8741475,30.2842844 C18.9457765,30.5481533 19.1736394,30.7401582 19.4462635,30.7663683 L32.2792816,31.9969645 C32.4915074,32.0173914 32.7004831,31.9338464 32.8399067,31.7728358 C32.9793302,31.6118251 33.0318949,31.3933353 32.9809234,31.1866868 L29.8586698,18.4996638 C29.78195,18.1882532 29.4910299,17.9777668 29.1706623,18.0018769 L16.6066593,18.9398729 C16.4113493,18.9550195 16.232974,19.0562956 16.1201102,19.2161209 C16.0072463,19.3759462 15.9716468,19.5776773 16.0230066,19.7663771 Z" id="Path" fill="#9C9CA1"></path>
                    <circle id="Oval" fill="#B4C404" cx="41.5" cy="20.5" r="1.5"></circle>
                    <path d="M42.5971208,18.0223749 C42.5971208,18.0223749 42.8536113,18.8991237 42.0968059,19.2678159 L42,19.4623023 L42.4740777,20 C42.4740777,20 43.0585323,18.7743196 42.9952013,18.3390653 C42.9952013,18.3390653 42.9047285,17.8970507 42.5971208,18.0223749 Z" id="Path" fill="#B4C404"></path>
                    <circle id="Oval" fill="#006848" cx="41.5" cy="21.5" r="1.5"></circle>
                    <path d="M42.9416317,18 L42.6987803,17.6088207 L42.3451134,17.5599233 C42.4205623,16.271908 42.0780948,15.8882071 42.0780948,15.8882071 L41.9985197,15.8807287 L41.6519261,15.8479386 L41,15.187536 L41,15 C41.9159975,15.1064238 42.4223307,15.5309684 42.6958331,16.0285714 C43.179178,16.9018217 42.9416317,18 42.9416317,18 Z" id="Path" fill="#006848"></path>
                    <path d="M41.9999257,16.6580913 L41.9999257,17 L41.6528441,16.9526971 L41,16 C41,16 42.0099604,16.3178423 41.9999257,16.6580913 Z" id="Path" stroke="#4C4981" fill="#000000" opacity="0.1"></path>
                    <path d="M43.0893451,18 L42.8536585,17.6026877 L42.8536585,16 C43.3198833,16.8846041 43.0893451,18 43.0893451,18 Z" id="Path" stroke="#4C4981" fill="#B4C404" opacity="0.1"></path>
                    <ellipse id="Oval" fill="#B4C404" transform="translate(38.206454, 20.123558) rotate(-30.000000) translate(-38.206454, -20.123558) " cx="38.2064538" cy="20.1235583" rx="1" ry="1.39889531"></ellipse>
                    <path d="M38.4101955,20.2963778 C38.7744345,21.0950354 39.2213411,21.628531 38.8756398,21.8822745 C38.5299384,22.1360179 37.5228954,22.0091462 37.1586565,21.2098543 C36.7944176,20.4105624 37.1250884,19.3067783 37.4707897,19.0530348 C37.8164911,18.7992914 38.0454556,19.4958172 38.4101955,20.2963778 Z" id="Path" fill="#006848"></path>
                    <path d="M42,14.6623198 C42,16.8712423 40.4336818,19 38.1447977,19 C35.8556891,19 34,17.209139 34,15 C34,12.790861 35.8556891,11 38.1447977,11 C40.4336818,11.0021963 42,12.4528483 42,14.6623198 Z" id="Path" fill="#000000" opacity="0.1"></path>
                    <circle id="Oval" fill="#AE6E79" cx="38" cy="15" r="4"></circle>
                    <path d="M38.1518349,14.0379848 C38.6128052,14.2073172 38.8855592,14.6829344 39.2992095,14.9478149 C39.8840621,15.3193908 40.6454339,15.2233119 41.3132293,15.0396472 C41.6854083,14.9382601 42.0746011,14.8145784 42.4409316,14.9271128 C42.4948183,14.9509327 42.5542607,14.9593845 42.6126656,14.9515306 C42.6924182,14.9287053 42.7317628,14.8405887 42.7578154,14.7620269 C43.2108103,13.4137373 43.0071753,11.8865605 42.3234294,10.6391272 C42.1469102,10.3174486 41.9352999,10.0063865 41.6439369,9.78291019 C41.4142493,9.60720789 41.1441537,9.49201936 40.8719314,9.39381717 C40.3744464,9.21543629 39.8599048,9.0886102 39.3364274,9.0153406 C39.2439831,8.998571 39.1495644,8.99553017 39.0562298,9.00631661 C38.9280939,9.02701869 38.8132501,9.09602564 38.698938,9.15760107 C38.2093532,9.41962231 37.666413,9.56684637 37.1113289,9.58809827 C36.366971,9.61623187 35.5162762,9.44106039 34.9425889,9.91773915 C34.2513994,10.4894352 34.4236651,11.6046936 33.9754553,12.3807564 C33.6787755,12.8940619 33.1066833,13.2666994 33.0125752,13.8511352 C32.9880692,14.0297673 32.9994562,14.2114838 33.0460713,14.3856737 C33.2651252,15.2848873 34.1370873,15.9813266 35.0664714,15.9977821 C35.2091954,16.0086522 35.3521173,15.9794154 35.4790583,15.9133813 C35.5622291,15.8567161 35.6356649,15.7869844 35.6965172,15.7068913 C36.3052956,14.9870958 37.0018019,13.61545 38.1518349,14.0379848 Z" id="Path" fill="#444053"></path>
                    <path d="M42.7573438,14.3455848 C42.7312968,14.4254671 42.6919605,14.5150648 42.6122247,14.5382738 C42.5538322,14.5462597 42.4944024,14.5376659 42.4405271,14.5134456 C42.0742742,14.3990196 41.6830375,14.5247802 41.3135952,14.6278715 C40.6454097,14.8146234 39.8826044,14.9144762 39.3000019,14.5344956 C38.8859075,14.264623 38.6137429,13.7788523 38.1523387,13.6093723 C37.0025492,13.1775762 36.3061904,14.5744368 35.6959462,15.3063313 C35.6351068,15.3877707 35.5616865,15.4586745 35.4785334,15.5162921 C35.3516192,15.5834361 35.2087276,15.6131644 35.0660338,15.6021116 C34.140036,15.5853795 33.2677269,14.8772338 33.0460616,13.9629054 C33.0338354,13.9089309 33.023204,13.8549564 33.0152304,13.8009819 C33.0152304,13.8058396 33.0152304,13.8101576 33.0125725,13.8150153 C32.9880717,13.99665 32.9994563,14.1814209 33.0460616,14.3585387 C33.2650691,15.2728671 34.1373781,15.9810128 35.0660338,15.9977449 C35.2087276,16.0087976 35.3516192,15.9790694 35.4785334,15.9119254 C35.5616865,15.8543077 35.6351068,15.7834039 35.6959462,15.7019645 C36.3061904,14.97007 37.0025492,13.5753684 38.1523387,14.0050056 C38.6137429,14.1771843 38.8859075,14.660796 39.3000019,14.9301288 C39.8847307,15.3079505 40.6454097,15.2102566 41.3135952,15.0235048 C41.6856954,14.9204134 42.0742742,14.7946528 42.4405271,14.9090788 C42.4944024,14.9332991 42.5538322,14.9418929 42.6122247,14.9339071 C42.6919605,14.910698 42.7312968,14.8211003 42.7573438,14.741218 C42.9400186,14.1802682 43.0207125,13.5902651 42.9954879,13 C42.9798384,13.4577785 42.8996414,13.9109154 42.7573438,14.3455848 L42.7573438,14.3455848 Z" id="Path" fill="#000000" opacity="0.1"></path>
                </g>
            </g>
        </g>
    </g>
</svg>