<?xml version="1.0" encoding="UTF-8"?>
<svg width="41px" height="60px" viewBox="0 0 41 60" version="1.1" xmlns="http://www.w3.org/2000/svg" xmlns:xlink="http://www.w3.org/1999/xlink">
    <title>13F5AF57-8177-45C4-8685-23A01D1A8850</title>
    <g id="Web" stroke="none" stroke-width="1" fill="none" fill-rule="evenodd">
        <g id="Airtime-Recharge" transform="translate(-592.000000, -376.000000)">
            <g id="undraw_note_list_etto" transform="translate(612.500000, 406.000000) scale(-1, 1) translate(-612.500000, -406.000000) translate(592.000000, 376.000000)">
                <rect id="Rectangle" fill="#3F3D56" x="40" y="13" width="1" height="7" rx="0.14427"></rect>
                <rect id="Rectangle" fill="#3F3D56" x="10" y="8" width="1" height="2" rx="0.0945"></rect>
                <rect id="Rectangle" fill="#3F3D56" x="10" y="12" width="1" height="4" rx="0.10647"></rect>
                <rect id="Rectangle" fill="#3F3D56" x="10" y="18" width="1" height="4" rx="0.10143"></rect>
                <rect id="Rectangle" fill="#3F3D56" x="11" y="0" width="30" height="60" rx="2.24847"></rect>
                <rect id="Rectangle" fill="#E6E8EC" x="23" y="1" width="4" height="1" rx="0.16002"></rect>
                <circle id="Oval" fill="#E6E8EC" cx="28.5" cy="1.5" r="1"></circle>
                <path d="M39,3.35010003 L39,55.6507574 C38.9995254,56.9483469 37.9448219,58 36.6439434,58 L15.3560566,58 C14.0551781,58 13.0004746,56.9483469 13,55.6507574 L13,3.35010003 C13,2.05217562 14.0548425,1 15.3560566,1 L18.5415895,1 L18.5415895,1.41240354 C18.5420638,2.48094716 19.4103667,3.34705474 20.4816186,3.34752787 L31.3120867,3.34752787 C32.3818565,3.34516396 33.2478207,2.47947128 33.247818,1.41240354 L33.247818,1.00428694 L36.6439434,1.00428694 C37.943481,1.00428478 38.9976294,2.05385009 39,3.35010003 L39,3.35010003 Z" id="Path" fill="#006848"></path>
                <rect id="Rectangle" fill="#3F3D56" x="13" y="5.82845327" width="3" height="1"></rect>
                <rect id="Rectangle" fill="#3F3D56" x="13" y="6.82845327" width="3" height="1"></rect>
                <rect id="Rectangle" fill="#3F3D56" x="13" y="6.82845327" width="3" height="1"></rect>
                <rect id="Rectangle" fill="#3F3D56" x="13" y="5.82845327" width="3" height="1"></rect>
                <rect id="Rectangle" fill="#3F3D56" x="13" y="6.82845327" width="3" height="1"></rect>
                <rect id="Rectangle" fill="#3F3D56" x="13" y="6.82845327" width="3" height="1"></rect>
                <path d="M37.4246002,7.2542334 L37.3343219,7.2542334 L37.2995995,7.22531999 C37.4136408,7.0887106 37.4761613,6.91609865 37.4761877,6.73778006 C37.4739903,6.32811582 37.1417598,5.9978065 36.7341276,6 C36.3264954,6.00221544 35.9978213,6.33609892 36,6.7457632 C36.0022005,7.15542748 36.3344246,7.48574323 36.7420569,7.48354666 C36.9189718,7.4822851 37.090011,7.41958682 37.2261864,7.30607814 L37.2599168,7.33499155 L37.2599168,7.42671685 L37.8293642,8 L38,7.82851356 L37.4246002,7.2542334 Z M36.7420569,7.25423727 C36.5340285,7.25504061 36.3460369,7.12972387 36.2658707,6.93680379 C36.1857045,6.7438837 36.2291798,6.52142165 36.3759944,6.37330329 C36.522809,6.22518493 36.7439977,6.18063266 36.9362695,6.26045158 C37.1285414,6.3402705 37.253973,6.52871306 37.253973,6.73778006 C37.254758,6.87464919 37.2011437,7.00617205 37.1050275,7.10314181 C37.0089113,7.20011157 36.8782492,7.25450149 36.7420569,7.25423727 L36.7420569,7.25423727 Z" id="Shape" fill="#3F3D56" fill-rule="nonzero"></path>
                <rect id="Rectangle" fill="#B4C404" x="13" y="12" width="8" height="2"></rect>
                <rect id="Rectangle" fill="#006848" opacity="0.3" x="13" y="15" width="25" height="1"></rect>
                <rect id="Rectangle" fill="#006848" opacity="0.3" x="13" y="17" width="10" height="1"></rect>
                <rect id="Rectangle" fill="#B4C404" x="13" y="33" width="8" height="2"></rect>
                <rect id="Rectangle" fill="#006848" opacity="0.3" x="13" y="36" width="25" height="1"></rect>
                <rect id="Rectangle" fill="#006848" opacity="0.3" x="13" y="38" width="10" height="1"></rect>
                <rect id="Rectangle" fill="#B4C404" x="13" y="43" width="8" height="2"></rect>
                <rect id="Rectangle" fill="#006848" opacity="0.3" x="13" y="46" width="25" height="1"></rect>
                <rect id="Rectangle" fill="#006848" opacity="0.3" x="13" y="48" width="10" height="1"></rect>
                <circle id="Oval" fill="#006848" cx="34" cy="53" r="3"></circle>
                <path d="M35,52.766655 L35,53.9128008 C35,53.9609596 34.953363,54 34.8958333,54 L32.1041667,54 C32.046637,54 32,53.9609596 32,53.9128008 L32,52.0871992 C32,52.0390404 32.046637,52 32.1041667,52 L34.0466667,52" id="Path" stroke="#FFFFFF" stroke-width="0.75" stroke-linecap="round"></path>
                <line x1="32" y1="53" x2="34" y2="53" id="Path" stroke="#FFFFFF" stroke-width="0.75" stroke-linecap="round"></line>
                <line x1="33" y1="53" x2="35" y2="53" id="Path" stroke="#FFFFFF" stroke-width="0.75" stroke-linecap="round"></line>
                <line x1="33" y1="53" x2="35" y2="53" id="Path" stroke="#FFFFFF" stroke-width="0.75" stroke-linecap="round"></line>
                <line x1="35" y1="52" x2="35" y2="53" id="Path" stroke="#FF00FF" stroke-width="0.75"></line>
                <line x1="35" y1="52" x2="34" y2="52" id="Path" stroke="#FF00FF" stroke-width="0.75"></line>
                <line x1="35" y1="52" x2="35" y2="53" id="Path" stroke="#FFFFFF" stroke-width="0.75" stroke-linecap="round"></line>
                <line x1="35" y1="52" x2="34" y2="52" id="Path" stroke="#FFFFFF" stroke-width="0.75" stroke-linecap="round"></line>
                <path d="M38,23.5752066 L38,30.4297521 C38,31.2969761 37.2733058,32 36.3768932,32 L13,32 L13,22 L36.3768932,22 C36.8082552,22 37.2218754,22.1661148 37.5264133,22.4616667 C37.8309511,22.7572187 38.0013541,23.1578925 38,23.5752066 L38,23.5752066 Z" id="Path" fill="#3F3D56"></path>
                <rect id="Rectangle" fill="#F2F2F2" x="0" y="20" width="35" height="10" rx="1.19889"></rect>
                <rect id="Rectangle" fill="#B4C404" x="0" y="20" width="35" height="10" rx="1.19889"></rect>
                <rect id="Rectangle" fill="#006848" x="5" y="22" width="8" height="2"></rect>
                <rect id="Rectangle" fill="#006848" opacity="0.3" x="4" y="25" width="25" height="1"></rect>
                <rect id="Rectangle" fill="#006848" opacity="0.3" x="4" y="27" width="10" height="1"></rect>
            </g>
        </g>
    </g>
</svg>