<?xml version="1.0" encoding="UTF-8"?>
<svg width="42px" height="43px" viewBox="0 0 42 43" version="1.1" xmlns="http://www.w3.org/2000/svg" xmlns:xlink="http://www.w3.org/1999/xlink">
    <title>B27B1A36-7ABA-4715-A8BB-3DFCC9057C98</title>
    <g id="Web" stroke="none" stroke-width="1" fill="none" fill-rule="evenodd">
        <g id="Prepaid-Plans" transform="translate(-1114.000000, -184.000000)" fill-rule="nonzero">
            <g id="Group" transform="translate(1114.000000, 184.000000)">
                <g>
                    <path d="M40.4376392,19.8739496 C40.4381803,20.9633845 40.3481211,22.0510401 40.1683589,23.1260504 C38.1205308,20.7483657 34.7538108,19.9268658 31.8124726,21.0871639 C30.7147816,19.792549 29.088055,19.0450342 27.373523,19.0473739 L25.7872648,19.0473739 L21.7085777,30.1948529 L21.6773304,30.2797689 L20.9071772,23.2489076 L19.9670022,23.2489076 L19.196849,30.2770588 L19.1453829,30.1379412 L15.0225821,19.0473739 L13.0641138,19.0473739 C11.5298534,19.0472062 10.0583699,19.6461569 8.97339773,20.7124534 C7.8884256,21.7787499 7.27884773,23.2250394 7.27877462,24.7331303 L7.27877462,35.1443697 C2.66185963,31.3723133 -0.00610980828,25.775078 -1.04709721e-05,19.8739496 C-1.04709721e-05,8.89810924 9.05251641,0 20.2188184,0 C31.3851204,0 40.4376392,8.89810924 40.4376392,19.8739496 Z M25.7348796,10.8394328 L25.7348796,8.67136555 C25.7348796,5.67689156 23.2652549,3.24939076 20.2188184,3.24939076 C17.1723819,3.24939076 14.7027571,5.67689156 14.7027571,8.67136555 L14.7027571,10.8394328 C14.7027571,12.7765178 15.7541124,14.5664582 17.4607877,15.5350008 C19.167463,16.5035433 21.2701737,16.5035433 22.976849,15.5350008 C24.6835244,14.5664582 25.7348796,12.7765178 25.7348796,10.8394328 L25.7348796,10.8394328 Z M21.5661269,22.6346218 L22.6698906,19.4556933 L18.0719475,19.4394328 L19.1757112,22.6346218 L21.5661269,22.6346218 Z" id="Shape" fill="#B4C404" opacity="0.357073103"></path>
                    <path d="M40.1683589,23.1260504 C42.399572,25.7166591 42.4976803,29.4839144 40.4042322,32.1833383 C38.3107841,34.8827621 34.5891369,35.787926 31.4565962,34.3595459 C28.3240554,32.9311658 26.6236036,29.5536259 27.368346,26.2392175 C28.1130885,22.924809 31.1026114,20.5654559 34.5557987,20.5668138 C36.7195007,20.5626485 38.7742366,21.4995697 40.1683589,23.1260504 L40.1683589,23.1260504 Z" id="Path" fill="#006848"></path>
                    <path d="M29.893523,37.3286975 L30.0580306,33.5101891 C32.7065623,35.524067 36.4050351,35.524067 39.0535667,33.5101891 L39.4487527,42.7208613 C39.4526839,42.8283849 39.3909952,42.92785 39.2919583,42.9736723 C39.1929214,43.0194945 39.0756264,43.0028412 38.9938293,42.9313445 L34.7432823,39.3305462 C34.6942851,39.2803453 34.6265735,39.2519649 34.5557987,39.2519649 C34.4850239,39.2519649 34.4173122,39.2803453 34.3683151,39.3305462 L30.1177681,42.9313445 C30.035971,43.0028412 29.9186759,43.0194945 29.8196391,42.9736723 C29.7206022,42.92785 29.6589134,42.8283849 29.6628446,42.7208613 L29.893523,37.3368277 L29.893523,37.3286975 Z" id="Path" fill="#D87900"></path>
                    <path d="M27.373523,19.0473685 C29.088055,19.0450342 30.7147816,19.792549 31.8124726,21.0871639 C29.367434,22.0540122 27.63576,24.2331024 27.2733881,26.799021 C26.9110162,29.3649396 27.9733655,31.9252698 30.0580306,33.5101891 L29.893523,37.3286975 C22.6120371,41.2241197 13.6495847,40.3584487 7.27877462,35.1443697 L7.27877462,24.7331303 C7.27877462,23.2250394 7.8884256,21.7787499 8.97339773,20.7124534 C10.0583699,19.6461569 11.5298534,19.0473685 13.0641138,19.0473685 L15.0225821,19.0473685 L19.1453829,30.1379412 L19.196849,30.2770588 L19.1931729,30.3104832 L18.6435886,35.3241387 L20.4596061,36.4985084 L22.2296718,35.3241387 L21.6773304,30.2797689 L21.7085777,30.1948529 L25.7872648,19.0473685 L27.373523,19.0473685 Z M25.7348796,8.67136555 L25.7348796,10.8394328 C25.7348796,13.8339068 23.2652549,16.2614076 20.2188184,16.2614076 C17.1723819,16.2614076 14.7027571,13.8339068 14.7027571,10.8394328 L14.7027571,8.67136555 C14.7027571,5.6768916 17.1723819,3.24939087 20.2188184,3.24939087 C23.2652549,3.24939087 25.7348796,5.6768916 25.7348796,8.67136555 L25.7348796,8.67136555 Z" id="Shape" fill="#00839B"></path>
                    <polygon id="Path" fill="#00ACEA" points="22.6698906 19.4556933 21.5661269 22.6346218 19.1757112 22.6346218 18.0719475 19.4394328"></polygon>
                    <polygon id="Path" fill="#00ACEA" points="21.6773304 30.2797689 22.2296718 35.3241387 20.4596061 36.4985084 18.6435886 35.3241387 19.1931729 30.3104832 19.196849 30.2770588 19.9670022 23.2489076 20.9071772 23.2489076"></polygon>
                </g>
                <path d="M33.486407,30.5814013 L33.4848446,30.5814013 C33.3136788,30.5810071 33.1497296,30.513581 33.0292779,30.3940441 L30.3022188,27.6872122 C30.138115,27.5271596 30.0739958,27.292865 30.134261,27.0734864 C30.1945262,26.8541078 30.3699083,26.683381 30.5936677,26.626274 C30.817427,26.569167 31.0551543,26.6344617 31.2163851,26.7973109 L33.4885208,29.0526429 L37.897326,24.7190378 C38.1485733,24.472076 38.5559256,24.472076 38.8071729,24.7190378 C39.0584201,24.9659996 39.0584201,25.3664038 38.8071729,25.6133655 L33.9412385,30.3962122 C33.8206388,30.514827 33.6570126,30.5814013 33.486407,30.5814013 L33.486407,30.5814013 Z" id="Path" fill="#B4C404"></path>
            </g>
        </g>
    </g>
</svg>