<svg width="16" height="16" viewBox="0 0 16 16" fill="none" xmlns="http://www.w3.org/2000/svg">
<path d="M6.3125 0.9375C5.59766 0.9375 4.93555 1.11328 4.32617 1.46484C3.72852 1.81641 3.25391 2.29688 2.90234 2.90625C2.55078 3.50391 2.375 4.16016 2.375 4.875C2.375 5.54297 2.52734 6.16406 2.83203 6.73828C3.14844 7.3125 3.57617 7.78125 4.11523 8.14453C3.44727 8.4375 2.84961 8.8418 2.32227 9.35742C1.80664 9.87305 1.4082 10.4648 1.12695 11.1328C0.833984 11.8242 0.6875 12.5508 0.6875 13.3125H1.8125C1.8125 12.4922 2.01172 11.7422 2.41016 11.0625C2.82031 10.3711 3.36523 9.82617 4.04492 9.42773C4.73633 9.01758 5.49219 8.8125 6.3125 8.8125C6.89844 8.8125 7.46094 8.92969 8 9.16406C8.51562 9.375 8.98438 9.67969 9.40625 10.0781L6.75195 12.7324L6.33008 14.8945L6.1543 15.7207L6.98047 15.5449L9.14258 15.123L14.8203 9.44531C15.1484 9.11719 15.3125 8.71875 15.3125 8.25C15.3125 7.78125 15.1484 7.38281 14.8203 7.05469C14.4922 6.72656 14.0938 6.5625 13.625 6.5625C13.168 6.5625 12.7754 6.7207 12.4473 7.03711L10.2148 9.26953C9.71094 8.78906 9.14258 8.41406 8.50977 8.14453C9.04883 7.78125 9.4707 7.3125 9.77539 6.73828C10.0918 6.16406 10.25 5.54297 10.25 4.875C10.25 4.16016 10.0742 3.50391 9.72266 2.90625C9.37109 2.29688 8.89062 1.81641 8.28125 1.46484C7.68359 1.11328 7.02734 0.9375 6.3125 0.9375ZM6.3125 2.0625C6.82812 2.0625 7.29688 2.19141 7.71875 2.44922C8.15234 2.69531 8.49219 3.03516 8.73828 3.46875C8.99609 3.89062 9.125 4.35937 9.125 4.875C9.125 5.39063 8.99609 5.86523 8.73828 6.29883C8.49219 6.7207 8.15234 7.06055 7.71875 7.31836C7.29688 7.56445 6.82812 7.6875 6.3125 7.6875C5.79688 7.6875 5.32227 7.56445 4.88867 7.31836C4.4668 7.06055 4.12695 6.7207 3.86914 6.29883C3.62305 5.86523 3.5 5.39063 3.5 4.875C3.5 4.35937 3.62305 3.89062 3.86914 3.46875C4.12695 3.03516 4.4668 2.69531 4.88867 2.44922C5.32227 2.19141 5.79688 2.0625 6.3125 2.0625ZM13.625 7.6875C13.7891 7.6875 13.9238 7.74609 14.0293 7.86328C14.1465 7.96875 14.2051 8.09766 14.2051 8.25C14.2051 8.39062 14.1465 8.51953 14.0293 8.63672L8.58008 14.0859L7.57812 14.2969L7.78906 13.2949L13.2383 7.8457C13.3438 7.74023 13.4727 7.6875 13.625 7.6875Z" fill="#5E5EF4"/>
</svg>
