<?xml version="1.0" encoding="UTF-8"?>
<svg width="70px" height="70px" viewBox="0 0 70 70" version="1.1" xmlns="http://www.w3.org/2000/svg" xmlns:xlink="http://www.w3.org/1999/xlink">
    <title>A83BDB8B-0AEA-4DF9-A788-ACF0F8388E23</title>
    <g id="Web" stroke="none" stroke-width="1" fill="none" fill-rule="evenodd">
        <g id="Roaming" transform="translate(-305.000000, -383.000000)" fill-rule="nonzero">
            <g id="Group-4" transform="translate(280.000000, 340.000000)">
                <g id="phone-call" transform="translate(25.000000, 43.000000)">
                    <path d="M35.1845018,0 L33.1365314,0 L33,70 L35.0479705,70 C54.2578269,70 70,54.2362213 70,35 C70,15.7637787 54.3943583,0 35.1845018,0 Z" id="Path" fill="#B4C404"></path>
                    <path d="M70,34 C70,53.7858277 54.2578269,70 35.0479705,70 L33,70 L33.1365314,34 L70,34 Z" id="Path" fill="#B4C404"></path>
                    <path d="M37,5 L37,67 C53.7142857,65.9684933 67,52.3805413 67,36 C67,19.6199959 53.7142857,6.0315067 37,5 Z" id="Path" fill="#B4C404"></path>
                    <path d="M67,36 C67,51.8516169 53.7142857,65.0017677 37,66 L37,36 L67,36 Z" id="Path" fill="#B4C404"></path>
                    <path d="M53.0588235,19.0488612 L53.0588235,6 L48.8235294,6 L48.8235294,17.8829613 C44.3340074,16.8417855 39.3365808,16.2588355 34,16.2588355 L34,20.4235387 C39.2941176,20.4235387 44.3764706,21.0482442 48.8235294,22.1723886 L48.8235294,32.9176484 L34,32.9176484 L34,37.0823516 L48.8235294,37.0823516 L48.8235294,47.9664348 C44.3764706,49.0905793 39.2941176,49.7152848 34,49.7152848 L34,53.879988 C39.3365808,53.879988 44.3340074,53.297038 48.8235294,52.2558621 L48.8235294,64 L53.0588235,64 L53.0588235,51.0899622 C63.3079044,47.8411683 70,41.8300049 70,35 C70,28.1699951 63.3079044,22.2976551 53.0588235,19.0488612 Z M53.0588235,23.4635552 C59.5391544,25.7129286 64.1555146,29.12766 65.3836397,32.9176484 L53.0588235,32.9176484 L53.0588235,23.4635552 Z M53.0588235,46.6752682 L53.0588235,37.0823516 L65.3836397,37.0823516 C64.1555146,40.87234 59.5391544,44.4258948 53.0588235,46.6752682 Z" id="Shape" fill="#006848"></path>
                    <path d="M20.8791209,53.59375 L25,61.796875 L20.7417582,70 L16.4835165,70 C7.37626635,70 4.54747351e-13,62.6583099 4.54747351e-13,53.59375 L4.54747351e-13,16.5429688 C4.54747351e-13,7.47840885 7.51362898,0 16.6208791,0 L20.8791209,0 L25,8.203125 L20.8791209,16.5429688 L16.6208791,16.5429688 C14.3543956,16.5429688 12.3626374,18.3886719 12.3626374,20.6445312 L12.3626374,49.4921875 C12.3626374,51.7480469 14.3543956,53.59375 16.6208791,53.59375 L20.8791209,53.59375 Z" id="Path" fill="#006848"></path>
                    <path d="M20.8791209,53.125 L25,61.5625 L20.7417582,70 L16.4835165,70 C7.37626635,70 4.54747351e-13,62.4485473 4.54747351e-13,53.125 L4.54747351e-13,34 L12.3626374,34 L12.3626374,48.90625 C12.3626374,51.2265625 14.3543956,53.125 16.6208791,53.125 L20.8791209,53.125 Z" id="Path" fill="#B4C404"></path>
                    <path d="M34,36 L34,38.1541568 L48.8235294,38.1541568 L48.8235294,49.4135532 C44.3764706,50.5764613 39.2941176,51.2227084 34,51.2227084 L34,55.5310221 C39.3365808,55.5310221 44.3340074,54.9279703 48.8235294,53.8508919 L48.8235294,66 L53.0588235,66 L53.0588235,52.6447885 C63.3079044,49.2839672 70,43.0655223 70,36 L34,36 Z M53.0588235,48.0778637 L53.0588235,38.1541568 L65.3836397,38.1541568 C64.1555146,42.0748345 59.5391544,45.7509257 53.0588235,48.0778637 Z" id="Shape" fill="#006848"></path>
                    <polygon id="Path" fill="#3E5959" points="20 70 27.8688525 70 28 53 20.1311475 53"></polygon>
                    <polygon id="Path" fill="#4A696F" points="20 0 28 0 28 17 20 17"></polygon>
                </g>
            </g>
        </g>
    </g>
</svg>