<?xml version="1.0" encoding="UTF-8"?>
<svg width="192px" height="167px" viewBox="0 0 192 167" version="1.1" xmlns="http://www.w3.org/2000/svg" xmlns:xlink="http://www.w3.org/1999/xlink">
    <title>56FBDC88-A47F-4907-8BEB-44882317EB5C</title>
    <defs>
        <linearGradient x1="49.9922561%" y1="99.9814192%" x2="49.9922561%" y2="-0.00879730921%" id="linearGradient-1">
            <stop stop-color="#808080" stop-opacity="0.25" offset="0%"></stop>
            <stop stop-color="#808080" stop-opacity="0.12" offset="54%"></stop>
            <stop stop-color="#808080" stop-opacity="0.1" offset="100%"></stop>
        </linearGradient>
        <linearGradient x1="50.0014203%" y1="100.007591%" x2="50.0014203%" y2="0%" id="linearGradient-2">
            <stop stop-color="#808080" stop-opacity="0.25" offset="0%"></stop>
            <stop stop-color="#808080" stop-opacity="0.12" offset="54%"></stop>
            <stop stop-color="#808080" stop-opacity="0.1" offset="100%"></stop>
        </linearGradient>
    </defs>
    <g id="Web" stroke="none" stroke-width="1" fill="none" fill-rule="evenodd">
        <g id="Dashboard-Main-(No-wallet)" transform="translate(-1072.000000, -569.000000)">
            <g id="Group-28" transform="translate(280.000000, 545.000000)">
                <g id="Group-26-Copy-3" transform="translate(768.000000, 0.000000)">
                    <g id="Group-13" transform="translate(24.000000, 24.000000)">
                        <path d="M4,0 L188,0 C190.209139,1.48469752e-14 192,1.790861 192,4 L192,163 C192,165.209139 190.209139,167 188,167 L4,167 C1.790861,167 -1.73547709e-16,165.209139 0,163 L0,4 C-7.1463071e-16,1.790861 1.790861,-3.82769592e-17 4,0 Z" id="Rectangle" fill="#FCF6EE"></path>
                        <path d="M155.627498,89.6044358 C150.78446,97.9212758 151.444236,109.104219 153.330405,117.89146 C153.960829,120.833392 154.694623,123.932125 154.041228,127.258347 C153.24235,131.319731 150.557303,134.55213 147.865876,136.423451 C142.960306,139.835785 137.434521,139.860204 133.478416,136.487713 C130.059576,133.572771 127.872233,128.411215 124.376823,125.656928 C118.528169,121.049314 110.328822,124.091496 103.16572,128.665694 C98.0980779,131.901948 92.5123132,135.985181 87.9308887,133.838817 C84.7073014,132.328651 82.7649816,127.915109 81.9125048,123.085147 C81.5003042,120.753707 81.2744234,118.201204 80.2598739,116.439129 C79.6562489,115.391652 78.8127053,114.700189 77.9359814,114.13725 C69.9255074,108.996258 58.8624519,113.673276 51.1557046,107.829253 C45.9502364,103.882256 43.1082218,95.5654161 42.2953061,86.6226603 C41.4823904,77.6799045 42.4803497,68.0726755 43.6812189,58.6042533 C44.5349718,51.8785503 45.6541666,44.6721646 49.0079225,39.1443129 C52.5556552,33.2964343 58.0227367,30.6025545 62.7190159,31.0472503 C67.4152951,31.4919461 71.4403127,34.6459448 74.8872284,38.5248233 C79.194278,43.3753494 83.0431851,49.6036613 88.7106242,51.0778408 C92.5710167,52.0816195 96.8346767,50.7346796 100.971997,49.9352553 C107.887523,48.5985974 114.676709,48.7965256 121.416125,49.0998441 C127.868404,49.3903102 134.357692,49.7861666 140.328858,52.1266032 C144.554233,53.7832879 147.752297,57.3498512 151.686707,59.6298812 C154.247966,61.1156279 157.167827,61.2492937 159.541489,63.2529954 C162.466455,65.7219569 164.948591,70.3411383 163.643077,76.272558 C162.40137,81.9160821 158.202795,85.1896088 155.627498,89.6044358 Z" id="Path" fill="#D87900" opacity="0.1"></path>
                        <path d="M63,116 C63,116 53.8976808,101.886335 56.4515689,89.2222222 C57.5252387,83.9067688 56.834925,78.4074074 54.2878581,73.5517241 C53.0753203,71.2498047 51.6400349,69.0567297 50,67" id="Path" stroke="#535461" stroke-width="2"></path>
                        <path d="M50.9209136,59.4235847 C51.4136826,61.1554716 49.4426067,67 49.4426067,67 C49.4426067,67 44.6109108,62.801236 44.1168619,61.0693491 C43.6220459,59.3374943 44.7440571,57.5638111 46.6229441,57.1077168 C48.5018311,56.6516226 50.4260976,57.685831 50.9209136,59.4176859 L50.9209136,59.4235847 Z" id="Path" fill="#D87900"></path>
                        <path d="M59.8080409,68.3345763 C59.2024548,70.0497854 54.1099101,74 54.1099101,74 C54.1099101,74 52.5320645,68.0062839 53.1389282,66.2910748 C53.5176488,65.1662005 54.5176144,64.3183293 55.7558919,64.0721502 C56.9941693,63.8259711 58.2788963,64.2196279 59.1180915,65.1023712 C59.9572867,65.9851145 60.2209226,67.2201694 59.8080409,68.3345763 Z" id="Path" fill="#D87900"></path>
                        <path d="M64.8689562,85.7596726 C63.43858,86.9641497 57,88 57,88 C57,88 58.8593633,82.0101355 60.2897395,80.7996361 C61.7236519,79.619841 63.8814867,79.7617564 65.1334361,81.1181939 C66.3853856,82.4746315 66.2670011,84.5423795 64.8676981,85.7596726 L64.8689562,85.7596726 Z" id="Path" fill="#D87900"></path>
                        <path d="M64.2583034,99.4608067 C63.0783638,100.909549 57,103 57,103 C57,103 57.7642931,96.6906838 58.9442327,95.243166 C60.1274297,93.8059459 62.2647571,93.5823458 63.7269093,94.7428181 C65.1890614,95.9032905 65.4265358,98.0117096 64.2583034,99.4608067 Z" id="Path" fill="#D87900"></path>
                        <path d="M46.8334144,76.3262666 C48.4931158,77.2387441 55,76.9598636 55,76.9598636 C55,76.9598636 51.8841335,71.3859227 50.2256884,70.4771147 C49.1492046,69.8498664 47.8079394,69.8404703 46.7222952,70.452572 C45.636651,71.0646737 44.9774995,72.2019333 45.0005872,73.4231013 C45.023675,74.6442693 45.7253682,75.7571436 46.8334144,76.3299361 L46.8334144,76.3262666 Z" id="Path" fill="#D87900"></path>
                        <path d="M46.8025799,92.9513794 C48.71471,93.3566684 55,91.0949767 55,91.0949767 C55,91.0949767 50.1964819,86.4846543 48.2804863,86.0780868 C46.3680145,85.6731362 44.4868091,86.8832116 44.0786965,88.7808659 C43.6705839,90.6785202 44.890108,92.5451503 46.8025799,92.9501008 L46.8025799,92.9513794 Z" id="Path" fill="#D87900"></path>
                        <path d="M51.007888,108.765486 C52.7360779,109.488767 59,108.308135 59,108.308135 C59,108.308135 55.2382125,102.9317 53.5100225,102.208418 C51.8020635,101.566268 49.9152943,102.455714 49.2416312,104.22059 C48.567968,105.985466 49.3492537,107.992188 51.0091145,108.760347 L51.007888,108.765486 Z" id="Path" fill="#D87900"></path>
                        <path d="M50.9209136,59.4235847 C51.4136826,61.1554716 49.4426067,67 49.4426067,67 C49.4426067,67 44.6109108,62.801236 44.1168619,61.0693491 C43.6220459,59.3374943 44.7440571,57.5638111 46.6229441,57.1077168 C48.5018311,56.6516226 50.4260976,57.685831 50.9209136,59.4176859 L50.9209136,59.4235847 Z" id="Path" fill="#D87900"></path>
                        <path d="M59.8080409,68.3345763 C59.2024548,70.0497854 54.1099101,74 54.1099101,74 C54.1099101,74 52.5320645,68.0062839 53.1389282,66.2910748 C53.5176488,65.1662005 54.5176144,64.3183293 55.7558919,64.0721502 C56.9941693,63.8259711 58.2788963,64.2196279 59.1180915,65.1023712 C59.9572867,65.9851145 60.2209226,67.2201694 59.8080409,68.3345763 Z" id="Path" fill="#D87900"></path>
                        <path d="M64.8689562,85.7596726 C63.43858,86.9641497 57,88 57,88 C57,88 58.8593633,82.0101355 60.2897395,80.7996361 C61.7236519,79.619841 63.8814867,79.7617564 65.1334361,81.1181939 C66.3853856,82.4746315 66.2670011,84.5423795 64.8676981,85.7596726 L64.8689562,85.7596726 Z" id="Path" fill="#FC6681"></path>
                        <path d="M64.2583034,99.4608067 C63.0783638,100.909549 57,103 57,103 C57,103 57.7642931,96.6906838 58.9442327,95.243166 C60.1274297,93.8059459 62.2647571,93.5823458 63.7269093,94.7428181 C65.1890614,95.9032905 65.4265358,98.0117096 64.2583034,99.4608067 Z" id="Path" fill="#FC6681"></path>
                        <path d="M46.8334144,76.3262666 C48.4931158,77.2387441 55,76.9598636 55,76.9598636 C55,76.9598636 51.8841335,71.3859227 50.2256884,70.4771147 C49.1492046,69.8498664 47.8079394,69.8404703 46.7222952,70.452572 C45.636651,71.0646737 44.9774995,72.2019333 45.0005872,73.4231013 C45.023675,74.6442693 45.7253682,75.7571436 46.8334144,76.3299361 L46.8334144,76.3262666 Z" id="Path" fill="#D87900"></path>
                        <path d="M46.8025799,92.9513794 C48.71471,93.3566684 55,91.0949767 55,91.0949767 C55,91.0949767 50.1964819,86.4846543 48.2804863,86.0780868 C46.3680145,85.6731362 44.4868091,86.8832116 44.0786965,88.7808659 C43.6705839,90.6785202 44.890108,92.5451503 46.8025799,92.9501008 L46.8025799,92.9513794 Z" id="Path" fill="#D87900"></path>
                        <path d="M51.007888,108.765486 C52.7360779,109.488767 59,108.308135 59,108.308135 C59,108.308135 55.2382125,102.9317 53.5100225,102.208418 C51.8020635,101.566268 49.9152943,102.455714 49.2416312,104.22059 C48.567968,105.985466 49.3492537,107.992188 51.0091145,108.760347 L51.007888,108.765486 Z" id="Path" fill="#D87900"></path>
                        <ellipse id="Oval" fill="#D87900" opacity="0.1" cx="104.5" cy="118" rx="61.5" ry="4"></ellipse>
                        <path d="M157.99572,113.812877 C157.99572,113.812877 157.893396,113.676386 157.751421,113.523313 L157.792351,113.509281 C157.792351,113.509281 155.965868,108.95663 156.372606,107.034286 C156.779343,105.111942 154.749492,100.458517 154.749492,100.458517 C154.749492,100.458517 151.755237,94.3432436 153.172424,89.4627604 C153.334226,88.8879495 153.456447,88.3027819 153.538232,87.7113481 C153.961597,84.8208162 153.811948,84.2251064 153.102076,83.1689014 L153.024054,83.0553722 C153.111651,82.9703426 153.180863,82.8683245 153.227423,82.7556039 C153.83625,81.136855 150.387933,78.2029524 151.305011,75.4705961 C152.151742,72.9385106 149.947939,67.7136127 149.620503,66.9622785 L149.620503,66.9622785 L149.58341,66.8768126 L149.473412,66.9125297 C149.491837,66.2600743 149.749392,65.636978 150.197354,65.1611174 L150.217819,65.1407076 C150.522233,64.8613491 150.891878,64.6559759 151.177106,64.3562076 L151.193734,64.3370734 C151.221873,64.3102856 151.251291,64.2834978 151.278151,64.2554344 C151.560821,63.9594929 151.753958,63.5206831 151.600472,63.1405514 C151.461055,62.7935855 151.069666,62.5818343 150.977574,62.2195611 C150.9554,62.0566766 150.941738,61.8927518 150.936645,61.7284513 C150.86246,61.2182074 150.36491,60.8980293 149.913405,60.6454586 C149.351902,60.3291073 148.762261,60.0076537 148.113782,60 C147.236354,60 146.451018,60.5867805 145.579985,60.6594903 C145.283246,60.6850025 144.974995,60.6492854 144.693604,60.7475074 C144.479146,60.8365414 144.282133,60.9626359 144.111636,61.1199854 C144.011393,61.1986226 143.916532,61.2838531 143.827687,61.3751074 C143.630714,61.5587952 143.463158,61.7756489 143.470832,62.0358733 C143.48507,62.2258883 143.574309,62.4025101 143.718968,62.5269831 C143.150634,63.2979324 142.95338,64.2801292 143.180157,65.2099029 C143.406935,66.1396766 144.034512,66.9217725 144.894415,67.346237 C144.904647,67.4163956 144.914879,67.4878297 144.925112,67.5630907 C145.053017,68.5210737 145.128481,69.8757713 144.786974,70.9370787 C143.330137,71.6858617 141.059824,72.9066203 140.653086,73.4487545 C140.589196,73.541592 140.569546,73.6577798 140.599366,73.7663813 C140.587842,73.8161318 140.585244,73.8675247 140.591692,73.9181789 C140.273208,73.9908887 139.849843,73.9181789 139.334386,73.4487545 C138.116731,72.3364227 134.262954,68.9968762 134.262954,68.9968762 C134.262954,68.9968762 132.538795,64.7478198 131.32114,65.5527296 C130.103485,66.3576394 132.740885,70.3082031 132.740885,70.3082031 L138.514515,76.4821547 C138.514515,76.4821547 138.717884,77.7973084 140.847502,77.089345 C141.550979,76.8559084 142.186667,76.6326766 142.723867,76.4400596 L142.851772,76.5484864 C142.372129,79.3471744 142.123993,83.0770575 143.892919,84.1715308 C144.031412,84.3546801 144.131466,84.5637931 144.1871,84.7863747 C144.178147,84.8195406 144.169193,84.853982 144.161519,84.8871479 C144.025944,85.4457055 143.940338,86.0151602 143.905709,86.5888114 C143.572274,87.3491574 143.418666,88.1758026 143.456763,89.0048164 L142.778866,98.6369463 C142.778866,98.6369463 142.677822,100.760837 143.387694,102.379586 C144.097567,103.998334 146.329508,112.092079 144.807439,112.699269 L144.951972,112.718403 C144.515816,113.166142 143.781641,113.844767 143.222697,113.978706 C142.373408,114.180252 142.611311,115.478823 144.494072,115.695677 C146.376833,115.91253 146.603225,115.894672 147.927041,114.79382 C149.093534,113.824357 149.278997,113.39065 149.305857,113.29753 L149.372367,113.306459 C149.372367,113.306459 148.662495,110.676152 149.372367,109.56382 C150.08224,108.451488 147.750532,101.674173 147.750532,101.674173 C147.730966,100.808178 147.762999,99.941789 147.846461,99.0795829 C148.204595,100.014605 148.460405,100.662615 148.460405,100.662615 C148.460405,100.662615 149.069232,103.596517 149.779105,104.106761 C150.488977,104.617005 154.242988,111.593315 153.63416,114.627991 L153.563813,114.981335 L153.735205,114.931586 L153.750554,114.931586 C153.516488,115.509438 153.090564,116.422774 152.619874,116.75826 C151.910002,117.268504 152.619874,118.377009 154.446357,117.870591 C156.27284,117.364174 156.47493,117.263401 157.287126,115.746701 C158.099323,114.230001 157.99572,113.812877 157.99572,113.812877 Z" id="Path" fill="url(#linearGradient-1)"></path>
                        <path d="M143.771181,87.5365337 L143.318261,87 C142.855048,87.8270571 142.634182,88.7594423 142.679229,89.6976767 L142.005056,98.9313098 C142.005056,98.9313098 141.90354,100.967387 142.61025,102.519457 C143.31696,104.071528 145.537305,111.829381 144.02367,112.410938 L148.559369,113 C148.559369,113 147.852659,110.478667 148.559369,109.411852 C149.266079,108.345038 146.944217,101.847852 146.944217,101.847852 C146.944217,101.847852 146.742486,96.4174804 148.659584,95.155563 C150.576681,93.8936457 143.771181,87.5365337 143.771181,87.5365337 Z" id="Path" fill="#555388"></path>
                        <path d="M144.740669,112.035974 C144.740669,112.035974 143.404217,113.27574 142.499284,113.447622 C141.594351,113.619504 141.847118,114.721765 143.856684,114.906954 C145.86625,115.092143 146.107845,115.076618 147.522501,114.140694 C148.937157,113.20477 149,112.853244 149,112.853244 C149,112.853244 148.7207,112.021558 148.382746,112.003815 C148.044793,111.986072 144.740669,112.035974 144.740669,112.035974 Z" id="Path" fill="#603556"></path>
                        <path d="M144.069603,87.8279379 L143.316021,87 C142.853595,87.8270571 142.633104,88.7594423 142.678075,89.6976767 L142.005048,98.9313098 C142.005048,98.9313098 141.903704,100.967387 142.609213,102.519457 C143.314722,104.071528 145.531293,111.829381 144.020231,112.410938 L148.546922,113 C148.546922,113 147.841413,110.478667 148.546922,109.411852 C149.252431,108.345038 146.934515,101.847852 146.934515,101.847852 C146.934515,101.847852 146.733127,96.4174804 148.646966,95.155563 C150.560805,93.8936457 144.069603,87.8279379 144.069603,87.8279379 Z" id="Path" fill="#000000" opacity="0.1"></path>
                        <path d="M148.964597,101.021094 C148.964597,101.021094 147.721875,76.7317886 142.620176,68.1352056 C142.620176,68.1352056 138.879186,61.3314928 135.752503,59.3470766 L135.752503,58.5630151 C130.650804,55.0462311 124.373071,58.5630151 124.373071,58.5630151 L124.373071,58.9103518 L123.064943,59.9957789 L117.174519,59.9753474 C116.6348,59.3275831 115.833187,58.9530744 114.987893,58.9537689 L88.1097086,58.9537689 C87.3154314,58.9528957 86.557165,59.2836184 86.0192686,59.8655277 L79.901846,59.8655277 C79.901846,59.8655277 79.5414695,59.4479575 78.5937179,59.0278333 L78.5937179,58.5630151 C73.4920183,55.0462311 67.214286,58.5630151 67.214286,58.5630151 L67.214286,59.5066982 C67.0651366,59.6047614 66.9326582,59.7258942 66.8218475,59.8655277 C66.8218475,59.8655277 61.6547416,63.3133551 60.4774263,67.6142005 C60.4774263,67.6142005 54.133005,86.5644816 54.0021922,101.411848 C53.8713794,116.259214 59.627143,118.343235 62.6345552,118.733988 C65.6419673,119.124742 71.0052925,118.606291 76.2378049,105.453468 L78.4616226,97.7699207 C78.4616226,97.7699207 78.8540611,93.2111267 83.5633222,96.0766544 C88.2725833,98.942182 92.4573108,94.5136393 92.4573108,94.5136393 L110.11704,94.5136393 C110.11704,94.5136393 115.997204,98.1555666 121.365659,95.284931 C121.365659,95.284931 123.458664,92.5496546 125.420856,101.797494 C125.420856,101.797494 131.438246,120.812901 140.724673,118.859132 C150.0111,116.905363 148.964597,101.021094 148.964597,101.021094 Z" id="Path" fill="url(#linearGradient-2)"></path>
                        <path d="M68,59 L68,58.0434783 C68,58.0434783 74.0689655,55.6956522 79,58.0434783 L79,58.9130435 L68,59 Z" id="Path" fill="#535461"></path>
                        <path d="M124,59 L124,58.0434783 C124,58.0434783 130.068966,55.6956522 135,58.0434783 L135,58.9130435 L124,59 Z" id="Path" fill="#535461"></path>
                        <path d="M68,59 L68,58.0434783 C68,58.0434783 74.0689655,55.6956522 79,58.0434783 L79,58.9130435 L68,59 Z" id="Path" fill="#000000" opacity="0.1"></path>
                        <path d="M124,59 L124,58.0434783 C124,58.0434783 130.068966,55.6956522 135,58.0434783 L135,58.9130435 L124,59 Z" id="Path" fill="#000000" opacity="0.1"></path>
                        <path d="M87.0366719,59.6763288 L81.0831054,59.6763288 C81.0831054,59.6763288 79.5630458,57.8781241 74.4961807,58.0065673 C69.4293155,58.1350104 68.4159425,59.6763288 68.4159425,59.6763288 C68.4159425,59.6763288 63.4124131,63.0800734 62.2723684,67.3186989 C62.2723684,67.3186989 56.1287944,86.0071837 56.0021228,100.649708 C55.8754512,115.292232 61.4490029,117.347323 64.3624503,117.732653 C67.2758978,118.117982 72.4694346,117.60421 77.5362998,104.631447 L79.6897174,97.0532984 C79.6897174,97.0532984 80.0697323,92.5577866 84.629911,95.3835369 C89.1900896,98.2092871 93.2435818,93.8422185 93.2435818,93.8422185 L110.344252,93.8422185 C110.344252,93.8422185 116.044475,97.438628 121.238012,94.6128777 C121.238012,94.6128777 123.264758,91.9155706 125.164832,101.035037 C125.164832,101.035037 130.991727,119.787744 139.985413,117.861096 C148.979099,115.934448 147.965726,100.264378 147.965726,100.264378 C147.965726,100.264378 146.762345,76.3097225 141.822152,67.8324716 C141.822152,67.8324716 137.071965,59.0341128 133.905175,58.6487832 C133.905175,58.6487832 127.064907,57.3643513 124.404803,58.52034 L122.884743,59.804772 L87.0366719,59.6763288 Z" id="Path" fill="#535461"></path>
                        <circle id="Oval" fill="#E2E2EC" cx="72" cy="72" r="11"></circle>
                        <circle id="Oval" fill="#E2E2EC" cx="130" cy="72" r="11"></circle>
                        <path d="M73.7812398,68.8209921 L72.4169355,69.8636349 C72.1779089,70.045455 71.8197378,70.045455 71.5807111,69.8636349 L70.2140546,68.8209921 C70.0788659,68.7180795 70.0009818,68.5701782 70,68.4145036 L70,65.5457116 C70.0006487,65.2441596 70.2837528,65 70.6327549,65 L73.367244,65 C73.5351568,64.9997305 73.6962824,65.0572451 73.8150149,65.159835 C73.9337473,65.2624248 74.0003119,65.4016441 74,65.5467279 L74,68.4124712 C73.9985015,68.5694977 73.918789,68.7183565 73.7812398,68.8209921 L73.7812398,68.8209921 Z" id="Path" fill="#535461"></path>
                        <path d="M72.8359307,73.9427766 L71.8127025,73.1091365 C71.6334325,72.9636212 71.3648041,72.9636212 71.1855342,73.1091365 L70.1605418,73.9435899 C70.0591502,74.0259534 70.0007372,74.1443226 70,74.2689129 L70,76.5624398 C69.9997661,76.678554 70.0496895,76.7899748 70.1387389,76.87208 C70.2277882,76.9541853 70.3486324,77.0002157 70.474567,77 L72.5254338,77 C72.6512154,77.0002152 72.7719256,76.9542964 72.8609494,76.8723672 C72.9499733,76.790438 73,76.6792265 73,76.5632531 L73,74.2697262 C72.998877,74.1440539 72.9390926,74.0249185 72.8359307,73.9427766 Z" id="Path" fill="#535461"></path>
                        <path d="M68.0562182,73.837694 L68.8908413,72.8127016 C69.0363862,72.6334317 69.0363862,72.3648033 68.8908413,72.1855333 L68.0562182,71.160541 C67.9737747,71.0592419 67.8554219,71.0008488 67.7308291,71 L65.4368357,71 C65.1954469,71.0004865 65,71.2128146 65,71.4745662 L65,73.525433 C64.9997843,73.6513676 65.045824,73.7722118 65.127946,73.8612611 C65.210068,73.9503105 65.3215113,74.0002339 65.4376491,74 L67.7316425,74 C67.8562293,73.9985653 67.9743228,73.9395123 68.0562182,73.837694 L68.0562182,73.837694 Z" id="Path" fill="#535461"></path>
                        <path d="M74.9421705,73.8385769 L74.1094001,72.8127025 C73.9635333,72.6335806 73.9635333,72.364656 74.1094001,72.1855342 L74.943797,71.1605418 C75.0261549,71.0591502 75.1445161,71.0007372 75.2690979,71 L77.5624695,71 C77.6785758,70.9997661 77.789989,71.0496895 77.8720887,71.1387389 C77.9541884,71.2277882 78.0002157,71.3486324 78,71.474567 L78,73.5254338 C78.0002152,73.6512154 77.9542995,73.7719256 77.8723758,73.8609494 C77.7904522,73.9499733 77.6792482,74 77.5632827,74 L75.2699112,74 C75.1443495,73.9997974 75.024943,73.9409858 74.9421705,73.8385769 L74.9421705,73.8385769 Z" id="Path" fill="#535461"></path>
                        <polygon id="Path" stroke="#535461" stroke-width="2" points="71 63 74 63 72.5 62"></polygon>
                        <polygon id="Path" stroke="#535461" stroke-width="2" points="71 81 74 81 72.5 82"></polygon>
                        <polygon id="Path" stroke="#535461" stroke-width="2" points="63 71 63 74 62 72.5"></polygon>
                        <polygon id="Path" stroke="#535461" stroke-width="2" points="81 71 81 74 82 72.5"></polygon>
                        <circle id="Oval" fill="#E2E2EC" cx="87" cy="84" r="8"></circle>
                        <circle id="Oval" fill="#535461" cx="87" cy="84" r="5"></circle>
                        <circle id="Oval" fill="#E2E2EC" cx="115" cy="84" r="8"></circle>
                        <circle id="Oval" fill="#535461" cx="115" cy="84" r="5"></circle>
                        <circle id="Oval" stroke="#000000" stroke-width="2" opacity="0.1" cx="87.5" cy="82.5" r="3.5"></circle>
                        <circle id="Oval" stroke="#000000" stroke-width="2" opacity="0.1" cx="114.5" cy="82.5" r="3.5"></circle>
                        <circle id="Oval" fill="#E2E2EC" cx="102.5" cy="85.5" r="2.5"></circle>
                        <circle id="Oval" fill="#E2E2EC" cx="98.5" cy="77.5" r="1"></circle>
                        <circle id="Oval" fill="#E2E2EC" cx="100.5" cy="77.5" r="1"></circle>
                        <circle id="Oval" fill="#E2E2EC" cx="99.5" cy="80.5" r="1"></circle>
                        <circle id="Oval" fill="#E2E2EC" cx="101.5" cy="80.5" r="1"></circle>
                        <circle id="Oval" fill="#E2E2EC" cx="102.5" cy="80.5" r="1"></circle>
                        <circle id="Oval" fill="#E2E2EC" cx="99.5" cy="78.5" r="1"></circle>
                        <circle id="Oval" fill="#E2E2EC" cx="100.5" cy="78.5" r="1"></circle>
                        <circle id="Oval" fill="#E2E2EC" cx="102.5" cy="78.5" r="1"></circle>
                        <circle id="Oval" fill="#E2E2EC" cx="103.5" cy="78.5" r="1"></circle>
                        <circle id="Oval" fill="#E2E2EC" cx="101.5" cy="77.5" r="1"></circle>
                        <circle id="Oval" fill="#E2E2EC" cx="103.5" cy="77.5" r="1"></circle>
                        <circle id="Oval" fill="#E2E2EC" cx="105.5" cy="77.5" r="1"></circle>
                        <rect id="Rectangle" fill="#E2E2EC" x="82" y="60" width="2" height="5" rx="1"></rect>
                        <rect id="Rectangle" fill="#E2E2EC" x="119" y="60" width="2" height="5" rx="1"></rect>
                        <circle id="Oval" fill="#535461" cx="130.5" cy="65.5" r="3.5"></circle>
                        <circle id="Oval" fill="#535461" cx="123.5" cy="71.5" r="3.5"></circle>
                        <circle id="Oval" fill="#535461" cx="137.5" cy="71.5" r="3.5"></circle>
                        <circle id="Oval" fill="#535461" cx="131.5" cy="78.5" r="3.5"></circle>
                        <rect id="Rectangle" fill="#E2E2EC" x="86" y="59" width="32" height="17" rx="8.5"></rect>
                        <polygon id="Path" stroke="#E2E2EC" stroke-width="2" points="129 67 130.448276 64 132 67"></polygon>
                        <rect id="Rectangle" stroke="#E2E2EC" stroke-width="2" x="123" y="70" width="3" height="2"></rect>
                        <circle id="Oval" stroke="#E2E2EC" stroke-width="2" cx="136.5" cy="70.5" r="1.5"></circle>
                        <line x1="130" y1="77" x2="132" y2="79" id="Path" stroke="#E2E2EC" stroke-width="2"></line>
                        <line x1="132" y1="77" x2="130" y2="79" id="Path" stroke="#E2E2EC" stroke-width="2"></line>
                        <path d="M85.1337712,115.735107 C85.5081693,115.411825 85.8638476,115.029251 85.972423,114.567622 C86.087916,114.058361 85.8306846,113.535969 85.3871139,113.378961 C84.8492286,113.189792 84.2751514,113.532838 83.8383535,113.880119 C83.4015557,114.2274 82.9036061,114.62409 82.3332729,114.550681 C82.923574,114.067876 83.2068686,113.280141 83.0421334,112.574286 C83.0143699,112.4205 82.9455421,112.280062 82.8449504,112.171948 C82.5466799,111.876901 82.0050505,112.003955 81.6481243,112.235475 C80.5112019,112.9738 80.1942114,114.398217 80.1879714,115.681462 C80.073156,115.218421 80.1704995,114.737027 80.1667555,114.261281 C80.1630116,113.785534 80.0232363,113.260377 79.5889344,113.004858 C79.3111292,112.869082 79.0103414,112.804021 78.7078507,112.814277 C78.1974212,112.797336 77.627088,112.843923 77.2788977,113.189792 C76.8458439,113.613305 76.9581633,114.337513 77.3350575,114.809024 C77.7119516,115.280536 78.2860288,115.576995 78.8139302,115.903101 C79.2170322,116.151562 79.6238782,116.440962 79.870981,116.833418 C79.9025959,116.885457 79.9289676,116.941331 79.9496046,117 L83.1532049,117 C83.8570575,116.672552 84.5223175,116.247682 85.1337712,115.735107 Z" id="Path" fill="#D87900"></path>
                        <path d="M152.686272,113.351797 C152.686272,113.351797 152.041096,115.21888 151.287697,115.730994 C150.534297,116.243109 151.287697,117.38603 153.230162,116.868582 C155.172628,116.351133 155.382137,116.248443 156.242371,114.69743 C157.102606,113.146418 156.995771,112.732992 156.995771,112.732992 C156.995771,112.732992 156.350595,111.906141 156.024538,112.00883 C155.698481,112.11152 152.686272,113.351797 152.686272,113.351797 Z" id="Path" fill="#603556"></path>
                        <path d="M150,69.7629887 C150,69.7629887 141.262136,74.002745 143.311312,72.7778455 C144.688558,71.95517 144.605089,69.7714949 144.40198,68.4262928 C144.337986,68.0070563 144.262864,67.6692368 144.216956,67.4796691 C144.190524,67.3727334 144.17383,67.3131897 144.17383,67.3131897 C144.17383,67.3131897 148.411297,65.0918441 148.173409,66.4273248 L148.173409,66.4273248 C148.173409,66.4394766 148.173409,66.4516284 148.166454,66.4637802 C148.146008,66.5530222 148.135295,66.6437564 148.134457,66.7347649 C148.105243,68.1079161 150,69.7629887 150,69.7629887 Z" id="Path" fill="#C87486"></path>
                        <path d="M139.875831,73.4227894 C139.875831,73.4227894 139.19234,74.456236 138.021721,73.4227894 C136.851101,72.3893429 133.141622,69.2890032 133.141622,69.2890032 C133.141622,69.2890032 131.482615,65.3430063 130.309478,66.0953747 C129.136341,66.8477432 131.67646,70.5114505 131.67646,70.5114505 L137.240049,76.242051 C137.240049,76.242051 137.435152,77.4632867 139.485624,76.8054187 C141.536096,76.1475506 143,75.5841829 143,75.5841829 L139.875831,73.4227894 Z" id="Path" fill="#A1616A"></path>
                        <g id="Group" transform="translate(27.000000, 28.000000)"></g>
                        <path d="M157,113.548214 L153.056444,114.950918 L152.889797,115 L152.958491,114.64997 C153.550024,111.645651 149.905415,104.734168 149.209568,104.233017 C148.513721,103.731867 147.924732,100.82442 147.924732,100.82442 C147.924732,100.82442 146.632264,94.213885 146.435086,92.8163471 C146.385473,92.4663169 146.204833,92.1873259 145.986029,91.8024218 C145.656034,91.2190961 145.399599,90.5959493 145.22276,89.9476488 C144.788969,88.3976993 143.777638,85.6465388 144.149095,84.0901312 C144.22415,83.7736831 143.91757,84.5822402 144.021884,84.2735419 L144.081673,84.1030474 L152.068011,83 C152.200522,83.163359 152.324511,83.3336564 152.439468,83.5101917 C153.043723,84.4207871 153.004287,84.4207871 153.131499,86.1515641 C153.076568,87.1957661 152.931413,88.2330517 152.697707,89.2514632 C151.62277,94.1118466 154.047421,100.61776 154.047421,100.61776 C154.047421,100.61776 156.020472,105.224985 155.626116,107.127548 C155.23176,109.030111 157,113.548214 157,113.548214 Z" id="Path" fill="#555388"></path>
                        <path d="M152,83.3618107 C150.776558,84.4316316 142.939421,85.2626942 143.036874,84.9229227 C143.066255,84.8056611 143.053587,84.6851528 143,84.5721317 C143.077896,84.3464549 143.171956,84.1236407 143.281826,83.9045267 L143.343723,83.7833109 L151.615452,83 C151.752596,83.1158448 151.880954,83.2366134 152,83.3618107 L152,83.3618107 Z" id="Path" fill="#000000" opacity="0.1"></path>
                        <path d="M148.489454,67 C148.489454,67 145.327443,67.9916452 144.462831,70.2655464 C143.598218,72.5394475 145.118701,72.6630845 145.118701,72.6630845 C145.118701,72.6630845 142.401348,80.0558124 143.121446,83.9051294 C143.121446,83.9051294 143.504346,84.3996774 143.409239,84.8929508 C143.314131,85.3862242 151.358732,84.1026937 151.931847,82.5209048 C152.504961,80.9391159 149.250313,78.0737966 150.112455,75.4047669 C150.974597,72.7357372 148.489454,67 148.489454,67 Z" id="Path" fill="#DFE5EE"></path>
                        <path d="M147.987916,66.3657571 C147.983308,66.3881184 147.975157,66.4097509 147.963718,66.4299762 C147.852198,66.621675 147.497646,66.4117649 147.620739,66.6993131 C147.147302,67.1325523 146.997906,68 146.275125,68 C145.882086,68.0010614 145.493917,67.9207633 145.139927,67.7651584 C145.091531,67.4344779 145.034719,67.1680166 145,67.0184916 C145.315625,66.8478796 147.840625,65.515573 147.992125,66.1884358 L147.992125,66.1884358 C148.003891,66.2471945 148.00246,66.3075166 147.987916,66.3657571 L147.987916,66.3657571 Z" id="Path" fill="#000000" opacity="0.1"></path>
                        <circle id="Oval" fill="#A1616A" cx="145.5" cy="64.5" r="3.5"></circle>
                        <path d="M148.778854,75.3206759 L143.23345,78 C143.23345,78 139.469676,75.012341 140.063553,74.1896715 C140.65743,73.3670021 145.312657,71 145.312657,71 C145.312657,71 150.066226,72.023353 148.778854,75.3206759 Z" id="Path" fill="#000000" opacity="0.1"></path>
                        <path d="M148.77878,74.3216929 L143.23278,77 C143.23278,77 139.468602,74.0121465 140.06382,73.1884608 C140.659038,72.3647751 145.313488,70 145.313488,70 C145.313488,70 150.06629,71.0203075 148.77878,74.3216929 Z" id="Path" fill="#DFE5EE"></path>
                        <path d="M144.906534,63.8355299 C144.415708,63.7880634 143.908046,63.7356005 143.481973,63.497019 C143.234617,63.3596161 143.007982,63.1322767 143.000212,62.8562217 C142.991146,62.5314511 143.274764,62.2778802 143.53507,62.0717758 C143.703948,61.9213171 143.899043,61.800801 144.11137,61.7157772 C144.389807,61.6220934 144.694145,61.6558196 144.988123,61.6320864 C145.85322,61.5621358 146.627663,60.9950363 147.496646,61 C148.135109,61 148.721769,61.3148105 149.277348,61.6183461 C149.721552,61.8606749 150.214968,62.1679578 150.288787,62.6551137 C150.293722,62.812235 150.307122,62.9690027 150.328933,63.1247819 C150.420882,63.4720367 150.808104,63.6743937 150.946675,64.006659 C151.098196,64.3701523 150.906528,64.7911049 150.626796,65.0746546 C150.347064,65.3582043 149.979268,65.5530667 149.68529,65.8178796 C149.133521,66.311305 148.826328,67.0084201 148.840914,67.7340261 C148.847454,67.781323 148.839814,67.8294371 148.818898,67.8726782 C148.773875,67.9250903 148.708076,67.9568232 148.63759,67.9601164 C148.317711,68.0175758 147.922719,68.0488037 147.731051,67.7939837 C147.539383,67.5391637 147.690904,67.1144637 147.47204,66.8633911 C147.193603,66.5398696 146.608238,66.7971879 146.231376,66.5848379 C146.104358,66.5054122 146.005077,66.390937 145.946464,66.2563199 C145.635651,65.6105261 145.991791,65.1033843 146.121297,64.4863202 C146.272818,63.7655793 145.433622,63.8867437 144.906534,63.8355299 Z" id="Path" fill="#000000" opacity="0.1"></path>
                        <path d="M144.906534,63.8335074 C144.415708,63.7860748 143.908046,63.7336493 143.481973,63.495238 C143.234617,63.357933 143.007982,63.1307558 143.000212,62.8548977 C142.991146,62.5303587 143.274764,62.2769687 143.53507,62.0710113 C143.703948,61.92066 143.899043,61.8002298 144.11137,61.7152667 C144.389807,61.6216497 144.694145,61.6553518 144.988123,61.6316355 C145.85322,61.5617348 146.627663,60.9950399 147.496646,61 C148.135109,61 148.721769,61.3145859 149.277348,61.617905 C149.721552,61.860061 150.214968,62.1671248 150.288787,62.6539332 C150.293722,62.8109424 150.307122,62.9675982 150.328933,63.1232664 C150.420882,63.4702734 150.808104,63.6724861 150.946675,64.0045144 C151.098196,64.3677484 150.906528,64.7884008 150.626796,65.0717483 C150.347064,65.3550957 149.979268,65.5498191 149.68529,65.8144432 C149.13168,66.3084588 148.823877,67.007207 148.839619,67.7342158 C148.846159,67.781479 148.838519,67.8295588 148.817603,67.872769 C148.77258,67.9251437 148.70678,67.956854 148.636295,67.9601448 C148.316416,68.0175633 147.921424,68.0487689 147.729756,67.7941307 C147.538088,67.5394924 147.689609,67.1150954 147.470745,66.8642018 C147.192308,66.5409111 146.606943,66.7980458 146.230081,66.5858473 C146.103063,66.5064782 146.003782,66.3920847 145.945169,66.2575636 C145.631765,65.6109822 145.989201,65.1004575 146.118706,64.4775924 C146.271523,63.7648549 145.432327,63.8871811 144.906534,63.8335074 Z" id="Path" fill="#000000" opacity="0.753417969"></path>
                    </g>
                </g>
            </g>
        </g>
    </g>
</svg>