<?xml version="1.0" encoding="UTF-8"?>
<svg width="192px" height="167px" viewBox="0 0 192 167" version="1.1" xmlns="http://www.w3.org/2000/svg" xmlns:xlink="http://www.w3.org/1999/xlink">
    <title>5B7A02B3-F245-4CC7-8BE0-AA38DD0D8BF3</title>
    <defs>
        <linearGradient x1="49.9938255%" y1="100.001126%" x2="49.9938255%" y2="0.000793242907%" id="linearGradient-1">
            <stop stop-color="#808080" stop-opacity="0.25" offset="0%"></stop>
            <stop stop-color="#808080" stop-opacity="0.12" offset="54%"></stop>
            <stop stop-color="#808080" stop-opacity="0.1" offset="100%"></stop>
        </linearGradient>
    </defs>
    <g id="Web" stroke="none" stroke-width="1" fill="none" fill-rule="evenodd">
        <g id="Dashboard-Main-(No-wallet)" transform="translate(-816.000000, -569.000000)">
            <g id="Group-28" transform="translate(280.000000, 545.000000)">
                <g id="Group-26-Copy-2" transform="translate(512.000000, 0.000000)">
                    <g id="Group-12" transform="translate(24.000000, 24.000000)">
                        <path d="M4,0 L188,0 C190.209139,1.48469752e-14 192,1.790861 192,4 L192,163 C192,165.209139 190.209139,167 188,167 L4,167 C1.790861,167 -1.73547709e-16,165.209139 0,163 L0,4 C-7.1463071e-16,1.790861 1.790861,-3.82769592e-17 4,0 Z" id="Rectangle" fill="#EDF6F8"></path>
                        <g id="undraw_music_r1se" transform="translate(36.000000, 39.000000)">
                            <path d="M87,71.7878277 C89.2997386,72.6982139 92.1054641,72.1439601 94.7154672,72.2083799 C95.0724383,72.2181037 95.4505384,72.2436285 95.7374497,72.400424 C96.024361,72.5572195 96.1644805,72.8124679 96.361315,73.0312523 C97.0919379,73.84197 98.5854335,74.1032958 99.8998876,73.9647323 C101.214342,73.8261689 102.409805,73.3715836 103.646415,73.025175 C105.782681,72.4247334 108.223651,72.1524684 110.331004,72.8063906 C110.52436,72.8829452 110.729315,72.9184245 110.934852,72.9109209 C111.397468,72.8574403 111.534252,72.4247334 111.857861,72.1743468 C112.44058,71.7258388 113.707216,71.8473857 113.964101,71.2554524 C114.114229,70.9090438 113.768379,70.5541269 113.392503,70.3171105 C111.946826,69.4115862 109.892852,69.2620836 108.007912,69.4018625 C106.122971,69.5416414 104.266944,69.926945 102.376444,69.9281605 C100.016654,69.9281605 97.7358202,69.3374426 95.3993837,69.0943489 C93.7802254,68.9266142 92.0131632,68.9484926 90.4952023,69.441973 C88.8493546,69.9779947 88.4868233,71.1788779 87,71.7878277 Z" id="Path" fill="#00839B" opacity="0.1"></path>
                            <ellipse id="Oval" fill="#00839B" cx="57.5" cy="72.5" rx="19.5" ry="3.5"></ellipse>
                            <path d="M2,85.4625517 C6.2595111,86.9185217 11.4560713,86.0330452 16.2886448,86.1354698 C16.9505373,86.1497872 17.6503451,86.191638 18.181159,86.4427433 C18.711973,86.6938486 18.9730468,87.1035466 19.3370335,87.4515697 C20.6911507,88.7500483 23.4665493,89.1641517 25.8909608,88.9438839 C28.3153723,88.7236162 30.5393744,87.9945298 32.8240409,87.4383537 C36.7813131,86.4779862 41.3040646,86.041856 45.2060887,87.0881279 C45.5635757,87.1839444 45.9405619,87.2951796 46.3251312,87.2566328 C47.1809333,87.1707283 47.4355073,86.4746821 48.0334855,86.0759975 C49.1167792,85.3579245 51.4599436,85.5528615 51.933343,84.6068114 C52.2117495,84.0561419 51.5715229,83.4834457 50.874965,83.1045851 C48.2078958,81.6552231 44.3925351,81.4162326 40.9021626,81.6398044 C37.41179,81.8633762 33.9788321,82.480126 30.4711269,82.4823286 C26.1076196,82.4878353 21.8827739,81.5395825 17.5495988,81.1519113 C14.5521249,80.8831846 11.2794944,80.9162247 8.4683471,81.7025807 C5.42429161,82.5649291 4.75373276,84.4867654 2,85.4625517 Z" id="Path" fill="#00839B" opacity="0.1"></path>
                            <path d="M3,46 C4.89161184,54.2877577 8.89603207,61.4518653 15.2246505,64.9244581 C28.3765831,72.1410622 58.0376234,68.4182729 80.1747122,64.1425941 C91.3606816,61.9890259 101.514093,56.039129 109,47.2509823 L3,46 Z" id="Path" fill="#00839B" opacity="0.1"></path>
                            <path d="M118.875739,8.86204694 L106.638461,8.86204694 C106.054591,8.86204694 105.581271,8.38863421 105.581271,7.80465001 C105.581271,7.22066582 106.054591,6.74725309 106.638461,6.74725309 L108.752842,6.74725309 C108.181929,6.72885449 107.728634,6.26062748 107.728634,5.68930715 C107.728634,5.11798682 108.181929,4.64975982 108.752842,4.63136122 L107.242256,4.63136122 C106.671344,4.61296262 106.218049,4.14473561 106.218049,3.57341528 C106.218049,3.00209495 106.671344,2.53386795 107.242256,2.51546935 L113.62931,2.51546935 C112.212038,1.85665507 110.560933,1.3877989 108.647452,1.14184157 C91.2318081,-1.09483292 85.0138173,0.387499215 82.8192968,1.90716416 C80.1131974,3.78478487 77.0942223,5.16609881 73.8688591,5.83150124 C63.1191123,8.0484113 43.0292055,10.7166091 24.8143567,4.97723872 C15.7607249,2.12237683 9.03335068,6.94489737 5,15 L121,15 C120.848502,12.6590132 120.395107,10.4981024 119.562968,8.60510937 C119.372154,8.77048746 119.128225,8.86168657 118.875739,8.86204694 Z" id="Path" fill="#00839B" opacity="0.1"></path>
                            <path d="M1.26407784,29 C0.792619633,33.7005555 0.952953589,38.4421935 1.74089208,43.1010712 L109.511924,47 C112.512081,43.5860751 115.031003,39.7858717 117,35.70302 L1.26407784,29 Z M43.888849,39.0616111 L41.7679616,39.0616111 C42.3536285,39.0616111 42.8284053,39.5313016 42.8284053,40.1106942 C42.8284053,40.6900868 42.3536285,41.1597773 41.7679616,41.1597773 L29.493023,41.1597773 C28.9073561,41.1597773 28.4325793,40.6900868 28.4325793,40.1106942 C28.4325793,39.5313016 28.9073561,39.0616111 29.493023,39.0616111 L31.6139104,39.0616111 C31.041241,39.0433571 30.5865511,38.5788116 30.5865511,38.0119833 C30.5865511,37.445155 31.041241,36.9806094 31.6139104,36.9623555 L30.0986762,36.9623555 C29.5260068,36.9441016 29.0713169,36.479556 29.0713169,35.9127277 C29.0713169,35.3458994 29.5260068,34.8813539 30.0986762,34.8630999 L42.3736148,34.8630999 C42.9462842,34.8813539 43.4009741,35.3458994 43.4009741,35.9127277 C43.4009741,36.479556 42.9462842,36.9441016 42.3736148,36.9623555 L43.888849,36.9623555 C44.276057,36.9500132 44.6393127,37.1473278 44.836608,37.477163 C45.0339034,37.8069982 45.0339034,38.2169684 44.836608,38.5468036 C44.6393127,38.8766388 44.276057,39.0739534 43.888849,39.0616111 Z" id="Shape" fill="#00839B" fill-rule="nonzero" opacity="0.1"></path>
                            <path d="M120.946674,15 L4.78210494,17.8596054 C3.36876519,21.5367124 2.4326994,25.6924375 2,30 L118.910377,30 C119.673429,27.4695598 120.23798,24.8821255 120.598775,22.2617912 C120.946674,19.7300667 121.085833,17.2808626 120.946674,15 Z M25.5853789,24.3710115 L23.4914617,24.3710115 C23.865504,24.3710115 24.2111334,24.5729627 24.3981545,24.9007922 C24.5851757,25.2286216 24.5851757,25.6325241 24.3981545,25.9603536 C24.2111334,26.288183 23.865504,26.4901342 23.4914617,26.4901342 L11.3726169,26.4901342 C10.9985746,26.4901342 10.6529453,26.288183 10.4659241,25.9603536 C10.278903,25.6325241 10.278903,25.2286216 10.4659241,24.9007922 C10.6529453,24.5729627 10.9985746,24.3710115 11.3726169,24.3710115 L13.4665341,24.3710115 C12.9011471,24.3525753 12.4522392,23.8833898 12.4522392,23.3109 C12.4522392,22.7384102 12.9011471,22.2692248 13.4665341,22.2507885 L11.9705684,22.2507885 C11.4051813,22.2323523 10.9562735,21.7631668 10.9562735,21.190677 C10.9562735,20.6181872 11.4051813,20.1490018 11.9705684,20.1305655 L24.0894131,20.1305655 C24.6548002,20.1490018 25.103708,20.6181872 25.103708,21.190677 C25.103708,21.7631668 24.6548002,22.2323523 24.0894131,22.2507885 L25.5853789,22.2507885 C25.967663,22.2383229 26.3262993,22.4376084 26.5210858,22.7707379 C26.7158722,23.1038675 26.7158722,23.5179326 26.5210858,23.8510621 C26.3262993,24.1841917 25.967663,24.3834771 25.5853789,24.3710115 L25.5853789,24.3710115 Z" id="Shape" fill="#00839B" fill-rule="nonzero" opacity="0.1"></path>
                            <g id="Group" opacity="0.1" transform="translate(68.000000, 41.000000)">
                                <path d="M0.872052632,23.8924887 C0.872052632,23.8924887 3.98889474,16.3471493 9.81252632,13.5453394 C12.2619063,12.3866233 14.2624227,10.4781839 15.5134737,8.10678733 C16.0984228,6.97674302 16.5767898,5.79642713 16.9425789,4.58063348" id="Path" stroke="#535461" stroke-width="2"></path>
                                <path d="M20.5965789,2.79420814 C19.9897895,3.54352941 16.8497368,4.64036199 16.8497368,4.64036199 C16.8497368,4.64036199 17.2277368,1.3878733 17.8345263,0.638552036 C18.4604023,-0.0410224345 19.5158728,-0.126102259 20.246107,0.444158285 C20.9763413,1.01441883 21.1302152,2.04390983 20.5976842,2.79638009 L20.5965789,2.79420814 Z" id="Path" fill="#00839B"></path>
                                <path d="M19.5189474,8.73013575 C18.5949474,9.03529412 15.3532105,8.2761991 15.3532105,8.2761991 C15.3532105,8.2761991 17.4697895,5.7480543 18.3937895,5.44289593 C19.2953998,5.20614655 20.229059,5.69854091 20.5265453,6.56767133 C20.8240317,7.43680176 20.3829342,8.38346655 19.5189474,8.73013575 Z" id="Path" fill="#00839B"></path>
                                <path d="M13.6809474,15.7466063 C12.726,15.5511312 10.3187368,13.2890498 10.3187368,13.2890498 C10.3187368,13.2890498 13.4444211,12.1563801 14.3982632,12.3507692 C15.0501092,12.4420568 15.5963625,12.8816114 15.8159281,13.491524 C16.0354936,14.1014365 15.8920099,14.7807015 15.4435516,15.2543874 C14.9950934,15.7280733 14.3159283,15.9177347 13.6809474,15.7466063 Z" id="Path" fill="#00839B"></path>
                                <path d="M8.04410526,20.0763801 C7.07036842,20.0427149 4.30831579,18.2128507 4.30831579,18.2128507 C4.30831579,18.2128507 7.19415789,16.5773756 8.16789474,16.6110407 C8.82738739,16.590793 9.44350465,16.9329693 9.76596899,17.4985716 C10.0884333,18.0641739 10.0636082,18.7591237 9.70157802,19.3011205 C9.33954783,19.8431172 8.70053023,20.1420087 8.04410526,20.0763801 L8.04410526,20.0763801 Z" id="Path" fill="#00839B"></path>
                                <path d="M12.3358421,6.15529412 C12.4607368,7.10552036 14.5717895,9.63800905 14.5717895,9.63800905 C14.5717895,9.63800905 15.9611053,6.66244344 15.8362105,5.71221719 C15.6570603,4.81370951 14.7990358,4.20596419 13.8748226,4.32295117 C12.9506093,4.43993816 12.2773703,5.24151096 12.3358421,6.15529412 L12.3358421,6.15529412 Z" id="Path" fill="#00839B"></path>
                                <path d="M5.80926316,11.3017195 C6.21710526,12.1704977 9.00236842,13.9677828 9.00236842,13.9677828 C9.00236842,13.9677828 9.42236842,10.720724 9.01452632,9.85085973 C8.77881213,9.24529889 8.21957166,8.81904945 7.56400212,8.74527964 C6.90843259,8.67150982 6.26559091,8.96249158 5.89663816,9.50001056 C5.52768541,10.0375295 5.49399853,10.7321671 5.80926316,11.3017195 Z" id="Path" fill="#00839B"></path>
                                <path d="M0.163578947,17.159457 C0.417789474,18.0847059 2.84936842,20.3174661 2.84936842,20.3174661 C2.84936842,20.3174661 3.82089474,17.1866063 3.56889474,16.2613575 C3.44062585,15.6254144 2.96269201,15.1125266 2.3292446,14.9310448 C1.69579719,14.749563 1.01220375,14.9296749 0.556160914,15.3982134 C0.10011808,15.866752 -0.0525160635,16.5457806 0.160263158,17.159457 L0.163578947,17.159457 Z" id="Path" fill="#00839B"></path>
                                <path d="M20.5965789,2.79420814 C19.9897895,3.54352941 16.8497368,4.64036199 16.8497368,4.64036199 C16.8497368,4.64036199 17.2277368,1.3878733 17.8345263,0.638552036 C18.4604023,-0.0410224345 19.5158728,-0.126102259 20.246107,0.444158285 C20.9763413,1.01441883 21.1302152,2.04390983 20.5976842,2.79638009 L20.5965789,2.79420814 Z" id="Path" fill="#000000" opacity="0.25"></path>
                                <path d="M19.5189474,8.73013575 C18.5949474,9.03529412 15.3532105,8.2761991 15.3532105,8.2761991 C15.3532105,8.2761991 17.4697895,5.7480543 18.3937895,5.44289593 C19.2953998,5.20614655 20.229059,5.69854091 20.5265453,6.56767133 C20.8240317,7.43680176 20.3829342,8.38346655 19.5189474,8.73013575 Z" id="Path" fill="#000000" opacity="0.25"></path>
                                <path d="M13.6809474,15.7466063 C12.726,15.5511312 10.3187368,13.2890498 10.3187368,13.2890498 C10.3187368,13.2890498 13.4444211,12.1563801 14.3982632,12.3507692 C15.0501092,12.4420568 15.5963625,12.8816114 15.8159281,13.491524 C16.0354936,14.1014365 15.8920099,14.7807015 15.4435516,15.2543874 C14.9950934,15.7280733 14.3159283,15.9177347 13.6809474,15.7466063 Z" id="Path" fill="#000000" opacity="0.25"></path>
                                <path d="M8.04410526,20.0763801 C7.07036842,20.0427149 4.30831579,18.2128507 4.30831579,18.2128507 C4.30831579,18.2128507 7.19415789,16.5773756 8.16789474,16.6110407 C8.82738739,16.590793 9.44350465,16.9329693 9.76596899,17.4985716 C10.0884333,18.0641739 10.0636082,18.7591237 9.70157802,19.3011205 C9.33954783,19.8431172 8.70053023,20.1420087 8.04410526,20.0763801 L8.04410526,20.0763801 Z" id="Path" fill="#000000" opacity="0.25"></path>
                                <path d="M12.3358421,6.15529412 C12.4607368,7.10552036 14.5717895,9.63800905 14.5717895,9.63800905 C14.5717895,9.63800905 15.9611053,6.66244344 15.8362105,5.71221719 C15.6570603,4.81370951 14.7990358,4.20596419 13.8748226,4.32295117 C12.9506093,4.43993816 12.2773703,5.24151096 12.3358421,6.15529412 L12.3358421,6.15529412 Z" id="Path" fill="#000000" opacity="0.25"></path>
                                <path d="M5.80926316,11.3017195 C6.21710526,12.1704977 9.00236842,13.9677828 9.00236842,13.9677828 C9.00236842,13.9677828 9.42236842,10.720724 9.01452632,9.85085973 C8.77881213,9.24529889 8.21957166,8.81904945 7.56400212,8.74527964 C6.90843259,8.67150982 6.26559091,8.96249158 5.89663816,9.50001056 C5.52768541,10.0375295 5.49399853,10.7321671 5.80926316,11.3017195 Z" id="Path" fill="#000000" opacity="0.25"></path>
                                <path d="M0.163578947,17.159457 C0.417789474,18.0847059 2.84936842,20.3174661 2.84936842,20.3174661 C2.84936842,20.3174661 3.82089474,17.1866063 3.56889474,16.2613575 C3.44062585,15.6254144 2.96269201,15.1125266 2.3292446,14.9310448 C1.69579719,14.749563 1.01220375,14.9296749 0.556160914,15.3982134 C0.10011808,15.866752 -0.0525160635,16.5457806 0.160263158,17.159457 L0.163578947,17.159457 Z" id="Path" fill="#000000" opacity="0.25"></path>
                            </g>
                            <g id="Group" opacity="0.1" transform="translate(64.000000, 24.000000)">
                                <path d="M3.47543046,28.9329924 C3.47543046,28.9329924 3.87622517,20.7031439 8.50675497,16.1125758 C10.4621793,14.2000979 11.7284074,11.7198958 12.1150331,9.04492424 C12.2891799,7.7734452 12.3430715,6.48903005 12.2760265,5.20791667" id="Path" stroke="#535461" stroke-width="2"></path>
                                <path d="M15.1739073,2.29912879 C14.848543,3.21416667 12.2062252,5.2925 12.2062252,5.2925 C12.2062252,5.2925 11.4519205,2.06405303 11.7772848,1.14901515 C12.1453734,0.294155795 13.1307734,-0.134650873 14.0285677,0.169346849 C14.926362,0.47334457 15.427684,1.40556285 15.1739073,2.29912879 L15.1739073,2.29912879 Z" id="Path" fill="#00839B"></path>
                                <path d="M16.1871523,8.31772727 C15.3990728,8.91310606 12.0294702,9.2580303 12.0294702,9.2580303 C12.0294702,9.2580303 13.1935762,6.14712121 13.9771523,5.55174242 C14.4785303,5.11441691 15.187834,4.98602182 15.8166194,5.21877002 C16.4454048,5.45151823 16.8889469,6.00664522 16.9668757,6.65840419 C17.0448045,7.31016316 16.744141,7.95000282 16.1871523,8.31772727 Z" id="Path" fill="#00839B"></path>
                                <path d="M12.9796689,16.9386364 C11.9956954,17.0671591 8.90304636,15.7017424 8.90304636,15.7017424 C8.90304636,15.7017424 11.5183444,13.5904545 12.5056954,13.4619318 C13.4530075,13.398679 14.287975,14.063774 14.4140524,14.9820373 C14.5401298,15.9003006 13.9140187,16.7563755 12.9830464,16.9386364 L12.9796689,16.9386364 Z" id="Path" fill="#00839B"></path>
                                <path d="M9.05165563,22.9297727 C8.10370861,23.2186742 4.81966887,22.3805303 4.81966887,22.3805303 C4.81966887,22.3805303 7.0307947,19.8682955 7.97874172,19.5793939 C8.90197981,19.3595793 9.84142,19.8773804 10.1250145,20.7623777 C10.408609,21.647375 9.93879151,22.595099 9.05165563,22.9275758 L9.05165563,22.9297727 Z" id="Path" fill="#00839B"></path>
                                <path d="M8.39417219,8.22765152 C8.84450331,9.09325758 11.7401325,10.8145833 11.7401325,10.8145833 C11.7401325,10.8145833 12.0519868,7.51912879 11.6061589,6.65242424 C11.1252909,5.8541599 10.0921617,5.55681673 9.24425461,5.97264856 C8.39634755,6.38848039 8.02450989,7.37484948 8.39417219,8.22765152 Z" id="Path" fill="#00839B"></path>
                                <path d="M3.89198675,15.2909091 C4.58211921,15.98625 7.87629139,16.7826515 7.87629139,16.7826515 C7.87629139,16.7826515 7.16364238,13.5454167 6.47238411,12.8489773 C6.03746869,12.3490076 5.35345289,12.1268661 4.69820311,12.2727928 C4.04295332,12.4187195 3.52546281,12.9084412 3.35595074,13.5430192 C3.18643866,14.1775972 3.3931014,14.8514767 3.89198675,15.2909091 L3.89198675,15.2909091 Z" id="Path" fill="#00839B"></path>
                                <path d="M0.479602649,22.7419318 C1.04251656,23.5405303 4.14980132,24.8685985 4.14980132,24.8685985 C4.14980132,24.8685985 4.00794702,21.5599621 3.44728477,20.7602652 C3.10758308,20.1921549 2.47121269,19.8566528 1.79801687,19.8907514 C1.12482104,19.9248501 0.527476101,20.3228421 0.249890403,20.9222191 C-0.0276952957,21.5215962 0.0609392258,22.2220373 0.479602649,22.7375379 L0.479602649,22.7419318 Z" id="Path" fill="#00839B"></path>
                            </g>
                            <rect id="Rectangle" fill="#535461" x="41" y="11" width="1" height="11"></rect>
                            <rect id="Rectangle" fill="#535461" x="41" y="26" width="1" height="5"></rect>
                            <rect id="Rectangle" fill="#535461" x="41" y="1" width="33" height="72" rx="16.5"></rect>
                            <rect id="Rectangle" fill="#00839B" x="41" y="4" width="33" height="66" rx="16.5"></rect>
                            <rect id="Rectangle" fill="#EAEAF3" x="55" y="2" width="5" height="1" rx="0.5"></rect>
                            <circle id="Oval" fill="#EAEAF3" cx="62.5" cy="2.5" r="1"></circle>
                            <path d="M46,56.9453782 L46,55.0546218 C46,55.024455 46.0342623,55 46.076527,55 L46.370861,55 C46.3910245,55 46.4103416,55.0057853 46.4244602,55.0160602 C46.4385789,55.0263352 46.4463116,55.0402327 46.4459162,55.0546218 L46.4459162,55.842437 L47.6703459,55.0336134 C47.7304198,54.9983626 47.8135422,54.9909153 47.8839587,55.0144749 C47.9543752,55.0380345 47.99953,55.0884002 48,55.1439076 L48,56.8560924 C47.99953,56.9115998 47.9543752,56.9619655 47.8839587,56.9855251 C47.8135422,57.0090847 47.7304198,57.0016374 47.6703459,56.9663866 L46.4415012,56.1617647 L46.4415012,56.9453782 C46.4418966,56.9597673 46.4341639,56.9736648 46.4200452,56.9839398 C46.4059265,56.9942147 46.3866095,57 46.366446,57 L46.072112,57 C46.0315807,56.9983282 45.9999325,56.974356 46,56.9453782 L46,56.9453782 Z" id="Path" fill="#535461"></path>
                            <path d="M68,55.0505264 L68,56.9452632 C68.0003801,56.9596826 67.9926645,56.9736094 67.978577,56.9839059 C67.9644896,56.9942025 67.9452152,57 67.9250963,57 L67.6240707,57 C67.6039518,57 67.5846775,56.9942025 67.57059,56.9839059 C67.5565026,56.9736094 67.548787,56.9596826 67.5491815,56.9452632 L67.5491815,56.1557895 L66.3274583,56.9663158 C66.2678206,57.0018972 66.1848308,57.0094954 66.1146321,56.9858013 C66.0444333,56.9621071 65.999734,56.9114102 66,56.8557895 L66,55.1442106 C65.999734,55.0885899 66.0444333,55.0378929 66.1146321,55.0141988 C66.1848308,54.9905047 66.2678206,54.9981029 66.3274583,55.0336843 L67.5491815,55.84 L67.5491815,55.0547369 C67.548787,55.0403175 67.5565026,55.0263907 67.57059,55.0160941 C67.5846775,55.0057976 67.6039518,55 67.6240707,55 L67.9250963,55 C67.9647955,54.9999508 67.9976504,55.0221174 68,55.0505264 L68,55.0505264 Z" id="Path" fill="#535461"></path>
                            <path d="M56.64,57 L56.2105263,57 C56.0942558,57 56,56.9057442 56,56.7894737 L56,55.2105263 C56,55.0942558 56.0942558,55 56.2105263,55 L56.6389474,55 C56.7552178,55 56.8494737,55.0942558 56.8494737,55.2105263 L56.8494737,56.7821053 C56.8514676,56.8390235 56.8303156,56.8943211 56.7908448,56.9353787 C56.7513741,56.9764362 56.6969526,56.9997501 56.64,57 Z M57.9978947,56.7894737 L57.9978947,55.2105263 C57.9978947,55.0942558 57.9036389,55 57.7873684,55 L57.3589474,55 C57.2426769,55 57.1484211,55.0942558 57.1484211,55.2105263 L57.1484211,56.7821053 C57.1484211,56.8983757 57.2426769,56.9926421 57.3589474,56.9926421 L57.7873684,56.9926421 C57.8435673,56.9931936 57.897658,56.9712616 57.9375958,56.9317191 C57.9775337,56.8921767 58,56.838307 58,56.7821053 L57.9978947,56.7894737 Z" id="Shape" fill="#535461" fill-rule="nonzero"></path>
                            <rect id="Rectangle" fill="#EAEAF3" x="45" y="51.8255598" width="26" height="1"></rect>
                            <circle id="Oval" fill="#535461" cx="52" cy="53" r="1"></circle>
                            <rect id="Rectangle" fill="#535461" x="44" y="51.8255598" width="8" height="1"></rect>
                            <path d="M36.7981208,41.7312493 C36.7981208,41.7312493 35.8488874,39.3513666 32.6219375,37.2279133 C29.3949876,35.10446 29.4326908,33.8452281 29.4326908,33.8452281 C29.4326908,33.8452281 28.8261129,29.3909956 28.0288012,28.1470405 C27.2314896,26.9030853 26.7757245,25.1080798 26.7757245,25.1080798 C26.7757245,25.1080798 26.7424569,25.1517273 26.68812,25.2171987 C26.68812,25.1866454 26.6814665,25.1550009 26.6770308,25.121174 C26.5960798,24.462096 26.3876033,23.2257792 26.0416211,23.6076952 C26.0416211,23.6076952 25.9628879,23.6709842 25.8309268,23.7713736 L25.7765898,23.7026287 C25.4583305,23.2977976 24.9393571,22.623443 24.9393571,22.5099594 C24.9393571,22.3451899 20.9727592,19.345512 19.9658621,18.8839391 C19.256155,18.5565825 17.7313934,17.7174583 16.8974874,17.247156 C16.5067729,17.0293221 16.0511683,16.9521584 15.6089253,17.0289182 C14.3891161,17.2373353 12.0603893,17.7774737 12.3731041,18.8097383 C12.7900571,20.201004 14.403532,19.8169055 15.5046871,19.027976 C15.5046871,19.027976 16.473881,18.6624278 17.5739271,19.7427047 C18.6739733,20.8229815 23.193921,24.0081615 23.193921,24.0081615 L23.569844,25.0338789 L23.6053294,25.1320859 C23.4745659,25.1828165 23.3343075,25.2055092 23.193921,25.1986484 C22.8523744,25.1560921 22.992098,25.4856311 23.2416044,25.8533617 C23.2759809,25.9035564 23.3125751,25.9548423 23.3524962,26.0050369 C23.3070305,25.9875779 23.2626738,25.9712101 23.2160993,25.9504775 C23.2160993,25.9504775 23.2427133,26.0006722 23.2881789,26.0901497 L23.2160993,26.0606876 C23.2160993,26.0606876 24.9626444,29.3560776 25.0757539,29.9791464 C25.1253433,30.2515222 25.1524156,30.527405 25.1567049,30.8040851 C25.1567049,31.0910677 25.1145661,31.3147614 25.0380508,31.370412 C24.8861291,31.4795309 24.430364,32.6154584 24.430364,32.6154584 L22.6461157,32.6907504 L22.6461157,32.6907504 C22.5928877,32.6852945 22.535224,32.6798385 22.4864316,32.6722002 L22.3755399,32.6558324 C22.3755399,32.6416469 22.3755399,32.6285527 22.3755399,32.6143672 C22.37557,31.8845147 22.1207015,31.1768215 21.6536346,30.6098535 L21.6802486,30.6098535 C22.0572805,29.8023738 21.2455529,28.9599761 21.069235,28.0870251 C21.0273795,27.8026962 21.0088377,27.5155146 21.0137892,27.2282595 C21.00987,27.1136139 20.9998762,26.9992474 20.9838484,26.8856263 C20.800877,25.6798627 19.6365136,24.8756566 18.5020911,24.4173573 C17.8367406,24.1456513 17.0604983,23.9437814 16.4018013,24.2340376 C15.6322126,24.5701237 15.2607252,25.4550778 14.5665429,25.9253802 C13.4576254,26.6772092 11.9483887,26.1588945 10.6243412,26.3814971 C10.1109124,26.467701 9.59083009,26.6913947 9.2936402,27.1180495 C9.03193568,27.491236 8.97205413,27.9680855 8.96096496,28.42202 C8.92880635,29.629966 9.17498603,30.8641005 8.85007321,32.0229429 C8.3233374,33.9172466 6.48586112,35.0782714 5.11191234,36.4880873 C4.23624945,37.3867103 3.52361479,38.4263931 3.00496911,39.561966 C2.80869071,39.9929856 2.65676902,40.5440359 2.9728105,40.8997634 C3.15356405,41.099451 3.43966477,41.1714694 3.62818074,41.3624275 C3.86881583,41.6057625 3.90097444,41.9865874 3.85661774,42.3248559 C3.69138904,43.5829966 2.73106649,44.5596105 1.97145801,45.5809632 C1.21184952,46.6023158 0.634103512,48.0055846 1.27727566,49.0989557 C1.8317344,50.0406516 3.04489014,50.3221783 4.12497578,50.5175011 C4.4687402,50.5786077 4.83357405,50.638623 5.1595958,50.5175011 C5.45345893,50.4083822 5.67191568,50.1574088 5.86486732,49.9075266 C6.31014742,49.332179 6.67975722,48.7037688 6.96491347,48.0372291 C7.10463708,47.7098724 7.24325176,47.3508713 7.55042191,47.1642781 C7.82210669,47.0038733 8.16143545,47.0246059 8.47858585,47.0497032 L10.8494514,47.2417525 C11.0495991,47.2728476 11.2542999,47.2590461 11.4482669,47.2013785 C11.672171,47.0962068 11.8545812,46.9213153 11.9672403,46.7037964 C12.1482416,46.3914076 12.290462,46.0587594 12.3908468,45.712997 C12.6758386,44.805128 12.8344138,43.8317876 13.4997643,43.1814391 C14.1007975,42.6020179 14.9901494,42.4285189 15.828491,42.417607 C16.3408109,42.417607 16.8520218,42.4634369 17.3632328,42.4841695 C17.5062831,42.4907166 17.6515513,42.4950814 17.7946017,42.4950814 C17.8910775,42.4950814 17.9875533,42.4950814 18.0840292,42.4896254 C18.2736541,43.7837753 18.5076356,45.6999027 18.3246643,46.2302205 C18.0396725,47.0551592 18.0585241,47.5854769 18.0585241,47.5854769 L18.1893763,47.6487659 C18.1771782,47.678228 18.1649801,47.7087812 18.152782,47.7415169 C18.0152763,48.1070651 17.9188005,48.6450212 18.3435159,48.9865633 C18.4132625,49.0411799 18.4874384,49.0900832 18.5652994,49.1327826 L18.5331407,49.2244424 C18.1195145,50.4051087 17.1702811,53.1669074 17.0815677,53.9012774 C16.970676,54.8440645 15.6011629,57.7106174 15.6011629,57.7106174 C15.6011629,57.7106174 11.8807447,60.7212071 15.2307845,61.8113047 C15.2307845,61.8113047 15.5568062,60.6731948 16.2565331,59.7904231 C16.6750327,59.2658464 16.9943022,58.6715197 17.199113,58.0357916 C17.2884411,57.7595178 17.4200674,57.498266 17.589452,57.2610476 C17.8877508,56.8442135 18.5187248,55.5642491 19.1086689,54.314838 L19.5810678,54.4141361 C19.3437594,55.4234857 19.2805511,57.1639318 20.1621405,59.9322777 C20.1621405,59.9322777 20.1809921,60.0413965 20.2109329,60.2148956 C20.1919897,60.201649 20.1715165,60.1906603 20.1499424,60.1821599 C19.7285538,60.0108433 19.067639,60.6011764 18.6728643,61.5024983 C18.3124662,62.3263458 18.2980502,63.1240048 18.6229631,63.3847989 C18.6525172,63.4096947 18.6858092,63.4299394 18.7216567,63.4448143 C18.8387438,63.4869279 18.9678205,63.4830198 19.0820549,63.4339024 C19.0874207,63.4321871 19.092617,63.4299958 19.0975797,63.4273552 C19.1912467,63.3895437 19.2789866,63.3388435 19.3581754,63.2767712 C19.6753258,63.1992968 19.9991297,63.0498039 20.3251514,63.0661718 C20.411102,63.0706616 20.4962758,63.0845693 20.5790935,63.1076369 C20.6012719,63.4349936 20.612361,63.7525295 20.6034897,64.0231443 C20.5602419,65.4656958 20.5336279,66.0964029 20.5336279,66.0964029 C20.5336279,66.0964029 20.3184979,67.1668591 20.1477246,67.4276532 C19.9769513,67.6884473 19.792871,73.2109536 20.5036871,75.8592687 C20.5036871,75.8592687 20.9882841,78.4268359 20.774263,78.8654937 L20.774263,78.8742232 C20.6833889,79.1057635 20.6298836,79.3498671 20.6156878,79.5976814 C20.5975295,79.8110597 20.5904971,80.0252136 20.5946184,80.2393004 L19.5688697,83.3284557 C19.5688697,83.3284557 19.5411467,83.3830152 19.5045525,83.4724926 C19.3922364,83.7340445 19.3502284,84.0196414 19.3825715,84.3017961 C19.4028237,84.4326446 19.4545277,84.5568451 19.5333843,84.6640708 L19.5333843,84.6640708 C19.5333843,84.6640708 19.3881161,86.023692 20.9472541,86 C22.5063921,85.9756797 22.7791858,84.9477798 22.7791858,84.9477798 L22.6682941,84.4665656 C22.6805992,84.4280726 22.6869541,84.3879781 22.6871457,84.347626 C22.6871457,84.347626 22.6760565,84.1784918 22.6638584,83.9242448 C22.6361355,83.2553461 22.6039769,81.9993878 22.7592253,81.711314 C22.9721375,81.3130301 22.843503,79.6107756 22.843503,79.6107756 L22.7869482,79.1470204 L22.7281756,78.6625326 L22.6450068,77.9761749 C22.6450068,77.9761749 22.6206106,75.051789 22.8812062,74.6262254 C23.1229502,74.2323063 23.9080638,70.6433865 23.6751912,68.2384065 C23.6402176,67.8441884 23.6881583,67.4471073 23.8160237,67.0719257 C24.0488963,66.3648354 24.3704824,65.1874427 24.281769,64.3548657 C24.2728977,64.2752089 24.2673531,64.1726372 24.2651353,64.0493328 C24.6261879,64.5987489 25.2296144,64.9482211 25.8930261,64.9921199 L25.8619764,64.9921199 L25.9462542,64.9921199 C26.426153,65.0143909 26.8989724,64.8716493 27.2836087,64.5883801 C28.0809203,64.0078677 28.9469849,63.0399832 29.4282551,61.4424829 C29.5590173,60.9969808 29.717144,60.5597009 29.9017629,60.1330564 C30.3453299,59.1346187 31.1038294,57.2588652 31.2679492,55.9156119 L31.3156327,55.9614418 C31.3156327,55.9614418 32.3801935,52.8450067 32.3502527,51.6272401 C32.3646103,51.467179 32.3418605,51.305999 32.2837176,51.1558465 L32.2715196,51.0598219 C32.2749747,51.0546159 32.279072,51.0498512 32.2837176,51.0456365 C32.2837176,51.0456365 31.8634379,47.7829821 31.714843,45.0004508 L33.0810293,43.9976483 C33.0810293,43.9976483 32.4356393,42.6882218 32.8525923,42.4427043 C33.2695453,42.1971869 33.878341,43.7412189 33.878341,43.7412189 C33.878341,43.7412189 37.9380879,43.9649126 36.7981208,41.7312493 Z M21.5549409,45.3376281 L22.4210055,44.4810449 C22.5041743,44.9513473 22.3023513,45.5154919 21.5338715,46.1614756 L21.5072575,46.1702051 C21.5549409,45.7009939 21.5549409,45.3376281 21.5549409,45.3376281 Z M20.5181031,35.9217603 C20.5181031,35.9217603 20.4183005,35.9970524 20.2563985,36.1247214 C20.2286756,35.9697726 20.1998437,35.8137326 20.168794,35.6587838 C20.2175864,35.6882459 20.2652699,35.717708 20.3107355,35.7504437 C20.3840957,35.8023899 20.453411,35.8596547 20.5181031,35.9217603 L20.5181031,35.9217603 Z M24.8916736,56.0760166 L25.0025654,55.1692388 L25.2454183,55.3252787 C25.0254202,55.9561076 24.8614255,56.6045199 24.7552768,57.26323 C24.8129405,56.6838087 24.8584061,56.2506068 24.8772577,56.0629223 L24.8916736,56.0760166 Z M24.6698901,58.9774875 C24.6823176,59.1476174 24.6608459,59.3184976 24.6066818,59.4805255 L24.5468003,59.4805255 C24.5845035,59.0582355 24.6222067,58.6457661 24.6576921,58.2605765 C24.6505626,58.4996515 24.6557442,58.7389284 24.6732169,58.9774875 L24.6698901,58.9774875 Z" id="Shape" fill="url(#linearGradient-1)" fill-rule="nonzero"></path>
                            <path d="M19,61.0263305 L19,61.9651334 C19.350314,62.1042469 19.7181836,61.7807866 20.091639,61.8012696 C20.3094881,61.8123646 20.5073875,61.94209 20.7228426,61.9813491 C20.7769749,61.9966531 20.8346003,61.9877166 20.882439,61.9565988 C20.9219122,61.9131641 20.9451832,61.8557983 20.9478735,61.7952954 C21.0276716,61.296023 21.1154496,60.0883811 20.3892862,60.0030354 C19.8530425,59.9373192 19.6479612,60.9597609 19,61.0263305 Z" id="Path" fill="#FFB9B9"></path>
                            <path d="M19,61.0263305 L19,61.9651334 C19.350314,62.1042469 19.7181836,61.7807866 20.091639,61.8012696 C20.3094881,61.8123646 20.5073875,61.94209 20.7228426,61.9813491 C20.7769749,61.9966531 20.8346003,61.9877166 20.882439,61.9565988 C20.9219122,61.9131641 20.9451832,61.8557983 20.9478735,61.7952954 C21.0276716,61.296023 21.1154496,60.0883811 20.3892862,60.0030354 C19.8530425,59.9373192 19.6479612,60.9597609 19,61.0263305 Z" id="Path" fill="#000000" opacity="0.1"></path>
                            <path d="M20.7276436,60.7803914 C20.4502614,61.375993 20.0358197,61.8256722 19.6757667,61.9586899 C19.6708986,61.961092 19.6658013,61.9630856 19.6605379,61.9646459 C19.5516326,62.0084676 19.4282634,62.0116741 19.3168015,61.97358 C19.2821229,61.9607931 19.2501113,61.942661 19.2221652,61.9199758 C18.9121498,61.6837205 18.925203,60.9630426 19.2700272,60.2185405 C19.6463968,59.4045517 20.2783932,58.8704955 20.6841327,59.0273373 C21.0898722,59.1841791 21.105101,59.9664025 20.7276436,60.7803914 Z" id="Path" fill="#4C4C78"></path>
                            <path d="M20.0229723,84.1364347 L20.0030064,84.4674153 C20.0030064,84.4674153 19.8737531,86.0212553 21.3102504,85.9997794 C22.7467477,85.9783036 23,84.7895528 23,84.7895528 L22.8518317,84 L20.0229723,84.1364347 Z" id="Path" fill="#4C4C78"></path>
                            <path d="M23.9979391,55.7245152 C23.9979391,55.7245152 23.3157938,62.8799526 23.4445977,64.1484515 C23.529093,64.9845578 23.2385115,66.1670195 23.0231514,66.8773789 C22.9077535,67.2543813 22.8646447,67.6524424 22.8964084,68.0477071 C23.1024946,70.4633704 22.3966494,74.0670106 22.1751068,74.4618999 C21.9391381,74.8898804 21.9607771,77.8261798 21.9607771,77.8261798 L22.0359986,78.5155814 L22.089581,79.0020232 L22.1400721,79.4675072 C22.1400721,79.4675072 22.2565108,81.1772232 22.0638202,81.5765246 C21.9236816,81.8666248 21.9525337,83.1274025 21.9782944,83.7991555 C21.9885988,84.0539583 21.9989031,84.2238269 21.9989031,84.2238269 C21.9972573,84.3428292 21.9555458,84.4571981 21.8814339,84.5459153 C21.7072911,84.7753482 21.2755405,85.0356662 20.2090445,84.9959567 C19.3568781,84.9639684 19.0755704,84.5834187 19.0096228,84.1819112 C18.9803069,83.898803 19.0182307,83.6123539 19.119879,83.3491141 C19.1528527,83.2586646 19.1786135,83.2046155 19.1786135,83.2046155 L20.1060014,80.1017567 C20.1021714,79.8868135 20.1087061,79.6718019 20.1255796,79.4575798 C20.1379809,79.2091738 20.1862985,78.9643297 20.2688095,78.7317778 L20.2688095,78.7229534 C20.4625305,78.2817364 20.0235669,75.7039258 20.0235669,75.7039258 C19.380578,73.042284 19.5475078,67.499495 19.7020724,67.2369708 C19.8566371,66.9744467 20.059632,65.9055984 20.059632,65.9055984 C20.059632,65.9055984 20.0843623,65.2713489 20.1235187,63.823054 C20.1626751,62.3747591 19.7237115,59.7153233 19.7237115,59.7153233 C18.268743,54.6413274 19.6598248,53 19.6598248,53 L24,54.0898061 L23.9979391,55.7245152 Z" id="Path" fill="#A1616A"></path>
                            <path d="M23,78.5175045 C22.5194124,78.69427 21.5309549,79.0303572 21,78.9977951 C21.0126286,78.7359022 21.0618318,78.4777644 21.1458552,78.2325863 C21.5792235,78.3291096 22.3137461,78.4000484 22.9454355,78 L23,78.5175045 Z" id="Path" fill="#4C4C78"></path>
                            <path d="M22.8824879,84 C22.2413254,83.4267062 21.0332186,82.6107297 20.0096264,83.4196719 C19.9802997,82.9683152 20.0182373,82.5116323 20.1199228,82.0919516 C20.7146989,81.9565417 21.975377,81.8299247 22.9793838,82.8094481 C22.9896919,83.2156778 23,83.4864976 23,83.4864976 C22.9983536,83.6762219 22.9566268,83.858559 22.8824879,84 L22.8824879,84 Z" id="Path" fill="#4C4C78"></path>
                            <path d="M20,50 L20,52.7833125 C20,52.7833125 18.0103374,57.6199416 17.4256923,58.505048 C17.2706409,58.739679 17.1505468,58.9975116 17.0695053,59.2697539 C16.8839456,59.8970458 16.5927766,60.4847465 16.209672,61.0052566 C15.5720662,61.8730079 15.2750706,63 15.2750706,63 C12.2210009,61.9239883 15.6125656,58.9508552 15.6125656,58.9508552 C15.6125656,58.9508552 16.8587008,56.1209011 16.9625454,55.1902378 C17.0435442,54.4645807 17.9085697,51.7376721 18.2855256,50.5716312 C18.3893702,50.2462244 18.4599846,50.0379641 18.4599846,50.0379641 L20,50 Z" id="Path" fill="#A1616A"></path>
                            <path d="M25,59.1352524 C25,59.1352524 23.6239116,58.3837737 23.088989,60.4235016 C22.5540664,62.4632295 24.6054946,63 24.6054946,63 L25,59.1352524 Z" id="Path"></path>
                            <path d="M25,59.1352524 C25,59.1352524 23.6239116,58.3837737 23.088989,60.4235016 C22.5540664,62.4632295 24.6054946,63 24.6054946,63 L25,59.1352524 Z" id="Path" fill="#000000" opacity="0.05"></path>
                            <path d="M25.5769436,54.3621389 C25.5769436,54.3621389 24.5424402,56.6755019 24.6964229,58.9368419 C24.7122022,59.1455412 24.6787354,59.3550606 24.5988282,59.5478353 C24.1470625,60.6555157 23.9465113,61.8531261 24.0121759,63.051086 C24.0121759,63.0732234 24.0121759,63.0953609 24.0121759,63.1174983 C24.0619657,63.8565471 24.5038622,64.5085741 25.1638177,64.8167684 C25.8237731,65.1249626 26.5960257,65.0399342 27.1764117,64.5951728 C27.9354813,64.0096373 28.7606983,63.0344829 29.2183089,61.4250907 C29.343449,60.976725 29.4940722,60.5361815 29.6694131,60.1056989 C30.2116056,58.8117653 31.2558685,56.0534397 30.9424812,54.8602314 C30.5293305,53.278511 25.5769436,54.3621389 25.5769436,54.3621389 Z" id="Path" fill="#A1616A"></path>
                            <path d="M30.9442328,54.8623303 C30.7672747,54.1709238 29.7479108,53.9883924 28.6554324,54.0005612 C29.6652596,54.0138362 30.5627661,54.2218113 30.7323069,54.8623303 C31.0374803,56.0548684 30.0149375,58.8116448 29.4883014,60.1048517 C29.3161907,60.5347839 29.1689899,60.9751282 29.0474954,61.4235023 C28.599272,63.0319906 27.7939533,64.0077036 27.0522124,64.5918039 C26.7482608,64.833793 26.3816754,64.9748538 26,64.9966916 C26.4542236,65.0241069 26.902789,64.880437 27.2641384,64.5918039 C28.0058793,64.0077036 28.811198,63.0319906 29.2594214,61.4235023 C29.3809158,60.9751282 29.5281166,60.5347839 29.7002274,60.1048517 C30.2268634,58.812751 31.2494062,56.0548684 30.9442328,54.8623303 Z" id="Path" fill="#000000" opacity="0.1"></path>
                            <path d="M19.9721456,51 C19.9721456,51 19.1749862,54.0449391 19,54.2286854 C19,54.2286854 24.1847766,55.2387652 24.9268477,56 L25.0348639,55.1337673 L25.3999586,55.3700126 C25.3999586,55.3700126 28.3974075,53.2963041 31.0167999,55.8950021 C31.0167999,55.8950021 32.2989519,52.1150777 31.9349374,51.4063419 C31.5709229,50.697606 27.1951875,51.3149937 27.1951875,51.3149937 L19.9721456,51 Z" id="Path" fill="#000000" opacity="0.1"></path>
                            <path d="M19.9721456,51 C19.9721456,51 19.1749862,54.0449391 19,54.2286854 C19,54.2286854 24.1847766,55.2387652 24.9268477,56 L25.0348639,55.1337673 L25.3999586,55.3700126 C25.3999586,55.3700126 28.3974075,53.2963041 31.0167999,55.8950021 C31.0167999,55.8950021 32.2989519,52.1150777 31.9349374,51.4063419 C31.5709229,50.697606 27.1951875,51.3149937 27.1951875,51.3149937 L19.9721456,51 Z" id="Path" fill="#4C4C78"></path>
                            <path d="M18.9359634,32.5273652 C18.9227641,32.6897191 18.9259056,32.8530539 18.9453371,33.0147352 C18.9797074,33.3382108 19.0276175,33.6616864 19.0807353,33.985162 C19.0963581,34.0800482 19.1130225,34.1738561 19.1296869,34.2676641 C19.2942478,35.1928044 19.5067188,36.1103969 19.6504492,37.0398502 C19.7259043,37.5154351 19.7766647,37.9948677 19.8025118,38.476082 C19.86129,39.3282869 19.786372,40.1847224 19.580667,41.0121309 C19.4602975,41.4725886 19.2779815,41.9132355 19.0390743,42.3211289 C18.9428246,42.4989472 18.8157147,42.6568579 18.6641255,42.7869338 C18.6307457,42.8117042 18.5959663,42.8343879 18.559973,42.8548637 C18.3438344,42.9718132 18.1057398,43.0387703 17.8621516,43.0511055 C17.6965492,43.0672793 17.5309468,43.0726706 17.3643028,43.0726706 C17.2330708,43.0726706 17.1007971,43.0726706 16.969565,43.0618881 C16.5019205,43.0414013 16.032193,42.9928799 15.5666315,42.9961147 C14.801111,43.0025842 13.9876803,43.172948 13.4377554,43.7422651 C12.8211729,44.3805904 12.680567,45.3359217 12.4201859,46.2222449 C12.3279373,46.5602213 12.197909,46.8858992 12.0327388,47.1926718 C11.9306617,47.4051593 11.7637227,47.5768482 11.5578036,47.68112 C11.3806391,47.7381665 11.1930956,47.7518239 11.0099617,47.7210153 L8.83734154,47.5323212 C8.54779773,47.5075214 8.23742342,47.4870346 7.98849906,47.6455377 C7.70832896,47.8234493 7.58126297,48.1771159 7.45315545,48.4973568 C7.1930236,49.1494572 6.85502202,49.7652596 6.44704276,50.3303854 C6.27102511,50.5751486 6.0710524,50.8177553 5.80233907,50.9288153 C5.50446306,51.0506577 5.17117521,50.9924321 4.8566348,50.9288153 C3.86926955,50.7390429 2.76108746,50.4630104 2.25282349,49.5389483 C1.66436213,48.4606962 2.19762269,47.0880813 2.88711192,46.0885417 C3.57660116,45.089002 4.45877243,44.1390619 4.60979349,42.9023068 C4.65041295,42.5702051 4.62125026,42.1960516 4.40148859,41.9577579 C4.22859551,41.7701421 3.96717286,41.6989774 3.80261198,41.5038138 C3.51306816,41.1576949 3.65159093,40.6131776 3.83177467,40.1905028 C4.30423973,39.078162 4.95617364,38.0572084 5.75963657,37.1713969 C7.01675667,35.7890778 8.69673573,34.6482871 9.17792006,32.7893805 C9.47267151,31.6475115 9.24770221,30.4355562 9.27686489,29.2505571 C9.28728014,28.8041608 9.34248094,28.3361994 9.58203158,27.9695937 C9.85595253,27.5512318 10.3308877,27.3312684 10.8006153,27.2471648 C12.0108668,27.0315143 13.3888037,27.5372146 14.4053317,26.7996901 C15.0396201,26.3381983 15.3801986,25.4691271 16.0832277,25.1391819 C16.6883534,24.8545234 17.3913825,25.0529218 18.0037989,25.31925 C19.0453234,25.7688812 20.1055954,26.5581617 20.2732808,27.7420825 C20.2880336,27.8536476 20.2970727,27.9659429 20.3003605,28.0784971 C20.2959159,28.3605138 20.3129805,28.6424538 20.3513952,28.9216902 C20.5128315,29.7778224 21.254397,30.6048417 20.9096523,31.40167 C19.8493804,31.5375298 19.0213684,31.5407646 18.9359634,32.5273652 Z" id="Path" fill="#000000" opacity="0.737676711"></path>
                            <path d="M19.7365212,40.6289083 C19.3318681,41.2336007 18.9888657,41.8816443 18.6425006,42.5285763 C18.4098852,42.6491392 18.15364,42.7181651 17.8914824,42.7308815 C17.7132557,42.747555 17.535029,42.7531128 17.3556813,42.7531128 C17.2144451,42.7531128 17.0720879,42.7531128 16.9308516,42.7419971 C16.4275573,42.7208773 15.9220212,42.6708568 15.4209687,42.6741915 C14.5970905,42.6808609 13.7216499,42.8564885 13.1298027,43.4433959 C12.4662164,44.1014436 12.3148919,45.0862919 12.0346612,46 C11.994308,46 11.9539547,46 11.9136015,46 C11.3307217,46 10.81846,45.6342945 10.3712119,45.2652542 C10.2535339,45.1798702 10.1540962,45.0721951 10.078651,44.9484576 C10.0090731,44.8000243 9.98491072,44.6346178 10.0091538,44.4727069 C10.0741673,43.8291096 10.5169318,43.2955575 10.9148594,42.7842367 C11.345517,42.2308766 11.7448084,41.6541945 12.1108839,41.0568615 C12.2790223,40.7845276 12.4471607,40.483293 12.4168958,40.1676079 C12.3944774,39.9119475 12.2498783,39.6840763 12.1927113,39.4350853 C12.0391449,38.7948227 12.4740629,38.1567832 12.9852036,37.7377225 C13.4963444,37.3186617 14.1061264,37.0129808 14.5354398,36.5094409 C14.9647532,36.0059011 15.169882,35.3100602 15.2180817,34.6375621 C15.2528303,34.1651461 15.2382583,33.6371518 15.562205,33.2892313 C16.0397181,32.7745758 16.7784061,33.0935956 17.3713742,33.1425045 C17.9901236,33.1947482 18.5965428,33.2758925 19.202962,33.3792683 C19.2197758,33.4770862 19.2377106,33.5737925 19.2556453,33.6704988 C19.4327511,34.6242233 19.6614194,35.5701668 19.8161067,36.5283376 C19.8973139,37.0186168 19.951944,37.5128625 19.9797614,38.0089448 C20.0421676,38.8895645 19.9600194,39.774391 19.7365212,40.6289083 Z" id="Path" fill="#000000" opacity="0.1"></path>
                            <path d="M26,23.5883482 L23.8347506,25 L23.669109,24.5528565 L23.3118428,23.5883482 C23.3118428,23.5883482 19.0170705,20.5936224 17.9701724,19.5785137 C16.9232743,18.5634049 16.0041259,18.907282 16.0041259,18.907282 C14.9572278,19.6477022 13.4231486,20.0091346 13.0269079,18.7007492 C12.7313514,17.730045 14.9431537,17.2230069 16.1026448,17.0268008 C16.523557,16.9551201 16.957479,17.0283115 17.3270933,17.2333336 C18.1195746,17.6732485 19.5692091,18.4653018 20.2436843,18.7699377 C21.2007246,19.199526 24.9715065,22.0228295 24.9715065,22.1777291 C24.9715065,22.2809955 25.4641008,22.9191819 25.7672357,23.2992023 C25.9025638,23.4695919 26,23.5883482 26,23.5883482 Z" id="Path" fill="#A1616A"></path>
                            <path d="M29,38 L29.9401353,45 L31.4025681,43.9538763 C31.4025681,43.9538763 30.8102828,42.7762512 31.1936491,42.5642787 C31.5770154,42.3523062 32.1337844,43.7242395 32.1337844,43.7242395 C32.1337844,43.7242395 35.8598541,43.9205103 34.8152593,41.9254171 L33.6306888,40.4857704 L31.2981086,38.9303238 L29,38 Z" id="Path" fill="#757A9B"></path>
                            <path d="M29,38 L29.9401353,45 L31.4025681,43.9538763 C31.4025681,43.9538763 30.8102828,42.7762512 31.1936491,42.5642787 C31.5770154,42.3523062 32.1337844,43.7242395 32.1337844,43.7242395 C32.1337844,43.7242395 35.8598541,43.9205103 34.8152593,41.9254171 L33.6306888,40.4857704 L31.2981086,38.9303238 L29,38 Z" id="Path" fill="#000000" opacity="0.1"></path>
                            <path d="M27,37.5230835 L26.5465184,41.726761 L23.5219114,42 C23.5219114,42 20.2951753,40.9736021 21.4849099,38.4572341 C22.0253175,37.3128997 21.6859918,36.6274667 21.1958546,36.225782 C20.8366224,35.9553448 20.4294528,35.7741536 20.0019308,35.6944838 C20.0019308,35.6944838 19.9139575,29.2721989 20.9256508,31.451105 C21.3801797,32.4307954 22.3070416,32.8208032 23.1899168,32.9539197 C23.8888379,33.0472635 24.5962345,33.0264147 25.2897565,32.8920322 L27,37.5230835 Z" id="Path" fill="#A1616A"></path>
                            <path d="M23,32.92201 C22.9997414,34.2911232 22.2525666,35.516975 21.1239195,36 C20.7862965,35.7412472 20.4036196,35.5678844 20.0018147,35.4916568 C20.0018147,35.4916568 19.9191333,29.3468492 20.8699695,31.4316148 C21.2971567,32.3689773 22.1682644,32.7421347 22.9980314,32.8694998 C23,32.8873756 23,32.9086031 23,32.92201 Z" id="Path" fill="#000000" opacity="0.1"></path>
                            <ellipse id="Oval" fill="#A1616A" cx="19" cy="32.5" rx="3" ry="3.5"></ellipse>
                            <path d="M26,23.3400121 L24.1421273,25 L24,24.4741955 C24.5527171,24.2374013 25.4045518,23.4055859 25.8002787,23 C25.9163957,23.2003643 26,23.3400121 26,23.3400121 Z" id="Path" fill="#000000" opacity="0.1"></path>
                            <path d="M26,25.840344 L25.923133,26.2323548 L23.7882435,27 C23.5776809,26.7330871 23.3817978,26.452124 23.2016751,26.1586608 C23.0012718,25.8178264 22.8887166,25.5107683 23.1632416,25.5506858 C23.7580458,25.6356386 25.45095,24.0665718 25.45095,24.0665718 C25.7337107,23.7114079 25.8993408,24.8638993 25.9661419,25.479039 C25.989019,25.6919326 26,25.840344 26,25.840344 Z" id="Path" fill="#CBCDDA"></path>
                            <path d="M20,49 L20,50 C19.7577226,50 18.6868565,49.9508197 18,49.5737705 C18.1211387,49.2459016 18.203513,49.0360656 18.203513,49.0360656 L20,49 Z" id="Path" fill="#000000" opacity="0.1"></path>
                            <path d="M21,48.284 L20.8991513,48.85 L20.690307,50 C20.690307,50 19.6977012,50 19.2148977,49.492 C18.9187042,49.181 18.9854073,48.692 19.0814915,48.359 C19.1168465,48.2342906 19.1615153,48.1140856 19.2148977,48 L21,48.284 Z" id="Path" fill="#CBCDDA"></path>
                            <path d="M21,47.3036591 L20.8948675,47.9088387 C20.4056291,48.242436 19.2864238,47.5666877 19,47.3838507 C19.0368567,47.2505087 19.0834229,47.1219828 19.1390728,47 L21,47.3036591 Z" id="Path" fill="#000000" opacity="0.1"></path>
                            <path d="M18.3498671,40 L18,41.2806927 C18,41.2806927 18.7008415,45.261679 18.4240478,46.0509309 C18.1472542,46.8401827 18.1660762,47.3484609 18.1660762,47.3484609 C18.1660762,47.3484609 20.195527,48.3660697 20.8786537,47.8577915 C21.5617803,47.3495133 21.5606732,45.1964342 21.5606732,45.1964342 L23,43.7936706 L21.1731621,41.2859544 L18.3498671,40 Z" id="Path" fill="#757A9B"></path>
                            <path d="M25.4446953,35 C25.4446953,35 27.1512415,40.2869585 21.5981941,39.0591814 L23.2050564,44.8973868 L20,50.4098554 C20,50.4098554 30.2663657,52.0134826 32,49.9337786 C32,49.9337786 31.1602709,43.6696097 31.4853273,41.564849 C31.8103837,39.4600882 30.4559819,36.1766615 29.724605,35.9641809 C28.993228,35.7517003 25.4446953,35 25.4446953,35 Z" id="Path" fill="#000000" opacity="0.1"></path>
                            <path d="M25.4446953,35 C25.4446953,35 27.1512415,40.2869585 21.5981941,39.0591814 L23.2050564,44.8973868 L20,50.4098554 C20,50.4098554 30.2663657,52.0134826 32,49.9337786 C32,49.9337786 31.1602709,43.6696097 31.4853273,41.564849 C31.8103837,39.4600882 30.4559819,36.1766615 29.724605,35.9641809 C28.993228,35.7517003 25.4446953,35 25.4446953,35 Z" id="Path" fill="#000000" opacity="0.1"></path>
                            <path d="M25.4446953,35 C25.4446953,35 27.1512415,40.2869585 21.5981941,39.0591814 L23.2050564,44.8973868 L20,50.4098554 C20,50.4098554 30.2663657,52.0134826 32,49.9337786 C32,49.9337786 31.1602709,43.6696097 31.4853273,41.564849 C31.8103837,39.4600882 30.4559819,36.1766615 29.724605,35.9641809 C28.993228,35.7517003 25.4446953,35 25.4446953,35 Z" id="Path" fill="#CBCDDA"></path>
                            <path d="M25.7585652,25.9209013 C25.4207817,26.0689222 24.6618948,26.263464 23.5629725,25.8098857 C23.5629725,25.8098857 25.2901721,28.9817617 25.4027666,29.5812463 C25.5153611,30.1807309 25.5153611,30.9208353 25.3644845,31.0265645 C25.2136078,31.1322937 24.7643558,32.2244763 24.7643558,32.2244763 L23,32.2974295 C23,32.2974295 24.125945,32.7203463 24.125945,33.5281174 C24.125945,34.3358885 26.603024,35.8541598 27.9170018,36.4536444 C29.2309796,37.0531289 34.5972334,38.8188066 34.5972334,38.8188066 L37,41 C37,41 36.0609619,38.7088482 32.8711597,36.6651028 C29.6813576,34.6213573 29.7185138,33.4054715 29.7185138,33.4054715 C29.7185138,33.4054715 29.1183851,29.1234388 28.3302236,27.9244697 C27.5420621,26.7255006 27.0916841,25 27.0916841,25 C27.0916841,25 26.4611549,25.8162294 26.0862152,25.8384326 C25.9725207,25.8467327 25.8614387,25.8746918 25.7585652,25.9209013 Z" id="Path" fill="#000000" opacity="0.1"></path>
                            <path d="M26,25.4751009 L25.9175932,25.9905787 L23.6288424,27 C23.4031045,26.6490207 23.1931042,26.279566 23,25.8936743 C23.9447351,26.4522207 24.5931982,26.2072678 24.8875082,26.0201884 C24.9769635,25.9607068 25.0738413,25.925082 25.1729889,25.9152086 C25.4211903,25.8936743 25.7969261,25.2907133 25.9637018,25 C25.9882276,25.2799462 26,25.4751009 26,25.4751009 Z" id="Path" fill="#000000" opacity="0.1"></path>
                            <path d="M25.7585652,25.9209013 C25.4207817,26.0689222 24.6618948,26.263464 23.5629725,25.8098857 C23.5629725,25.8098857 25.2901721,28.9817617 25.4027666,29.5812463 C25.5153611,30.1807309 25.5153611,30.9208353 25.3644845,31.0265645 C25.2136078,31.1322937 24.7643558,32.2244763 24.7643558,32.2244763 L23,32.2974295 C23,32.2974295 24.125945,32.7203463 24.125945,33.5281174 C24.125945,34.3358885 26.603024,35.8541598 27.9170018,36.4536444 C29.2309796,37.0531289 34.5972334,38.8188066 34.5972334,38.8188066 L37,41 C37,41 36.0609619,38.7088482 32.8711597,36.6651028 C29.6813576,34.6213573 29.7185138,33.4054715 29.7185138,33.4054715 C29.7185138,33.4054715 29.1183851,29.1234388 28.3302236,27.9244697 C27.5420621,26.7255006 27.0916841,25 27.0916841,25 C27.0916841,25 26.4611549,25.8162294 26.0862152,25.8384326 C25.9725207,25.8467327 25.8614387,25.8746918 25.7585652,25.9209013 Z" id="Path" fill="#757A9B"></path>
                            <path d="M17.0072028,35.684353 C17.1141957,35.3267636 17.05,34.9373885 17.094937,34.5650414 C17.2147691,33.5558446 18.1102998,32.7430383 18.0685726,31.7270303 C18.0527977,31.632086 18.0659132,31.5342786 18.1060201,31.44777 C18.1655175,31.3767009 18.2488336,31.3331124 18.3381947,31.3263031 C18.8046839,31.236622 19.3407184,31.2843005 19.6873754,30.9414688 C20.0340325,30.5986371 20.0254731,29.9776802 19.9730465,29.4554862 C19.9441584,29.1750907 19.9024312,28.8663151 19.7002146,28.6812768 C19.5622391,28.5742387 19.4017553,28.5044923 19.2326555,28.4780752 C18.6491875,28.3373098 18.0625096,28.2143293 17.472622,28.1091337 C16.8777414,28.0024245 16.2518328,27.9172842 15.6858403,28.138649 C15.1198477,28.3600139 14.6801068,28.8799375 14.2767435,29.3760219 C13.8969187,29.8425909 13.4914155,30.4033819 13.5984084,31.0107163 C13.6572545,31.3399256 13.8594711,31.6157802 13.9942822,31.9188798 C14.2813267,32.580363 14.2412664,33.3496929 13.8872893,33.9735999 C13.6069678,34.4549266 13.1383389,34.8352201 13.0249264,35.3869294 C12.9179335,35.9023122 13.1650871,36.4631032 13.5802196,36.7548508 C14.4308133,37.3496979 16.672315,36.811611 17.0072028,35.684353 Z" id="Path" fill="#000000" opacity="0.1"></path>
                            <path d="M17.0072028,35.684353 C17.1141957,35.3267636 17.05,34.9373885 17.094937,34.5650414 C17.2147691,33.5558446 18.1102998,32.7430383 18.0685726,31.7270303 C18.0527977,31.632086 18.0659132,31.5342786 18.1060201,31.44777 C18.1655175,31.3767009 18.2488336,31.3331124 18.3381947,31.3263031 C18.8046839,31.236622 19.3407184,31.2843005 19.6873754,30.9414688 C20.0340325,30.5986371 20.0254731,29.9776802 19.9730465,29.4554862 C19.9441584,29.1750907 19.9024312,28.8663151 19.7002146,28.6812768 C19.5622391,28.5742387 19.4017553,28.5044923 19.2326555,28.4780752 C18.6491875,28.3373098 18.0625096,28.2143293 17.472622,28.1091337 C16.8777414,28.0024245 16.2518328,27.9172842 15.6858403,28.138649 C15.1198477,28.3600139 14.6801068,28.8799375 14.2767435,29.3760219 C13.8969187,29.8425909 13.4914155,30.4033819 13.5984084,31.0107163 C13.6572545,31.3399256 13.8594711,31.6157802 13.9942822,31.9188798 C14.2813267,32.580363 14.2412664,33.3496929 13.8872893,33.9735999 C13.6069678,34.4549266 13.1383389,34.8352201 13.0249264,35.3869294 C12.9179335,35.9023122 13.1650871,36.4631032 13.5802196,36.7548508 C14.4308133,37.3496979 16.672315,36.811611 17.0072028,35.684353 Z" id="Path" fill="#000000" opacity="0.119745164"></path>
                            <path d="M20.7600586,36 C20.7600586,36 18.1028938,38.0326674 18.0137128,38.7081448 C17.9245318,39.3836222 18.2995219,40.9767097 18.2995219,40.9767097 L20.9502398,42.5874635 C20.9502398,42.5874635 24.0124798,43.7482454 21.7206349,45.6873852 C19.4287901,47.6265249 18.6218629,51.7843481 18.6218629,51.7843481 C18.6218629,51.7843481 19.7328651,53.0656768 21.809816,49.381727 C21.809816,49.381727 23.8158518,47.2690415 23.9050328,46.2298455 C23.9942138,45.1906495 24.3068847,42.0034353 22.9509033,40.0289629 C22.0558696,38.7258111 21.5691346,37.2626231 21.2188574,36.5050493 C21.1347006,36.2882322 20.9715392,36.1086228 20.7600586,36 L20.7600586,36 Z" id="Path" fill="#000000" opacity="0.1"></path>
                            <path d="M20.7600586,36 C20.7600586,36 18.1028938,38.0326674 18.0137128,38.7081448 C17.9245318,39.3836222 18.2995219,40.9767097 18.2995219,40.9767097 L20.9502398,42.5874635 C20.9502398,42.5874635 24.0124798,43.7482454 21.7206349,45.6873852 C19.4287901,47.6265249 18.6218629,51.7843481 18.6218629,51.7843481 C18.6218629,51.7843481 19.7328651,53.0656768 21.809816,49.381727 C21.809816,49.381727 23.8158518,47.2690415 23.9050328,46.2298455 C23.9942138,45.1906495 24.3068847,42.0034353 22.9509033,40.0289629 C22.0558696,38.7258111 21.5691346,37.2626231 21.2188574,36.5050493 C21.1347006,36.2882322 20.9715392,36.1086228 20.7600586,36 L20.7600586,36 Z" id="Path" fill="#757A9B"></path>
                            <path d="M22,46 C22,46 19.7492816,46.7285714 20.0231017,49" id="Path" fill="#000000" opacity="0.1"></path>
                            <polygon id="Path" fill="#000000" opacity="0.1" points="22.5294737 43 22 45 23 44.1080586"></polygon>
                            <polygon id="Path" fill="#000000" opacity="0.1" points="25 55 24 55.5951515 24.845679 56"></polygon>
                            <path d="M29,42.9979896 C29,42.9979896 30.9604396,43.0916731 31,42" id="Path" fill="#000000" opacity="0.1"></path>
                            <path d="M4.65170701,79 C4.65170701,79 5.25238741,79.8031725 4.37539403,81.0107239 C3.49840064,82.2182752 2.77539987,83.2448615 3.06481861,84 C3.06481861,84 4.38740763,81.7502234 5.46754021,81.7189455 C6.54767278,81.6876676 5.83668562,80.3538874 4.65170701,79 Z" id="Path" fill="#00839B"></path>
                            <path d="M4.63432976,79 C4.68729814,79.0774373 4.72929894,79.1619794 4.75911305,79.2511721 C5.8214274,80.5137307 6.38681715,81.691449 5.36536105,81.7204733 C4.41457867,81.7539629 3.27606922,83.4675151 3,83.9017638 C3.00887705,83.9352152 3.01994422,83.9680329 3.03312831,84 C3.03312831,84 4.37040759,81.7517303 5.46253741,81.7204733 C6.55466724,81.6892163 5.83247016,80.3529806 4.63432976,79 Z" id="Path" fill="#000000" opacity="0.1"></path>
                            <path d="M5.06940831,81.2612427 C5.06940831,81.6693335 5.03771003,82 4.99945348,82 C4.96119693,82 4.93059169,81.6693335 4.93059169,81.2612427 C4.93059169,80.8531519 4.96884824,81.0450998 5.00710479,81.0450998 C5.04536134,81.0450998 5.06940831,80.8596039 5.06940831,81.2612427 Z" id="Path" fill="#FFD037"></path>
                            <path d="M6.76086594,81.0019067 C6.37083301,81.1246177 6.02999341,81.1986499 6.00188293,81.1672116 C5.97377245,81.1357732 6.26366179,81.0110339 6.65369473,80.8883229 C7.04372767,80.7656119 6.89087692,80.8548563 6.92074431,80.8883229 C6.9506117,80.9217895 7.15441269,80.8791956 6.76086594,81.0019067 Z" id="Path" fill="#FFD037"></path>
                            <path d="M1.34802596,79 C1.34802596,79 0.74724845,79.8031725 1.62438362,81.0107239 C2.50151878,82.2182752 3.22463644,83.2448615 2.93517091,84 C2.93517091,84 1.61127574,81.7502234 0.532060868,81.7189455 C-0.547154006,81.6876676 0.16285578,80.3538874 1.34802596,79 Z" id="Path" fill="#00839B"></path>
                            <path d="M1.3635579,79 C1.31052107,79.0774373 1.26846598,79.1619794 1.23861334,79.2511721 C0.174925974,80.5137307 -0.391194536,81.691449 0.631581775,81.7204733 C1.58359302,81.7483813 2.72578538,83.4675151 3,83.9017638 C2.9909781,83.9350399 2.98027563,83.9678282 2.96793458,84 C2.96793458,84 1.62782119,81.7539629 0.537596925,81.7204733 C-0.552627337,81.6869837 0.163868932,80.3529806 1.3635579,79 Z" id="Path" fill="#000000" opacity="0.1"></path>
                            <path d="M0.930591689,81.2612427 C0.930591689,81.6693335 0.962289973,82 1.00054652,82 C1.03880307,82 1.06940831,81.6693335 1.06940831,81.2612427 C1.06940831,80.8531519 1.03115176,81.0450998 0.992895212,81.0450998 C0.954638663,81.0450998 0.930591689,80.8596039 0.930591689,81.2612427 Z" id="Path" fill="#FFD037"></path>
                            <path d="M0.238084411,81.0019067 C0.628655415,81.1246177 0.969965211,81.1986499 0.998114473,81.1672116 C1.02626373,81.1357732 0.735974475,81.0110339 0.34540347,80.8883229 C-0.0451675336,80.7656119 0.107894076,80.8548563 0.0779854857,80.8883229 C0.0480768953,80.9217895 -0.152486593,80.8791956 0.238084411,81.0019067 Z" id="Path" fill="#FFD037"></path>
                            <path d="M1,84.8573962 C1,84.8573962 2.61210136,84.8088063 3.09909032,84.4686772 C3.58607927,84.1285481 5.57916552,83.7201864 5.69986322,84.2670809 C5.82056091,84.8139754 8.12221344,86.9850123 6.30230214,86.9994859 C4.48239083,87.0139595 2.06843697,86.7203526 1.58774529,86.4298472 C1.10705361,86.1393418 1,84.8573962 1,84.8573962 Z" id="Path" fill="#A8A8A8"></path>
                            <path d="M6.33512348,85.8223373 C4.51475667,85.8358361 2.10544766,85.5620034 1.62043644,85.2910633 C1.25090408,85.0837604 1.10393098,84.3422909 1.05459001,84 L1,84 C1,84 1.10498078,85.1946434 1.58789239,85.4665477 C2.070804,85.738452 4.48326244,86.0093921 6.30257944,85.9997501 C6.82748336,85.9997501 7.00910012,85.8242657 6.99965185,85.569717 C6.9261653,85.7201322 6.725652,85.8165521 6.33512348,85.8223373 Z" id="Path" fill="#000000" opacity="0.2"></path>
                            <path d="M113.519106,70.4949591 C113.741502,70.3742436 113.903718,70.2116894 113.984451,70.0286434 C114.045202,69.8430853 113.926131,69.6204155 113.658831,69.5526464 C113.359941,69.4768096 113.040395,69.614768 112.79861,69.7535333 C112.556825,69.8922985 112.278589,70.0512331 111.961474,70.0213824 C112.293646,69.822098 112.443219,69.5213859 112.355135,69.2299366 C112.342036,69.1704372 112.304162,69.1145514 112.245784,69.0685817 C112.080544,68.9507926 111.779224,69.0016194 111.581179,69.0943984 C110.949378,69.3888712 110.773203,69.9592608 110.769558,70.4715627 C110.705163,70.2868113 110.759838,70.0939921 110.757408,69.9068204 C110.754978,69.7196487 110.677218,69.5034332 110.436647,69.4050067 C110.287468,69.3517825 110.119936,69.3253622 109.950647,69.3283631 C109.666336,69.3211021 109.350436,69.3404647 109.156036,69.4784231 C108.913036,69.6494594 108.977431,69.9374779 109.187626,70.1238428 C109.397821,70.3102077 109.716151,70.4312239 110.010182,70.5611146 C110.245394,70.6542384 110.445978,70.7813618 110.597028,70.9330377 C110.614731,70.9544006 110.629375,70.9768197 110.640768,71 L112.420745,71 C112.81931,70.8651139 113.188743,70.6952441 113.519106,70.4949591 L113.519106,70.4949591 Z" id="Path" fill="#00839B"></path>
                            <path d="M99.7061854,72 C99.7061854,72 97.9127973,66.9853569 100.041887,63.2976558 C100.947531,61.7551902 101.220749,60.0125141 100.820511,58.3313415 C100.622673,57.5344536 100.336842,56.7540999 99.9665777,56" id="Path" stroke="#535461" stroke-width="2"></path>
                            <path d="M101,52.9514825 C101,53.4761905 100,55 100,55 C100,55 99,53.4725966 99,52.9514825 C99,52.4259932 99.4477153,52 100,52 C100.552285,52 101,52.4259932 101,52.9514825 Z" id="Path" fill="#00839B"></path>
                            <path d="M103.841974,57.6576106 C103.566717,58.1498535 102,59 102,59 C102,59 102.028564,56.9949375 102.302956,56.5046997 C102.477271,56.1770804 102.791007,55.9843617 103.122961,56.000996 C103.454915,56.0176303 103.753108,56.241013 103.90234,56.5848452 C104.051572,56.9286774 104.028476,57.3391211 103.841974,57.6576106 L103.841974,57.6576106 Z" id="Path" fill="#00839B"></path>
                            <path d="M103.420327,61.867989 C102.917377,62.1119053 101,61.9431115 101,61.9431115 C101,61.9431115 101.999156,60.3590466 102.502106,60.1142028 C102.828603,59.9477668 103.223063,59.9642189 103.53338,60.1572149 C103.843697,60.3502109 104.021389,60.6895985 103.997935,61.0445068 C103.974482,61.3994151 103.753548,61.7143956 103.420327,61.867989 L103.420327,61.867989 Z" id="Path" fill="#00839B"></path>
                            <path d="M101.590454,67.5813995 C101.095081,67.8727455 99,68 99,68 C99,68 99.770931,66.4436434 100.262097,66.1522975 C100.756154,65.8862702 101.425795,65.9772837 101.780969,66.3587329 C102.136142,66.7401822 102.050757,67.2766489 101.587299,67.5755391 L101.590454,67.5813995 Z" id="Path" fill="#00839B"></path>
                            <path d="M98.2394805,58.3729449 C98.550335,58.681184 100,59 100,59 C100,59 99.6453737,57.5335976 99.3322935,57.226114 C99.0213024,56.9183961 98.5242277,56.9256683 98.2220459,57.2423569 C97.9198642,57.5590456 97.9270056,58.065227 98.2379967,58.3729449 L98.2394805,58.3729449 Z" id="Path" fill="#00839B"></path>
                            <path d="M97.539505,63.8658219 C98.0505986,64.1132859 100,63.9426857 100,63.9426857 C100,63.9426857 98.9846664,62.3407313 98.4774891,62.0942047 C97.9695753,61.8660576 97.3642405,62.066067 97.1114293,62.5455662 C96.8586181,63.0250654 97.0500444,63.6101032 97.5434214,63.8658219 L97.539505,63.8658219 Z" id="Path" fill="#00839B"></path>
                            <path d="M96.4784622,69.5915032 C96.9596326,69.875 99,70 99,70 C99,70 98.2485551,68.4803919 97.7714798,68.1960781 C97.4620758,67.9936854 97.0381477,67.9437172 96.668636,68.0660865 C96.2991242,68.1884558 96.0440868,68.4632734 96.0051594,68.7810211 C95.966232,69.0987689 96.1497416,69.4078021 96.4825573,69.5849672 L96.4784622,69.5915032 Z" id="Path" fill="#00839B"></path>
                            <path d="M101,52.9514825 C101,53.4761905 100,55 100,55 C100,55 99,53.4725966 99,52.9514825 C99,52.4259932 99.4477153,52 100,52 C100.552285,52 101,52.4259932 101,52.9514825 Z" id="Path" fill="#00839B"></path>
                            <path d="M103.841974,57.6576106 C103.566717,58.1498535 102,59 102,59 C102,59 102.028564,56.9949375 102.302956,56.5046997 C102.477271,56.1770804 102.791007,55.9843617 103.122961,56.000996 C103.454915,56.0176303 103.753108,56.241013 103.90234,56.5848452 C104.051572,56.9286774 104.028476,57.3391211 103.841974,57.6576106 L103.841974,57.6576106 Z" id="Path" fill="#00839B"></path>
                            <path d="M103.420327,61.867989 C102.917377,62.1119053 101,61.9431115 101,61.9431115 C101,61.9431115 101.999156,60.3590466 102.502106,60.1142028 C102.828603,59.9477668 103.223063,59.9642189 103.53338,60.1572149 C103.843697,60.3502109 104.021389,60.6895985 103.997935,61.0445068 C103.974482,61.3994151 103.753548,61.7143956 103.420327,61.867989 L103.420327,61.867989 Z" id="Path" fill="#00839B"></path>
                            <path d="M101.590454,67.5813995 C101.095081,67.8727455 99,68 99,68 C99,68 99.770931,66.4436434 100.262097,66.1522975 C100.756154,65.8862702 101.425795,65.9772837 101.780969,66.3587329 C102.136142,66.7401822 102.050757,67.2766489 101.587299,67.5755391 L101.590454,67.5813995 Z" id="Path" fill="#00839B"></path>
                            <path d="M98.2394805,58.3729449 C98.550335,58.681184 100,59 100,59 C100,59 99.6453737,57.5335976 99.3322935,57.226114 C99.0213024,56.9183961 98.5242277,56.9256683 98.2220459,57.2423569 C97.9198642,57.5590456 97.9270056,58.065227 98.2379967,58.3729449 L98.2394805,58.3729449 Z" id="Path" fill="#00839B"></path>
                            <path d="M97.539505,63.8658219 C98.0505986,64.1132859 100,63.9426857 100,63.9426857 C100,63.9426857 98.9846664,62.3407313 98.4774891,62.0942047 C97.9695753,61.8660576 97.3642405,62.066067 97.1114293,62.5455662 C96.8586181,63.0250654 97.0500444,63.6101032 97.5434214,63.8658219 L97.539505,63.8658219 Z" id="Path" fill="#00839B"></path>
                            <path d="M96.4784622,69.5915032 C96.9596326,69.875 99,70 99,70 C99,70 98.2485551,68.4803919 97.7714798,68.1960781 C97.4620758,67.9936854 97.0381477,67.9437172 96.668636,68.0660865 C96.2991242,68.1884558 96.0440868,68.4632734 96.0051594,68.7810211 C95.966232,69.0987689 96.1497416,69.4078021 96.4825573,69.5849672 L96.4784622,69.5915032 Z" id="Path" fill="#00839B"></path>
                            <path d="M97,71.9798444 C97,71.9798444 98.7828729,71.5765877 99.2580278,71.0393076 C99.7331827,70.5020275 101.873464,69.5614907 102.111041,70.2327944 C102.348619,70.904098 105.320421,73.1884282 103.299971,73.5916848 C101.27952,73.9949414 98.5452955,74.128965 97.9503098,73.8597319 C97.3553242,73.5904988 97,71.9798444 97,71.9798444 Z" id="Path" fill="#A8A8A8"></path>
                            <path d="M103.300549,73.3529101 C101.279913,73.7494528 98.5454372,73.8812449 97.950397,73.6176606 C97.4981247,73.4158904 97.1834099,72.4513588 97.0593998,72 L97,72.0139956 C97,72.0139956 97.3563989,73.5989998 97.950397,73.862584 C98.5443951,74.1261682 101.285123,73.9955424 103.300549,73.5989998 C103.884126,73.4823696 104.050862,73.2152865 103.987294,72.8758927 C103.938315,73.0963237 103.735105,73.2677701 103.300549,73.3529101 Z" id="Path" fill="#000000" opacity="0.2"></path>
                            <rect id="Rectangle" fill="#EAEAF3" x="43" y="14" width="29" height="29" rx="14.5"></rect>
                            <rect id="Rectangle" fill="#00839B" opacity="0.1" x="47" y="19" width="15" height="15" rx="7.5"></rect>
                            <rect id="Rectangle" fill="#00839B" opacity="0.1" x="53" y="24" width="15" height="15" rx="7.5"></rect>
                        </g>
                    </g>
                </g>
            </g>
        </g>
    </g>
</svg>