<?xml version="1.0" encoding="UTF-8"?>
<svg width="43px" height="45px" viewBox="0 0 43 45" version="1.1" xmlns="http://www.w3.org/2000/svg" xmlns:xlink="http://www.w3.org/1999/xlink">
    <title>78E7C3CE-FC85-443B-AB51-FD79D7B8C03E</title>
    <g id="Web" stroke="none" stroke-width="1" fill="none" fill-rule="evenodd">
        <g id="Postpaid-Corporate" transform="translate(-586.000000, -380.000000)" fill-rule="nonzero">
            <g id="Group-4-Copy" transform="translate(564.000000, 339.000000)">
                <g id="file" transform="translate(22.000000, 41.000000)">
                    <g id="Group">
                        <polygon id="Path" fill="#EFEBDE" points="34.6195652 10.862069 23.9673913 0 0.380434783 0 0.380434783 45 34.6195652 45"></polygon>
                        <g transform="translate(6.847826, 10.086207)" fill="#D5D0BB" id="Path">
                            <path d="M1.14130435,7.75862069 L20.1630435,7.75862069 C20.5830435,7.75862069 20.923913,7.41181034 20.923913,6.98275862 C20.923913,6.5537069 20.5830435,6.20689655 20.1630435,6.20689655 L1.14130435,6.20689655 C0.721304348,6.20689655 0.380434783,6.5537069 0.380434783,6.98275862 C0.380434783,7.41181034 0.721304348,7.75862069 1.14130435,7.75862069 Z"></path>
                            <path d="M1.14130435,1.55172414 L8.75,1.55172414 C9.17,1.55172414 9.51086957,1.20491379 9.51086957,0.775862069 C9.51086957,0.346810345 9.17,0 8.75,0 L1.14130435,0 C0.721304348,0 0.380434783,0.346810345 0.380434783,0.775862069 C0.380434783,1.20491379 0.721304348,1.55172414 1.14130435,1.55172414 Z"></path>
                            <path d="M20.1630435,12.4137931 L1.14130435,12.4137931 C0.721304348,12.4137931 0.380434783,12.7606034 0.380434783,13.1896552 C0.380434783,13.6187069 0.721304348,13.9655172 1.14130435,13.9655172 L20.1630435,13.9655172 C20.5830435,13.9655172 20.923913,13.6187069 20.923913,13.1896552 C20.923913,12.7606034 20.5830435,12.4137931 20.1630435,12.4137931 Z"></path>
                            <path d="M20.1630435,18.6206897 L1.14130435,18.6206897 C0.721304348,18.6206897 0.380434783,18.9675 0.380434783,19.3965517 C0.380434783,19.8256034 0.721304348,20.1724138 1.14130435,20.1724138 L20.1630435,20.1724138 C20.5830435,20.1724138 20.923913,19.8256034 20.923913,19.3965517 C20.923913,18.9675 20.5830435,18.6206897 20.1630435,18.6206897 Z"></path>
                            <path d="M20.1630435,24.8275862 L1.14130435,24.8275862 C0.721304348,24.8275862 0.380434783,25.1743966 0.380434783,25.6034483 C0.380434783,26.0325 0.721304348,26.3793103 1.14130435,26.3793103 L20.1630435,26.3793103 C20.5830435,26.3793103 20.923913,26.0325 20.923913,25.6034483 C20.923913,25.1743966 20.5830435,24.8275862 20.1630435,24.8275862 Z"></path>
                        </g>
                        <polygon id="Path" fill="#D5D0BB" points="23.9673913 0 23.9673913 10.862069 34.6195652 10.862069"></polygon>
                    </g>
                    <g id="Group" transform="translate(25.000000, 28.000000)">
                        <rect id="Rectangle" fill="#B4C404" x="0.391304348" y="0" width="17.2173913" height="17"></rect>
                        <rect id="Rectangle" fill="#FFFFFF" x="8.2173913" y="1.22554545" width="1.56521739" height="12.3636364"></rect>
                        <polygon id="Path" fill="#FFFFFF" points="9 14.6818182 3.52173913 9.49913636 4.67686957 8.4065 9 12.4965455 13.3231304 8.4065 14.4782609 9.49913636"></polygon>
                    </g>
                </g>
            </g>
        </g>
    </g>
</svg>