<?xml version="1.0" encoding="UTF-8"?>
<svg width="45px" height="45px" viewBox="0 0 45 45" version="1.1" xmlns="http://www.w3.org/2000/svg" xmlns:xlink="http://www.w3.org/1999/xlink">
    <title>894E687F-0B09-4ECE-A4E1-CFD15D98D687</title>
    <g id="Web" stroke="none" stroke-width="1" fill="none" fill-rule="evenodd">
        <g id="Postpaid-Corporate" transform="translate(-1175.000000, -381.000000)" fill-rule="nonzero">
            <g id="Group-4-Copy-3" transform="translate(1136.000000, 339.000000)">
                <g id="project-management" transform="translate(39.000000, 42.000000)">
                    <path d="M19,42.6666667 C19,43.9552409 20.0742187,45 21.4,45 L24.6,45 C25.9253906,45 27,43.9552409 27,42.6666667 L27,38 L19,38 L19,42.6666667 Z" id="Path" fill="#EBEBEB"></path>
                    <path d="M15.0124611,29.3675537 C14.3409497,28.9449463 13.7076818,28.4659424 13.1205311,27.9367676 C12.6192409,29.819458 10.7246863,31.0133057 8.7618932,30.6837158 C6.7987252,30.354126 5.42120821,28.6113281 5.59180429,26.6729737 C5.76240046,24.7346192 7.42449435,23.2470703 9.41653254,23.25 C9.53388766,23.25 9.64674356,23.2738037 9.75884962,23.2836914 C9.03109772,21.6126709 8.65578621,19.8156739 8.65616113,18 L7.67870141,18 L7.14816611,20.4649658 C7.09530007,20.7106933 6.92020466,20.9143067 6.68174498,21.0073242 C6.4429104,21.100708 6.17258114,21.0710449 5.9611169,20.9285888 L3.8393507,19.5 L1.53574028,21.75 L2.99461859,23.8220214 C3.1404689,24.0289307 3.17083874,24.2929688 3.07522988,24.5258789 C2.97999603,24.7591552 2.77153129,24.9301758 2.52032372,24.9814453 L0,25.5 L0,28.5 L2.52332322,29.0181885 C2.77453078,29.0698242 2.98299553,29.2408448 3.07860438,29.4737549 C3.17383823,29.7066651 3.14346839,29.9710693 2.99761808,30.1776123 L1.53574028,32.25 L3.8393507,34.5 L5.9611169,33.074707 C6.17258114,32.932251 6.44328531,32.9022217 6.68211999,32.9956055 C6.92095458,33.088623 7.09604999,33.2926026 7.14891603,33.5383301 L7.67870141,36 L10.750182,36 L11.2799674,33.534668 C11.3328334,33.2885742 11.5079288,33.0849609 11.7467634,32.9919433 C11.9855981,32.8985596 12.2563022,32.9282227 12.4677665,33.0710449 L14.5895327,34.5 L17,32.1456299 C16.7472928,30.9960938 16.0307889,29.9945068 15.0124611,29.3675537 Z" id="Path" fill="#C9DFFF"></path>
                    <path d="M37,18.0000535 C36.9992383,11.2875598 32.2344903,5.51994206 25.6431352,4.25301821 C19.0517802,2.98609436 12.4885268,6.57571204 9.99963238,12.8096913 C7.51073788,19.0436707 9.79608532,26.1670791 15.4471744,29.7885977 C16.7421286,30.5914386 17.537709,32.0000178 17.5566967,33.5236685 L17.5566967,36.6666726 C17.5566967,37.9552435 18.6010146,39 19.8898928,39 L26.1117492,39 C27.4002476,39 28.4449453,37.9552435 28.4449453,36.6666726 L28.4449453,33.58823 C28.4646924,32.0285009 29.2762224,30.5861217 30.5992782,29.7597349 C34.5919906,27.1818335 37.002656,22.7529169 37,18.0000535 L37,18.0000535 Z" id="Path" fill="#006848"></path>
                    <path d="M41.3053171,9.77805303 L43.7217785,7.96577344 L40.9548006,4.27628907 L38.5383391,6.08856866 C38.0410862,6.46123245 37.3681998,6.49763564 36.8334183,6.18089016 C36.2986369,5.86414468 36.0074156,5.25654887 36.094857,4.64144714 L36.5215564,1.65225545 L31.9562117,1 L31.5295124,3.98881633 C31.4420709,4.60466859 30.992104,5.1068078 30.3897712,5.26105226 C29.7874385,5.41567219 29.15133,5.19199875 28.7782964,4.69436313 L26.9664195,2.27786532 L23.2773658,5.04488473 L25.0888675,7.46138254 C25.4615257,7.95901826 25.4979284,8.63153946 25.1811877,9.1663289 C24.8644469,9.70111833 24.2568601,9.99234403 23.6417677,9.90490129 L20.652621,9.47819562 L20,14.0436088 L22.9898972,14.4703145 C23.605365,14.5581326 24.1074967,15.0081063 24.2617389,15.6104481 C24.4159811,16.2127899 24.1923112,16.8489079 23.6946829,17.221947 L21.278972,19.0342266 L24.0459499,22.7233356 L26.4616608,20.9118066 C26.9589137,20.5387676 27.6321754,20.501989 28.1673322,20.8187345 C28.7021136,21.13548 28.9937102,21.7434511 28.9058935,22.3589281 L28.4754413,25.3473692 L33.040786,26 L33.4712381,23.0100578 C33.5590548,22.3945808 34.0090218,21.8928169 34.6113546,21.7385724 C35.2136874,21.5839525 35.8497958,21.8080012 36.2224541,22.3052615 L38.0350816,24.7210088 L41.7241353,21.9539893 L39.9111325,19.5382421 C39.5380989,19.0409817 39.501321,18.36771 39.8180617,17.8325452 C40.1348024,17.2977558 40.7427645,17.0061547 41.3582323,17.0943481 L44.347379,17.5214291 L45,12.9560159 L42.0108533,12.5289349 C41.3957608,12.4407415 40.8940045,11.9911431 40.7393869,11.3888013 C40.5851447,10.7868348 40.8084393,10.1510921 41.3053171,9.77805303 L41.3053171,9.77805303 Z M32.5003753,18.8796066 C29.5288669,18.8796066 27.1202864,16.47099 27.1202864,13.499437 C27.1202864,10.5282594 29.5288669,8.11926738 32.5003753,8.11926738 C35.4718837,8.11926738 37.8804641,10.5282594 37.8804641,13.499437 C37.8804641,16.47099 35.4718837,18.8796066 32.5003753,18.8796066 Z" id="Shape" fill="#B4C404"></path>
                    <polygon id="Path" fill="#9E9E9E" points="19 40 27 40 27 41 19 41"></polygon>
                    <g id="Group">
                        <polygon id="Path" fill="#FFAA00" points="21.3901124 33.794964 22.9104744 33.794964 22.9104744 36.0971223 21.3901124 36.0971223"></polygon>
                        <path d="M22.910476,32.2601918 L21.3901124,32.2601918 C21.38937,30.23119 20.149993,28.4123951 18.2732961,27.686226 C14.5321515,26.2095324 11.9331342,22.7323141 11.5537861,18.6952938 C11.1744379,14.6582734 13.0789734,10.7497752 16.4782593,8.58925362 L17.2848381,9.88758993 C14.3703161,11.7389838 12.7367434,15.0895534 13.0618991,18.5506595 C13.3866834,22.0113909 15.6145185,24.992506 18.8219033,26.2582435 C21.2858102,27.2096073 22.9123303,29.5971972 22.910476,32.2601918 L22.910476,32.2601918 Z" id="Path" fill="#FFAA00"></path>
                        <path d="M37.3539133,28.4232614 L41.1548183,28.4232614 C41.5746253,28.4232614 41.9149993,28.7664868 41.9149993,29.1906475 C41.9149993,29.6144335 41.5746253,29.9580336 41.1548183,29.9580336 L37.3539133,29.9580336 C36.9341063,29.9580336 36.5937323,29.6144335 36.5937323,29.1906475 C36.5937323,28.7664868 36.9341063,28.4232614 37.3539133,28.4232614 Z" id="Path" fill="#FFAA00"></path>
                        <path d="M35.8335514,33.0279526 C36.1022872,32.7023381 36.5814833,32.6581235 36.9040406,32.9294064 L40.2973876,35.7834982 C40.6199448,36.0547812 40.6637443,36.5385191 40.3950085,36.8641337 C40.1259015,37.1897482 39.6467053,37.2339628 39.3241481,36.9626799 L35.930801,34.1085881 C35.6082438,33.8373051 35.5648155,33.3535672 35.8335514,33.0279526 L35.8335514,33.0279526 Z" id="Path" fill="#FFAA00"></path>
                        <path d="M32.7928274,34.5623501 C33.2126344,34.5623501 33.5530084,34.9055755 33.5530084,35.3297362 L33.5530084,39.1666667 C33.5530084,39.5904527 33.2126344,39.9340528 32.7928274,39.9340528 C32.3730204,39.9340528 32.0326464,39.5904527 32.0326464,39.1666667 L32.0326464,35.3297362 C32.0326464,34.9055755 32.3730204,34.5623501 32.7928274,34.5623501 Z" id="Path" fill="#FFAA00"></path>
                        <path d="M0.65847714,12.9114208 L5.26484729,11.7498502 C5.67240521,11.6471823 6.08478858,11.8971073 6.18649253,12.3081535 C6.28819638,12.7191996 6.04061788,13.1354916 5.63305995,13.2381594 L1.02668981,14.3997303 C0.619131787,14.5023981 0.206748421,14.252473 0.105044566,13.8414269 C0.00334061538,13.4303807 0.250919118,13.0140887 0.65847714,12.9114208 Z" id="Path" fill="#006848"></path>
                        <path d="M1.6250353,4.63466724 C1.86890203,4.28994302 2.3436439,4.21050657 2.68513146,4.4566847 L6.76887726,7.40145381 C7.11073598,7.64763185 7.18979775,8.12687348 6.94593111,8.4715977 C6.70206448,8.81632192 6.22732252,8.89613314 5.88583496,8.64958034 L1.80208925,5.70481113 C1.46023053,5.45863309 1.38116867,4.97939146 1.6250353,4.63466724 Z" id="Path" fill="#006848"></path>
                        <path d="M8.43325792,0.0292266667 C8.84007353,-0.0756894005 9.25394162,0.171987434 9.35787262,0.582658897 L10.5360046,5.2345623 C10.6399356,5.64523376 10.3945843,6.06339933 9.98776867,6.1683154 C9.58095305,6.27323146 9.16708496,6.02517986 9.06315396,5.61488307 L7.88502194,0.962979568 C7.78109095,0.552308106 8.02644231,0.134142734 8.43325792,0.0292266667 Z" id="Path" fill="#006848"></path>
                    </g>
                </g>
            </g>
        </g>
    </g>
</svg>