<?xml version="1.0" encoding="UTF-8"?>
<svg width="54px" height="55px" viewBox="0 0 54 55" version="1.1" xmlns="http://www.w3.org/2000/svg" xmlns:xlink="http://www.w3.org/1999/xlink">
    <title>69A06F95-2CFD-4259-98C9-006DC014B6AF</title>
    <g id="Web" stroke="none" stroke-width="1" fill="none" fill-rule="evenodd">
        <g id="Postpaid-Corporate" transform="translate(-882.000000, -376.000000)" fill-rule="nonzero">
            <g id="Group-4-Copy-2" transform="translate(856.000000, 339.000000)">
                <g id="shopping" transform="translate(26.000000, 37.000000)">
                    <path d="M38.1877593,12 C37.7386821,12 37.3751037,11.6199429 37.3751037,11.1505115 L37.3751037,6.79460569 C37.3751037,3.98452582 35.1882383,1.69897682 32.5,1.69897682 C29.8121767,1.69897682 27.6248963,3.98495965 27.6248963,6.79460569 L27.6248963,11.1505115 C27.6248963,11.6199429 27.2613179,12 26.8126556,12 C26.3635783,12 26,11.6199429 26,11.1505115 L26,6.79460569 C26,3.04826632 28.9156822,0 32.5,0 C36.0843177,0 39,3.04826632 39,6.79460569 L39,11.1505115 C39,11.6199429 38.6364216,12 38.1877593,12 L38.1877593,12 Z" id="Path" fill="#D2D2D7"></path>
                    <path d="M48,9.14812923 L48,45.8531403 C48,46.4870871 47.4858518,47 46.85175,47 L16.1495215,47 C15.5141481,47 15,46.4870871 15,45.8531403 L15,9.14812923 C15,8.51375922 15.5141481,8 16.1495215,8 L46.85175,8 C47.4858518,8 48,8.51375922 48,9.14812923 Z" id="Path" fill="#B4C404"></path>
                    <path d="M47,9.14812923 L47,45.8531403 C47,46.4870871 46.4826556,47 45.8446118,47 L38,47 L38,8 L45.8446118,8 C46.4826556,8 47,8.51375922 47,9.14812923 L47,9.14812923 Z" id="Path" fill="#006848"></path>
                    <path d="M43,18.0441208 C42.447906,18.0441208 42,18.4152633 42,18.8723144 L42,47 L44,47 L44,18.8723144 C44,18.4152633 43.552094,18.0441208 43,18.0441208 Z M42,8 L42,15.5582708 C42,16.015745 42.447906,16.3868875 43,16.3868875 C43.552094,16.3868875 44,16.015745 44,15.5582708 L44,8 L42,8 Z" id="Shape" fill="#FFFFFF"></path>
                    <path d="M33.1873703,13 C32.7387223,13 32.3751556,12.6392207 32.3751556,12.1936006 L32.3751556,6.44996039 C32.3751556,3.78282906 30.187945,1.61279899 27.5002074,1.61279899 C24.812055,1.61279899 22.6252594,3.78282906 22.6252594,6.44996039 L22.6252594,12.1936006 C22.6252594,12.6392207 22.2612777,13 21.8126296,13 C21.3639817,13 21,12.6392207 21,12.1936006 L21,6.44996039 C21,2.89364798 23.9160043,0 27.5002074,0 C31.0839957,0 34,2.89364798 34,6.44996039 L34,12.1936006 C34,12.6388088 33.6360182,13 33.1873703,13 Z" id="Path" fill="#EBEBF0"></path>
                    <path d="M36.2151141,36.1100106 C35.3800067,36.5430956 34.8997052,37.4045906 34.8997052,38.2983864 C34.8997052,38.6732451 34.9839248,39.053204 35.1619532,39.4097872 L35.9028348,40.8947718 C36.1421517,41.373758 35.8006873,41.9419962 35.273273,41.9419962 L32.4139785,41.9411462 L25.6526518,41.9390211 C24.586149,41.9390211 23.7460384,42.9849705 24.0816658,44.0615205 C24.2872114,44.7215609 24.8955099,45.203097 25.6088742,45.2039471 C22.4493913,45.2026721 22.6290874,45.2026721 22.6157457,45.2039471 C22.1975666,45.2115972 21.7881429,45.413477 21.4875376,45.7194841 C21.0364212,46.1793447 20.9175966,46.7866839 21.0522645,47.3238964 C21.2211204,47.994987 21.8031524,48.4654729 22.5823914,48.4654729 L24.0053679,48.4654729 C23.9941108,48.4654729 23.9828537,48.4654729 23.9724305,48.466323 C22.8938369,48.4879984 22.1592092,49.5675237 22.4789932,50.5905224 C22.6832881,51.2509878 23.2890849,51.7295489 24.004951,51.7295489 L28.996,51.732949 C27.8277669,51.732949 27.4875533,52.8252244 27.4796317,52.8362746 C27.425014,53.0024535 27.3941614,53.1784077 27.3941614,53.364137 C27.3937445,54.2651579 28.1108612,54.9953249 28.9947493,54.9961749 L40.1905258,55 L40.2197108,55 C40.8004919,55 41.3508373,54.8656969 41.8423958,54.6272664 C43.1140273,54.010577 43.9941631,52.6909213 44,51.1608857 L43.9849906,42.53531 C43.9849906,42.3334303 43.9703981,42.1353757 43.9412131,41.9419962 L41.8057061,41.9419962 C40.8430187,41.9419962 39.9612152,41.3911834 39.5251082,40.516088 L37.5442817,36.5507458 C37.2970432,36.0551842 36.7016695,35.8571297 36.2151141,36.1100106 L36.2151141,36.1100106 Z" id="Path" fill="#F2BB88"></path>
                    <g id="Group" transform="translate(21.000000, 44.000000)" fill="#E3A76F">
                        <path d="M10.8166052,6.5367806 L1.50488276,6.5367806 C1.70869502,7.1979038 2.31306059,7.6769415 3.0272353,7.6769415 L8.00649231,7.68034496 L10.8166052,7.68034496 C11.1252351,7.68034496 11.3756329,7.42380873 11.3756329,7.10856278 C11.375217,6.79289143 11.1248191,6.5367806 10.8166052,6.5367806 Z" id="Path"></path>
                        <path d="M10.8166052,3.26690133 L0.0815248843,3.26690133 C0.249981889,3.93866022 0.830638718,4.40961476 1.60803669,4.40961476 L3.02765121,4.40961476 C3.01642072,4.40961476 3.00519022,4.40961476 2.99479167,4.41046568 L10.8166052,4.41046568 C11.1248191,4.41046568 11.375217,4.15435486 11.375217,3.8386835 C11.375217,3.52258663 11.1248191,3.26690133 10.8166052,3.26690133 Z" id="Path"></path>
                        <path d="M1.64131216,1.14484068 L4.62736904,1.14484068 C1.47535087,1.14356436 1.65462234,1.14356436 1.64131216,1.14484068 Z" id="Path"></path>
                        <path d="M10.759205,0.00127632673 L3.10376886,0.00127632673 C3.30882887,0.66197401 3.91527413,1.14398976 4.62695312,1.14484068 L10.758789,1.14484068 C11.067419,1.14484068 11.3178173,0.888304455 11.3178173,0.573058505 C11.3182328,0.25738704 11.067419,0.00127632673 10.759205,0.00127632673 L10.759205,0.00127632673 Z" id="Path"></path>
                        <path d="M22.9725478,5.62975709 C22.9222186,7.10856278 22.0566406,8.37635362 20.8225369,8.97706526 C20.3321397,9.21573335 19.7826786,9.34974471 19.2036856,9.34974471 L19.1745696,9.34974471 L6.40927008,9.34761757 C6.4254919,10.2333695 7.13425926,10.94597 8.00482853,10.9468209 L19.1745696,10.9506498 L19.2036856,10.9506498 C19.7826786,10.9506498 20.3321397,10.8166383 20.8225369,10.5779703 C22.0911639,9.96024134 22.9688042,8.63927138 22.9750434,7.10771197 L22.9725478,5.62975709 Z" id="Path"></path>
                    </g>
                    <path d="M46.1377884,55 L51.8547418,55 C53.0317494,55.0008217 54,54.2811705 54,53.4011399 L54,41.6054397 C54,40.7254091 53.0383898,40.0008232 51.8613822,40 L46.1444287,40 C44.9678361,39.9991782 44.0045658,40.7196519 44.0037357,41.5988601 L44,53.3953827 C43.9991705,54.2745909 44.9616109,55 46.1377884,55 Z" id="Path" fill="#D2D2D7"></path>
                    <path d="M48,55 L51.8863218,55 C53.0460029,55.0008217 54,54.2811705 54,53.4011398 L54,41.6054391 C54,40.7254085 53.0525455,40.0008225 51.8928645,40 L48,40 L48,55 Z" id="Path" fill="#00839B"></path>
                    <path d="M50,51 C50.5501122,51 51,51.4498878 51,52 C51,52.5501122 50.5501122,53 50,53 C49.4498878,53 49,52.5501122 49,52 C49,51.4498878 49.4498878,51 50,51 Z" id="Path" fill="#0956C6"></path>
                    <path d="M17.7849645,13.110008 C18.6204974,13.5435084 19.1008037,14.4045592 19.1008037,15.29876 C19.1008037,15.6736103 19.0161664,16.0535607 18.8385531,16.4101361 L18.097247,17.8950873 C17.8583447,18.3740628 18.1998125,18.9422883 18.7272321,18.9422883 L21.5861386,18.9414382 L28.3475338,18.9388883 C29.4140472,18.9388883 30.2545832,19.9852392 29.9185356,21.0613402 C29.7129879,21.7217908 29.1051002,22.2028912 28.3917286,22.2037413 C30.9195906,22.2033162 31.3682101,22.2024662 31.3844705,22.2037413 C31.8030707,22.2113912 32.2124984,22.4132664 32.5126899,22.7192667 C32.9658956,23.1816671 33.080969,23.7949427 32.9483845,24.3240681 C32.7795267,24.9951438 32.1974889,25.4656191 31.418242,25.4656191 L29.9948342,25.4656191 C30.0060914,25.4656191 30.0173486,25.4656191 30.0277719,25.4664692 C31.1059595,25.4877191 31.8410116,26.5667951 31.5212243,27.590621 C31.3173443,28.2506466 30.7115413,28.729622 29.9956681,28.729622 L25.0041516,28.7325971 C26.1582209,28.7325971 26.5121966,29.824848 26.5209523,29.836323 C26.5751535,30.0020732 26.6060064,30.1780233 26.6060064,30.3641736 C26.6068404,31.2647494 25.8897164,31.995325 25.0058194,31.996175 L13.8095128,32 L13.7803274,32 C13.1999573,32 12.6491895,31.8656999 12.157626,31.6272747 C10.8859816,31.0105991 10.006254,29.690548 10,28.1605466 L10.0150096,19.5351638 C10.0150096,19.3337136 10.0300191,19.1356635 10.0592045,18.9418633 L12.194316,18.9418633 C13.1574302,18.9418633 14.0388256,18.3914878 14.475354,17.516412 L16.4557836,13.5507335 C16.7030246,13.055183 17.2988212,12.8571329 17.7849645,13.110008 L17.7849645,13.110008 Z" id="Path" fill="#F2BB88"></path>
                    <path d="M22.5663717,28 L32,28 C31.7939318,28.578125 31.1816266,28.9973958 30.4580699,28.9973958 L25.4129794,29 L22.5659503,29 C22.2536874,29 22,28.7760417 22,28.5 C22,28.2239583 22.2536874,28 22.5663717,28 L22.5663717,28 Z" id="Path" fill="#E3A76F"></path>
                    <path d="M22.5939675,25 L34,25 C33.8210142,25.5870535 33.2040658,25.9992559 32.3780797,25.9992559 L30.8692961,25.9992559 C30.8812285,25.9992559 30.8931609,25.9992559 30.9042094,26 L22.5939675,26 C22.266048,26 22,25.7756696 22,25.5 C22,25.2232143 22.266048,25 22.5939675,25 L22.5939675,25 Z" id="Path" fill="#E3A76F"></path>
                    <path d="M31,23.0003973 L28,23.0003973 C30.5339927,22.999558 30.9837002,22.9991384 31,23.0003973 Z" id="Path" fill="#E3A76F"></path>
                    <path d="M22.6124867,22 L31,22 C30.7753304,22.578125 30.110436,22.9992559 29.3307003,23 L22.6124867,23 C22.2743429,23 22,22.7760416 22,22.5 C22,22.2243303 22.2743429,22 22.6124867,22 L22.6124867,22 Z" id="Path" fill="#E3A76F"></path>
                    <path d="M10.0024105,26 C10.0514224,27.6675462 10.8870364,29.0971456 12.0789917,29.7745262 C12.5530419,30.0436555 13.0833354,30.1947709 13.6425541,30.1947709 L13.6706757,30.1947709 L26,30.1923723 C25.9843322,31.1911729 25.2997715,31.9952026 24.4589349,31.9956824 L13.6706757,32 L13.6425541,32 C13.0833354,32 12.5530419,31.8488846 12.0789917,31.5797553 C10.854094,30.8836651 10.0060261,29.3936196 10,27.6665868 L10.0024105,26 Z" id="Path" fill="#E3A76F"></path>
                    <path d="M10,30.395016 C10.0012438,31.2742001 9.03801347,32 7.8627148,32 L2.1459991,32 C0.968625434,32 0,31.2807796 0,30.4003618 L0,18.6058064 C0,17.7253886 0.961985329,17.0008225 2.13852893,17 L7.8560747,17 C9.03261841,17 9.99584878,17.7192204 9.99667874,18.5992269 L10,30.395016 Z" id="Path" fill="#EBEBF0"></path>
                    <path d="M5.68338287,30.5130356 L7,32 L2.19762008,32 C0.991925252,32 0,31.2807796 0,30.4003618 L0,18.6058064 C0,17.7253886 0.985125422,17.0008225 2.18997022,17 L7,17 L5.68338287,18.4853195 C5.16957074,19.065137 5.16957074,19.921704 5.68338287,20.5015215 L6.1160221,20.9888148 C6.62940927,21.5682211 6.62940927,22.4247882 6.1160221,23.0046057 L5.68338287,23.491899 C5.16957074,24.0717165 5.16957074,24.92705 5.68338287,25.5068673 L6.1160221,25.9941607 C6.62940927,26.5748005 6.62940927,27.430134 6.1160221,28.0099515 L5.68338287,28.4984785 C5.16957074,29.0778847 5.16957074,29.9336293 5.68338287,30.5130356 L5.68338287,30.5130356 Z" id="Path" fill="#D87900"></path>
                </g>
            </g>
        </g>
    </g>
</svg>