<?xml version="1.0" encoding="UTF-8"?>
<svg width="26px" height="24px" viewBox="0 0 26 24" version="1.1" xmlns="http://www.w3.org/2000/svg" xmlns:xlink="http://www.w3.org/1999/xlink">
    <title>1FD67A0F-DEC5-4D0F-9BB7-23B67746ED5F</title>
    <g id="Web" stroke="none" stroke-width="1" fill="none" fill-rule="evenodd">
        <g id="Dashboard-Main-(No-wallet)" transform="translate(-15.000000, -468.000000)">
            <g id="Group-44" transform="translate(0.000000, 24.000000)">
                <g id="Group-43" transform="translate(0.000000, 56.000000)">
                    <g id="Group-42" transform="translate(0.000000, 99.000000)">
                        <g id="Group-41" transform="translate(15.500000, 0.000000)">
                            <g id="Group-40" transform="translate(0.000000, 61.000000)">
                                <g id="Group-36" transform="translate(0.000000, 35.000000)">
                                    <g id="Group-31" transform="translate(0.500000, 191.000000)">
                                        <g id="Postpaid-Plans" transform="translate(0.000000, 2.000000)">
                                            <rect id="Rectangle" x="0" y="0" width="24" height="24"></rect>
                                            <g id="Group-4" transform="translate(5.040000, 4.280000)" stroke="#627382" stroke-width="0.7">
                                                <g id="Group-3" transform="translate(4.320000, 0.000000)">
                                                    <rect id="Rectangle-Copy" x="0" y="0.64" width="5.28" height="3" rx="1"></rect>
                                                </g>
                                                <path d="M12.5121131,12.4 L1,12.4 C0.44771525,12.4 0,11.9522847 0,11.4 L0,3.92 C0,3.36771525 0.44771525,2.92 1,2.92 L12.92,2.92 C13.4722847,2.92 13.92,3.36771525 13.92,3.92 L13.92,9.72" id="Path" fill="#FFFFFF" stroke-linecap="round"></path>
                                            </g>
                                        </g>
                                    </g>
                                </g>
                            </g>
                        </g>
                    </g>
                </g>
            </g>
        </g>
    </g>
</svg>