<?xml version="1.0" encoding="UTF-8"?>
<svg width="49px" height="50px" viewBox="0 0 49 50" version="1.1" xmlns="http://www.w3.org/2000/svg" xmlns:xlink="http://www.w3.org/1999/xlink">
    <title>1053189A-9B86-436D-91C2-7F7D5F9ACA5E</title>
    <g id="Web" stroke="none" stroke-width="1" fill="none" fill-rule="evenodd">
        <g id="Postpaid-Corporate" transform="translate(-305.000000, -384.000000)" fill-rule="nonzero">
            <g id="Group-4" transform="translate(280.000000, 340.000000)">
                <g id="debit-card" transform="translate(25.000000, 44.000000)">
                    <path d="M45.966622,13.9835982 L37,5 L37,41 L49,41 L49,21.2778101 C49,18.5393643 47.9079577,15.9140909 45.966622,13.9835982 Z" id="Path" fill="#FFB782"></path>
                    <path d="M7.75793778,34.789741 L1.22176195,17.0871603 C0.56574047,15.3101042 1.41439321,13.3139274 3.11865733,12.6291751 L33.969382,0.231362627 C35.6726973,-0.453059758 37.5860406,0.432333294 38.2420622,2.21037938 L44.778238,19.91296 C45.4342596,21.6900161 44.5856068,23.686193 42.8813426,24.3709452 L12.0315669,36.7687577 C10.3273027,37.4531801 8.4149082,36.5667971 7.75793778,34.789741 Z" id="Path" fill="#006848"></path>
                    <polygon id="Path" fill="#7A4930" points="40.5013027 9 3 23.5235261 5.4970939 30 43 15.4832021"></polygon>
                    <path d="M0,22.6666242 L0,4.33337586 C0,2.49255635 1.49256109,1 3.33338647,1 L36.6666135,1 C38.5074389,1 40,2.49255635 40,4.33337586 L40,22.6666242 C40,24.5074436 38.5074389,26 36.6666135,26 L3.33338647,26 C1.49256109,26 0,24.5074436 0,22.6666242 Z" id="Path" fill="#4398D1"></path>
                    <path d="M37.6535529,1 L34.0980329,1 L9,26 L37.6535529,26 C39.5015909,26 41,24.5074436 41,22.6666242 L41,4.33337586 C41,2.49255635 39.5015909,1 37.6535529,1 Z" id="Path" fill="#3E8CC7"></path>
                    <polygon id="Path" fill="#5EB3D1" points="4 14 7 14 7 16 4 16"></polygon>
                    <polygon id="Path" fill="#5EB3D1" points="4 19 7 19 7 21 4 21"></polygon>
                    <polygon id="Path" fill="#5EB3D1" points="19 19 22 19 22 21 19 21"></polygon>
                    <polygon id="Path" fill="#5EB3D1" points="9 14 12 14 12 16 9 16"></polygon>
                    <polygon id="Path" fill="#5EB3D1" points="14 14 17 14 17 16 14 16"></polygon>
                    <polygon id="Path" fill="#5EB3D1" points="19 14 22 14 22 16 19 16"></polygon>
                    <polygon id="Path" fill="#5EB3D1" points="35 4 37 4 37 6 35 6"></polygon>
                    <polygon id="Path" fill="#5EB3D1" points="31 4 33 4 33 6 31 6"></polygon>
                    <polygon id="Path" fill="#5EB3D1" points="28 4 30 4 30 6 28 6"></polygon>
                    <polygon id="Path" fill="#5EB3D1" points="24 4 26 4 26 6 24 6"></polygon>
                    <polygon id="Path" fill="#88B337" points="34 41 49 41 49 50 34 50"></polygon>
                    <path d="M31.3395143,16.0941149 C29.8854405,14.6315497 27.5324131,14.6358553 26.0835886,16.1037196 C24.6826646,17.522898 24.634108,19.8031883 25.9730239,21.2823133 L32.9983133,29.0190713 C30.8867567,32.7496724 30.9769801,37.3499965 33.2322382,40.9934928 L33.8556002,42 L45,42 L45,29.8844887 L31.3395143,16.0941149 Z" id="Path" fill="#FFB782"></path>
                    <polygon id="Path" fill="#6B962A" points="36 43 38 43 38 45 36 45"></polygon>
                    <path d="M4,9.59993305 L4,5.40006704 C4,4.62653083 4.6265608,4 5.40013393,4 L9.60020093,4 C10.3737741,4 11,4.62653083 11,5.40006704 L11,9.59993305 C11,10.3734692 10.3737741,11 9.60020093,11 L5.40013393,11 C4.6265608,11 4,10.3734692 4,9.59993305 Z" id="Path" fill="#FDB62F"></path>
                    <polygon id="Path" fill="#FD7B2F" points="4 6 6 6 6 8 4 8"></polygon>
                    <polygon id="Path" fill="#FD7B2F" points="8 6 10 6 10 8 8 8"></polygon>
                    <path d="M43.1651373,29 C42.9439775,29 42.7311271,28.9121167 42.574845,28.755205 L39.2344356,25.4150009 C38.9138816,25.083601 38.9231498,24.5550229 39.2555289,24.234169 C39.5795985,23.9219437 40.0922292,23.9219437 40.41534,24.234169 L43.7557493,27.5743732 C44.0814169,27.9009795 44.0814169,28.4295575 43.7557493,28.755205 C43.5985086,28.9121167 43.3866169,29 43.1651373,29 Z" id="Path" fill="#F2A46F"></path>
                </g>
            </g>
        </g>
    </g>
</svg>