<?xml version="1.0" encoding="UTF-8"?>
<svg width="19px" height="21px" viewBox="0 0 19 21" version="1.1"
  xmlns="http://www.w3.org/2000/svg"
  xmlns:xlink="http://www.w3.org/1999/xlink">
  <title>4545A52B-4CF8-4284-925D-389C492E4A07</title>
  <g id="Web" stroke="none" stroke-width="1" fill="none" fill-rule="evenodd">
    <g id="Dashboard-Main-(No-wallet)" transform="translate(-1338.000000, -24.000000)" fill="#FFFFFF" fill-rule="nonzero">
      <g id="Header-menu" transform="translate(241.000000, -1.000000)">
        <g id="077-power" transform="translate(1097.000000, 25.000000)">
          <path d="M9.5,0 C9.22400862,0 9,0.192013179 9,0.428584343 L9,11.5714157 C9,11.8079868 9.22400862,12 9.5,12 C9.77599138,12 10,11.8079868 10,11.5714157 L10,0.428584343 C10,0.192013179 9.77599138,0 9.5,0 Z" id="Path"></path>
          <path d="M13.3,3.03671648 C13.0711094,2.93941451 12.8051094,3.04207332 12.7046808,3.26706059 C12.6042522,3.49292672 12.7092188,3.75633258 12.9381094,3.85451341 C16.0712857,5.20623661 18.0952522,8.25603619 18.0952522,11.6254884 C18.0952522,16.3020096 14.2391429,20.1071655 9.5,20.1071655 C4.76085714,20.1071655 0.904747768,16.3020515 0.904747768,11.6255303 C0.904747768,8.25607804 2.92871429,5.20623661 6.06189063,3.85455526 C6.29078125,3.75633258 6.39574777,3.49296857 6.2953192,3.26710244 C6.19578125,3.04211517 5.92978125,2.93945636 5.7,3.03675833 C2.23746205,4.53039594 0,7.90072705 0,11.6255303 C0,16.7948807 4.26142857,21 9.5,21 C14.7385714,21 19,16.7948807 19,11.6255303 C19,7.90072705 16.7625379,4.53039594 13.3,3.03671648 Z" id="Path"></path>
        </g>
      </g>
    </g>
  </g>
</svg>