<?xml version="1.0" encoding="UTF-8"?>
<svg width="26px" height="24px" viewBox="0 0 26 24" version="1.1" xmlns="http://www.w3.org/2000/svg" xmlns:xlink="http://www.w3.org/1999/xlink">
    <title>C864B8E2-6B7C-4A86-8F3C-2E92912F05B6</title>
    <g id="Web" stroke="none" stroke-width="1" fill="none" fill-rule="evenodd">
        <g id="Dashboard-Main-(No-wallet)" transform="translate(-15.000000, -436.000000)">
            <g id="Group-44" transform="translate(0.000000, 24.000000)">
                <g id="Group-43" transform="translate(0.000000, 56.000000)">
                    <g id="Group-42" transform="translate(0.000000, 99.000000)">
                        <g id="Group-41" transform="translate(15.500000, 0.000000)">
                            <g id="Group-40" transform="translate(0.000000, 61.000000)">
                                <g id="Group-36" transform="translate(0.000000, 35.000000)">
                                    <g id="Group-13" transform="translate(0.000000, 160.000000)">
                                        <g id="To-do-Copy-3" transform="translate(0.500000, 1.000000)">
                                            <rect id="Rectangle" x="0" y="0" width="24" height="24"></rect>
                                            <g id="Prepaid" transform="translate(5.160000, 5.520000)" stroke="#627382" stroke-linecap="round" stroke-linejoin="round" stroke-width="0.7">
                                                <path d="M3.6,2.39378526 L7.23454532,2.39378526 M3.6,6.9451955 L7.23454532,6.9451955 M3.6,4.21389421 L6.32590899,4.21389421 M3.6,8.76621474 L6.32590899,8.76621474 M9.05227231,2.39378526 L9.96,2.39378526 M9.05227231,6.9451955 L9.96,6.9451955 M9.05227231,4.21389421 L9.96,4.21389421 M9.05227231,8.76621474 L9.96,8.76621474" id="Shape"></path>
                                                <path d="M1.374156,0.11471463 L1.374156,12.9572468 L2.737368,12.0427418 L4.11996,12.96 L5.482716,12.0427418 L6.850716,12.9572468 L8.2137,12.0427418 L9.581244,12.9572468 L10.944912,12.0427418 L12.312,12.9572468 L12.312,0.11471463 M0,0.11471463 L13.68,0.11471463" id="Shape"></path>
                                            </g>
                                        </g>
                                    </g>
                                </g>
                            </g>
                        </g>
                    </g>
                </g>
            </g>
        </g>
    </g>
</svg>