<?xml version="1.0" encoding="UTF-8"?>
<svg width="17px" height="19px" viewBox="0 0 17 19" version="1.1" xmlns="http://www.w3.org/2000/svg" xmlns:xlink="http://www.w3.org/1999/xlink">
    <title>8F322425-DC0F-48A2-AF6C-0C7C94FADED7</title>
    <g id="Web" stroke="none" stroke-width="1" fill="none" fill-rule="evenodd">
        <g id="Dashboard-Main-(No-wallet)" transform="translate(-596.000000, -193.000000)">
            <g id="Group-5" transform="translate(280.000000, 164.000000)">
                <g id="noun_Refresh_237752" transform="translate(316.000000, 29.000000)">
                    <path d="M8.5,4.38461538 C5.14857143,4.38461538 2.42857143,7.11282051 2.42857143,10.474359 C2.42857143,13.8358974 5.14857143,16.5641026 8.5,16.5641026 C11.8514286,16.5641026 14.5714286,13.8358974 14.5714286,10.474359 C14.5714286,9.37820513 14.28,8.33076923 13.77,7.42948718 L8.5,10.474359 L8.5,4.38461538 Z" id="Path"></path>
                    <path d="M15.8585714,6.21153846 L13.7457143,7.42948718 C14.28,8.33076923 14.5714286,9.37820513 14.5714286,10.474359 C14.5714286,13.8358974 11.8514286,16.5641026 8.5,16.5641026 C5.14857143,16.5641026 2.42857143,13.8358974 2.42857143,10.474359 C2.42857143,7.23461538 4.95428571,4.57948718 8.13571429,4.38461538 C8.13571429,4.62820513 8.13571429,4.87179487 8.13571429,5.11538462 L8.13571429,5.77307692 C8.13571429,6.30897436 8.52428571,6.52820513 8.98571429,6.26025641 L10.2971429,5.50512821 C10.7585714,5.23717949 11.5114286,4.79871795 11.9728571,4.53076923 L13.2842857,3.77564103 C13.7457143,3.50769231 13.7457143,3.06923077 13.2842857,2.80128205 L11.9728571,2.04615385 C11.5114286,1.77820513 10.7585714,1.33974359 10.2971429,1.07179487 L8.98571429,0.341025641 C8.52428571,0.0730769231 8.13571429,0.267948718 8.13571429,0.779487179 C8.13571429,1.12051282 8.13571429,1.55897436 8.13571429,1.94871795 C3.61857143,2.14358974 0,5.89487179 0,10.474359 C0,15.175641 3.81285714,19 8.5,19 C13.1871429,19 17,15.175641 17,10.474359 C17,8.91538462 16.5871429,7.47820513 15.8585714,6.21153846 Z" id="Path" fill="#B4C404"></path>
                </g>
            </g>
        </g>
    </g>
</svg>