<?xml version="1.0" encoding="UTF-8"?>
<svg width="27px" height="24px" viewBox="0 0 27 24" version="1.1" xmlns="http://www.w3.org/2000/svg" xmlns:xlink="http://www.w3.org/1999/xlink">
    <title>017C6FF2-C651-4320-BE8B-C2ECAFB8001D</title>
    <g id="Web" stroke="none" stroke-width="1" fill="none" fill-rule="evenodd">
        <g id="Dashboard-Main-(No-wallet)" transform="translate(-15.000000, -500.000000)">
            <g id="Group-44" transform="translate(0.000000, 24.000000)">
                <g id="Group-43" transform="translate(0.000000, 56.000000)">
                    <g id="Group-42" transform="translate(0.000000, 99.000000)">
                        <g id="Group-41" transform="translate(15.500000, 0.000000)">
                            <g id="Group-40" transform="translate(0.000000, 61.000000)">
                                <g id="Group-36" transform="translate(0.000000, 35.000000)">
                                    <g id="Group-15" transform="translate(0.500000, 224.000000)">
                                        <g id="Roaming-Copy" transform="translate(0.500000, 1.000000)">
                                            <rect id="Rectangle" x="0" y="0" width="24" height="24"></rect>
                                            <g id="Roaming" transform="translate(5.000000, 4.000000)" stroke="#627382" stroke-linecap="round" stroke-linejoin="round" stroke-width="0.7">
                                                <path d="M12.6713621,11.1927273 C9.77261274,14.1208406 5.07281141,14.1208406 2.17406203,11.1927273 C-0.724687344,8.26461394 -0.724687344,3.51720424 2.17406203,0.589090909 M1.59087869,0 L3.68503704,2.1153719 M13.2545455,11.7818182 L11.1603871,9.66644628 M4.24171205,16.0661157 L10.6037121,16.0661157 M7.42271207,13.3884298 L7.42271207,16.0661157" id="Shape"></path>
                                                <ellipse id="Oval" cx="7.36363636" cy="5.96454545" rx="5.30181818" ry="5.37545455"></ellipse>
                                            </g>
                                        </g>
                                    </g>
                                </g>
                            </g>
                        </g>
                    </g>
                </g>
            </g>
        </g>
    </g>
</svg>