<?xml version="1.0" encoding="UTF-8"?>
<svg width="28px" height="28px" viewBox="0 0 28 28" version="1.1" xmlns="http://www.w3.org/2000/svg" xmlns:xlink="http://www.w3.org/1999/xlink">
    <title>3DE0226D-54A6-4228-8EB6-ABD70A32FFFB</title>
    <g id="Web" stroke="none" stroke-width="1" fill="none" fill-rule="evenodd">
        <g id="Buy-with-PIN/Self" transform="translate(-1204.000000, -21.000000)">
            <g id="Header-menu-Copy" transform="translate(240.000000, -1.000000)">
                <g id="Group-5" transform="translate(964.000000, 22.000000)">
                    <rect id="Rectangle" x="0" y="0" width="28" height="28"></rect>
                    <g id="Group-4" transform="translate(4.620000, 4.340000)" fill-rule="nonzero" stroke="#FFFFFF" stroke-linejoin="round">
                        <path d="M11.9435873,17.0425941 C11.9692437,16.8633221 12.0077285,16.594414 12.0590414,16.23587 C12.6428831,15.99612 13.1788689,15.67006 13.6765701,15.29605 L16.0597928,16.25505 C16.2799298,16.34136 16.5287804,16.25505 16.6436345,16.04407 L18.5578696,12.72593 C18.6727237,12.51495 18.6248678,12.25602 18.4430155,12.11217 L16.4234974,10.52982 C16.4617821,10.22294 16.4904957,9.91606 16.4904957,9.59 C16.4904957,9.26394 16.4617821,8.95706 16.4234974,8.65018 L18.4430155,7.06783 C18.6248678,6.92398 18.6727237,6.66505 18.5578696,6.45407 L16.6436345,3.13593 C16.5287804,2.92495 16.2703586,2.84823 16.0597928,2.92495 L13.6765701,3.88395 C13.1788689,3.50035 12.6428831,3.18388 12.0590414,2.94413 L11.6953367,0.40278 C11.6666232,0.17262 11.4656285,0 11.2263491,0 L7.39787893,0 C7.15859954,0 6.95760486,0.17262 6.92889133,0.40278 L6.56518666,2.94413 C5.98134495,3.18388 5.44535913,3.50994 4.947658,3.88395 L2.5644353,2.92495 C2.34429826,2.83864 2.0954477,2.92495 1.9805936,3.13593 L0.0663584949,6.45407 C-0.0580667866,6.66505 -0.000639733608,6.92398 0.181212601,7.06783 L2.20073063,8.65018 C2.16244593,8.95706 2.1337324,9.27353 2.1337324,9.59 C2.1337324,9.90647 2.16244593,10.22294 2.20073063,10.52982 L0.181212601,12.11217 C-0.000639733608,12.25602 -0.0484956111,12.51495 0.0663584949,12.72593 L1.9805936,16.04407 C2.0954477,16.25505 2.35386944,16.33177 2.5644353,16.25505 L4.947658,15.29605 C5.44535913,15.67965 5.98134495,15.99612 6.56518666,16.23587 L6.92889133,18.77722 C6.95760486,19.00738 7.15859954,19.18 7.39787893,19.18 C8.34104385,19.18 9.95506829,19.18 11.6953367,19.18 L11.9435873,17.0425941 Z M9.31211403,12.9465 C7.46487716,12.9465 5.9622026,11.44087 5.9622026,9.59 C5.9622026,7.73913 7.46487716,6.2335 9.31211403,6.2335 C11.1593509,6.2335 12.6620255,7.73913 12.6620255,9.59 C12.6620255,11.44087 11.1593509,12.9465 9.31211403,12.9465 Z" id="Shape"></path>
                    </g>
                </g>
            </g>
        </g>
    </g>
</svg>