<?xml version="1.0" encoding="UTF-8"?>
<svg width="69px" height="70px" viewBox="0 0 69 70" version="1.1" xmlns="http://www.w3.org/2000/svg" xmlns:xlink="http://www.w3.org/1999/xlink">
    <title>C8A98F94-61CC-453D-A932-3F5E9C67C276</title>
    <g id="Web" stroke="none" stroke-width="1" fill="none" fill-rule="evenodd">
        <g id="Roaming" transform="translate(-1069.000000, -380.000000)" fill-rule="nonzero">
            <g id="Group-4-Copy-2" transform="translate(1042.000000, 339.000000)">
                <g id="shopping" transform="translate(27.000000, 41.000000)">
                    <path d="M48.9378391,15 C48.3505842,15 47.8751357,14.5249286 47.8751357,13.9381394 L47.8751357,8.49325711 C47.8751357,4.98065728 45.0153886,2.12372103 41.5,2.12372103 C37.9851541,2.12372103 35.1248643,4.98119956 35.1248643,8.49325711 L35.1248643,13.9381394 C35.1248643,14.5249286 34.6494158,15 34.0627035,15 C33.4754486,15 33,14.5249286 33,13.9381394 L33,8.49325711 C33,3.81033291 36.8128152,0 41.5,0 C46.1871846,0 50,3.81033291 50,8.49325711 L50,13.9381394 C50,14.5249286 49.5245513,15 48.9378391,15 L48.9378391,15 Z" id="Path" fill="#D2D2D7"></path>
                    <path d="M61,11.4719606 L61,58.529667 C61,59.3424194 60.3456296,60 59.5385909,60 L20.4630274,60 C19.6543703,60 19,59.3424194 19,58.529667 L19,11.4719606 C19,10.6586657 19.6543703,10 20.4630274,10 L59.5385909,10 C60.3456296,10 61,10.6586657 61,11.4719606 Z" id="Path" fill="#B4C404"></path>
                    <path d="M60,11.4719606 L60,58.529667 C60,59.3424194 59.3102075,60 58.4594824,60 L48,60 L48,10 L58.4594824,10 C59.3102075,10 60,10.6586657 60,11.4719606 L60,11.4719606 Z" id="Path" fill="#006848"></path>
                    <path d="M54.5,22.8770779 C53.671859,22.8770779 53,23.3529016 53,23.9388646 L53,60 L56,60 L56,23.9388646 C56,23.3529016 55.328141,22.8770779 54.5,22.8770779 Z M53,10 L53,19.6900907 C53,20.2765962 53.671859,20.7524199 54.5,20.7524199 C55.328141,20.7524199 56,20.2765962 56,19.6900907 L56,10 L53,10 Z" id="Shape" fill="#FFFFFF"></path>
                    <path d="M42.9373303,17 C42.3506369,17 41.8752035,16.5282116 41.8752035,15.9454777 L41.8752035,8.43456358 C41.8752035,4.94677647 39.015005,2.10904483 35.5002713,2.10904483 C31.984995,2.10904483 29.1253392,4.94677647 29.1253392,8.43456358 L29.1253392,15.9454777 C29.1253392,16.5282116 28.6493631,17 28.0626695,17 C27.4759761,17 27,16.5282116 27,15.9454777 L27,8.43456358 C27,3.78400121 30.8132363,0 35.5002713,0 C40.1867637,0 44,3.78400121 44,8.43456358 L44,15.9454777 C44,16.5276731 43.5240238,17 42.9373303,17 Z" id="Path" fill="#EBEBF0"></path>
                    <path d="M46.1842743,46.1389607 C45.1313127,46.6860154 44.5257153,47.7742197 44.5257153,48.903225 C44.5257153,49.3767307 44.6319052,49.8566788 44.8563758,50.3070997 L45.7905309,52.1828697 C46.0922782,52.7879048 45.6617362,53.5056794 44.9967355,53.5056794 L41.3915382,53.5046058 L32.866387,53.5019214 C31.5216662,53.5019214 30.4623962,54.8231206 30.8855786,56.1829733 C31.1447449,57.0167085 31.9117299,57.6249647 32.8111892,57.6260385 C28.8274934,57.6244279 29.0540667,57.6244279 29.0372445,57.6260385 C28.5099753,57.6357018 27.9937455,57.8907077 27.6147214,58.277243 C27.0459224,58.8581197 26.8961,59.625285 27.0658987,60.3038692 C27.278804,61.1515625 28.0126704,61.7458606 28.9951892,61.7458606 L30.7893769,61.7458606 C30.7751832,61.7458606 30.7609894,61.7458606 30.7478472,61.7469343 C29.3878813,61.7743138 28.4616116,63.1379246 28.8648175,64.4301335 C29.1224067,65.2644056 29.8862375,65.8689039 30.7888512,65.8689039 L37.081913,65.8731987 C35.6089234,65.8731987 35.1799586,67.2529151 35.1699704,67.2668732 C35.1011046,67.4767834 35.0622035,67.6990413 35.0622035,67.9336467 C35.0616778,69.0717784 35.9658685,69.9940946 37.0803361,69.9951683 L51.19675,70 L51.2335484,70 C51.9658376,70 52.6597514,69.8303539 53.2795426,69.5291786 C54.882904,68.7502025 55.9926404,67.083269 56,65.1505925 L55.9810751,54.2551284 C55.9810751,54.0001225 55.9626758,53.7499483 55.9258774,53.5056794 L53.2332817,53.5056794 C52.0194583,53.5056794 50.9076192,52.8099158 50.3577451,51.7045322 L47.8601812,46.6956789 C47.5484458,46.0697064 46.7977572,45.8195322 46.1842743,46.1389607 L46.1842743,46.1389607 Z" id="Path" fill="#F2BB88"></path>
                    <g id="Group" transform="translate(27.000000, 56.000000)" fill="#E3A76F">
                        <path d="M13.6383282,8.31953895 L1.89746087,8.31953895 C2.15444155,9.16096848 2.9164677,9.77065281 3.81694885,9.77065281 L10.0951425,9.7749845 L13.6383282,9.7749845 C14.0274704,9.7749845 14.3431893,9.44848384 14.3431893,9.04726172 C14.3426649,8.64549818 14.0269458,8.31953895 13.6383282,8.31953895 Z" id="Path"></path>
                        <path d="M13.6383282,4.15787442 L0.102792245,4.15787442 C0.315194556,5.01284028 1.04732708,5.61223697 2.02752453,5.61223697 L3.81747327,5.61223697 C3.80331308,5.61223697 3.78915289,5.61223697 3.77604167,5.61331996 L13.6383282,5.61331996 C14.0269458,5.61331996 14.3426649,5.28736073 14.3426649,4.88559719 C14.3426649,4.48329208 14.0269458,4.15787442 13.6383282,4.15787442 Z" id="Path"></path>
                        <path d="M2.06948055,1.45706996 L5.83450879,1.45706996 C1.860225,1.45544554 2.08626295,1.45544554 2.06948055,1.45706996 Z" id="Path"></path>
                        <path d="M13.5659542,0.00162441584 L3.91344769,0.00162441584 C4.17200162,0.842512376 4.93665,1.45598697 5.83398437,1.45706996 L13.5654296,1.45706996 C13.9545718,1.45706996 14.2702914,1.13056931 14.2702914,0.729347188 C14.2708153,0.327583505 13.9545718,0.00162441584 13.5659542,0.00162441584 L13.5659542,0.00162441584 Z" id="Path"></path>
                        <path d="M28.9653864,7.16514539 C28.9019278,9.04726172 27.8105469,10.6608137 26.254503,11.4253558 C25.6361761,11.7291152 24.9433774,11.8996751 24.2133427,11.8996751 L24.1766313,11.8996751 L8.08125358,11.8969678 C8.10170718,13.0242884 8.99537037,13.9312345 10.0930447,13.9323175 L24.1766313,13.9371906 L24.2133427,13.9371906 C24.9433774,13.9371906 25.6361761,13.7666305 26.254503,13.4628713 C27.8540763,12.6766708 28.9606662,10.9954363 28.968533,9.04617887 L28.9653864,7.16514539 Z" id="Path"></path>
                    </g>
                    <path d="M58.7791249,70 L66.2111643,70 C67.7412742,70.0010408 69,69.0894827 69,67.9747772 L69,53.033557 C69,51.9188516 67.7499067,51.0010427 66.2197968,51 L58.7877574,51 C57.258187,50.998959 56.0059356,51.911559 56.0048564,53.0252228 L56,67.9674847 C55.9989217,69.0811484 57.2500941,70 58.7791249,70 Z" id="Path" fill="#D2D2D7"></path>
                    <path d="M61,70 L66.1817624,70 C67.7280038,70.0010408 69,69.0894826 69,67.9747771 L69,53.0335562 C69,51.9188507 67.7367274,51.0010418 66.1904859,51 L61,51 L61,70 Z" id="Path" fill="#00839B"></path>
                    <path d="M63.5,65 C64.3251684,65 65,65.6748317 65,66.5 C65,67.3251683 64.3251684,68 63.5,68 C62.6748316,68 62,67.3251683 62,66.5 C62,65.6748317 62.6748316,65 63.5,65 Z" id="Path" fill="#0956C6"></path>
                    <path d="M22.8158249,17.1389575 C23.8693228,17.686537 24.4749264,18.7741801 24.4749264,19.9036969 C24.4749264,20.377192 24.3682099,20.8571293 24.1442626,21.3075403 L23.2095723,23.1832682 C22.9083476,23.7882899 23.338894,24.5060484 24.0039013,24.5060484 L27.6086095,24.5049746 L36.1338469,24.5017536 C37.4785812,24.5017536 38.5383875,25.82346 38.1146753,27.1827456 C37.8555065,28.0169989 37.0890394,28.6247047 36.1895708,28.6257784 C39.3768752,28.6252415 39.9425257,28.6241679 39.963028,28.6257784 C40.4908283,28.6354415 41.0070633,28.8904418 41.3855655,29.2769685 C41.9569988,29.8610532 42.1020913,30.6357171 41.9349196,31.3040861 C41.7220119,32.1517606 40.9881382,32.7460452 40.0056094,32.7460452 L38.2108779,32.7460452 C38.2250718,32.7460452 38.2392656,32.7460452 38.252408,32.7471189 C39.611862,32.773961 40.5386668,34.1370044 40.1354568,35.4302581 C39.8783907,36.2639746 39.114552,36.8689963 38.2119294,36.8689963 L31.9182782,36.8727542 C33.373409,36.8727542 33.8197262,38.2524396 33.830766,38.2669344 C33.8991066,38.476303 33.9380081,38.6985558 33.9380081,38.9336929 C33.9390596,40.0712624 33.0348598,40.9940947 31.920381,40.9951685 L17.8032987,41 L17.7664998,41 C17.0347288,41 16.3402824,40.8303577 15.7204849,40.5291891 C14.1171073,39.7502305 13.0078855,38.0827975 13,36.1501641 L13.0189251,25.2549438 C13.0189251,25.0004804 13.0378502,24.7503118 13.0746491,24.5055116 L15.7667463,24.5055116 C16.9811076,24.5055116 18.0924323,23.8103004 18.6428377,22.7049415 L21.139901,17.6956634 C21.4516397,17.0697049 22.2028616,16.8195363 22.8158249,17.1389575 L22.8158249,17.1389575 Z" id="Path" fill="#F2BB88"></path>
                    <path d="M28.7362832,36 L41,36 C40.7321113,36.578125 39.9361146,36.9973958 38.9954909,36.9973958 L32.4368732,37 L28.7357354,37 C28.3297936,37 28,36.7760417 28,36.5 C28,36.2239583 28.3297936,36 28.7362832,36 L28.7362832,36 Z" id="Path" fill="#E3A76F"></path>
                    <path d="M28.7424594,32 L43,32 C42.7762677,32.5870535 42.0050822,32.9992559 40.9725997,32.9992559 L39.0866201,32.9992559 C39.1015357,32.9992559 39.1164512,32.9992559 39.1302618,33 L28.7424594,33 C28.33256,33 28,32.7756696 28,32.5 C28,32.2232143 28.33256,32 28.7424594,32 L28.7424594,32 Z" id="Path" fill="#E3A76F"></path>
                    <path d="M40,29.0005056 L36,29.0005056 C39.378657,28.9994374 39.9782669,28.9989034 40,29.0005056 Z" id="Path" fill="#E3A76F"></path>
                    <path d="M28.7485949,28 L39,28 C38.7254039,28.578125 37.9127551,28.9992559 36.9597448,29 L28.7485949,29 C28.335308,29 28,28.7760416 28,28.5 C28,28.2243303 28.335308,28 28.7485949,28 L28.7485949,28 Z" id="Path" fill="#E3A76F"></path>
                    <path d="M13.0030131,33 C13.064278,35.2233949 14.1087955,37.1295274 15.5987396,38.0327017 C16.1913024,38.3915407 16.8541693,38.5930279 17.5531926,38.5930279 L17.5883447,38.5930279 L33,38.5898297 C32.9804153,39.9215638 32.1247144,40.9936035 31.0736686,40.9942433 L17.5883447,41 L17.5531926,41 C16.8541693,41 16.1913024,40.7985128 15.5987396,40.4396738 C14.0676175,39.5115535 13.0075326,37.5248262 13,35.2221157 L13.0030131,33 Z" id="Path" fill="#E3A76F"></path>
                    <path d="M13,38.9670203 C13.001617,40.0806535 11.7494175,41 10.2215292,41 L2.78979883,41 C1.25921306,41 0,40.0889875 0,38.9737916 L0,24.0340214 C0,22.9188256 1.25058093,22.0010418 2.78008761,22 L10.2128971,22 C11.7424039,22 12.9946034,22.9110125 12.9956824,24.0256874 L13,38.9670203 Z" id="Path" fill="#EBEBF0"></path>
                    <path d="M7.30720654,39.1165118 L9,41 L2.82551153,41 C1.27533247,41 0,40.0889875 0,38.9737916 L0,24.0340214 C0,22.9188256 1.26658983,22.0010418 2.81567599,22 L9,22 L7.30720654,23.8814047 C6.64659095,24.6158402 6.64659095,25.7008251 7.30720654,26.4352606 L7.86345699,27.0524988 C8.5235262,27.7864134 8.5235262,28.8713984 7.86345699,29.6058338 L7.30720654,30.2230721 C6.64659095,30.9575075 6.64659095,32.0409299 7.30720654,32.7753653 L7.86345699,33.3926035 C8.5235262,34.1280806 8.5235262,35.2115031 7.86345699,35.9459385 L7.30720654,36.5647394 C6.64659095,37.2986539 6.64659095,38.3825972 7.30720654,39.1165118 L7.30720654,39.1165118 Z" id="Path" fill="#D87900"></path>
                </g>
            </g>
        </g>
    </g>
</svg>