<?xml version="1.0" encoding="UTF-8"?>
<svg width="192px" height="167px" viewBox="0 0 192 167" version="1.1" xmlns="http://www.w3.org/2000/svg" xmlns:xlink="http://www.w3.org/1999/xlink">
    <title>3B4A0AAC-8F38-4369-8AAA-7053C07B946F</title>
    <defs>
        <linearGradient x1="50%" y1="99.9972451%" x2="50%" y2="0%" id="linearGradient-1">
            <stop stop-color="#808080" stop-opacity="0.25" offset="0%"></stop>
            <stop stop-color="#808080" stop-opacity="0.12" offset="54%"></stop>
            <stop stop-color="#808080" stop-opacity="0.1" offset="100%"></stop>
        </linearGradient>
        <linearGradient x1="50%" y1="99.997202%" x2="50%" y2="-7.95235295e-15%" id="linearGradient-2">
            <stop stop-color="#808080" stop-opacity="0.25" offset="0%"></stop>
            <stop stop-color="#808080" stop-opacity="0.12" offset="54%"></stop>
            <stop stop-color="#808080" stop-opacity="0.1" offset="100%"></stop>
        </linearGradient>
        <linearGradient x1="50%" y1="99.9980948%" x2="50%" y2="0%" id="linearGradient-3">
            <stop stop-color="#808080" stop-opacity="0.25" offset="0%"></stop>
            <stop stop-color="#808080" stop-opacity="0.12" offset="54%"></stop>
            <stop stop-color="#808080" stop-opacity="0.1" offset="100%"></stop>
        </linearGradient>
        <linearGradient x1="50%" y1="99.9669749%" x2="50%" y2="0%" id="linearGradient-4">
            <stop stop-color="#808080" stop-opacity="0.25" offset="0%"></stop>
            <stop stop-color="#808080" stop-opacity="0.12" offset="54%"></stop>
            <stop stop-color="#808080" stop-opacity="0.1" offset="100%"></stop>
        </linearGradient>
        <linearGradient x1="50%" y1="100%" x2="50%" y2="0%" id="linearGradient-5">
            <stop stop-color="#808080" stop-opacity="0.25" offset="0%"></stop>
            <stop stop-color="#808080" stop-opacity="0.12" offset="54%"></stop>
            <stop stop-color="#808080" stop-opacity="0.1" offset="100%"></stop>
        </linearGradient>
        <linearGradient x1="50%" y1="100%" x2="50%" y2="0.0330250991%" id="linearGradient-6">
            <stop stop-color="#808080" stop-opacity="0.25" offset="0%"></stop>
            <stop stop-color="#808080" stop-opacity="0.12" offset="54%"></stop>
            <stop stop-color="#808080" stop-opacity="0.1" offset="100%"></stop>
        </linearGradient>
        <linearGradient x1="50%" y1="99.9669749%" x2="50%" y2="-1.87725954e-13%" id="linearGradient-7">
            <stop stop-color="#808080" stop-opacity="0.25" offset="0%"></stop>
            <stop stop-color="#808080" stop-opacity="0.12" offset="54%"></stop>
            <stop stop-color="#808080" stop-opacity="0.1" offset="100%"></stop>
        </linearGradient>
        <linearGradient x1="50%" y1="100%" x2="50%" y2="-1.87725954e-13%" id="linearGradient-8">
            <stop stop-color="#808080" stop-opacity="0.25" offset="0%"></stop>
            <stop stop-color="#808080" stop-opacity="0.12" offset="54%"></stop>
            <stop stop-color="#808080" stop-opacity="0.1" offset="100%"></stop>
        </linearGradient>
        <linearGradient x1="49.9980225%" y1="100%" x2="49.9980225%" y2="0.00399920016%" id="linearGradient-9">
            <stop stop-color="#808080" stop-opacity="0.25" offset="0%"></stop>
            <stop stop-color="#808080" stop-opacity="0.12" offset="54%"></stop>
            <stop stop-color="#808080" stop-opacity="0.1" offset="100%"></stop>
        </linearGradient>
        <linearGradient x1="49.9955725%" y1="100%" x2="49.9955725%" y2="-0.00632591093%" id="linearGradient-10">
            <stop stop-color="#808080" stop-opacity="0.25" offset="0%"></stop>
            <stop stop-color="#808080" stop-opacity="0.12" offset="54%"></stop>
            <stop stop-color="#808080" stop-opacity="0.1" offset="100%"></stop>
        </linearGradient>
        <path d="M13.8826667,2.26828767 L12.98,0.122328767 L0.944,4.94520548 C0.386670353,5.16886204 0.0226666667,5.69876432 0.0226666667,6.28691781 L0.0226666667,18.9791781 L2.4,18.9791781 L2.4,6.87253425 L13.8826667,2.26828767 Z" id="path-11"></path>
        <linearGradient x1="50.0023115%" y1="100%" x2="50.0023115%" y2="0%" id="linearGradient-13">
            <stop stop-color="#808080" stop-opacity="0.25" offset="0%"></stop>
            <stop stop-color="#808080" stop-opacity="0.12" offset="54%"></stop>
            <stop stop-color="#808080" stop-opacity="0.1" offset="100%"></stop>
        </linearGradient>
        <linearGradient x1="50%" y1="100%" x2="50%" y2="0%" id="linearGradient-14">
            <stop stop-color="#000000" stop-opacity="0.12" offset="0%"></stop>
            <stop stop-color="#000000" stop-opacity="0.09" offset="55%"></stop>
            <stop stop-color="#000000" stop-opacity="0.02" offset="100%"></stop>
        </linearGradient>
        <linearGradient x1="50%" y1="100.007006%" x2="50%" y2="0%" id="linearGradient-15">
            <stop stop-color="#808080" stop-opacity="0.25" offset="0%"></stop>
            <stop stop-color="#808080" stop-opacity="0.12" offset="54%"></stop>
            <stop stop-color="#808080" stop-opacity="0.1" offset="100%"></stop>
        </linearGradient>
        <linearGradient x1="50%" y1="100.015179%" x2="50%" y2="0%" id="linearGradient-16">
            <stop stop-color="#000000" stop-opacity="0.12" offset="0%"></stop>
            <stop stop-color="#000000" stop-opacity="0.09" offset="55%"></stop>
            <stop stop-color="#000000" stop-opacity="0.02" offset="100%"></stop>
        </linearGradient>
    </defs>
    <g id="Web" stroke="none" stroke-width="1" fill="none" fill-rule="evenodd">
        <g id="Dashboard-Main-(No-wallet)" transform="translate(-560.000000, -569.000000)">
            <g id="Group-28" transform="translate(280.000000, 545.000000)">
                <g id="Group-26-Copy" transform="translate(256.000000, 0.000000)">
                    <g id="Group-11" transform="translate(24.000000, 24.000000)">
                        <path d="M4,0 L188,0 C190.209139,1.48469752e-14 192,1.790861 192,4 L192,163 C192,165.209139 190.209139,167 188,167 L4,167 C1.790861,167 -1.73547709e-16,165.209139 0,163 L0,4 C-7.1463071e-16,1.790861 1.790861,-3.82769592e-17 4,0 Z" id="Rectangle" fill="#F5F5FF"></path>
                        <g id="undraw_movie_night_93wl" transform="translate(34.000000, 37.000000)">
                            <path d="M57,70.3570112 C57,70.3570112 67.2751803,92.653026 97,85.6325193 C97,85.6325193 93.8541277,82.8453468 97,79.0940665 L72.0988512,68 L57,70.3570112 Z" id="Path" fill="url(#linearGradient-1)"></path>
                            <path d="M58,72.2341747 C58,72.2341747 67.7611134,93.3562934 96,86.7040212 C96,86.7040212 93.0118497,84.0637563 96,80.5094492 L72.3425887,70 L58,72.2341747 Z" id="Path" fill="#6C63FF"></path>
                            <circle id="Oval" fill="url(#linearGradient-2)" cx="62" cy="51" r="24"></circle>
                            <circle id="Oval" fill="#6C63FF" cx="61.5" cy="50.5" r="22.5"></circle>
                            <path d="M61.5,16 C41.8941091,16 26,31.6702484 26,51 C26,70.3297516 41.8941091,86 61.5,86 C81.1058909,86 97,70.3297516 97,51 C97,31.6702484 81.1058909,16 61.5,16 Z M74.4276597,34.2775111 C78.361426,32.0394204 83.3906106,33.3687773 85.6611799,37.2468506 C87.9317491,41.1249239 86.5840482,46.0834459 82.6508659,48.322534 C78.7176836,50.5616221 73.6881523,49.2335407 71.4165714,45.3560433 C70.3257749,43.4934848 70.0302112,41.2799695 70.5949137,39.2025405 C71.1596163,37.1251115 72.5383175,35.3539778 74.4276597,34.2788447 L74.4276597,34.2775111 Z M48.5723403,67.7211553 C45.6916396,69.3612733 42.0924834,69.1289874 39.4532314,67.1326173 C36.8139794,65.1362471 35.6544176,61.7689666 36.5152732,58.6010072 C37.3761287,55.4330477 40.0878611,53.0883212 43.3859342,52.6602213 C46.6840073,52.2321214 49.9188842,53.8049599 51.5820759,56.6452904 C53.8528675,60.5232548 52.5054233,65.4818668 48.5723403,67.7211553 L48.5723403,67.7211553 Z M51.5820759,45.3560433 C49.9188842,48.1963737 46.6840073,49.7692123 43.3859342,49.3411124 C40.0878611,48.9130124 37.3761287,46.5682859 36.5152732,43.4003265 C35.6544176,40.232367 36.8139794,36.8650865 39.4532314,34.8687164 C42.0924834,32.8723462 45.6916396,32.6400603 48.5723403,34.2801783 C52.5054233,36.5194669 53.8528675,41.4780788 51.5820759,45.3560433 L51.5820759,45.3560433 Z M61.4986473,78.5076208 C56.9564609,78.5076208 53.2742913,74.8773127 53.2742913,70.3991007 C53.2742913,65.9208888 56.9564609,62.2905807 61.4986473,62.2905807 C66.0408337,62.2905807 69.7230034,65.9208888 69.7230034,70.3991007 C69.7222565,74.8762711 66.04113,78.5055508 61.5,78.5062872 L61.4986473,78.5076208 Z M56.2948483,50.5892394 C56.2948483,47.7550027 58.6252741,45.4573998 61.5,45.4573998 C64.3747259,45.4573998 66.7051517,47.7550027 66.7051517,50.5892394 C66.7051517,53.4234762 64.3747259,55.7210791 61.5,55.7210791 C58.6252741,55.7210791 56.2948483,53.4234762 56.2948483,50.5892394 L56.2948483,50.5892394 Z M61.5,39.7094193 C58.1735585,39.7094193 55.1746598,37.7338418 53.9016858,34.7038955 C52.6287117,31.6739493 53.3323527,28.1863302 55.6845021,25.8673097 C58.0366514,23.5482893 61.5740936,22.8545587 64.6473248,24.1096035 C67.720556,25.3646484 69.724356,28.321309 69.724356,31.6008993 C69.724356,36.0791112 66.0421864,39.7094193 61.5,39.7094193 L61.5,39.7094193 Z M85.6617513,64.7524768 C83.9985595,67.5928072 80.7636826,69.1656457 77.4656095,68.7375458 C74.1675364,68.3094459 71.4558041,65.9647194 70.5949485,62.7967599 C69.7340929,59.6288005 70.8936548,56.26152 73.5329068,54.2651498 C76.1721587,52.2687797 79.771315,52.0364938 82.6520157,53.6766118 C86.5850986,55.9159003 87.9325429,60.8745123 85.6617513,64.7524768 L85.6617513,64.7524768 Z" id="Shape" fill="url(#linearGradient-3)" fill-rule="nonzero"></path>
                            <path d="M62,16 C43.2253333,16 28,31.4438235 28,50.5 C28,69.5561765 43.22,85 62,85 C80.78,85 96,69.5561765 96,50.5 C96,31.4438235 80.7746667,16 62,16 Z M74.38,34.0144118 C77.1387417,32.3981318 80.5853557,32.6272804 83.1126712,34.5950044 C85.6399867,36.5627285 86.7502844,39.8815125 85.9258279,43.0037933 C85.1013714,46.1260742 82.5045257,48.4369626 79.346211,48.8588815 C76.1878963,49.2808003 73.0900983,47.7306587 71.4973333,44.9312941 C69.3222891,41.1092916 70.6122617,36.2218043 74.3786667,34.0144118 L74.38,34.0144118 Z M49.62,66.9747647 C46.8616486,68.5919104 43.4148623,68.3637259 40.8869679,66.3966196 C38.3590735,64.4295133 37.2479333,61.1109018 38.0717012,57.9883405 C38.895469,54.8657792 41.4919059,52.5542487 44.6502252,52.1316761 C47.8085446,51.7091035 50.9067235,53.2587135 52.5,56.0578824 C54.675268,59.8795306 53.3859211,64.7669086 49.62,66.9747647 Z M52.5,44.9299412 C50.9072351,47.7293057 47.809437,49.2794474 44.6511224,48.8575285 C41.4928077,48.4356096 38.895962,46.1247212 38.0715054,43.0024404 C37.2470489,39.8801595 38.3573467,36.5613755 40.8846622,34.5936515 C43.4119776,32.6259274 46.8585916,32.3967789 49.6173333,34.0130588 C53.3842222,36.2199877 54.6748207,41.1075844 52.5,44.9299412 L52.5,44.9299412 Z M61.9973333,77.6034706 C57.6475386,77.6034706 54.1213333,74.0254093 54.1213333,69.6116471 C54.1213333,65.1978848 57.6475386,61.6198235 61.9973333,61.6198235 C66.347128,61.6198235 69.8733334,65.1978848 69.8733334,69.6116471 C69.8740699,74.0248811 66.349274,77.6033294 62,77.6048235 L61.9973333,77.6034706 Z M57.0146667,50.0900588 C57.0146667,47.2969924 59.2460795,45.0327647 61.9986667,45.0327647 C64.7512539,45.0327647 66.9826667,47.2969924 66.9826667,50.0900588 C66.9826667,52.8831252 64.7512539,55.1473529 61.9986667,55.1473529 C59.2460795,55.1473529 57.0146667,52.8831252 57.0146667,50.0900588 L57.0146667,50.0900588 Z M61.9986667,39.368 C57.6490456,39.368 54.1229122,35.7902135 54.1226668,31.3766274 C54.1224214,26.9630413 57.6481568,23.3848511 61.9977779,23.384353 C66.347399,23.3838549 69.8739303,26.9612375 69.8746667,31.3748235 C69.8746667,35.7880575 66.349274,39.3658999 62,39.3666471 L61.9986667,39.368 Z M85.1373333,64.0497059 C83.5445684,66.8490704 80.4467704,68.3992121 77.2884557,67.9772932 C74.130141,67.5553744 71.5332953,65.2444859 70.7088388,62.1222051 C69.8843822,58.9999242 70.99468,55.6811402 73.5219955,53.7134162 C76.049311,51.7456921 79.495925,51.5165436 82.2546667,53.1328235 C86.0215555,55.3397524 87.312154,60.2273491 85.1373333,64.0497059 L85.1373333,64.0497059 Z" id="Shape" fill="#E6E6E6" fill-rule="nonzero"></path>
                            <path d="M31.2912686,51.5694107 C31.2912686,32.3884012 46.4975082,16.8335437 65.2605292,16.8335437 C72.3401562,16.8223863 79.2445792,19.0841596 85,23.2998637 C78.8609836,17.9323862 71.0463725,14.9883198 62.9692693,15 C44.2115768,15 29,30.5494435 29,49.7359018 C28.99219,60.9552353 34.2917699,71.4855353 43.22447,78 C35.6449754,71.408517 31.2814393,61.7438154 31.2912686,51.5694107 Z" id="Path" fill="#FFFFFF" opacity="0.2"></path>
                            <circle id="Oval" stroke="#FFFFFF" stroke-width="13" opacity="0.2" cx="61" cy="50" r="6"></circle>
                            <circle id="Oval" fill="url(#linearGradient-4)" cx="17.5" cy="56.5" r="2.5"></circle>
                            <circle id="Oval" fill="#FDD835" cx="18.5" cy="57.5" r="1.5"></circle>
                            <path d="M17.3217185,57.2487786 C17.3212185,56.5446126 17.7008302,55.9086138 18.2852675,55.6344557 C18.8697048,55.3602975 19.5452622,55.501319 20,55.9924032 C19.7273626,55.3630255 19.1438354,54.9735881 18.5150903,55.0013967 C17.8863452,55.0292052 17.332594,55.4689428 17.105952,56.120403 C16.8793099,56.7718632 17.0231095,57.5104913 17.4718806,58 C17.3720706,57.765117 17.3207689,57.5084679 17.3217185,57.2487786 Z" id="Path" fill="#FFFFFF" opacity="0.2"></path>
                            <circle id="Oval" fill="url(#linearGradient-4)" cx="24.5" cy="56.5" r="2.5"></circle>
                            <circle id="Oval" fill="#FDD835" cx="23.5" cy="57.5" r="1.5"></circle>
                            <path d="M22.3217185,57.2487786 C22.3212185,56.5446126 22.7008302,55.9086138 23.2852675,55.6344557 C23.8697048,55.3602975 24.5452622,55.501319 25,55.9924032 C24.7273626,55.3630255 24.1438354,54.9735881 23.5150903,55.0013967 C22.8863452,55.0292052 22.332594,55.4689428 22.105952,56.120403 C21.8793099,56.7718632 22.0231095,57.5104913 22.4718806,58 C22.3720706,57.765117 22.3207689,57.5084679 22.3217185,57.2487786 L22.3217185,57.2487786 Z" id="Path" fill="#FFFFFF" opacity="0.2"></path>
                            <circle id="Oval" fill="url(#linearGradient-4)" cx="7.5" cy="56.5" r="2.5"></circle>
                            <circle id="Oval" fill="#FDD835" cx="7.5" cy="57.5" r="1.5"></circle>
                            <path d="M6.32077236,57.2481673 C6.3202721,56.5434283 6.70001796,55.906912 7.28466174,55.6325307 C7.86930552,55.3581495 8.54510153,55.4992857 9,55.9907695 C8.72668267,55.3620233 8.14332654,54.973365 7.51504282,55.0014238 C6.88675911,55.0294826 6.3334017,55.4689058 6.10644866,56.1199938 C5.87949561,56.7710819 6.02224139,57.5096305 6.46981393,58 C6.37037336,57.764822 6.31945536,57.5079687 6.32077236,57.2481673 L6.32077236,57.2481673 Z" id="Path" fill="#FFFFFF" opacity="0.2"></path>
                            <circle id="Oval" fill="url(#linearGradient-5)" cx="15.5" cy="52.5" r="2.5"></circle>
                            <circle id="Oval" fill="#FDD835" cx="15.5" cy="52.5" r="1.5"></circle>
                            <path d="M14.3263772,53.2566938 C14.325878,52.5538568 14.7048294,51.9190584 15.2882502,51.6454176 C15.8716709,51.3717769 16.5460532,51.5125322 17,52.0026896 C16.7312039,51.3698291 16.1482004,50.9758058 15.5181114,51.0011541 C14.8880223,51.0265025 14.3322637,51.466338 14.1054743,52.1191357 C13.8786849,52.7719335 14.0245662,53.5119017 14.4762781,54 C14.3774889,53.7675423 14.3262974,53.5137015 14.3263772,53.2566938 Z" id="Path" fill="#FFFFFF" opacity="0.2"></path>
                            <circle id="Oval" fill="url(#linearGradient-5)" cx="27.5" cy="52.5" r="2.5"></circle>
                            <circle id="Oval" fill="#FDD835" cx="27.5" cy="52.5" r="1.5"></circle>
                            <path d="M26.3263772,53.2566938 C26.325878,52.5538568 26.7048294,51.9190584 27.2882502,51.6454176 C27.8716709,51.3717769 28.5460532,51.5125322 29,52.0026896 C28.7312039,51.3698291 28.1482004,50.9758058 27.5181114,51.0011541 C26.8880223,51.0265025 26.3322637,51.466338 26.1054743,52.1191357 C25.8786849,52.7719335 26.0245662,53.5119017 26.4762781,54 C26.3774889,53.7675423 26.3262974,53.5137015 26.3263772,53.2566938 L26.3263772,53.2566938 Z" id="Path" fill="#FFFFFF" opacity="0.2"></path>
                            <circle id="Oval" fill="url(#linearGradient-6)" cx="24.5" cy="51.5" r="2.5"></circle>
                            <circle id="Oval" fill="#FDD835" cx="23.5" cy="51.5" r="1.5"></circle>
                            <path d="M22.3263772,52.2566938 C22.325878,51.5538568 22.7048294,50.9190584 23.2882502,50.6454176 C23.8716709,50.3717769 24.5460532,50.5125322 25,51.0026896 C24.7312039,50.3698291 24.1482004,49.9758058 23.5181114,50.0011541 C22.8880223,50.0265025 22.3322637,50.466338 22.1054743,51.1191357 C21.8786849,51.7719335 22.0245662,52.5119017 22.4762781,53 C22.3774889,52.7675423 22.3262974,52.5137015 22.3263772,52.2566938 Z" id="Path" fill="#FFFFFF" opacity="0.2"></path>
                            <circle id="Oval" fill="url(#linearGradient-5)" cx="25.5" cy="54.5" r="2.5"></circle>
                            <circle id="Oval" fill="#FDD835" cx="26.5" cy="55.5" r="1.5"></circle>
                            <path d="M25.3272566,56.2572699 C25.3267575,55.5549775 25.7055843,54.9206711 26.2888132,54.6472424 C26.872042,54.3738137 27.5462025,54.51446 28,55.0042374 C27.7318573,54.3707821 27.1486884,53.9760175 26.5181542,54.0011315 C25.88762,54.0262455 25.331483,54.4663882 25.1049973,55.1195445 C24.8785115,55.7727007 25.0254136,56.5127394 25.4782789,57 C25.3791183,56.7678254 25.3275429,56.5141766 25.3272566,56.2572699 L25.3272566,56.2572699 Z" id="Path" fill="#FFFFFF" opacity="0.2"></path>
                            <circle id="Oval" fill="url(#linearGradient-5)" cx="19.5" cy="52.5" r="2.5"></circle>
                            <circle id="Oval" fill="#FDD835" cx="20.5" cy="52.5" r="1.5"></circle>
                            <path d="M19.3263772,53.2566938 C19.325878,52.5538568 19.7048294,51.9190584 20.2882502,51.6454176 C20.8716709,51.3717769 21.5460532,51.5125322 22,52.0026896 C21.7312039,51.3698291 21.1482004,50.9758058 20.5181114,51.0011541 C19.8880223,51.0265025 19.3322637,51.466338 19.1054743,52.1191357 C18.8786849,52.7719335 19.0245662,53.5119017 19.4762781,54 C19.3774889,53.7675423 19.3262974,53.5137015 19.3263772,53.2566938 L19.3263772,53.2566938 Z" id="Path" fill="#FFFFFF" opacity="0.2"></path>
                            <circle id="Oval" fill="url(#linearGradient-6)" cx="19.5" cy="46.5" r="2.5"></circle>
                            <circle id="Oval" fill="#FDD835" cx="20.5" cy="45.5" r="1.5"></circle>
                            <path d="M19.3263772,46.2566938 C19.325878,45.5538568 19.7048294,44.9190584 20.2882502,44.6454176 C20.8716709,44.3717769 21.5460532,44.5125322 22,45.0026896 C21.7312039,44.3698291 21.1482004,43.9758058 20.5181114,44.0011541 C19.8880223,44.0265025 19.3322637,44.466338 19.1054743,45.1191357 C18.8786849,45.7719335 19.0245662,46.5119017 19.4762781,47 C19.3774889,46.7675423 19.3262974,46.5137015 19.3263772,46.2566938 L19.3263772,46.2566938 Z" id="Path" fill="#FFFFFF" opacity="0.2"></path>
                            <circle id="Oval" fill="url(#linearGradient-5)" cx="30.5" cy="49.5" r="2.5"></circle>
                            <circle id="Oval" fill="#FDD835" cx="29.5" cy="49.5" r="1.5"></circle>
                            <path d="M28.3263772,50.2566938 C28.325878,49.5538568 28.7048294,48.9190584 29.2882502,48.6454176 C29.8716709,48.3717769 30.5460532,48.5125322 31,49.0026896 C30.7312039,48.3698291 30.1482004,47.9758058 29.5181114,48.0011541 C28.8880223,48.0265025 28.3322637,48.466338 28.1054743,49.1191357 C27.8786849,49.7719335 28.0245662,50.5119017 28.4762781,51 C28.3774889,50.7675423 28.3262974,50.5137015 28.3263772,50.2566938 L28.3263772,50.2566938 Z" id="Path" fill="#FFFFFF" opacity="0.2"></path>
                            <circle id="Oval" fill="url(#linearGradient-5)" cx="29.5" cy="52.5" r="2.5"></circle>
                            <circle id="Oval" fill="#FDD835" cx="28.5" cy="52.5" r="1.5"></circle>
                            <path d="M27.3263772,53.2566938 C27.325878,52.5538568 27.7048294,51.9190584 28.2882502,51.6454176 C28.8716709,51.3717769 29.5460532,51.5125322 30,52.0026896 C29.7312039,51.3698291 29.1482004,50.9758058 28.5181114,51.0011541 C27.8880223,51.0265025 27.3322637,51.466338 27.1054743,52.1191357 C26.8786849,52.7719335 27.0245662,53.5119017 27.4762781,54 C27.3774889,53.7675423 27.3262974,53.5137015 27.3263772,53.2566938 Z" id="Path" fill="#FFFFFF" opacity="0.2"></path>
                            <circle id="Oval" fill="url(#linearGradient-6)" cx="33.5" cy="52.5" r="2.5"></circle>
                            <circle id="Oval" fill="#FDD835" cx="33.5" cy="52.5" r="1.5"></circle>
                            <path d="M32.3281232,53.2578392 C32.3276243,52.5560852 32.7063283,51.922265 33.289368,51.6490459 C33.8724077,51.3758269 34.5463496,51.5163653 35,52.0057673 C34.7325048,51.3717242 34.1491713,50.9762262 33.5181954,51.0011094 C32.8872196,51.0259926 32.330708,51.4664415 32.1045248,52.1199534 C31.8783416,52.7734653 32.0262578,53.5135725 32.4802668,54 C32.3807345,53.7681063 32.3287752,53.5146473 32.3281232,53.2578392 L32.3281232,53.2578392 Z" id="Path" fill="#FFFFFF" opacity="0.2"></path>
                            <circle id="Oval" fill="url(#linearGradient-5)" cx="31.5" cy="53.5" r="2.5"></circle>
                            <circle id="Oval" fill="#FDD835" cx="31.5" cy="54.5" r="1.5"></circle>
                            <path d="M30.3263772,55.2566938 C30.325878,54.5538568 30.7048294,53.9190584 31.2882502,53.6454176 C31.8716709,53.3717769 32.5460532,53.5125322 33,54.0026896 C32.7312039,53.3698291 32.1482004,52.9758058 31.5181114,53.0011541 C30.8880223,53.0265025 30.3322637,53.466338 30.1054743,54.1191357 C29.8786849,54.7719335 30.0245662,55.5119017 30.4762781,56 C30.3774889,55.7675423 30.3262974,55.5137015 30.3263772,55.2566938 L30.3263772,55.2566938 Z" id="Path" fill="#FFFFFF" opacity="0.2"></path>
                            <circle id="Oval" fill="url(#linearGradient-5)" cx="17.5" cy="49.5" r="2.5"></circle>
                            <circle id="Oval" fill="#FDD835" cx="18.5" cy="49.5" r="1.5"></circle>
                            <path d="M17.3263772,50.2566938 C17.325878,49.5538568 17.7048294,48.9190584 18.2882502,48.6454176 C18.8716709,48.3717769 19.5460532,48.5125322 20,49.0026896 C19.7312039,48.3698291 19.1482004,47.9758058 18.5181114,48.0011541 C17.8880223,48.0265025 17.3322637,48.466338 17.1054743,49.1191357 C16.8786849,49.7719335 17.0245662,50.5119017 17.4762781,51 C17.3774889,50.7675423 17.3262974,50.5137015 17.3263772,50.2566938 Z" id="Path" fill="#FFFFFF" opacity="0.2"></path>
                            <circle id="Oval" fill="url(#linearGradient-6)" cx="15.5" cy="56.5" r="2.5"></circle>
                            <circle id="Oval" fill="#FBC02D" cx="15.5" cy="56.5" r="1.5"></circle>
                            <path d="M14.3263772,57.2566938 C14.325878,56.5538568 14.7048294,55.9190584 15.2882502,55.6454176 C15.8716709,55.3717769 16.5460532,55.5125322 17,56.0026896 C16.7312039,55.3698291 16.1482004,54.9758058 15.5181114,55.0011541 C14.8880223,55.0265025 14.3322637,55.466338 14.1054743,56.1191357 C13.8786849,56.7719335 14.0245662,57.5119017 14.4762781,58 C14.3774889,57.7675423 14.3262974,57.5137015 14.3263772,57.2566938 Z" id="Path" fill="#FFFFFF" opacity="0.2"></path>
                            <circle id="Oval" fill="url(#linearGradient-4)" cx="10.5" cy="56.5" r="2.5"></circle>
                            <circle id="Oval" fill="#FBC02D" cx="11.5" cy="57.5" r="1.5"></circle>
                            <path d="M10.3217185,57.2487786 C10.3212185,56.5446126 10.7008302,55.9086138 11.2852675,55.6344557 C11.8697048,55.3602975 12.5452622,55.501319 13,55.9924032 C12.7273626,55.3630255 12.1438354,54.9735881 11.5150903,55.0013967 C10.8863452,55.0292052 10.332594,55.4689428 10.105952,56.120403 C9.87930994,56.7718632 10.0231095,57.5104913 10.4718806,58 C10.3720706,57.765117 10.3207689,57.5084679 10.3217185,57.2487786 Z" id="Path" fill="#FFFFFF" opacity="0.2"></path>
                            <circle id="Oval" fill="url(#linearGradient-6)" cx="12.5" cy="55.5" r="2.5"></circle>
                            <circle id="Oval" fill="#FBC02D" cx="13.5" cy="55.5" r="1.5"></circle>
                            <path d="M12.3263772,56.2566938 C12.325878,55.5538568 12.7048294,54.9190584 13.2882502,54.6454176 C13.8716709,54.3717769 14.5460532,54.5125322 15,55.0026896 C14.7312039,54.3698291 14.1482004,53.9758058 13.5181114,54.0011541 C12.8880223,54.0265025 12.3322637,54.466338 12.1054743,55.1191357 C11.8786849,55.7719335 12.0245662,56.5119017 12.4762781,57 C12.3774889,56.7675423 12.3262974,56.5137015 12.3263772,56.2566938 L12.3263772,56.2566938 Z" id="Path" fill="#FFFFFF" opacity="0.2"></path>
                            <circle id="Oval" fill="url(#linearGradient-4)" cx="23.5" cy="53.5" r="2.5"></circle>
                            <circle id="Oval" fill="#FBC02D" cx="22.5" cy="52.5" r="1.5"></circle>
                            <path d="M21.3263772,53.2566938 C21.325878,52.5538568 21.7048294,51.9190584 22.2882502,51.6454176 C22.8716709,51.3717769 23.5460532,51.5125322 24,52.0026896 C23.7312039,51.3698291 23.1482004,50.9758058 22.5181114,51.0011541 C21.8880223,51.0265025 21.3322637,51.466338 21.1054743,52.1191357 C20.8786849,52.7719335 21.0245662,53.5119017 21.4762781,54 C21.3774889,53.7675423 21.3262974,53.5137015 21.3263772,53.2566938 L21.3263772,53.2566938 Z" id="Path" fill="#FFFFFF" opacity="0.2"></path>
                            <circle id="Oval" fill="url(#linearGradient-6)" cx="23.5" cy="48.5" r="2.5"></circle>
                            <circle id="Oval" fill="#FBC02D" cx="22.5" cy="49.5" r="1.5"></circle>
                            <path d="M21.3263772,50.2566938 C21.325878,49.5538568 21.7048294,48.9190584 22.2882502,48.6454176 C22.8716709,48.3717769 23.5460532,48.5125322 24,49.0026896 C23.7312039,48.3698291 23.1482004,47.9758058 22.5181114,48.0011541 C21.8880223,48.0265025 21.3322637,48.466338 21.1054743,49.1191357 C20.8786849,49.7719335 21.0245662,50.5119017 21.4762781,51 C21.3774889,50.7675423 21.3262974,50.5137015 21.3263772,50.2566938 L21.3263772,50.2566938 Z" id="Path" fill="#FFFFFF" opacity="0.2"></path>
                            <circle id="Oval" fill="url(#linearGradient-4)" cx="25.5" cy="52.5" r="2.5"></circle>
                            <circle id="Oval" fill="#FBC02D" cx="24.5" cy="52.5" r="1.5"></circle>
                            <path d="M23.3263772,53.2566938 C23.325878,52.5538568 23.7048294,51.9190584 24.2882502,51.6454176 C24.8716709,51.3717769 25.5460532,51.5125322 26,52.0026896 C25.7312039,51.3698291 25.1482004,50.9758058 24.5181114,51.0011541 C23.8880223,51.0265025 23.3322637,51.466338 23.1054743,52.1191357 C22.8786849,52.7719335 23.0245662,53.5119017 23.4762781,54 C23.3774889,53.7675423 23.3262974,53.5137015 23.3263772,53.2566938 L23.3263772,53.2566938 Z" id="Path" fill="#FFFFFF" opacity="0.2"></path>
                            <circle id="Oval" fill="url(#linearGradient-5)" cx="23.5" cy="45.5" r="2.5"></circle>
                            <circle id="Oval" fill="#FBC02D" cx="22.5" cy="44.5" r="1.5"></circle>
                            <path d="M21.3263772,45.2566938 C21.325878,44.5538568 21.7048294,43.9190584 22.2882502,43.6454176 C22.8716709,43.3717769 23.5460532,43.5125322 24,44.0026896 C23.7312039,43.3698291 23.1482004,42.9758058 22.5181114,43.0011541 C21.8880223,43.0265025 21.3322637,43.466338 21.1054743,44.1191357 C20.8786849,44.7719335 21.0245662,45.5119017 21.4762781,46 C21.3774889,45.7675423 21.3262974,45.5137015 21.3263772,45.2566938 L21.3263772,45.2566938 Z" id="Path" fill="#FFFFFF" opacity="0.2"></path>
                            <circle id="Oval" fill="url(#linearGradient-5)" cx="23.5" cy="47.5" r="2.5"></circle>
                            <circle id="Oval" fill="#FBC02D" cx="23.5" cy="47.5" r="1.5"></circle>
                            <path d="M22.3263772,48.2566938 C22.325878,47.5538568 22.7048294,46.9190584 23.2882502,46.6454176 C23.8716709,46.3717769 24.5460532,46.5125322 25,47.0026896 C24.7312039,46.3698291 24.1482004,45.9758058 23.5181114,46.0011541 C22.8880223,46.0265025 22.3322637,46.466338 22.1054743,47.1191357 C21.8786849,47.7719335 22.0245662,48.5119017 22.4762781,49 C22.3774889,48.7675423 22.3262974,48.5137015 22.3263772,48.2566938 L22.3263772,48.2566938 Z" id="Path" fill="#FFFFFF" opacity="0.2"></path>
                            <circle id="Oval" fill="url(#linearGradient-5)" cx="26.5" cy="48.5" r="2.5"></circle>
                            <circle id="Oval" fill="#FBC02D" cx="26.5" cy="48.5" r="1.5"></circle>
                            <path d="M25.3310616,49.2553944 C25.3328502,48.5550247 25.7112442,47.9234705 26.2925557,47.6506236 C26.8738672,47.3777766 27.5458283,47.5163314 28,48.0026896 C27.7312039,47.3698291 27.1482004,46.9758058 26.5181114,47.0011541 C25.8880223,47.0265025 25.3322637,47.466338 25.1054743,48.1191357 C24.8786849,48.7719335 25.0245662,49.5119017 25.4762781,50 C25.3789349,49.7667345 25.3293427,49.5124475 25.3310616,49.2553944 L25.3310616,49.2553944 Z" id="Path" fill="#FFFFFF" opacity="0.2"></path>
                            <circle id="Oval" fill="url(#linearGradient-4)" cx="28.5" cy="47.5" r="2.5"></circle>
                            <circle id="Oval" fill="#FBC02D" cx="28.5" cy="48.5" r="1.5"></circle>
                            <path d="M27.3263772,49.2566938 C27.325878,48.5538568 27.7048294,47.9190584 28.2882502,47.6454176 C28.8716709,47.3717769 29.5460532,47.5125322 30,48.0026896 C29.7312039,47.3698291 29.1482004,46.9758058 28.5181114,47.0011541 C27.8880223,47.0265025 27.3322637,47.466338 27.1054743,48.1191357 C26.8786849,48.7719335 27.0245662,49.5119017 27.4762781,50 C27.3774889,49.7675423 27.3262974,49.5137015 27.3263772,49.2566938 L27.3263772,49.2566938 Z" id="Path" fill="#FFFFFF" opacity="0.2"></path>
                            <circle id="Oval" fill="url(#linearGradient-6)" cx="27.5" cy="49.5" r="2.5"></circle>
                            <circle id="Oval" fill="#FBC02D" cx="28.5" cy="50.5" r="1.5"></circle>
                            <path d="M27.3263772,51.2566938 C27.325878,50.5538568 27.7048294,49.9190584 28.2882502,49.6454176 C28.8716709,49.3717769 29.5460532,49.5125322 30,50.0026896 C29.7312039,49.3698291 29.1482004,48.9758058 28.5181114,49.0011541 C27.8880223,49.0265025 27.3322637,49.466338 27.1054743,50.1191357 C26.8786849,50.7719335 27.0245662,51.5119017 27.4762781,52 C27.3774889,51.7675423 27.3262974,51.5137015 27.3263772,51.2566938 Z" id="Path" fill="#FFFFFF" opacity="0.2"></path>
                            <circle id="Oval" fill="url(#linearGradient-6)" cx="18.5" cy="47.5" r="2.5"></circle>
                            <circle id="Oval" fill="#FBC02D" cx="19.5" cy="47.5" r="1.5"></circle>
                            <path d="M18.3263772,48.2566938 C18.325878,47.5538568 18.7048294,46.9190584 19.2882502,46.6454176 C19.8716709,46.3717769 20.5460532,46.5125322 21,47.0026896 C20.7312039,46.3698291 20.1482004,45.9758058 19.5181114,46.0011541 C18.8880223,46.0265025 18.3322637,46.466338 18.1054743,47.1191357 C17.8786849,47.7719335 18.0245662,48.5119017 18.4762781,49 C18.3774889,48.7675423 18.3262974,48.5137015 18.3263772,48.2566938 Z" id="Path" fill="#FFFFFF" opacity="0.2"></path>
                            <circle id="Oval" fill="url(#linearGradient-6)" cx="13.5" cy="53.5" r="2.5"></circle>
                            <circle id="Oval" fill="#FBC02D" cx="13.5" cy="52.5" r="1.5"></circle>
                            <path d="M12.3290939,53.2623902 C12.3285952,52.5600277 12.7071616,51.9256579 13.2899895,51.6522019 C13.8728174,51.378746 14.5465144,51.5194062 15,52.0092326 C14.7335796,51.3742503 14.1511737,50.9773638 13.5204832,51.0010005 C12.8897927,51.0246373 12.33283,51.4642246 12.1056012,52.1177076 C11.8783724,52.7711907 12.0248368,53.5121476 12.4776726,54 C12.3800589,53.7691828 12.3293364,53.5173738 12.3290939,53.2623902 L12.3290939,53.2623902 Z" id="Path" fill="#FFFFFF" opacity="0.2"></path>
                            <circle id="Oval" fill="url(#linearGradient-4)" cx="17.5" cy="51.5" r="2.5"></circle>
                            <circle id="Oval" fill="#FBC02D" cx="17.5" cy="50.5" r="1.5"></circle>
                            <path d="M16.3298196,51.2589585 C16.329321,50.5582628 16.7077845,49.9253985 17.2904541,49.6525915 C17.8731236,49.3797845 18.5466376,49.5201109 19,50.0087749 C18.7337826,49.3735766 18.1501223,48.9766349 17.5182734,49.001067 C16.8864244,49.025499 16.3291741,49.4665569 16.103593,50.1207718 C15.878012,50.7749868 16.0279374,51.515225 16.4842058,52 C16.3839289,51.7686619 16.3312017,51.5155757 16.3298196,51.2589585 L16.3298196,51.2589585 Z" id="Path" fill="#FFFFFF" opacity="0.2"></path>
                            <circle id="Oval" fill="url(#linearGradient-4)" cx="9.5" cy="55.5" r="2.5"></circle>
                            <circle id="Oval" fill="#FBC02D" cx="9.5" cy="55.5" r="1.5"></circle>
                            <path d="M8.32362759,56.2529466 C8.32312787,55.5490276 8.70246904,54.9132519 9.28648977,54.6391899 C9.87051049,54.3651279 10.5455863,54.5060999 11,54.9970118 C10.7290091,54.3661435 10.1459616,53.974702 9.51685785,54.0012725 C8.88775407,54.0278429 8.33318024,54.4673323 8.10614631,55.1192349 C7.87911238,55.7711375 8.02313608,56.5104971 8.47251033,57 C8.37368557,56.7662869 8.32283437,56.5111293 8.32362759,56.2529466 L8.32362759,56.2529466 Z" id="Path" fill="#FFFFFF" opacity="0.2"></path>
                            <circle id="Oval" fill="url(#linearGradient-5)" cx="29.5" cy="53.5" r="2.5"></circle>
                            <circle id="Oval" fill="#FBC02D" cx="28.5" cy="54.5" r="1.5"></circle>
                            <path d="M27.3263772,55.2566938 C27.325878,54.5538568 27.7048294,53.9190584 28.2882502,53.6454176 C28.8716709,53.3717769 29.5460532,53.5125322 30,54.0026896 C29.7312039,53.3698291 29.1482004,52.9758058 28.5181114,53.0011541 C27.8880223,53.0265025 27.3322637,53.466338 27.1054743,54.1191357 C26.8786849,54.7719335 27.0245662,55.5119017 27.4762781,56 C27.3774889,55.7675423 27.3262974,55.5137015 27.3263772,55.2566938 Z" id="Path" fill="#FFFFFF" opacity="0.2"></path>
                            <circle id="Oval" fill="url(#linearGradient-6)" cx="19.5" cy="43.5" r="2.5"></circle>
                            <circle id="Oval" fill="#FBC02D" cx="20.5" cy="42.5" r="1.5"></circle>
                            <path d="M19.3254634,43.2551193 C19.324964,42.5520225 19.704045,41.9169896 20.2876651,41.6432478 C20.8712853,41.3695059 21.545898,41.5103132 22,42.0006517 C21.7304417,41.3684782 21.1473317,40.9753631 20.5175075,41.0012004 C19.8876833,41.0270376 19.332323,41.4668561 19.1055655,42.1193899 C18.878808,42.7719238 19.0242814,43.5116257 19.4754155,44 C19.3764237,43.7670598 19.3252105,43.5126604 19.3254634,43.2551193 L19.3254634,43.2551193 Z" id="Path" fill="#FFFFFF" opacity="0.2"></path>
                            <circle id="Oval" fill="url(#linearGradient-6)" cx="17.5" cy="47.5" r="2.5"></circle>
                            <circle id="Oval" fill="#FBC02D" cx="16.5" cy="48.5" r="1.5"></circle>
                            <path d="M15.3207934,48.2501358 C15.3202931,47.5447971 15.700036,46.9077392 16.2846752,46.6331245 C16.8693144,46.3585097 17.5451051,46.499766 18,46.991668 C17.7268737,46.362765 17.1440638,45.9738074 16.5161554,46.0013749 C15.8882471,46.0289424 15.3348676,46.467783 15.1072413,47.118671 C14.8796151,47.7695589 15.0211087,48.5084889 15.4674867,49 C15.3691965,48.7652106 15.3190908,48.5090812 15.3207934,48.2501358 L15.3207934,48.2501358 Z" id="Path" fill="#FFFFFF" opacity="0.2"></path>
                            <circle id="Oval" fill="url(#linearGradient-6)" cx="13.5" cy="51.5" r="2.5"></circle>
                            <circle id="Oval" fill="#FBC02D" cx="13.5" cy="51.5" r="1.5"></circle>
                            <path d="M12.3263772,52.2566938 C12.325878,51.5538568 12.7048294,50.9190584 13.2882502,50.6454176 C13.8716709,50.3717769 14.5460532,50.5125322 15,51.0026896 C14.7312039,50.3698291 14.1482004,49.9758058 13.5181114,50.0011541 C12.8880223,50.0265025 12.3322637,50.466338 12.1054743,51.1191357 C11.8786849,51.7719335 12.0245662,52.5119017 12.4762781,53 C12.3774889,52.7675423 12.3262974,52.5137015 12.3263772,52.2566938 Z" id="Path" fill="#FFFFFF" opacity="0.2"></path>
                            <circle id="Oval" fill="url(#linearGradient-4)" cx="16.5" cy="54.5" r="2.5"></circle>
                            <circle id="Oval" fill="#FBC02D" cx="15.5" cy="54.5" r="1.5"></circle>
                            <path d="M14.3263772,55.2566938 C14.325878,54.5538568 14.7048294,53.9190584 15.2882502,53.6454176 C15.8716709,53.3717769 16.5460532,53.5125322 17,54.0026896 C16.7312039,53.3698291 16.1482004,52.9758058 15.5181114,53.0011541 C14.8880223,53.0265025 14.3322637,53.466338 14.1054743,54.1191357 C13.8786849,54.7719335 14.0245662,55.5119017 14.4762781,56 C14.3774889,55.7675423 14.3262974,55.5137015 14.3263772,55.2566938 L14.3263772,55.2566938 Z" id="Path" fill="#FFFFFF" opacity="0.2"></path>
                            <circle id="Oval" fill="url(#linearGradient-6)" cx="17.5" cy="52.5" r="2.5"></circle>
                            <circle id="Oval" fill="#FBC02D" cx="18.5" cy="52.5" r="1.5"></circle>
                            <path d="M17.3263772,53.2566938 C17.325878,52.5538568 17.7048294,51.9190584 18.2882502,51.6454176 C18.8716709,51.3717769 19.5460532,51.5125322 20,52.0026896 C19.7312039,51.3698291 19.1482004,50.9758058 18.5181114,51.0011541 C17.8880223,51.0265025 17.3322637,51.466338 17.1054743,52.1191357 C16.8786849,52.7719335 17.0245662,53.5119017 17.4762781,54 C17.3774889,53.7675423 17.3262974,53.5137015 17.3263772,53.2566938 L17.3263772,53.2566938 Z" id="Path" fill="#FFFFFF" opacity="0.2"></path>
                            <circle id="Oval" fill="url(#linearGradient-4)" cx="19.5" cy="54.5" r="2.5"></circle>
                            <circle id="Oval" fill="#FBC02D" cx="19.5" cy="54.5" r="1.5"></circle>
                            <path d="M18.3263772,55.2566938 C18.325878,54.5538568 18.7048294,53.9190584 19.2882502,53.6454176 C19.8716709,53.3717769 20.5460532,53.5125322 21,54.0026896 C20.7312039,53.3698291 20.1482004,52.9758058 19.5181114,53.0011541 C18.8880223,53.0265025 18.3322637,53.466338 18.1054743,54.1191357 C17.8786849,54.7719335 18.0245662,55.5119017 18.4762781,56 C18.3774889,55.7675423 18.3262974,55.5137015 18.3263772,55.2566938 L18.3263772,55.2566938 Z" id="Path" fill="#FFFFFF" opacity="0.2"></path>
                            <circle id="Oval" fill="url(#linearGradient-4)" cx="35.5" cy="56.5" r="2.5"></circle>
                            <circle id="Oval" fill="#FBC02D" cx="35.5" cy="57.5" r="1.5"></circle>
                            <path d="M34.3196103,57.2478482 C34.3191221,56.5424853 34.699223,55.9054797 35.2842642,55.6311991 C35.8693053,55.3569184 36.5453539,55.498777 37,55.9912203 C36.7267789,55.3623951 36.1436959,54.9735864 35.5155995,55.0013992 C34.887503,55.029212 34.334134,55.468344 34.1068443,56.1193324 C33.8795546,56.7703207 34.021675,57.5090602 34.4686512,58 C34.3692111,57.7647221 34.3182933,57.5077599 34.3196103,57.2478482 L34.3196103,57.2478482 Z" id="Path" fill="#FFFFFF" opacity="0.2"></path>
                            <circle id="Oval" fill="url(#linearGradient-5)" cx="32.5" cy="56.5" r="2.5"></circle>
                            <circle id="Oval" fill="#FBC02D" cx="31.5" cy="56.5" r="1.5"></circle>
                            <path d="M30.3263772,57.2566938 C30.325878,56.5538568 30.7048294,55.9190584 31.2882502,55.6454176 C31.8716709,55.3717769 32.5460532,55.5125322 33,56.0026896 C32.7312039,55.3698291 32.1482004,54.9758058 31.5181114,55.0011541 C30.8880223,55.0265025 30.3322637,55.466338 30.1054743,56.1191357 C29.8786849,56.7719335 30.0245662,57.5119017 30.4762781,58 C30.3774889,57.7675423 30.3262974,57.5137015 30.3263772,57.2566938 Z" id="Path" fill="#FFFFFF" opacity="0.2"></path>
                            <circle id="Oval" fill="url(#linearGradient-6)" cx="27.5" cy="56.5" r="2.5"></circle>
                            <circle id="Oval" fill="#FBC02D" cx="27.5" cy="56.5" r="1.5"></circle>
                            <circle id="Oval" fill="#FBC02D" cx="28.5" cy="54.5" r="1.5"></circle>
                            <path d="M26.3263772,57.2566938 C26.325878,56.5538568 26.7048294,55.9190584 27.2882502,55.6454176 C27.8716709,55.3717769 28.5460532,55.5125322 29,56.0026896 C28.7312039,55.3698291 28.1482004,54.9758058 27.5181114,55.0011541 C26.8880223,55.0265025 26.3322637,55.466338 26.1054743,56.1191357 C25.8786849,56.7719335 26.0245662,57.5119017 26.4762781,58 C26.3774889,57.7675423 26.3262974,57.5137015 26.3263772,57.2566938 Z" id="Path" fill="#FFFFFF" opacity="0.2"></path>
                            <circle id="Oval" fill="url(#linearGradient-4)" cx="20.5" cy="56.5" r="2.5"></circle>
                            <circle id="Oval" fill="#FBC02D" cx="20.5" cy="57.5" r="1.5"></circle>
                            <path d="M19.3217185,57.2487786 C19.3212185,56.5446126 19.7008302,55.9086138 20.2852675,55.6344557 C20.8697048,55.3602975 21.5452622,55.501319 22,55.9924032 C21.7273626,55.3630255 21.1438354,54.9735881 20.5150903,55.0013967 C19.8863452,55.0292052 19.332594,55.4689428 19.105952,56.120403 C18.8793099,56.7718632 19.0231095,57.5104913 19.4718806,58 C19.3720706,57.765117 19.3207689,57.5084679 19.3217185,57.2487786 Z" id="Path" fill="#FFFFFF" opacity="0.2"></path>
                            <circle id="Oval" fill="url(#linearGradient-7)" cx="19.5" cy="48.5" r="2.5"></circle>
                            <circle id="Oval" fill="#FDD835" cx="20.5" cy="49.5" r="1.5"></circle>
                            <path d="M19.3228639,50.2605923 C19.3195533,49.5553626 19.6985283,48.9170205 20.2837838,48.6420272 C20.8690393,48.3670339 21.5458938,48.5092747 22,49.0026896 C21.7312039,48.3698291 21.1482004,47.9758058 20.5181114,48.0011541 C19.8880223,48.0265025 19.3322637,48.466338 19.1054743,49.1191357 C18.8786849,49.7719335 19.0245662,50.5119017 19.4762781,51 C19.3767809,50.7690401 19.3243995,50.5165783 19.3228639,50.2605923 L19.3228639,50.2605923 Z" id="Path" fill="#FFFFFF" opacity="0.2"></path>
                            <circle id="Oval" fill="url(#linearGradient-8)" cx="22.5" cy="52.5" r="2.5"></circle>
                            <circle id="Oval" fill="#FDD835" cx="22.5" cy="51.5" r="1.5"></circle>
                            <path d="M21.3252061,52.2553944 C21.3247189,51.5522336 21.7040263,50.9172167 22.2878461,50.6437924 C22.8716659,50.370368 23.546303,50.5117836 24,51.0026896 C23.7312039,50.3698291 23.1482004,49.9758058 22.5181114,50.0011541 C21.8880223,50.0265025 21.3322637,50.466338 21.1054743,51.1191357 C20.8786849,51.7719335 21.0245662,52.5119017 21.4762781,53 C21.376916,52.7672489 21.3253194,52.5129389 21.3252061,52.2553944 Z" id="Path" fill="#FFFFFF" opacity="0.2"></path>
                            <circle id="Oval" fill="url(#linearGradient-4)" cx="18.5" cy="45.5" r="2.5"></circle>
                            <circle id="Oval" fill="#FDD835" cx="19.5" cy="44.5" r="1.5"></circle>
                            <path d="M18.3263772,45.2566938 C18.325878,44.5538568 18.7048294,43.9190584 19.2882502,43.6454176 C19.8716709,43.3717769 20.5460532,43.5125322 21,44.0026896 C20.7312039,43.3698291 20.1482004,42.9758058 19.5181114,43.0011541 C18.8880223,43.0265025 18.3322637,43.466338 18.1054743,44.1191357 C17.8786849,44.7719335 18.0245662,45.5119017 18.4762781,46 C18.3774889,45.7675423 18.3262974,45.5137015 18.3263772,45.2566938 Z" id="Path" fill="#FFFFFF" opacity="0.2"></path>
                            <circle id="Oval" fill="url(#linearGradient-4)" cx="20.5" cy="45.5" r="2.5"></circle>
                            <circle id="Oval" fill="#FDD835" cx="21.5" cy="45.5" r="1.5"></circle>
                            <path d="M20.3217674,45.2527213 C20.3212673,44.5473611 20.7008722,43.9102839 21.2852988,43.6356608 C21.8697255,43.3610377 22.5452705,43.5022983 23,43.9942153 C22.7277489,43.3645197 22.1453138,42.9744778 21.5173173,43.0013004 C20.8893207,43.0281229 20.3355225,43.4666949 20.1075341,44.1177564 C19.8795458,44.7688178 20.020845,45.5082104 20.4672343,46 C20.3697233,45.7658971 20.3200456,45.5106972 20.3217674,45.2527213 Z" id="Path" fill="#FFFFFF" opacity="0.2"></path>
                            <circle id="Oval" fill="url(#linearGradient-7)" cx="25.5" cy="46.5" r="2.5"></circle>
                            <circle id="Oval" fill="#FDD835" cx="24.5" cy="47.5" r="1.5"></circle>
                            <path d="M23.3263772,46.2566938 C23.325878,45.5538568 23.7048294,44.9190584 24.2882502,44.6454176 C24.8716709,44.3717769 25.5460532,44.5125322 26,45.0026896 C25.7312039,44.3698291 25.1482004,43.9758058 24.5181114,44.0011541 C23.8880223,44.0265025 23.3322637,44.466338 23.1054743,45.1191357 C22.8786849,45.7719335 23.0245662,46.5119017 23.4762781,47 C23.3774889,46.7675423 23.3262974,46.5137015 23.3263772,46.2566938 L23.3263772,46.2566938 Z" id="Path" fill="#FFFFFF" opacity="0.2"></path>
                            <circle id="Oval" fill="url(#linearGradient-6)" cx="15.5" cy="49.5" r="2.5"></circle>
                            <circle id="Oval" fill="#FDD835" cx="15.5" cy="50.5" r="1.5"></circle>
                            <path d="M14.3263772,51.2566938 C14.325878,50.5538568 14.7048294,49.9190584 15.2882502,49.6454176 C15.8716709,49.3717769 16.5460532,49.5125322 17,50.0026896 C16.7312039,49.3698291 16.1482004,48.9758058 15.5181114,49.0011541 C14.8880223,49.0265025 14.3322637,49.466338 14.1054743,50.1191357 C13.8786849,50.7719335 14.0245662,51.5119017 14.4762781,52 C14.3774889,51.7675423 14.3262974,51.5137015 14.3263772,51.2566938 L14.3263772,51.2566938 Z" id="Path" fill="#FFFFFF" opacity="0.2"></path>
                            <circle id="Oval" fill="url(#linearGradient-4)" cx="17.5" cy="52.5" r="2.5"></circle>
                            <circle id="Oval" fill="#FDD835" cx="16.5" cy="52.5" r="1.5"></circle>
                            <path d="M15.3198188,53.2485306 C15.3193183,52.5429093 15.6991993,51.905596 16.2840512,51.6308713 C16.8689031,51.3561465 17.5449396,51.4974594 18,51.9895585 C17.7260895,51.3613754 17.1431787,50.9733581 16.5155491,51.001427 C15.8879195,51.0294958 15.3349505,51.4683119 15.1073485,52.1189237 C14.8797465,52.7695355 15.020803,53.5081923 15.4665654,54 C15.3680693,53.7647181 15.3179413,53.5080193 15.3198188,53.2485306 L15.3198188,53.2485306 Z" id="Path" fill="#FFFFFF" opacity="0.2"></path>
                            <circle id="Oval" fill="url(#linearGradient-6)" cx="17.5" cy="55.5" r="2.5"></circle>
                            <circle id="Oval" fill="#FDD835" cx="17.5" cy="55.5" r="1.5"></circle>
                            <path d="M16.3263772,56.2566938 C16.325878,55.5538568 16.7048294,54.9190584 17.2882502,54.6454176 C17.8716709,54.3717769 18.5460532,54.5125322 19,55.0026896 C18.7312039,54.3698291 18.1482004,53.9758058 17.5181114,54.0011541 C16.8880223,54.0265025 16.3322637,54.466338 16.1054743,55.1191357 C15.8786849,55.7719335 16.0245662,56.5119017 16.4762781,57 C16.3774889,56.7675423 16.3262974,56.5137015 16.3263772,56.2566938 L16.3263772,56.2566938 Z" id="Path" fill="#FFFFFF" opacity="0.2"></path>
                            <circle id="Oval" fill="url(#linearGradient-6)" cx="23.5" cy="54.5" r="2.5"></circle>
                            <circle id="Oval" fill="#FDD835" cx="22.5" cy="54.5" r="1.5"></circle>
                            <path d="M21.3263772,55.2566938 C21.325878,54.5538568 21.7048294,53.9190584 22.2882502,53.6454176 C22.8716709,53.3717769 23.5460532,53.5125322 24,54.0026896 C23.7312039,53.3698291 23.1482004,52.9758058 22.5181114,53.0011541 C21.8880223,53.0265025 21.3322637,53.466338 21.1054743,54.1191357 C20.8786849,54.7719335 21.0245662,55.5119017 21.4762781,56 C21.3774889,55.7675423 21.3262974,55.5137015 21.3263772,55.2566938 L21.3263772,55.2566938 Z" id="Path" fill="#FFFFFF" opacity="0.2"></path>
                            <circle id="Oval" fill="url(#linearGradient-5)" cx="28.5" cy="52.5" r="2.5"></circle>
                            <circle id="Oval" fill="#FDD835" cx="28.5" cy="52.5" r="1.5"></circle>
                            <path d="M27.3263772,53.2566938 C27.325878,52.5538568 27.7048294,51.9190584 28.2882502,51.6454176 C28.8716709,51.3717769 29.5460532,51.5125322 30,52.0026896 C29.7312039,51.3698291 29.1482004,50.9758058 28.5181114,51.0011541 C27.8880223,51.0265025 27.3322637,51.466338 27.1054743,52.1191357 C26.8786849,52.7719335 27.0245662,53.5119017 27.4762781,54 C27.3774889,53.7675423 27.3262974,53.5137015 27.3263772,53.2566938 L27.3263772,53.2566938 Z" id="Path" fill="#FFFFFF" opacity="0.2"></path>
                            <circle id="Oval" fill="url(#linearGradient-7)" cx="30.5" cy="52.5" r="2.5"></circle>
                            <circle id="Oval" fill="#FDD835" cx="30.5" cy="51.5" r="1.5"></circle>
                            <circle id="Oval" fill="#FDD835" cx="26.5" cy="51.5" r="1.5"></circle>
                            <path d="M29.3263772,52.2566938 C29.325878,51.5538568 29.7048294,50.9190584 30.2882502,50.6454176 C30.8716709,50.3717769 31.5460532,50.5125322 32,51.0026896 C31.7312039,50.3698291 31.1482004,49.9758058 30.5181114,50.0011541 C29.8880223,50.0265025 29.3322637,50.466338 29.1054743,51.1191357 C28.8786849,51.7719335 29.0245662,52.5119017 29.4762781,53 C29.3774889,52.7675423 29.3262974,52.5137015 29.3263772,52.2566938 L29.3263772,52.2566938 Z" id="Path" fill="#FFFFFF" opacity="0.2"></path>
                            <circle id="Oval" fill="url(#linearGradient-4)" cx="33.5" cy="54.5" r="2.5"></circle>
                            <circle id="Oval" fill="#FDD835" cx="34.5" cy="54.5" r="1.5"></circle>
                            <path d="M33.3263772,55.2566938 C33.325878,54.5538568 33.7048294,53.9190584 34.2882502,53.6454176 C34.8716709,53.3717769 35.5460532,53.5125322 36,54.0026896 C35.7312039,53.3698291 35.1482004,52.9758058 34.5181114,53.0011541 C33.8880223,53.0265025 33.3322637,53.466338 33.1054743,54.1191357 C32.8786849,54.7719335 33.0245662,55.5119017 33.4762781,56 C33.3774889,55.7675423 33.3262974,55.5137015 33.3263772,55.2566938 L33.3263772,55.2566938 Z" id="Path" fill="#FFFFFF" opacity="0.2"></path>
                            <circle id="Oval" fill="url(#linearGradient-4)" cx="24.5" cy="56.5" r="2.5"></circle>
                            <circle id="Oval" fill="#FDD835" cx="24.5" cy="57.5" r="1.5"></circle>
                            <path d="M23.3263772,58.2566938 C23.325878,57.5538568 23.7048294,56.9190584 24.2882502,56.6454176 C24.8716709,56.3717769 25.5460532,56.5125322 26,57.0026896 C25.7312039,56.3698291 25.1482004,55.9758058 24.5181114,56.0011541 C23.8880223,56.0265025 23.3322637,56.466338 23.1054743,57.1191357 C22.8786849,57.7719335 23.0245662,58.5119017 23.4762781,59 C23.3774889,58.7675423 23.3262974,58.5137015 23.3263772,58.2566938 L23.3263772,58.2566938 Z" id="Path" fill="#FFFFFF" opacity="0.2"></path>
                            <circle id="Oval" fill="url(#linearGradient-8)" cx="13.5" cy="55.5" r="2.5"></circle>
                            <circle id="Oval" fill="#FDD835" cx="14.5" cy="56.5" r="1.5"></circle>
                            <path d="M13.3289774,57.258402 C13.3284787,56.5571802 13.7070616,55.9238406 14.2899149,55.6508288 C14.8727682,55.3778169 15.5464946,55.5182487 16,56.0072796 C15.7331465,55.3726556 15.1496492,54.976432 14.5182352,55.0010879 C13.8868211,55.0257438 13.3299384,55.4664978 13.1040567,56.1203625 C12.8781751,56.7742273 13.0270991,57.514401 13.4822424,58 C13.3823379,57.7683851 13.3299947,57.5151136 13.3289774,57.258402 L13.3289774,57.258402 Z" id="Path" fill="#FFFFFF" opacity="0.2"></path>
                            <circle id="Oval" fill="url(#linearGradient-7)" cx="10.5" cy="53.5" r="2.5"></circle>
                            <circle id="Oval" fill="#FDD835" cx="11.5" cy="54.5" r="1.5"></circle>
                            <path d="M10.3263772,53.2566938 C10.325878,52.5538568 10.7048294,51.9190584 11.2882502,51.6454176 C11.8716709,51.3717769 12.5460532,51.5125322 13,52.0026896 C12.7312039,51.3698291 12.1482004,50.9758058 11.5181114,51.0011541 C10.8880223,51.0265025 10.3322637,51.466338 10.1054743,52.1191357 C9.87868492,52.7719335 10.0245662,53.5119017 10.4762781,54 C10.3774889,53.7675423 10.3262974,53.5137015 10.3263772,53.2566938 Z" id="Path" fill="#FFFFFF" opacity="0.2"></path>
                            <circle id="Oval" fill="url(#linearGradient-4)" cx="15.5" cy="52.5" r="2.5"></circle>
                            <circle id="Oval" fill="#FDD835" cx="15.5" cy="52.5" r="1.5"></circle>
                            <path d="M14.3263772,53.2566938 C14.325878,52.5538568 14.7048294,51.9190584 15.2882502,51.6454176 C15.8716709,51.3717769 16.5460532,51.5125322 17,52.0026896 C16.7312039,51.3698291 16.1482004,50.9758058 15.5181114,51.0011541 C14.8880223,51.0265025 14.3322637,51.466338 14.1054743,52.1191357 C13.8786849,52.7719335 14.0245662,53.5119017 14.4762781,54 C14.3774889,53.7675423 14.3262974,53.5137015 14.3263772,53.2566938 L14.3263772,53.2566938 Z" id="Path" fill="#FFFFFF" opacity="0.2"></path>
                            <circle id="Oval" fill="url(#linearGradient-5)" cx="12.5" cy="49.5" r="2.5"></circle>
                            <circle id="Oval" fill="#FDD835" cx="13.5" cy="49.5" r="1.5"></circle>
                            <path d="M12.3217185,50.2487786 C12.3212185,49.5446126 12.7008302,48.9086138 13.2852675,48.6344557 C13.8697048,48.3602975 14.5452622,48.501319 15,48.9924032 C14.7273626,48.3630255 14.1438354,47.9735881 13.5150903,48.0013967 C12.8863452,48.0292052 12.332594,48.4689428 12.105952,49.120403 C11.8793099,49.7718632 12.0231095,50.5104913 12.4718806,51 C12.3720706,50.765117 12.3207689,50.5084679 12.3217185,50.2487786 L12.3217185,50.2487786 Z" id="Path" fill="#FFFFFF" opacity="0.2"></path>
                            <circle id="Oval" fill="url(#linearGradient-7)" cx="15.5" cy="46.5" r="2.5"></circle>
                            <circle id="Oval" fill="#FDD835" cx="14.5" cy="47.5" r="1.5"></circle>
                            <path d="M13.3275483,46.2553944 C13.3279773,45.5533527 13.7069196,44.9197272 14.2897328,44.6465349 C14.8725461,44.3733427 15.5461096,44.513609 16,45.0026896 C15.7312039,44.3698291 15.1482004,43.9758058 14.5181114,44.0011541 C13.8880223,44.0265025 13.3322637,44.466338 13.1054743,45.1191357 C12.8786849,45.7719335 13.0245662,46.5119017 13.4762781,47 C13.377724,46.7670428 13.3269292,46.5127421 13.3275483,46.2553944 L13.3275483,46.2553944 Z" id="Path" fill="#FFFFFF" opacity="0.2"></path>
                            <circle id="Oval" fill="url(#linearGradient-4)" cx="30.5" cy="56.5" r="2.5"></circle>
                            <circle id="Oval" fill="#FDD835" cx="29.5" cy="57.5" r="1.5"></circle>
                            <path d="M28.3217185,57.2487786 C28.3212185,56.5446126 28.7008302,55.9086138 29.2852675,55.6344557 C29.8697048,55.3602975 30.5452622,55.501319 31,55.9924032 C30.7273626,55.3630255 30.1438354,54.9735881 29.5150903,55.0013967 C28.8863452,55.0292052 28.332594,55.4689428 28.105952,56.120403 C27.8793099,56.7718632 28.0231095,57.5104913 28.4718806,58 C28.3720706,57.765117 28.3207689,57.5084679 28.3217185,57.2487786 Z" id="Path" fill="#FFFFFF" opacity="0.2"></path>
                            <polygon id="Path" fill="url(#linearGradient-9)" points="34.2152264 91 11.705438 91 6 57 40 57"></polygon>
                            <polygon id="Path" fill="#FFFFFF" points="32.5560112 90 11.3705101 90 6 57 38 57"></polygon>
                            <polygon id="Path" fill="#6C63FF" points="6 57 11.1387169 57 16 90 11 90"></polygon>
                            <polygon id="Path" fill="#6C63FF" points="38 57 32.8974639 57 28 90 32.9654168 90"></polygon>
                            <rect id="Rectangle" fill="#6C63FF" x="18" y="57" width="6" height="33"></rect>
                            <circle id="Oval" fill="url(#linearGradient-8)" cx="11.5" cy="52.5" r="2.5"></circle>
                            <circle id="Oval" fill="#FBC02D" cx="12.5" cy="51.5" r="1.5"></circle>
                            <path d="M11.3263772,52.2566938 C11.325878,51.5538568 11.7048294,50.9190584 12.2882502,50.6454176 C12.8716709,50.3717769 13.5460532,50.5125322 14,51.0026896 C13.7312039,50.3698291 13.1482004,49.9758058 12.5181114,50.0011541 C11.8880223,50.0265025 11.3322637,50.466338 11.1054743,51.1191357 C10.8786849,51.7719335 11.0245662,52.5119017 11.4762781,53 C11.3774889,52.7675423 11.3262974,52.5137015 11.3263772,52.2566938 L11.3263772,52.2566938 Z" id="Path" fill="#FFFFFF" opacity="0.2"></path>
                            <circle id="Oval" fill="url(#linearGradient-5)" cx="17.5" cy="45.5" r="2.5"></circle>
                            <circle id="Oval" fill="#FBC02D" cx="16.5" cy="45.5" r="1.5"></circle>
                            <path d="M15.3263772,46.2566938 C15.325878,45.5538568 15.7048294,44.9190584 16.2882502,44.6454176 C16.8716709,44.3717769 17.5460532,44.5125322 18,45.0026896 C17.7312039,44.3698291 17.1482004,43.9758058 16.5181114,44.0011541 C15.8880223,44.0265025 15.3322637,44.466338 15.1054743,45.1191357 C14.8786849,45.7719335 15.0245662,46.5119017 15.4762781,47 C15.3774889,46.7675423 15.3262974,46.5137015 15.3263772,46.2566938 Z" id="Path" fill="#FFFFFF" opacity="0.2"></path>
                            <circle id="Oval" fill="url(#linearGradient-6)" cx="9.5" cy="54.5" r="2.5"></circle>
                            <circle id="Oval" fill="#FBC02D" cx="9.5" cy="54.5" r="1.5"></circle>
                            <path d="M8.32548466,55.2561109 C8.32498529,54.5527226 8.70406324,53.9174264 9.28767873,53.643571 C9.87129422,53.3697157 10.5459016,53.5105814 11,54.0011231 C10.7305444,53.3688648 10.1477073,52.975591 9.51806693,53.0011774 C8.88842659,53.0267638 8.33305022,53.4662908 8.10595609,54.1187272 C7.87886197,54.7711636 8.02371573,55.5110591 8.4742641,56 C8.37584602,55.7672571 8.32503842,55.5132218 8.32548466,55.2561109 L8.32548466,55.2561109 Z" id="Path" fill="#FFFFFF" opacity="0.2"></path>
                            <circle id="Oval" fill="url(#linearGradient-5)" cx="7.5" cy="40.5" r="2.5"></circle>
                            <circle id="Oval" fill="#FBC02D" cx="6.5" cy="40.5" r="1.5"></circle>
                            <path d="M5.32637719,41.2566938 C5.32587798,40.5538568 5.70482942,39.9190584 6.28825015,39.6454176 C6.87167089,39.3717769 7.54605316,39.5125322 8,40.0026896 C7.73120391,39.3698291 7.14820041,38.9758058 6.51811136,39.0011541 C5.88802231,39.0265025 5.33226373,39.466338 5.10547433,40.1191357 C4.87868492,40.7719335 5.02456625,41.5119017 5.47627807,42 C5.37748891,41.7675423 5.32629741,41.5137015 5.32637719,41.2566938 Z" id="Path" fill="#FFFFFF" opacity="0.2"></path>
                            <g id="d4a79658-ee59-416f-a379-a492ff752217" transform="translate(103.000000, 34.000000)" fill="url(#linearGradient-10)">
                                <path d="M14.9486842,2.90698113 L13.7513158,0.018490566 L1.06052632,5.25 C0.473657016,5.49226754 0.0902657677,6.06587433 0.0894736842,6.70283019 L0.0894736842,20.4690566 L3.75657895,20.8969811 L3.75657895,7.76471698 L14.9486842,2.90698113 Z" id="Path"></path>
                            </g>
                            <path d="M117,37.1622498 L116.088215,35 L103.93064,39.8594893 C103.36768,40.0848437 103,40.6187687 103,41.2113872 L103,54 L105.401347,54 L105.401347,41.8014493 L117,37.1622498 Z" id="2572ddba-42e8-4159-9036-35cbff74dfb7" fill="#F2F2F2"></path>
                            <g id="Clipped" transform="translate(124.000000, 47.000000)">
                                <mask id="mask-12" fill="white">
                                    <use xlink:href="#path-11"></use>
                                </mask>
                                <g id="57881ca8-e7c9-455e-98a0-adebd859a564"></g>
                                <g id="Group" mask="url(#mask-12)" fill="#6C63FF">
                                    <g transform="translate(-22.800000, -15.356164)">
                                        <rect id="Rectangle" x="12.2613333" y="0.0221232877" width="2.592" height="8.01253425"></rect>
                                        <rect id="Rectangle" x="8.15733333" y="1.70869863" width="2.592" height="8.01253425"></rect>
                                        <polygon id="Path" points="6.752 8.56171233 4.916 9.08876712 4.16 0.549178082 6.752 0.549178082"></polygon>
                                        <polygon id="Rectangle" transform="translate(4.159333, 10.775342) rotate(-90.000000) translate(-4.159333, -10.775342) " points="2.89440183 6.6706758 5.42426484 6.6706758 5.42426484 14.8800091 2.89440183 14.8800091"></polygon>
                                        <polygon id="Rectangle" transform="translate(4.160667, 14.255205) rotate(-90.000000) translate(-4.160667, -14.255205) " points="2.89573516 10.1505388 5.42559817 10.1505388 5.42559817 18.3598721 2.89573516 18.3598721"></polygon>
                                        <polygon id="Rectangle" transform="translate(4.159333, 17.735068) rotate(-90.000000) translate(-4.159333, -17.735068) " points="2.89440183 13.6304018 5.42426484 13.6304018 5.42426484 21.8397352 2.89440183 21.8397352"></polygon>
                                    </g>
                                </g>
                            </g>
                            <polygon id="Path" fill="url(#linearGradient-13)" points="119 52 90 52 90 56.5082823 91.9801674 56.5082823 96.0115575 93 113.342379 93 116.925986 56.2942314 119 56.2942314"></polygon>
                            <polygon id="Path" fill="#6C63FF" points="113.57621 92 97.8515988 92 94 53 117 53"></polygon>
                            <rect id="Rectangle" fill="#6C63FF" x="91" y="53" width="27" height="2"></rect>
                            <circle id="Oval" fill="url(#linearGradient-14)" cx="104" cy="70" r="7"></circle>
                            <ellipse id="Oval" fill="#FFFFFF" cx="105.5" cy="70" rx="6.5" ry="6"></ellipse>
                            <circle id="Oval" fill="url(#linearGradient-4)" cx="16.5" cy="29.5" r="2.5"></circle>
                            <circle id="Oval" fill="#FBC02D" cx="15.5" cy="29.5" r="1.5"></circle>
                            <path d="M14.3263772,30.2566938 C14.325878,29.5538568 14.7048294,28.9190584 15.2882502,28.6454176 C15.8716709,28.3717769 16.5460532,28.5125322 17,29.0026896 C16.7312039,28.3698291 16.1482004,27.9758058 15.5181114,28.0011541 C14.8880223,28.0265025 14.3322637,28.466338 14.1054743,29.1191357 C13.8786849,29.7719335 14.0245662,30.5119017 14.4762781,31 C14.3774889,30.7675423 14.3262974,30.5137015 14.3263772,30.2566938 L14.3263772,30.2566938 Z" id="Path" fill="#FFFFFF" opacity="0.2"></path>
                            <circle id="Oval" fill="url(#linearGradient-8)" cx="23.5" cy="19.5" r="2.5"></circle>
                            <circle id="Oval" fill="#FDD835" cx="22.5" cy="20.5" r="1.5"></circle>
                            <path d="M21.328695,21.2557006 C21.3291098,20.5542696 21.7076998,19.9211203 22.2901208,19.6478239 C22.8725417,19.3745276 23.5458576,19.5140784 24,20.0022121 C23.7310989,19.3694382 23.1478225,18.9755764 22.5175509,19.001177 C21.8872792,19.0267776 21.3315383,19.4669045 21.1050857,20.1197988 C20.878633,20.7726931 21.025132,21.5124668 21.4774261,22 C21.3788712,21.7671386 21.3280759,21.5129425 21.328695,21.2557006 Z" id="Path" fill="#FFFFFF" opacity="0.2"></path>
                            <circle id="Oval" fill="url(#linearGradient-5)" cx="37.5" cy="39.5" r="2.5"></circle>
                            <circle id="Oval" fill="#FDD835" cx="37.5" cy="40.5" r="1.5"></circle>
                            <path d="M36.3281232,41.2578392 C36.3276243,40.5560852 36.7063283,39.922265 37.289368,39.6490459 C37.8724077,39.3758269 38.5463496,39.5163653 39,40.0057673 C38.7325048,39.3717242 38.1491713,38.9762262 37.5181954,39.0011094 C36.8872196,39.0259926 36.330708,39.4664415 36.1045248,40.1199534 C35.8783416,40.7734653 36.0262578,41.5135725 36.4802668,42 C36.3807345,41.7681063 36.3287752,41.5146473 36.3281232,41.2578392 L36.3281232,41.2578392 Z" id="Path" fill="#FFFFFF" opacity="0.2"></path>
                            <circle id="Oval" fill="url(#linearGradient-5)" cx="48.5" cy="53.5" r="2.5"></circle>
                            <circle id="Oval" fill="#FDD835" cx="49.5" cy="52.5" r="1.5"></circle>
                            <path d="M48.3263772,53.2566938 C48.325878,52.5538568 48.7048294,51.9190584 49.2882502,51.6454176 C49.8716709,51.3717769 50.5460532,51.5125322 51,52.0026896 C50.7312039,51.3698291 50.1482004,50.9758058 49.5181114,51.0011541 C48.8880223,51.0265025 48.3322637,51.466338 48.1054743,52.1191357 C47.8786849,52.7719335 48.0245662,53.5119017 48.4762781,54 C48.3774889,53.7675423 48.3262974,53.5137015 48.3263772,53.2566938 L48.3263772,53.2566938 Z" id="Path" fill="#FFFFFF" opacity="0.2"></path>
                            <circle id="Oval" fill="url(#linearGradient-7)" cx="5.5" cy="88.5" r="2.5"></circle>
                            <circle id="Oval" fill="#FBC02D" cx="6.5" cy="88.5" r="1.5"></circle>
                            <path d="M5.32989049,88.2605923 C5.3293497,87.5587215 5.70723435,86.9245716 6.28946146,86.6502814 C6.87168856,86.3759911 7.54530863,86.5147715 8,87.0026896 C7.73120391,86.3698291 7.14820041,85.9758058 6.51811136,86.0011541 C5.88802231,86.0265025 5.33226373,86.466338 5.10547433,87.1191357 C4.87868492,87.7719335 5.02456625,88.5119017 5.47627807,89 C5.37920506,88.7684255 5.32922827,88.5159914 5.32989049,88.2605923 L5.32989049,88.2605923 Z" id="Path" fill="#FFFFFF" opacity="0.2"></path>
                            <circle id="Oval" fill="url(#linearGradient-6)" cx="4.5" cy="85.5" r="2.5"></circle>
                            <circle id="Oval" fill="#FDD835" cx="4.5" cy="85.5" r="1.5"></circle>
                            <path d="M3.32637719,86.2566938 C3.32587798,85.5538568 3.70482942,84.9190584 4.28825015,84.6454176 C4.87167089,84.3717769 5.54605316,84.5125322 6,85.0026896 C5.73120391,84.3698291 5.14820041,83.9758058 4.51811136,84.0011541 C3.88802231,84.0265025 3.33226373,84.466338 3.10547433,85.1191357 C2.87868492,85.7719335 3.02456625,86.5119017 3.47627807,87 C3.37748891,86.7675423 3.32629741,86.5137015 3.32637719,86.2566938 Z" id="Path" fill="#FFFFFF" opacity="0.2"></path>
                            <circle id="Oval" fill="url(#linearGradient-4)" cx="2.5" cy="65.5" r="2.5"></circle>
                            <circle id="Oval" fill="#FBC02D" cx="1.5" cy="64.5" r="1.5"></circle>
                            <path d="M0.324313171,65.2548104 C0.323825779,64.5510981 0.703259819,63.9155833 1.28727451,63.6419445 C1.87128919,63.3683057 2.54615155,63.5098322 3,64.0011231 C2.73054439,63.3688648 2.14770726,62.975591 1.51806693,63.0011774 C0.888426593,63.0267638 0.333050215,63.4662908 0.105956092,64.1187272 C-0.121138031,64.7711636 0.0237157298,65.5110591 0.474264096,66 C0.375273071,65.7669632 0.324060291,65.5124584 0.324313171,65.2548104 L0.324313171,65.2548104 Z" id="Path" fill="#FFFFFF" opacity="0.2"></path>
                            <circle id="Oval" fill="url(#linearGradient-4)" cx="40.5" cy="87.5" r="2.5"></circle>
                            <circle id="Oval" fill="#FBC02D" cx="40.5" cy="87.5" r="1.5"></circle>
                            <path d="M39.3263772,88.2566938 C39.325878,87.5538568 39.7048294,86.9190584 40.2882502,86.6454176 C40.8716709,86.3717769 41.5460532,86.5125322 42,87.0026896 C41.7312039,86.3698291 41.1482004,85.9758058 40.5181114,86.0011541 C39.8880223,86.0265025 39.3322637,86.466338 39.1054743,87.1191357 C38.8786849,87.7719335 39.0245662,88.5119017 39.4762781,89 C39.3774889,88.7675423 39.3262974,88.5137015 39.3263772,88.2566938 L39.3263772,88.2566938 Z" id="Path" fill="#FFFFFF" opacity="0.2"></path>
                            <circle id="Oval" fill="url(#linearGradient-5)" cx="44.5" cy="84.5" r="2.5"></circle>
                            <circle id="Oval" fill="#FBC02D" cx="43.5" cy="85.5" r="1.5"></circle>
                            <path d="M42.3299475,86.2629524 C42.329449,85.5611253 42.7078944,84.9272391 43.290536,84.6539916 C43.8731776,84.380744 44.5466594,84.5212971 45,85.0107501 C44.7342244,84.375187 44.1516556,83.9775725 43.5205255,84.00098 C42.8893954,84.0243875 42.3320589,84.4642791 42.1051302,85.1181157 C41.8782016,85.7719522 42.0256745,86.5129769 42.4796482,87 C42.3816623,86.7694608 42.3305558,86.5178391 42.3299475,86.2629524 L42.3299475,86.2629524 Z" id="Path" fill="#FFFFFF" opacity="0.2"></path>
                            <circle id="Oval" fill="url(#linearGradient-5)" cx="44.5" cy="87.5" r="2.5"></circle>
                            <circle id="Oval" fill="#FDD835" cx="44.5" cy="87.5" r="1.5"></circle>
                            <path d="M43.3263772,88.2566938 C43.325878,87.5538568 43.7048294,86.9190584 44.2882502,86.6454176 C44.8716709,86.3717769 45.5460532,86.5125322 46,87.0026896 C45.7312039,86.3698291 45.1482004,85.9758058 44.5181114,86.0011541 C43.8880223,86.0265025 43.3322637,86.466338 43.1054743,87.1191357 C42.8786849,87.7719335 43.0245662,88.5119017 43.4762781,89 C43.3774889,88.7675423 43.3262974,88.5137015 43.3263772,88.2566938 L43.3263772,88.2566938 Z" id="Path" fill="#FFFFFF" opacity="0.2"></path>
                            <circle id="Oval" fill="url(#linearGradient-5)" cx="37.5" cy="87.5" r="2.5"></circle>
                            <circle id="Oval" fill="#FDD835" cx="36.5" cy="87.5" r="1.5"></circle>
                            <path d="M35.3263772,88.2566938 C35.325878,87.5538568 35.7048294,86.9190584 36.2882502,86.6454176 C36.8716709,86.3717769 37.5460532,86.5125322 38,87.0026896 C37.7312039,86.3698291 37.1482004,85.9758058 36.5181114,86.0011541 C35.8880223,86.0265025 35.3322637,86.466338 35.1054743,87.1191357 C34.8786849,87.7719335 35.0245662,88.5119017 35.4762781,89 C35.3774889,88.7675423 35.3262974,88.5137015 35.3263772,88.2566938 L35.3263772,88.2566938 Z" id="Path" fill="#FFFFFF" opacity="0.2"></path>
                            <circle id="Oval" fill="url(#linearGradient-15)" cx="100.5" cy="9.5" r="9.5"></circle>
                            <ellipse id="Oval" fill="#3AD29F" cx="101.5" cy="10" rx="8.5" ry="9"></ellipse>
                            <polygon id="Path" fill="url(#linearGradient-16)" points="108 10 99 14 99 10 99 6"></polygon>
                            <polygon id="Path" fill="#FFFFFF" points="107 10.5 100 14 100 10.5 100 7"></polygon>
                            <path d="M93.7701176,10.2226666 C93.7731561,6.36563216 96.1988451,2.92464027 99.8349248,1.61935745 C103.471005,0.314074623 107.536643,1.42480468 110,4.39645031 C108.214664,1.46563205 104.937162,-0.222386054 101.509665,0.0236562905 C98.0821676,0.269698635 95.0803752,2.40847485 93.7335517,5.5641347 C92.3867282,8.71979454 92.9210933,12.3622967 95.117819,15 C94.2340019,13.5628759 93.7674287,11.9089667 93.7701176,10.2226666 L93.7701176,10.2226666 Z" id="Path" fill="#FFFFFF" opacity="0.2"></path>
                        </g>
                    </g>
                </g>
            </g>
        </g>
    </g>
</svg>