<?xml version="1.0" encoding="UTF-8"?>
<svg width="27px" height="24px" viewBox="0 0 27 24" version="1.1" xmlns="http://www.w3.org/2000/svg" xmlns:xlink="http://www.w3.org/1999/xlink">
    <title>2DFDC58B-734B-4007-969A-3CB4CDA49E82</title>
    <g id="Web" stroke="none" stroke-width="1" fill="none" fill-rule="evenodd">
        <g id="Dashboard-Main-(No-wallet)" transform="translate(-15.000000, -532.000000)">
            <g id="Group-44" transform="translate(0.000000, 24.000000)">
                <g id="Group-43" transform="translate(0.000000, 56.000000)">
                    <g id="Group-42" transform="translate(0.000000, 99.000000)">
                        <g id="Group-41" transform="translate(15.500000, 0.000000)">
                            <g id="Group-40" transform="translate(0.000000, 61.000000)">
                                <g id="Group-36" transform="translate(0.000000, 35.000000)">
                                    <g id="Group-16" transform="translate(0.500000, 256.000000)">
                                        <g id="Subscribed-Services" transform="translate(0.500000, 1.000000)">
                                            <rect id="Rectangle" x="0" y="0" width="24" height="24"></rect>
                                            <g id="Group-3" transform="translate(6.000000, 6.120000)" stroke="#627382" stroke-width="0.7">
                                                <rect id="Rectangle" x="0" y="0" width="5.04" height="5.04" rx="1"></rect>
                                                <rect id="Rectangle-Copy-2" x="0" y="6.96" width="5.04" height="5.04" rx="1"></rect>
                                                <path d="M9.9,12 L7.96,12 C7.40771525,12 6.96,11.5522847 6.96,11 L6.96,7.96 C6.96,7.40771525 7.40771525,6.96 7.96,6.96 L11,6.96 C11.5522847,6.96 12,7.40771525 12,7.96 L12,10.068 L12,10.068" id="Path" stroke-linecap="round"></path>
                                                <rect id="Rectangle-Copy" x="6.96" y="0" width="5.04" height="5.04" rx="1"></rect>
                                            </g>
                                        </g>
                                    </g>
                                </g>
                            </g>
                        </g>
                    </g>
                </g>
            </g>
        </g>
    </g>
</svg>