<?xml version="1.0" encoding="UTF-8"?>
<svg width="57px" height="70px" viewBox="0 0 57 70" version="1.1" xmlns="http://www.w3.org/2000/svg" xmlns:xlink="http://www.w3.org/1999/xlink">
    <title>E217E53B-80A3-44BF-8319-F2077877D426</title>
    <g id="Web" stroke="none" stroke-width="1" fill="none" fill-rule="evenodd">
        <g id="Roaming" transform="translate(-684.000000, -382.000000)" fill="#006848" fill-rule="nonzero">
            <g id="Group-4-Copy" transform="translate(661.000000, 339.000000)">
                <g id="telephone-international-communication" transform="translate(23.000000, 43.000000)">
                    <path d="M56.7128086,17.8374904 C56.6405837,18.1894803 56.6385775,18.5634696 56.5001465,18.8974601 C55.6815979,20.8714037 54.1428069,22.5133568 53.0072714,24.3333048 C51.5487303,26.6592383 39.13809,21.6473815 40.7450934,18.5414702 C41.3469673,17.393503 43.6962818,14.2255936 43.8728315,12.95163 C44.0353375,11.8076626 42.5266402,10.9156881 41.1242739,10.8076912 C37.444818,10.5116997 19.5671562,10.5096997 15.885694,10.8076912 C14.4833278,10.9176881 12.9686117,11.8096626 13.1311177,12.95163 C13.3116799,14.2215937 15.6589882,17.393503 16.2628684,18.5414702 C17.8618467,21.6493814 5.45321267,26.6632382 3.99065903,24.3333048 C2.8611423,22.5073569 1.3223513,20.8754036 0.501796516,18.8974601 C0.361359267,18.5634696 0.361359267,18.1874804 0.28712815,17.8354904 C-1.53253735,9.72372218 5.48330636,1.45195852 16.0461937,0.605982686 C20.0827615,0.279992 24.1273543,0.0939973144 28.1739533,0.0219993714 L28.1739533,0.00199994286 C28.2842969,0.00399988572 28.3906279,0.00999971429 28.5009715,0.00999971429 C28.6093088,0.0139996 28.7176461,0.00399988572 28.8279897,0 L28.8279897,0.0199994286 C32.8765949,0.0939973144 36.9171752,0.279992 40.9557492,0.603982743 C51.5186366,1.4559584 58.5324741,9.72772207 56.7128086,17.8374904 Z M43.8186629,35.5149853 L43.6100132,35.8229765 L44.9662358,37.5649267 L45.7526844,37.0849404 C45.5761347,37.0269421 45.4176413,36.9189452 45.2832228,36.7449501 C45.2792103,36.7449501 44.2359621,36.0309705 43.8186629,35.5149853 Z M51.8737422,46.7026656 C51.8737422,59.5722979 41.4091609,70 28.5009715,70 C15.5927821,70 5.1261945,59.5662981 5.1261945,46.7026656 C5.1261945,33.8350333 15.5927821,23.4013302 28.5009715,23.4013302 C41.4111672,23.3973315 51.8737422,33.8330333 51.8737422,46.7026656 Z M13.0528741,32.2730779 C13.255505,32.1710808 13.4581359,32.0870832 13.6607668,32.0330848 C13.6607668,32.0330848 15.6148508,31.8290906 14.7983085,30.6111254 C14.1843971,31.1291106 13.6005794,31.6850947 13.0528741,32.2730779 Z M16.2688871,49.2485929 C16.2688871,49.2485929 15.9579189,48.2206223 14.3890342,48.2206223 C14.3890342,48.2206223 13.4501109,47.1966515 12.6155124,47.1966515 C12.6155124,47.1966515 12.3005317,44.3227336 10.7376657,44.9427159 C10.7376657,44.9427159 10.5270099,43.8167481 9.90106097,43.9147453 C9.90106097,43.9147453 9.48376172,42.7907774 8.75148178,43.0987686 L7.91688327,42.5807834 C7.91688327,42.5807834 7.8406459,42.7107797 7.72227736,42.9187737 C7.51764023,44.0907403 7.40529043,45.2947059 7.40529043,46.5206708 C7.40529043,52.4785006 9.9110922,57.8443473 13.9175663,61.6482386 C13.9255913,61.4762435 13.9717349,61.3002486 14.0740535,61.1322534 C14.0740535,61.1322534 14.493359,60.3162767 13.9697287,59.5922974 C13.9697287,59.5922974 14.493359,58.8823176 14.493359,57.9523442 C14.493359,57.9523442 13.9697287,56.316391 15.3279575,56.1123968 C15.3279575,56.1123968 17.2058042,56.1123968 16.2668808,52.8264907 C16.2668808,52.8264907 16.1605498,51.9025171 16.894836,50.9805434 C16.8968422,50.9925431 17.6271159,49.0405988 16.2688871,49.2485929 Z M17.5268036,28.6411817 C16.5878803,29.2111654 15.6971069,29.8491472 14.8645146,30.555127 C15.3460137,30.6011257 17.3342039,30.7471215 17.4686224,29.6171538 L17.5268036,28.6411817 Z M45.8670405,37.1209394 C46.2582585,37.2149367 46.6875952,37.10094 47.0025759,36.9769435 C43.8146504,30.8131196 37.6454426,26.4312448 30.3908556,25.7392646 C28.7176461,27.3632182 30.7720424,28.035199 30.7720424,28.035199 C31.5043224,28.5471844 33.0651821,27.6252107 33.0651821,27.6252107 C33.6931372,28.3391903 31.2916603,29.3671609 31.2916603,29.3671609 C29.9354377,29.469158 28.8941958,30.1871375 28.8941958,30.1871375 C28.2682469,29.2651639 27.6402918,29.9811434 27.6402918,29.9811434 C27.1226802,30.5951259 28.374578,30.9071169 28.374578,30.9071169 C29.2091765,31.1071112 28.9985206,31.6190966 28.6855462,31.9290877 C28.374578,32.235079 27.0143429,31.9290877 27.0143429,31.9290877 C26.2880817,32.339076 26.8056933,33.775035 26.8056933,33.775035 L27.4316421,33.775035 C29.5161322,34.3910174 29.620457,32.8510614 29.620457,32.8510614 C30.2464059,32.8510614 30.4570617,31.8230908 30.4570617,31.8230908 C30.9786858,32.339076 32.2305836,31.5190995 32.2305836,31.5190995 C32.3349084,31.9290877 32.9608573,32.5430702 32.9608573,32.5430702 C33.8997806,32.8510614 34.106424,33.2610497 34.106424,33.2610497 C33.1675006,33.4690437 34.0020992,33.879032 34.0020992,33.879032 C35.2539969,33.3630468 34.3130674,32.6510671 34.3130674,32.6510671 C31.9156029,31.5230993 32.9568448,31.2151081 32.9568448,31.2151081 C33.3761503,31.9290877 35.0473535,32.2390789 35.0473535,32.2390789 C35.2539969,33.5750407 35.881952,33.7790349 35.881952,33.7790349 C36.6082133,34.0850261 36.8188691,33.4710437 36.8188691,33.4710437 C36.0885954,33.2650496 35.9842706,32.655067 35.9842706,32.655067 C35.775621,32.0410845 36.7165506,32.4470729 36.7165506,32.4470729 C37.5511491,33.6750379 39.3266771,33.5750407 39.3266771,33.5750407 C40.4702376,33.4690437 40.1592694,35.5209851 40.1592694,35.5209851 C38.9073716,36.3409617 36.5058947,34.9030028 36.5058947,34.9030028 C36.7165506,35.6209823 35.7776272,35.7229793 35.7776272,35.7229793 C34.8326852,34.5990115 33.3781565,35.104997 33.3781565,35.104997 C33.6871185,34.5930116 33.1695069,33.775035 33.1695069,33.775035 C32.3329021,33.5690409 30.9786858,33.9810291 30.9786858,33.9810291 C29.9334314,34.3890175 27.9532662,34.4930145 27.9532662,34.4930145 C27.0123366,34.4930145 26.388394,36.3389617 26.388394,36.3389617 C24.2998915,37.2629353 24.0932481,39.1048827 24.0932481,39.1048827 C24.0932481,40.2348504 23.8845985,41.3628182 23.8845985,41.3628182 C23.1543248,42.4867861 25.2388148,43.7187509 25.2388148,43.7187509 C26.4927188,46.0826834 28.057591,45.0547127 28.057591,45.0547127 C29.3094888,45.570698 32.0239402,44.5427274 32.0239402,44.5427274 C32.3349084,45.570698 33.797462,45.256707 33.797462,45.256707 C34.3190861,45.5646982 34.1084302,46.5906688 34.1084302,46.5906688 C33.382169,47.8166338 34.7343791,48.9486015 34.7343791,48.9486015 C36.8228816,51.308534 35.4626465,51.9185166 35.4626465,51.9185166 C34.0020992,53.3544756 34.945035,54.5844404 34.945035,54.5844404 C35.9882831,56.8423759 35.9882831,58.7703208 35.9882831,58.7703208 C39.5353268,59.2803063 40.7872245,56.6363818 40.7872245,56.6363818 C41.9347975,56.6363818 41.9347975,55.6124111 41.9347975,55.6124111 C41.9347975,54.3824462 42.6650712,53.866461 42.6650712,53.866461 C44.3362744,52.7424931 44.0233,50.4885575 44.0233,50.4885575 C43.8146504,49.1565955 44.3362744,47.9286306 44.3362744,47.9286306 C46.3184459,45.6726951 46.2141211,42.2947916 46.2141211,42.2947916 C45.3815288,42.7047799 44.8578985,42.3967887 44.8578985,42.3967887 C42.9760394,40.5488415 40.6828997,36.5529556 40.6828997,36.5529556 C42.8737208,37.4749293 44.6492489,41.7828062 44.6492489,41.7828062 C45.9031529,41.160824 46.3204521,40.0368561 46.3204521,40.0368561 C47.5262062,38.9348876 46.1860336,37.4449301 45.8670405,37.1209394 Z" id="Shape"></path>
                </g>
            </g>
        </g>
    </g>
</svg>