<?xml version="1.0" encoding="UTF-8"?>
<svg width="78px" height="58px" viewBox="0 0 78 58" version="1.1" xmlns="http://www.w3.org/2000/svg" xmlns:xlink="http://www.w3.org/1999/xlink">
    <title>97797E3A-2BA4-4BDD-8E03-F228634F8E8A</title>
    <g id="Web" stroke="none" stroke-width="1" fill="none" fill-rule="evenodd">
        <g id="Airtime-Recharge" transform="translate(-880.000000, -368.000000)">
            <g id="Group-4-Copy-2" transform="translate(852.000000, 336.000000)">
                <g id="undraw_moving_forward_lhhd-(1)" transform="translate(28.000000, 32.000000)">
                    <path d="M76.5381413,25.8443963 L67.8627015,45.9204501 L64.894331,52.788767 C63.9302449,55.0185493 61.6515566,56.4736842 59.121832,56.4736842 L17.8877883,56.4736842 C15.3580637,56.4736842 13.0807107,55.0185493 12.1152893,52.788767 L11.7013465,51.8304749 L0.471479009,25.8443963 C-0.722946252,23.0797067 0.418734685,19.9009815 3.14207769,18.4117888 L5.86608835,16.9239317 L7.42438268,16.0724875 L15.2372191,11.8039136 L17.5125692,10.5604711 L20.4462219,8.95775253 L23.7891438,7.13132113 L26.1753237,5.82844448 L31.9838758,2.65372607 L33.3165046,1.9271603 L35.3448243,0.818613277 L35.4015745,0.788562304 C37.3378182,-0.262854101 39.6744727,-0.262854101 41.6107164,0.788562304 L51.9245685,6.42545715 L55.2347756,8.23452577 L55.2347756,8.23452577 L58.6317771,10.0903403 L60.9879128,11.3771898 L66.4406077,14.3549074 L66.4406077,14.3549074 L70.8070365,16.7409547 L70.8070365,16.7409547 L73.864872,18.4104532 C76.5908856,19.8989781 77.7325665,23.0797067 76.5381413,25.8443963 Z" id="Path" fill="#006848" opacity="0.1"></path>
                    <path d="M21.4482238,8.80509551 C21.2103052,8.77269496 20.8930803,8.7330943 20.5358852,8.6855735 L23.7125746,7.70095694 C25.4769791,7.95584122 27.174132,8.14304437 28.1848103,8.1088438 C28.1848103,8.1088438 28.4880772,8.42276908 27.6303013,8.42276908 C26.7725253,8.42276908 27.6042888,8.85981643 27.0745234,8.88717689 C26.5447579,8.91453735 26.1158699,9.09166033 25.686982,8.88717689 C25.258094,8.68269345 24.9808395,8.57325161 24.451074,8.61393229 C23.9213085,8.65461298 23.1891536,8.87313665 22.9366427,8.61393229 C22.6841317,8.35472793 22.8611432,8.99589872 21.4482238,8.80509551 Z" id="Path" fill="#006848" opacity="0.1"></path>
                    <path d="M48.8342591,6.70470558 C49.7631147,6.73466076 51.1856594,6.61237796 52.7537599,6.41746411 L56.4736842,7.52908858 C55.15693,7.61567136 55.3174915,7.00384704 55.0406355,7.27836781 C54.7405206,7.57381618 53.8761896,7.32473679 53.2496997,7.27836781 C52.6232099,7.23199883 52.2953343,7.35592301 51.7881401,7.58981963 C51.2809459,7.82371625 50.7737517,7.6205955 50.1472618,7.58981963 C49.5207719,7.55904376 50.5043986,7.06047465 49.4900102,7.06047465 C48.4756218,7.06047465 48.8342591,6.70470558 48.8342591,6.70470558 Z" id="Path" fill="#006848" opacity="0.1"></path>
                    <path d="M72.517658,24.1318581 C73.4241833,24.1318581 73.1043515,23.5403013 73.1043515,23.5403013 C70.6301812,23.6900539 64.2476263,21.5962275 62.1395527,20.8766017 L61.9135919,14.7313227 C63.0594881,15.495671 64.7867138,15.8155047 65.6087552,16.0187888 C67.101974,16.3779241 66.9155731,15.1704164 67.1817644,15.6589759 C67.4479556,16.1475354 68.2217205,15.7355462 68.7822643,15.6589759 C69.342808,15.5824055 69.635149,15.7870449 70.0884116,16.1726071 C70.5416743,16.5581693 70.9949369,16.2234281 71.5548102,16.1726071 C71.5795544,16.1709443 71.6040538,16.1666285 71.6278954,16.1597324 L67.2427805,13.7386186 L67.2427805,13.7386186 C65.0636332,13.1463841 62.9092946,12.4348897 61.8163684,12.0615245 L61.7667509,10.7171389 L59.4005321,9.41137722 L59.4535022,12.2709072 C56.8935069,13.1253781 51.4127838,14.8458394 49.1612217,14.7103167 C49.1612217,14.7103167 48.8407194,15.3011958 49.7472447,15.3011958 C50.65377,15.3011958 49.7747355,16.1238189 50.3346087,16.1753176 C50.894482,16.2268162 51.3477446,16.5608798 51.8010073,16.1753176 C52.2542699,15.7897553 52.5472814,15.5844384 53.1071546,15.6616863 C53.6670279,15.7389343 54.4407928,16.1495682 54.7076545,15.6616863 C54.9745163,15.1738045 54.7874449,16.3806345 56.2806637,16.0214992 C56.996765,15.8487077 58.3974539,15.5817279 59.5051312,15.0111772 L59.6144238,20.9274227 C57.3816359,21.6863501 51.2102907,23.6914091 48.7850674,23.5450446 C48.7850674,23.5450446 48.4652356,24.1366014 49.3717609,24.1366014 C50.2782862,24.1366014 49.3985811,24.9592245 49.9584544,25.0100455 C50.5183276,25.0608665 50.9715903,25.3956077 51.4248529,25.0100455 C51.8781156,24.6244833 52.1717976,24.4191663 52.7316708,24.4964143 C53.291544,24.5736622 54.0646385,24.9842962 54.3315002,24.4964143 C54.5983619,24.0085324 54.4112905,25.2153624 55.9051798,24.8562272 C56.7426429,24.652943 58.5201566,24.3229452 59.6600183,23.5281042 L59.777357,29.829912 C57.389682,30.6349171 51.5113483,32.5186833 49.1578692,32.377062 C49.1578692,32.377062 48.8373669,32.9679412 49.7438922,32.9679412 C50.6504175,32.9679412 49.7774175,33.7864986 50.3339382,33.8407077 C50.8904589,33.8949168 51.3470741,34.2255923 51.8003368,33.8407077 C52.2535994,33.4558231 52.5466109,33.2491509 53.1064841,33.3263989 C53.6663574,33.4036469 54.4401223,33.8142808 54.706984,33.3263989 C54.9738458,32.838517 54.7867744,34.0453471 56.2799932,33.6862118 C57.0678387,33.4964799 58.6871128,33.1915538 59.8296565,32.4936116 L60.0891427,46.3996008 L60.0891427,46.3996008 C57.3916935,47.2879524 54.796832,48.5449259 51.9760096,48.9291328 C47.2650283,49.5708331 42.454812,47.7094281 37.7646164,47.7568611 L37.3944966,37.6949747 C38.4673076,38.2011521 39.7519988,38.4478035 40.4265287,38.6104308 C41.920418,38.9695661 41.7340171,37.762736 42.0002083,38.2506179 C42.2663996,38.7384998 43.0401645,38.3271883 43.6000377,38.2506179 C44.159911,38.1740476 44.453593,38.3786869 44.9068556,38.7649268 C45.3601183,39.1511666 45.8133809,38.8157478 46.3732541,38.7649268 C46.9331274,38.7141057 46.0540929,37.890805 46.9606182,37.890805 C47.8671435,37.890805 47.5466412,37.2999259 47.5466412,37.2999259 C45.3058072,37.4354486 39.8666555,35.7326053 37.2878861,34.8747463 L37.0518676,28.4550337 C38.1977639,29.2451313 39.96522,29.5744516 40.800001,29.7757029 C42.2932198,30.1348382 42.1068189,28.9280081 42.3730102,29.41589 C42.6392014,29.9037719 43.4136368,29.4924604 43.9735101,29.41589 C44.5333833,29.3393197 44.8263948,29.543959 45.2796574,29.9301988 C45.7329201,30.3164387 46.1861827,29.9803423 46.7467265,29.9301988 C47.3072702,29.8800554 46.4268947,29.0560771 47.33342,29.0560771 C48.2399453,29.0560771 47.919443,28.4651979 47.919443,28.4651979 C45.4439316,28.614273 39.0633882,26.5204465 36.9553146,25.8008207 L36.7286833,19.6555417 C37.8752501,20.41989 39.6024758,20.7397237 40.4238467,20.9430078 C41.917736,21.3021431 41.7313351,20.0946354 41.9975263,20.5831949 C42.2637175,21.0717544 43.0374825,20.6597653 43.5973557,20.5831949 C44.1572289,20.5066246 44.450911,20.7112639 44.9041736,21.0968261 C45.3574362,21.4823884 45.8106989,21.1476472 46.3705721,21.0968261 C46.9304454,21.0460051 46.0514109,20.223382 46.9579361,20.223382 C47.8644614,20.223382 47.5439591,19.6325029 47.5439591,19.6325029 C45.0905745,19.7788674 38.7925035,17.7189217 36.6354829,16.9816779 L36.4101926,10.8675691 C37.527257,11.808097 39.524697,12.1767189 40.4278697,12.3942329 C41.921759,12.7533682 41.7353581,11.5465381 42.0015494,12.03442 C42.2677406,12.5223019 43.0415055,12.1109904 43.6013787,12.03442 C44.161252,11.9578496 44.454934,12.162489 44.9081966,12.5487288 C45.3614593,12.9349687 45.8147219,12.5995499 46.3745952,12.5487288 C46.9344684,12.4979078 46.0554339,11.6746071 46.9619592,11.6746071 C47.8684845,11.6746071 47.5479822,11.0837279 47.5479822,11.0837279 C44.9564731,11.2402567 38.0864597,8.93840283 36.3169921,8.32787285 L36.1761857,4.48241488 C37.2657593,5.01908496 38.6061026,5.27522296 39.3007477,5.44259355 C40.7939665,5.80172883 40.6075656,4.59422115 40.8737568,5.08278065 C41.139948,5.57134016 41.9143835,5.15935101 42.4742567,5.08278065 C43.0341299,5.0062103 43.3271414,5.21084965 43.7804041,5.59641187 C44.2336667,5.98197409 44.6869294,5.6472329 45.2468026,5.59641187 C45.8066758,5.54559084 44.9276413,4.72229014 45.8341666,4.72229014 C46.7406919,4.72229014 46.4201896,4.13141096 46.4201896,4.13141096 C44.1518649,4.26693371 38.6081141,2.52343356 36.0722571,1.67573878 L36.0105705,0 L33.9729001,1.12551642 L33.9782641,1.41282465 C33.6523978,1.52463091 33.1917596,1.68387014 32.6372504,1.86276017 L26.8038406,5.08413588 C27.3637139,5.16138385 28.1347968,5.57066255 28.400988,5.08413588 C28.6671792,4.59760922 28.4807783,5.80308406 29.9746676,5.44394878 C30.886557,5.22372431 32.9161813,4.84968153 34.0265406,3.88543718 L34.1163886,8.69649472 C31.4920247,9.56993883 26.1856333,11.2219611 23.9789952,11.0864384 C23.9789952,11.0864384 23.6591634,11.6773176 24.5656887,11.6773176 C25.472214,11.6773176 24.592509,12.4999406 25.1523822,12.5514393 C25.7122554,12.6029379 26.1661886,12.9363239 26.6194512,12.5514393 C27.0727139,12.1665547 27.3657254,11.9605601 27.9255986,12.0371305 C28.4854719,12.1137008 29.2592368,12.5250123 29.5260985,12.0371305 C29.7929603,11.5492486 29.6058888,12.7560786 31.0991076,12.3969433 C31.7810131,12.2329608 33.0858195,11.9822437 34.1653356,11.4659021 L34.2719462,17.193771 C31.7119509,18.0482419 26.2312278,19.7687032 23.9789952,19.6331805 C23.9789952,19.6331805 23.6591634,20.2240596 24.5656887,20.2240596 C25.472214,20.2240596 24.592509,21.0466827 25.1523822,21.0975038 C25.7122554,21.1483248 26.1661886,21.483066 26.6194512,21.0975038 C27.0727139,20.7119415 27.3657254,20.5066246 27.9255986,20.5838725 C28.4854719,20.6611205 29.2592368,21.0717544 29.5260985,20.5838725 C29.7929603,20.0959906 29.6058888,21.3028207 31.0991076,20.9436854 C31.8145385,20.7715715 33.2158978,20.5039141 34.3229047,19.9333634 L34.4328678,25.8496089 C32.1994094,26.603793 26.0280642,28.6108849 23.6035113,28.4651979 C23.6035113,28.4651979 23.2830091,29.0560771 24.1895343,29.0560771 C25.0960596,29.0560771 24.2170251,29.8787002 24.7768984,29.9301988 C25.3367716,29.9816975 25.7900342,30.3150834 26.2432969,29.9301988 C26.6965595,29.5453142 26.989571,29.3393197 27.5494443,29.41589 C28.1093175,29.4924604 28.8830824,29.9037719 29.1499442,29.41589 C29.4168059,28.9280081 29.2297345,30.1348382 30.7236238,29.7757029 C31.5604164,29.5724188 33.3386006,29.2424209 34.4818148,28.44758 L34.5991535,34.7527758 C32.2101375,35.5584586 26.3331448,37.4415471 23.9789952,37.2999259 C23.9789952,37.2999259 23.6591634,37.890805 24.5656887,37.890805 C25.472214,37.890805 24.592509,38.7134281 25.1523822,38.7649268 C25.7122554,38.8164254 26.1661886,39.1498114 26.6194512,38.7649268 C27.0727139,38.3800422 27.3657254,38.1740476 27.9255986,38.2506179 C28.4854719,38.3271883 29.2592368,38.7384998 29.5260985,38.2506179 C29.7929603,37.762736 29.6058888,38.9695661 31.0991076,38.6104308 C31.8869532,38.420699 33.5062273,38.1157728 34.648771,37.4178307 L34.8499231,48.0760171 L34.8499231,48.0760171 L34.7647687,48.0949903 C32.8638817,48.5334064 31.1038012,49.439376 29.1928566,49.8154516 C26.0749997,50.4314025 22.7305114,49.627075 19.5576729,49.4996836 L18.9790255,33.7864986 C20.0518364,34.2926761 21.3365276,34.5393275 22.011728,34.7019548 C23.5049468,35.0610901 23.3185459,33.85426 23.5847371,34.3421419 C23.8509284,34.8300238 24.6246933,34.4187122 25.185237,34.3421419 C25.7457808,34.2655715 26.0381218,34.4702109 26.4913844,34.8564507 C26.9446471,35.2426905 27.3979097,34.9072717 27.957783,34.8564507 C28.5176562,34.8056297 27.6386217,33.982329 28.545147,33.982329 C29.4516723,33.982329 29.13117,33.3914498 29.13117,33.3914498 C26.890336,33.5269726 21.4511843,31.8241292 18.8757674,30.9662702 L18.639749,24.5465577 C19.7849747,25.3366553 21.5531013,25.6659756 22.3872119,25.8672269 C23.8811012,26.2263621 23.6947003,25.0195321 23.960221,25.507414 C24.2257417,25.9952959 25.0008477,25.5839843 25.5607209,25.507414 C26.1205941,25.4308436 26.4142761,25.635483 26.8675388,26.0217228 C27.3208014,26.4079626 27.7740641,26.0718662 28.3339373,26.0217228 C28.8938105,25.9715794 28.0141055,25.1476011 28.9206308,25.1476011 C29.8271561,25.1476011 29.5073243,24.5567219 29.5073243,24.5567219 C27.0311425,24.7057969 20.6505991,22.6119705 18.5425255,21.8923447 L18.3158942,15.7470657 C19.4624609,16.5120916 21.1896866,16.8312477 22.011728,17.0345318 C23.5049468,17.3936671 23.3185459,16.1861594 23.5847371,16.6747189 C23.8509284,17.1632784 24.6246933,16.7512892 25.185237,16.6747189 C25.7457808,16.5981485 26.0414743,16.7987222 26.4913844,17.184962 C26.9412945,17.5712019 27.3979097,17.2351054 27.957783,17.184962 C28.5176562,17.1348186 27.6386217,16.3108403 28.545147,16.3108403 C29.4516723,16.3108403 29.13117,15.7199611 29.13117,15.7199611 C26.6751033,15.8683585 20.3763618,13.8084128 18.2186707,13.0725242 L18.101332,9.88773968 L15.8162446,11.1474236 L15.8558045,13.2819069 C13.9857608,13.9066668 10.5588002,14.992204 7.96796163,15.4787306 L6.4029986,16.3426881 C6.86698935,16.4958289 6.24341796,17.1388843 6.73825203,17.184962 C7.29812527,17.2351054 7.75138791,17.5698466 8.20465056,17.184962 C8.6579132,16.8000774 8.95092471,16.5934052 9.51079794,16.6706532 C10.0706712,16.7479012 10.8444361,17.1585351 11.1112978,16.6706532 C11.3781596,16.1827713 11.1910882,17.3896014 12.684307,17.0304661 C13.4004083,16.8583522 14.8010971,16.5906948 15.9087745,16.020144 L16.0180671,21.9363896 C13.7852792,22.695317 7.61393401,24.7010536 5.18871066,24.554689 C5.18871066,24.554689 4.86887888,25.1455682 5.77540417,25.1455682 C6.68192946,25.1455682 5.80222444,25.9681913 6.36209768,26.01969 C6.92197092,26.0711886 7.37523356,26.4045746 7.8284962,26.01969 C8.28175885,25.6348053 8.57544086,25.4288108 9.1353141,25.5053811 C9.69518733,25.5819515 10.4682818,25.993263 10.7351435,25.5053811 C11.0020052,25.0174992 10.8149338,26.2243293 12.3088231,25.865194 C13.1462862,25.6619099 14.9237999,25.331912 16.0670141,24.5370711 L16.1850233,30.8422669 C13.7973484,31.6479497 7.91901463,33.5310382 5.56553552,33.389417 C5.56553552,33.389417 5.24503323,33.9802962 6.15155852,33.9802962 C7.05808381,33.9802962 6.1783788,34.8029192 6.73892254,34.8544179 C7.29946628,34.9059165 7.75205842,35.2393025 8.20532107,34.8544179 C8.65858371,34.4695333 8.95159521,34.2635387 9.51146845,34.340109 C10.0713417,34.4166794 10.8451066,34.8279909 11.1119683,34.340109 C11.3788301,33.8522272 11.1917587,35.0590572 12.6849775,34.6999219 C13.472823,34.5101901 15.0920971,34.2052639 16.2346408,33.5073218 L16.5356984,49.6616333 L16.5356984,49.6616333 C15.7298259,49.7977018 14.9471397,50.0486624 14.2110511,50.4070084 C13.5018702,50.7620584 12.8469899,51.2184871 12.2665812,51.7622359 L12.6822954,52.7346116 C13.6505074,54.9971639 15.9389473,56.4736842 18.4794978,56.4736842 L59.8886611,56.4736842 C62.4292117,56.4736842 64.7163106,54.9971639 65.6858635,52.7346116 L68.6669371,45.7653543 C66.8167095,45.3832905 64.9133737,45.3424283 63.04876,45.6447391 L63.04876,45.6447391 L62.5794052,32.770078 C63.6522162,33.2762555 64.9369074,33.5222293 65.6121078,33.6855342 C67.1053266,34.0446695 66.9189257,32.8371618 67.1851169,33.3257213 C67.4513081,33.8142808 68.225073,33.4022916 68.7856168,33.3257213 C69.3461605,33.2491509 69.6385015,33.4537903 70.0917642,33.8400301 C70.5450268,34.2262699 70.9982895,33.8901735 71.5581627,33.8400301 C72.1180359,33.7898867 71.2390014,32.9659084 72.1455267,32.9659084 C73.052052,32.9659084 72.7315497,32.3750292 72.7315497,32.3750292 C70.4907158,32.510552 65.051564,30.8077086 62.4761471,29.9498496 L62.2401287,23.5301371 C63.3853545,24.3195571 65.1534811,24.649555 65.9875916,24.8508063 C67.4814809,25.2099415 67.29508,24.0024339 67.5606007,24.4909934 C67.8261215,24.9795529 68.6012274,24.5675637 69.1611006,24.4909934 C69.7209739,24.414423 70.0146559,24.6190624 70.4679185,25.0046246 C70.9211812,25.3901868 71.3744438,25.0554456 71.9343171,25.0046246 C72.4941903,24.9538035 71.6111327,24.1318581 72.517658,24.1318581 Z" id="Path" fill="#006848" opacity="0.1"></path>
                    <path d="M60.2142383,12.6004524 C60.7200005,15.4357967 59.3164355,17.9688995 59.3164355,17.9688995 C59.3164355,17.9688995 57.0891364,15.9047485 56.5833742,13.0694041 C56.0776119,10.2340597 57.4849178,7.70095694 57.4849178,7.70095694 C57.4849178,7.70095694 59.708476,9.765108 60.2142383,12.6004524 Z" id="Path" fill="#006848"></path>
                    <path d="M67.3728978,17.9690963 C69.1450513,17.9561406 70.5921053,18.5871337 70.5921053,18.5871337 C70.5921053,18.5871337 69.1660021,19.2392399 67.3938486,19.2521957 C65.6216951,19.2651514 64.1746411,18.6336785 64.1746411,18.6336785 C64.1746411,18.6336785 65.6007443,17.9815722 67.3728978,17.9690963 Z" id="Path" fill="#006848"></path>
                    <path d="M63.7550915,12.5982277 C61.9826416,14.3699506 61.6076555,16.6854067 61.6076555,16.6854067 C61.6076555,16.6854067 64.1060102,16.1275506 65.8776836,14.3551215 C67.6493571,12.5826925 68.0251196,10.2679426 68.0251196,10.2679426 C68.0251196,10.2679426 65.5275413,10.8257987 63.7550915,12.5982277 Z" id="Path" fill="#006848"></path>
                    <rect id="Rectangle" fill="#B4C404" x="19.2523923" y="14.1184211" width="46.2057416" height="42.7368421" rx="6.39453125"></rect>
                    <g id="Group" opacity="0.1" transform="translate(25.669856, 30.803828)" fill="#000000">
                        <path d="M35.6479358,6.21479989 L34.4950407,6.75471781 L25.1826913,11.1238408 L24.3609748,11.5067613 C24.2471386,11.5591814 24.116172,11.5637874 23.9987445,11.5195008 C23.881317,11.4752142 23.7877421,11.3859246 23.7399329,11.2725416 C23.7181341,11.2200221 23.7069989,11.1638896 23.707143,11.1072476 L23.707143,8.52636337 C23.7071494,8.28087617 23.5036126,8.08137626 23.2513625,8.07962278 L0.521360406,8.07962278 C0.269103884,8.07962904 0.0641027612,7.88155413 0.062300929,7.63607318 L0.062300929,3.99194632 C0.062300929,3.74521831 0.267828858,3.54520573 0.521360406,3.54520573 L23.2513625,3.54520573 C23.5023394,3.54346729 23.7053566,3.3458981 23.707143,3.10165614 L23.707143,0.463333818 C23.7069989,0.406691859 23.7181341,0.350559331 23.7399329,0.298039798 C23.7879722,0.184549277 23.8818777,0.0952930727 23.9995978,0.051231153 C24.1173178,0.00716923322 24.248481,0.0121835109 24.3622864,0.0650964868 L25.1826913,0.453760805 L34.4950407,4.86883429 L35.6499032,5.41449602 C35.805892,5.49030264 35.9042861,5.64556362 35.9038703,5.81524151 C35.9034518,5.98491941 35.8042955,6.13972046 35.6479358,6.21479989 L35.6479358,6.21479989 Z" id="Path"></path>
                    </g>
                    <path d="M61.3510339,37.0096385 L60.1950434,37.550643 L50.8576916,41.9285593 L50.033769,42.3122505 C49.9196271,42.364776 49.7883089,42.3693913 49.6705661,42.3250156 C49.5528233,42.2806399 49.4589972,42.1911705 49.4110597,42.0775594 C49.3892023,42.0249341 49.3780372,41.9686886 49.3781817,41.9119327 L49.3781817,39.3258542 C49.3781881,39.0798729 49.1741048,38.8799715 48.9211775,38.8782145 L26.1301484,38.8782145 C25.8772147,38.8782208 25.6716631,38.6797472 25.6698565,38.4337722 L25.6698565,34.7823112 C25.6698565,34.5350867 25.8759362,34.3346715 26.1301484,34.3346715 L48.9211775,34.3346715 C49.1728283,34.3329296 49.3763905,34.1349628 49.3781817,33.8902293 L49.3781817,31.2465971 C49.3780372,31.1898412 49.3892023,31.1335957 49.4110597,31.0809704 C49.4592279,30.9672515 49.5533856,30.8778156 49.6714217,30.8336651 C49.7894577,30.7895145 49.9209731,30.7945388 50.0350841,30.8475583 L50.8576916,31.2370048 L60.1950434,35.660964 L61.3530066,36.2077239 C61.5094142,36.2836831 61.6080724,36.4392566 61.6076555,36.609276 C61.6072359,36.7792954 61.5078134,36.934408 61.3510339,37.0096385 L61.3510339,37.0096385 Z" id="Path" fill="#006848"></path>
                    <path d="M12.8338717,45.5523647 C12.8571523,46.0759782 12.4915103,46.5400903 12.1491489,46.9572274 C11.9935251,47.1527329 11.8528232,47.3578211 11.7280444,47.5710328 C11.3514469,48.1848382 10.5421045,48.4767089 10.103882,49.0554397 C9.99774992,49.1957381 9.91558318,49.3498158 9.82314561,49.4982565 C9.50568958,50.0087335 9.10691807,50.4731342 8.63994462,50.8761869 L7.84772034,51.5551309 C7.62244654,51.7480411 7.39237968,51.9465884 7.25885874,52.2015055 C7.10616555,52.4952553 7.09794888,52.8278376 7.10685028,53.1566619 C7.10685028,53.1929891 7.10685028,53.2286901 7.10685028,53.264391 C7.10685028,53.2894443 7.10685028,53.3138712 7.10685028,53.3389245 C7.12054473,53.7366453 7.14040169,54.1362452 7.24379483,54.5214394 C7.27803097,54.6467058 7.32048379,54.7782355 7.26707541,54.8972386 C7.21024342,55.022505 7.06165857,55.0920279 6.91718206,55.1358711 C6.76243471,55.182846 6.59262346,55.214789 6.4378761,55.1653087 C6.28312875,55.1158285 6.176312,54.9936937 6.08113553,54.873438 C5.61894764,54.2909492 5.43133359,53.57192 5.15607503,52.8973604 C5.09855832,52.757062 5.16018337,52.596721 5.26152234,52.479597 C5.3715054,52.3688988 5.4925413,52.26783 5.62305598,52.1777049 C6.17083421,51.7392725 6.42349693,51.0816239 6.6330221,50.4465232 C6.84254728,49.8114225 7.04385578,49.1468842 7.51973812,48.6483239 C7.82923283,48.3245102 8.23527344,48.0927674 8.58037373,47.8008967 C9.43970084,47.0730988 9.86902203,46.0108397 10.0936111,44.9586019 C10.3580937,44.9135213 10.6290777,44.9103434 10.8947368,44.9492069 L12.3073199,45.1208219 C12.4600131,45.1396118 12.6270855,45.1652915 12.7263703,45.2723942 C12.7946429,45.352487 12.8323969,45.4508111 12.8338717,45.5523647 Z" id="Path" fill="#A1616A"></path>
                    <path d="M17.9632334,45.7957318 C17.936317,46.0030943 17.8682138,46.2017913 17.7635534,46.3783157 C17.6088267,46.6324941 17.433833,46.871706 17.2405525,47.0932445 C16.7534075,47.6917895 16.6711863,48.5510341 16.3608477,49.2752736 C16.2600804,49.5107013 16.1352031,49.732828 16.0331994,49.9669257 C15.7655169,50.582762 15.6672224,51.260448 15.6091112,51.9414592 C15.6016928,52.0292458 15.5948925,52.1170324 15.5887105,52.204154 C15.5800556,52.3125571 15.5732554,52.4209603 15.5658369,52.5286984 C15.5466726,52.8140049 15.5299811,53.1139424 15.6418761,53.3733119 C15.6993691,53.506322 15.7933361,53.6167203 15.7970454,53.7636963 C15.605402,53.9632113 15.2765173,53.9405996 15.0552001,53.7783274 C14.833883,53.6160552 14.6960234,53.3526954 14.5841284,53.0900006 C14.3786261,52.6084373 14.2301266,52.1010281 14.1421123,51.579672 C14.108111,51.380157 14.0926559,51.1493846 14.2243335,51.0057338 C14.2904813,50.9339084 14.3825938,50.8979957 14.4567783,50.835481 C14.6193661,50.6984807 14.6663496,50.4590627 14.7040601,50.236936 C14.8277009,49.4832126 14.9527843,48.7294892 15.0793101,47.9757659 C15.1071075,47.7914372 15.143629,47.6087543 15.1887323,47.4284297 C15.2944452,47.0300647 15.4551784,46.582486 15.7593349,46.316466 C15.838967,46.2371116 15.8751501,46.1193322 15.8551566,46.0045575 C15.8337546,45.892169 15.7935354,45.7849032 15.7364613,45.6879937 C15.5095803,45.2517209 15.2388068,44.814118 14.8307919,44.5747 C15.2542419,44.1933971 15.7370898,43.8957398 16.2569894,43.6955038 C16.3486487,43.6496768 16.4500393,43.6310769 16.5506365,43.6416348 C16.6043951,43.6546171 16.6557834,43.6770896 16.7027148,43.7081398 C16.9827613,43.8770625 17.1972782,44.1430825 17.4025221,44.4091025 C17.7085332,44.8094626 18.0145444,45.2803181 17.9632334,45.7957318 Z" id="Path" fill="#A1616A"></path>
                    <path d="M8.23470278,54.8196815 C8.0952774,54.6797038 7.93427471,54.5661499 7.75869539,54.4839572 C7.71907558,54.4594216 7.67507115,54.44393 7.62949339,54.438472 C7.52001169,54.4326961 7.43773041,54.5373843 7.34388896,54.5980313 C7.18802969,54.6868548 7.00062048,54.6868548 6.84476121,54.5980313 C6.69233039,54.5077873 6.56425817,54.3775267 6.47279544,54.2197097 C6.27287234,53.9063671 6.23343173,53.5937464 6.15047044,53.2500803 L7.02224397,53.0753593 C7.1810454,53.0364504 7.33426061,52.9752658 7.47785104,52.8934184 C7.47785104,52.8645389 7.47785104,52.8363814 7.47785104,52.8075019 C7.47785104,52.7663486 7.47785104,52.7251953 7.47785104,52.68332 C7.31668854,52.7345811 6.97464323,52.8999163 6.89372197,52.9222979 C6.63116197,52.9857688 6.36491709,53.030631 6.09674961,53.0565876 C6.05526896,52.9692271 5.99542803,52.8934184 5.94714728,52.8075019 C5.84954729,52.6348683 5.78765636,52.4421638 5.76558447,52.2421856 C5.76344491,52.163187 5.74896788,52.0851137 5.7227438,52.0111495 C5.69371152,51.9325886 5.61792969,51.8852066 5.53914095,51.8963535 C5.51087303,51.9047409 5.48434427,51.9187016 5.46093974,51.9375068 C5.21701882,52.1165219 5.02788237,52.3675368 4.9169313,52.6594944 C4.75304876,53.092687 4.77684913,53.5793067 4.71292813,54.0421008 C4.66396737,54.3886549 4.56332581,54.732321 4.58100609,55.082485 C4.57844733,55.1031996 4.58446533,55.1240754 4.59750581,55.1397208 C4.61054629,55.1553662 4.62933055,55.164247 4.64900714,55.1640696 C4.83056996,55.2066669 5.0393332,55.2434882 5.18689549,55.1236383 C5.33445778,55.0037883 5.35553811,54.7770842 5.38409855,54.5799816 C5.42245323,54.3168977 5.49763172,54.0613787 5.60714201,53.8218945 C5.83246592,54.1148012 5.95055358,54.4842666 5.93966717,54.8622788 C5.93966717,55.0709332 5.91518679,55.3077451 6.04982888,55.4600845 C6.11589816,55.527628 6.19639484,55.5771734 6.28443252,55.6044821 C6.46336147,55.6709541 6.64923177,55.7141079 6.83796111,55.7329959 C7.17796638,55.7676513 7.52409175,55.7221661 7.86477704,55.6766808 C7.97221871,55.6622411 8.08034038,55.6478013 8.18710204,55.6225318 C8.24152285,55.6136373 8.29309494,55.5908431 8.33738437,55.5561089 C8.38658426,55.5084914 8.4179695,55.4436404 8.42578574,55.373446 C8.44678262,55.167337 8.37613842,54.9626078 8.23470278,54.8196815 L8.23470278,54.8196815 Z" id="Path" fill="#464353"></path>
                    <path d="M15.9178535,53.4469629 C15.8252999,53.3594516 15.7206589,53.2869788 15.6074454,53.2319787 C15.5156462,53.1726975 15.4120428,53.1361939 15.3046082,53.125277 C15.1812021,53.125277 15.0683952,53.1885076 14.9540742,53.2375114 C14.8397531,53.2865151 14.7057477,53.3165497 14.5982405,53.253319 C14.5137571,53.1884558 14.4518283,53.0966112 14.4218378,52.9917023 C14.2855611,52.6518376 14.1825965,52.297746 14.0637329,51.9515582 C14.0917005,51.9056214 14.1327334,51.8699698 14.1810823,51.8495988 C14.2184835,51.8385537 14.2573225,51.8337521 14.2961604,51.8353719 C14.447579,51.8353719 14.9078915,51.8353719 15.1524325,51.746849 C15.1600035,51.6433088 15.1683315,51.5389783 15.1774166,51.4346477 C14.9881434,51.3935478 14.6633505,51.4646823 14.577799,51.4891842 C14.4377368,51.5263322 14.2946462,51.5808686 14.1530698,51.5492533 C14.0546478,51.5279129 13.9615253,51.4654727 13.8653745,51.4520362 C13.8199489,51.3643036 13.7707379,51.2797327 13.7237981,51.1935809 C13.6041774,50.9722737 13.5670799,50.7146088 13.4504876,50.500415 C13.4148571,50.4246731 13.3433537,50.3744065 13.2627285,50.3684211 C13.177835,50.381236 13.1011615,50.4283547 13.0492283,50.4996246 C12.8561696,50.7043338 12.6578113,50.9161565 12.5472757,51.179354 C12.5000316,51.2983161 12.4635327,51.4216243 12.4382543,51.5476725 C12.2791722,52.2552094 12.2029057,52.9802827 12.2111264,53.7069989 C12.3870332,53.7655227 12.5729417,53.7838528 12.7562333,53.7607449 C12.8501129,53.2717613 12.9649386,52.7877834 13.1007106,52.3088113 C13.1038162,52.2908551 13.1132746,52.2747741 13.1272089,52.2637595 C13.1567355,52.2471615 13.1877763,52.2811479 13.2029182,52.3111825 C13.3682524,52.5680133 13.5020425,52.8455004 13.6011491,53.1371327 C13.6624736,53.3450035 13.690486,53.5702626 13.8063213,53.7512603 C13.9302441,53.9292195 14.1100047,54.0561939 14.3143306,54.1100942 C14.5172166,54.1629681 14.7252948,54.1910831 14.9343898,54.1938748 L15.2447979,54.2096825 C15.4128313,54.2302627 15.5830988,54.2163001 15.7459934,54.1685826 C15.9049829,54.1108846 16.0488306,53.969406 16.0609441,53.793941 C16.0630371,53.6622276 16.0109398,53.5358975 15.9178535,53.4469629 L15.9178535,53.4469629 Z" id="Path" fill="#464353"></path>
                    <path d="M17.7934419,45.6703966 C17.6707458,45.7971799 17.4903534,45.8450922 17.3194553,45.8871077 L16.8001881,46.0146281 C16.742242,46.0210014 16.6894328,46.0511155 16.6541213,46.0979218 C16.6241776,46.1524682 16.6453573,46.2210196 16.6307507,46.2814629 C16.6250385,46.305406 16.6137745,46.3276379 16.5978856,46.3463288 C16.5245839,46.4123186 16.4287259,46.4469468 16.3305835,46.4428905 C16.2450052,46.4394143 16.1595399,46.4521656 16.0786184,46.4804833 C16.0446665,46.4953827 16.0153781,46.5193367 15.9938997,46.5497718 C15.9676077,46.5881017 15.9566527,46.6352769 15.9289,46.6721325 C15.8816136,46.7235905 15.8181281,46.7569302 15.7492379,46.7664829 C15.6770954,46.7830243 15.6038765,46.7943554 15.5301378,46.8003901 C15.2410026,46.8245826 14.9507721,46.7693091 14.690254,46.6404367 C14.6288402,46.5976919 14.5538561,46.5795602 14.4799179,46.5895759 C14.4366025,46.6050868 14.399783,46.6349717 14.3754802,46.6743438 C14.3487708,46.7162465 14.3197554,46.7566053 14.2885705,46.7952303 C14.1541891,46.9426528 13.9234037,46.9028487 13.7298652,46.8615704 C13.6108209,46.8357715 13.4910461,46.8136581 13.3712714,46.7937561 C12.6555444,46.6758181 11.925941,46.6522305 11.197068,46.6308542 C10.2549376,46.6021068 9.3128071,46.5763079 8.40062032,46.3514886 C8.20196956,46.3028391 7.96242011,46.1878496 7.97191445,45.9829323 C7.97848745,45.8657314 8.07050949,45.7617985 8.06977916,45.646809 C8.06977916,45.4463144 7.82657804,45.3386959 7.63157895,45.3055259 C7.70461232,44.2101767 8.35387896,43.2511932 8.69348413,42.2096532 C8.77820284,41.9509267 8.83955087,41.6855662 8.93522458,41.4297882 C9.34859345,40.2769442 10.2563982,39.3924091 11.0115633,38.4326886 C11.1271102,38.2980231 11.2221238,38.1467269 11.2934721,37.9837871 C11.3582927,37.7881583 11.3920615,37.5834164 11.3935278,37.3771435 L11.4351568,36.6555103 C12.5547583,36.6024382 13.6422252,36.6238145 14.7377257,36.8626389 C14.7974444,36.8608561 14.8553983,36.8832024 14.8987269,36.924719 C14.9420555,36.9662356 14.967175,37.0234885 14.9685112,37.0837727 C15.0108705,37.347659 15.0405708,37.6127738 15.0576119,37.8791171 C15.0581295,37.9379642 15.0664814,37.9964742 15.0824432,38.0530757 C15.1111929,38.1246457 15.151139,38.191094 15.2007573,38.2498847 C15.8346869,39.0887188 16.2232245,40.0926661 16.5299646,41.0980875 C16.8367048,42.103509 17.0806362,43.1369408 17.4662524,44.1202489 C17.5991731,44.4593207 17.7729925,44.8404079 17.8080486,45.2038043 C17.946812,45.3077372 17.9161379,45.5428761 17.7934419,45.6703966 Z" id="Path" fill="#464353"></path>
                    <path d="M12.8349282,44.9222488 C12.4124146,44.8161385 11.9817095,44.7949164 11.5514354,44.7756839 C11.5632198,44.1655495 11.5751479,43.5554152 11.5872197,42.9452808 C11.5954113,42.5394088 11.6031718,42.1328736 11.6346447,41.7303175 C11.6777583,41.1573218 11.7700215,40.5956002 11.815722,40.0232677 C11.8416541,39.6954374 11.8536078,39.3653476 11.8515063,39.0351153 C11.8493506,38.6988782 11.8338297,38.3606515 11.869614,38.0290567 C11.8989313,37.7564858 11.9765358,37.3705095 12.1403676,37.2212919 C12.2498762,37.4520818 12.0817331,38.0967021 12.0619008,38.3725889 C12.021374,38.946911 12.1222599,39.5192436 12.2089183,40.0809652 C12.3132533,40.7554289 12.3986183,41.4365246 12.4835521,42.1176202 C12.6008212,43.0522754 12.7179466,43.9871516 12.8349282,44.9222488 Z" id="Path" fill="#000000" opacity="0.1"></path>
                    <path d="M14.1184211,46.2004009 C13.9001084,46.2237034 13.6809687,46.1704634 13.4842635,46.0463324 C13.4378928,46.0051602 13.3812757,45.9876956 13.3254484,45.9973428 C13.292743,46.0122831 13.2649423,46.0410685 13.2465923,46.0789921 C13.0602052,44.939453 13.0701311,43.7537644 12.9228963,42.6000254 C12.8677522,42.1896494 12.7971677,41.7707534 12.8589291,41.3625073 C12.9251021,40.9265715 13.1385098,40.5481451 13.2217775,40.1171792 C13.2769216,39.833182 13.2725101,39.5399548 13.26865,39.2495675 C13.2647899,38.9591803 13.1986169,38.7639322 13.1247238,38.5047847 C13.3210369,38.5466743 13.4809549,38.7944619 13.559811,39.0181098 C13.6563132,39.2907472 13.6745108,39.5967542 13.6871939,39.8963713 C13.7180747,40.6198544 13.7230376,41.3440475 13.714766,42.0682405 C13.7040887,42.4061023 13.7099824,42.7444949 13.7324121,43.0814008 C13.7610871,43.4129676 13.8245028,43.7388545 13.8454576,44.0711313 C13.869721,44.4701475 13.8333259,44.8783936 13.9088734,45.2667598 C13.9695319,45.5798668 14.1013264,45.8922638 14.1184211,46.2004009 Z" id="Path" fill="#000000" opacity="0.1"></path>
                    <path d="M15.4019139,46.0696136 C15.343592,46.1365742 15.2673235,46.1717119 15.1892374,46.1675959 C15.1211479,46.1640685 15.0531482,46.1770074 14.9887637,46.2057416 C14.8725471,45.2932351 14.7576863,44.3812272 14.6441814,43.4697179 C14.5964041,43.1340129 14.563038,42.7951735 14.5442351,42.4547413 C14.529127,42.0605684 14.5529514,41.6656476 14.5314513,41.2722226 C14.5053025,40.7882949 14.4111671,40.3170825 14.3210992,39.8511058 C14.2676395,39.5721182 14.0224224,38.7403909 14.1595581,38.5047847 C14.3733967,38.6827983 14.5035593,39.063508 14.5761947,39.3671782 C14.6511458,39.7182537 14.6988348,40.0780397 14.7185601,40.4412433 L14.8824255,42.5519756 C14.9730745,43.7195352 15.0666289,44.902054 15.3833192,46.0030455 C15.3897111,46.0254842 15.396103,46.0509147 15.4019139,46.0696136 Z" id="Path" fill="#000000" opacity="0.1"></path>
                    <path d="M16.9148893,34.3282926 C17.0773769,34.1696259 17.2398645,34.0102476 17.3888114,33.8352162 C17.5989834,33.5776964 17.7931397,33.303318 17.9698275,33.0141338 C18.1581654,32.7174341 18.3452723,32.4136194 18.4622141,32.0706716 C18.594543,31.6779181 18.6351649,31.2310899 18.8653556,30.9052184 C18.8913804,30.8628748 18.927531,30.8302336 18.9693722,30.8112991 C19.1004701,30.7636279 19.198332,30.9536011 19.2235668,31.1108447 C19.3466634,31.8806985 19.0530779,32.6491292 18.7674937,33.3592161 C18.6733248,33.5933028 18.5748475,33.8337932 18.4117445,34.0109591 C18.3255768,34.1041669 18.2270995,34.1760294 18.1316996,34.2592761 C17.987507,34.3947794 17.854786,34.5458249 17.7353284,34.7103734 C17.5301674,34.9797985 17.3350592,35.2589475 17.1500039,35.5478206 C16.9204287,35.9035755 16.7050096,36.2764067 16.432966,36.5901826 C16.1609224,36.9039584 15.8205602,37.1593905 15.4395761,37.2212919 C15.5485167,37.2042156 15.5128186,36.4649568 15.5011245,36.371749 C15.4845064,36.2365621 15.4044936,36.0771839 15.4020317,35.9448431 C15.3989542,35.7826188 15.4561942,35.759139 15.571905,35.6452974 L16.9148893,34.3282926 Z" id="Path" fill="#EFB7B9"></path>
                    <path d="M16.9148893,34.3282926 C17.0773769,34.1696259 17.2398645,34.0102476 17.3888114,33.8352162 C17.5989834,33.5776964 17.7931397,33.303318 17.9698275,33.0141338 C18.1581654,32.7174341 18.3452723,32.4136194 18.4622141,32.0706716 C18.594543,31.6779181 18.6351649,31.2310899 18.8653556,30.9052184 C18.8913804,30.8628748 18.927531,30.8302336 18.9693722,30.8112991 C19.1004701,30.7636279 19.198332,30.9536011 19.2235668,31.1108447 C19.3466634,31.8806985 19.0530779,32.6491292 18.7674937,33.3592161 C18.6733248,33.5933028 18.5748475,33.8337932 18.4117445,34.0109591 C18.3255768,34.1041669 18.2270995,34.1760294 18.1316996,34.2592761 C17.987507,34.3947794 17.854786,34.5458249 17.7353284,34.7103734 C17.5301674,34.9797985 17.3350592,35.2589475 17.1500039,35.5478206 C16.9204287,35.9035755 16.7050096,36.2764067 16.432966,36.5901826 C16.1609224,36.9039584 15.8205602,37.1593905 15.4395761,37.2212919 C15.5485167,37.2042156 15.5128186,36.4649568 15.5011245,36.371749 C15.4845064,36.2365621 15.4044936,36.0771839 15.4020317,35.9448431 C15.3989542,35.7826188 15.4561942,35.759139 15.571905,35.6452974 L16.9148893,34.3282926 Z" id="Path" fill="#A1616A" opacity="0.1"></path>
                    <path d="M13.8219517,28.2368421 C13.8219517,28.2368421 13.3909215,30.7480237 12.888053,31.166554 C12.3851845,31.5850843 15.6179107,32.0873206 15.6179107,32.0873206 C15.6179107,32.0873206 15.689749,30.0783753 16.5518093,29.1576087 C17.4138696,28.2368421 13.8219517,28.2368421 13.8219517,28.2368421 Z" id="Path" fill="#EFB7B9"></path>
                    <path d="M12.4811267,30.8144018 C12.2593576,30.8440396 12.0557628,30.9502971 11.9071763,31.1139506 C11.5544359,31.4850987 11.4841868,32.0498577 11.6082438,32.5422865 C11.7323008,33.0347154 12.017034,33.4708876 12.3129772,33.8866028 C12.6986001,34.4287129 13.113369,34.9627863 13.6492055,35.3653506 C13.9390762,35.5705842 14.2399301,35.7605679 14.550487,35.9344932 C15.0665335,36.2452363 15.5624597,36.5868361 16.0354343,36.9573425 C16.1391246,37.0491303 16.2578612,37.1232235 16.38668,37.1765244 C16.4975546,37.2104799 16.6136279,37.2253133 16.729705,37.2203608 C17.1220758,37.2161932 17.5087649,37.1281678 17.8626592,36.9624567 C17.8958181,36.9499146 17.9251457,36.9292915 17.947855,36.902547 C17.9745509,36.8459945 17.9759052,36.7811185 17.9515916,36.7235483 C17.7408442,35.8906568 18.1473924,34.9459824 17.7438335,34.1846903 C17.3051501,34.3242361 16.8238687,34.4769329 16.3851853,34.6128258 C16.3179081,34.6395333 16.2454616,34.6515037 16.1729432,34.6478949 C16.0860436,34.6302467 16.006456,34.5877837 15.9442598,34.5258836 C15.4689571,34.1240499 15.1692773,33.5644052 14.8979961,33.011336 C14.6267148,32.4582668 14.3606649,31.887663 13.9331914,31.4376093 C13.5057179,30.9875556 13.1058957,30.7493779 12.4811267,30.8144018 Z" id="Path" fill="#006848"></path>
                    <path d="M12.4811267,30.8144018 C12.2593576,30.8440396 12.0557628,30.9502971 11.9071763,31.1139506 C11.5544359,31.4850987 11.4841868,32.0498577 11.6082438,32.5422865 C11.7323008,33.0347154 12.017034,33.4708876 12.3129772,33.8866028 C12.6986001,34.4287129 13.113369,34.9627863 13.6492055,35.3653506 C13.9390762,35.5705842 14.2399301,35.7605679 14.550487,35.9344932 C15.0665335,36.2452363 15.5624597,36.5868361 16.0354343,36.9573425 C16.1391246,37.0491303 16.2578612,37.1232235 16.38668,37.1765244 C16.4975546,37.2104799 16.6136279,37.2253133 16.729705,37.2203608 C17.1220758,37.2161932 17.5087649,37.1281678 17.8626592,36.9624567 C17.8958181,36.9499146 17.9251457,36.9292915 17.947855,36.902547 C17.9745509,36.8459945 17.9759052,36.7811185 17.9515916,36.7235483 C17.7408442,35.8906568 18.1473924,34.9459824 17.7438335,34.1846903 C17.3051501,34.3242361 16.8238687,34.4769329 16.3851853,34.6128258 C16.3179081,34.6395333 16.2454616,34.6515037 16.1729432,34.6478949 C16.0860436,34.6302467 16.006456,34.5877837 15.9442598,34.5258836 C15.4689571,34.1240499 15.1692773,33.5644052 14.8979961,33.011336 C14.6267148,32.4582668 14.3606649,31.887663 13.9331914,31.4376093 C13.5057179,30.9875556 13.1058957,30.7493779 12.4811267,30.8144018 Z" id="Path" fill="#000000" opacity="0.1"></path>
                    <circle id="Oval" fill="#EFB7B9" cx="14.7601675" cy="28.8785885" r="1.92523923"></circle>
                    <path d="M16.5135627,34.4965559 L16.5087616,34.5058152 C16.3901068,34.7344493 16.2124674,34.9267583 16.0903832,35.1546801 C15.9532099,35.4125166 15.8894243,35.7066782 15.834555,35.9965662 C15.7966038,36.1912494 15.7616246,36.38617 15.7296175,36.581328 C15.6966959,36.7793351 15.6658319,36.9773421 15.6377114,37.1767737 C15.0163165,36.9581112 14.3277067,37.3249229 13.6843641,37.1910188 C13.4916357,37.1511325 13.3071376,37.0670863 13.1109798,37.057827 C12.9676338,37.0507045 12.8236019,37.0841805 12.6802558,37.0699354 C12.4422602,37.0464309 12.2063222,36.8911592 11.9793004,36.9702196 C11.8777922,37.0058324 11.7522786,37.0813314 11.6795768,36.9994221 C11.6632004,36.978191 11.6506532,36.9540614 11.64254,36.9281965 C11.5835555,36.7593919 11.5231993,36.5777667 11.565723,36.4039764 C11.6020739,36.2558272 11.7070115,36.138305 11.7797133,36.0051133 C11.9052268,35.7736302 11.9306039,35.4994118 11.9470647,35.2337405 C11.9889025,34.5471261 11.9875308,33.8555259 12.0958977,33.1767463 C12.2042646,32.4979668 12.432658,31.8234607 12.874356,31.3077877 C13.0910897,31.0556492 13.3743525,30.8412603 13.6973956,30.8134823 C14.8860019,30.7137665 15.8475865,31.3946829 16.3667873,32.4758868 C16.6685685,33.1026717 16.8290612,33.8761813 16.5135627,34.4965559 Z" id="Path" fill="#006848"></path>
                    <path d="M19.481875,34.3282926 C19.6443626,34.1696259 19.8068501,34.0102476 19.955797,33.8352162 C20.1659691,33.5776964 20.3601254,33.303318 20.5368132,33.0141338 C20.725151,32.7174341 20.9122579,32.4136194 21.0291997,32.0706716 C21.1615286,31.6779181 21.2021505,31.2310899 21.4323412,30.9052184 C21.4583661,30.8628748 21.4945166,30.8302336 21.5363579,30.8112991 C21.6674558,30.7636279 21.7653176,30.9536011 21.7905524,31.1108447 C21.9136491,31.8806985 21.6200636,32.6491292 21.3344794,33.3592161 C21.2403105,33.5933028 21.1418332,33.8337932 20.9787301,34.0109591 C20.8925625,34.1041669 20.7940851,34.1760294 20.6986853,34.2592761 C20.5544926,34.3947794 20.4217716,34.5458249 20.3023141,34.7103734 C20.097153,34.9797985 19.9020448,35.2589475 19.7169896,35.5478206 C19.4874143,35.9035755 19.2719952,36.2764067 18.9999517,36.5901826 C18.7279081,36.9039584 18.3875459,37.1593905 18.0065618,37.2212919 C18.1155023,37.2042156 18.0798043,36.4649568 18.0681101,36.371749 C18.0514921,36.2365621 17.9714792,36.0771839 17.9690173,35.9448431 C17.9659399,35.7826188 18.0231798,35.759139 18.1388907,35.6452974 L19.481875,34.3282926 Z" id="Path" fill="#A1616A"></path>
                    <path d="M15.4019139,35.0502346 L15.3965102,35.0598771 C15.2629617,35.297974 15.0630249,35.4982423 14.9256167,35.7355974 C14.7712253,36.0041053 14.6994334,36.3104417 14.6376768,36.6123277 C14.5949619,36.8150685 14.5555921,37.0180566 14.5195675,37.2212919 C14.2423598,37.0685171 13.974324,36.900867 13.7167326,36.7191375 C13.1632398,36.3104417 12.7348038,35.7682337 12.3364742,35.2171249 C12.0276916,34.7950779 11.7343481,34.3522623 11.6085192,33.8530749 C11.4826902,33.3538875 11.5560261,32.7797849 11.9173018,32.4029837 C12.0707489,32.2366673 12.2810239,32.1285428 12.5101645,32.0981308 C13.1555202,32.0321164 13.5631133,32.2716967 14.0046724,32.7278635 C14.4462316,33.1840303 14.7195042,33.7662919 15.0012684,34.3255599 C15.1263254,34.5681071 15.2544702,34.8165882 15.4019139,35.0502346 Z" id="Path" fill="#000000" opacity="0.1"></path>
                    <path d="M12.4811267,32.0978947 C12.2593576,32.1275324 12.0557628,32.23379 11.9071763,32.3974434 C11.5544359,32.7685916 11.4841868,33.3333505 11.6082438,33.8257794 C11.7323008,34.3182082 12.017034,34.7543804 12.3129772,35.1700956 C12.6986001,35.7122057 13.113369,36.2462792 13.6492055,36.6488434 C13.9390762,36.8540771 14.2399301,37.0440607 14.550487,37.217986 C15.0665335,37.5287291 15.5624597,37.8703289 16.0354343,38.2408353 C16.1391246,38.3326231 16.2578612,38.4067163 16.38668,38.4600173 C16.4975546,38.4939727 16.6136279,38.5088061 16.729705,38.5038537 C17.1220758,38.499686 17.5087649,38.4116606 17.8626592,38.2459495 C17.8958181,38.2334074 17.9251457,38.2127843 17.947855,38.1860398 C17.9745509,38.1294874 17.9759052,38.0646113 17.9515916,38.0070412 C17.7408442,37.1741496 18.1473924,36.2294752 17.7438335,35.4681831 C17.3051501,35.607729 16.8238687,35.7604257 16.3851853,35.8963186 C16.3179081,35.9230261 16.2454616,35.9349966 16.1729432,35.9313877 C16.0860436,35.9137395 16.006456,35.8712765 15.9442598,35.8093764 C15.4689571,35.4075427 15.1692773,34.8478981 14.8979961,34.2948288 C14.6267148,33.7417596 14.3606649,33.1711558 13.9331914,32.7211021 C13.5057179,32.2710484 13.1058957,32.0328707 12.4811267,32.0978947 Z" id="Path" fill="#006848"></path>
                    <path d="M16.5492447,27.6862619 C16.7543685,27.4212198 16.7106652,26.9936292 16.5316223,26.7053659 C16.3525795,26.4171026 16.0706223,26.2361373 15.7964189,26.0711866 C15.3600901,25.807746 14.8582062,25.5531134 14.3866327,25.7268721 C14.2026557,25.7949343 14.04194,25.923852 13.8727657,26.03115 C13.561203,26.22813 13.21792,26.3514426 12.9007182,26.5356108 C12.5835163,26.7197791 12.2804123,26.982419 12.143663,27.3563605 C12.0069138,27.7303021 12.0520269,28.13307 12.0872716,28.5262291 C12.1408434,29.134785 12.1718587,29.7521489 12.0971401,30.3583026 C12.0224214,30.9644563 11.8370345,31.5642041 11.4965712,32.0398385 C11.2583173,32.3729428 10.9425252,32.6499959 10.799432,33.0471587 C10.7290106,33.2758171 10.689557,33.5152953 10.6824197,33.7574074 L10.6055864,34.7895502 C10.575276,35.2011261 10.5294579,35.6511372 10.2679426,35.937799 C10.6034717,35.8497186 10.9481644,35.7568337 11.2315314,35.5374333 C11.3999612,35.394417 11.5534491,35.2300008 11.689007,35.0473857 C11.9568664,34.7118793 12.2352991,34.3539523 12.3156569,33.9103471 C12.3755728,33.5788443 12.3255254,33.2025005 12.5031585,32.9310526 C12.7146264,32.61076 13.1565944,32.61076 13.4533543,32.8197509 C13.7501143,33.0287418 13.9312718,33.3954768 14.0877581,33.7494001 C14.2442443,34.1033234 14.4063697,34.4756635 14.6798683,34.7238902 C14.9043722,34.9172964 15.1681121,35.0434141 15.4467919,35.0906252 C15.6342935,35.1298611 15.8471712,35.1410713 15.9951987,35.004947 C16.197503,34.8191773 16.1770611,34.465254 16.1115061,34.1793929 C16.0248042,33.8006469 15.8901696,33.4058863 15.9839204,33.0287418 C16.0149357,32.903027 16.0706223,32.7885224 16.105162,32.6620068 C16.1464129,32.4811403 16.1656242,32.2946998 16.1622584,32.1079007 C16.1819954,31.1686428 16.2193547,30.157319 15.9507904,29.254094 C15.8647935,28.9650299 15.6342935,28.6895783 15.7527155,28.3732894 C15.9000381,27.9897391 16.3250887,27.9761266 16.5492447,27.6862619 Z" id="Path" fill="#000000" opacity="0.727260045"></path>
                    <g id="Group" opacity="0.1" transform="translate(10.267943, 25.669856)" fill="#000000">
                        <path d="M2.07750791,2.03399836 C2.11997566,1.66025285 2.05878855,1.28621033 1.89440242,0.914657517 C1.86521169,0.841701083 1.83336726,0.768069126 1.80948394,0.693761647 C1.73592291,0.92509714 1.76440672,1.15780235 1.89440242,1.38752329 C1.97932091,1.60233946 2.04566348,1.81850667 2.07750791,2.03399836 Z" id="Path"></path>
                        <path d="M5.66829493,6.38031038 C5.52180934,6.49514921 5.31114911,6.48569189 5.12560069,6.45259129 C4.84982382,6.41276252 4.58883114,6.30636558 4.3666658,6.14320196 C4.09810888,5.93108789 3.94255513,5.61764543 3.78490873,5.31838894 C3.62726233,5.01913246 3.44799186,4.71041866 3.15711332,4.53410728 C2.86623479,4.3577959 2.42189515,4.35847142 2.21263002,4.62800491 C2.03684731,4.85700705 2.08637339,5.17450264 2.0270816,5.45416898 C1.94756085,5.82840846 1.67202842,6.12969151 1.40695925,6.41341098 C1.27281344,6.56747088 1.12092431,6.70617765 0.954249012,6.82683077 C0.746373456,6.95578093 0.516961717,7.04880772 0.276229977,7.10176845 C0.242901173,7.3047371 0.146834673,7.49315801 0.000697550447,7.64218648 C0.332731563,7.567879 0.673833732,7.48951838 0.954249012,7.30442521 C1.12092431,7.18377208 1.27281344,7.04506532 1.40695925,6.89100541 C1.67202842,6.60796147 1.94756085,6.3060029 2.0270816,5.93176341 C2.08637339,5.65209708 2.03684731,5.33460149 2.21263002,5.10559935 C2.42189515,4.83539033 2.85925928,4.83539033 3.15292802,5.01170171 C3.44659676,5.18801309 3.62586722,5.49740242 3.78072342,5.79598338 C3.93557962,6.09456434 4.09601623,6.40665575 4.3666658,6.61606774 C4.58883114,6.77923136 4.84982382,6.88562829 5.12560069,6.92545706 C5.31114911,6.95855767 5.52180934,6.96801498 5.66829493,6.85317615 C5.855936,6.70658776 5.84965805,6.43435218 5.79455157,6.20264795 C5.77094236,6.27237475 5.7271129,6.33404951 5.66829493,6.38031038 L5.66829493,6.38031038 Z" id="Path"></path>
                        <path d="M6.21656959,0.206034374 C5.99474854,0.450573533 5.57412562,0.462732939 5.42973268,0.788334802 C5.36625559,0.930870058 5.40392331,1.06462352 5.46530775,1.19364833 C5.63411496,0.930870058 6.0107922,0.903849156 6.21656959,0.676873583 C6.36654293,0.511370562 6.38188904,0.27156006 6.30794869,0.0587704608 C6.28655696,0.112627824 6.25563441,0.162461708 6.21656959,0.206034374 Z" id="Path"></path>
                        <path d="M5.92853744,3.93626983 C5.93340069,4.0938595 5.90564248,4.25114664 5.84603928,4.40373143 C5.79613299,4.50911294 5.71567182,4.60638819 5.670858,4.71312075 C5.6127891,4.87318713 5.6127891,5.04010612 5.670858,5.2001725 C5.670858,5.19544384 5.670858,5.19071519 5.670858,5.18598653 C5.71567182,5.07992949 5.79613299,4.98332977 5.84603928,4.8765972 C5.90564248,4.72401241 5.93340069,4.56672527 5.92853744,4.40913561 C5.93974089,4.09366658 5.95501833,3.76941576 5.94483337,3.44448942 C5.9377039,3.60999245 5.9377039,3.77211785 5.92853744,3.93626983 Z" id="Path"></path>
                    </g>
                </g>
            </g>
        </g>
    </g>
</svg>