<svg width="24" height="24" viewBox="0 0 24 24" fill="none" xmlns="http://www.w3.org/2000/svg">
<path d="M21 2.27344L19.8047 3.14062C19.8047 3.14062 18.3135 4.24805 16.1719 5.34375C14.0303 6.43945 11.2412 7.5 8.78906 7.5H1.5V14.3438L1.52344 14.4609L3.02344 19.7109L3.1875 20.25H7.73438L7.47656 19.2891L6.25781 15H8.78906C11.209 15 13.998 16.0811 16.1484 17.1797C18.2988 18.2783 19.8047 19.3594 19.8047 19.3594L21 20.2266V13.3594C21.8672 13.0459 22.5 12.2197 22.5 11.25C22.5 10.2803 21.8672 9.4541 21 9.14062V2.27344ZM19.5 5.0625V17.4141C18.8789 16.9951 18.3867 16.6143 16.8281 15.8203C14.625 14.6953 11.7803 13.5557 9 13.5V9C11.8066 8.94434 14.6543 7.78125 16.8516 6.65625C18.4072 5.85938 18.8848 5.48145 19.5 5.0625ZM3 9H7.5V13.5H3V9ZM3.25781 15H4.6875L5.74219 18.75H4.3125L3.25781 15Z" fill="#B5BFBC"/>
</svg>
