<svg width="24" height="24" viewBox="0 0 24 24" fill="none" xmlns="http://www.w3.org/2000/svg">
<path d="M9.5 2C6.575 2 4.25 4.325 4.25 7.25C4.25 9.05 5.14971 10.7006 6.57471 11.6006C3.87471 12.6506 2 15.3503 2 18.4253H3.5C3.5 15.1253 6.2 12.4253 9.5 12.4253C9.95 12.4253 10.3247 12.4997 10.6997 12.5747C10.7348 12.5279 10.7802 12.4874 10.8169 12.4414C9.99556 13.4683 9.5 14.766 9.5 16.1753C9.5 19.4753 12.2 22.1753 15.5 22.1753C18.8 22.1753 21.5 19.4753 21.5 16.1753C21.5 12.8753 18.8 10.1753 15.5 10.1753C14.8339 10.1753 14.1942 10.2904 13.5942 10.4932C14.3169 9.59966 14.75 8.4255 14.75 7.25C14.75 4.325 12.425 2 9.5 2ZM9.5 3.42529C11.6 3.42529 13.25 5.07529 13.25 7.17529C13.25 9.27529 11.6 10.9253 9.5 10.9253C7.4 10.9253 5.75 9.27529 5.75 7.17529C5.75 5.07529 7.4 3.42529 9.5 3.42529ZM11.9565 11.3501C11.9352 11.3659 11.9133 11.3809 11.8921 11.397C11.9136 11.3811 11.9348 11.3657 11.9565 11.3501ZM15.5 11.6753C17.975 11.6753 20 13.7003 20 16.1753C20 18.6503 17.975 20.6753 15.5 20.6753C13.025 20.6753 11 18.6503 11 16.1753C11 13.7003 13.025 11.6753 15.5 11.6753ZM11.3735 11.8364C11.2811 11.9244 11.1922 12.0153 11.1055 12.1089C11.1923 12.0157 11.2797 11.9246 11.3735 11.8364ZM14.75 13.1753V16.625L13.4756 17.9009L14.5244 18.9497L16.25 17.2256V13.1753H14.75Z" fill="#B5BFBC"/>
</svg>
