<svg width="24" height="24" viewBox="0 0 24 24" fill="none" xmlns="http://www.w3.org/2000/svg">
<path d="M6.75 3C6.35742 3 5.95605 3.1377 5.67188 3.42188C5.3877 3.70605 5.25 4.10742 5.25 4.5V19.5C5.25 19.8926 5.3877 20.2939 5.67188 20.5781C5.95605 20.8623 6.35742 21 6.75 21H17.25C17.6426 21 18.0439 20.8623 18.3281 20.5781C18.6123 20.2939 18.75 19.8926 18.75 19.5V8.55469C18.75 8.16211 18.542 7.7373 18.3047 7.5L14.25 3.44531C14.0127 3.20801 13.5879 3 13.1953 3H6.75ZM6.75 4.5H13.1953L17.25 8.55469V19.5H6.75V4.5ZM8.25 11.25V18H15.75V11.25H8.25ZM9.75 12.75H14.25V16.5H9.75V12.75Z" fill="#B5BFBC"/>
</svg>
