<svg width="24" height="24" viewBox="0 0 24 24" fill="none" xmlns="http://www.w3.org/2000/svg">
<g clip-path="url(#clip0)">
<path d="M9.89062 1.25L9.77344 1.85938L9.32812 4.08594C8.61328 4.36719 7.96875 4.7627 7.38281 5.23438L5.20312 4.48438L4.61719 4.29688L4.3125 4.83594L2.8125 7.41406L2.50781 7.95312L2.95312 8.35156L4.64062 9.82812C4.5791 10.2119 4.5 10.5957 4.5 11C4.5 11.4043 4.5791 11.7881 4.64062 12.1719L2.95312 13.6484L2.50781 14.0469L2.8125 14.5859L4.3125 17.1641L4.61719 17.7031L5.20312 17.5156L7.38281 16.7656C7.96875 17.2373 8.61328 17.6328 9.32812 17.9141L9.77344 20.1406L9.89062 20.75H14.1094L14.2266 20.1406L14.6719 17.9141C15.3867 17.6328 16.0312 17.2373 16.6172 16.7656L18.7969 17.5156L19.3828 17.7031L19.6875 17.1641L21.1875 14.5859L21.4922 14.0469L21.0469 13.6484L19.3594 12.1719C19.4209 11.7881 19.5 11.4043 19.5 11C19.5 10.5957 19.4209 10.2119 19.3594 9.82812L21.0469 8.35156L21.4922 7.95312L21.1875 7.41406L19.6875 4.83594L19.3828 4.29688L18.7969 4.48438L16.6172 5.23438C16.0312 4.7627 15.3867 4.36719 14.6719 4.08594L14.2266 1.85938L14.1094 1.25H9.89062ZM11.1094 2.75H12.8906L13.2656 4.69531L13.3594 5.14062L13.7812 5.28125C14.6338 5.54785 15.4072 5.99902 16.0547 6.59375L16.3828 6.89844L16.8047 6.75781L18.7031 6.10156L19.5938 7.625L18.0938 8.96094L17.7422 9.24219L17.8594 9.6875C17.9561 10.1152 18 10.5518 18 11C18 11.4482 17.9561 11.8848 17.8594 12.3125L17.7656 12.7578L18.0938 13.0391L19.5938 14.375L18.7031 15.8984L16.8047 15.2422L16.3828 15.1016L16.0547 15.4062C15.4072 16.001 14.6338 16.4521 13.7812 16.7188L13.3594 16.8594L13.2656 17.3047L12.8906 19.25H11.1094L10.7344 17.3047L10.6406 16.8594L10.2188 16.7188C9.36621 16.4521 8.59277 16.001 7.94531 15.4062L7.61719 15.1016L7.19531 15.2422L5.29688 15.8984L4.40625 14.375L5.90625 13.0391L6.25781 12.7578L6.14062 12.3125C6.04395 11.8848 6 11.4482 6 11C6 10.5518 6.04395 10.1152 6.14062 9.6875L6.25781 9.24219L5.90625 8.96094L4.40625 7.625L5.29688 6.10156L7.19531 6.75781L7.61719 6.89844L7.94531 6.59375C8.59277 5.99902 9.36621 5.54785 10.2188 5.28125L10.6406 5.14062L10.7344 4.69531L11.1094 2.75ZM12 7.25C9.9375 7.25 8.25 8.9375 8.25 11C8.25 13.0625 9.9375 14.75 12 14.75C14.0625 14.75 15.75 13.0625 15.75 11C15.75 8.9375 14.0625 7.25 12 7.25ZM12 8.75C13.251 8.75 14.25 9.74902 14.25 11C14.25 12.251 13.251 13.25 12 13.25C10.749 13.25 9.75 12.251 9.75 11C9.75 9.74902 10.749 8.75 12 8.75Z" fill="#B5BFBC"/>
</g>
<defs>
<clipPath id="clip0">
<rect width="24" height="24" fill="white"/>
</clipPath>
</defs>
</svg>
